<?xml version="1.0" standalone="no"?>
<!DOCTYPE svg PUBLIC "-//W3C//DTD SVG 20010904//EN"
 "http://www.w3.org/TR/2001/REC-SVG-20010904/DTD/svg10.dtd">
<svg version="1.0" xmlns="http://www.w3.org/2000/svg"
 width="1280.000000pt" height="647.000000pt" viewBox="0 0 1280.000000 647.000000"
 preserveAspectRatio="xMidYMid meet">
<g transform="translate(0.000000,647.000000) scale(0.100000,-0.100000)"
fill="#000000" stroke="none">
<path d="M6288 6450 c-78 -24 -100 -41 -288 -225 -172 -167 -274 -251 -445
-366 -313 -209 -788 -437 -1363 -653 -424 -160 -696 -735 -773 -1631 -6 -71
-11 -255 -10 -407 0 -153 -4 -280 -9 -283 -5 -3 -145 -46 -312 -96 -751 -224
-1557 -481 -1750 -558 -293 -116 -763 -413 -1060 -669 -175 -151 -214 -203
-257 -348 -27 -91 -26 -114 4 -179 85 -179 296 -306 720 -435 424 -128 825
-216 1400 -304 795 -122 1104 -161 1625 -205 576 -49 789 -57 2010 -77 861
-14 1104 -15 1320 -6 146 7 398 17 560 22 924 33 1818 114 2810 256 843 120
1628 313 1946 478 211 110 320 204 364 311 23 57 23 58 5 104 -10 25 -21 75
-26 110 -23 170 -113 317 -273 446 -120 96 -294 220 -409 291 -292 181 -723
347 -1487 573 -340 101 -354 106 -398 145 -61 53 -92 104 -92 151 0 32 -6 47
-26 66 l-26 24 6 139 c12 234 43 369 147 632 70 178 151 323 335 602 154 233
167 256 159 281 -6 21 -68 64 -102 73 -36 9 -68 -25 -103 -109 -52 -127 -86
-197 -133 -275 -54 -88 -125 -250 -197 -448 -29 -80 -57 -151 -63 -157 -24
-32 -30 4 -24 147 l5 147 -27 49 c-34 59 -37 46 70 321 132 341 183 520 196
684 6 77 -7 176 -29 225 -25 55 -42 22 -90 -185 -21 -91 -67 -262 -102 -380
-36 -119 -83 -283 -104 -366 -22 -82 -44 -150 -50 -150 -6 0 -58 42 -116 94
-91 81 -106 98 -106 124 0 17 21 135 46 261 44 224 134 740 134 771 0 9 -9 15
-21 15 -11 0 -34 14 -51 30 -16 17 -31 30 -33 30 -28 0 -66 -244 -135 -860
-11 -101 -24 -188 -28 -192 -4 -4 -69 38 -144 93 l-137 101 -5 52 c-3 28 -15
224 -26 436 -36 669 -54 826 -101 876 -20 21 -31 24 -91 24 -65 0 -68 -1 -68
-24 0 -13 7 -43 15 -67 27 -74 62 -295 120 -735 59 -450 61 -474 44 -474 -19
0 -284 180 -291 198 -4 9 -26 134 -48 277 -91 574 -143 777 -214 844 -29 27
-106 41 -106 20 0 -37 45 -387 85 -663 50 -344 50 -346 32 -346 -49 0 -599
269 -826 405 -295 175 -457 303 -746 585 -292 285 -331 309 -584 355 -161 29
-177 29 -253 5z"/>
</g>
</svg>
