<?xml version="1.0" standalone="no"?>
<!DOCTYPE svg PUBLIC "-//W3C//DTD SVG 20010904//EN"
 "http://www.w3.org/TR/2001/REC-SVG-20010904/DTD/svg10.dtd">
<svg version="1.0" xmlns="http://www.w3.org/2000/svg"
 width="1015.000000pt" height="1280.000000pt" viewBox="0 0 1015.000000 1280.000000"
 preserveAspectRatio="xMidYMid meet">
<g transform="translate(0.000000,1280.000000) scale(0.100000,-0.100000)"
fill="#000000" stroke="none">
<path d="M6925 12790 c-11 -5 -46 -16 -78 -26 -32 -9 -122 -55 -200 -101 -375
-222 -633 -322 -972 -375 -168 -26 -681 -36 -915 -18 -527 41 -899 154 -1233
376 -143 95 -189 117 -276 135 -131 25 -266 -49 -323 -178 -17 -39 -28 -49
-84 -74 -35 -16 -70 -29 -77 -29 -8 0 -44 23 -80 50 -36 28 -73 50 -82 50 -9
0 -160 -73 -335 -162 l-319 -163 54 -55 c30 -31 55 -60 55 -65 0 -6 -65 -47
-145 -93 l-144 -83 -71 22 c-57 17 -89 21 -163 17 -81 -3 -102 -8 -167 -40
-90 -42 -164 -101 -224 -177 -136 -174 -417 -749 -645 -1321 -300 -750 -469
-1390 -498 -1880 -9 -145 41 -393 98 -489 12 -20 83 -196 159 -391 103 -268
145 -389 169 -495 175 -751 459 -1797 771 -2834 67 -222 120 -411 118 -421 -5
-32 -1091 -1438 -1115 -1444 -16 -4 -27 -22 -42 -68 -17 -52 -20 -80 -16 -163
23 -458 205 -855 555 -1205 470 -471 1195 -791 2160 -954 343 -58 624 -88
1131 -121 l96 -7 33 104 c57 181 138 314 271 446 411 409 1016 398 1420 -25
127 -134 207 -274 260 -456 22 -75 24 -78 48 -73 14 3 127 15 251 26 733 66
1286 173 1804 350 944 322 1555 838 1777 1500 65 195 94 435 73 594 -6 42 -9
46 -34 46 -15 0 -35 10 -47 23 -25 27 -1093 1417 -1093 1422 0 2 56 190 124
417 298 991 546 1896 737 2692 77 317 84 340 204 651 69 177 125 332 125 344
0 12 7 36 16 53 31 59 54 141 74 260 22 132 25 216 10 316 -5 37 -16 121 -25
187 -63 482 -280 1177 -598 1915 -144 334 -330 713 -438 891 -87 143 -175 228
-298 287 -64 31 -87 37 -163 40 -63 3 -107 -1 -156 -13 l-68 -18 -147 84 c-81
46 -147 89 -147 95 0 6 20 28 45 48 25 21 45 42 45 47 0 10 -653 339 -672 339
-7 0 -40 -21 -72 -45 -62 -47 -64 -47 -133 -19 -26 11 -39 27 -59 72 -26 60
-81 124 -125 147 -76 40 -159 54 -204 35z"/>
</g>
</svg>
