<?xml version="1.0" standalone="no"?>
<!DOCTYPE svg PUBLIC "-//W3C//DTD SVG 20010904//EN"
 "http://www.w3.org/TR/2001/REC-SVG-20010904/DTD/svg10.dtd">
<svg version="1.0" xmlns="http://www.w3.org/2000/svg"
 width="1280.000000pt" height="1186.000000pt" viewBox="0 0 1280.000000 1186.000000"
 preserveAspectRatio="xMidYMid meet">
<g transform="translate(0.000000,1186.000000) scale(0.100000,-0.100000)"
fill="#000000" stroke="none">
<path d="M6354 11850 c-20 -8 -119 -14 -596 -40 -192 -11 -385 -30 -487 -50
-30 -5 -131 -19 -225 -30 -225 -26 -302 -42 -481 -100 -82 -26 -168 -51 -190
-55 -73 -13 -305 -154 -365 -221 -39 -45 -80 -129 -80 -165 0 -14 -6 -32 -12
-41 -17 -21 -418 -189 -528 -221 -153 -46 -278 -62 -395 -51 -61 5 -84 13
-127 40 -66 43 -105 48 -292 39 l-154 -7 -94 -77 c-87 -73 -172 -156 -194
-191 -10 -17 -78 -64 -136 -95 -21 -11 -94 -72 -163 -135 -137 -126 -490 -489
-518 -532 -9 -15 -30 -34 -46 -43 -16 -8 -33 -25 -37 -37 -4 -13 -33 -49 -65
-80 -32 -32 -103 -122 -157 -200 -55 -79 -121 -167 -146 -197 -26 -29 -54 -70
-62 -90 -8 -20 -32 -54 -53 -76 -59 -62 -249 -371 -416 -680 -105 -193 -275
-539 -275 -559 0 -7 -14 -45 -31 -84 -29 -65 -31 -74 -19 -103 20 -48 53 -82
120 -125 33 -21 60 -41 60 -45 0 -12 277 -239 391 -320 56 -41 251 -173 432
-294 l330 -220 57 -230 c32 -126 70 -269 84 -318 25 -80 30 -89 64 -106 81
-42 119 -78 136 -128 64 -189 292 -291 476 -212 l47 20 139 -62 c76 -34 216
-86 309 -116 224 -73 211 -66 236 -115 12 -25 74 -95 144 -163 127 -124 140
-143 170 -235 10 -30 27 -73 38 -95 11 -21 27 -71 37 -110 10 -38 36 -140 59
-226 119 -452 163 -830 132 -1134 -16 -148 -23 -164 -81 -181 -64 -19 -147
-71 -245 -156 l-85 -73 -31 -95 c-19 -57 -33 -126 -36 -174 l-6 -79 -63 -61
c-34 -34 -66 -74 -69 -89 -5 -17 -19 -34 -39 -44 -17 -8 -32 -17 -34 -18 -1
-1 2 -15 8 -30 8 -21 7 -39 -4 -74 -23 -75 -27 -113 -15 -176 13 -74 55 -155
120 -231 27 -32 49 -63 49 -69 0 -5 -5 -39 -11 -75 -18 -113 -9 -141 79 -229
91 -92 149 -134 382 -276 96 -58 200 -125 230 -148 30 -22 71 -47 92 -54 21
-7 91 -46 155 -86 197 -123 712 -431 818 -489 55 -30 161 -90 235 -133 147
-85 188 -105 480 -232 401 -175 610 -235 900 -260 189 -16 652 126 957 292 34
19 83 40 110 48 72 22 602 346 923 565 190 130 444 321 599 450 142 119 445
414 552 538 78 91 79 92 104 195 17 69 25 132 25 189 0 62 6 100 21 140 17 45
20 70 16 140 -2 47 -12 105 -21 130 -10 25 -24 61 -31 80 -10 24 -14 85 -15
200 0 186 -11 276 -42 369 -17 54 -35 80 -116 169 l-96 105 -7 116 c-11 175
-10 462 1 584 49 519 214 892 445 1009 33 17 89 50 124 75 35 24 76 46 90 49
47 10 50 13 64 46 8 18 35 50 61 72 26 21 65 62 87 91 l39 52 113 6 c61 3 156
15 210 27 94 20 101 21 167 6 86 -20 167 -20 248 -1 118 28 188 79 258 191 48
75 49 75 166 136 l117 60 16 52 c29 96 84 391 110 591 32 243 42 274 98 311
86 56 467 345 584 442 66 56 200 176 296 268 140 132 182 177 202 220 14 29
25 59 25 66 0 7 -13 49 -30 91 -16 43 -30 87 -30 98 0 11 -26 72 -59 137 -32
64 -98 204 -146 311 -48 106 -127 270 -175 365 -48 94 -96 194 -106 221 -10
28 -30 64 -44 81 -15 17 -55 84 -89 149 -34 64 -92 165 -128 224 -37 58 -66
115 -65 126 1 11 -16 38 -37 60 -21 22 -91 103 -156 180 -156 184 -224 257
-306 330 -45 40 -84 87 -116 140 -27 44 -84 126 -127 183 -83 108 -82 108
-167 102 -14 0 -53 12 -85 28 -100 50 -131 57 -264 57 -94 0 -138 -4 -175 -18
l-50 -17 -133 40 c-194 58 -247 66 -340 51 -73 -12 -81 -11 -157 12 -44 14
-125 37 -180 52 -125 33 -291 90 -322 110 -17 12 -23 25 -23 53 0 71 -28 141
-75 186 -49 48 -147 102 -250 138 -128 45 -485 126 -600 137 -60 5 -182 19
-270 30 -175 22 -662 74 -875 93 -74 6 -288 12 -475 13 -187 1 -347 4 -355 8
-8 3 -24 2 -36 -3z"/>
</g>
</svg>
