<?xml version="1.0" standalone="no"?>
<!DOCTYPE svg PUBLIC "-//W3C//DTD SVG 20010904//EN"
 "http://www.w3.org/TR/2001/REC-SVG-20010904/DTD/svg10.dtd">
<svg version="1.0" xmlns="http://www.w3.org/2000/svg"
 width="1280.000000pt" height="1225.000000pt" viewBox="0 0 1280.000000 1225.000000"
 preserveAspectRatio="xMidYMid meet">
<g transform="translate(0.000000,1225.000000) scale(0.100000,-0.100000)"
fill="#000000" stroke="none">
<path d="M2216 12225 c-188 -55 -324 -152 -596 -425 -459 -459 -1075 -1208
-1305 -1585 -127 -209 -315 -610 -315 -672 1 -79 106 -257 214 -363 25 -24 46
-49 46 -55 0 -5 -25 -30 -55 -54 -171 -137 -213 -233 -181 -419 9 -49 27 -126
41 -171 36 -112 103 -183 285 -302 74 -48 145 -96 158 -106 26 -21 47 -91 177
-588 137 -525 197 -727 287 -965 61 -162 90 -224 233 -510 227 -454 329 -691
445 -1040 104 -311 202 -697 266 -1045 38 -205 11 -744 -60 -1210 -69 -448
-72 -618 -17 -896 119 -599 309 -957 620 -1163 133 -88 308 -146 501 -166 140
-13 1317 -7 1610 10 467 26 827 -13 1750 -186 1171 -221 1285 -238 1996 -304
140 -13 368 -13 487 0 51 5 139 14 197 20 219 23 454 90 632 182 142 72 276
164 525 359 157 124 260 196 354 249 237 134 333 251 334 409 0 93 -28 161
-109 260 -78 97 -83 108 -91 201 -21 268 -119 546 -266 755 -214 302 -717 670
-1154 843 -571 226 -1608 421 -2250 422 -188 0 -202 11 -85 60 80 33 261 125
540 273 135 71 295 152 355 180 326 147 688 261 1505 473 1054 273 1439 394
1865 584 624 277 903 511 1154 967 27 50 94 179 147 285 58 117 127 236 174
303 88 124 118 181 149 277 26 83 26 103 0 184 -32 100 -94 161 -233 229 -104
51 -113 57 -139 105 -82 147 -218 314 -336 413 -248 208 -484 303 -951 383
-328 57 -600 57 -975 3 -628 -91 -1553 -369 -2310 -694 -106 -46 -114 -48
-215 -49 -58 -1 -163 -6 -235 -10 -138 -9 -153 -7 -375 54 -95 27 -237 29
-338 5 l-74 -17 -31 29 c-18 16 -140 128 -272 249 -627 572 -1021 948 -1185
1129 -69 77 -236 268 -371 425 -299 349 -390 442 -639 650 -340 285 -590 553
-913 979 -256 336 -314 424 -322 483 -20 145 -96 316 -185 411 -70 76 -138
120 -236 152 -92 30 -125 30 -228 0z"/>
</g>
</svg>
