<?xml version="1.0" standalone="no"?>
<!DOCTYPE svg PUBLIC "-//W3C//DTD SVG 20010904//EN"
 "http://www.w3.org/TR/2001/REC-SVG-20010904/DTD/svg10.dtd">
<svg version="1.0" xmlns="http://www.w3.org/2000/svg"
 width="1280.000000pt" height="1206.000000pt" viewBox="0 0 1280.000000 1206.000000"
 preserveAspectRatio="xMidYMid meet">
<g transform="translate(0.000000,1206.000000) scale(0.100000,-0.100000)"
fill="#000000" stroke="none">
<path d="M6410 11268 c-47 -5 -189 -9 -316 -8 -228 1 -234 1 -357 -29 -69 -17
-145 -40 -170 -51 -70 -31 -133 -39 -245 -32 -181 13 -284 0 -499 -62 -204
-59 -358 -127 -542 -241 -177 -109 -740 -634 -891 -830 -30 -38 -76 -94 -102
-124 -93 -103 -301 -438 -365 -586 -62 -143 -432 -1087 -443 -1128 -7 -26 -21
-52 -30 -57 -10 -6 -65 -7 -127 -4 -130 8 -231 -10 -331 -58 -73 -34 -151
-107 -262 -243 -36 -43 -82 -97 -104 -120 -21 -22 -55 -62 -76 -90 -41 -55
-77 -89 -129 -125 -47 -32 -105 -127 -126 -205 -20 -71 -17 -177 6 -230 71
-164 313 -409 559 -566 47 -29 107 -68 133 -85 27 -18 104 -58 173 -90 73 -34
126 -65 129 -75 6 -17 -30 -91 -101 -209 -33 -56 -93 -112 -161 -152 -193
-114 -491 -367 -572 -487 -113 -169 -200 -394 -221 -574 -16 -137 23 -344 90
-483 84 -173 391 -418 549 -438 62 -8 91 -21 91 -40 0 -8 -11 -38 -24 -67 -33
-72 -66 -239 -66 -331 1 -263 68 -466 211 -638 53 -64 69 -89 64 -105 -3 -11
-19 -83 -36 -160 -52 -253 -35 -410 72 -631 38 -77 58 -104 154 -200 103 -104
216 -188 405 -302 73 -43 257 -105 415 -139 211 -45 241 -47 485 -33 124 6
252 15 285 19 103 13 112 8 300 -162 35 -32 127 -90 198 -125 101 -50 189 -66
352 -66 142 0 223 16 360 68 22 8 47 15 55 16 9 0 53 16 99 35 53 22 99 35
127 35 25 0 55 6 67 14 22 13 63 20 322 52 177 22 202 18 353 -63 190 -100
197 -103 320 -134 212 -54 420 -46 604 22 44 16 97 29 119 29 33 0 41 4 49 25
5 14 14 25 19 25 5 0 30 17 54 38 130 112 217 119 267 22 36 -70 187 -213 313
-295 209 -136 358 -189 632 -226 291 -38 598 -24 773 35 39 13 133 60 209 104
76 45 171 96 211 113 40 18 71 37 69 43 -6 17 -89 9 -169 -18 -40 -14 -113
-32 -163 -41 -49 -9 -126 -25 -169 -36 -95 -23 -165 -24 -348 -4 -157 16 -232
33 -338 76 -75 31 -214 102 -280 143 -155 98 -165 108 -322 306 -59 74 -64 85
-49 108 14 22 208 75 301 81 66 5 85 9 85 21 0 32 -203 17 -384 -27 -64 -16
-65 -16 -80 6 -9 12 -29 38 -46 58 -28 33 -61 87 -159 260 -21 37 -47 80 -57
95 -33 48 -26 58 39 58 44 0 88 -11 179 -44 177 -64 376 -151 473 -207 47 -26
119 -62 160 -79 41 -17 107 -46 145 -64 183 -86 345 -140 535 -180 90 -19 162
-25 330 -31 237 -7 345 2 499 41 100 25 344 119 426 165 28 15 76 35 107 45
31 9 55 21 53 25 -10 15 -164 -2 -285 -32 -228 -55 -536 -80 -739 -60 -131 14
-325 51 -426 82 -93 28 -500 195 -645 264 -63 30 -122 55 -130 55 -8 0 -44 14
-80 31 -67 32 -256 107 -322 129 -57 18 -51 45 14 74 219 96 277 113 312 94
13 -7 102 -53 197 -102 96 -49 215 -110 264 -136 99 -53 289 -121 405 -144 41
-8 139 -22 218 -31 236 -27 357 -7 762 127 266 88 410 156 410 193 0 19 -22
24 -66 15 -21 -4 -66 -13 -99 -20 -33 -6 -80 -17 -105 -24 -229 -67 -576 -87
-812 -46 -241 41 -628 179 -728 259 -19 15 -49 35 -66 44 -47 24 -57 41 -36
59 25 22 236 100 397 148 77 23 165 52 195 65 30 13 125 40 210 60 85 19 189
45 230 56 63 18 114 22 311 26 206 5 252 3 370 -15 73 -12 157 -24 184 -28 28
-3 91 -14 140 -25 185 -38 296 -49 501 -49 161 0 204 3 213 14 7 8 8 17 4 19
-5 3 -62 10 -128 17 -152 13 -329 40 -615 90 -124 22 -263 44 -310 49 -167 20
-451 34 -557 28 -179 -10 -576 -101 -755 -173 -238 -97 -433 -154 -586 -171
-48 -6 -88 16 -152 82 -29 30 -32 37 -20 45 8 5 24 10 35 10 11 0 52 10 90 21
39 11 90 26 115 33 111 32 170 75 365 267 94 92 206 195 250 228 44 33 109 86
145 116 89 76 99 78 160 21 63 -59 133 -94 153 -77 20 16 10 49 -22 68 -44 28
-111 96 -111 114 0 37 144 120 290 168 96 32 245 54 316 47 75 -8 291 -69 355
-101 87 -44 273 -167 334 -219 83 -73 131 -104 275 -179 202 -106 407 -167
615 -182 176 -13 493 43 546 96 34 34 24 43 -38 33 -32 -5 -121 -9 -198 -8
-151 1 -235 18 -437 85 -180 61 -230 89 -362 209 -82 74 -152 131 -211 174
-22 16 -74 59 -115 96 -97 86 -142 119 -212 158 -84 46 -289 120 -403 143
-120 25 -305 30 -415 10 -95 -17 -227 -61 -288 -97 -70 -40 -191 -133 -240
-183 l-42 -43 -40 26 c-22 14 -40 30 -40 35 0 4 -18 21 -40 36 -57 39 -52 67
21 116 20 13 62 43 93 67 103 78 113 82 298 107 194 27 213 32 353 103 111 56
301 126 384 142 66 12 202 12 296 0 48 -6 95 -21 155 -51 47 -23 110 -53 140
-68 30 -14 159 -88 285 -165 369 -223 483 -277 711 -336 106 -27 130 -30 282
-30 92 0 184 5 205 11 37 10 48 31 25 46 -7 4 -98 10 -203 14 l-190 7 -138 46
c-160 54 -206 76 -314 149 -43 30 -112 73 -153 97 -98 57 -174 105 -235 151
-70 51 -173 101 -287 137 -120 38 -187 50 -343 58 -209 11 -336 -16 -564 -120
-155 -71 -267 -106 -340 -106 -55 0 -81 11 -81 36 0 11 122 114 136 114 3 0
48 30 99 67 187 136 222 159 350 236 291 175 583 289 816 318 74 9 114 7 290
-15 112 -14 221 -31 242 -37 42 -11 196 -84 239 -113 37 -24 150 -70 278 -113
101 -34 109 -35 206 -29 118 7 157 18 152 44 -3 14 -18 18 -88 24 -63 4 -126
19 -241 57 -164 54 -218 82 -314 165 -33 29 -73 60 -90 68 -16 9 -59 31 -95
51 -147 78 -417 147 -581 147 -79 0 -276 -33 -374 -62 -258 -77 -334 -105
-445 -162 -41 -21 -110 -56 -153 -77 -91 -46 -177 -103 -246 -162 -74 -65
-307 -246 -365 -283 -95 -63 -186 -129 -236 -171 -43 -36 -57 -42 -115 -48
-134 -15 -219 -3 -350 49 -66 26 -129 55 -140 65 -11 9 -39 30 -63 46 -87 58
-133 106 -130 134 3 25 5 26 63 24 33 -1 125 -15 205 -31 177 -37 370 -57 468
-48 94 8 193 42 285 99 99 62 144 109 180 186 28 59 31 73 30 161 -2 146 -33
210 -171 342 -96 92 -101 110 -77 274 22 148 63 301 140 515 69 192 206 662
225 769 6 36 24 119 40 185 83 346 98 492 102 980 3 363 0 404 -42 575 -11 41
-29 124 -40 184 -23 114 -70 256 -122 366 -170 363 -252 511 -367 670 -47 66
-103 144 -124 174 -44 62 -614 634 -667 670 -43 28 -171 102 -223 128 -40 20
-113 66 -292 183 -132 86 -208 124 -335 166 -52 17 -111 39 -130 49 -19 9 -69
25 -110 34 -80 18 -177 43 -224 57 -16 5 -47 9 -70 9 -23 1 -68 7 -101 16 -76
19 -378 26 -495 12z m-4355 -5507 c-26 -63 -87 -264 -91 -301 -4 -25 -17 -77
-30 -117 -13 -40 -34 -128 -45 -195 -30 -172 -23 -451 14 -608 33 -139 66
-225 126 -324 69 -114 70 -122 27 -201 -26 -45 -43 -65 -56 -65 -33 0 -232
107 -296 159 -74 60 -174 182 -214 260 -15 32 -45 106 -65 167 -37 108 -37
110 -32 234 6 151 38 274 96 365 21 33 63 101 93 150 104 173 244 336 391 457
56 46 96 56 82 19z m300 -533 c30 -13 57 -30 60 -38 2 -8 5 -71 7 -140 2 -122
2 -126 -29 -185 -17 -33 -34 -76 -37 -96 -4 -20 -21 -74 -39 -120 -44 -112
-60 -112 -69 1 -23 283 -1 600 42 600 5 0 34 -10 65 -22z m301 -543 c62 -62
98 -143 90 -203 -3 -25 -12 -55 -20 -66 -7 -12 -19 -39 -26 -61 -7 -22 -27
-78 -45 -125 -18 -47 -36 -104 -40 -127 -10 -60 -28 -61 -91 -1 -65 61 -66 70
-24 194 43 125 60 206 66 304 9 151 17 158 90 85z m5045 -272 c20 -52 38 -178
39 -270 0 -83 -2 -93 -20 -103 -40 -21 -90 13 -169 115 -56 72 -61 97 -21 127
17 12 56 53 86 91 30 37 59 67 65 67 5 0 14 -12 20 -27z m606 -60 c60 -74 103
-110 175 -148 65 -35 189 -65 264 -65 16 0 39 -6 50 -14 19 -14 18 -15 -6 -41
-55 -59 -90 -68 -270 -70 -125 -2 -176 -6 -209 -19 -86 -32 -81 -43 -81 187 0
112 3 207 7 210 15 15 34 5 70 -40z m-844 -270 c40 -37 81 -76 92 -88 24 -25
110 -85 122 -85 5 0 17 -6 27 -13 17 -12 17 -18 1 -127 -13 -88 -22 -119 -37
-132 -25 -22 -51 -23 -68 -3 -7 8 -34 27 -60 41 -98 53 -150 154 -184 353 -17
96 -13 121 21 121 7 0 46 -30 86 -67z m1102 -143 c0 -8 -13 -21 -30 -29 -16
-8 -94 -53 -172 -99 -155 -92 -180 -98 -170 -37 7 42 28 72 83 114 66 50 127
69 214 68 58 -2 75 -5 75 -17z m461 -194 c60 -28 100 -82 90 -121 -4 -14 -32
-50 -64 -80 -32 -30 -83 -89 -113 -131 -155 -216 -238 -296 -392 -378 -54 -28
-80 -36 -120 -36 -95 1 -186 60 -231 150 -59 116 -39 157 103 210 30 12 95 51
145 89 50 37 153 110 230 160 76 51 158 108 183 127 54 41 96 44 169 10z
m-6586 -46 c22 -6 25 -12 23 -46 -3 -39 -59 -214 -94 -290 -11 -22 -19 -47
-19 -56 0 -9 -7 -32 -15 -52 -21 -49 -46 -45 -58 9 -13 62 -1 290 20 369 24
88 39 94 143 66z m161 -145 c-2 -49 -7 -98 -12 -107 -5 -9 -9 -49 -9 -88 0
-61 4 -76 25 -104 33 -43 42 -72 59 -192 17 -114 15 -124 -48 -299 -20 -55
-36 -101 -36 -102 0 -2 -8 -3 -19 -3 -55 0 -206 239 -226 360 -7 41 41 238 81
334 14 34 34 86 44 116 21 64 58 149 73 168 6 7 24 12 41 10 l31 -3 -4 -90z
m4400 -11 c70 -123 127 -187 235 -265 181 -130 299 -179 437 -179 85 0 116
-15 156 -79 65 -100 37 -137 -61 -82 -33 19 -87 37 -139 47 -46 8 -145 39
-219 68 -228 89 -320 106 -592 106 -108 0 -147 3 -151 13 -2 6 23 66 57 132
34 66 67 134 74 152 7 17 30 53 51 80 21 26 46 63 55 81 10 18 22 32 29 29 6
-2 37 -48 68 -103z m135 -763 c173 -30 239 -49 374 -106 69 -30 145 -59 170
-65 118 -31 394 -187 388 -219 -4 -18 -47 -41 -123 -67 -27 -9 -71 -32 -97
-50 -26 -18 -76 -45 -110 -60 -86 -36 -169 -31 -338 22 l-125 38 -157 128
c-86 71 -171 145 -189 166 -18 20 -60 61 -93 90 -64 56 -102 113 -91 139 5 14
24 15 143 10 75 -4 187 -16 248 -26z m-4825 -177 c45 -38 184 -134 193 -134 3
0 30 -16 60 -35 30 -19 58 -35 62 -35 17 0 54 -45 54 -65 0 -48 53 -302 70
-336 25 -48 73 -89 211 -182 181 -121 236 -135 579 -144 l225 -6 53 -56 c51
-53 161 -207 175 -243 3 -9 0 -21 -6 -26 -7 -5 -113 -13 -237 -16 -221 -7
-434 2 -600 25 -249 35 -587 212 -776 405 -76 77 -100 110 -137 186 -49 99
-77 210 -77 300 0 29 9 127 20 218 11 91 20 166 20 167 0 1 7 9 16 17 18 19
31 13 95 -40z m4128 -166 c17 -24 77 -89 133 -146 117 -118 117 -119 3 -146
-57 -13 -89 -14 -170 -7 -180 16 -189 34 -93 177 19 27 42 76 52 107 10 32 24
57 31 57 7 0 27 -19 44 -42z m-877 -388 c40 -6 129 -14 198 -19 122 -9 128
-10 245 -63 71 -32 184 -72 275 -98 150 -41 158 -42 256 -36 168 12 253 29
309 64 83 51 154 52 192 3 18 -24 16 -36 -13 -70 -68 -81 -400 -189 -664 -216
-36 -3 -105 -13 -155 -22 -63 -10 -120 -13 -190 -9 -261 16 -308 38 -488 222
-168 173 -165 169 -136 201 21 23 71 52 91 53 4 0 40 -5 80 -10z m-219 -199
c40 -37 83 -73 95 -80 25 -13 29 -39 8 -47 -8 -3 -36 6 -62 19 -27 14 -98 44
-159 67 -136 52 -139 53 -143 74 -3 13 6 16 55 17 32 0 67 4 78 9 40 17 57 9
128 -59z m-616 -29 c26 -21 61 -56 78 -78 16 -21 41 -50 55 -65 14 -14 46 -48
72 -76 34 -37 70 -62 125 -88 43 -21 146 -70 228 -111 164 -80 225 -99 358
-109 95 -7 234 -29 244 -38 13 -14 -8 -37 -34 -37 -15 0 -53 -7 -83 -15 -30
-9 -90 -20 -133 -26 -43 -5 -103 -19 -132 -30 -30 -11 -71 -19 -92 -17 -29 2
-40 -1 -48 -16 -23 -45 -332 -139 -495 -151 -169 -12 -388 38 -511 116 -77 49
-199 166 -199 191 0 10 2 18 4 18 2 0 41 6 87 14 106 18 267 35 339 36 143 3
396 -19 450 -39 109 -39 164 -63 189 -80 14 -10 37 -22 51 -26 14 -4 35 -17
48 -28 12 -11 22 -15 22 -9 0 22 -121 112 -213 158 l-92 47 -270 7 c-267 7
-429 1 -576 -21 -41 -7 -87 -9 -102 -5 -36 9 -91 59 -120 109 -13 23 -43 73
-66 110 -66 108 -64 110 109 124 260 20 435 59 523 115 41 27 108 56 129 58 3
0 28 -17 55 -38z m2502 -179 c21 -21 70 -93 109 -160 61 -104 72 -129 72 -168
0 -40 -5 -50 -37 -81 -21 -19 -47 -37 -58 -40 -11 -3 -49 -20 -85 -38 -88 -42
-191 -44 -295 -5 -130 49 -338 92 -502 102 -114 8 -153 14 -153 23 0 17 31 34
62 34 13 1 41 8 63 16 22 9 76 26 121 39 44 12 103 32 130 44 70 31 266 145
354 206 88 61 93 63 144 64 32 1 45 -5 75 -36z m-564 -478 c185 -22 345 -64
345 -90 0 -22 -24 -33 -95 -46 -81 -14 -386 -6 -450 12 -54 15 -195 98 -195
114 0 37 136 40 395 10z"/>
</g>
</svg>
