<?xml version="1.0" standalone="no"?>
<!DOCTYPE svg PUBLIC "-//W3C//DTD SVG 20010904//EN"
 "http://www.w3.org/TR/2001/REC-SVG-20010904/DTD/svg10.dtd">
<svg version="1.0" xmlns="http://www.w3.org/2000/svg"
 width="1280.000000pt" height="1280.000000pt" viewBox="0 0 1280.000000 1280.000000"
 preserveAspectRatio="xMidYMid meet">
<g transform="translate(0.000000,1280.000000) scale(0.100000,-0.100000)"
fill="#000000" stroke="none">
<path d="M8793 11972 c-81 -26 -136 -71 -168 -136 -26 -53 -27 -63 -23 -151 4
-81 10 -105 37 -160 18 -37 31 -72 28 -78 -10 -26 40 -278 60 -305 12 -16 24
-58 32 -107 12 -86 12 -84 36 -340 19 -204 27 -651 14 -790 -5 -55 -11 -136
-14 -180 -5 -90 -26 -245 -56 -415 -12 -63 -22 -129 -24 -146 -5 -53 -26 -147
-46 -205 -10 -30 -19 -70 -19 -88 0 -19 -15 -81 -34 -140 -19 -58 -45 -142
-57 -186 -12 -44 -34 -108 -50 -142 -16 -34 -29 -72 -29 -83 0 -27 -49 -150
-84 -210 -14 -25 -26 -51 -26 -58 0 -29 -61 -165 -90 -201 -17 -21 -35 -55
-41 -77 -15 -53 -74 -150 -121 -198 -21 -22 -38 -45 -38 -52 0 -24 -99 -159
-128 -176 -18 -11 -50 -18 -79 -18 l-50 0 -224 -197 c-123 -108 -226 -200
-228 -205 -2 -6 14 -28 35 -49 l39 -40 -29 -52 c-48 -86 -227 -355 -321 -482
-361 -489 -816 -939 -1365 -1354 -308 -233 -539 -385 -955 -633 -642 -382
-858 -524 -1175 -771 -1119 -874 -1862 -1909 -2044 -2852 -27 -141 -50 -356
-44 -420 l3 -39 119 164 c683 942 1386 1674 2146 2231 372 273 698 466 1365
807 462 236 775 410 1080 600 862 537 1589 1171 2102 1832 58 74 111 136 117
138 7 2 21 -16 31 -38 10 -23 22 -43 26 -45 9 -6 141 216 210 355 71 143 134
316 204 563 30 104 55 194 55 198 0 5 -13 9 -29 9 -17 0 -33 4 -36 10 -3 5 19
83 50 172 55 157 97 284 150 453 39 124 107 375 116 429 4 26 15 69 23 95 8
25 17 64 20 86 7 42 18 96 37 180 10 46 25 139 50 315 11 82 25 241 39 445 22
314 12 707 -26 1033 -9 74 -13 145 -10 158 4 14 0 33 -8 47 -8 12 -20 56 -25
97 -6 41 -18 109 -27 150 -9 41 -16 103 -15 137 1 57 -100 661 -115 684 -3 6
-7 63 -8 127 -1 99 -5 125 -24 168 -60 132 -190 184 -339 136z"/>
</g>
</svg>
