<?xml version="1.0" standalone="no"?>
<!DOCTYPE svg PUBLIC "-//W3C//DTD SVG 20010904//EN"
 "http://www.w3.org/TR/2001/REC-SVG-20010904/DTD/svg10.dtd">
<svg version="1.0" xmlns="http://www.w3.org/2000/svg"
 width="1280.000000pt" height="462.000000pt" viewBox="0 0 1280.000000 462.000000"
 preserveAspectRatio="xMidYMid meet">
<g transform="translate(0.000000,462.000000) scale(0.100000,-0.100000)"
fill="#000000" stroke="none">
<path d="M4635 4418 c-28 -15 -45 -38 -45 -62 0 -11 -9 -30 -21 -42 l-21 -23
-2 -1008 c-1 -773 2 -1030 12 -1103 41 -304 129 -593 257 -846 91 -178 131
-242 244 -384 181 -230 518 -511 771 -644 68 -36 77 -38 136 -33 52 4 77 13
131 45 206 123 478 396 625 627 51 80 151 270 190 362 15 35 33 63 40 63 13 0
216 -240 501 -593 245 -304 360 -423 470 -487 35 -21 37 -21 37 -3 0 24 -48
125 -98 204 -22 35 -224 294 -447 574 l-406 510 5 50 c3 28 15 109 27 180 26
161 28 313 11 800 -15 428 -27 637 -48 840 -9 83 -21 214 -28 293 l-11 142
-57 54 c-38 37 -73 84 -108 150 l-52 96 -81 25 c-208 63 -521 112 -927 146
-167 14 -679 15 -855 1 -132 -10 -145 -8 -145 18 0 21 -45 60 -69 60 -9 0 -25
-6 -36 -12z"/>
<path d="M1812 4170 c-18 -11 -40 -36 -49 -55 -10 -21 -24 -35 -35 -35 -10 0
-27 -9 -38 -20 -11 -11 -30 -20 -43 -20 -34 0 -58 -22 -66 -60 -4 -21 -15 -39
-29 -46 -12 -6 -25 -14 -28 -17 -8 -7 33 -47 48 -47 23 0 124 76 197 148 91
90 107 91 104 3 -2 -60 -35 -194 -54 -217 -6 -7 -32 -19 -59 -28 -28 -9 -78
-34 -112 -57 -77 -49 -99 -55 -131 -35 -21 14 -26 15 -36 2 -9 -11 -10 -20 -2
-35 18 -32 13 -48 -21 -68 -177 -106 -345 -317 -439 -554 -18 -46 -39 -90 -45
-98 -15 -17 -3 -25 -279 194 -104 83 -228 181 -275 218 -47 37 -104 76 -126
87 -47 23 -150 47 -160 38 -12 -13 16 -74 60 -130 25 -31 95 -96 157 -145 196
-154 570 -468 580 -485 4 -7 3 -53 -3 -102 -18 -150 19 -429 79 -606 32 -94
83 -219 136 -334 l41 -89 -22 -18 c-13 -10 -49 -28 -80 -39 -47 -18 -63 -20
-91 -11 -28 8 -36 7 -46 -6 -18 -24 -43 -9 -61 37 -12 30 -32 52 -73 79 -31
22 -72 55 -90 75 -19 20 -43 36 -53 36 -26 0 -22 -19 7 -30 37 -14 48 -83 33
-195 -9 -67 -8 -93 6 -163 13 -65 14 -87 5 -98 -6 -8 -44 -24 -83 -35 -90 -26
-152 -70 -200 -142 -29 -45 -43 -57 -71 -63 -41 -7 -51 -18 -60 -65 l-7 -37
43 -4 c38 -3 48 0 80 29 24 22 58 39 96 49 81 21 154 68 210 136 27 32 56 58
66 58 10 0 40 -11 68 -26 35 -17 89 -31 179 -44 70 -10 136 -23 147 -28 36
-20 56 -50 49 -77 -4 -15 -2 -25 4 -25 20 0 23 31 7 68 -73 175 -74 176 -124
197 -38 16 -45 49 -13 58 14 4 20 14 20 32 0 20 14 42 49 76 26 27 55 49 63
49 9 0 48 -44 89 -97 99 -133 256 -286 426 -417 84 -64 146 -119 152 -135 6
-14 16 -34 23 -43 10 -13 9 -22 -2 -42 -10 -20 -11 -31 -2 -51 15 -32 15 -90
2 -115 -8 -15 -5 -28 14 -58 40 -63 86 -62 125 4 15 26 19 40 12 47 -14 14
-14 103 0 128 7 14 7 29 -2 54 -11 29 -10 37 3 52 9 10 20 31 23 46 5 17 24
39 54 59 176 121 359 282 476 420 50 58 97 107 105 107 8 0 44 -23 80 -52 46
-38 65 -60 66 -77 2 -38 21 -111 32 -122 6 -6 29 -12 52 -13 59 -3 74 -22 71
-89 -1 -31 5 -71 13 -90 17 -40 56 -69 80 -60 25 10 19 32 -13 48 -54 28 -66
118 -23 176 32 42 56 37 98 -19 45 -60 98 -99 176 -130 47 -19 58 -28 63 -52
8 -34 53 -69 90 -69 47 0 83 27 95 71 19 68 -13 114 -77 112 -32 -1 -44 7
-102 66 -54 55 -79 72 -138 95 -89 34 -103 48 -77 78 25 28 91 58 129 58 17 0
47 -9 68 -20 46 -25 57 -25 57 -1 0 33 -43 51 -120 51 -54 0 -70 3 -70 14 0
22 77 84 148 119 34 17 62 35 62 39 0 24 -107 63 -143 52 -10 -3 -29 -30 -42
-60 -29 -66 -84 -144 -100 -144 -7 0 -15 14 -19 30 -3 20 -14 34 -30 39 -26
10 -111 8 -138 -3 -16 -8 -173 87 -182 110 -2 6 10 36 28 65 48 80 140 290
174 400 52 165 80 350 83 547 l1 83 57 38 c31 21 94 78 141 125 100 103 155
141 230 162 121 34 150 47 194 85 25 23 62 69 81 104 37 65 86 115 146 149 44
25 22 31 -57 17 -74 -14 -91 -26 -158 -110 -30 -38 -70 -78 -89 -90 -19 -12
-85 -34 -146 -50 -62 -16 -132 -42 -157 -56 -25 -15 -91 -72 -146 -127 -82
-82 -103 -98 -113 -87 -6 8 -22 51 -33 97 -59 226 -195 450 -347 571 -56 45
-67 69 -40 91 8 7 15 21 15 32 0 17 -5 20 -28 15 -16 -3 -32 -7 -38 -8 -49 -9
-57 18 -19 63 35 42 37 99 4 133 -14 14 -35 20 -79 22 -57 2 -78 -8 -45 -21
23 -9 18 -35 -9 -42 -43 -11 -58 -1 -78 54 -24 64 -66 98 -137 112 -73 14 -83
21 -126 94 -36 63 -56 78 -70 56 -3 -5 -24 -10 -46 -10 -36 0 -46 6 -93 55
-58 61 -81 67 -134 35z m489 -327 c56 -33 49 -63 -16 -63 -24 0 -56 -5 -71
-10 -19 -7 -30 -7 -40 1 -19 16 -17 32 7 63 25 31 75 35 120 9z m317 -101 c5
-45 -34 -82 -86 -82 -43 0 -82 29 -82 61 0 21 6 25 63 33 34 4 37 3 37 -20 0
-30 23 -28 28 2 9 55 35 59 40 6z m-280 -4 c21 -21 13 -28 -32 -28 -45 0 -63
11 -51 30 9 14 68 13 83 -2z m-1528 -2144 c22 -15 40 -32 40 -38 0 -6 -23 -17
-52 -24 -59 -14 -68 -8 -68 44 0 53 20 57 80 18z m31 -85 c19 -10 20 -12 4
-29 -10 -11 -17 -35 -17 -64 0 -57 -18 -75 -52 -53 -44 29 -40 122 7 145 29
14 35 14 58 1z m2297 -85 c42 -29 18 -98 -27 -75 -11 6 -31 11 -45 11 -30 0
-46 41 -26 65 16 20 70 19 98 -1z m-164 -130 c9 -3 16 -12 16 -19 0 -7 10 -25
22 -40 21 -27 21 -28 3 -41 -24 -17 -69 -18 -83 -1 -5 6 -13 26 -16 44 -6 25
-3 34 16 47 26 19 22 18 42 10z m-1989 -44 c39 -9 68 -25 85 -46 13 -14 11
-19 -9 -35 -37 -30 -96 -25 -132 10 -16 16 -29 38 -29 48 0 25 21 45 40 37 8
-3 29 -10 45 -14z m158 -45 c23 -23 41 -85 29 -97 -12 -12 -78 -2 -87 13 -8
11 24 99 36 99 4 0 14 -7 22 -15z"/>
<path d="M10117 3902 c-22 -22 -26 -35 -21 -58 7 -39 3 -42 -186 -149 -175
-99 -297 -179 -419 -273 l-83 -65 -54 26 c-49 24 -54 30 -54 60 0 18 -7 43
-16 56 -14 20 -22 22 -54 17 -49 -8 -64 9 -55 64 6 36 4 43 -24 71 -31 30 -51
34 -59 11 -2 -6 8 -17 22 -23 34 -16 41 -41 21 -83 -27 -56 -76 -61 -138 -13
-24 19 -66 40 -93 47 -27 8 -60 26 -74 40 -14 15 -42 30 -64 34 -34 6 -43 4
-75 -22 -41 -33 -50 -62 -25 -87 13 -12 26 -15 51 -10 30 5 40 1 73 -29 26
-23 62 -42 110 -56 55 -16 71 -25 68 -38 -7 -38 -125 -54 -185 -26 -26 13 -37
14 -46 5 -23 -23 18 -44 95 -50 l73 -6 -43 -32 c-24 -18 -65 -39 -90 -48 -26
-9 -58 -21 -72 -27 l-25 -10 24 -19 c16 -13 39 -19 77 -19 51 0 55 2 78 38 22
35 113 119 120 111 2 -2 9 -15 16 -28 12 -22 15 -23 98 -19 63 4 98 1 127 -10
70 -26 72 -33 24 -88 -121 -140 -242 -334 -291 -467 -32 -89 -78 -275 -78
-317 0 -35 -4 -39 -103 -95 -43 -24 -108 -68 -145 -98 -131 -106 -175 -129
-355 -177 -117 -31 -151 -52 -272 -170 -94 -91 -124 -114 -198 -149 -80 -38
-107 -61 -73 -61 35 0 175 34 214 52 24 12 71 46 106 78 121 110 134 116 348
174 153 42 198 64 307 151 72 57 148 105 165 105 3 0 8 -17 11 -37 25 -153 69
-272 144 -381 36 -54 72 -89 201 -200 l35 -30 -28 -26 c-30 -28 -31 -30 -17
-57 11 -20 45 -26 55 -9 8 13 65 13 65 1 0 -5 -11 -22 -24 -38 -35 -42 -46
-68 -46 -107 0 -41 28 -76 63 -76 12 -1 52 -2 90 -3 37 -1 67 1 67 5 0 4 -9
16 -21 27 -22 20 -19 41 7 41 8 0 14 9 14 21 0 20 -4 21 -45 14 -45 -6 -46 -6
-39 19 5 20 2 26 -9 26 -19 0 -28 -14 -37 -54 -7 -35 -33 -42 -38 -11 -10 74
122 144 187 99 20 -15 23 -22 17 -60 -4 -33 -2 -44 8 -44 7 0 20 -25 29 -60
27 -95 110 -169 189 -170 56 0 111 -38 148 -102 37 -64 63 -86 83 -70 7 6 42
13 78 17 l66 7 29 -43 c35 -52 95 -89 145 -89 55 0 123 49 154 111 22 42 30
50 47 45 15 -3 29 3 44 19 13 14 33 25 45 25 55 0 129 82 113 124 -4 10 8 23
35 40 47 30 53 53 16 62 -27 7 -33 32 -13 52 9 9 9 12 1 12 -7 0 -21 -14 -33
-30 -12 -17 -28 -30 -37 -30 -8 0 -40 -23 -71 -50 -31 -28 -62 -50 -68 -50 -7
0 -15 -8 -18 -18 -3 -9 -22 -26 -41 -37 -20 -10 -52 -37 -71 -59 -60 -70 -67
-76 -91 -76 -32 0 -33 21 -6 135 9 39 27 93 39 121 20 46 28 54 71 69 85 29
126 52 196 103 73 55 101 59 155 25 16 -10 27 -11 42 -3 24 13 25 31 5 70 -18
34 -22 28 86 103 118 81 185 145 258 242 84 112 124 183 161 282 27 74 30 78
58 77 36 -2 43 -6 242 -121 265 -153 607 -343 662 -367 90 -40 228 -60 243
-36 9 14 -80 105 -150 155 -33 23 -123 77 -200 120 -113 63 -579 327 -761 431
l-41 23 -6 128 c-8 154 -31 252 -91 379 -52 109 -112 204 -189 298 -32 38 -57
77 -57 87 0 17 8 19 66 19 49 0 79 6 111 22 l43 22 33 -36 c19 -21 55 -43 91
-57 32 -12 78 -33 101 -46 42 -25 75 -32 75 -16 0 5 -13 14 -30 21 -45 18 -52
33 -61 123 -4 45 -15 102 -23 125 -15 41 -15 43 7 52 12 5 48 14 79 20 64 13
130 55 152 99 16 31 34 41 71 41 16 0 25 7 29 26 8 32 7 34 -39 44 -30 7 -40
4 -64 -16 -16 -14 -53 -29 -83 -34 -61 -12 -131 -45 -188 -91 -40 -33 -41 -33
-88 -20 -69 20 -145 29 -248 30 -109 1 -154 9 -160 27 -15 49 -15 49 -24 34
-6 -8 -10 -18 -10 -22 0 -13 111 -138 123 -138 7 0 18 -4 26 -9 22 -14 -4 -76
-43 -101 -44 -26 -58 -25 -87 6 -63 68 -283 206 -523 329 l-136 70 6 37 c5 34
3 39 -28 58 -43 26 -49 25 -81 -8z m911 -314 c11 -14 -1 -58 -16 -58 -16 0
-62 41 -62 56 0 18 63 19 78 2z m163 -24 c42 -21 35 -49 -11 -48 -68 1 -120
14 -120 29 0 33 82 45 131 19z m-1933 -83 c8 -4 12 -19 10 -32 -2 -19 -10 -25
-34 -27 -25 -2 -33 2 -43 24 -10 22 -9 29 1 35 17 11 49 11 66 0z m2120 -47
c37 -26 24 -84 -19 -84 -24 0 -33 18 -18 36 9 11 9 18 1 26 -16 16 -15 38 1
38 7 0 23 -7 35 -16z m-2241 -80 c7 -20 -21 -44 -52 -44 -31 0 -59 24 -52 44
5 11 19 16 52 16 33 0 47 -5 52 -16z m2287 -30 c16 -42 -16 -59 -65 -34 -25
14 -24 24 4 38 32 16 54 14 61 -4z m-1642 -1952 c5 -5 2 -14 -7 -22 -23 -19
-98 -1 -103 24 -4 17 1 18 49 13 29 -4 56 -10 61 -15z m118 -73 c0 -65 -86
-107 -151 -74 -83 42 -92 75 -21 76 26 0 72 8 102 18 30 10 58 16 63 14 4 -2
7 -18 7 -34z"/>
</g>
</svg>
