<?xml version="1.0" standalone="no"?>
<!DOCTYPE svg PUBLIC "-//W3C//DTD SVG 20010904//EN"
 "http://www.w3.org/TR/2001/REC-SVG-20010904/DTD/svg10.dtd">
<svg version="1.0" xmlns="http://www.w3.org/2000/svg"
 width="1280.000000pt" height="1141.000000pt" viewBox="0 0 1280.000000 1141.000000"
 preserveAspectRatio="xMidYMid meet">
<g transform="translate(0.000000,1141.000000) scale(0.100000,-0.100000)"
fill="#000000" stroke="none">
<path d="M12580 11152 c-250 -80 -1107 -378 -1550 -539 -2909 -1056 -4954
-1990 -5911 -2699 -144 -107 -183 -147 -198 -201 -54 -195 149 -554 556 -985
40 -42 73 -81 73 -87 0 -6 -19 -15 -42 -21 -306 -77 -464 -179 -548 -355 -37
-77 -71 -191 -85 -285 -11 -78 -10 -77 -79 -85 -142 -15 -304 -97 -391 -197
-48 -56 -99 -147 -132 -237 -28 -78 -30 -67 21 -183 l16 -38 -2102 -1927
c-1157 -1059 -2126 -1948 -2154 -1974 l-51 -47 199 -113 c156 -89 198 -117
198 -134 0 -11 -18 -112 -40 -224 -22 -113 -38 -206 -36 -208 2 -2 108 17 236
42 234 45 280 51 280 38 0 -5 -14 -86 -32 -180 -17 -95 -29 -175 -26 -178 3
-4 102 3 219 15 116 11 216 17 220 13 4 -4 -9 -87 -30 -183 -21 -96 -37 -177
-34 -179 2 -3 9 2 16 11 6 8 986 881 2177 1938 1191 1058 2180 1937 2198 1953
l32 31 90 -44 90 -44 75 11 c193 28 310 146 360 363 10 41 21 79 25 83 4 4 29
-3 56 -17 72 -36 129 -49 219 -49 158 0 294 61 426 193 117 116 187 247 205
381 4 27 11 49 15 49 5 0 64 -46 132 -102 345 -287 637 -471 884 -555 98 -34
118 -37 218 -37 181 -1 220 26 422 294 676 893 1669 2572 2836 4795 341 650
973 1893 965 1900 -2 1 -10 0 -18 -3z"/>
</g>
</svg>
