<?xml version="1.0" standalone="no"?>
<!DOCTYPE svg PUBLIC "-//W3C//DTD SVG 20010904//EN"
 "http://www.w3.org/TR/2001/REC-SVG-20010904/DTD/svg10.dtd">
<svg version="1.0" xmlns="http://www.w3.org/2000/svg"
 width="1280.000000pt" height="640.000000pt" viewBox="0 0 1280.000000 640.000000"
 preserveAspectRatio="xMidYMid meet">
<g transform="translate(0.000000,640.000000) scale(0.100000,-0.100000)"
fill="#000000" stroke="none">
<path d="M10 4460 c0 -4 51 -71 113 -151 113 -144 113 -144 168 -156 119 -27
806 -138 1219 -197 246 -36 358 -51 745 -101 297 -38 805 -95 1120 -125 61 -5
156 -14 212 -20 98 -9 170 -15 548 -45 899 -71 1609 -92 3413 -100 653 -3
1295 -8 1427 -11 l240 -6 28 -127 c15 -69 32 -143 38 -164 10 -38 11 -39 47
-32 20 4 38 8 39 8 0 1 7 63 13 138 l13 135 321 13 c715 27 1244 57 1666 96
506 47 1351 141 1362 153 4 4 19 48 33 97 31 106 29 158 -10 284 l-26 82 -42
-6 c-55 -7 -553 -55 -1032 -100 -742 -68 -1146 -97 -1730 -125 -480 -23 -558
-25 -561 -15 -1 6 -13 79 -25 163 l-23 153 -40 -3 -41 -3 -13 -75 c-7 -41 -18
-122 -25 -180 l-12 -105 -265 -6 c-688 -16 -2015 -21 -2630 -10 -1151 21
-1838 57 -2955 157 -957 85 -2386 251 -3247 377 -49 7 -88 10 -88 7z"/>
<path d="M9837 3098 c61 -210 69 -318 28 -398 -29 -58 -26 -56 -193 -69 -109
-8 -130 -7 -185 10 -98 30 -245 66 -325 79 -68 11 -186 4 -253 -16 -11 -3 -69
-99 -85 -142 -1 -1 -212 -10 -470 -19 -594 -21 -2161 -25 -2569 -5 -916 43
-1195 59 -1820 102 -837 59 -1762 140 -2382 211 -95 10 -179 19 -187 19 -14 0
-83 -132 -111 -211 -17 -48 -20 -182 -5 -259 6 -30 12 -55 14 -58 7 -6 933
-108 1386 -151 1410 -137 2560 -214 3595 -241 661 -18 1293 -10 2355 26 261 9
522 14 580 11 103 -5 164 -1 388 24 94 10 115 10 122 -1 12 -19 350 -8 365 13
8 11 80 18 335 31 179 9 469 26 645 37 176 10 322 19 324 19 2 0 1 91 -2 203
-5 178 -25 348 -41 365 -6 5 -798 -34 -886 -44 l-46 -5 -22 70 c-13 39 -24 71
-26 71 -1 0 -36 -11 -77 -25 -92 -32 -240 -71 -296 -79 l-41 -6 5 74 c7 91 -6
161 -58 324 -36 110 -42 122 -63 122 l-24 0 25 -82z"/>
</g>
</svg>
