<?xml version="1.0" standalone="no"?>
<!DOCTYPE svg PUBLIC "-//W3C//DTD SVG 20010904//EN"
 "http://www.w3.org/TR/2001/REC-SVG-20010904/DTD/svg10.dtd">
<svg version="1.0" xmlns="http://www.w3.org/2000/svg"
 width="1186.000000pt" height="1280.000000pt" viewBox="0 0 1186.000000 1280.000000"
 preserveAspectRatio="xMidYMid meet">
<g transform="translate(0.000000,1280.000000) scale(0.100000,-0.100000)"
fill="#000000" stroke="none">
<path d="M8314 12373 c-49 -229 -93 -338 -166 -412 -74 -75 -149 -97 -225 -66
-19 8 -44 15 -53 15 -10 0 -45 -29 -77 -64 -33 -37 -85 -80 -123 -102 -82 -47
-113 -73 -162 -135 -22 -27 -48 -49 -57 -49 -10 0 -103 32 -208 70 -115 42
-206 70 -230 70 -27 0 -56 -11 -98 -37 -54 -34 -67 -38 -127 -38 -80 0 -86 -5
-193 -146 -99 -130 -115 -158 -115 -203 0 -29 -18 -69 -75 -170 -80 -140 -91
-183 -60 -236 8 -14 14 -32 15 -41 0 -8 -28 -52 -61 -97 -50 -67 -62 -92 -67
-130 -3 -37 -25 -81 -100 -205 -63 -104 -105 -163 -124 -175 -19 -11 -83 -100
-182 -252 -84 -129 -158 -245 -165 -258 -7 -12 -11 -46 -9 -75 2 -49 -3 -62
-85 -213 -48 -88 -87 -171 -87 -185 0 -13 -40 -91 -88 -174 -127 -216 -138
-222 -618 -320 -149 -30 -329 -71 -400 -90 -490 -135 -856 -390 -1106 -772
-36 -54 -123 -201 -195 -328 -72 -126 -770 -1351 -1551 -2721 -781 -1371
-1432 -2515 -1447 -2543 -29 -57 -75 -224 -75 -271 0 -39 34 -161 59 -214 30
-60 75 -110 151 -169 37 -29 128 -104 201 -167 251 -217 416 -344 664 -512
510 -346 1002 -585 1708 -829 109 -38 208 -74 219 -80 30 -16 154 -49 184 -49
38 0 160 38 219 67 55 28 162 127 205 188 50 73 3123 5478 3186 5605 72 145
124 296 156 454 20 96 23 141 23 336 -1 327 -21 424 -201 957 -99 294 -116
353 -121 426 l-6 85 29 18 c61 38 79 65 175 264 73 150 109 213 134 235 27 23
66 96 171 315 119 248 152 307 254 455 140 203 140 203 140 254 0 31 15 66 72
163 39 68 84 141 99 164 27 40 29 41 76 37 81 -8 104 16 199 201 57 110 90
164 109 175 16 10 40 44 61 88 38 79 47 89 62 70 18 -23 173 -397 266 -644
131 -349 203 -564 220 -663 9 -47 30 -119 48 -160 32 -73 33 -78 32 -210 -1
-141 -1 -142 -60 -280 -37 -89 -37 -164 0 -245 15 -33 30 -87 33 -120 4 -50
-27 -469 -55 -733 -9 -82 -1 -126 28 -157 12 -13 84 -49 159 -81 306 -128 561
-278 561 -329 0 -13 7 -28 16 -33 13 -7 13 -14 -6 -61 -11 -29 -46 -96 -77
-149 -51 -87 -57 -103 -58 -154 0 -49 4 -61 29 -87 33 -35 44 -38 191 -51 61
-5 132 -15 159 -22 44 -11 52 -18 73 -58 33 -62 75 -103 142 -138 67 -36 175
-66 211 -58 51 10 735 450 776 499 30 36 30 69 4 282 -11 88 -23 210 -26 270
l-6 110 72 164 c106 242 111 259 151 519 15 104 37 188 90 349 99 304 155 580
184 918 8 94 27 233 41 310 14 77 26 160 28 185 1 25 6 53 10 63 8 17 6 16
-25 -1 -35 -20 -143 -36 -234 -36 -78 1 -148 29 -193 78 -41 45 -53 73 -72
169 -8 42 -18 62 -36 75 -70 48 -77 57 -70 89 4 17 31 68 60 114 60 96 110
215 130 309 8 36 19 80 24 98 9 27 8 33 -8 42 -10 6 -34 10 -52 10 -35 1 -126
28 -176 54 -40 20 -66 59 -85 122 -31 104 -84 179 -152 215 -42 22 -47 23
-102 10 -211 -49 -229 -30 -219 224 9 226 12 220 -165 269 -105 29 -178 98
-199 188 -13 58 -13 219 1 273 6 25 8 65 5 90 -7 41 -10 45 -35 45 -16 0 -48
-7 -71 -15 -117 -41 -206 -28 -280 41 -26 24 -50 44 -54 44 -4 0 -23 -12 -42
-27 -79 -59 -116 -174 -119 -363 -2 -133 -11 -164 -57 -207 -78 -73 -204 -54
-328 51 -30 26 -76 65 -102 87 -34 28 -51 52 -59 82 -15 54 -42 77 -89 77 -58
0 -84 28 -121 132 -38 105 -93 194 -149 238 -47 37 -68 38 -76 3z"/>
</g>
</svg>
