<?xml version="1.0" standalone="no"?>
<!DOCTYPE svg PUBLIC "-//W3C//DTD SVG 20010904//EN"
 "http://www.w3.org/TR/2001/REC-SVG-20010904/DTD/svg10.dtd">
<svg version="1.0" xmlns="http://www.w3.org/2000/svg"
 width="1280.000000pt" height="1233.000000pt" viewBox="0 0 1280.000000 1233.000000"
 preserveAspectRatio="xMidYMid meet">
<g transform="translate(0.000000,1233.000000) scale(0.100000,-0.100000)"
fill="#000000" stroke="none">
<path d="M11300 12308 c-38 -14 -161 -98 -388 -265 -183 -135 -338 -251 -345
-258 -8 -7 -19 -53 -26 -101 -15 -102 -28 -138 -65 -177 -18 -18 -34 -26 -49
-23 -12 3 -56 8 -98 11 l-75 6 -360 -271 c-197 -150 -369 -283 -382 -297 -12
-14 -21 -32 -18 -41 2 -10 8 -41 11 -70 l7 -53 -56 -56 c-44 -44 -60 -54 -78
-50 -13 3 -48 8 -78 12 l-55 6 -353 -345 c-195 -191 -360 -346 -368 -346 -8 0
-19 -12 -25 -27 -8 -22 -6 -30 16 -53 17 -18 25 -37 25 -62 0 -30 -7 -41 -46
-72 -42 -32 -51 -35 -88 -29 -23 4 -49 7 -58 7 -9 1 -173 -144 -363 -322
l-345 -323 0 -114 0 -113 -47 -41 c-46 -39 -51 -41 -113 -41 l-66 0 -302 -371
-302 -371 0 -103 0 -102 -45 -42 c-30 -27 -54 -41 -72 -41 -16 0 -48 -10 -73
-22 -25 -11 -52 -24 -60 -28 -8 -4 -120 -121 -249 -261 -255 -277 -246 -271
-401 -310 -132 -33 -201 -34 -328 -6 -92 20 -120 30 -145 54 -18 16 -82 75
-144 131 l-112 102 -91 0 -90 0 -60 -91 c-33 -50 -60 -96 -60 -102 0 -6 22
-32 49 -58 36 -35 66 -52 117 -69 141 -46 167 -70 182 -169 6 -46 16 -59 129
-179 68 -72 123 -134 123 -138 0 -4 -11 3 -25 16 l-26 24 -189 -189 -189 -189
-3 -76 -3 -75 -42 2 c-42 2 -43 1 -43 -31 0 -44 -16 -56 -76 -56 l-53 0 -3
-42 -3 -43 -44 -3 -44 -3 6 -54 c7 -65 0 -73 -73 -77 -54 -3 -55 -3 -60 -38
-5 -32 -8 -35 -42 -38 l-38 -3 0 -65 0 -64 -45 0 c-44 0 -45 -1 -45 -33 0 -42
-15 -57 -56 -57 -31 0 -33 -2 -36 -42 -3 -43 -3 -43 -46 -46 l-42 -3 0 -54 c0
-51 -2 -55 -27 -61 -91 -20 -87 -18 -99 -65 -10 -42 -12 -44 -52 -47 -38 -3
-41 -5 -44 -35 -3 -31 -5 -32 -60 -41 l-56 -8 -7 -59 c-7 -62 -7 -62 -70 -71
-15 -2 -21 -13 -25 -43 l-5 -40 -55 0 -55 0 -5 -45 c-5 -45 -5 -45 -48 -48
l-42 -3 0 -47 c0 -60 -7 -70 -50 -74 -31 -3 -35 -7 -38 -33 -5 -42 -19 -55
-58 -55 l-33 0 -3 -62 -3 -63 -55 -10 c-42 -8 -56 -15 -58 -30 -6 -31 -21 -44
-58 -51 -31 -6 -34 -9 -39 -53 -10 -70 -11 -71 -56 -71 l-41 0 3 -37 c3 -63 4
-63 -61 -63 l-60 0 0 -35 c0 -38 -20 -55 -64 -55 -23 0 -25 -4 -28 -57 l-3
-58 -43 -3 c-42 -3 -42 -3 -42 -42 0 -48 -10 -55 -80 -55 l-55 0 2 -35 c5 -64
-4 -79 -47 -86 -37 -6 -40 -9 -40 -38 0 -43 -10 -54 -50 -58 -28 -2 -34 -7
-32 -22 2 -10 1 -29 -2 -42 -6 -22 -11 -24 -70 -24 -72 0 -76 -4 -76 -75 0
-46 -12 -61 -45 -57 -17 2 -23 -5 -30 -40 l-10 -43 -51 -3 -52 -3 -259 -292
c-618 -698 -688 -779 -695 -805 -4 -15 -14 -67 -23 -116 -38 -205 -106 -398
-225 -641 -126 -256 -261 -470 -593 -939 -93 -132 -217 -309 -274 -394 l-105
-153 108 4 c210 8 467 45 672 96 431 109 936 345 1488 697 65 41 70 46 1834
1839 1676 1703 2065 2097 2080 2105 13 7 47 -1 101 -24 11 -5 70 43 205 165
104 94 202 182 219 196 115 93 169 133 179 133 6 0 76 -66 156 -146 154 -155
240 -217 375 -273 100 -42 189 -55 283 -40 136 20 172 45 172 118 -1 80 -21
102 -175 192 -262 152 -366 243 -432 376 -32 64 -37 86 -37 142 -1 94 19 195
48 255 41 83 110 149 385 371 l262 210 -6 71 -6 70 56 47 56 46 73 -27 74 -26
374 300 373 300 12 84 c17 120 27 128 168 137 l109 6 135 125 c75 69 234 215
354 325 l217 200 0 90 0 89 37 34 c36 33 38 34 128 34 l92 0 277 350 276 351
6 62 c10 120 12 124 60 161 25 19 69 42 97 50 l52 15 284 401 c311 441 288
395 265 507 -5 28 -1 37 41 82 47 50 49 51 104 51 l57 0 78 89 c86 99 158 155
229 176 80 24 238 38 285 25 66 -17 139 -84 186 -170 46 -84 69 -100 139 -100
81 0 140 41 175 123 30 70 1 135 -202 441 -458 695 -914 1276 -1062 1354 -41
21 -109 42 -139 41 -16 -1 -55 -10 -85 -21z"/>
</g>
</svg>
