<?xml version="1.0" standalone="no"?>
<!DOCTYPE svg PUBLIC "-//W3C//DTD SVG 20010904//EN"
 "http://www.w3.org/TR/2001/REC-SVG-20010904/DTD/svg10.dtd">
<svg version="1.0" xmlns="http://www.w3.org/2000/svg"
 width="1023.000000pt" height="1280.000000pt" viewBox="0 0 1023.000000 1280.000000"
 preserveAspectRatio="xMidYMid meet">
<g transform="translate(0.000000,1280.000000) scale(0.100000,-0.100000)"
fill="#000000" stroke="none">
<path d="M4720 12790 c-63 -4 -223 -13 -355 -20 -1363 -65 -2780 -332 -4165
-785 l-200 -66 0 -722 0 -723 138 -12 c747 -65 1276 -621 1409 -1482 25 -162
25 -579 0 -735 -101 -634 -359 -1124 -739 -1406 -196 -145 -495 -249 -718
-249 -27 0 -52 -4 -55 -10 -8 -13 11 -343 30 -509 170 -1491 982 -2988 2315
-4267 546 -523 1152 -977 1790 -1339 204 -116 616 -317 808 -395 l154 -61 119
45 c790 303 1551 772 2287 1412 188 163 650 625 816 816 908 1043 1504 2187
1731 3323 65 327 112 735 103 905 l-3 65 -125 6 c-490 24 -903 324 -1175 854
-346 676 -366 1564 -48 2200 253 503 658 774 1199 802 l123 6 5 71 c3 39 10
206 16 371 18 473 39 946 46 992 l6 41 -218 72 c-1604 523 -3203 788 -4849
805 -181 2 -382 0 -445 -5z"/>
</g>
</svg>
