<?xml version="1.0" standalone="no"?>
<!DOCTYPE svg PUBLIC "-//W3C//DTD SVG 20010904//EN"
 "http://www.w3.org/TR/2001/REC-SVG-20010904/DTD/svg10.dtd">
<svg version="1.0" xmlns="http://www.w3.org/2000/svg"
 width="1280.000000pt" height="1106.000000pt" viewBox="0 0 1280.000000 1106.000000"
 preserveAspectRatio="xMidYMid meet">
<g transform="translate(0.000000,1106.000000) scale(0.100000,-0.100000)"
fill="#000000" stroke="none">
<path d="M9449 10998 c-43 -59 -114 -210 -133 -285 -9 -34 -19 -90 -22 -125
-8 -91 -10 -95 -37 -69 -64 59 -126 -24 -82 -109 18 -35 43 -50 83 -50 22 0
34 -9 55 -41 15 -22 27 -48 27 -57 0 -35 -374 -1072 -387 -1072 -7 0 -58 36
-115 81 -994 780 -2313 1062 -3550 758 -638 -157 -1221 -458 -1723 -891 -111
-96 -421 -407 -451 -453 -41 -62 -72 -5 -54 97 6 37 9 86 5 108 -7 39 -4 44
38 89 79 85 71 154 -24 213 -27 17 -49 32 -49 34 0 2 86 331 191 731 l191 728
-33 120 c-18 66 -36 128 -41 137 -8 17 -58 48 -76 48 -16 0 -290 -249 -296
-268 -6 -22 -336 -1498 -336 -1505 0 -3 -24 -19 -54 -36 -83 -46 -122 -86
-158 -158 -31 -63 -32 -72 -34 -192 -2 -93 -6 -134 -18 -156 -18 -35 -20 -77
-6 -137 5 -24 12 -59 15 -79 5 -35 83 -131 114 -141 10 -3 15 -32 18 -111 l5
-107 -81 -79 c-77 -75 -81 -81 -81 -123 0 -31 12 -68 38 -124 54 -110 66 -149
53 -172 -12 -23 -89 -57 -177 -79 l-64 -16 0 -120 0 -119 48 7 c26 4 52 8 57
8 18 3 9 -55 -28 -185 -159 -561 -189 -1206 -87 -1813 103 -608 363 -1219 737
-1733 42 -57 73 -105 70 -109 -3 -3 -133 -31 -289 -63 -533 -109 -861 -190
-940 -232 -72 -39 -142 -112 -176 -186 -20 -43 -27 -78 -30 -143 -4 -84 -1
-98 83 -408 48 -177 85 -327 82 -334 -3 -7 -153 -66 -333 -131 -520 -188
-1285 -476 -1327 -499 -22 -12 -46 -34 -55 -49 -15 -25 -14 -28 12 -63 41 -54
117 -98 338 -197 319 -143 358 -170 377 -258 27 -124 -40 -319 -211 -617 -42
-73 -72 -138 -75 -162 -5 -36 -2 -44 27 -71 18 -16 42 -30 54 -30 12 0 87 23
166 51 80 28 228 80 330 115 395 135 1440 400 1767 448 138 20 163 36 163 103
0 42 -59 157 -130 251 -41 54 -59 87 -53 93 12 12 348 83 673 143 567 103
1149 178 1725 220 449 34 655 40 1225 40 569 0 773 -7 1190 -39 102 -8 313
-24 470 -35 721 -52 1262 -115 1730 -201 251 -46 290 -56 290 -71 0 -6 -24
-41 -53 -77 -121 -151 -187 -266 -187 -324 0 -67 25 -83 163 -103 327 -48
1372 -313 1767 -448 102 -35 250 -87 330 -115 79 -28 154 -51 166 -51 12 0 36
14 54 30 29 27 32 35 27 71 -3 24 -33 89 -75 162 -147 257 -212 424 -215 551
-2 140 26 165 371 319 230 104 306 148 348 202 26 35 27 38 12 63 -9 15 -33
37 -55 49 -93 52 -1662 626 -1687 617 -10 -4 -16 -1 -16 9 0 9 45 161 101 339
98 315 101 325 97 403 -7 134 -81 256 -195 317 -94 51 -519 159 -993 252 -179
36 -346 67 -372 71 -83 12 -86 21 -32 95 309 420 553 942 679 1455 114 464
144 909 99 1438 -6 70 -5 77 11 77 32 0 627 -214 632 -227 3 -7 -6 -22 -20
-33 -13 -11 -28 -31 -31 -44 -3 -14 -18 -31 -34 -38 -37 -18 -43 -69 -10 -92
47 -33 99 -12 133 54 21 40 37 38 82 -11 118 -128 314 -223 519 -253 37 -5 42
-3 48 17 15 56 10 63 -61 82 -97 25 -228 81 -291 122 -64 43 -118 111 -133
167 -6 23 -19 67 -30 98 -42 125 -22 219 135 662 115 321 173 513 208 689 30
148 32 418 5 545 -30 136 -76 258 -141 371 -31 52 -33 63 -34 150 -1 81 -4 99
-23 125 -16 21 -22 42 -20 71 1 30 -5 49 -24 75 -14 18 -25 38 -25 44 0 5 -9
19 -20 31 -23 24 -19 32 40 72 38 26 57 31 125 35 127 7 214 62 315 199 62 84
149 244 138 255 -10 9 -197 -24 -298 -53 -169 -49 -292 -137 -305 -220 -3 -21
-8 -47 -10 -58 -4 -16 -109 -95 -127 -95 -3 0 -37 40 -76 89 -193 241 -423
387 -997 631 -492 209 -548 247 -636 427 l-52 104 6 87 c6 99 33 184 97 312
l42 84 -26 23 c-15 13 -31 23 -36 23 -6 0 -24 -19 -41 -42z m12 -884 c44 -47
186 -153 296 -221 59 -36 238 -133 397 -215 159 -81 340 -182 402 -223 111
-74 232 -182 289 -258 28 -37 28 -39 12 -67 -10 -16 -16 -43 -15 -61 3 -33 2
-34 -536 -396 -297 -200 -547 -363 -555 -363 -9 0 -53 52 -99 116 -131 181
-272 345 -444 517 -87 86 -158 159 -158 162 0 7 338 960 355 1001 17 41 24 42
56 8z m1389 -1272 c0 -23 -101 -306 -129 -360 -27 -54 -75 -101 -182 -182
-107 -81 -219 -176 -388 -328 -74 -66 -139 -118 -146 -116 -6 3 -24 30 -39 62
-15 31 -52 98 -82 149 -30 51 -54 98 -54 106 0 8 98 79 218 160 119 80 345
231 502 336 156 105 288 191 292 191 4 0 8 -8 8 -18z m-8064 -538 c11 -44 10
-47 -25 -102 -52 -81 -122 -204 -169 -299 -23 -45 -46 -84 -51 -87 -11 -7 -71
62 -71 81 0 7 46 59 103 115 125 125 152 173 144 256 -5 49 -3 60 15 79 27 29
38 19 54 -43z m8441 54 c14 -19 50 -115 68 -183 8 -33 18 -107 22 -165 10
-176 -21 -355 -124 -709 -113 -394 -153 -594 -153 -769 0 -50 -4 -93 -9 -96
-9 -6 -587 191 -629 213 -14 7 -23 35 -36 113 -22 126 -83 369 -126 501 l-32
99 134 136 c129 132 296 318 522 584 120 142 145 163 246 215 39 19 77 44 83
54 14 22 21 24 34 7z"/>
</g>
</svg>
