<?xml version="1.0" standalone="no"?>
<!DOCTYPE svg PUBLIC "-//W3C//DTD SVG 20010904//EN"
 "http://www.w3.org/TR/2001/REC-SVG-20010904/DTD/svg10.dtd">
<svg version="1.0" xmlns="http://www.w3.org/2000/svg"
 width="1280.000000pt" height="952.000000pt" viewBox="0 0 1280.000000 952.000000"
 preserveAspectRatio="xMidYMid meet">
<g transform="translate(0.000000,952.000000) scale(0.100000,-0.100000)"
fill="#000000" stroke="none">
<path d="M2440 8335 c-85 -29 -206 -76 -267 -104 -145 -66 -435 -242 -594
-360 -150 -113 -445 -405 -535 -531 -120 -167 -201 -346 -259 -565 -48 -183
-59 -294 -52 -514 10 -329 63 -580 186 -884 64 -159 82 -193 230 -417 129
-195 218 -305 407 -499 283 -292 727 -630 1094 -833 324 -179 411 -221 815
-395 714 -308 1318 -460 2125 -536 326 -30 757 -29 972 2 82 11 153 21 159 21
6 0 9 8 6 19 -3 12 9 33 35 61 21 24 37 48 35 54 -2 6 -41 37 -88 69 -46 32
-102 75 -124 96 -22 21 -62 55 -90 77 -171 135 -461 382 -520 445 -38 41 -94
110 -124 154 -175 259 -219 328 -258 401 -60 114 -143 371 -143 445 0 30 5 37
43 57 l42 22 124 -31 c68 -16 181 -51 250 -76 220 -80 196 -77 335 -42 66 17
198 52 291 79 94 26 188 51 210 54 l41 7 87 -109 c47 -60 98 -117 112 -126 14
-9 25 -24 25 -34 1 -21 27 -53 63 -75 15 -10 27 -23 27 -31 0 -22 97 -149 143
-186 25 -20 52 -55 64 -82 12 -27 28 -48 36 -48 7 0 18 -15 24 -33 13 -42 281
-384 1038 -1327 325 -404 846 -1055 1158 -1447 405 -507 582 -722 617 -748 39
-29 50 -43 50 -64 0 -21 8 -31 36 -44 25 -12 34 -22 30 -33 -4 -10 23 -53 75
-120 l80 -104 1051 0 c1000 0 1050 1 1036 18 -52 61 -464 576 -701 876 -34 43
-83 104 -109 135 -26 31 -102 123 -169 204 -66 82 -132 152 -145 157 -19 8
-23 15 -19 37 7 37 -17 67 -47 60 -27 -7 -49 9 -41 29 3 9 -5 30 -18 47 -13
18 -568 707 -1233 1532 -1154 1431 -1434 1770 -1517 1837 -20 16 -44 48 -53
71 -9 23 -29 51 -45 62 -17 11 -32 29 -35 41 -3 11 -35 56 -71 100 -57 68 -64
80 -50 89 9 6 56 36 103 67 63 41 93 56 109 52 17 -5 34 6 75 49 42 44 220
161 859 566 1005 635 1039 659 1025 716 -15 58 -96 81 -531 150 -379 60 -628
103 -1395 240 -847 153 -893 163 -1013 219 -54 26 -129 54 -168 63 l-70 17
-162 -37 c-89 -20 -250 -56 -357 -81 -107 -24 -217 -47 -245 -51 -48 -6 -51
-5 -85 30 -43 44 -132 74 -248 82 -76 6 -86 4 -131 -21 -78 -42 -173 -74 -242
-82 -101 -11 -106 -14 -151 -111 -22 -49 -45 -91 -50 -94 -6 -4 -31 -9 -55
-13 -61 -8 -97 -32 -165 -109 -127 -144 -352 -262 -552 -291 -242 -35 -465
-30 -636 16 -94 25 -379 164 -527 257 -61 38 -178 124 -260 190 -237 191 -391
359 -558 610 -133 200 -175 324 -175 521 0 77 -4 120 -12 128 -21 21 -69 12
-228 -43z"/>
</g>
</svg>
