<?xml version="1.0" standalone="no"?>
<!DOCTYPE svg PUBLIC "-//W3C//DTD SVG 20010904//EN"
 "http://www.w3.org/TR/2001/REC-SVG-20010904/DTD/svg10.dtd">
<svg version="1.0" xmlns="http://www.w3.org/2000/svg"
 width="1280.000000pt" height="973.000000pt" viewBox="0 0 1280.000000 973.000000"
 preserveAspectRatio="xMidYMid meet">
<g transform="translate(0.000000,973.000000) scale(0.100000,-0.100000)"
fill="#000000" stroke="none">
<path d="M12335 9425 c-137 -46 -493 -163 -790 -261 l-540 -177 -105 -76 c-58
-41 -1583 -1153 -3390 -2470 -1807 -1316 -3307 -2410 -3335 -2429 -27 -20 -66
-48 -85 -62 -21 -15 -29 -18 -21 -7 13 16 9 17 -57 17 -63 0 -190 19 -246 36
l-21 7 20 -24 c19 -23 -141 122 -228 206 -31 29 -116 172 -322 542 -154 276
-282 502 -285 502 -3 0 -25 -34 -49 -77 -121 -214 -326 -550 -332 -546 -4 2
-11 -1 -15 -7 -5 -8 -3 -9 6 -4 8 5 11 3 9 -4 -3 -7 -8 -12 -13 -11 -15 3 -55
-75 -71 -136 -50 -194 4 -322 383 -904 62 -96 132 -213 155 -260 40 -82 42
-89 42 -180 0 -80 -4 -101 -22 -132 l-22 -37 22 -4 c12 -2 0 -5 -26 -6 -89 -2
-158 -55 -178 -137 -9 -34 -14 -41 -30 -37 -36 10 -109 -8 -139 -34 -33 -27
-70 -91 -70 -120 0 -15 -9 -18 -58 -19 -33 0 -71 -8 -89 -17 -33 -17 -76 -81
-87 -128 -5 -22 -10 -25 -34 -21 -82 12 -172 -49 -192 -130 -11 -41 -14 -44
-39 -40 -81 12 -184 -59 -197 -134 l-6 -39 -58 -1 c-78 -1 -124 -30 -156 -98
-13 -28 -24 -56 -24 -62 0 -7 -21 -11 -53 -11 -88 0 -147 -45 -169 -129 l-12
-42 -51 0 c-85 1 -153 -51 -175 -132 -10 -38 -11 -39 -59 -38 -88 0 -160 -57
-177 -141 -6 -30 -8 -31 -64 -31 -101 0 -163 -67 -179 -192 -5 -35 -9 -52 -10
-39 -1 22 -4 20 -35 -20 -66 -88 -80 -126 -80 -219 0 -75 4 -92 31 -145 76
-146 223 -213 379 -171 98 26 189 83 528 331 97 72 190 139 206 150 16 11 74
54 130 95 57 41 138 101 181 132 43 31 84 61 91 67 7 6 74 54 148 108 74 53
147 106 161 117 15 12 37 29 50 38 13 9 103 74 199 144 96 70 227 164 290 210
63 45 158 114 210 153 52 39 138 92 190 118 92 47 98 48 185 48 80 0 97 -3
148 -29 31 -16 85 -57 120 -91 63 -62 78 -80 374 -435 258 -311 346 -386 492
-420 67 -16 160 -8 232 20 61 23 82 39 122 93 l29 38 -29 -6 c-23 -4 -21 -3 7
8 19 8 144 38 277 68 134 30 243 56 243 59 0 3 -176 194 -391 425 l-391 420
-49 104 c-46 96 -61 135 -40 102 6 -10 11 5 16 45 29 258 63 344 189 470 74
73 156 137 426 334 52 39 167 122 255 187 88 64 210 153 270 197 61 44 162
118 227 165 64 47 126 93 138 101 13 8 75 53 139 101 147 108 312 228 421 307
84 61 278 202 536 391 72 53 169 123 215 156 45 33 137 100 203 148 67 49 130
95 141 103 11 8 63 45 115 84 52 39 104 76 115 84 11 8 74 54 140 102 66 48
167 122 225 164 58 42 177 129 265 193 210 154 414 303 700 511 61 44 163 118
227 165 191 140 385 282 508 371 63 46 167 122 232 169 64 47 126 93 138 101
12 8 62 44 111 80 303 222 362 265 438 322 126 94 161 122 221 178 43 41 47
47 20 30 l-35 -22 35 31 c19 17 41 28 48 26 7 -3 11 -1 7 4 -3 5 47 48 112 95
l117 86 296 408 c162 224 386 532 497 685 111 152 196 277 190 276 -7 0 -124
-38 -262 -84z m-9490 -7505 c-3 -5 -12 -10 -18 -10 -7 0 -6 4 3 10 19 12 23
12 15 0z m-645 -463 c0 -2 -10 -12 -22 -23 l-23 -19 19 23 c18 21 26 27 26 19z
m-990 -731 c0 -2 -7 -7 -16 -10 -8 -3 -12 -2 -9 4 6 10 25 14 25 6z"/>
</g>
</svg>
