<?xml version="1.0" standalone="no"?>
<!DOCTYPE svg PUBLIC "-//W3C//DTD SVG 20010904//EN"
 "http://www.w3.org/TR/2001/REC-SVG-20010904/DTD/svg10.dtd">
<svg version="1.0" xmlns="http://www.w3.org/2000/svg"
 width="1280.000000pt" height="613.000000pt" viewBox="0 0 1280.000000 613.000000"
 preserveAspectRatio="xMidYMid meet">
<g transform="translate(0.000000,613.000000) scale(0.100000,-0.100000)"
fill="#000000" stroke="none">
<path d="M1236 5913 c-3 -26 -15 -151 -27 -278 -17 -194 -26 -250 -56 -355
-28 -101 -34 -135 -29 -178 5 -44 3 -58 -14 -79 -30 -38 -26 -87 10 -124 l30
-32 -29 -32 c-16 -18 -31 -39 -33 -46 -8 -25 -35 0 -78 71 l-44 72 32 63 c26
49 30 68 23 86 -20 52 -203 395 -216 405 -9 7 -39 8 -91 2 -246 -26 -410 -145
-459 -334 -19 -73 -19 -228 -1 -314 30 -140 98 -296 194 -446 29 -45 52 -86
52 -93 0 -6 -15 -62 -34 -124 -62 -205 -85 -381 -66 -516 21 -156 73 -246 167
-292 70 -33 189 -31 299 4 47 16 88 36 100 50 17 19 28 22 63 19 37 -4 42 -7
39 -27 -1 -12 4 -30 12 -40 12 -15 12 -18 -3 -26 -12 -7 -15 -17 -11 -34 5
-19 0 -27 -25 -40 -39 -20 -40 -29 -2 -20 27 6 33 2 56 -35 18 -29 25 -50 21
-66 -7 -25 3 -31 20 -14 29 29 33 -25 45 -683 l12 -668 -31 -32 c-18 -18 -32
-42 -32 -54 0 -34 -11 -54 -36 -64 -29 -10 -31 -25 -5 -34 31 -10 43 -31 36
-64 -5 -25 -14 -33 -46 -42 -21 -7 -46 -20 -55 -30 -15 -17 -13 -17 40 -12 52
5 56 4 67 -19 9 -20 8 -32 -5 -56 -17 -33 -12 -92 8 -92 7 0 23 -14 35 -31 38
-51 123 -75 174 -48 12 7 39 25 60 41 30 24 37 36 37 64 0 39 22 54 51 35 34
-20 22 15 -17 55 -33 32 -36 39 -27 67 8 29 14 33 63 41 50 7 53 9 35 22 -10
8 -36 14 -57 14 -33 0 -39 4 -44 27 -5 17 -2 37 8 54 15 26 14 29 -33 100
l-48 74 -1 661 0 661 22 28 c17 22 27 26 54 22 l32 -5 -15 27 c-11 18 -14 38
-9 63 5 28 12 37 39 45 l32 11 -32 7 c-45 10 -42 33 4 37 37 3 60 28 26 28
-33 0 -64 30 -61 57 2 14 10 29 18 33 77 35 115 57 118 69 3 10 0 12 -14 7
-10 -4 -38 -10 -63 -13 -36 -5 -46 -3 -57 12 -18 25 -18 73 1 109 19 37 19 60
-1 77 -21 18 -66 119 -60 136 3 7 -2 35 -11 63 -15 46 -15 54 1 103 15 49 16
58 2 98 -18 52 -20 69 -6 69 16 0 150 -211 150 -236 0 -12 -8 -32 -19 -45 -47
-62 -47 -59 25 -202 37 -73 71 -139 75 -147 5 -8 18 -32 29 -52 26 -48 44 -53
200 -52 310 2 485 116 540 353 19 83 8 256 -25 366 -52 178 -176 396 -329 579
-36 43 -66 84 -66 90 0 6 7 47 15 91 29 160 17 350 -27 456 -48 111 -182 179
-323 163 l-54 -7 -83 -206 c-54 -133 -88 -206 -97 -206 -10 0 -26 36 -48 105
-29 88 -39 152 -68 399 -19 161 -36 295 -39 298 -2 2 -7 -17 -10 -44z m170
-848 c11 -27 -1 -39 -19 -21 -17 17 -15 36 4 36 5 0 12 -7 15 -15z m40 -169
c-4 -24 -13 -52 -21 -62 -13 -18 -15 -18 -41 8 l-27 27 31 36 c18 19 32 44 32
54 0 10 3 21 7 25 13 13 25 -44 19 -88z m-318 -844 c8 -20 14 -48 14 -62 -1
-35 -25 -120 -34 -120 -20 0 -41 54 -40 104 0 53 26 135 39 122 4 -3 13 -23
21 -44z m-55 -493 c14 -22 -16 -69 -43 -69 -23 0 -25 13 -9 59 12 34 34 38 52
10z"/>
<path d="M11377 5875 c-12 -58 -14 -88 -6 -142 11 -72 3 -200 -13 -220 -16
-20 -37 -3 -44 35 -11 60 -45 110 -85 126 -20 8 -71 37 -113 64 -95 63 -150
82 -251 89 -148 10 -262 -32 -360 -131 -72 -73 -116 -153 -144 -260 -38 -144
-22 -169 34 -53 42 86 146 187 193 187 15 0 38 7 50 16 32 22 127 30 158 13
22 -12 30 -11 56 4 61 35 64 15 9 -51 -75 -90 -134 -242 -146 -375 l-5 -62 18
50 c53 147 186 292 246 269 8 -3 23 4 33 15 15 16 27 19 56 14 30 -4 37 -10
37 -28 0 -12 -7 -28 -15 -35 -23 -19 -18 -37 19 -60 23 -13 39 -34 47 -58 7
-20 30 -63 51 -95 l39 -58 -7 -92 c-7 -105 2 -126 48 -108 46 17 52 3 45 -115
-5 -73 -3 -118 5 -140 10 -29 9 -36 -7 -54 -26 -28 -26 -91 -1 -119 16 -18 18
-26 9 -56 -7 -21 -8 -49 -2 -72 10 -46 2 -279 -11 -302 -5 -11 -5 -41 1 -77 6
-32 10 -77 8 -99 -5 -74 2 -224 12 -265 2 -8 0 -63 -4 -121 -4 -61 -4 -117 2
-130 7 -19 4 -30 -10 -48 -21 -26 -24 -62 -8 -94 19 -35 25 -352 9 -466 -7
-52 -6 -71 7 -98 14 -31 14 -37 -1 -76 -20 -53 -21 -96 -1 -111 12 -9 13 -18
5 -47 -6 -22 -7 -46 -1 -60 11 -32 6 -188 -7 -201 -8 -8 -19 -6 -36 6 l-26 16
0 -50 c0 -28 -5 -59 -12 -70 -16 -25 12 -117 48 -160 33 -39 26 -71 -22 -100
-33 -21 -41 -33 -58 -87 -6 -19 -4 -23 14 -23 29 0 76 -26 94 -52 9 -12 16
-40 16 -61 0 -21 10 -57 21 -80 18 -35 21 -53 16 -118 -3 -55 0 -94 12 -139
l18 -64 13 65 c8 35 12 98 11 140 -2 61 1 84 18 117 12 23 21 60 21 85 0 58
25 82 74 73 l35 -7 -2 65 c-2 64 -3 65 -44 95 -47 34 -53 56 -24 93 21 27 36
77 46 157 l7 53 -31 -7 c-25 -5 -31 -3 -31 11 0 10 -7 25 -16 35 -13 14 -17
50 -19 192 -3 147 -1 183 15 233 16 52 16 63 4 93 -15 35 -30 232 -26 339 2
38 9 74 19 88 15 23 14 30 -2 90 -14 54 -15 69 -5 94 8 20 11 54 7 98 -3 37
-11 123 -17 192 -11 136 -5 244 16 275 20 28 17 78 -6 108 -17 21 -18 30 -9
56 7 21 8 64 1 138 -6 69 -5 135 1 183 12 95 11 163 -2 188 -8 15 -7 29 4 56
17 40 20 117 6 131 -6 6 -11 49 -13 97 -2 75 0 91 18 115 16 21 30 28 55 28
l34 0 -3 77 c-3 74 -1 80 33 129 19 28 35 60 35 70 0 12 14 28 35 40 40 24 41
28 20 70 -14 27 -14 32 2 59 9 16 28 34 42 40 15 5 33 14 41 19 8 4 30 13 47
19 28 9 37 7 59 -11 18 -13 39 -20 60 -19 30 2 111 -29 124 -48 3 -4 19 -14
36 -23 42 -22 127 -139 150 -207 18 -51 19 -53 22 -24 3 27 -11 102 -34 182
-6 19 -3 23 12 20 17 -3 19 3 16 42 -5 69 -40 188 -75 253 -69 130 -169 198
-302 205 -100 5 -165 -17 -248 -85 -32 -27 -73 -58 -90 -70 -56 -38 -67 -52
-67 -83 0 -41 -26 -100 -44 -100 -20 0 -30 97 -21 204 7 82 -7 210 -24 221 -4
2 -15 -29 -24 -70z m741 -303 c2 -7 -2 -10 -12 -6 -9 3 -16 11 -16 16 0 13 23
5 28 -10z m80 -79 c22 -32 45 -94 37 -101 -3 -3 -7 -3 -9 -1 -11 13 -86 137
-86 143 0 13 39 -15 58 -41z"/>
<path d="M3145 5838 c-38 -138 -41 -142 -115 -158 -52 -11 -63 -11 -74 1 -7 8
-43 49 -81 92 -37 42 -70 76 -72 74 -2 -2 10 -41 27 -86 31 -86 37 -121 20
-121 -6 0 -54 27 -107 60 -52 34 -97 59 -100 56 -2 -2 25 -55 61 -118 36 -62
66 -120 65 -128 0 -8 -12 -40 -27 -70 -26 -53 -29 -55 -69 -58 -24 -2 -43 -6
-43 -10 0 -3 12 -16 27 -27 14 -12 23 -26 20 -32 -4 -6 -59 -21 -124 -33 -65
-13 -124 -26 -132 -30 -10 -5 22 -19 90 -40 57 -17 119 -36 137 -41 34 -11 43
-33 17 -43 -24 -9 -17 -23 15 -30 23 -4 34 -14 41 -35 6 -16 19 -47 30 -67 10
-21 19 -42 19 -46 0 -4 -31 -58 -70 -120 -38 -62 -70 -116 -70 -121 0 -4 26 6
58 22 101 52 162 73 162 56 0 -3 -12 -34 -26 -70 -15 -36 -24 -68 -22 -71 3
-2 40 27 82 67 l76 71 47 -18 c72 -26 81 -37 50 -64 -24 -21 -25 -25 -12 -44
22 -30 19 -83 -5 -98 -27 -17 -25 -24 10 -65 17 -18 30 -40 30 -48 0 -16 -47
-55 -66 -55 -21 0 -16 -28 6 -35 25 -8 34 -41 27 -97 -7 -51 -8 -598 -2 -608
3 -4 5 -345 5 -758 1 -582 -2 -755 -11 -771 -10 -14 -10 -26 -2 -43 7 -16 8
-30 1 -42 -5 -9 -7 -34 -3 -56 4 -25 2 -48 -8 -67 -13 -24 -13 -32 -2 -53 11
-21 11 -30 -1 -60 -12 -28 -13 -39 -3 -58 10 -18 10 -30 0 -57 -10 -29 -10
-38 4 -59 15 -22 15 -27 0 -56 -15 -28 -15 -33 1 -59 16 -28 16 -31 1 -55 -9
-14 -17 -29 -17 -33 0 -19 53 -63 75 -63 13 0 31 -7 39 -16 22 -22 22 -127 -1
-164 -15 -26 -15 -32 0 -87 13 -44 17 -100 17 -216 l0 -157 -55 -60 c-30 -33
-55 -64 -55 -69 0 -13 27 -21 75 -21 69 0 75 5 75 66 0 49 4 59 38 97 48 52
56 79 32 110 -10 13 -23 51 -30 85 -6 34 -17 80 -25 102 -19 53 -19 260 0 260
7 0 19 -16 27 -35 13 -32 15 -34 33 -21 19 14 19 15 -4 64 l-24 51 31 36 c31
35 31 36 15 69 -15 32 -15 37 0 60 16 24 16 28 0 60 -16 34 -15 37 1 55 16 17
16 24 5 55 -10 29 -10 40 0 59 10 18 10 30 2 45 -15 27 -14 65 1 80 10 10 8
20 -6 47 -16 29 -17 39 -7 64 10 23 10 33 0 49 -10 16 -10 26 -1 46 9 19 8 31
-3 54 -13 25 -12 147 5 957 11 510 22 1000 23 1089 2 156 3 161 25 171 28 12
26 18 -18 47 -46 31 -48 56 -10 93 35 34 38 50 10 65 -24 13 -27 66 -6 96 13
17 12 21 -6 41 -28 30 -18 48 38 63 l48 14 74 -80 c41 -43 73 -70 70 -59 -3
11 -14 50 -24 87 -10 37 -15 70 -12 74 4 3 52 -22 108 -56 55 -34 103 -60 106
-57 3 2 -25 57 -62 121 l-67 116 34 70 c18 38 41 72 51 76 14 4 15 8 6 24 -7
11 -9 22 -6 26 4 3 63 18 133 34 69 15 128 30 131 33 3 3 -49 22 -115 43 -74
23 -121 42 -121 50 0 8 15 21 33 31 l32 17 -30 7 c-16 5 -42 10 -56 13 -21 5
-32 19 -53 67 -14 33 -26 66 -26 72 0 7 29 59 65 117 35 57 63 106 61 108 -2
1 -47 -18 -99 -45 -53 -26 -99 -44 -103 -40 -4 4 9 48 30 98 20 50 35 93 34
95 -2 2 -40 -32 -83 -76 -44 -44 -87 -80 -95 -80 -9 0 -44 9 -78 21 -69 23
-59 6 -103 182 -12 48 -25 87 -29 87 -4 0 -20 -46 -35 -102z m73 -5017 c5 -29
-13 -50 -29 -34 -15 15 -3 66 14 60 7 -2 14 -14 15 -26z m-83 -200 c6 -10 -21
-41 -36 -41 -10 0 -12 33 -2 43 9 10 31 9 38 -2z"/>
<path d="M4265 5758 c-1 -133 -4 -178 -22 -243 -11 -44 -24 -121 -27 -172 -6
-99 -31 -181 -66 -218 -20 -22 -21 -25 -6 -53 17 -33 21 -79 8 -98 -4 -6 -17
-16 -30 -23 -26 -14 -30 -5 42 -96 20 -25 32 -54 37 -91 4 -30 17 -75 29 -100
12 -25 27 -62 32 -82 11 -39 23 -2693 14 -3172 0 -25 1 -106 3 -180 2 -74 -1
-224 -6 -333 -9 -178 -12 -201 -31 -227 -12 -16 -22 -32 -22 -37 0 -4 6 1 13
11 11 15 17 16 40 5 21 -10 33 -10 54 0 23 11 29 10 40 -5 7 -10 13 -15 13
-11 0 5 -10 21 -22 38 -20 26 -23 47 -30 192 -5 89 -10 940 -12 1892 -4 1812
-4 1833 38 1897 8 13 26 69 40 125 20 77 24 108 16 128 -8 20 -4 40 15 91 14
37 25 77 25 90 0 20 -4 23 -28 18 -36 -7 -56 15 -49 53 3 15 1 35 -4 45 -5 9
-5 26 0 40 5 14 4 32 -2 45 -7 17 -5 30 13 58 18 29 20 41 12 58 -6 12 -13 56
-17 97 -3 41 -10 89 -15 105 -13 47 -47 184 -62 249 -23 105 -33 76 -33 -96z"/>
<path d="M6797 5735 c-34 -35 -39 -36 -173 -56 -392 -57 -588 -130 -766 -289
-44 -38 -178 -206 -178 -222 0 -4 48 22 107 58 254 154 443 219 756 259 65 8
136 15 158 15 37 0 39 -2 39 -30 0 -27 3 -30 33 -30 36 0 55 -12 81 -50 13
-21 16 -55 16 -215 l0 -191 -33 -32 c-32 -31 -36 -32 -118 -32 -111 0 -214 27
-346 90 l-104 49 38 -45 c122 -149 307 -254 448 -254 24 0 59 -10 90 -27 28
-15 65 -29 83 -32 39 -7 43 -25 7 -29 -16 -2 -29 -12 -35 -27 -7 -18 -19 -24
-60 -30 -59 -8 -55 -19 9 -32 51 -10 64 -29 29 -42 -23 -10 -23 -10 4 -10 57
-2 58 -4 58 -122 0 -96 -2 -110 -17 -115 -51 -16 -58 -33 -22 -51 13 -7 32
-22 42 -34 16 -20 17 -111 17 -1584 0 -860 -3 -1570 -6 -1579 -3 -9 -12 -16
-18 -16 -27 0 -56 -46 -56 -88 0 -32 -4 -44 -17 -48 -58 -18 -58 -21 0 -33 51
-11 58 -15 55 -34 -2 -17 -14 -25 -52 -34 -60 -15 -66 -20 -30 -29 33 -8 44
-20 44 -50 0 -11 14 -33 30 -49 19 -18 30 -39 30 -56 0 -15 7 -29 15 -33 8 -3
20 -18 26 -33 l11 -28 13 32 c8 18 19 33 24 33 6 0 13 15 16 34 4 19 20 47 36
62 19 18 29 38 29 56 0 17 6 31 15 33 47 15 51 18 30 22 -77 17 -95 25 -95 43
0 14 11 22 43 30 72 19 75 21 37 34 -29 9 -34 16 -32 36 4 39 -17 78 -55 100
l-35 20 4 1574 c3 1704 -1 1591 57 1619 34 16 32 29 -8 46 l-31 15 0 101 c0
111 6 125 54 126 30 0 30 1 8 10 -35 13 -22 32 29 42 60 12 68 23 22 31 -63
11 -74 17 -71 34 2 13 -6 18 -29 20 -44 4 -45 32 -2 32 47 0 106 37 113 70 4
23 14 31 53 44 26 9 85 38 130 65 45 26 163 83 263 127 99 43 180 81 180 84 0
3 -21 16 -47 29 l-47 23 -16 -22 c-20 -27 -45 -18 -67 24 l-16 31 -9 -27 c-13
-38 -44 -36 -66 2 -19 34 -32 39 -32 11 0 -10 -7 -24 -15 -31 -12 -10 -20 -7
-44 19 l-30 32 -3 -28 c-4 -36 -41 -44 -60 -14 -17 28 -28 26 -28 -3 0 -40
-31 -42 -62 -5 -15 18 -30 30 -33 27 -3 -3 -8 -27 -10 -54 -5 -57 -32 -98 -68
-102 l-27 -3 0 181 c0 142 3 187 15 210 18 35 43 50 83 50 17 0 32 6 36 15 10
27 35 16 56 -25 16 -32 26 -40 48 -40 22 0 32 7 45 35 23 47 66 51 104 9 29
-31 38 -30 53 6 21 50 84 53 110 5 18 -34 25 -32 47 13 24 50 70 57 102 15 18
-22 25 -25 39 -17 9 6 19 20 21 30 5 27 31 54 52 54 10 0 31 -11 47 -25 37
-31 52 -32 52 -2 0 57 61 87 103 50 18 -17 22 -16 94 22 41 22 77 43 79 47 6
10 -69 16 -406 33 -168 9 -372 25 -454 36 -82 10 -166 19 -187 19 -25 0 -47 8
-67 25 -29 24 -34 25 -190 25 l-161 0 -34 -35z"/>
<path d="M5167 5737 c-4 -10 -7 -34 -7 -53 0 -48 -16 -74 -45 -74 -20 0 -25 6
-30 38 -4 20 -10 48 -15 62 -7 22 -8 20 -14 -20 -4 -25 -7 -50 -6 -55 4 -21 0
-45 -8 -45 -5 0 -15 12 -22 28 -9 19 -14 22 -17 11 -2 -8 15 -62 38 -118 22
-57 47 -138 55 -180 26 -147 13 -431 -31 -687 -28 -162 -31 -225 -13 -253 9
-15 5 -51 -20 -177 -37 -185 -39 -216 -13 -252 10 -15 24 -46 31 -69 12 -39
10 -52 -20 -158 l-34 -115 22 -28 c47 -58 47 -57 -8 -227 -29 -88 -52 -173
-53 -190 0 -16 12 -59 28 -95 96 -224 135 -464 135 -837 0 -85 9 -199 25 -315
34 -252 45 -467 46 -923 1 -423 11 -470 29 -130 6 110 15 236 21 280 5 44 14
157 19 250 6 94 15 188 20 210 6 22 13 117 15 210 3 94 10 222 16 285 22 227
22 224 -2 294 -18 56 -21 76 -14 134 5 37 7 96 5 132 -2 60 -2 110 1 253 1 28
-2 78 -6 109 -7 52 -5 58 18 82 27 27 51 33 62 16 13 -20 25 -9 25 23 0 19
-14 101 -30 183 -31 148 -33 194 -15 310 4 25 1 73 -9 119 -21 101 -20 127 4
158 27 34 25 71 -10 216 -26 105 -28 125 -17 142 18 25 7 105 -33 234 -51 165
-59 201 -50 241 6 27 4 48 -7 76 -12 31 -14 54 -6 122 5 46 5 97 0 113 -4 15
-5 56 -2 91 3 34 1 80 -5 102 -14 54 7 142 59 244 26 50 41 93 41 115 0 28 -3
33 -11 21 -8 -11 -9 -6 -6 22 4 23 1 41 -7 47 -9 8 -15 -1 -25 -39 -15 -57
-22 -64 -57 -56 -20 5 -24 13 -25 44 -1 20 -4 51 -8 67 -5 25 -8 27 -14 12z"/>
<path d="M8555 4970 c-160 -24 -333 -101 -460 -203 -44 -35 -113 -106 -153
-156 -41 -51 -103 -115 -139 -143 -53 -42 -63 -55 -58 -72 52 -160 47 -197
-34 -238 -30 -15 -56 -30 -59 -32 -2 -3 19 -29 47 -59 37 -39 51 -62 51 -83 0
-47 18 -102 75 -224 74 -162 80 -192 80 -420 0 -225 -6 -257 -75 -410 -63
-139 -84 -209 -71 -244 6 -14 15 -26 21 -26 23 0 7 -32 -42 -87 -29 -32 -61
-68 -72 -80 l-18 -22 53 -24 c30 -13 60 -31 68 -41 25 -30 26 -109 1 -187
l-23 -72 25 -21 c14 -12 46 -38 72 -59 25 -21 78 -80 116 -131 160 -215 353
-348 598 -413 85 -23 117 -26 252 -26 128 0 169 3 234 21 103 29 216 78 291
127 117 78 280 263 259 297 -7 11 -72 -24 -124 -67 -62 -52 -104 -71 -190 -85
-41 -7 -92 -19 -114 -26 -52 -19 -82 -18 -149 5 -45 16 -63 18 -87 9 -24 -8
-35 -7 -55 6 -13 9 -38 16 -56 16 -17 0 -45 6 -62 14 -18 8 -44 17 -58 20 -14
3 -36 21 -50 43 l-25 38 -73 -3 c-86 -4 -113 10 -131 62 -9 28 -21 40 -55 55
-44 20 -61 46 -50 80 5 15 -1 24 -25 36 -36 19 -55 58 -63 133 -6 51 -5 54 24
71 17 10 48 22 70 25 21 3 39 10 39 15 0 4 -13 26 -30 47 -82 107 -81 104 -68
168 11 50 16 59 44 71 39 16 43 22 60 93 12 53 12 62 -9 121 -20 58 -26 66
-73 93 -83 46 -84 51 -53 156 13 41 12 46 -15 93 -22 39 -27 58 -21 82 8 40 8
64 -1 104 -4 24 -1 42 15 68 25 43 27 85 5 148 -19 56 -14 65 56 103 41 22 50
33 66 80 16 47 17 61 6 111 -12 61 -46 103 -82 103 -26 0 -44 34 -31 58 5 10
28 40 50 67 23 27 41 53 41 57 0 4 -19 12 -42 18 -70 19 -88 35 -88 80 0 55
15 88 50 108 24 14 30 23 28 47 -2 40 5 51 47 65 25 8 37 20 45 45 13 40 54
60 104 51 50 -9 85 2 101 34 10 20 30 32 78 48 35 12 75 22 90 22 14 0 29 5
33 11 4 7 21 9 46 5 25 -4 62 0 99 10 53 15 63 15 121 1 35 -9 93 -21 130 -28
46 -7 87 -23 125 -47 97 -59 147 -84 151 -72 12 36 -134 171 -266 247 -177
100 -414 144 -617 113z"/>
<path d="M10073 4448 c-6 -7 -25 -60 -43 -118 -18 -58 -37 -110 -41 -115 -4
-6 -11 -41 -15 -77 -6 -64 -6 -66 20 -83 l26 -17 -5 -162 c-6 -167 -11 -351
-20 -711 -6 -267 -23 -868 -39 -1422 -13 -416 -14 -432 -35 -458 -33 -43 -27
-69 29 -123 55 -53 60 -70 30 -97 -25 -22 -28 -96 -5 -115 20 -17 20 -80 0
-80 -8 0 -30 -14 -50 -31 l-35 -31 0 -98 c0 -71 -4 -101 -14 -109 -33 -28
-157 -40 -301 -30 -482 32 -936 150 -1326 344 -231 115 -358 206 -564 403 -76
74 -141 129 -143 124 -2 -6 10 -40 27 -75 54 -113 311 -339 561 -492 132 -81
367 -195 518 -250 245 -91 599 -167 930 -201 81 -8 182 -24 225 -36 l77 -20 0
-78 c0 -69 3 -81 29 -118 34 -46 43 -50 126 -53 156 -6 174 -2 216 40 39 39
39 39 39 119 0 67 3 83 18 90 36 19 163 42 310 57 577 58 1047 205 1452 453
178 109 377 267 487 386 52 56 108 156 100 179 -1 5 -65 -49 -140 -121 -205
-196 -343 -295 -572 -409 -329 -165 -803 -297 -1190 -332 -241 -22 -306 -22
-385 -3 l-75 17 -5 105 c-3 58 -9 111 -13 117 -4 7 -28 24 -53 39 -50 29 -57
55 -24 97 28 35 25 79 -6 116 l-26 31 37 45 c21 25 44 45 51 45 21 0 17 66 -5
98 -18 25 -21 56 -31 367 -19 616 -39 1326 -46 1585 -9 386 -13 522 -18 665
l-5 130 27 21 c26 21 26 22 15 90 -12 73 -82 287 -99 304 -8 8 -14 7 -21 -2z"/>
<path d="M4356 562 l-19 -27 24 22 c12 12 21 24 18 27 -2 2 -13 -8 -23 -22z"/>
<path d="M4259 537 c5 -5 24 -7 42 -5 33 3 33 4 -8 8 -23 3 -39 2 -34 -3z"/>
</g>
</svg>
