<?xml version="1.0" standalone="no"?>
<!DOCTYPE svg PUBLIC "-//W3C//DTD SVG 20010904//EN"
 "http://www.w3.org/TR/2001/REC-SVG-20010904/DTD/svg10.dtd">
<svg version="1.0" xmlns="http://www.w3.org/2000/svg"
 width="854.000000pt" height="1280.000000pt" viewBox="0 0 854.000000 1280.000000"
 preserveAspectRatio="xMidYMid meet">
<g transform="translate(0.000000,1280.000000) scale(0.100000,-0.100000)"
fill="#000000" stroke="none">
<path d="M619 12620 c-51 -13 -173 -85 -253 -149 -164 -132 -306 -378 -306
-529 0 -47 23 -118 48 -145 30 -34 98 -59 160 -57 31 1 63 1 70 1 7 -1 12 -16
12 -38 0 -52 12 -66 61 -72 41 -6 44 -8 51 -46 11 -51 18 -57 70 -64 41 -6 43
-8 49 -45 7 -46 30 -66 75 -66 29 0 32 -3 38 -39 7 -47 23 -61 76 -68 37 -5
40 -8 40 -38 0 -39 24 -62 70 -67 30 -3 36 -8 45 -39 14 -51 31 -67 73 -71 34
-3 37 -6 43 -41 8 -49 19 -59 71 -66 41 -6 43 -8 48 -46 5 -43 32 -65 83 -65
21 0 27 -5 27 -22 0 -48 23 -73 70 -78 43 -5 45 -7 48 -40 5 -48 27 -70 72
-70 36 0 38 -2 44 -38 7 -47 30 -69 76 -74 32 -3 35 -6 41 -41 8 -48 16 -56
65 -64 44 -7 54 -17 54 -54 0 -34 16 -47 65 -51 37 -3 40 -5 46 -40 8 -51 24
-66 72 -70 41 -3 42 -4 45 -40 4 -45 31 -68 79 -68 30 0 33 -3 33 -29 0 -41
29 -72 75 -80 36 -6 40 -9 46 -44 7 -47 10 -49 61 -56 40 -6 43 -9 53 -48 13
-52 16 -55 68 -62 39 -6 42 -8 48 -45 7 -46 30 -66 75 -66 30 0 33 -3 39 -40
8 -47 35 -70 82 -70 29 0 33 -3 33 -28 0 -43 26 -72 64 -72 39 0 56 -15 56
-50 0 -35 26 -58 70 -62 32 -3 35 -6 43 -45 5 -26 16 -47 28 -53 17 -10 19
-22 19 -108 l0 -98 -59 -96 c-179 -294 -518 -705 -659 -798 -54 -36 -68 -29
-53 26 15 56 13 171 -4 228 -43 140 -151 256 -239 256 -85 -1 -200 -83 -232
-166 -27 -72 -15 -235 26 -347 56 -151 168 -300 274 -362 145 -85 324 -94 487
-26 244 102 509 389 744 806 98 172 113 195 127 189 26 -12 311 -349 518 -613
955 -1219 1621 -2534 1885 -3721 20 -91 38 -166 39 -168 2 -1 37 8 77 22 211
70 426 21 580 -133 225 -224 225 -565 -1 -792 -84 -85 -160 -128 -276 -155
-68 -16 -196 -15 -251 2 l-23 6 0 -128 c0 -249 -38 -601 -95 -882 -14 -69 -24
-126 -23 -128 2 -1 114 -30 248 -64 610 -152 990 -326 1368 -627 51 -41 101
-88 111 -104 10 -16 36 -41 59 -57 24 -15 96 -85 161 -155 236 -250 427 -537
591 -887 35 -74 66 -139 70 -143 23 -27 98 387 120 658 6 77 15 187 20 245 13
133 13 315 1 433 -6 51 -15 169 -21 262 -30 456 -126 1028 -256 1525 -453
1732 -1370 3408 -2658 4855 -523 587 -1039 1074 -1739 1640 l-37 30 -1 127
c-1 126 -1 128 31 179 86 140 290 408 429 564 108 120 240 230 257 213 3 -3 0
-44 -7 -91 -34 -243 86 -465 240 -444 79 10 223 105 258 169 26 49 23 182 -6
278 -93 302 -317 501 -565 500 -105 -1 -246 -49 -360 -124 -209 -140 -458
-450 -661 -824 -27 -51 -53 -92 -57 -92 -4 0 -14 13 -22 29 -17 32 -34 41 -76
41 -25 0 -29 4 -35 39 -9 56 -20 63 -107 70 -5 1 -8 16 -8 34 0 41 -23 64 -70
69 -30 3 -36 8 -45 39 -14 51 -31 67 -73 71 -34 3 -37 6 -43 41 -8 49 -19 59
-71 66 -41 6 -43 8 -48 46 -5 43 -32 65 -82 65 -24 0 -28 4 -28 28 0 45 -25
70 -73 74 -40 3 -42 5 -45 38 -5 48 -27 70 -72 70 -36 0 -38 2 -44 38 -7 47
-30 69 -76 74 -26 2 -36 8 -38 23 -7 51 -13 62 -37 73 -14 7 -36 12 -49 12
-25 0 -36 17 -36 55 0 30 -17 43 -65 47 -37 3 -40 5 -46 40 -8 51 -24 66 -72
70 -41 3 -42 4 -45 40 -4 45 -31 68 -79 68 -30 0 -33 3 -33 29 0 41 -29 72
-75 80 -36 6 -40 9 -46 44 -7 47 -10 49 -61 56 -40 6 -43 9 -53 48 -13 52 -16
55 -68 62 -39 6 -42 8 -48 45 -7 46 -30 66 -75 66 -30 0 -33 3 -39 40 -8 47
-35 70 -82 70 -29 0 -33 3 -33 28 0 43 -26 72 -64 72 -39 0 -56 15 -56 50 0
35 -26 58 -70 62 -31 3 -35 7 -42 43 -10 50 -30 65 -84 65 l-41 0 -5 73 c-5
82 -24 123 -72 159 -26 19 -45 23 -111 25 -44 1 -96 -2 -116 -7z"/>
</g>
</svg>
