<?xml version="1.0" standalone="no"?>
<!DOCTYPE svg PUBLIC "-//W3C//DTD SVG 20010904//EN"
 "http://www.w3.org/TR/2001/REC-SVG-20010904/DTD/svg10.dtd">
<svg version="1.0" xmlns="http://www.w3.org/2000/svg"
 width="858.000000pt" height="1280.000000pt" viewBox="0 0 858.000000 1280.000000"
 preserveAspectRatio="xMidYMid meet">
<g transform="translate(0.000000,1280.000000) scale(0.100000,-0.100000)"
fill="#000000" stroke="none">
<path d="M7972 12390 c-42 -26 -79 -104 -87 -185 -10 -90 -5 -86 -92 -58 -118
37 -173 23 -173 -47 0 -34 -4 -40 -37 -57 -34 -16 -38 -23 -41 -59 -3 -38 -6
-43 -43 -57 -37 -15 -39 -17 -39 -60 0 -42 -2 -46 -29 -52 -39 -8 -49 -22 -53
-70 -2 -31 -8 -41 -23 -43 -35 -7 -55 -33 -55 -73 0 -34 -3 -39 -34 -49 -38
-12 -46 -26 -46 -76 0 -27 -4 -34 -20 -34 -30 0 -62 -37 -59 -68 4 -34 -7 -52
-31 -52 -27 0 -54 -44 -46 -75 5 -21 1 -27 -28 -39 -40 -17 -56 -41 -53 -81 2
-24 -3 -30 -31 -37 -37 -10 -53 -39 -45 -81 4 -22 1 -27 -23 -33 -44 -10 -54
-23 -54 -64 0 -34 -4 -40 -37 -57 -34 -16 -39 -23 -43 -62 -4 -39 -9 -46 -34
-52 -36 -10 -46 -24 -46 -70 0 -32 -4 -38 -27 -44 -43 -10 -53 -24 -53 -71 0
-36 -3 -44 -18 -44 -36 0 -61 -28 -64 -73 -2 -33 -7 -43 -23 -45 -35 -7 -55
-33 -55 -73 0 -33 -3 -38 -30 -44 -36 -8 -52 -34 -48 -77 2 -27 -1 -33 -22
-39 -14 -4 -940 -7 -2058 -8 -1618 -1 -2033 2 -2036 12 -17 63 -23 72 -54 81
-29 8 -32 13 -32 46 0 39 -20 65 -55 72 -16 2 -21 12 -23 45 -3 45 -28 73 -64
73 -15 0 -18 8 -18 44 0 47 -10 60 -53 70 -24 6 -27 11 -27 45 0 40 -20 66
-55 73 -16 2 -21 12 -23 45 -3 45 -28 73 -64 73 -15 0 -18 8 -18 44 0 47 -9
60 -54 70 -24 6 -27 11 -23 33 8 42 -8 71 -45 81 -28 7 -33 13 -31 37 3 40
-12 63 -53 80 -29 12 -34 18 -28 39 8 34 -10 63 -51 76 -31 10 -34 14 -29 39
8 39 -10 68 -46 76 -26 6 -30 11 -30 40 0 49 -8 63 -45 75 -30 10 -34 15 -37
53 -3 37 -7 44 -40 60 -34 17 -38 23 -38 57 0 41 -11 55 -53 65 -23 6 -27 12
-27 44 0 46 -10 60 -46 70 -25 6 -30 13 -34 52 -4 39 -9 46 -42 62 -34 17 -38
23 -38 57 0 23 -6 43 -17 51 -23 20 -108 15 -172 -10 -30 -11 -57 -18 -61 -16
-4 2 -10 35 -13 72 -9 91 -49 171 -100 198 l-37 20 -37 -20 c-61 -32 -97 -116
-101 -233 -4 -82 4 -144 23 -194 4 -10 -15 -32 -58 -67 -145 -118 -195 -245
-105 -269 29 -7 33 -12 33 -43 1 -44 10 -58 52 -76 30 -12 34 -17 28 -40 -7
-30 18 -73 43 -73 28 0 41 -20 35 -50 -6 -32 25 -70 57 -70 19 0 24 -10 20
-39 -4 -35 11 -60 45 -71 32 -10 35 -15 35 -49 0 -40 20 -66 55 -73 16 -2 21
-12 23 -45 3 -45 28 -73 64 -73 15 0 18 -8 18 -44 0 -47 10 -60 53 -70 24 -6
27 -11 27 -45 0 -40 20 -66 55 -73 15 -2 21 -12 23 -43 4 -48 14 -62 53 -70
27 -6 29 -10 29 -50 0 -46 10 -59 54 -69 24 -6 27 -11 23 -33 -8 -42 8 -71 45
-81 30 -8 33 -12 33 -46 0 -39 30 -76 62 -76 8 0 11 -4 8 -10 -4 -6 -66 -10
-154 -10 -111 0 -152 -3 -167 -14 -19 -14 -19 -53 -19 -2683 0 -2524 1 -2674
18 -2782 62 -393 228 -773 507 -1161 51 -70 89 -132 86 -141 -2 -9 -122 -182
-266 -384 -287 -401 -299 -423 -385 -685 -75 -229 -97 -362 -99 -585 -1 -186
17 -400 36 -411 11 -7 190 22 313 51 259 61 447 160 619 325 118 113 139 141
385 527 117 183 217 333 221 333 4 0 61 -43 126 -96 379 -308 825 -610 1301
-880 195 -110 416 -218 450 -218 56 0 477 221 780 410 419 261 743 497 1129
818 30 25 37 27 48 15 8 -8 118 -178 246 -379 128 -201 253 -392 279 -425 146
-190 357 -337 601 -419 116 -39 325 -84 410 -88 l54 -3 14 85 c9 54 15 162 15
300 0 194 -2 227 -26 340 -31 147 -90 337 -150 482 -38 91 -78 151 -344 524
-165 232 -303 426 -307 432 -3 6 31 66 78 134 259 381 403 722 463 1099 17
108 18 258 18 2782 0 2630 0 2669 -19 2683 -13 9 -47 14 -102 14 -60 0 -85 4
-94 15 -15 18 2 45 30 45 26 0 45 29 45 68 0 31 4 37 32 46 43 15 46 19 47 67
1 38 4 42 36 53 33 10 35 14 38 58 3 41 6 47 30 53 41 10 52 24 52 65 0 34 4
40 38 57 33 16 38 23 42 62 5 39 8 45 40 55 33 10 35 14 38 58 3 41 6 47 30
53 41 10 52 24 52 65 0 34 4 40 38 57 33 16 37 23 40 60 3 38 6 43 38 53 35
12 47 34 42 79 -2 20 3 26 29 33 39 10 57 39 48 79 -6 27 -4 30 25 35 39 8 63
43 54 78 -5 23 -2 28 29 41 43 18 51 30 52 74 0 31 4 36 33 43 90 24 37 157
-108 273 -33 26 -60 49 -60 49 0 1 7 23 15 50 20 67 19 210 -2 275 -9 28 -30
67 -47 86 -39 45 -80 53 -124 25z m-6417 -2750 c29 -7 28 -8 -12 -10 -24 -2
-50 -4 -60 -4 -9 -1 -18 5 -20 12 -5 14 42 15 92 2z m2362 -4 c3 -3 -140 -6
-318 -6 -178 0 -319 4 -312 8 14 9 621 7 630 -2z m1273 1 c69 -1 -41 -4 -245
-5 -203 -1 -365 2 -358 6 10 6 289 6 603 -1z m1818 2 c-2 -6 -7 -10 -11 -10
-4 1 -22 1 -39 2 -28 0 -30 2 -13 9 29 12 67 12 63 -1z m-4106 -6 c-51 -2
-132 -2 -180 0 -48 1 -6 3 93 3 99 0 138 -2 87 -3z m2971 0 c-46 -2 -120 -2
-165 0 -46 1 -9 3 82 3 91 0 128 -2 83 -3z"/>
</g>
</svg>
