<?xml version="1.0" standalone="no"?>
<!DOCTYPE svg PUBLIC "-//W3C//DTD SVG 20010904//EN"
 "http://www.w3.org/TR/2001/REC-SVG-20010904/DTD/svg10.dtd">
<svg version="1.0" xmlns="http://www.w3.org/2000/svg"
 width="1032.000000pt" height="1280.000000pt" viewBox="0 0 1032.000000 1280.000000"
 preserveAspectRatio="xMidYMid meet">
<g transform="translate(0.000000,1280.000000) scale(0.100000,-0.100000)"
fill="#000000" stroke="none">
<path d="M5070 12768 c-82 -56 -977 -490 -1342 -652 -347 -153 -829 -332
-1198 -444 -564 -171 -893 -242 -1915 -413 -302 -50 -565 -97 -584 -105 l-34
-14 6 -383 c6 -360 17 -635 52 -1327 33 -648 69 -1265 90 -1540 40 -514 142
-1029 394 -1997 115 -439 408 -1229 619 -1666 166 -344 600 -1073 843 -1419
30 -42 90 -127 134 -189 148 -210 257 -353 370 -484 177 -206 472 -521 591
-630 268 -247 735 -658 969 -853 99 -82 223 -167 416 -285 69 -42 157 -99 195
-127 68 -50 365 -207 435 -229 33 -11 45 -9 115 19 139 56 313 148 458 243 77
52 170 111 206 132 246 146 467 323 970 775 345 310 407 370 608 583 367 390
465 510 768 937 761 1071 1251 2105 1573 3315 245 919 349 1510 391 2225 49
841 94 1874 115 2661 l7 246 -24 7 c-118 33 -205 50 -403 81 -242 37 -733 122
-1045 181 -816 154 -1635 419 -2455 794 -424 194 -1132 546 -1169 581 -6 5
-33 9 -60 8 -39 0 -61 -8 -96 -31z"/>
</g>
</svg>
