<?xml version="1.0" standalone="no"?>
<!DOCTYPE svg PUBLIC "-//W3C//DTD SVG 20010904//EN"
 "http://www.w3.org/TR/2001/REC-SVG-20010904/DTD/svg10.dtd">
<svg version="1.0" xmlns="http://www.w3.org/2000/svg"
 width="1280.000000pt" height="1277.000000pt" viewBox="0 0 1280.000000 1277.000000"
 preserveAspectRatio="xMidYMid meet">
<g transform="translate(0.000000,1277.000000) scale(0.100000,-0.100000)"
fill="#000000" stroke="none">
<path d="M7795 12688 c-232 -101 -627 -263 -960 -393 -915 -356 -1563 -551
-1855 -557 -80 -1 -299 10 -310 17 -4 2 -58 75 -120 162 -62 87 -125 172 -140
188 -15 17 -112 148 -215 293 -190 266 -206 283 -254 267 -27 -8 -411 -280
-433 -307 -38 -43 -27 -64 171 -341 104 -146 197 -279 205 -296 9 -16 63 -96
121 -176 58 -81 102 -151 99 -157 -9 -15 -262 -134 -406 -192 -1196 -481
-2275 -358 -3403 386 -55 36 -134 89 -175 117 -77 54 -117 63 -112 26 129
-968 358 -1747 734 -2499 595 -1189 1534 -2207 2803 -3038 316 -208 753 -462
783 -456 20 4 20 -1 0 333 -8 121 -13 425 -13 715 0 532 7 647 56 965 87 568
293 1068 606 1470 163 209 383 429 407 405 6 -6 47 -60 91 -120 44 -60 114
-156 156 -212 68 -93 1262 -1759 5197 -7258 1470 -2053 1424 -1990 1451 -2014
13 -11 27 -15 40 -11 42 13 442 306 461 338 18 29 18 33 3 57 -9 14 -464 650
-1012 1415 -547 765 -1288 1800 -1646 2300 -899 1256 -2451 3424 -3300 4610
-390 545 -719 1008 -730 1030 -12 22 -79 120 -148 217 -70 97 -127 184 -127
193 0 9 8 32 19 53 10 20 26 62 36 92 104 323 764 1099 1803 2121 173 169 311
313 307 318 -10 17 -20 14 -190 -61z"/>
</g>
</svg>
