<?xml version="1.0" standalone="no"?>
<!DOCTYPE svg PUBLIC "-//W3C//DTD SVG 20010904//EN"
 "http://www.w3.org/TR/2001/REC-SVG-20010904/DTD/svg10.dtd">
<svg version="1.0" xmlns="http://www.w3.org/2000/svg"
 width="1280.000000pt" height="1057.000000pt" viewBox="0 0 1280.000000 1057.000000"
 preserveAspectRatio="xMidYMid meet">
<g transform="translate(0.000000,1057.000000) scale(0.100000,-0.100000)"
fill="#000000" stroke="none">
<path d="M425 10514 c-282 -632 -441 -1368 -422 -1964 17 -529 144 -963 395
-1345 105 -161 182 -256 326 -404 421 -430 1008 -774 1728 -1011 170 -56 404
-117 413 -108 3 3 0 155 -8 337 -13 300 -16 333 -32 345 -16 12 -20 37 -28
197 l-10 184 -81 25 c-177 53 -357 161 -473 284 -198 208 -258 413 -173 594
32 68 117 165 188 214 42 29 1057 528 1074 528 8 0 452 -880 446 -885 -2 -1
-57 -30 -123 -63 -237 -118 -437 -197 -590 -232 l-69 -16 2 -49 c5 -82 41
-464 68 -705 176 -1609 459 -2802 781 -3305 96 -149 365 -477 611 -745 302
-329 564 -588 910 -899 100 -90 182 -166 182 -168 0 -2 -32 -67 -71 -144 -266
-531 -439 -977 -427 -1100 2 -28 10 -37 38 -51 70 -34 91 -33 133 7 75 73 180
234 336 514 98 175 264 493 273 521 3 10 51 -23 159 -111 153 -124 346 -275
405 -316 l31 -22 144 111 c121 93 360 284 421 336 15 13 22 3 79 -109 245
-490 499 -904 582 -948 21 -11 33 -11 76 4 80 26 85 48 47 196 -45 178 -148
427 -348 846 l-130 271 43 39 c484 429 929 874 1254 1253 315 367 444 551 543
776 271 615 490 1655 647 3064 30 272 65 651 65 699 l0 36 -98 24 c-130 31
-310 102 -520 205 l-172 85 221 443 c122 244 222 444 223 445 6 7 1059 -515
1098 -543 112 -83 188 -195 209 -309 26 -143 -52 -332 -205 -494 -107 -113
-311 -234 -477 -282 -55 -16 -79 -27 -79 -38 0 -9 -7 -94 -14 -189 -11 -126
-19 -177 -29 -185 -12 -10 -17 -78 -27 -355 -7 -189 -10 -345 -8 -348 7 -6
307 79 453 129 542 186 1031 447 1405 751 41 33 131 115 199 181 430 417 663
872 753 1470 19 129 22 190 22 445 0 287 -2 322 -40 590 -58 406 -205 907
-384 1303 -20 44 -23 47 -38 34 -40 -35 -423 -376 -589 -525 l-181 -163 30
-71 c144 -341 106 -710 -95 -925 -106 -113 -198 -149 -361 -140 -65 3 -121 12
-156 25 -48 18 -1038 497 -1049 508 -3 2 8 31 24 64 16 33 27 62 24 64 -10 11
-441 218 -444 214 -2 -2 -16 -30 -30 -61 -13 -31 -28 -57 -32 -57 -22 0 -772
375 -796 398 -40 38 -96 158 -104 220 -8 67 19 167 58 222 16 22 27 40 24 40
-4 0 -308 -80 -585 -154 -52 -14 -247 -66 -433 -115 -187 -49 -341 -92 -344
-94 -2 -3 66 -171 152 -374 87 -202 211 -495 277 -651 l121 -282 38 79 c65
133 167 204 314 218 l62 6 219 -107 c120 -59 299 -146 397 -193 98 -48 176
-90 175 -94 -2 -4 -97 -199 -213 -433 -159 -323 -214 -425 -226 -422 -23 5
-536 314 -819 494 -330 210 -832 541 -1127 745 -134 92 -245 167 -249 167 -3
0 -90 -58 -193 -129 -243 -168 -764 -514 -1016 -676 -403 -259 -972 -605 -994
-605 -8 0 -435 860 -429 865 2 2 179 90 393 195 l390 191 67 -5 c167 -15 286
-112 342 -280 4 -10 8 -17 10 -15 2 2 88 202 191 444 103 242 227 534 276 649
49 115 88 211 85 213 -3 4 -67 21 -316 87 -74 19 -339 89 -588 156 -249 66
-456 120 -458 120 -3 0 4 -13 16 -30 45 -63 63 -122 64 -202 0 -68 -4 -85 -36
-150 -20 -40 -49 -85 -65 -100 -32 -30 -789 -402 -803 -393 -4 3 -18 30 -31
60 -12 30 -26 55 -31 55 -20 0 -438 -216 -438 -226 0 -7 11 -36 25 -66 l25
-53 -103 -50 c-709 -347 -941 -457 -997 -471 -47 -12 -93 -15 -165 -12 -87 4
-109 9 -169 37 -97 47 -174 128 -231 244 -69 140 -80 195 -79 377 0 133 4 168
26 250 14 52 39 125 56 162 l30 67 -126 108 c-70 59 -143 124 -162 144 -19 20
-138 123 -265 229 -126 106 -238 200 -247 208 -16 13 -19 9 -43 -44z"/>
</g>
</svg>
