<?xml version="1.0" standalone="no"?>
<!DOCTYPE svg PUBLIC "-//W3C//DTD SVG 20010904//EN"
 "http://www.w3.org/TR/2001/REC-SVG-20010904/DTD/svg10.dtd">
<svg version="1.0" xmlns="http://www.w3.org/2000/svg"
 width="1030.000000pt" height="1280.000000pt" viewBox="0 0 1030.000000 1280.000000"
 preserveAspectRatio="xMidYMid meet">
<g transform="translate(0.000000,1280.000000) scale(0.100000,-0.100000)"
fill="#000000" stroke="none">
<path d="M8135 12239 c-60 -33 -121 -71 -135 -83 -14 -13 -70 -53 -125 -91
-54 -37 -133 -96 -175 -130 -155 -127 -241 -171 -385 -194 -72 -11 -171 -35
-205 -49 -51 -20 -316 -233 -328 -264 -2 -4 -16 -8 -31 -8 -24 0 -31 8 -56 60
-42 87 -147 178 -239 205 -76 23 -250 21 -315 -4 -95 -36 -227 -145 -276 -229
-11 -17 -22 -32 -26 -32 -3 0 -18 17 -31 38 -26 38 -73 71 -85 59 -3 -4 3 -24
15 -45 27 -49 42 -142 42 -271 0 -128 24 -293 54 -377 31 -85 102 -207 153
-264 28 -31 79 -68 145 -105 136 -76 199 -124 237 -180 17 -25 31 -48 31 -51
0 -2 -10 -4 -22 -4 -26 0 -39 7 -128 67 -65 44 -208 96 -293 108 -70 9 -231
-13 -322 -44 -76 -26 -89 -28 -206 -23 -128 5 -209 -9 -324 -54 -30 -12 -72
-16 -167 -15 -84 1 -150 -4 -194 -14 -37 -8 -68 -14 -69 -13 -7 9 -26 143 -40
271 -15 142 -48 347 -61 381 -6 16 16 23 30 9 14 -14 143 -42 191 -42 l50 1
-57 9 c-94 14 -193 79 -288 190 -94 110 -326 363 -367 400 -21 20 -74 55 -118
79 l-78 43 -141 -6 c-151 -7 -157 -6 -208 45 -10 10 -27 18 -37 18 -26 0 -177
144 -202 191 -10 21 -19 55 -19 75 0 38 -27 71 -103 128 -52 38 -301 164 -339
171 -42 8 -110 -11 -195 -54 -90 -45 -160 -70 -182 -64 -36 9 -151 -220 -151
-301 0 -12 -14 -57 -31 -101 -45 -116 -59 -170 -64 -258 -5 -86 -1 -98 90
-253 25 -41 47 -85 49 -97 13 -67 28 -122 40 -146 15 -29 9 -55 -25 -102 -11
-16 -45 -85 -74 -154 -55 -127 -135 -419 -150 -547 -8 -61 -20 -73 -34 -35 -5
13 -16 29 -25 36 -9 7 -16 17 -16 21 0 14 -114 217 -169 300 -31 47 -62 98
-69 114 -7 15 -17 95 -22 178 -13 196 -45 298 -128 407 -130 168 -171 226
-179 254 -4 17 -16 35 -26 41 -14 9 -24 4 -56 -32 -21 -23 -45 -42 -54 -42
-36 0 -301 202 -311 237 -16 60 -16 83 0 108 25 39 11 40 -52 6 -64 -35 -75
-33 -120 25 -52 64 -139 94 -166 56 -7 -10 -42 -38 -78 -62 -36 -24 -92 -66
-125 -93 -77 -63 -253 -236 -268 -262 -6 -11 -14 -77 -17 -147 -5 -100 -10
-131 -23 -146 -18 -20 -23 -78 -8 -101 5 -7 33 -22 62 -33 127 -47 124 -46
121 -68 -1 -12 -12 -35 -23 -52 -12 -16 -19 -31 -17 -33 2 -2 25 2 52 10 61
19 80 11 201 -80 136 -102 239 -148 399 -180 123 -24 178 -15 278 42 l78 46
42 -40 c73 -67 174 -101 301 -103 l28 0 -21 30 c-23 32 -83 68 -188 110 -66
27 -122 71 -122 96 0 18 27 18 37 0 8 -15 114 -68 121 -61 2 2 -12 30 -32 62
-37 61 -47 113 -22 113 22 0 106 -90 177 -188 103 -143 133 -190 226 -352 137
-239 141 -258 44 -208 -44 23 -78 32 -129 36 -128 9 -307 -30 -364 -79 -19
-16 -13 -15 37 7 55 23 73 26 205 27 137 2 148 1 201 -24 118 -56 169 -139
181 -299 14 -203 27 -444 24 -447 -2 -2 -44 22 -93 55 -50 32 -112 65 -139 72
-68 18 -67 18 -42 53 41 57 48 78 48 144 0 127 -42 196 -140 228 -90 30 -170
8 -210 -58 -32 -52 -25 -177 10 -177 3 0 6 37 5 81 0 77 1 83 27 102 17 12 48
22 80 24 46 4 59 1 99 -26 54 -37 74 -72 88 -160 10 -63 10 -64 -21 -104 -45
-56 -83 -69 -223 -74 l-120 -5 -48 37 c-26 21 -50 36 -52 33 -3 -3 13 -23 36
-46 23 -22 39 -44 36 -50 -4 -5 -44 -23 -89 -41 -46 -18 -106 -49 -134 -69
-28 -20 -73 -53 -99 -72 -71 -51 -244 -227 -320 -325 -21 -27 -52 -64 -68 -81
l-29 -32 49 -6 c110 -15 163 -32 343 -113 124 -56 234 -94 314 -108 117 -20
281 -20 343 1 87 29 307 142 357 183 26 23 54 41 61 41 8 0 35 -67 70 -177
108 -335 156 -451 247 -596 l31 -48 -56 -52 c-102 -95 -127 -201 -73 -312 65
-131 317 -343 531 -445 47 -22 85 -43 85 -46 0 -14 -62 -125 -86 -154 -15 -18
-64 -56 -108 -86 -159 -105 -326 -249 -326 -280 0 -6 -8 -18 -17 -25 -25 -21
-89 -165 -112 -253 -12 -44 -21 -110 -21 -146 0 -76 28 -198 60 -261 60 -117
272 -279 366 -279 41 0 41 -4 8 -90 -12 -31 -19 -85 -22 -172 -4 -111 -2 -136
18 -200 32 -104 74 -180 137 -246 16 -16 17 -1 -7 -108 -50 -228 -2 -411 145
-555 90 -88 240 -187 338 -223 42 -15 77 -31 77 -35 0 -16 -33 -51 -48 -51
-10 0 -23 -9 -30 -20 -7 -11 -19 -20 -27 -20 -8 0 -19 -9 -25 -20 -6 -11 -19
-20 -30 -20 -10 0 -22 -9 -25 -20 -3 -11 -11 -20 -17 -20 -6 0 -30 -16 -54
-35 -23 -19 -49 -35 -58 -35 -8 0 -18 -4 -21 -10 -13 -20 -22 -8 -70 90 -50
105 -80 140 -150 171 -70 32 -119 25 -297 -43 -372 -140 -574 -217 -823 -315
-77 -30 -180 -70 -230 -89 -223 -82 -321 -124 -352 -148 -41 -34 -63 -84 -63
-148 0 -43 20 -90 164 -386 l164 -337 69 -60 c260 -226 449 -382 481 -397 51
-24 143 -23 190 1 62 32 1124 1126 1155 1189 25 51 18 129 -15 179 -14 21 -64
70 -111 108 -47 39 -86 76 -86 83 -1 7 -5 11 -10 7 -5 -3 -13 -1 -16 5 -4 7 7
11 32 11 96 -1 94 -1 88 19 -7 22 29 38 49 21 14 -12 46 -5 46 10 0 5 15 15
34 23 18 8 36 19 40 24 4 6 22 8 41 5 22 -4 35 -2 35 5 0 6 16 14 35 18 25 4
35 12 35 25 0 25 19 34 33 16 8 -10 20 -12 37 -7 14 5 19 8 13 9 -26 2 -12 18
27 30 28 8 38 16 34 26 -4 9 0 15 8 15 8 0 24 9 37 21 19 18 45 23 188 35 187
16 172 19 258 -58 120 -108 212 -148 359 -156 l98 -5 29 -61 c46 -98 41 -106
-66 -106 -71 0 -130 -11 -251 -45 -121 -35 -145 -47 -217 -113 -119 -107 -171
-177 -242 -327 -37 -77 -84 -176 -106 -220 -21 -44 -59 -104 -85 -133 -25 -29
-45 -54 -43 -56 2 -1 33 -7 69 -14 36 -6 117 -21 180 -33 95 -18 148 -22 305
-22 183 1 194 2 283 31 50 16 94 26 97 22 3 -5 3 -31 0 -59 -7 -69 12 -74 21
-5 7 61 26 84 142 171 65 48 100 58 163 46 38 -8 49 -16 83 -66 87 -125 49
-268 -75 -284 -36 -5 -44 -2 -75 28 -20 19 -42 46 -50 62 -17 32 -34 35 -34 7
0 -27 67 -100 107 -117 74 -31 151 1 195 82 48 87 33 162 -50 262 -26 30 -51
48 -96 64 -34 12 -62 23 -64 25 -2 1 11 24 27 51 28 45 70 181 71 226 0 9 4
17 9 17 4 0 54 -60 110 -132 56 -73 126 -164 156 -203 71 -90 96 -141 102
-213 8 -90 -16 -159 -81 -229 -70 -76 -177 -149 -246 -167 -31 -8 -44 -15 -30
-15 143 -3 373 169 404 302 4 15 11 27 16 27 12 0 34 -51 48 -115 6 -27 25
-108 41 -180 32 -139 71 -422 71 -510 0 -30 -5 -66 -10 -81 -11 -27 -11 -27
-30 -8 -11 11 -25 46 -31 79 -7 33 -15 64 -20 69 -10 12 -42 -51 -48 -99 -7
-50 -25 -52 -29 -4 -3 37 0 46 62 207 34 87 40 142 16 142 -14 0 -110 -113
-131 -153 -11 -21 -23 -67 -26 -103 -7 -76 -12 -80 -103 -89 -38 -4 -76 -15
-92 -26 -15 -10 -31 -19 -36 -19 -22 0 -126 -140 -174 -235 -45 -88 -63 -145
-83 -265 -18 -110 -33 -136 -86 -159 -21 -9 -39 -19 -39 -22 0 -4 20 -14 45
-23 25 -10 45 -22 45 -27 0 -6 -18 -46 -40 -89 -38 -76 -39 -81 -25 -114 10
-24 25 -38 56 -50 27 -11 72 -48 128 -106 62 -63 97 -92 126 -101 28 -9 125
-13 330 -13 l289 -1 23 40 c19 32 23 53 21 108 -2 74 5 87 54 87 37 0 80 18
73 30 -3 5 -16 10 -29 10 -34 0 -66 64 -65 131 1 122 37 294 67 317 12 9 34
10 76 6 58 -7 59 -7 53 17 -3 13 -12 43 -21 66 -9 25 -19 103 -25 195 -9 159
-17 191 -77 311 -27 54 -88 140 -135 192 -41 44 -89 142 -89 180 0 38 -30 190
-64 325 -29 115 -39 170 -30 170 3 0 31 -23 62 -51 149 -136 455 -326 611
-380 63 -22 81 -35 81 -59 0 -10 18 -52 39 -92 22 -41 43 -92 46 -114 4 -21
18 -82 31 -134 22 -88 28 -98 76 -148 56 -56 107 -92 223 -157 39 -21 71 -42
73 -46 5 -11 92 -74 132 -94 80 -41 190 -67 190 -45 0 14 34 26 155 57 55 13
104 29 110 34 5 5 17 9 26 9 29 0 66 59 105 166 59 162 71 205 79 277 7 65 6
70 -19 96 -40 42 -53 119 -39 232 7 50 16 96 21 102 5 7 14 40 21 74 l12 62
-133 154 -133 154 -85 26 c-47 14 -86 22 -88 16 -2 -5 -31 -9 -65 -9 -34 0
-94 -7 -132 -16 -39 -9 -111 -19 -161 -22 l-90 -7 -75 -64 c-158 -135 -249
-232 -280 -298 -16 -34 -38 -67 -50 -73 -61 -33 -339 131 -609 360 -36 30 -73
61 -83 70 -40 33 -228 251 -307 355 -168 222 -456 692 -436 712 10 10 141 55
186 64 108 21 221 38 292 44 l77 7 104 -55 c167 -89 306 -119 452 -97 44 7
101 21 128 31 26 10 61 19 77 19 17 0 30 5 31 13 0 20 114 97 143 97 28 0 40
-11 96 -84 42 -55 89 -95 190 -159 104 -66 209 -104 337 -122 263 -38 451 -24
588 45 154 77 250 131 253 140 6 16 -69 15 -100 -1 -10 -5 -83 -23 -162 -39
-135 -28 -152 -29 -243 -20 -145 15 -199 28 -291 72 -132 63 -197 105 -252
166 -108 118 -126 145 -108 159 21 16 135 43 180 43 48 0 74 12 64 29 -10 15
-75 14 -176 -4 -47 -8 -92 -16 -102 -17 -9 -2 -27 12 -42 32 -34 48 -126 200
-126 210 0 4 -7 13 -15 20 -45 37 22 40 121 6 92 -32 218 -87 312 -136 42 -22
124 -61 182 -86 241 -106 364 -134 592 -134 193 0 272 14 423 77 61 25 138 57
173 71 34 14 62 29 62 34 0 15 -85 8 -190 -16 -58 -13 -169 -29 -247 -36 -239
-22 -414 10 -688 125 -88 36 -173 73 -190 82 -16 8 -57 25 -90 38 -33 13 -97
39 -143 58 -46 20 -96 39 -112 42 -32 7 -37 17 -17 32 17 13 173 73 189 73 8
0 92 -41 188 -91 199 -104 304 -144 440 -164 199 -31 299 -18 558 70 176 59
256 96 266 120 10 26 -20 29 -102 10 -42 -9 -95 -21 -117 -26 -103 -24 -192
-31 -330 -26 -170 5 -266 26 -448 98 -95 37 -216 105 -217 121 0 12 86 46 225
90 71 22 144 47 160 54 17 7 98 29 181 48 141 34 162 36 310 36 107 0 198 -7
279 -20 66 -10 161 -26 210 -34 50 -8 149 -17 221 -20 106 -5 134 -3 150 9 29
22 6 31 -95 38 -48 4 -194 25 -325 47 -289 49 -523 68 -646 52 -123 -17 -368
-82 -495 -132 -60 -24 -148 -51 -195 -60 -47 -10 -89 -19 -95 -20 -26 -6 -47
3 -81 32 l-36 32 88 26 c49 15 105 34 125 43 37 16 115 84 229 197 59 59 142
129 222 188 l32 22 30 -29 c37 -34 86 -60 104 -54 23 9 12 35 -35 79 l-48 44
25 21 c62 54 227 109 326 109 126 0 326 -88 466 -206 110 -93 312 -186 462
-213 173 -32 456 12 456 71 0 17 -4 18 -47 11 -169 -29 -447 40 -570 140 -99
81 -196 162 -257 215 -108 95 -239 156 -403 188 -213 40 -410 -15 -567 -160
-21 -20 -41 -36 -45 -36 -3 1 -26 19 -51 41 l-45 41 33 28 c105 87 134 100
264 119 100 15 136 25 195 55 40 20 110 50 155 68 77 30 92 32 203 31 l120 0
90 -42 c49 -24 166 -89 260 -146 210 -127 245 -144 370 -186 94 -31 108 -33
242 -34 101 0 146 4 154 13 27 26 -8 37 -144 43 -115 5 -143 10 -220 38 -48
17 -101 40 -116 49 -47 28 -198 125 -249 159 -138 94 -257 140 -404 155 -135
15 -227 2 -347 -48 -210 -87 -307 -111 -318 -78 -2 6 29 34 69 62 40 28 105
73 143 101 240 172 541 301 705 301 30 0 110 -7 175 -15 113 -14 127 -19 240
-75 176 -88 262 -113 352 -105 70 6 102 23 88 45 -3 5 -28 10 -55 10 -54 0
-224 50 -279 81 -18 11 -54 37 -80 58 -91 76 -207 124 -375 156 -95 18 -141
16 -275 -11 -101 -21 -253 -70 -321 -104 -166 -82 -201 -102 -257 -146 -166
-133 -265 -209 -276 -214 -25 -11 -135 -90 -139 -100 -6 -18 -79 -30 -143 -24
-87 8 -196 51 -273 109 -75 56 -90 85 -45 85 15 0 84 -11 153 -25 170 -33 312
-34 392 -1 139 57 208 144 208 260 -1 81 -25 132 -100 210 -59 62 -60 64 -60
120 0 83 25 190 81 350 55 159 134 428 154 526 22 110 66 304 69 308 2 1 32
-14 67 -35 35 -20 116 -58 179 -84 92 -38 114 -51 112 -66 -6 -44 -1 -179 8
-213 5 -20 20 -45 31 -56 12 -10 47 -50 78 -89 92 -116 188 -195 236 -195 21
0 199 -73 278 -114 117 -61 233 -77 292 -41 39 25 92 35 225 44 171 12 241 25
297 56 24 14 49 25 57 25 23 0 242 183 292 245 86 104 94 119 94 173 0 35 -8
65 -28 103 -57 108 -135 245 -158 276 -13 17 -24 34 -24 37 0 3 -17 32 -39 65
-46 72 -71 169 -71 280 0 116 -16 153 -132 308 -162 217 -242 291 -379 348
l-63 27 -138 -17 c-76 -9 -169 -15 -206 -14 -57 2 -76 -3 -127 -29 -90 -45
-225 -197 -225 -252 0 -11 -17 -38 -37 -59 -129 -130 -280 -340 -289 -404 -5
-32 11 -309 22 -381 6 -36 5 -38 -17 -32 -65 18 -314 166 -322 190 -1 6 0 121
4 256 8 265 4 314 -46 530 -41 178 -41 170 -2 231 19 30 37 64 41 77 12 36 31
25 45 -25 16 -57 60 -143 73 -143 5 0 6 10 1 23 -4 12 -8 72 -8 132 0 132 32
261 103 420 24 55 53 125 63 154 34 98 31 96 171 109 67 6 175 13 238 14 l114
3 66 -126 c131 -251 217 -331 463 -430 66 -27 131 -56 143 -64 13 -8 28 -15
34 -15 6 0 10 45 10 123 0 69 9 178 20 252 11 72 23 198 26 280 8 173 1 206
-70 334 -55 99 -101 149 -179 194 -79 47 -100 68 -95 99 4 31 42 27 75 -8 33
-36 95 -61 222 -89 122 -27 137 -33 166 -65 11 -12 47 -36 80 -53 l60 -32 -50
-5 c-43 -4 -50 -8 -47 -25 13 -71 175 -175 275 -175 42 0 28 -24 -18 -30 -45
-6 -39 -13 43 -54 63 -32 69 -51 12 -41 -38 6 -55 -5 -30 -20 15 -9 12 -25 -4
-25 -8 0 -29 18 -46 40 -18 22 -53 54 -79 72 -57 39 -141 118 -141 135 0 6 -5
15 -10 18 -21 13 2 -81 31 -123 46 -68 35 -84 -25 -32 -18 17 -36 42 -39 58
-3 15 -10 56 -17 92 -6 36 -22 82 -36 103 -43 65 -54 48 -54 -89 0 -81 4 -102
25 -145 71 -139 192 -188 464 -189 70 0 140 6 180 16 101 24 99 22 60 53 -22
18 -58 72 -94 141 -70 131 -162 238 -237 276 -27 14 -81 32 -121 41 -108 24
-109 25 -36 72 72 46 127 112 140 168 13 58 11 184 -5 237 -24 79 -71 143
-121 162 -72 27 -187 4 -242 -49 -31 -29 -33 -35 -33 -98 0 -37 4 -79 10 -93
14 -37 100 -76 100 -46 0 6 -11 10 -25 10 -19 0 -26 7 -34 38 -6 20 -11 60
-11 89 0 74 26 93 129 93 87 0 128 -18 162 -72 18 -28 20 -44 15 -110 -8 -117
-61 -209 -144 -250 -39 -19 -62 -23 -142 -22 -83 0 -102 4 -148 27 -67 35
-126 88 -159 144 -28 48 -28 40 11 215 28 126 35 282 15 335 -5 15 -23 42 -39
58 -47 49 -70 116 -70 203 0 137 -17 253 -41 285 -29 40 -41 83 -25 96 7 6 71
12 142 13 78 2 129 7 128 13 -1 23 -68 55 -113 55 -36 1 -42 3 -28 11 25 15
21 31 -15 66 -55 52 -109 83 -144 83 -37 0 -55 17 -27 27 10 3 25 12 35 20 15
13 24 7 90 -55 78 -74 105 -92 137 -92 12 0 21 -6 21 -13 0 -16 62 -77 78 -77
7 0 12 13 12 28 0 15 4 32 10 38 16 16 -9 144 -43 212 -39 80 -110 146 -180
167 -70 21 -338 66 -350 58 -6 -3 -7 -48 -2 -114 4 -60 4 -109 0 -109 -16 0
-75 37 -120 75 -68 58 -282 205 -297 205 -7 0 -62 -28 -123 -61z m-1648 -638
c95 -43 183 -159 183 -241 0 -27 -9 -45 -38 -76 -20 -23 -44 -54 -52 -69 -8
-16 -30 -44 -47 -63 -33 -34 -33 -34 -100 -28 -57 6 -72 12 -90 34 -33 39 -32
110 2 146 13 14 29 26 35 26 28 0 81 -32 92 -54 6 -15 15 -26 20 -26 13 0 9
38 -7 70 -36 69 -112 81 -171 28 -61 -57 -65 -150 -10 -223 15 -19 53 -47 91
-66 l64 -31 -1 -112 c-1 -82 4 -133 20 -196 11 -47 24 -110 27 -140 l6 -55
-50 55 c-28 30 -58 70 -66 88 -8 17 -20 32 -27 32 -13 0 -49 -68 -63 -117 -3
-13 -12 -23 -19 -23 -8 0 -65 39 -127 88 -144 110 -163 141 -154 252 6 60 12
83 36 117 16 23 29 44 29 47 0 3 -16 6 -35 6 -26 0 -45 -9 -75 -36 -50 -46
-54 -38 -47 99 4 88 9 114 42 195 40 101 106 189 173 230 99 60 274 81 359 43z
m-2577 -237 c41 -19 92 -51 112 -71 30 -29 46 -37 88 -41 58 -5 78 -22 27 -22
-18 0 -36 -3 -39 -6 -7 -7 50 -94 62 -94 13 0 22 -32 12 -42 -6 -6 -28 15 -56
51 -41 52 -72 81 -89 81 -3 0 -8 -16 -11 -36 -6 -30 -9 -34 -22 -23 -8 7 -27
37 -42 66 -29 61 -67 97 -129 125 -46 20 -58 32 -47 49 8 14 43 5 134 -37z
m468 -270 c76 -106 99 -149 143 -269 l34 -90 0 -225 c0 -192 -3 -233 -18 -277
l-18 -53 -121 -62 c-128 -66 -260 -169 -430 -336 l-87 -85 -93 6 c-162 11
-355 78 -446 155 -37 31 -64 65 -88 113 -55 110 -67 179 -62 361 5 157 5 157
41 230 57 116 91 155 167 193 77 39 157 61 250 71 59 6 73 3 140 -25 150 -62
228 -150 250 -281 12 -70 9 -207 -5 -247 -11 -33 11 -29 28 5 9 17 14 71 16
148 2 102 -1 131 -20 185 -27 80 -60 116 -174 191 l-90 59 -140 -3 c-132 -4
-144 -5 -207 -35 -94 -44 -168 -117 -226 -222 -92 -169 -109 -263 -77 -445 23
-130 73 -212 191 -315 51 -45 97 -81 102 -81 5 0 19 -11 32 -25 22 -24 22 -25
4 -25 -40 0 -181 -77 -209 -114 -15 -19 -35 -38 -46 -41 -20 -7 -26 -25 -8
-25 6 0 30 -14 54 -30 25 -17 73 -44 107 -61 54 -25 70 -29 113 -23 78 9 126
43 164 114 31 57 36 94 8 57 -14 -20 -77 -67 -89 -67 -4 0 -7 5 -6 12 2 7 -30
17 -89 26 -51 8 -90 18 -88 22 2 4 29 10 59 14 30 3 67 11 83 17 15 6 50 11
76 9 35 -1 52 3 61 15 7 10 33 18 69 22 54 5 57 5 57 -16 0 -12 -7 -24 -15
-27 -8 -4 -32 -36 -52 -73 -20 -36 -53 -86 -74 -111 -38 -47 -129 -183 -129
-193 0 -4 -13 -28 -29 -54 -28 -46 -271 -641 -316 -773 l-22 -65 -119 -5
c-147 -7 -192 -26 -280 -117 l-61 -63 -62 113 c-57 106 -61 118 -61 179 0 61
3 69 40 116 22 27 57 61 78 73 l37 24 -36 3 c-24 2 -52 -5 -84 -22 -26 -15
-54 -26 -61 -26 -7 0 -24 -12 -38 -27 -14 -15 -27 -25 -29 -23 -11 16 -80 240
-96 316 -32 144 -68 366 -87 534 -25 217 -25 569 0 705 46 254 124 525 179
615 41 67 70 81 124 57 102 -45 95 -44 380 -51 194 -5 219 1 272 58 13 14 63
44 110 68 47 23 108 61 135 85 27 24 55 42 62 39 7 -3 32 25 58 65 25 38 52
69 60 69 7 0 21 -9 32 -21 34 -38 164 -118 217 -134 29 -9 99 -22 157 -30 116
-17 192 -38 210 -61 7 -7 19 -14 27 -14 13 0 14 15 8 103 -4 56 -13 124 -21
151 -8 27 -14 54 -14 59 0 23 31 -7 88 -89z m242 -863 c0 -21 -26 -36 -36 -20
-6 11 13 39 27 39 5 0 9 -9 9 -19z m4395 -108 c63 -108 57 -123 -19 -48 -34
32 -46 52 -46 73 0 28 7 42 20 42 3 0 24 -30 45 -67z m-2336 15 c22 -21 41
-42 41 -46 0 -5 -9 -17 -20 -27 -20 -18 -21 -18 -48 2 -22 16 -28 29 -30 68
-2 26 1 46 6 44 5 -2 28 -21 51 -41z m2200 -190 c15 -88 88 -232 148 -291 38
-38 43 -47 27 -47 -11 0 -35 14 -54 31 -19 17 -46 41 -59 53 l-23 21 7 -45 c4
-25 17 -80 30 -123 24 -84 21 -103 -10 -56 -28 41 -40 36 -52 -18 -9 -45 -10
-47 -20 -23 -6 16 -7 57 -2 115 8 82 6 97 -16 165 -29 91 -44 242 -25 265 24
29 38 16 49 -47z m-1862 -22 c32 -19 83 -56 114 -83 31 -26 68 -59 84 -72 27
-22 27 -26 22 -89 -4 -35 -9 -67 -12 -70 -3 -3 -71 60 -150 141 -141 144 -144
147 -134 177 6 16 13 30 14 30 2 0 30 -15 62 -34z m379 -275 c5 -4 60 -22 121
-40 122 -34 144 -34 305 4 77 18 111 6 73 -25 -8 -6 -42 -62 -76 -123 -139
-251 -222 -388 -233 -384 -6 2 -31 44 -56 93 -42 84 -64 118 -161 255 l-39 57
15 73 c22 105 26 113 51 90z m-5528 -463 c26 -17 70 -51 98 -75 29 -23 89 -64
134 -90 77 -44 84 -51 96 -93 8 -25 14 -48 14 -51 0 -3 -35 -4 -77 -1 -80 4
-83 4 -243 -57 -63 -24 -119 -29 -102 -8 14 17 211 115 245 122 40 8 32 38
-13 46 -19 4 -62 17 -95 29 -39 14 -93 24 -157 27 -92 6 -99 4 -162 -25 -36
-17 -85 -44 -108 -59 -90 -60 -137 -64 -53 -5 28 20 45 39 45 52 0 22 6 21
-145 21 -103 0 -104 1 -12 34 26 9 47 23 47 30 0 14 -50 35 -81 35 -11 0 -19
5 -19 10 0 14 9 13 81 -11 112 -36 554 -38 566 -3 2 6 -26 31 -62 55 -36 23
-65 44 -65 46 0 10 28 -1 68 -29z m1006 -2400 c-14 -39 -32 -101 -40 -137 -8
-36 -24 -104 -35 -151 -17 -71 -19 -110 -16 -235 6 -177 25 -257 93 -382 l45
-82 -22 -43 c-12 -24 -23 -44 -24 -46 -2 -2 -38 13 -80 34 -136 66 -228 169
-277 307 -33 95 -37 197 -13 292 31 118 214 384 325 470 30 24 58 44 62 44 3
1 -5 -31 -18 -71z m226 -283 c29 -15 30 -17 30 -96 0 -49 -5 -90 -14 -107 -8
-15 -26 -63 -41 -107 -14 -44 -30 -84 -35 -88 -11 -12 -24 192 -17 277 12 142
19 151 77 121z m216 -387 c16 -30 19 -99 5 -113 -12 -15 -71 -183 -71 -206 0
-27 -22 -24 -53 9 -33 35 -33 48 -2 141 14 41 28 109 31 150 8 107 9 109 45
75 17 -16 37 -41 45 -56z m3153 -158 c6 -28 11 -82 11 -120 0 -63 -2 -70 -19
-70 -23 0 -54 27 -96 84 l-29 38 25 22 c13 11 37 38 53 59 16 20 32 37 36 37
5 0 13 -23 19 -50z m388 -18 c55 -65 123 -100 222 -114 45 -7 81 -15 81 -19 0
-4 -20 -19 -43 -32 -37 -22 -52 -25 -98 -20 -51 5 -164 -7 -201 -22 -17 -7
-18 3 -18 124 0 72 4 131 8 131 5 0 27 -21 49 -48z m-516 -183 c44 -38 91 -75
105 -81 22 -10 24 -16 19 -52 -14 -94 -20 -111 -40 -114 -28 -3 -117 67 -136
108 -20 42 -51 188 -43 201 8 14 11 13 95 -62z m659 -60 c-8 -5 -60 -36 -115
-69 -90 -53 -100 -57 -103 -39 -9 53 93 119 182 118 37 0 47 -3 36 -10z m287
-119 c16 -6 40 -24 52 -41 l22 -29 -53 -58 c-30 -31 -80 -92 -112 -135 -73
-96 -123 -141 -202 -179 -54 -25 -66 -28 -104 -19 -23 5 -53 20 -67 33 -25 23
-62 91 -63 115 0 19 40 51 79 64 20 7 63 31 96 55 160 116 292 204 306 204 9
0 29 -5 46 -10z m-4134 -40 c8 -7 -69 -249 -91 -284 -20 -33 -28 119 -11 210
16 84 23 95 62 87 17 -3 36 -9 40 -13z m84 -138 c-10 -96 -9 -105 11 -141 12
-21 26 -71 32 -110 10 -69 8 -78 -20 -158 -16 -47 -32 -88 -35 -91 -16 -16
-99 99 -130 180 -17 45 -17 51 -1 115 16 66 62 199 95 275 15 35 38 52 52 39
3 -3 1 -52 -4 -109z m2786 38 c44 -82 112 -146 227 -214 73 -43 89 -49 165
-55 89 -9 107 -17 131 -62 28 -54 20 -61 -38 -35 -29 14 -80 31 -113 39 -33 8
-105 32 -160 52 -97 37 -105 38 -250 42 -82 2 -155 6 -162 8 -18 6 135 295
156 295 3 0 23 -31 44 -70z m-4 -465 c106 -8 238 -39 316 -74 37 -17 86 -36
109 -42 57 -15 174 -74 216 -109 l35 -29 -50 -21 c-27 -11 -61 -27 -75 -35
-97 -55 -106 -58 -165 -58 -97 0 -201 41 -282 109 -109 92 -252 226 -258 241
-9 25 4 33 43 28 20 -2 70 -7 111 -10z m-2954 -124 c26 -22 87 -63 136 -92 68
-40 89 -57 89 -74 0 -37 38 -202 52 -225 18 -29 154 -125 223 -156 42 -19 78
-27 150 -31 52 -3 95 -10 95 -14 0 -5 -6 -9 -14 -9 -8 0 -18 -9 -21 -20 -4
-11 -12 -20 -18 -19 -31 4 -46 -3 -52 -21 -4 -11 -15 -20 -27 -20 -11 0 -22
-8 -25 -20 -3 -11 -14 -20 -24 -20 -10 0 -26 -11 -35 -25 -21 -32 -35 -31
-132 3 -118 42 -244 117 -331 199 -134 124 -169 224 -149 423 10 105 21 160
32 160 2 0 25 -18 51 -39z m2677 -187 c80 -82 80 -82 -43 -91 -72 -5 -149 8
-149 26 0 4 16 31 35 61 19 30 35 58 35 62 0 4 5 19 10 34 l11 27 16 -24 c9
-13 47 -56 85 -95z m-527 -170 c72 -5 108 -14 180 -44 120 -50 238 -82 304
-82 99 1 175 14 220 38 53 29 106 32 120 5 43 -80 -413 -206 -674 -186 -128
10 -165 29 -274 139 -50 52 -91 97 -91 102 0 21 55 44 90 39 20 -2 76 -7 125
-11z m-227 -126 c33 -29 58 -55 56 -57 -2 -3 -71 23 -209 81 l-30 12 50 6 c28
4 55 8 62 8 7 1 39 -22 71 -50z m-503 -40 c2 -7 15 -56 30 -108 15 -52 29
-103 32 -112 5 -16 -3 -18 -67 -18 -40 0 -124 -5 -186 -12 -113 -12 -114 -11
-138 11 -25 23 -106 156 -106 172 0 5 21 9 46 9 70 0 251 29 308 49 64 23 76
24 81 9z m1688 -90 c51 -69 98 -159 99 -188 1 -40 -15 -57 -89 -91 -72 -33
-134 -37 -189 -14 -65 27 -258 65 -342 68 -82 2 -106 12 -54 22 15 3 41 10 57
16 17 6 55 17 85 25 56 15 204 95 295 158 66 46 106 47 138 4z m-2218 11 c4
-6 -2 -19 -14 -30 -12 -11 -21 -26 -21 -35 0 -8 -7 -17 -15 -20 -8 -3 -17 -14
-20 -24 -3 -10 -15 -20 -26 -23 -11 -3 -23 -14 -26 -25 -8 -31 -133 -47 -150
-19 -11 17 -13 37 -3 37 5 0 11 -6 13 -12 8 -20 28 13 21 35 -6 19 20 25 31 6
4 -6 16 3 30 21 14 18 26 27 30 21 11 -18 37 -12 42 9 3 11 11 20 19 20 7 0
21 11 30 25 17 26 48 33 59 14z m122 -105 c23 -32 42 -65 43 -71 0 -16 -225
-19 -235 -3 -3 6 2 11 12 12 10 0 23 2 30 2 20 2 26 15 14 29 -9 11 -7 17 6
28 15 12 16 12 10 -3 -3 -10 -3 -18 2 -18 12 0 27 21 36 50 7 22 6 23 -9 11
-14 -11 -16 -11 -16 1 0 21 9 27 38 24 20 -2 38 -19 69 -62z m796 -18 c56 -28
101 -55 99 -61 -3 -11 -94 -12 -135 -1 -15 3 -43 20 -62 38 -63 54 -86 129
-29 91 14 -9 71 -39 127 -67z m-305 -78 c5 -7 30 -59 55 -115 l45 -103 -45 0
c-67 0 -182 29 -244 62 -67 35 -160 125 -138 133 22 8 219 33 270 34 26 1 51
-4 57 -11z m547 -14 c166 -21 205 -27 205 -34 0 -4 -17 -10 -37 -13 -76 -9
-203 -36 -222 -46 -31 -17 -48 -13 -86 20 l-36 32 31 18 c16 10 30 24 30 30 0
8 12 9 38 5 20 -4 55 -9 77 -12z m-1425 -45 c13 -7 13 -8 -2 -9 -9 0 -20 -9
-23 -20 -4 -13 -19 -23 -37 -27 -16 -3 -32 -12 -35 -19 -3 -8 -18 -14 -33 -14
-15 0 -33 -7 -40 -15 -7 -8 -22 -15 -34 -15 -13 0 -33 -11 -46 -25 -23 -25
-58 -35 -44 -14 4 8 -1 9 -17 4 -16 -4 -20 -3 -11 3 8 5 12 18 10 28 -2 15 2
18 25 16 24 -3 28 0 23 16 -7 22 14 35 39 26 19 -8 48 15 41 33 -8 19 11 16
22 -3 7 -13 13 -14 31 -5 12 7 18 17 15 23 -4 6 2 17 12 25 19 14 73 10 104
-8z m1221 -12 c51 -27 80 -50 72 -58 -11 -11 -133 -59 -149 -59 -10 0 -64 99
-64 117 0 3 13 2 28 -2 16 -3 39 -1 53 4 32 13 33 13 60 -2z m899 -32 c60 -9
136 -24 167 -34 l58 -18 -30 -12 c-20 -9 -78 -12 -180 -9 -150 3 -150 3 -208
37 -43 24 -55 36 -45 42 20 13 116 11 238 -6z m-1001 -418 c19 -37 19 -37 -6
-114 -13 -43 -28 -107 -34 -143 -11 -83 -40 -202 -46 -196 -3 3 1 37 8 75 7
39 10 74 6 77 -9 9 -69 -36 -213 -161 -101 -87 -147 -135 -180 -186 -24 -38
-49 -69 -54 -69 -6 0 1 17 15 37 14 21 25 43 25 50 0 17 -39 16 -70 -2 -28
-16 -53 -19 -48 -6 2 5 36 34 76 66 39 31 72 63 72 71 0 21 -45 35 -93 28 -29
-5 -39 -3 -32 4 6 5 57 17 115 26 58 9 124 26 147 37 54 26 145 126 179 196
14 28 32 57 40 64 16 13 19 49 4 49 -6 0 -23 -6 -38 -14 -32 -17 -243 -59
-251 -50 -13 12 39 40 125 68 90 29 183 87 205 129 13 22 22 16 48 -36z"/>
<path d="M4905 11656 c-82 -26 -159 -76 -180 -117 -8 -14 -16 -66 -19 -115 -4
-71 -3 -77 3 -28 11 88 54 159 126 208 57 39 60 40 149 40 89 1 93 0 161 -39
86 -50 133 -113 170 -226 22 -69 24 -86 16 -144 -22 -155 -116 -274 -281 -358
-39 -19 -46 -26 -25 -21 52 10 156 67 207 113 74 66 99 125 118 277 11 88 1
127 -67 257 -44 83 -79 112 -178 143 -83 26 -139 29 -200 10z"/>
<path d="M4911 11468 c-29 -16 -48 -44 -37 -55 4 -4 15 2 23 15 12 16 25 22
55 22 55 0 91 -22 118 -72 19 -37 22 -52 16 -92 -9 -59 -38 -89 -101 -105 -75
-19 -138 -14 -179 14 -20 14 -44 25 -53 25 -14 0 -13 -3 3 -21 31 -34 87 -58
156 -65 53 -5 73 -3 110 14 55 24 72 48 87 121 15 71 2 116 -48 165 -44 43
-107 57 -150 34z"/>
<path d="M4700 11318 c1 -7 8 -24 16 -38 l15 -25 -5 25 c-3 14 -6 31 -6 38 0
6 -4 12 -10 12 -5 0 -10 -6 -10 -12z"/>
<path d="M4883 10853 c20 -2 54 -2 75 0 20 2 3 4 -38 4 -41 0 -58 -2 -37 -4z"/>
<path d="M9501 10621 c0 -14 -8 -33 -18 -43 -15 -17 -15 -18 1 -18 21 0 29 20
23 57 -3 25 -4 25 -6 4z"/>
<path d="M1429 9977 c-54 -65 -68 -100 -75 -183 -7 -81 8 -184 27 -184 5 0 4
12 -2 28 -12 31 -14 145 -4 194 9 41 39 102 72 146 31 41 16 41 -18 -1z"/>
<path d="M4642 2551 c4 -13 18 -16 19 -4 0 4 -5 9 -11 12 -7 2 -11 -2 -8 -8z"/>
<path d="M4670 2512 c-1 -32 54 -114 111 -165 43 -40 78 -62 112 -72 75 -22
116 -18 45 4 -31 10 -71 28 -90 39 -48 30 -132 120 -157 167 -11 22 -20 34
-21 27z"/>
</g>
</svg>
