<?xml version="1.0" standalone="no"?>
<!DOCTYPE svg PUBLIC "-//W3C//DTD SVG 20010904//EN"
 "http://www.w3.org/TR/2001/REC-SVG-20010904/DTD/svg10.dtd">
<svg version="1.0" xmlns="http://www.w3.org/2000/svg"
 width="778.000000pt" height="1280.000000pt" viewBox="0 0 778.000000 1280.000000"
 preserveAspectRatio="xMidYMid meet">
<g transform="translate(0.000000,1280.000000) scale(0.100000,-0.100000)"
fill="#000000" stroke="none">
<path d="M7069 12796 c-3 -3 -54 -12 -114 -21 -209 -30 -647 -117 -855 -169
-98 -24 -444 -134 -606 -192 -1004 -356 -1892 -886 -2779 -1657 -199 -173
-712 -689 -900 -905 -402 -463 -634 -781 -882 -1207 -133 -229 -146 -256 -271
-570 -194 -491 -312 -830 -377 -1085 -27 -106 -114 -532 -145 -716 -100 -580
-159 -1411 -131 -1823 6 -91 16 -242 21 -336 52 -848 222 -1757 543 -2905 69
-246 292 -996 338 -1137 l20 -61 152 50 c84 28 155 54 159 57 4 4 3 22 -2 41
-6 19 -28 111 -50 203 l-40 168 901 1992 c495 1096 919 2026 941 2067 21 41
242 523 489 1070 247 547 1034 2280 1747 3850 1473 3242 1310 2914 1487 2990
160 68 382 171 402 185 17 12 17 15 -2 61 -19 44 -34 61 -46 50z m-689 -471
c0 -14 -1539 -3413 -2940 -6495 -274 -602 -511 -1126 -527 -1165 -22 -49
-1675 -3673 -1786 -3912 -27 -59 -41 -19 -127 372 -194 872 -315 1711 -372
2575 -17 262 -17 1168 0 1395 38 499 102 955 177 1269 13 55 51 214 84 351
105 441 195 726 308 980 56 125 271 530 394 740 444 765 806 1245 1348 1785
644 642 1331 1125 2266 1593 288 144 1128 524 1163 526 6 1 12 -6 12 -14z"/>
<path d="M6315 7848 c-65 -216 -153 -510 -196 -653 -43 -143 -94 -302 -114
-352 -19 -51 -35 -111 -35 -133 0 -22 41 -169 95 -339 52 -165 95 -307 95
-316 0 -24 -69 -155 -81 -155 -6 0 -43 28 -83 62 -83 72 -204 152 -298 199
-38 18 -68 38 -68 44 0 7 41 44 90 84 l90 73 25 82 c13 44 113 392 221 771
108 380 199 696 201 702 5 12 -141 113 -162 113 -5 0 -149 -155 -320 -344
-234 -260 -316 -345 -333 -345 -31 -1 -174 39 -188 53 -6 6 -73 180 -149 386
-76 206 -141 379 -146 384 -8 9 -157 -10 -178 -23 -7 -5 -33 -206 -72 -552
-33 -299 -73 -662 -89 -807 l-29 -263 69 -133 c39 -73 70 -138 70 -144 0 -7
-9 -12 -20 -12 -13 0 -20 -7 -20 -18 0 -10 -13 -58 -30 -106 -16 -48 -48 -153
-71 -234 -22 -81 -168 -554 -323 -1052 l-283 -905 8 -75 c19 -179 27 -138
-245 -1227 -318 -1271 -386 -1548 -386 -1571 0 -26 88 -169 173 -282 193 -255
417 -410 653 -451 122 -21 332 2 454 49 23 9 54 94 344 948 176 517 348 1018
383 1114 36 96 122 344 193 550 180 528 335 966 360 1025 12 28 137 372 276
765 l254 715 -35 30 c-19 17 -35 34 -35 38 0 4 45 79 99 165 l100 157 233 135
c128 74 242 144 254 155 13 11 178 331 368 712 287 574 346 699 346 734 0 37
-5 46 -51 87 -29 26 -55 48 -60 50 -4 2 -151 -104 -326 -236 -175 -131 -327
-244 -338 -249 -15 -8 -41 -4 -105 14 -47 13 -91 30 -98 37 -8 7 -45 205 -90
472 l-77 459 -101 3 -100 3 -119 -393z"/>
</g>
</svg>
