<?xml version="1.0" standalone="no"?>
<!DOCTYPE svg PUBLIC "-//W3C//DTD SVG 20010904//EN"
 "http://www.w3.org/TR/2001/REC-SVG-20010904/DTD/svg10.dtd">
<svg version="1.0" xmlns="http://www.w3.org/2000/svg"
 width="1147.000000pt" height="1280.000000pt" viewBox="0 0 1147.000000 1280.000000"
 preserveAspectRatio="xMidYMid meet">
<g transform="translate(0.000000,1280.000000) scale(0.100000,-0.100000)"
fill="#000000" stroke="none">
<path d="M1575 12789 c-67 -21 -642 -163 -965 -239 -343 -80 -572 -136 -599
-146 -9 -3 6 -26 50 -72 254 -267 800 -853 910 -978 125 -140 327 -381 376
-449 12 -17 24 -28 27 -25 3 3 95 195 204 425 168 354 204 423 229 437 24 15
105 24 429 48 219 17 410 31 423 33 19 2 -27 49 -270 278 -524 491 -755 700
-775 698 -5 0 -22 -5 -39 -10z"/>
<path d="M3279 11686 c-9 -9 -238 -33 -863 -91 -264 -24 -482 -48 -486 -52 -3
-4 -85 -170 -180 -368 -95 -198 -215 -445 -267 -548 l-94 -189 58 -71 c187
-231 598 -699 1087 -1240 223 -247 263 -296 278 -340 9 -29 44 -135 76 -237
33 -102 86 -258 117 -347 l58 -161 361 -157 361 -157 159 -162 c192 -195 389
-408 726 -786 254 -285 397 -442 585 -640 55 -58 144 -157 199 -220 54 -63
198 -223 320 -355 523 -566 701 -798 855 -1115 41 -85 82 -159 90 -164 8 -5
47 -39 87 -77 49 -45 91 -74 126 -87 l53 -20 3 -68 c2 -46 -2 -83 -14 -112 -9
-24 -15 -44 -13 -46 2 -1 24 -8 49 -15 56 -16 105 -52 127 -94 15 -26 17 -54
15 -160 l-2 -127 26 -10 c14 -6 49 -10 79 -10 48 0 56 -3 75 -30 l22 -30 -26
-52 c-48 -96 -36 -129 87 -240 l85 -78 -24 -67 c-13 -38 -24 -89 -24 -115 l0
-47 66 -31 c105 -51 129 -120 80 -227 l-25 -52 21 -26 c12 -15 48 -47 81 -71
109 -79 124 -133 57 -199 -34 -34 -40 -45 -40 -82 0 -42 1 -43 74 -92 92 -63
107 -94 81 -174 -9 -29 -26 -67 -37 -86 -26 -46 -16 -64 74 -131 66 -49 108
-99 108 -128 0 -7 -18 -55 -40 -107 l-40 -95 21 -62 c47 -141 152 -325 270
-473 l52 -64 42 37 c23 20 387 350 809 732 455 413 778 699 796 704 47 14 79
-1 151 -74 91 -91 158 -124 264 -128 145 -6 254 57 316 184 59 119 42 255 -47
373 -53 71 -61 104 -37 148 10 17 157 176 326 352 l308 321 -59 87 c-33 49
-135 189 -227 313 -189 253 -341 478 -404 599 -23 44 -50 85 -61 91 -10 5 -53
10 -95 10 -109 0 -113 4 -114 96 -1 140 -52 202 -176 212 -55 4 -63 7 -56 21
5 9 10 59 13 112 3 88 2 96 -14 91 -34 -8 -108 9 -136 33 -16 14 -40 53 -55
92 -15 38 -41 86 -59 107 -18 22 -32 51 -33 65 0 22 -4 26 -25 23 -103 -10
-140 -7 -161 15 -21 21 -22 22 -4 65 23 59 23 122 -1 149 -28 31 -61 46 -155
70 -46 11 -88 25 -92 29 -5 4 -2 18 6 31 29 46 40 98 28 128 -15 34 -47 53
-136 80 -115 34 -142 74 -106 157 17 37 19 49 9 56 -28 18 -114 38 -163 38
l-51 0 -35 83 c-23 56 -34 99 -35 134 0 29 -4 56 -8 60 -4 4 -51 10 -106 13
-55 3 -101 8 -104 11 -2 2 2 29 10 59 16 61 7 105 -25 134 -10 9 -56 36 -102
59 -109 55 -133 88 -124 169 l6 56 -53 17 c-176 58 -259 143 -245 250 l6 43
-75 11 c-141 21 -177 52 -157 134 6 23 14 50 17 59 6 13 -2 22 -34 38 -37 19
-52 21 -112 15 -45 -5 -78 -3 -97 5 -29 12 -29 12 -36 128 -3 64 -7 121 -9
126 -1 5 -34 8 -72 7 -91 -3 -195 21 -265 62 -38 22 -137 116 -325 307 -1725
1762 -3531 3570 -3582 3588 -5 1 -10 1 -13 -2z m-141 -884 c29 -11 75 -35 103
-52 31 -20 243 -237 562 -574 282 -297 719 -759 972 -1026 1235 -1304 1429
-1511 1456 -1551 69 -104 98 -268 65 -374 -8 -27 -14 -50 -12 -52 1 -2 25 1
52 6 86 16 195 -13 268 -72 28 -23 30 -23 100 -8 135 27 302 -18 401 -110 49
-45 1099 -1196 1102 -1207 2 -8 -957 -864 -972 -868 -5 -1 -253 264 -550 591
-455 501 -546 605 -578 667 -68 131 -73 276 -13 411 l24 55 -32 63 c-27 56
-31 73 -31 150 l0 86 -35 -15 c-19 -8 -75 -17 -123 -20 -109 -6 -193 15 -276
68 -43 28 -436 436 -1516 1576 -802 847 -1471 1559 -1487 1584 -170 267 -48
599 251 686 65 19 202 12 269 -14z m5897 -5927 c290 -319 308 -347 314 -472 6
-153 -50 -274 -190 -409 -326 -314 -422 -370 -616 -362 -91 3 -168 30 -218 75
-53 47 -506 554 -503 563 5 15 941 878 953 879 6 1 123 -123 260 -274z"/>
<path d="M11031 2884 l-243 -255 35 -77 c46 -101 61 -181 54 -290 -12 -201
-122 -365 -302 -452 -198 -96 -414 -73 -592 62 l-63 47 -759 -687 -759 -687
22 -24 c33 -37 283 -250 373 -319 101 -76 300 -167 401 -182 37 -6 137 -13
222 -16 246 -10 469 21 694 97 303 103 568 277 823 543 110 114 124 133 158
213 21 48 109 250 196 448 l158 360 12 145 c20 250 2 558 -52 838 -35 184
-115 492 -127 492 -4 0 -117 -115 -251 -256z"/>
</g>
</svg>
