<?xml version="1.0" standalone="no"?>
<!DOCTYPE svg PUBLIC "-//W3C//DTD SVG 20010904//EN"
 "http://www.w3.org/TR/2001/REC-SVG-20010904/DTD/svg10.dtd">
<svg version="1.0" xmlns="http://www.w3.org/2000/svg"
 width="1280.000000pt" height="1102.000000pt" viewBox="0 0 1280.000000 1102.000000"
 preserveAspectRatio="xMidYMid meet">
<g transform="translate(0.000000,1102.000000) scale(0.100000,-0.100000)"
fill="#000000" stroke="none">
<path d="M10900 10137 c0 -24 -74 -129 -146 -208 -251 -274 -750 -683 -1469
-1206 -366 -265 -1207 -856 -2680 -1883 -429 -299 -904 -631 -1055 -739 -385
-272 -528 -371 -538 -371 -5 0 -29 28 -53 63 -108 155 -325 456 -357 496 -35
43 -36 43 -87 38 -60 -6 -119 -33 -154 -71 -20 -21 -23 -32 -19 -68 6 -49 143
-372 267 -628 14 -29 16 -42 7 -48 -6 -5 -697 -493 -1536 -1083 -1513 -1066
-1526 -1075 -1700 -1161 -195 -96 -267 -150 -255 -190 29 -103 293 -589 452
-831 85 -129 131 -177 170 -177 32 0 181 69 266 123 95 61 93 61 115 26 24
-38 39 -22 18 19 l-15 29 135 92 c74 50 140 88 146 85 6 -4 8 -3 5 3 -4 6 27
34 68 62 41 29 75 50 75 47 0 -3 -29 -26 -65 -51 -69 -50 -79 -60 -43 -45 13
5 61 23 108 40 47 18 91 37 97 42 7 6 13 8 13 5 0 -3 100 45 223 107 247 125
269 137 279 151 5 7 8 7 8 0 0 -7 3 -7 8 0 8 12 35 29 77 49 90 44 598 353
1000 609 287 182 1228 808 1252 833 10 10 8 19 -14 46 -14 18 18 -10 73 -63
136 -132 225 -204 268 -219 78 -25 126 28 126 139 0 92 -18 135 -139 331 l-15
25 22 -19 c12 -11 22 -15 22 -10 0 5 9 14 20 19 21 11 202 135 210 145 3 3 48
34 100 70 52 35 177 123 277 195 101 71 237 168 303 215 120 84 169 120 357
256 302 218 784 572 816 599 6 6 28 22 47 35 19 14 42 30 50 37 8 6 62 47 120
90 58 42 107 80 110 83 3 3 34 27 70 53 36 27 72 54 80 60 8 7 71 55 140 107
69 52 127 97 130 100 7 9 308 243 333 260 12 8 38 29 57 47 19 18 38 33 42 33
4 0 13 6 20 13 7 7 72 60 143 117 72 57 162 130 200 162 39 32 75 62 80 66 24
17 252 209 270 227 11 11 52 47 90 79 180 152 495 454 495 475 0 7 5 9 10 6 6
-3 10 -2 10 4 0 5 12 22 28 38 43 45 92 105 121 148 14 22 29 42 34 43 4 2 7
8 7 12 0 5 14 33 31 62 41 69 46 154 11 191 -21 22 -30 24 -119 23 l-95 -1
-95 -100 c-91 -95 -92 -96 -21 -15 41 47 124 144 185 217 106 127 110 134 122
200 16 92 143 676 181 838 17 72 42 182 55 246 13 63 27 127 30 142 5 17 3 27
-4 27 -6 0 -11 -6 -11 -13z m-6393 -3833 c-3 -3 -12 -4 -19 -1 -8 3 -5 6 6 6
11 1 17 -2 13 -5z m155 -124 c167 -228 334 -470 325 -470 -3 0 -45 57 -94 128
-48 70 -143 203 -210 295 -68 92 -123 171 -123 174 0 11 11 -4 102 -127z
m-202 110 c-8 -5 -19 -10 -25 -10 -5 0 -3 5 5 10 8 5 20 10 25 10 6 0 3 -5 -5
-10z m-86 -52 c-4 -6 -7 -27 -6 -47 0 -33 0 -34 -9 -11 -10 23 2 70 16 70 4 0
3 -5 -1 -12z m59 -223 c31 -71 72 -165 92 -209 19 -43 34 -80 32 -83 -5 -4
-169 363 -182 407 -15 50 4 13 58 -115z m232 -489 c19 -28 19 -29 0 -16 -11 7
-36 46 -55 87 -48 103 -49 111 -3 28 21 -38 47 -83 58 -99z m-327 -259 c8 -10
6 -13 -9 -14 -10 -1 -19 5 -19 13 0 17 14 18 28 1z m1587 -938 c9 -17 15 -34
13 -39 -2 -5 -11 9 -20 30 -20 47 -15 53 7 9z m-80 -247 c-3 -3 -11 0 -18 7
-9 10 -8 11 6 5 10 -3 15 -9 12 -12z m42 -8 c-3 -3 -12 -4 -19 -1 -8 3 -5 6 6
6 11 1 17 -2 13 -5z m-4067 -558 c0 -2 -8 -10 -17 -17 -16 -13 -17 -12 -4 4
13 16 21 21 21 13z m-70 -50 c0 -2 -8 -10 -17 -17 -16 -13 -17 -12 -4 4 13 16
21 21 21 13z m-70 -50 c0 -3 -15 -14 -32 -26 l-33 -22 30 26 c31 27 35 29 35
22z m-70 -51 c0 -2 -20 -18 -45 -35 -25 -17 -43 -35 -40 -41 3 -5 -1 -6 -9 -3
-25 9 -19 17 37 50 61 37 57 35 57 29z m-463 -287 c-3 -8 -6 -5 -6 6 -1 11 2
17 5 13 3 -3 4 -12 1 -19z m1583 -402 c0 -2 -8 -10 -17 -17 -16 -13 -17 -12
-4 4 13 16 21 21 21 13z m-130 -50 c0 -2 -8 -10 -17 -17 -16 -13 -17 -12 -4 4
13 16 21 21 21 13z m60 -1 c0 -2 -20 -18 -45 -35 -25 -17 -45 -29 -45 -26 0 4
80 64 88 66 1 0 2 -2 2 -5z m-160 -69 c0 -3 -15 -14 -32 -26 l-33 -22 30 26
c31 27 35 29 35 22z m-100 -71 c0 -2 -20 -18 -45 -35 -25 -17 -45 -29 -45 -26
0 4 80 64 88 66 1 0 2 -2 2 -5z m-100 -70 c0 -6 -177 -125 -187 -125 -6 0 175
127 185 129 1 1 2 -1 2 -4z"/>
</g>
</svg>
