<?xml version="1.0" standalone="no"?>
<!DOCTYPE svg PUBLIC "-//W3C//DTD SVG 20010904//EN"
 "http://www.w3.org/TR/2001/REC-SVG-20010904/DTD/svg10.dtd">
<svg version="1.0" xmlns="http://www.w3.org/2000/svg"
 width="1280.000000pt" height="640.000000pt" viewBox="0 0 1280.000000 640.000000"
 preserveAspectRatio="xMidYMid meet">
<g transform="translate(0.000000,640.000000) scale(0.100000,-0.100000)"
fill="#000000" stroke="none">
<path d="M4885 6250 c-800 -73 -1516 -435 -2047 -1037 l-37 -42 -568 65 c-312
35 -881 98 -1263 141 -443 49 -701 81 -710 89 -9 7 -35 16 -58 20 -23 4 -45
11 -48 15 -24 39 -101 -40 -130 -133 -26 -86 -26 -280 0 -356 19 -57 38 -72
67 -54 28 18 135 14 298 -9 80 -11 333 -47 561 -79 228 -32 658 -93 955 -135
297 -42 541 -78 542 -79 1 -1 -22 -52 -52 -113 -138 -282 -227 -569 -277 -891
-20 -130 -23 -183 -23 -452 1 -264 4 -324 23 -445 101 -646 382 -1215 827
-1674 480 -495 1062 -794 1765 -904 185 -29 652 -31 835 -4 706 105 1297 403
1781 898 291 299 500 620 655 1009 31 79 62 146 67 148 10 3 1852 -685 1865
-698 5 -4 1 -34 -7 -66 -8 -32 -14 -59 -12 -61 2 -3 411 -88 691 -144 83 -17
211 -51 285 -76 74 -25 324 -109 555 -187 701 -237 747 -251 840 -250 59 1
101 8 158 28 112 38 232 101 284 149 51 46 93 125 93 173 0 48 -49 107 -117
140 -56 28 -64 29 -230 32 l-173 4 0 112 c0 123 -9 150 -58 161 -23 5 -37 26
-97 148 -71 143 -84 162 -203 269 -56 50 -64 68 -32 68 11 0 40 18 64 40 24
22 48 40 54 40 6 0 19 -11 30 -25 l19 -24 12 25 c17 39 13 68 -14 94 -24 22
-28 23 -72 11 -68 -18 -120 -24 -146 -17 -13 3 -57 27 -98 54 -105 68 -103 67
-94 51 5 -8 35 -49 67 -92 l59 -77 -34 0 c-41 0 -135 55 -453 265 -131 86
-248 158 -259 160 -19 3 -51 17 -320 145 -60 29 -156 74 -212 101 -68 32 -103
54 -103 64 0 9 11 31 25 49 47 61 42 126 -8 126 -11 0 -28 7 -38 16 -31 28
-66 11 -80 -39 -6 -23 -16 -56 -21 -73 l-9 -32 -397 190 c-218 104 -577 275
-797 380 -220 105 -412 197 -428 204 -25 14 -26 16 -12 37 70 108 127 770 72
841 -9 11 -120 26 -440 62 l-428 49 -38 70 c-54 97 -158 250 -254 375 -105
134 -352 382 -487 490 -438 346 -936 561 -1488 641 -155 22 -528 33 -677 19z
m165 -514 c0 -131 -1 -135 -22 -141 -299 -84 -579 -220 -803 -388 -43 -32 -84
-61 -90 -63 -8 -3 -227 364 -243 407 -4 10 59 42 198 102 294 125 598 195 938
216 22 1 22 0 22 -133z m355 119 c181 -16 404 -63 590 -127 166 -56 395 -160
395 -178 0 -13 0 -13 -51 6 -78 27 -271 73 -379 89 -208 31 -491 30 -692 -2
l-38 -6 0 117 0 117 53 -5 c28 -3 84 -8 122 -11z m-1567 -574 c56 -98 102
-181 102 -185 0 -3 -9 -6 -20 -6 -10 0 -27 -9 -37 -19 -18 -19 -23 -18 -303
13 -157 17 -285 34 -285 36 3 28 398 340 430 339 6 0 56 -80 113 -178z m1712
-139 l0 -228 -147 18 c-82 9 -156 17 -167 18 -17 0 -18 9 -11 188 4 103 10
190 14 194 7 8 207 35 269 37 l42 1 0 -228z m390 202 c91 -14 277 -58 286 -67
3 -2 -19 -47 -49 -98 -29 -52 -82 -144 -116 -206 -58 -105 -64 -112 -89 -108
-15 3 -70 9 -122 15 -52 6 -110 13 -127 16 l-33 5 0 236 0 235 78 -6 c42 -4
120 -14 172 -22z m-887 -211 c3 -86 5 -158 3 -160 -1 -2 -74 5 -161 15 -175
21 -159 13 -213 104 l-23 38 93 45 c77 37 267 113 289 115 3 0 9 -71 12 -157z
m1439 40 c43 -20 78 -40 78 -44 0 -4 -39 -76 -86 -158 -57 -100 -92 -151 -103
-151 -26 0 -185 21 -189 25 -5 5 208 365 216 365 3 0 41 -16 84 -37z m-1942
-128 c11 -13 8 -15 -21 -15 -32 1 -33 1 -15 15 24 18 21 18 36 0z m2226 -36
c113 -76 334 -269 308 -269 -24 0 -528 61 -531 64 -4 3 139 255 145 256 2 0
37 -23 78 -51z m-3536 -463 c135 -19 269 -37 298 -41 29 -4 52 -10 50 -14 -14
-29 -111 -217 -114 -220 -3 -3 -442 252 -519 301 l-30 19 35 -5 c19 -3 145
-21 280 -40z m-102 -288 c147 -83 268 -152 270 -153 2 -2 -8 -40 -23 -86 -56
-178 -90 -376 -101 -596 l-7 -133 -400 0 -400 0 7 101 c22 336 119 696 267
992 l39 77 40 -25 c23 -14 161 -94 308 -177z m1081 73 c106 -17 194 -31 196
-33 16 -21 146 -271 142 -274 -3 -4 -527 301 -577 336 -11 8 -8 9 15 5 17 -3
117 -18 224 -34z m75 -308 l368 -208 24 -54 c30 -67 30 -82 -1 -111 l-24 -23
-79 32 c-182 73 -842 431 -842 456 0 6 18 48 40 94 l40 83 53 -31 c28 -17 218
-124 421 -238z m-447 -165 c124 -72 351 -208 372 -224 2 -2 -6 -15 -18 -29
-29 -38 -36 -85 -18 -128 16 -37 37 -53 97 -74 32 -11 27 -12 -50 -8 -47 3
-212 5 -368 5 l-283 0 6 73 c15 170 77 477 96 477 4 0 79 -41 166 -92z m3112
52 c141 -23 221 -35 316 -50 36 -5 94 -14 130 -20 168 -26 194 -32 199 -49 16
-54 38 -200 43 -288 l6 -103 -30 0 c-34 0 -339 106 -473 164 -143 62 -297 162
-417 270 l-46 42 44 27 c53 32 68 32 228 7z m1306 -219 c103 -48 1889 -983
1902 -995 22 -20 -86 -188 -139 -217 -11 -6 -37 1 -85 22 -37 17 -250 114
-472 216 l-405 185 -18 -24 c-10 -13 -20 -31 -24 -40 -8 -25 -21 -23 -116 18
-45 20 -217 92 -381 160 -163 68 -305 127 -313 132 -13 7 -17 33 -21 138 -4
129 -29 391 -39 419 -10 25 44 18 111 -14z m-3927 -136 c58 -40 64 -52 27 -61
-69 -17 -144 43 -103 84 16 16 17 16 76 -23z m187 -140 l30 -24 -104 -1 c-57
0 -102 2 -100 4 7 7 113 44 129 45 8 1 29 -10 45 -24z m-1230 -342 c30 -224
85 -441 155 -611 22 -54 40 -103 40 -108 0 -5 -33 -27 -73 -48 -107 -59 -573
-323 -601 -342 l-25 -16 -45 91 c-95 188 -172 414 -216 633 -23 113 -50 329
-50 395 l0 43 243 3 c133 1 315 3 404 5 l162 2 6 -47z m1079 23 c77 -9 147
-18 157 -21 24 -8 34 -42 17 -62 -49 -60 -516 -366 -781 -510 -11 -6 -48 82
-90 212 -30 94 -56 207 -82 369 l-6 39 323 -6 c185 -3 382 -12 462 -21z m1811
-218 c185 -46 165 -36 700 -353 187 -111 366 -216 398 -234 31 -18 57 -37 57
-43 0 -12 -93 -148 -101 -148 -8 0 -751 418 -919 517 -300 177 -307 182 -335
246 -14 32 -25 60 -25 62 0 7 51 -4 225 -47z m-325 -203 l86 -43 106 -179 c58
-98 187 -322 286 -498 99 -176 193 -343 210 -372 l31 -52 -67 -32 c-97 -47
-202 -89 -221 -89 -10 0 -49 57 -106 153 -242 411 -321 548 -404 703 l-91 169
0 96 c0 53 3 123 6 156 l7 61 36 -15 c20 -9 74 -35 121 -58z m-1170 -20 c-17
-43 -73 -162 -125 -264 -81 -159 -135 -258 -285 -518 -14 -24 -29 -43 -35 -43
-25 0 -227 230 -316 361 l-40 59 43 25 c24 14 147 87 273 162 426 252 510 301
513 298 1 -1 -11 -37 -28 -80z m6003 -230 c104 -54 196 -106 205 -115 9 -10
109 -56 222 -103 317 -131 493 -214 510 -239 33 -52 77 -87 116 -93 21 -3 48
-8 59 -10 26 -6 140 -106 199 -175 26 -30 62 -84 79 -120 28 -58 32 -76 35
-169 l4 -104 -39 8 c-107 20 -412 167 -1023 495 -146 78 -392 209 -547 292
l-282 150 25 50 c14 27 24 51 22 53 -2 1 -13 8 -25 14 -36 18 -31 84 13 187
l37 84 101 -53 c55 -30 186 -98 289 -152z m-5676 135 c24 -116 31 -99 -190
-472 -112 -189 -223 -376 -246 -416 l-42 -72 -75 51 c-41 29 -77 56 -80 60
-13 22 340 603 480 790 78 104 93 120 115 117 23 -3 27 -10 38 -58z m371 -17
c32 -43 84 -116 116 -162 l57 -85 -7 -500 c-4 -276 -7 -502 -8 -503 -3 -4
-215 18 -263 28 l-51 10 -8 77 c-18 191 13 1036 42 1159 18 77 50 71 122 -24z
m1749 18 c43 -16 130 -48 193 -71 63 -22 116 -42 118 -44 1 -2 -5 -19 -14 -38
l-16 -34 -181 103 c-227 130 -230 132 -100 84z m-859 -107 c53 -31 264 -155
469 -276 l372 -221 -32 -36 c-86 -96 -350 -310 -384 -311 -6 0 -28 30 -49 68
-21 37 -99 171 -174 297 -184 308 -310 524 -310 530 0 10 13 4 108 -51z
m-1219 -727 l1 -358 -22 6 c-60 18 -216 80 -294 115 l-86 40 16 25 c17 25 291
511 342 604 l29 55 6 -65 c4 -35 7 -225 8 -422z m-1435 388 c81 -138 203 -292
338 -429 71 -71 128 -131 128 -132 0 -2 -31 -54 -68 -116 -38 -62 -113 -189
-167 -283 -54 -93 -104 -180 -112 -193 l-14 -22 -73 50 c-200 134 -448 362
-589 540 -74 93 -191 260 -186 264 2 2 60 35 129 74 69 39 222 130 340 201
118 71 217 129 220 130 3 0 27 -38 54 -84z m2240 -330 c85 -148 174 -306 199
-350 l45 -80 -37 -11 c-36 -11 -208 -37 -323 -48 l-58 -6 0 242 c0 134 -3 315
-6 403 -5 149 -4 159 11 140 9 -11 85 -141 169 -290z m1536 10 c0 -3 -22 -38
-49 -78 -186 -275 -438 -529 -713 -717 l-86 -60 -45 78 c-76 133 -74 119 -25
139 110 43 324 158 433 230 140 94 318 244 407 343 56 63 78 81 78 65z m-2946
-490 c163 -96 437 -208 559 -230 l37 -7 0 -265 0 -266 -92 7 c-356 27 -694
118 -991 268 l-78 39 18 32 c11 18 81 142 157 277 76 135 145 255 153 268 l14
22 62 -43 c34 -25 107 -70 161 -102z m1873 -338 c35 -60 63 -110 63 -112 0 -7
-152 -82 -242 -119 -256 -105 -540 -172 -820 -191 l-98 -7 0 242 0 243 53 -7
c145 -18 324 -27 427 -21 141 8 361 39 455 64 39 11 76 19 84 18 8 -1 43 -51
78 -110z"/>
</g>
</svg>
