<?xml version="1.0" standalone="no"?>
<!DOCTYPE svg PUBLIC "-//W3C//DTD SVG 20010904//EN"
 "http://www.w3.org/TR/2001/REC-SVG-20010904/DTD/svg10.dtd">
<svg version="1.0" xmlns="http://www.w3.org/2000/svg"
 width="1280.000000pt" height="1122.000000pt" viewBox="0 0 1280.000000 1122.000000"
 preserveAspectRatio="xMidYMid meet">
<g transform="translate(0.000000,1122.000000) scale(0.100000,-0.100000)"
fill="#000000" stroke="none">
<path d="M9565 10944 c-80 -59 -96 -68 -90 -51 10 24 -33 57 -74 57 -54 0
-128 -41 -295 -164 -78 -57 -534 -390 -1014 -740 -480 -350 -899 -656 -930
-679 -161 -118 -196 -162 -196 -243 -1 -38 4 -58 19 -75 11 -12 14 -19 8 -15
-19 10 -17 5 27 -92 62 -137 75 -198 75 -342 0 -151 -18 -227 -82 -353 -81
-157 -240 -301 -400 -360 -104 -39 -161 -49 -279 -48 -131 0 -228 22 -335 78
-95 49 -93 48 -84 32 5 -8 -1 -5 -13 5 -26 23 -30 34 -4 15 15 -13 16 -12 3 3
-7 10 -17 15 -22 12 -12 -7 -94 107 -129 182 -49 101 -72 204 -72 324 -1 178
36 294 148 461 41 61 74 113 74 115 0 2 -63 51 -140 109 -123 94 -168 132
-127 109 19 -11 -2 8 -50 45 -24 18 -47 30 -52 27 -5 -4 -13 -1 -17 5 -5 8 -3
9 7 4 12 -8 12 -6 0 9 -8 9 -20 15 -27 12 -7 -3 -16 0 -20 6 -5 7 -2 8 7 3 12
-8 12 -6 0 8 -14 18 -36 24 -26 7 10 -16 -1 -11 -16 7 -12 15 -12 16 1 8 13
-8 13 -7 1 8 -14 18 -36 24 -26 7 10 -16 -1 -11 -16 7 -12 15 -12 16 1 8 13
-8 13 -7 1 8 -16 20 -36 23 -25 5 4 -8 3 -10 -2 -5 -5 5 -9 14 -9 20 0 7 -8
12 -17 12 -9 0 -20 4 -25 9 -5 5 -2 6 7 1 13 -8 13 -7 1 8 -14 18 -36 24 -26
7 10 -16 -1 -11 -16 7 -12 15 -12 16 1 8 13 -8 13 -7 1 8 -14 18 -36 24 -26 7
10 -16 -1 -11 -16 7 -12 15 -12 16 1 8 13 -8 13 -7 1 8 -15 19 -36 23 -25 5 5
-7 3 -8 -5 -4 -7 5 -10 11 -7 14 7 7 -13 32 -26 32 -5 0 -6 -6 -2 -12 4 -8 3
-10 -2 -5 -5 5 -9 14 -9 20 0 7 -8 12 -17 12 -9 0 -20 4 -25 9 -5 5 -2 6 7 1
13 -8 13 -7 1 8 -14 18 -36 24 -26 7 10 -16 -1 -11 -16 7 -12 15 -12 16 1 8
13 -8 13 -7 1 8 -16 20 -36 23 -25 5 4 -8 3 -10 -2 -5 -5 5 -9 14 -9 20 0 7
-9 12 -20 12 -11 0 -20 7 -20 15 0 8 -8 15 -17 15 -9 0 -20 4 -25 9 -5 5 -2 6
7 1 13 -8 13 -7 1 8 -14 18 -36 24 -26 7 10 -16 -1 -11 -16 7 -12 15 -12 16 1
8 13 -8 13 -7 1 8 -14 18 -36 24 -26 7 10 -16 -1 -11 -16 7 -12 14 -12 16 1 9
8 -4 2 4 -15 18 -16 14 -35 24 -42 21 -7 -2 -15 1 -19 7 -5 7 -2 8 7 3 12 -8
12 -6 0 9 -8 9 -20 15 -27 12 -7 -3 -16 0 -20 6 -5 7 -2 8 7 3 12 -8 12 -6 0
8 -14 18 -36 24 -26 7 10 -16 -1 -11 -16 7 -12 15 -12 16 1 8 13 -8 13 -7 1 8
-15 19 -36 23 -25 5 5 -7 3 -8 -5 -4 -7 5 -10 11 -7 14 7 7 -13 32 -26 32 -5
0 -6 -6 -2 -12 4 -8 3 -10 -2 -5 -5 5 -9 14 -9 20 0 7 -8 12 -17 12 -9 0 -20
4 -25 9 -5 5 -2 6 7 1 13 -8 13 -7 1 8 -14 18 -36 24 -26 7 10 -16 -1 -11 -16
7 -12 14 -12 16 1 9 8 -4 2 4 -15 18 -16 14 -35 24 -42 21 -7 -2 -15 1 -19 7
-5 7 -2 8 7 3 12 -8 12 -6 0 9 -8 9 -20 15 -27 12 -7 -3 -16 0 -20 6 -5 7 -2
8 7 3 12 -8 12 -6 0 8 -16 20 -36 23 -25 5 5 -9 2 -9 -9 1 -20 16 -23 26 -4
15 8 -5 8 -2 -2 9 -16 20 -36 23 -25 5 5 -9 2 -9 -9 1 -20 16 -23 26 -4 15 8
-5 8 -2 -2 9 -16 20 -36 23 -25 5 4 -8 3 -10 -2 -5 -5 5 -9 14 -9 20 0 7 -9
12 -20 12 -11 0 -20 7 -20 15 0 8 -8 15 -17 15 -9 0 -20 4 -25 9 -5 5 -2 6 7
1 13 -8 13 -7 1 8 -16 20 -36 23 -25 5 5 -9 2 -9 -9 1 -20 16 -23 26 -4 15 8
-5 8 -2 -2 9 -16 20 -36 23 -25 5 5 -9 2 -9 -9 1 -20 16 -23 26 -4 15 8 -5 8
-2 -2 9 -16 20 -36 23 -25 5 4 -8 3 -10 -2 -5 -5 5 -9 14 -9 20 0 7 -9 12 -20
12 -11 0 -20 7 -20 15 0 8 -8 15 -17 15 -9 0 -20 4 -25 9 -5 5 -2 6 7 1 13 -8
13 -7 1 8 -16 20 -36 23 -25 5 5 -9 2 -9 -9 1 -20 16 -23 26 -4 15 8 -5 8 -2
-2 9 -16 20 -36 23 -25 5 4 -8 3 -10 -2 -5 -5 5 -9 14 -9 20 0 7 -9 12 -20 12
-11 0 -20 7 -20 15 0 8 -8 15 -17 15 -9 0 -20 4 -25 9 -5 5 -2 6 7 1 13 -8 13
-7 1 8 -16 20 -36 23 -25 5 5 -9 2 -9 -9 1 -20 16 -23 26 -4 15 8 -5 8 -2 -2
9 -16 20 -36 23 -25 5 4 -8 3 -10 -2 -5 -5 5 -9 14 -9 20 0 7 -8 12 -17 12
-10 0 -23 7 -30 15 -11 12 -10 12 7 0 19 -14 19 -14 6 3 -8 10 -20 16 -27 13
-7 -3 -16 0 -20 6 -5 7 -2 8 7 3 12 -8 12 -6 0 8 -16 20 -36 23 -25 5 5 -9 2
-9 -9 1 -20 16 -23 26 -4 15 8 -5 8 -2 -2 9 -16 20 -36 23 -25 5 5 -9 2 -9 -9
1 -20 16 -23 26 -4 15 8 -5 8 -2 -2 9 -16 20 -36 23 -25 5 4 -8 3 -10 -2 -5
-5 5 -9 14 -9 20 0 7 -9 12 -20 12 -11 0 -20 7 -20 15 0 8 -8 15 -17 15 -9 0
-20 4 -25 9 -5 5 -2 6 7 1 13 -8 13 -7 1 8 -16 20 -36 23 -25 5 5 -9 2 -9 -9
1 -20 16 -23 26 -5 15 9 -5 9 -2 -1 9 -16 20 -36 23 -25 5 4 -8 3 -10 -2 -5
-5 5 -9 14 -9 20 0 7 -8 11 -17 11 -9 -1 -29 10 -44 23 l-29 25 35 -22 35 -22
-29 26 c-17 13 -34 23 -38 20 -5 -3 -40 17 -78 45 l-70 51 -1 -47 c-1 -27 -3
-40 -6 -30 -12 47 -52 -17 -60 -97 -3 -28 9 -179 26 -336 17 -157 44 -412 61
-567 69 -644 91 -857 120 -1120 90 -848 86 -817 116 -877 23 -44 56 -79 64
-66 4 6 12 -26 18 -71 7 -45 14 -84 17 -87 2 -2 57 1 121 8 187 20 325 -3 474
-81 78 -40 194 -134 185 -149 -3 -5 8 -30 24 -57 39 -63 77 -178 91 -281 22
-149 -18 -338 -101 -479 -19 -32 -74 -99 -124 -148 -102 -103 -194 -158 -331
-197 -102 -29 -285 -32 -384 -5 -70 19 -192 73 -243 109 l-32 22 25 -30 25
-29 -28 25 c-16 14 -49 52 -74 85 -42 55 -62 93 -136 257 l-26 58 -35 -15
c-41 -17 -49 -18 -42 -6 4 5 -15 19 -40 31 -37 18 -57 22 -104 17 -61 -5 -86
-16 -1205 -507 -253 -111 -620 -272 -815 -357 -479 -209 -570 -253 -608 -298
-39 -43 -44 -91 -11 -103 18 -7 12 -12 -42 -37 l-63 -28 49 -22 c136 -61 2773
-1228 2858 -1265 54 -23 99 -41 101 -39 2 2 31 59 65 126 48 95 78 139 133
198 147 157 315 237 531 252 172 11 398 -66 517 -177 30 -28 48 -48 40 -44
-12 6 -12 4 1 -12 31 -36 90 -166 110 -243 27 -102 29 -260 4 -361 -54 -221
-198 -404 -397 -504 -109 -54 -173 -72 -311 -86 -55 -5 -117 -15 -138 -20 -73
-20 -124 -84 -143 -180 -7 -38 -229 -2025 -281 -2528 -19 -176 -13 -232 28
-279 28 -32 32 -33 39 -17 8 19 2 -120 -9 -210 -5 -40 -4 -48 8 -41 12 8 2383
1737 2566 1872 l73 53 -65 99 c-124 188 -150 271 -149 476 1 136 3 157 28 230
91 268 307 460 580 516 115 24 187 24 301 0 145 -30 299 -112 380 -202 22 -25
24 -29 6 -14 l-25 20 22 -32 c76 -109 122 -269 122 -422 -1 -139 -18 -212 -90
-371 -24 -52 -45 -115 -48 -140 -5 -50 20 -126 38 -115 16 10 12 -6 -7 -27
-10 -11 -13 -22 -7 -27 5 -5 351 -260 769 -567 418 -307 904 -664 1080 -793
481 -354 728 -532 731 -528 4 4 -14 193 -66 672 -11 105 -25 231 -30 280 -5
50 -19 176 -30 280 -11 105 -25 231 -30 280 -5 50 -19 176 -30 280 -11 105
-25 233 -30 285 -6 52 -17 156 -25 230 -8 74 -19 178 -25 230 -6 52 -19 176
-30 275 -10 99 -24 234 -31 300 -6 66 -13 126 -15 133 -3 10 -21 13 -69 10
-46 -2 -65 1 -65 9 0 13 -54 56 -85 67 -11 4 -74 14 -140 22 -170 21 -281 57
-385 125 -31 21 -33 21 -20 4 14 -19 14 -19 -3 -5 -11 8 -38 39 -61 70 -185
244 -214 530 -81 805 100 205 278 349 506 406 68 18 104 21 208 17 108 -4 139
-9 214 -35 106 -37 183 -82 251 -146 28 -27 45 -45 37 -41 -8 4 -2 -10 14 -32
63 -84 97 -123 107 -121 5 1 33 -44 61 -100 29 -57 56 -103 61 -103 8 0 124
50 711 308 138 60 489 214 780 342 292 128 715 313 940 412 226 99 425 187
443 194 17 8 32 20 32 28 0 7 -28 26 -62 41 -168 75 -300 143 -230 118 13 -5
12 0 -6 19 -33 36 -98 69 -397 201 -143 63 -480 213 -750 332 -1450 643 -1427
633 -1480 646 -65 16 -128 7 -171 -26 -19 -15 -66 -68 -103 -119 -73 -97 -147
-172 -224 -225 -237 -162 -597 -165 -832 -6 -20 14 -34 20 -30 13 3 -7 -16 11
-44 41 -30 32 -70 93 -97 147 -213 429 9 930 476 1076 66 20 94 23 230 22 85
0 167 -3 181 -7 25 -6 26 -5 33 46 8 65 64 574 216 1952 66 594 122 1104 125
1133 4 28 3 52 -2 51 -4 0 -35 -21 -68 -45z m-4984 -891 c13 -16 12 -17 -3 -4
-10 7 -18 15 -18 17 0 8 8 3 21 -13z m300 -220 c13 -16 12 -17 -3 -4 -10 7
-18 15 -18 17 0 8 8 3 21 -13z m680 -500 c13 -16 12 -17 -3 -4 -10 7 -18 15
-18 17 0 8 8 3 21 -13z m40 -30 c13 -16 12 -17 -3 -4 -10 7 -18 15 -18 17 0 8
8 3 21 -13z"/>
</g>
</svg>
