<?xml version="1.0" standalone="no"?>
<!DOCTYPE svg PUBLIC "-//W3C//DTD SVG 20010904//EN"
 "http://www.w3.org/TR/2001/REC-SVG-20010904/DTD/svg10.dtd">
<svg version="1.0" xmlns="http://www.w3.org/2000/svg"
 width="640.000000pt" height="1280.000000pt" viewBox="0 0 640.000000 1280.000000"
 preserveAspectRatio="xMidYMid meet">
<g transform="translate(0.000000,1280.000000) scale(0.100000,-0.100000)"
fill="#000000" stroke="none">
<path d="M3106 12790 c-111 -29 -220 -119 -273 -228 -25 -51 -27 -68 -28 -162
0 -98 2 -110 32 -172 19 -40 53 -89 83 -119 l51 -51 -18 -76 c-17 -71 -18
-141 -18 -849 l0 -771 -660 -5 c-690 -4 -732 -7 -894 -52 -170 -48 -256 -116
-237 -188 23 -93 236 -172 529 -196 70 -6 355 -11 633 -11 l504 0 0 -4726 0
-4726 191 -229 c105 -126 194 -229 199 -229 5 0 94 103 199 229 l191 229 0
4726 0 4726 504 0 c547 0 702 8 870 45 369 82 396 254 55 350 -162 45 -204 48
-894 52 l-660 5 0 771 c0 708 -1 778 -18 849 l-18 76 51 51 c30 30 64 79 83
119 30 62 32 74 32 172 -1 94 -3 111 -28 162 -68 139 -197 226 -343 233 -44 3
-96 0 -118 -5z"/>
</g>
</svg>
