<?xml version="1.0" standalone="no"?>
<!DOCTYPE svg PUBLIC "-//W3C//DTD SVG 20010904//EN"
 "http://www.w3.org/TR/2001/REC-SVG-20010904/DTD/svg10.dtd">
<svg version="1.0" xmlns="http://www.w3.org/2000/svg"
 width="1280.000000pt" height="703.000000pt" viewBox="0 0 1280.000000 703.000000"
 preserveAspectRatio="xMidYMid meet">
<g transform="translate(0.000000,703.000000) scale(0.100000,-0.100000)"
fill="#000000" stroke="none">
<path d="M730 6795 c-250 -123 -465 -234 -478 -246 -52 -54 -184 -416 -227
-622 -30 -148 -31 -179 -4 -263 26 -81 61 -121 136 -161 184 -98 430 -154
1058 -242 810 -115 1019 -166 1485 -364 360 -153 945 -454 945 -487 0 -23 -97
-41 -201 -37 -85 4 -97 7 -166 45 -40 23 -130 62 -198 88 -166 62 -237 94
-323 148 -146 91 -433 214 -662 284 -78 24 -90 25 -455 28 -371 3 -376 3 -415
-19 -54 -30 -89 -96 -80 -152 14 -91 88 -165 181 -180 22 -3 94 1 159 9 138
18 311 21 405 5 72 -11 137 -42 253 -117 43 -28 205 -114 360 -190 155 -76
336 -171 401 -211 163 -99 241 -137 331 -160 200 -53 405 -53 590 -2 61 17
157 42 215 56 58 15 126 33 152 41 l48 15 105 -71 c129 -87 354 -244 850 -595
505 -357 789 -548 1025 -689 116 -70 195 -123 195 -132 0 -10 -444 -261 -1252
-707 -927 -511 -1253 -696 -1253 -709 0 -10 -14 -24 -32 -32 -18 -8 -132 -79
-253 -158 l-220 -144 -87 -131 -87 -131 -36 -158 c-19 -86 -35 -165 -35 -175
0 -9 48 -61 106 -115 103 -95 106 -98 135 -87 17 7 36 10 43 7 7 -3 67 26 132
65 l119 69 3 144 3 144 77 76 77 76 145 41 146 41 334 0 c201 0 407 -6 515
-15 107 -9 313 -15 510 -15 182 0 508 -5 725 -11 366 -11 424 -10 785 11 328
18 431 28 650 61 143 21 283 44 310 50 146 33 1360 418 1403 445 12 8 96 40
185 70 345 119 530 202 762 342 428 259 852 638 1058 945 107 160 248 476 322
722 20 66 61 215 90 330 51 198 56 226 79 485 23 256 29 291 81 505 48 199 65
252 127 390 39 88 78 168 87 179 19 22 118 99 146 113 14 8 56 5 150 -8 71
-11 135 -17 142 -15 7 3 50 53 97 112 l85 107 -81 120 c-45 65 -87 121 -95
124 -8 3 -89 0 -180 -7 -164 -12 -167 -13 -260 -56 -86 -39 -123 -46 -123 -23
0 5 -4 9 -10 9 -5 0 -820 -448 -1811 -995 -991 -547 -1810 -995 -1819 -995
-10 0 -512 230 -1116 511 -605 281 -1247 581 -1429 665 -181 84 -331 160 -333
167 -2 8 18 31 43 51 25 21 45 41 45 46 0 11 -465 440 -477 440 -5 0 -93 -38
-195 -85 -103 -47 -197 -85 -209 -85 -20 0 -879 397 -2829 1307 -382 179 -702
327 -710 329 -8 1 -220 -98 -470 -221z m11008 -1484 c-1 -5 -29 -40 -62 -78
-54 -64 -67 -90 -182 -366 l-123 -296 -41 -223 c-94 -509 -252 -1119 -335
-1295 -24 -51 -71 -132 -104 -181 -70 -101 -206 -252 -228 -252 -26 0 -2043
943 -2043 956 0 6 449 263 998 570 548 307 1245 696 1547 866 303 169 556 308
563 308 8 0 12 -4 10 -9z m-4900 -2950 c374 -197 1101 -554 1445 -709 37 -17
67 -35 67 -41 0 -10 -41 -23 -470 -154 l-245 -75 -270 -21 c-203 -16 -358 -21
-625 -21 -274 -1 -457 -7 -800 -29 l-446 -28 -244 19 c-206 15 -278 17 -450 8
-196 -9 -241 -5 -214 18 5 5 416 236 914 514 1069 598 1123 628 1128 628 2 0
97 -49 210 -109z"/>
</g>
</svg>
