<?xml version="1.0" standalone="no"?>
<!DOCTYPE svg PUBLIC "-//W3C//DTD SVG 20010904//EN"
 "http://www.w3.org/TR/2001/REC-SVG-20010904/DTD/svg10.dtd">
<svg version="1.0" xmlns="http://www.w3.org/2000/svg"
 width="1235.000000pt" height="1280.000000pt" viewBox="0 0 1235.000000 1280.000000"
 preserveAspectRatio="xMidYMid meet">
<g transform="translate(0.000000,1280.000000) scale(0.100000,-0.100000)"
fill="#000000" stroke="none">
<path d="M1268 12784 c-86 -31 -192 -107 -276 -198 -51 -55 -66 -102 -66 -206
1 -101 20 -183 81 -340 65 -165 101 -274 108 -323 l6 -42 -83 -70 c-127 -108
-374 -358 -466 -473 -316 -395 -480 -777 -537 -1247 -9 -71 -20 -166 -26 -210
-12 -91 -8 -292 10 -439 39 -319 206 -717 467 -1111 255 -387 510 -613 899
-801 215 -104 453 -176 680 -205 50 -6 196 -12 325 -14 138 -1 257 -8 288 -15
46 -10 55 -17 77 -54 30 -52 58 -131 90 -256 33 -129 200 -629 292 -875 152
-405 279 -677 483 -1035 343 -603 537 -885 828 -1207 54 -60 210 -236 346
-393 310 -354 598 -644 806 -810 410 -326 853 -643 1165 -832 465 -281 1293
-683 1750 -848 1054 -380 2165 -638 3190 -740 116 -11 229 -25 253 -30 104
-24 277 3 329 51 27 26 63 99 63 129 0 59 -115 184 -361 392 -128 108 -302
286 -423 433 -230 278 -466 681 -608 1039 -79 199 -112 259 -179 327 -91 92
-195 120 -496 139 -528 32 -1035 123 -1538 277 -676 206 -1445 592 -2145 1076
-96 67 -247 169 -335 228 -344 228 -512 367 -821 680 -323 326 -485 515 -758
879 -159 212 -439 621 -572 835 -74 120 -376 704 -418 809 -14 35 -36 100 -47
145 l-22 80 95 100 c230 241 347 494 351 751 1 61 -4 125 -12 152 -17 59 -72
125 -125 149 -82 37 -159 23 -401 -71 -156 -61 -266 -93 -290 -84 -30 12 -194
424 -300 754 -193 598 -224 685 -473 1310 -173 434 -322 860 -322 919 0 14 20
27 78 51 42 18 109 45 147 61 140 58 215 126 215 196 0 73 -63 163 -144 205
-36 18 -58 20 -255 20 -119 -1 -225 3 -235 7 -15 6 -27 38 -53 137 -56 214
-158 399 -271 491 -68 56 -90 68 -174 97 -81 28 -133 31 -190 10z m60 -1626
c93 -164 165 -343 272 -678 34 -107 93 -279 130 -381 38 -102 96 -268 130
-368 33 -101 90 -248 126 -328 68 -152 196 -471 341 -847 68 -179 81 -222 71
-232 -18 -17 -151 -51 -256 -65 -184 -25 -414 11 -576 90 -321 156 -618 464
-796 826 -326 664 -260 1444 159 1855 90 88 158 135 258 176 89 36 94 34 141
-48z"/>
</g>
</svg>
