<?xml version="1.0" standalone="no"?>
<!DOCTYPE svg PUBLIC "-//W3C//DTD SVG 20010904//EN"
 "http://www.w3.org/TR/2001/REC-SVG-20010904/DTD/svg10.dtd">
<svg version="1.0" xmlns="http://www.w3.org/2000/svg"
 width="1280.000000pt" height="1057.000000pt" viewBox="0 0 1280.000000 1057.000000"
 preserveAspectRatio="xMidYMid meet">
<g transform="translate(0.000000,1057.000000) scale(0.100000,-0.100000)"
fill="#000000" stroke="none">
<path d="M430 10503 c-201 -448 -355 -1022 -400 -1483 -6 -63 -15 -151 -20
-194 -13 -100 -13 -263 -1 -358 5 -40 15 -122 21 -183 82 -762 460 -1368 1167
-1873 261 -187 648 -389 1003 -524 232 -88 641 -210 656 -196 3 3 0 147 -7
319 -10 286 -13 317 -31 343 -16 22 -22 54 -29 160 -4 72 -8 152 -9 177 l0 47
-87 27 c-109 33 -261 110 -345 174 -140 106 -260 261 -309 396 -31 85 -31 210
0 287 31 81 100 169 178 226 77 58 1095 558 1113 547 6 -4 325 -635 710 -1403
663 -1327 702 -1401 768 -1481 42 -50 88 -119 115 -175 24 -50 326 -666 671
-1368 l627 -1277 -392 -798 c-551 -1122 -643 -1321 -730 -1584 -64 -196 -65
-259 -2 -280 21 -6 44 -16 51 -22 32 -25 183 176 347 463 126 219 222 407 572
1120 182 371 338 676 345 678 10 2 106 -184 302 -585 452 -923 608 -1219 781
-1478 85 -127 167 -214 187 -198 7 6 30 16 51 22 60 20 61 74 5 251 -84 263
-159 427 -681 1490 -241 492 -439 906 -439 920 0 14 273 581 607 1260 334 679
634 1290 666 1357 42 87 80 146 132 210 71 85 97 135 767 1486 483 974 698
1397 709 1397 21 0 1034 -494 1086 -530 63 -44 160 -153 188 -212 14 -30 31
-83 37 -119 27 -154 -64 -355 -236 -520 -118 -113 -255 -193 -427 -250 -51
-17 -93 -32 -94 -33 -2 -2 -10 -85 -18 -186 -10 -124 -19 -188 -29 -199 -10
-12 -16 -86 -25 -311 -6 -162 -11 -314 -11 -337 l0 -42 128 34 c537 143 1105
403 1522 699 223 158 481 396 624 576 301 378 478 813 526 1290 6 63 15 139
21 169 12 70 12 332 0 402 -6 30 -15 110 -21 179 -38 435 -188 1005 -377 1438
-25 56 -48 102 -52 102 -6 0 -242 -210 -596 -529 -88 -79 -161 -149 -163 -155
-1 -7 11 -47 27 -88 132 -329 96 -671 -94 -904 -45 -55 -133 -112 -209 -136
-80 -26 -243 -21 -326 10 -61 22 -1040 498 -1055 513 -6 6 1 30 19 66 22 45
25 58 14 65 -7 5 -101 52 -208 105 -107 53 -198 98 -203 100 -4 3 -18 -20 -32
-50 -13 -30 -29 -58 -35 -62 -6 -4 -188 80 -405 186 -368 179 -396 194 -424
235 -98 136 -113 263 -46 396 13 26 20 48 14 48 -17 0 -1304 -342 -1311 -349
-6 -5 504 -1220 529 -1260 6 -10 18 4 41 52 64 130 185 208 327 211 l70 1 387
-189 c213 -104 389 -194 391 -200 2 -6 -310 -644 -694 -1418 l-698 -1408 -15
-113 c-14 -106 -19 -121 -84 -253 -38 -76 -309 -629 -602 -1227 -359 -732
-538 -1087 -547 -1085 -11 2 -678 1348 -1150 2318 -61 126 -67 143 -79 245
l-14 110 -136 275 c-75 151 -391 787 -701 1413 -313 631 -561 1143 -557 1147
5 5 184 95 399 199 282 138 400 191 425 191 55 0 161 -29 206 -55 55 -32 117
-104 150 -173 26 -55 27 -56 39 -31 17 33 523 1220 527 1238 2 10 -162 57
-647 187 -357 95 -656 173 -663 174 -8 0 -4 -16 12 -48 33 -65 46 -144 35
-212 -11 -69 -58 -165 -101 -207 -39 -37 -793 -407 -810 -397 -5 4 -21 31 -34
60 -13 30 -26 54 -29 54 -16 0 -425 -212 -425 -220 0 -5 10 -30 22 -55 16 -34
20 -50 12 -62 -14 -23 -1018 -509 -1089 -528 -32 -8 -96 -15 -141 -15 -193 0
-336 92 -434 281 -67 129 -85 210 -85 384 0 164 17 255 76 399 16 39 29 76 28
81 0 6 -41 45 -92 87 -51 43 -114 99 -142 125 -70 66 -548 473 -557 473 -4 0
-17 -21 -28 -47z"/>
</g>
</svg>
