<?xml version="1.0" standalone="no"?>
<!DOCTYPE svg PUBLIC "-//W3C//DTD SVG 20010904//EN"
 "http://www.w3.org/TR/2001/REC-SVG-20010904/DTD/svg10.dtd">
<svg version="1.0" xmlns="http://www.w3.org/2000/svg"
 width="1072.000000pt" height="1280.000000pt" viewBox="0 0 1072.000000 1280.000000"
 preserveAspectRatio="xMidYMid meet">
<g transform="translate(0.000000,1280.000000) scale(0.100000,-0.100000)"
fill="#000000" stroke="none">
<path d="M2467 12786 c-54 -20 -113 -70 -282 -240 -190 -191 -265 -291 -364
-486 -150 -294 -224 -496 -240 -655 -6 -55 -18 -125 -26 -155 -8 -30 -20 -98
-25 -150 -6 -52 -14 -98 -18 -102 -17 -17 -43 31 -57 103 -21 111 -34 358 -40
784 -7 394 -18 604 -34 648 -14 35 -50 67 -78 67 -63 0 -155 -141 -193 -295
-55 -226 -105 -714 -96 -940 11 -282 77 -637 177 -953 55 -173 71 -243 58
-258 -25 -30 -175 51 -340 184 -151 121 -206 196 -329 441 -118 237 -170 378
-210 576 -41 203 -88 382 -115 442 -20 45 -29 53 -65 64 -36 11 -47 10 -87 -7
-29 -12 -54 -31 -64 -49 -50 -85 -51 -385 -3 -630 41 -210 199 -714 272 -868
107 -226 434 -577 1117 -1199 500 -455 578 -520 1025 -848 288 -212 509 -385
685 -540 162 -141 585 -538 585 -548 0 -4 -48 -22 -106 -40 -86 -27 -113 -40
-151 -74 -103 -96 -139 -237 -172 -678 -62 -820 -25 -1549 115 -2250 250
-1253 854 -2348 1775 -3217 178 -168 378 -343 393 -343 7 0 23 -11 36 -25 26
-27 67 -33 103 -13 36 18 401 352 550 501 553 557 942 1209 1207 2022 288 885
418 1979 380 3185 -7 217 -14 436 -15 485 -3 113 -29 186 -88 246 -64 66 -122
102 -222 139 -49 18 -93 36 -98 40 -4 3 34 69 85 146 50 76 121 187 157 246
80 130 170 236 346 406 165 161 299 276 480 414 146 111 280 220 582 474 99
84 236 193 304 244 141 105 241 199 408 385 270 302 505 616 599 800 57 114
96 244 213 709 l110 441 6 195 c8 274 -17 618 -53 750 -33 118 -135 171 -233
121 -76 -39 -151 -176 -151 -276 0 -34 -9 -146 -19 -250 -11 -105 -25 -257
-31 -340 -19 -269 -48 -422 -121 -645 -64 -196 -136 -336 -215 -420 -37 -38
-72 -70 -80 -70 -17 0 -66 104 -98 210 -61 204 -82 448 -101 1195 -7 281 -20
481 -35 535 -18 66 -86 130 -138 130 -59 0 -131 -171 -165 -395 -25 -159 -36
-307 -47 -653 -12 -355 -5 -524 30 -723 83 -465 90 -691 24 -821 -63 -124
-383 -449 -538 -547 -58 -36 -72 -38 -85 -13 -14 27 -52 228 -116 612 -166
1002 -242 1294 -480 1849 -195 455 -311 587 -422 476 l-36 -36 6 -102 c7 -123
47 -277 135 -512 93 -250 109 -306 151 -525 49 -250 69 -376 121 -775 36 -271
50 -368 91 -625 5 -30 9 -158 9 -285 1 -336 -17 -443 -90 -552 -22 -33 -158
-191 -302 -350 -455 -500 -482 -532 -643 -768 -49 -71 -110 -158 -135 -192
l-47 -62 -80 82 c-91 94 -139 171 -233 377 -141 307 -187 451 -196 615 -7 117
3 196 52 418 45 199 54 328 30 413 -22 75 -57 129 -98 150 -125 65 -281 -74
-368 -330 -60 -176 -62 -197 -67 -641 -3 -273 -1 -430 6 -470 8 -45 25 -79 70
-146 77 -114 312 -581 299 -594 -2 -2 -59 3 -126 10 -461 51 -937 39 -1447
-36 -77 -11 -144 -23 -149 -26 -16 -10 2 176 24 257 12 41 59 152 105 245 46
94 121 251 166 350 l81 180 -6 425 c-7 463 -15 568 -51 647 -19 42 -33 57 -77
82 -139 80 -161 33 -193 -409 -25 -343 -60 -499 -162 -739 -96 -226 -227 -445
-341 -571 l-49 -55 -39 27 c-21 15 -86 67 -144 114 -213 177 -525 403 -825
599 -373 244 -412 271 -535 369 -153 123 -371 339 -428 425 -57 85 -83 173
-89 297 -6 119 6 158 87 258 91 116 159 151 425 225 296 82 430 133 670 253
238 120 423 245 552 375 108 109 193 267 196 365 2 40 -3 52 -25 75 -24 23
-38 28 -97 31 -88 5 -217 -20 -297 -58 -37 -18 -105 -69 -175 -130 -142 -125
-247 -195 -403 -271 -241 -116 -573 -202 -788 -203 -116 -1 -117 -1 -147 28
-42 40 -51 80 -51 222 0 330 61 594 209 899 84 173 170 314 315 515 144 199
168 234 200 298 27 54 45 152 46 250 l0 52 -122 0 c-76 -1 -137 -6 -161 -14z"/>
</g>
</svg>
