<?xml version="1.0" standalone="no"?>
<!DOCTYPE svg PUBLIC "-//W3C//DTD SVG 20010904//EN"
 "http://www.w3.org/TR/2001/REC-SVG-20010904/DTD/svg10.dtd">
<svg version="1.0" xmlns="http://www.w3.org/2000/svg"
 width="1237.000000pt" height="1280.000000pt" viewBox="0 0 1237.000000 1280.000000"
 preserveAspectRatio="xMidYMid meet">
<g transform="translate(0.000000,1280.000000) scale(0.100000,-0.100000)"
fill="#000000" stroke="none">
<path d="M6590 10660 c-287 -28 -555 -99 -702 -185 -33 -19 -158 -116 -278
-214 l-218 -180 -482 -36 -482 -37 -422 -250 c-231 -138 -428 -258 -437 -267
-10 -10 -104 -337 -238 -831 l-221 -815 -76 -695 c-41 -382 -92 -884 -113
-1115 l-37 -420 48 -235 c91 -437 497 -2140 530 -2223 17 -42 34 -77 37 -77 3
0 64 55 134 123 l129 122 -58 1360 -58 1360 88 410 89 410 17 338 c9 186 19
339 21 341 6 6 484 29 497 25 7 -2 -18 -48 -63 -114 l-75 -110 -100 -334 c-82
-276 -100 -346 -100 -400 0 -46 -11 -100 -35 -181 l-35 -115 0 -366 0 -366
100 -332 c55 -183 129 -413 166 -512 l66 -179 193 -276 193 -276 114 -83 c97
-72 120 -95 161 -159 46 -71 59 -82 275 -239 242 -175 245 -177 454 -286 l136
-71 31 50 c17 28 33 50 36 50 3 0 32 -25 65 -55 95 -88 295 -182 506 -239 145
-40 197 -49 365 -64 177 -16 216 -16 400 -4 417 28 786 144 1059 334 108 75
171 132 217 197 2 4 25 -23 59 -68 9 -12 38 4 175 100 133 92 202 150 363 304
187 179 201 195 238 270 31 66 59 102 158 205 l119 125 145 300 c137 286 146
308 189 475 35 132 58 261 96 525 l50 350 -58 360 c-57 355 -59 361 -103 457
-33 70 -50 123 -62 193 -16 91 -25 114 -176 414 l-159 319 -333 395 -334 396
-243 678 c-134 373 -252 701 -263 730 -32 87 -113 145 -532 385 -203 116 -400
224 -437 240 -124 52 -239 69 -484 73 -121 2 -258 0 -305 -5z"/>
</g>
</svg>
