<?xml version="1.0" standalone="no"?>
<!DOCTYPE svg PUBLIC "-//W3C//DTD SVG 20010904//EN"
 "http://www.w3.org/TR/2001/REC-SVG-20010904/DTD/svg10.dtd">
<svg version="1.0" xmlns="http://www.w3.org/2000/svg"
 width="1280.000000pt" height="640.000000pt" viewBox="0 0 1280.000000 640.000000"
 preserveAspectRatio="xMidYMid meet">
<g transform="translate(0.000000,640.000000) scale(0.100000,-0.100000)"
fill="#000000" stroke="none">
<path d="M3513 5699 c-215 -36 -416 -199 -567 -462 l-27 -48 -52 7 c-29 3
-164 24 -302 46 -160 26 -309 43 -415 49 -175 9 -282 26 -685 108 -441 91
-669 116 -833 92 -81 -12 -147 -30 -139 -37 2 -2 73 -16 158 -29 439 -72 771
-180 1026 -332 96 -57 193 -136 182 -148 -4 -3 -53 -1 -109 5 -114 11 -210 13
-234 4 -9 -3 -16 -14 -16 -24 0 -18 32 -50 195 -191 55 -48 134 -129 175 -180
118 -146 139 -167 173 -178 18 -5 149 -12 292 -15 671 -14 1485 -146 2567
-417 296 -74 348 -80 438 -53 68 20 119 14 173 -22 35 -23 57 -29 128 -34 80
-6 90 -9 139 -45 46 -34 61 -39 125 -44 63 -6 81 -12 129 -45 43 -30 69 -40
121 -46 47 -6 79 -17 115 -40 32 -21 69 -34 108 -40 62 -9 80 -16 136 -54 24
-16 56 -25 102 -29 45 -4 78 -14 96 -27 16 -11 40 -29 56 -40 15 -11 54 -25
86 -30 53 -9 76 -20 151 -74 11 -8 49 -20 85 -25 71 -11 98 -33 168 -135 40
-58 77 -76 232 -111 322 -72 585 -177 713 -282 106 -89 144 -170 157 -337 15
-207 60 -221 419 -132 194 49 300 58 386 35 22 -6 200 -62 395 -126 351 -115
355 -117 400 -162 36 -36 51 -62 68 -118 13 -40 31 -82 41 -94 l18 -22 71 22
c56 18 82 22 119 16 27 -4 100 -7 163 -6 l115 2 73 -46 c58 -38 87 -49 152
-61 92 -16 104 -21 183 -81 37 -29 86 -54 135 -70 42 -14 94 -34 116 -45 27
-14 72 -23 142 -29 116 -9 137 -17 226 -92 90 -75 116 -92 178 -112 66 -21
140 -57 195 -95 56 -38 148 -83 224 -109 53 -18 69 -20 97 -11 45 15 74 70 74
140 0 61 0 61 135 16 55 -19 103 -32 108 -29 12 7 52 92 73 153 13 41 18 86
19 175 l0 119 -161 71 c-134 60 -172 73 -232 78 -87 7 -153 35 -199 83 l-33
36 -68 -12 c-59 -11 -76 -10 -126 4 -90 27 -156 75 -233 170 -32 39 -32 39
-72 28 -25 -8 -48 -9 -63 -3 -24 9 -82 68 -90 91 -3 9 -21 8 -74 -5 -57 -14
-78 -15 -112 -5 -54 14 -106 60 -144 126 l-29 53 -37 -16 c-51 -21 -123 -21
-156 1 -15 9 -36 38 -48 64 -11 26 -24 54 -28 62 -4 8 -52 35 -108 60 -55 25
-103 48 -107 51 -3 4 -8 45 -10 92 -4 93 -14 122 -46 132 -31 10 -57 -19 -106
-122 -24 -51 -47 -93 -51 -93 -4 0 -178 77 -387 171 -2610 1172 -4555 1858
-6411 2259 -174 38 -283 66 -290 75 -30 40 -24 226 11 325 62 175 256 256 526
218 63 -9 115 -15 117 -13 7 7 -97 35 -163 45 -82 11 -169 11 -242 -1z m2223
-1624 c9 -25 14 -48 11 -51 -7 -7 -107 25 -107 34 0 11 54 62 66 62 7 0 20
-20 30 -45z m260 -55 c14 -39 18 -90 7 -90 -22 0 -103 36 -103 45 0 20 54 85
69 82 8 -1 20 -18 27 -37z m263 -116 c7 -30 10 -58 7 -62 -10 -9 -101 32 -104
48 -1 8 12 32 29 53 38 46 51 39 68 -39z m235 -51 c9 -56 7 -93 -4 -93 -23 0
-80 30 -80 41 0 19 51 89 65 89 7 0 15 -17 19 -37z m230 -90 c3 -21 6 -50 6
-65 l0 -27 -45 16 c-25 8 -47 18 -50 23 -7 11 53 90 69 90 8 0 16 -16 20 -37z
m235 -70 c6 -21 11 -55 11 -75 l0 -37 -46 16 c-25 8 -48 21 -51 29 -5 13 54
104 68 104 5 0 13 -17 18 -37z m225 -78 c3 -8 8 -37 12 -65 6 -43 4 -50 -10
-50 -24 0 -76 28 -76 41 0 23 45 89 60 89 5 0 10 -7 14 -15z m240 -116 c9 -47
7 -89 -4 -89 -19 0 -80 29 -80 37 0 17 51 83 64 83 7 0 16 -14 20 -31z m3411
-1475 c17 -7 55 -74 55 -99 0 -23 -14 -18 -66 25 -27 23 -59 43 -72 46 -18 5
-20 9 -11 20 12 14 65 19 94 8z m302 -134 c30 -18 60 -57 51 -66 -2 -2 -28 5
-56 16 -29 11 -65 20 -81 20 -46 0 -91 12 -85 22 20 32 124 37 171 8z m283
-143 c27 -21 62 -76 58 -93 -2 -11 -19 -1 -63 36 -33 28 -61 55 -63 60 -5 14
50 12 68 -3z m298 -74 c35 -16 157 -131 149 -139 -2 -3 -25 5 -50 16 -27 12
-86 24 -144 30 -86 8 -173 31 -173 45 0 3 19 18 42 35 49 36 118 41 176 13z"/>
</g>
</svg>
