<?xml version="1.0" standalone="no"?>
<!DOCTYPE svg PUBLIC "-//W3C//DTD SVG 20010904//EN"
 "http://www.w3.org/TR/2001/REC-SVG-20010904/DTD/svg10.dtd">
<svg version="1.0" xmlns="http://www.w3.org/2000/svg"
 width="1276.000000pt" height="1280.000000pt" viewBox="0 0 1276.000000 1280.000000"
 preserveAspectRatio="xMidYMid meet">
<g transform="translate(0.000000,1280.000000) scale(0.100000,-0.100000)"
fill="#000000" stroke="none">
<path d="M12275 12338 c-363 -182 -1016 -488 -1042 -488 -2 0 -2 4 1 9 5 7
-74 87 -133 134 -26 21 -78 51 -133 78 -178 89 -456 85 -641 -7 -64 -32 -157
-94 -157 -106 0 -4 -7 -8 -15 -8 -8 0 -15 -3 -15 -7 0 -5 -18 -28 -40 -53 -22
-25 -40 -48 -40 -52 0 -4 -6 -13 -12 -20 -22 -23 -55 -91 -78 -158 -25 -77
-34 -243 -16 -305 25 -85 40 -72 -277 -221 l-289 -134 -466 -452 c-257 -249
-513 -498 -570 -553 l-103 -100 -45 -210 c-24 -115 -46 -215 -49 -222 -3 -8
-33 1 -96 28 -51 22 -95 36 -99 32 -4 -4 -338 -413 -741 -908 -509 -623 -1023
-1238 -1674 -2000 -1644 -1925 -2286 -2677 -2374 -2782 -47 -56 -88 -102 -91
-102 -3 0 -17 16 -31 37 -20 28 -43 109 -101 352 l-76 315 24 200 c13 109 22
200 21 201 -1 0 -270 -58 -597 -131 l-595 -132 -282 -13 c-156 -7 -283 -16
-282 -19 2 -11 401 -386 658 -617 l254 -229 169 -253 c93 -140 172 -260 174
-267 9 -23 -264 -303 -403 -415 -82 -65 -222 -198 -393 -371 l-265 -270 -169
-40 c-93 -21 -170 -38 -171 -37 -18 27 -129 155 -195 225 -64 68 -94 93 -111
93 -13 -1 -127 -22 -254 -48 l-230 -47 -114 -165 -113 -165 5 -153 c5 -144 7
-156 31 -193 15 -21 28 -39 30 -39 2 0 39 47 81 104 69 92 82 105 114 110 74
12 74 12 172 -116 123 -158 132 -174 180 -300 41 -105 43 -108 182 -263 210
-234 293 -293 705 -499 177 -88 322 -164 322 -169 0 -4 -40 -74 -89 -155 l-89
-146 108 -58 109 -58 198 76 c108 41 205 82 214 90 10 9 54 71 99 139 74 111
82 128 76 158 -11 61 -107 208 -197 302 l-85 90 7 41 c4 23 36 98 71 166 l63
125 280 245 c453 396 432 375 554 552 60 87 112 160 114 162 5 5 229 -197 486
-441 178 -168 259 -254 406 -432 189 -227 224 -263 256 -263 31 0 57 46 69
123 6 39 34 171 62 292 40 172 72 279 150 495 55 151 120 324 144 383 33 81
44 121 44 161 0 62 -37 287 -49 299 -4 4 -99 -28 -211 -73 -112 -44 -210 -80
-218 -80 -26 0 -465 184 -489 204 l-23 21 91 75 c50 41 136 116 192 166 56 50
282 245 502 434 589 506 578 497 1125 1030 653 637 590 579 1895 1770 1150
1050 1266 1152 2480 2194 l710 609 472 923 c463 904 482 938 938 1725 256 441
465 804 465 806 0 9 -45 -13 -475 -229z"/>
</g>
</svg>
