<?xml version="1.0" standalone="no"?>
<!DOCTYPE svg PUBLIC "-//W3C//DTD SVG 20010904//EN"
 "http://www.w3.org/TR/2001/REC-SVG-20010904/DTD/svg10.dtd">
<svg version="1.0" xmlns="http://www.w3.org/2000/svg"
 width="1280.000000pt" height="1280.000000pt" viewBox="0 0 1280.000000 1280.000000"
 preserveAspectRatio="xMidYMid meet">
<g transform="translate(0.000000,1280.000000) scale(0.100000,-0.100000)"
fill="#000000" stroke="none">
<path d="M12720 12785 c-25 -7 -182 -50 -350 -94 -168 -45 -311 -85 -319 -89
-7 -4 -40 -92 -71 -196 -32 -103 -60 -189 -62 -190 -1 -1 -68 -21 -147 -44
-80 -23 -149 -46 -154 -51 -7 -7 7 -30 41 -70 29 -33 52 -64 52 -69 0 -11
-443 -449 -650 -641 -386 -359 -746 -659 -1093 -910 -102 -73 -131 -90 -142
-81 -11 9 -36 -4 -118 -64 -58 -42 -108 -76 -111 -76 -4 0 -176 117 -384 261
-207 144 -381 263 -387 265 -17 6 -750 -312 -750 -326 0 -9 775 -499 963 -609
8 -5 17 -41 22 -97 l8 -89 -31 -33 c-17 -18 -47 -37 -67 -42 -53 -15 -195 -12
-264 6 -71 18 -237 95 -320 148 l-58 37 -61 -54 c-34 -30 -89 -79 -122 -109
l-59 -55 77 -81 c99 -104 132 -170 132 -264 0 -59 -3 -71 -26 -93 -35 -36 -87
-46 -153 -31 -73 17 -138 57 -217 133 -36 35 -70 63 -75 63 -9 0 -128 -119
-213 -212 l-34 -37 63 -67 c76 -82 113 -156 118 -241 10 -151 -100 -233 -254
-188 -64 18 -136 60 -174 100 -13 14 -28 25 -34 25 -15 -1 -398 -515 -612
-820 -323 -463 -480 -673 -839 -1125 -325 -408 -684 -832 -1002 -1183 -444
-489 -1291 -1329 -1803 -1787 -538 -482 -1056 -880 -1453 -1115 l-76 -45 -17
-70 c-13 -51 -19 -121 -21 -260 l-2 -190 -78 -7 c-107 -10 -239 -43 -340 -85
l-84 -35 -93 -132 c-384 -540 -698 -1148 -842 -1630 -24 -79 -32 -122 -26
-128 18 -18 310 79 555 183 395 169 819 412 1239 711 95 68 97 70 129 146 45
106 68 199 82 321 l12 104 155 -2 c150 -2 306 16 350 39 9 5 50 62 90 127 296
478 695 983 1271 1608 266 289 870 906 1158 1182 834 802 1773 1575 2701 2223
290 203 835 605 860 635 10 12 4 24 -29 61 -64 73 -95 146 -95 229 -1 88 24
133 90 165 98 48 230 10 346 -99 l66 -62 39 32 c63 53 213 203 213 213 0 5
-30 41 -67 80 -142 150 -178 298 -91 371 29 24 38 27 93 23 86 -6 159 -43 247
-127 42 -39 82 -71 90 -71 8 0 46 35 84 77 38 43 84 94 102 115 l33 36 -37 58
c-53 83 -130 249 -148 320 -18 69 -21 211 -6 264 5 20 25 50 42 68 l33 31 89
-9 c54 -5 93 -14 97 -22 111 -190 600 -963 609 -963 14 0 331 733 325 751 -2
6 -121 181 -265 388 -144 208 -259 383 -257 389 3 7 37 57 76 111 54 75 68
102 60 112 -8 10 12 45 86 147 218 303 515 663 837 1013 202 221 696 724 711
724 5 0 36 -23 68 -51 32 -28 62 -48 67 -45 5 3 28 72 52 153 24 81 45 150 46
151 1 2 87 30 190 62 104 31 192 64 196 71 15 29 198 730 193 739 -8 13 -19
12 -75 -5z"/>
</g>
</svg>
