<?xml version="1.0" standalone="no"?>
<!DOCTYPE svg PUBLIC "-//W3C//DTD SVG 20010904//EN"
 "http://www.w3.org/TR/2001/REC-SVG-20010904/DTD/svg10.dtd">
<svg version="1.0" xmlns="http://www.w3.org/2000/svg"
 width="914.000000pt" height="1280.000000pt" viewBox="0 0 914.000000 1280.000000"
 preserveAspectRatio="xMidYMid meet">
<g transform="translate(0.000000,1280.000000) scale(0.100000,-0.100000)"
fill="#000000" stroke="none">
<path d="M5210 12452 l-225 -116 -520 -649 c-286 -357 -525 -659 -532 -670 -7
-12 -112 -260 -233 -552 -122 -291 -323 -760 -446 -1042 l-224 -512 -95 -373
c-52 -205 -126 -512 -165 -682 -71 -305 -178 -677 -325 -1126 -40 -124 -76
-252 -80 -285 -3 -33 -8 -72 -11 -87 -5 -25 2 -32 96 -93 67 -43 100 -71 97
-80 -77 -198 -421 -1229 -521 -1557 l-134 -443 -166 -1160 c-91 -638 -217
-1536 -281 -1995 -63 -459 -117 -850 -119 -867 -3 -18 -2 -34 2 -37 19 -10
312 195 950 664 386 283 702 518 702 522 0 3 -9 4 -20 1 -19 -5 -19 -4 -6 33
7 22 100 273 206 559 167 452 223 590 431 1055 185 415 293 677 485 1170 l246
635 49 354 c28 195 48 360 45 367 -4 11 -33 16 -192 30 l-72 6 -15 58 -15 59
59 147 c32 80 60 148 62 150 2 3 40 -18 84 -45 79 -49 81 -50 385 -115 168
-36 314 -66 325 -66 18 0 484 169 527 192 18 9 114 106 364 370 l64 66 12 219
c6 120 9 265 6 323 -3 58 -5 106 -5 106 0 1 65 34 144 74 100 50 244 138 470
290 l326 218 22 293 c12 162 19 323 16 358 -4 46 -21 103 -57 191 l-52 127
115 121 c64 66 130 128 147 136 31 15 117 106 297 313 l98 113 11 117 c6 65
11 199 12 298 l1 180 -79 195 c-43 107 -80 200 -82 205 -2 6 50 73 116 150 74
86 177 224 266 358 l146 219 -11 91 c-9 69 -36 164 -108 380 l-97 288 -350
266 -350 267 -389 133 -389 133 -356 35 c-197 19 -375 35 -397 34 -31 0 -92
-27 -265 -117z m1563 -427 c182 -54 325 -141 463 -280 145 -147 234 -310 234
-429 0 -192 -66 -344 -204 -473 -216 -203 -572 -227 -896 -62 -224 115 -394
294 -488 513 -33 79 -34 84 -29 181 16 285 207 503 500 570 100 23 310 13 420
-20z m-563 -1429 c297 -53 594 -251 756 -503 110 -169 137 -268 114 -414 -22
-143 -75 -254 -169 -353 -167 -176 -412 -253 -688 -215 -380 51 -731 315 -890
670 -37 82 -38 87 -36 194 1 125 22 196 93 315 61 103 85 120 315 225 l210 95
110 -1 c61 0 144 -6 185 -13z m-585 -1600 c252 -38 470 -149 651 -330 128
-129 242 -315 260 -425 15 -94 -36 -278 -105 -379 -279 -406 -957 -386 -1386
41 -183 183 -286 386 -270 539 12 123 -1 109 410 488 46 43 56 47 130 59 44 7
87 14 95 16 38 7 133 3 215 -9z m-511 -1741 c290 -56 511 -227 606 -468 22
-57 23 -60 7 -132 -59 -267 -264 -464 -562 -541 -105 -27 -323 -25 -429 4
-112 31 -208 78 -299 145 -66 48 -76 61 -72 80 5 19 0 25 -29 35 -41 15 -91
88 -133 195 -25 64 -26 73 -16 133 25 144 137 309 278 410 179 127 429 181
649 139z"/>
</g>
</svg>
