<?xml version="1.0" standalone="no"?>
<!DOCTYPE svg PUBLIC "-//W3C//DTD SVG 20010904//EN"
 "http://www.w3.org/TR/2001/REC-SVG-20010904/DTD/svg10.dtd">
<svg version="1.0" xmlns="http://www.w3.org/2000/svg"
 width="1280.000000pt" height="992.000000pt" viewBox="0 0 1280.000000 992.000000"
 preserveAspectRatio="xMidYMid meet">
<g transform="translate(0.000000,992.000000) scale(0.100000,-0.100000)"
fill="#000000" stroke="none">
<path d="M11437 8873 c22 -457 -230 -1182 -519 -1498 -67 -73 -296 -255 -703
-560 -855 -639 -1664 -1152 -2284 -1447 -791 -377 -1378 -499 -1823 -378 -98
27 -119 40 -133 83 -13 39 -75 147 -85 147 -3 0 -112 -188 -242 -418 l-237
-417 -143 -6 c-119 -5 -157 -11 -223 -33 -123 -42 -201 -90 -290 -180 -97 -98
-131 -158 -201 -361 l-52 -150 -88 -38 c-79 -34 -310 -141 -434 -201 -82 -40
-483 -258 -605 -329 -424 -247 -787 -473 -1171 -726 -137 -91 -257 -170 -266
-176 -9 -5 -60 -42 -114 -81 -55 -39 -142 -100 -194 -136 -52 -36 -162 -113
-243 -172 l-149 -106 -133 0 c-518 0 -838 -130 -886 -358 -35 -170 93 -436
330 -685 278 -291 525 -319 762 -87 123 121 197 242 263 430 l41 115 51 17
c28 9 68 18 89 20 36 3 40 0 64 -41 14 -24 39 -53 54 -64 25 -19 32 -20 80
-10 28 6 131 40 227 76 765 286 1701 763 2559 1305 l213 135 187 -13 c212 -15
279 -8 417 42 117 42 223 115 341 235 l103 104 297 -11 c164 -6 435 -12 603
-13 l305 -2 3 57 c3 50 -1 64 -26 100 -65 96 -82 139 -82 212 0 87 40 286 81
402 67 191 144 296 260 354 34 18 122 72 193 119 249 166 706 448 1521 936
286 172 679 409 872 528 194 119 374 227 401 241 69 35 142 53 262 66 58 7
161 23 230 36 l125 24 75 77 c267 275 600 845 731 1251 99 309 105 497 23 777
-39 132 -120 329 -211 510 -75 148 -203 379 -222 398 -5 5 -6 -40 -4 -100z"/>
</g>
</svg>
