<?xml version="1.0" standalone="no"?>
<!DOCTYPE svg PUBLIC "-//W3C//DTD SVG 20010904//EN"
 "http://www.w3.org/TR/2001/REC-SVG-20010904/DTD/svg10.dtd">
<svg version="1.0" xmlns="http://www.w3.org/2000/svg"
 width="640.000000pt" height="1280.000000pt" viewBox="0 0 640.000000 1280.000000"
 preserveAspectRatio="xMidYMid meet">
<g transform="translate(0.000000,1280.000000) scale(0.100000,-0.100000)"
fill="#000000" stroke="none">
<path d="M1209 12796 c-2 -3 -69 -10 -149 -16 -175 -14 -332 -40 -420 -70 -68
-23 -120 -54 -120 -72 0 -6 53 -94 119 -197 707 -1111 1094 -2130 1044 -2749
-5 -57 -6 -105 -2 -108 8 -5 280 33 304 43 11 4 31 -11 62 -43 186 -199 301
-506 291 -778 l-3 -89 -135 -43 c-151 -49 -334 -136 -455 -214 -244 -159 -480
-400 -667 -677 -258 -385 -452 -864 -598 -1478 -21 -88 -52 -212 -68 -275 -27
-103 -47 -211 -148 -775 l-27 -150 -8 -1235 c-7 -1237 -9 -1322 -53 -2090 -8
-146 -20 -377 -26 -515 -6 -137 -15 -290 -20 -340 -23 -219 -6 -371 56 -501
32 -69 105 -136 142 -132 43 5 51 43 102 498 12 102 27 228 35 280 8 53 19
258 26 464 7 245 15 391 25 435 8 36 17 122 20 191 8 183 12 195 114 307 48
52 102 121 120 152 54 90 67 101 120 101 97 0 208 -48 355 -154 51 -37 111
-71 140 -80 27 -8 82 -24 120 -35 39 -11 85 -30 103 -41 38 -24 36 23 22 -485
-6 -203 -19 -478 -30 -610 -40 -499 -43 -567 -44 -820 -1 -257 8 -345 35 -345
24 0 281 111 475 205 679 329 1507 853 2486 1572 l137 101 58 -23 c59 -24 236
-55 314 -55 24 0 55 -3 68 -7 l24 -6 -7 -201 c-10 -300 -35 -913 -46 -1146
-12 -246 -1 -340 55 -450 46 -90 148 -154 211 -133 l29 10 7 619 c3 340 11
707 17 814 5 107 13 256 17 330 4 74 10 142 15 151 6 12 32 17 116 23 59 3
198 15 308 26 110 11 220 22 244 24 64 6 79 27 92 126 6 47 11 97 11 111 -1
42 -41 111 -167 289 -320 452 -378 639 -378 1215 0 358 29 679 103 1160 35
231 48 412 60 830 5 176 18 424 29 550 96 1065 104 1982 26 2692 -144 1301
-602 2228 -1421 2875 -462 365 -1084 651 -1811 833 -149 37 -366 62 -733 85
-96 6 -233 15 -304 20 -129 10 -409 14 -417 6z m3294 -3792 c141 -73 262 -277
356 -600 23 -78 26 -104 12 -104 -6 0 -44 25 -87 55 -140 101 -387 227 -539
275 -62 19 -66 25 -50 69 45 129 129 260 188 296 49 29 76 31 120 9z"/>
</g>
</svg>
