<?xml version="1.0" standalone="no"?>
<!DOCTYPE svg PUBLIC "-//W3C//DTD SVG 20010904//EN"
 "http://www.w3.org/TR/2001/REC-SVG-20010904/DTD/svg10.dtd">
<svg version="1.0" xmlns="http://www.w3.org/2000/svg"
 width="1280.000000pt" height="640.000000pt" viewBox="0 0 1280.000000 640.000000"
 preserveAspectRatio="xMidYMid meet">
<g transform="translate(0.000000,640.000000) scale(0.100000,-0.100000)"
fill="#000000" stroke="none">
<path d="M2272 5089 c-172 -26 -314 -124 -387 -268 -130 -257 -19 -711 299
-1225 66 -106 74 -136 39 -136 -36 0 -151 -33 -210 -61 -72 -34 -143 -108
-169 -174 -20 -52 -18 -52 -164 -58 -156 -7 -238 -44 -280 -126 -7 -14 -15
-59 -19 -100 l-6 -76 -30 2 c-257 21 -315 -5 -323 -148 l-4 -71 -72 9 c-103
12 -208 8 -242 -10 -74 -39 -100 -109 -89 -243 l7 -82 -143 2 c-162 1 -195 -8
-226 -67 -19 -34 -25 -162 -11 -223 7 -30 3 -35 -68 -94 -80 -66 -125 -121
-157 -195 -18 -41 -19 -50 -6 -87 26 -79 91 -133 195 -164 145 -42 275 24 379
191 l45 72 138 6 c161 6 223 23 286 78 25 22 52 60 65 89 l22 50 57 0 c93 1
208 26 265 58 58 33 110 100 129 165 18 66 18 66 111 50 92 -17 175 -8 222 23
32 21 64 81 73 137 l7 42 120 6 c170 8 217 34 253 135 l18 49 114 5 c103 5
122 9 180 37 36 18 78 40 93 50 l29 18 37 -42 c71 -79 235 -429 325 -692 52
-150 82 -279 69 -292 -5 -5 -28 5 -57 26 -74 52 -136 70 -246 69 -180 -1 -243
-54 -242 -205 0 -93 16 -132 79 -189 86 -80 225 -123 398 -123 167 -1 280 39
383 136 185 175 207 457 65 837 -45 121 -135 307 -213 437 -33 56 -60 109 -60
117 0 43 716 190 1245 255 1302 161 2644 39 3697 -336 55 -19 102 -33 105 -30
3 3 -4 31 -16 62 -111 296 200 695 523 673 266 -19 496 -256 496 -510 0 -161
-118 -361 -256 -435 l-57 -31 114 -84 c174 -129 591 -401 820 -534 4 -2 43 41
88 95 279 339 720 645 1151 801 428 155 904 203 1390 141 80 -11 146 -18 148
-16 9 9 -201 188 -363 309 -996 746 -2376 1248 -3855 1401 -607 62 -1332 66
-1990 9 -1198 -102 -2511 -408 -3768 -875 -73 -28 -137 -47 -142 -44 -27 17
-155 274 -249 499 -84 201 -163 486 -136 486 4 0 32 -16 61 -35 195 -130 410
-120 464 20 15 37 14 181 0 236 -30 111 -184 190 -396 202 -49 3 -117 1 -152
-4z"/>
</g>
</svg>
