<?xml version="1.0" standalone="no"?>
<!DOCTYPE svg PUBLIC "-//W3C//DTD SVG 20010904//EN"
 "http://www.w3.org/TR/2001/REC-SVG-20010904/DTD/svg10.dtd">
<svg version="1.0" xmlns="http://www.w3.org/2000/svg"
 width="1280.000000pt" height="640.000000pt" viewBox="0 0 1280.000000 640.000000"
 preserveAspectRatio="xMidYMid meet">
<g transform="translate(0.000000,640.000000) scale(0.100000,-0.100000)"
fill="#000000" stroke="none">
<path d="M3495 5139 c-235 -24 -475 -114 -696 -260 -137 -92 -333 -291 -432
-439 -76 -116 -159 -279 -191 -377 l-17 -52 -95 3 c-53 1 -97 -1 -99 -5 -3 -3
-25 -3 -50 1 -49 7 -55 3 -66 -54 -3 -15 -17 -4 -62 51 -49 59 -62 69 -85 66
-15 -2 -240 -26 -501 -53 -261 -28 -476 -52 -478 -53 -2 -2 90 -43 204 -92
115 -49 322 -137 462 -197 140 -59 259 -108 265 -108 6 0 42 20 79 45 66 45
67 45 67 20 0 -17 6 -25 18 -26 42 -2 76 -11 89 -25 15 -15 26 -18 56 -14 10
1 26 -5 35 -13 10 -8 29 -17 45 -21 l27 -6 0 -103 c1 -317 108 -657 293 -932
76 -111 283 -321 390 -394 43 -29 120 -75 170 -102 94 -50 108 -61 43 -34 -20
8 -48 13 -64 11 -15 -3 -67 -8 -117 -11 -49 -3 -101 -8 -115 -10 -14 -2 -45
-7 -70 -10 -62 -8 -169 -33 -203 -47 -64 -25 1 -60 163 -87 117 -19 159 -24
308 -36 31 -2 86 -7 122 -9 568 -47 1695 -70 3410 -70 1715 0 2842 23 3410 70
36 2 91 7 123 9 148 12 190 17 307 36 162 27 227 62 163 87 -34 14 -141 39
-203 47 -25 3 -56 8 -70 10 -14 2 -65 7 -115 10 -49 4 -103 8 -120 10 -45 6
-166 14 -290 20 -60 3 -146 8 -190 10 -231 15 -1152 36 -2015 46 -730 8 -1239
8 -2024 -1 -1004 -11 -1052 -12 -1090 -31 -45 -21 -44 -20 83 62 268 174 497
441 621 726 23 54 44 99 45 100 2 4 117 -17 135 -25 8 -3 26 -6 40 -7 49 -2
195 -27 212 -36 10 -5 33 -9 52 -9 19 0 375 -56 793 -125 417 -69 1260 -209
1873 -310 613 -102 1174 -194 1245 -206 72 -11 139 -24 150 -29 11 -4 65 -13
120 -20 55 -7 113 -18 128 -26 15 -7 34 -11 42 -8 14 6 866 -131 895 -144 8
-3 26 -7 40 -8 58 -4 177 -26 198 -37 22 -10 28 -7 71 38 l47 50 37 230 c21
127 37 240 37 253 0 12 -12 45 -26 73 -23 43 -30 50 -50 45 -21 -6 -166 17
-204 31 -8 3 -24 5 -35 4 -33 -3 -868 138 -892 150 -12 7 -28 9 -35 7 -7 -3
-60 4 -118 14 -58 11 -121 21 -140 23 -36 4 -114 16 -1315 215 -1079 179
-2654 439 -2700 446 -22 4 -49 12 -59 20 -13 9 -25 10 -36 4 -10 -5 -19 -8
-21 -6 -2 2 -46 11 -98 20 -51 9 -98 19 -102 22 -5 3 -41 7 -80 9 -39 2 -76 8
-80 12 -5 5 -14 58 -19 118 -49 513 -324 975 -735 1232 -259 163 -606 244
-910 212z"/>
</g>
</svg>
