<?xml version="1.0" standalone="no"?>
<!DOCTYPE svg PUBLIC "-//W3C//DTD SVG 20010904//EN"
 "http://www.w3.org/TR/2001/REC-SVG-20010904/DTD/svg10.dtd">
<svg version="1.0" xmlns="http://www.w3.org/2000/svg"
 width="1280.000000pt" height="640.000000pt" viewBox="0 0 1280.000000 640.000000"
 preserveAspectRatio="xMidYMid meet">
<g transform="translate(0.000000,640.000000) scale(0.100000,-0.100000)"
fill="#000000" stroke="none">
<path d="M12310 4650 c-30 -10 -134 -42 -230 -70 -96 -28 -281 -83 -410 -121
-129 -39 -296 -88 -370 -110 -74 -22 -178 -53 -230 -69 -52 -16 -157 -47 -232
-69 -76 -23 -200 -59 -275 -82 -76 -22 -181 -53 -233 -69 -52 -16 -156 -47
-230 -69 -74 -22 -241 -71 -370 -110 -510 -152 -576 -171 -605 -176 -28 -6
-32 -3 -60 52 -16 32 -51 79 -76 106 -75 78 -122 60 -141 -55 -8 -45 -8 -89
-1 -148 5 -47 9 -87 7 -88 -1 -2 -49 -17 -105 -34 -57 -16 -115 -40 -129 -52
-19 -15 -103 -41 -296 -89 -771 -192 -1431 -336 -2224 -486 -453 -86 -978
-176 -1465 -251 -36 -5 -93 -15 -128 -20 -512 -83 -1774 -240 -2487 -310 -52
-5 -140 -14 -195 -20 -54 -6 -149 -15 -210 -20 -60 -5 -157 -14 -215 -20 -107
-10 -474 -42 -700 -61 -69 -5 -177 -14 -240 -19 -63 -6 -159 -13 -212 -16 -54
-4 -98 -9 -98 -11 0 -11 57 -92 93 -131 23 -25 36 -42 30 -38 -17 9 -16 1 1
-32 21 -40 54 -68 115 -96 97 -44 123 -44 886 4 2284 146 4711 502 7130 1045
276 62 464 95 539 95 59 0 70 -6 152 -89 43 -43 57 -51 88 -51 22 0 43 7 55
19 21 21 41 79 41 121 1 49 36 107 82 133 37 22 566 190 1668 530 151 47 403
127 560 177 871 279 948 308 987 367 24 37 25 131 2 222 -50 196 -131 259
-269 211z"/>
</g>
</svg>
