<?xml version="1.0" standalone="no"?>
<!DOCTYPE svg PUBLIC "-//W3C//DTD SVG 20010904//EN"
 "http://www.w3.org/TR/2001/REC-SVG-20010904/DTD/svg10.dtd">
<svg version="1.0" xmlns="http://www.w3.org/2000/svg"
 width="1280.000000pt" height="850.000000pt" viewBox="0 0 1280.000000 850.000000"
 preserveAspectRatio="xMidYMid meet">
<g transform="translate(0.000000,850.000000) scale(0.100000,-0.100000)"
fill="#000000" stroke="none">
<path d="M8770 8192 c-89 -132 -325 -459 -418 -580 -255 -333 -406 -478 -764
-733 -293 -208 -375 -268 -503 -369 -211 -166 -491 -406 -610 -522 l-71 -68
-144 11 c-122 10 -170 10 -306 -4 -711 -70 -1349 -447 -1709 -1007 -209 -325
-335 -798 -352 -1320 -9 -290 14 -411 97 -515 66 -84 70 -95 85 -258 22 -233
22 -247 2 -262 -21 -15 -21 -28 0 -85 11 -32 17 -85 18 -185 3 -161 0 -150
151 -610 136 -416 154 -522 128 -727 -17 -136 -40 -228 -115 -456 -83 -255
-87 -300 -28 -366 60 -69 210 -102 410 -92 338 17 568 122 722 331 37 50 89
137 117 194 49 100 112 297 125 391 4 25 9 56 12 70 3 14 6 86 7 160 l3 136
42 74 c22 41 53 113 68 160 24 75 27 101 27 215 -1 154 -17 227 -100 441 -29
77 -60 159 -68 181 l-14 41 46 25 c110 60 308 129 1002 353 491 158 1120 374
1430 489 129 49 254 94 278 101 l43 13 30 -47 c56 -88 88 -216 114 -457 24
-222 45 -310 98 -416 99 -195 310 -442 408 -477 29 -10 59 -5 59 11 0 20 -70
118 -134 188 -151 164 -241 322 -257 451 -6 46 -15 97 -20 114 -5 17 -9 118
-9 225 0 205 -10 286 -56 445 -13 45 -24 91 -24 102 0 12 -12 34 -26 49 -56
60 -174 254 -174 286 0 23 -36 58 -54 51 -9 -3 -17 6 -25 27 -25 72 -5 167 53
254 47 71 61 108 86 221 59 275 32 408 -99 473 -31 16 -110 45 -176 66 -352
107 -422 146 -720 405 -60 53 -140 120 -177 149 l-68 53 28 32 c289 343 426
545 632 936 51 96 113 204 140 240 101 138 186 273 308 485 85 148 506 964
501 969 -2 2 -24 -26 -49 -62z m-171 -4902 c22 -58 25 -85 29 -245 2 -99 2
-178 -1 -175 -3 3 -12 57 -21 120 -19 129 -52 277 -72 326 -11 25 -11 34 -1
38 29 12 43 -2 66 -64z"/>
</g>
</svg>
