<?xml version="1.0" standalone="no"?>
<!DOCTYPE svg PUBLIC "-//W3C//DTD SVG 20010904//EN"
 "http://www.w3.org/TR/2001/REC-SVG-20010904/DTD/svg10.dtd">
<svg version="1.0" xmlns="http://www.w3.org/2000/svg"
 width="868.000000pt" height="1280.000000pt" viewBox="0 0 868.000000 1280.000000"
 preserveAspectRatio="xMidYMid meet">
<g transform="translate(0.000000,1280.000000) scale(0.100000,-0.100000)"
fill="#000000" stroke="none">
<path d="M4671 12323 c-148 -601 -175 -704 -186 -706 -5 -1 -55 121 -110 272
-86 235 -101 269 -108 245 -4 -16 -32 -195 -62 -399 -31 -203 -57 -375 -60
-382 -2 -6 -25 -15 -52 -18 -96 -14 -224 -45 -271 -66 -26 -11 -92 -32 -147
-44 -86 -20 -298 -81 -346 -100 -11 -4 -57 36 -156 136 l-141 143 -7 -120 c-4
-65 -10 -157 -14 -203 l-6 -84 -125 -65 c-371 -190 -671 -382 -869 -554 -24
-21 -51 -38 -59 -38 -9 0 -88 30 -175 66 -87 36 -161 63 -164 60 -5 -5 -3 -12
70 -217 l45 -125 -100 -110 c-256 -277 -476 -584 -663 -921 l-67 -123 -209 0
c-115 0 -209 -3 -209 -6 0 -3 61 -73 136 -155 l136 -150 -52 -132 c-127 -320
-228 -653 -299 -982 -23 -104 -44 -200 -46 -212 -5 -19 -27 -30 -155 -70 -83
-26 -150 -50 -150 -54 0 -4 53 -37 117 -74 65 -37 123 -73 129 -81 8 -10 7
-38 -2 -101 -7 -49 -20 -160 -29 -248 -22 -222 -23 -225 -44 -225 -26 0 -50
-31 -67 -86 -27 -92 -11 -202 43 -280 l26 -39 -13 -380 c-9 -260 -15 -951 -17
-2194 l-4 -1814 43 -44 c311 -321 1100 -714 1528 -762 82 -9 86 -8 142 20 l58
29 0 168 c2 622 20 1896 28 1904 12 12 413 94 632 128 401 62 830 103 1277
120 326 12 643 13 661 1 14 -9 17 45 -68 -1386 -17 -275 -35 -574 -40 -665 -5
-91 -21 -353 -35 -584 l-25 -418 27 -45 c16 -24 37 -46 48 -48 166 -38 625
-90 910 -102 184 -8 646 34 914 83 160 29 454 101 599 145 86 27 102 35 102
53 0 12 -102 630 -226 1374 -147 875 -224 1356 -217 1363 6 6 41 2 99 -12 370
-87 794 -233 1019 -352 l80 -42 6 -410 c3 -225 7 -537 8 -693 l1 -283 43 -19
c23 -11 47 -20 53 -20 6 0 74 41 150 92 178 118 276 213 330 323 l39 79 6
2131 c5 2126 5 2132 26 2161 44 63 58 123 57 239 -1 95 -5 120 -29 185 -27 71
-28 84 -29 244 l-1 170 112 80 c62 45 117 86 123 92 7 7 -27 18 -112 37 -67
15 -125 30 -129 34 -4 5 -15 73 -23 153 -54 483 -160 922 -330 1359 -20 51
-36 97 -36 102 0 4 32 43 70 86 l70 78 -107 5 -108 5 -34 65 c-208 405 -400
704 -620 968 -47 57 -92 112 -99 122 -12 16 -6 39 42 171 31 84 54 154 52 156
-2 2 -64 -21 -137 -51 -74 -31 -142 -56 -153 -56 -10 0 -53 33 -95 73 -257
244 -551 453 -878 623 -71 36 -131 69 -136 73 -4 4 -11 62 -15 129 -5 67 -12
125 -15 129 -4 3 -45 -34 -91 -83 l-83 -89 -55 19 c-44 14 -62 28 -95 70 -38
49 -46 54 -134 83 -52 17 -130 39 -174 48 -44 10 -83 20 -87 24 -4 3 -82 321
-173 706 -92 385 -170 704 -175 708 -4 5 -53 -180 -109 -410z"/>
</g>
</svg>
