<?xml version="1.0" standalone="no"?>
<!DOCTYPE svg PUBLIC "-//W3C//DTD SVG 20010904//EN"
 "http://www.w3.org/TR/2001/REC-SVG-20010904/DTD/svg10.dtd">
<svg version="1.0" xmlns="http://www.w3.org/2000/svg"
 width="1280.000000pt" height="986.000000pt" viewBox="0 0 1280.000000 986.000000"
 preserveAspectRatio="xMidYMid meet">
<g transform="translate(0.000000,986.000000) scale(0.100000,-0.100000)"
fill="#000000" stroke="none">
<path d="M8457 9826 c-76 -46 -161 -113 -299 -234 -131 -115 -208 -198 -208
-224 0 -22 44 -56 91 -68 50 -14 78 -45 131 -144 60 -113 153 -204 293 -286
60 -36 130 -83 155 -105 25 -22 83 -58 128 -80 91 -43 100 -61 61 -114 -22
-30 -18 -78 8 -88 17 -7 56 -82 71 -137 17 -59 29 -44 -276 -331 -58 -55 -65
-58 -85 -46 -20 13 -25 10 -69 -39 -33 -35 -47 -58 -43 -70 3 -9 -3 -26 -12
-37 -37 -43 -940 -856 -1358 -1224 -309 -272 -434 -376 -810 -679 -187 -151
-407 -330 -490 -399 -256 -214 -1795 -1532 -2085 -1786 -151 -132 -473 -409
-715 -615 -522 -445 -664 -568 -970 -839 -126 -112 -450 -393 -720 -625 -654
-562 -950 -822 -1007 -883 -89 -96 -89 -203 -1 -361 41 -74 48 -61 -92 -177
-107 -89 -132 -122 -133 -171 -1 -27 5 -34 39 -49 37 -17 40 -17 72 0 19 10
69 49 113 87 125 110 119 108 222 49 99 -57 165 -75 237 -66 107 13 96 4 1202
993 1201 1073 3403 2992 4588 3997 259 219 502 426 540 460 247 218 665 557
1215 986 568 444 727 562 745 555 12 -4 14 -10 5 -26 -7 -14 -7 -32 0 -62 10
-38 4 -72 -49 -313 -87 -393 -148 -723 -159 -860 -10 -132 -9 -172 14 -485 16
-206 16 -215 -2 -225 -9 -5 -33 -24 -52 -41 -29 -25 -35 -39 -39 -80 -5 -64
20 -105 83 -136 45 -22 48 -27 76 -103 l28 -79 -44 -46 c-24 -25 -49 -55 -55
-67 -10 -20 -9 -23 8 -23 31 0 35 -19 7 -30 -32 -12 -34 -30 -3 -31 14 -1 10
-4 -12 -8 -45 -8 -54 -31 -12 -31 42 0 39 -18 -4 -26 -28 -5 -35 -11 -35 -30
0 -22 3 -24 28 -18 l27 7 -24 -26 c-28 -31 -30 -7 24 -471 19 -171 35 -332 35
-359 0 -47 1 -49 25 -43 32 8 32 -3 0 -29 -24 -19 -25 -28 -35 -180 -12 -175
-5 -342 16 -392 9 -24 19 -33 36 -33 13 0 30 -4 37 -9 12 -8 9 -11 -12 -16
-37 -10 -35 -28 3 -20 27 6 30 4 30 -19 0 -13 -4 -28 -10 -31 -18 -11 -11 -35
10 -35 16 0 20 -7 20 -35 0 -35 18 -85 30 -85 4 0 25 13 47 29 57 41 94 92 92
127 -1 16 3 40 8 54 6 14 8 31 6 38 -3 6 2 12 11 12 19 0 21 11 4 28 -20 20 1
26 23 7 17 -17 22 -17 30 -5 15 24 17 42 39 310 19 231 31 300 44 259 2 -8 17
-68 31 -134 34 -152 82 -302 107 -337 16 -23 27 -28 61 -28 l42 0 -25 -20
c-28 -21 -22 -37 8 -21 37 20 45 14 38 -28 -6 -38 6 -63 19 -41 10 16 25 1 25
-25 0 -13 11 -37 24 -52 l24 -28 26 24 c38 36 88 139 77 160 -5 9 -10 39 -12
66 -2 39 1 49 11 47 10 -2 8 3 -4 17 -24 26 -14 38 19 23 24 -11 25 -10 27 21
2 45 5 27 -51 305 -96 481 -203 820 -344 1087 l-53 100 -57 -3 c-39 -2 -57 1
-57 9 0 7 -9 9 -21 6 -16 -4 -19 -3 -11 5 9 9 7 17 -9 34 l-21 22 28 18 27 18
-29 13 c-16 7 -59 12 -96 13 l-68 0 -34 48 c-20 26 -43 61 -53 79 -16 31 -16
33 2 53 11 13 20 40 22 73 4 51 1 61 -48 127 -8 12 8 44 77 155 100 159 213
377 243 468 60 182 48 394 -34 583 -78 179 -79 222 -9 304 24 29 46 66 50 85
11 62 -18 172 -65 247 -18 28 -31 66 -36 102 -5 43 -13 65 -31 81 -13 12 -24
29 -24 37 0 8 56 56 125 106 69 51 125 97 125 102 0 5 16 16 36 25 19 8 54 30
76 50 23 19 48 35 56 35 7 0 82 -42 166 -92 l153 -93 149 -200 c442 -594 634
-867 645 -913 4 -20 49 -300 99 -622 180 -1159 219 -1409 255 -1645 20 -132
40 -243 43 -247 4 -4 54 4 112 18 58 13 136 31 173 40 214 49 544 190 757 324
232 145 486 344 627 489 101 104 102 106 84 126 -57 64 -544 644 -1152 1375
-383 459 -816 977 -963 1150 -298 353 -345 417 -445 618 -68 136 -76 164 -45
176 8 3 14 12 14 20 0 8 35 39 78 69 42 30 108 83 146 118 l68 63 -4 66 c-6
113 -76 234 -258 444 -81 95 -242 246 -262 246 -25 0 -210 -117 -310 -196 -44
-36 -79 -55 -105 -59 -36 -6 -43 -2 -128 69 -133 111 -120 108 -218 48 -47
-29 -92 -52 -100 -52 -20 0 -37 30 -37 63 0 43 -38 151 -68 192 -16 22 -42 81
-57 130 -52 175 -129 290 -282 425 -51 45 -93 89 -93 98 0 8 7 23 16 33 22 25
11 62 -25 88 l-28 20 -56 -33z m691 -2916 c16 -50 25 -101 26 -150 1 -75 1
-76 -46 -139 -47 -61 -48 -65 -48 -134 0 -75 15 -126 105 -356 20 -52 41 -121
46 -155 19 -117 -30 -277 -167 -546 -104 -202 -175 -315 -199 -315 -24 0 -28
18 -50 270 -21 232 -16 340 26 535 16 80 59 285 94 457 46 222 74 337 99 398
30 73 34 94 29 137 -5 43 -3 53 13 65 33 24 47 11 72 -67z m-195 -2125 c26
-36 47 -71 47 -78 0 -8 -11 -24 -25 -37 -37 -35 -55 -18 -84 74 -38 125 -11
143 62 41z m367 -1244 c0 -12 -29 -35 -36 -28 -11 10 5 37 21 37 8 0 15 -4 15
-9z"/>
</g>
</svg>
