<?xml version="1.0" standalone="no"?>
<!DOCTYPE svg PUBLIC "-//W3C//DTD SVG 20010904//EN"
 "http://www.w3.org/TR/2001/REC-SVG-20010904/DTD/svg10.dtd">
<svg version="1.0" xmlns="http://www.w3.org/2000/svg"
 width="640.000000pt" height="1280.000000pt" viewBox="0 0 640.000000 1280.000000"
 preserveAspectRatio="xMidYMid meet">
<g transform="translate(0.000000,1280.000000) scale(0.100000,-0.100000)"
fill="#000000" stroke="none">
<path d="M4080 12593 c-63 -108 -116 -200 -118 -203 -1 -4 44 -1 100 6 57 7
104 11 106 9 2 -1 -8 -117 -22 -256 -14 -140 -41 -418 -61 -619 -38 -388 -53
-532 -57 -535 -2 -1 -140 -26 -308 -54 -168 -28 -317 -54 -331 -57 l-26 -5 -7
163 c-4 90 -11 251 -16 358 -6 107 -17 344 -25 525 -8 182 -16 354 -17 384
l-3 55 123 21 c67 12 124 24 126 26 6 5 -293 329 -302 328 -8 0 -295 -334
-300 -347 -1 -5 44 -16 100 -26 154 -26 148 -24 137 -49 -11 -28 -52 -235 -78
-397 -59 -371 -97 -678 -116 -953 -9 -117 -29 -136 -139 -124 -107 11 -382
125 -577 240 l-47 28 -6 122 c-4 67 -11 201 -16 297 -6 96 -17 312 -25 480 -8
168 -17 331 -20 363 l-6 57 141 0 c77 0 140 2 140 3 0 6 -250 252 -258 255 -7
2 -251 -279 -260 -298 -1 -4 36 -2 83 5 47 6 85 10 85 8 0 -2 -7 -20 -15 -40
-52 -124 -108 -591 -146 -1208 -11 -184 -11 -192 10 -245 64 -170 320 -289
742 -345 63 -8 142 -15 177 -15 l62 0 0 -31 c0 -17 -5 -85 -11 -151 -6 -65 -9
-121 -7 -123 2 -2 40 -9 83 -14 l80 -9 -70 1 c-67 1 -70 0 -72 -24 -1 -13 -9
-206 -18 -429 -13 -358 -24 -625 -65 -1695 -6 -143 -15 -372 -20 -510 -5 -137
-14 -369 -20 -515 -6 -146 -15 -377 -20 -515 -5 -137 -14 -369 -20 -515 -6
-146 -15 -377 -20 -515 -5 -137 -14 -369 -20 -515 -6 -146 -15 -377 -20 -515
-5 -137 -14 -369 -20 -515 -6 -146 -15 -377 -20 -515 -5 -137 -14 -369 -20
-515 -6 -146 -15 -377 -20 -515 -5 -137 -14 -369 -20 -515 -6 -146 -15 -377
-20 -515 -5 -137 -15 -371 -20 -520 -6 -148 -15 -376 -20 -505 -6 -129 -10
-261 -10 -292 l0 -58 129 0 129 0 6 73 c3 39 13 221 21 402 17 361 69 1457
125 2620 5 110 19 391 30 625 11 234 29 610 40 835 11 226 24 505 30 620 6
116 19 395 30 620 11 226 33 696 50 1045 17 349 39 820 50 1045 11 226 24 502
30 615 5 113 19 396 30 630 11 234 27 558 35 720 8 162 15 305 15 318 0 18 5
23 23 20 l22 -3 3 188 c1 103 6 187 10 187 7 0 866 130 995 151 l69 11 -6 67
c-6 57 -101 1397 -108 1520 l-3 44 98 22 c53 12 99 24 102 27 5 5 -266 376
-275 377 -3 0 -57 -88 -120 -196z m-977 -2380 c-7 -2 -19 -2 -25 0 -7 3 -2 5
12 5 14 0 19 -2 13 -5z"/>
</g>
</svg>
