<?xml version="1.0" standalone="no"?>
<!DOCTYPE svg PUBLIC "-//W3C//DTD SVG 20010904//EN"
 "http://www.w3.org/TR/2001/REC-SVG-20010904/DTD/svg10.dtd">
<svg version="1.0" xmlns="http://www.w3.org/2000/svg"
 width="989.000000pt" height="1280.000000pt" viewBox="0 0 989.000000 1280.000000"
 preserveAspectRatio="xMidYMid meet">
<g transform="translate(0.000000,1280.000000) scale(0.100000,-0.100000)"
fill="#000000" stroke="none">
<path d="M4395 12566 c-130 -30 -245 -89 -381 -194 -163 -126 -214 -204 -214
-328 0 -60 5 -80 30 -128 37 -68 48 -121 60 -281 5 -74 17 -142 29 -179 12
-33 21 -75 21 -95 0 -73 26 -138 97 -242 38 -57 96 -155 128 -217 42 -83 74
-131 120 -178 l62 -65 74 1 c41 1 80 1 87 1 21 -2 14 -60 -10 -84 -13 -13 -29
-34 -36 -47 -7 -14 -21 -38 -31 -55 -28 -43 -25 -57 15 -93 41 -37 46 -39 37
-14 -6 15 -5 15 10 3 9 -7 17 -17 17 -22 0 -5 12 -28 28 -51 15 -22 35 -52 44
-67 21 -30 23 -83 6 -114 -13 -24 -27 -298 -30 -592 l-1 -170 -111 -72 c-62
-40 -134 -84 -161 -100 -28 -15 -65 -38 -84 -50 -32 -22 -43 -23 -205 -23
-182 0 -234 -8 -275 -37 -27 -20 -91 -135 -91 -164 0 -31 71 -223 96 -260 13
-19 24 -43 24 -53 0 -41 46 -76 101 -76 28 0 80 50 99 96 18 40 20 42 89 57
92 21 137 45 208 110 32 30 69 57 83 61 14 4 34 11 45 16 110 49 243 90 295
90 10 0 33 -21 53 -49 20 -27 57 -64 84 -82 61 -42 67 -51 89 -124 10 -33 29
-85 42 -115 80 -183 112 -286 122 -401 17 -192 13 -275 -21 -447 -18 -86 -35
-200 -39 -252 -5 -52 -13 -115 -19 -140 -6 -25 -13 -94 -17 -155 -3 -60 -11
-121 -17 -135 -8 -15 -29 -30 -57 -40 -102 -37 -350 -156 -425 -205 -44 -29
-100 -63 -125 -76 -100 -53 -294 -226 -340 -303 -17 -28 -44 -71 -60 -96 -78
-121 -120 -209 -131 -276 -10 -61 -9 -79 9 -151 20 -79 67 -188 113 -263 25
-40 26 -31 -39 -217 -45 -127 -66 -211 -83 -333 -9 -65 -23 -109 -59 -185 -26
-55 -58 -134 -71 -175 -13 -41 -36 -99 -52 -130 -48 -92 -67 -157 -68 -238 -2
-115 -21 -172 -139 -417 -56 -116 -105 -221 -160 -340 -54 -118 -70 -155 -70
-169 0 -29 -28 -44 -70 -39 -42 6 -42 5 -54 -50 -5 -20 -12 -27 -30 -27 -40 0
-56 -30 -67 -125 -7 -64 -6 -96 2 -119 18 -51 -7 -118 -50 -131 -27 -8 -34
-17 -46 -60 -26 -95 -30 -144 -10 -159 16 -12 17 -19 7 -70 -6 -31 -21 -68
-32 -84 -23 -31 -50 -121 -50 -168 0 -17 -7 -37 -15 -44 -10 -8 -15 -27 -14
-49 3 -41 -8 -81 -22 -81 -5 0 -22 -27 -39 -59 -25 -50 -29 -68 -24 -104 7
-51 3 -62 -76 -172 -32 -44 -70 -104 -84 -132 -17 -35 -40 -62 -68 -80 -54
-36 -99 -129 -96 -198 2 -39 -2 -49 -24 -68 -15 -12 -28 -33 -30 -46 -2 -17
-13 -28 -33 -35 -49 -18 -98 -56 -134 -103 -27 -37 -31 -47 -20 -55 11 -7 11
-11 2 -15 -7 -2 -13 -9 -13 -14 0 -5 -51 -60 -113 -122 -102 -102 -122 -117
-219 -164 -110 -54 -146 -87 -169 -151 -6 -17 -19 -34 -29 -37 -10 -3 -28 -22
-40 -43 -29 -48 -26 -158 5 -193 26 -29 195 -139 215 -139 8 0 29 -9 45 -20
51 -35 98 -51 130 -46 20 4 40 0 60 -14 37 -25 74 -25 114 -3 29 17 32 17 65
-1 27 -14 45 -17 78 -12 57 9 128 42 128 59 0 22 33 47 68 51 37 4 107 57 128
97 8 16 18 29 22 30 4 0 17 2 29 3 33 4 91 53 107 90 16 39 60 76 164 139 l78
47 43 -15 c37 -13 46 -13 80 1 22 9 43 26 50 41 9 19 17 24 34 19 29 -7 85 26
97 58 5 13 14 27 19 31 17 10 14 186 -4 228 -8 20 -19 38 -23 41 -5 3 -12 62
-16 132 -4 73 -13 142 -22 164 -15 37 -15 39 15 81 25 33 30 49 26 73 -5 24 3
47 34 105 23 41 41 75 41 77 0 2 19 45 41 96 53 116 186 360 274 503 110 177
243 411 305 536 58 116 58 117 38 136 -19 20 -19 20 6 81 29 72 66 203 90 317
10 44 19 89 22 100 5 22 45 235 73 385 19 105 25 118 85 199 23 31 74 99 113
151 39 52 80 104 90 115 10 11 31 37 47 58 31 41 44 46 52 20 18 -54 74 -152
105 -183 20 -19 42 -51 48 -70 10 -32 35 -73 84 -143 10 -14 25 -59 34 -99 9
-45 24 -83 39 -101 20 -24 24 -39 24 -94 0 -57 -6 -77 -46 -161 -42 -87 -46
-100 -42 -155 5 -61 11 -71 64 -103 17 -11 17 -14 5 -35 -9 -14 -15 -59 -17
-114 -3 -125 -40 -227 -133 -370 -96 -149 -111 -183 -123 -284 -18 -147 -16
-190 12 -246 19 -39 35 -55 70 -72 77 -37 192 -57 325 -55 106 1 122 4 149 24
17 12 39 21 50 20 29 -2 53 15 68 46 9 18 22 28 40 30 34 4 116 76 124 109 4
16 19 30 40 39 40 17 81 77 99 146 7 30 23 59 38 72 37 31 57 78 57 138 0 61
34 224 51 244 6 8 20 14 30 14 18 0 27 23 44 102 3 15 12 34 21 43 31 31 55
133 56 245 1 93 -2 111 -24 160 -14 31 -41 76 -61 101 -19 25 -40 63 -47 85
-14 44 -44 99 -71 129 -10 12 -28 47 -38 78 -11 32 -29 69 -40 84 -12 14 -17
31 -13 37 4 6 20 30 35 53 36 53 47 120 22 129 -12 5 -23 1 -32 -12 -33 -45
-55 -66 -63 -58 -5 5 -16 37 -25 72 -17 68 -18 66 39 151 34 50 44 90 30 125
-10 26 -30 18 -64 -24 -37 -47 -46 -49 -54 -12 -14 67 -9 139 12 169 11 16 23
45 27 66 l7 37 -33 -2 -33 -3 -14 70 c-7 39 -11 89 -8 113 4 33 1 50 -13 70
-13 18 -27 74 -41 162 -12 74 -28 151 -37 171 -15 36 -15 37 38 135 29 55 70
124 90 155 l38 56 113 31 c62 17 147 36 189 42 73 10 78 10 153 -19 211 -81
384 -59 601 77 47 30 144 128 184 186 125 182 203 486 202 793 0 230 -32 384
-113 553 -59 124 -74 175 -83 290 -4 47 -15 130 -25 185 -10 55 -22 127 -25
160 -7 73 18 460 47 705 16 133 16 523 1 615 -7 39 -20 129 -28 200 -9 72 -23
157 -31 190 -7 33 -16 101 -19 150 -4 50 -11 109 -17 133 -14 56 -4 65 52 47
75 -25 405 -102 590 -139 180 -36 385 -90 408 -108 6 -6 12 -17 12 -25 0 -8
11 -39 25 -69 30 -65 169 -209 260 -268 33 -22 80 -52 104 -69 25 -16 91 -51
148 -78 57 -26 106 -55 109 -63 9 -25 79 -66 144 -86 34 -10 80 -30 101 -45
77 -50 137 -68 234 -69 125 -1 310 28 389 60 35 15 71 24 80 21 14 -6 14 -10
0 -43 -29 -70 -2 -146 44 -118 9 6 36 37 60 70 39 54 42 63 37 104 -4 25 -6
52 -6 60 8 169 6 162 38 175 46 20 47 49 6 122 -19 35 -45 70 -57 77 -11 8
-63 26 -115 40 -90 25 -99 26 -194 16 -54 -6 -102 -8 -105 -5 -4 3 -2 14 4 23
18 28 175 139 240 170 99 48 145 131 91 167 -21 13 -29 13 -80 -5 -31 -11 -64
-20 -74 -20 -25 0 -217 -109 -356 -202 -63 -42 -132 -81 -153 -87 -36 -10 -40
-9 -58 15 -11 15 -37 61 -58 103 -73 142 -143 231 -351 443 -226 231 -274 265
-437 308 -94 25 -210 75 -405 175 -177 90 -236 111 -367 130 -242 34 -276 42
-336 78 -190 115 -320 157 -489 157 -150 0 -253 -28 -425 -116 -89 -45 -156
-53 -226 -25 -30 12 -77 24 -105 27 -57 6 -88 25 -162 94 -27 26 -63 54 -80
61 -16 8 -47 39 -68 69 -35 50 -38 59 -33 100 4 30 16 54 36 75 16 16 44 68
62 115 29 74 33 97 33 175 0 63 -5 100 -17 125 -9 19 -19 67 -22 105 -26 322
-213 566 -500 654 -90 28 -222 35 -301 17z m135 -2002 c0 -8 -4 -12 -10 -9 -5
3 -10 10 -10 16 0 5 5 9 10 9 6 0 10 -7 10 -16z m-20 -44 c0 -5 -4 -10 -10
-10 -5 0 -10 5 -10 10 0 6 5 10 10 10 6 0 10 -4 10 -10z m105 -19 c3 -5 1 -12
-5 -16 -5 -3 -10 1 -10 9 0 18 6 21 15 7z m-130 -11 c3 -5 1 -10 -4 -10 -6 0
-11 5 -11 10 0 6 2 10 4 10 3 0 8 -4 11 -10z m-25 -80 c0 -5 -4 -10 -10 -10
-5 0 -10 5 -10 10 0 6 5 10 10 10 6 0 10 -4 10 -10z m155 -10 c3 -5 1 -10 -4
-10 -6 0 -11 5 -11 10 0 6 2 10 4 10 3 0 8 -4 11 -10z m-20 -40 c3 -5 -1 -10
-10 -10 -9 0 -13 5 -10 10 3 6 8 10 10 10 2 0 7 -4 10 -10z m45 -21 c0 -5 -4
-9 -10 -9 -5 0 -10 7 -10 16 0 8 5 12 10 9 6 -3 10 -10 10 -16z m-70 -25 c0
-8 -4 -12 -10 -9 -5 3 -10 10 -10 16 0 5 5 9 10 9 6 0 10 -7 10 -16z m45 -14
c3 -5 1 -10 -4 -10 -6 0 -11 5 -11 10 0 6 2 10 4 10 3 0 8 -4 11 -10z m45 -14
c0 -8 5 -16 12 -18 6 -2 8 -10 4 -17 -6 -9 -12 -5 -22 14 -17 32 -17 35 -4 35
6 0 10 -6 10 -14z m-26 -32 c9 -3 16 -13 16 -21 0 -20 -34 -12 -38 10 -4 19
-1 20 22 11z"/>
</g>
</svg>
