<?xml version="1.0" standalone="no"?>
<!DOCTYPE svg PUBLIC "-//W3C//DTD SVG 20010904//EN"
 "http://www.w3.org/TR/2001/REC-SVG-20010904/DTD/svg10.dtd">
<svg version="1.0" xmlns="http://www.w3.org/2000/svg"
 width="853.000000pt" height="1280.000000pt" viewBox="0 0 853.000000 1280.000000"
 preserveAspectRatio="xMidYMid meet">
<g transform="translate(0.000000,1280.000000) scale(0.100000,-0.100000)"
fill="#000000" stroke="none">
<path d="M3935 12580 c-55 -9 -127 -45 -192 -97 -35 -28 -49 -33 -95 -33 -67
-1 -77 -9 -163 -135 -38 -55 -88 -121 -112 -147 -40 -44 -43 -51 -43 -105 1
-112 45 -314 81 -364 15 -22 19 -45 19 -113 l0 -86 66 -128 c36 -70 78 -143
93 -162 17 -22 30 -53 34 -84 4 -27 21 -72 37 -102 l31 -53 -22 -47 c-13 -25
-45 -70 -73 -98 -54 -54 -103 -85 -386 -239 -196 -107 -236 -135 -245 -176 -8
-36 10 -81 32 -81 13 0 14 -3 5 -12 -8 -8 -15 -8 -25 1 -17 14 -96 -3 -137
-29 -14 -9 -45 -27 -70 -39 -25 -12 -62 -36 -83 -52 -46 -37 -114 -68 -146
-69 -49 0 -161 -95 -200 -168 -18 -35 -60 -159 -77 -232 -19 -81 -12 -187 22
-355 13 -66 24 -129 24 -139 0 -10 -15 -51 -34 -90 -49 -102 -93 -266 -106
-392 -6 -60 -15 -127 -20 -149 -5 -22 -10 -109 -10 -192 0 -129 2 -153 15
-153 8 0 15 6 15 14 0 14 50 56 66 56 4 0 -2 -10 -13 -22 -12 -13 -31 -43 -44
-68 -12 -25 -50 -75 -83 -111 -87 -94 -141 -227 -185 -454 -38 -195 -61 -362
-76 -565 -8 -113 -22 -243 -30 -290 -19 -108 -19 -134 1 -151 28 -23 18 -65
-91 -424 -32 -104 -42 -194 -25 -226 8 -13 29 -46 49 -72 20 -26 59 -91 86
-144 l50 -96 89 -33 c77 -29 132 -41 198 -43 22 -1 26 -25 38 -236 15 -280 43
-648 65 -870 2 -22 9 -112 15 -200 6 -88 15 -188 20 -221 6 -34 10 -82 10
-108 0 -26 4 -77 10 -114 5 -37 14 -103 21 -147 18 -131 57 -388 69 -456 17
-97 69 -377 81 -439 39 -205 131 -542 171 -627 29 -63 74 -58 111 12 16 29 65
195 92 305 17 72 56 193 66 204 20 23 37 -17 42 -97 3 -45 17 -140 31 -212 87
-437 107 -793 55 -1000 -6 -22 -32 -76 -59 -120 -26 -44 -66 -116 -88 -160
-84 -169 -104 -204 -155 -266 -173 -214 -204 -294 -143 -374 49 -64 57 -66
259 -72 l184 -6 45 27 c24 14 51 26 59 26 8 0 30 13 49 28 19 16 49 37 65 46
41 24 75 75 91 137 15 55 74 170 108 207 11 13 42 35 67 47 25 13 53 35 62 49
36 54 11 277 -47 436 -23 61 -28 93 -42 275 -7 80 17 227 67 415 17 63 36 138
43 165 8 28 41 136 75 240 106 329 142 528 143 780 0 122 -5 193 -17 253 -16
80 -15 132 5 132 5 0 37 -22 72 -48 35 -26 90 -68 123 -93 79 -61 180 -116
232 -127 50 -12 55 -5 38 58 -11 42 -19 106 -45 376 -11 105 -15 448 -6 462 2
4 7 111 10 237 4 127 11 264 16 305 9 71 19 161 41 380 6 52 12 177 15 278 5
178 16 254 33 222 5 -8 16 -91 25 -185 10 -93 21 -186 26 -205 8 -31 19 -174
36 -445 8 -142 25 -285 39 -345 11 -44 12 -99 4 -270 -15 -363 -28 -553 -38
-595 -6 -22 -13 -65 -17 -95 -8 -71 -41 -158 -70 -185 -29 -27 -30 -41 -3 -55
41 -23 163 21 279 99 52 35 65 38 74 14 4 -10 16 -98 26 -198 11 -99 24 -196
29 -215 5 -19 22 -82 36 -140 15 -58 33 -117 41 -131 7 -14 13 -34 13 -45 0
-10 2 -35 5 -54 3 -19 7 -61 11 -93 5 -58 90 -408 106 -438 9 -17 28 -104 61
-274 15 -78 21 -141 19 -217 -5 -231 -5 -275 3 -324 6 -37 4 -65 -7 -100 -47
-151 -48 -316 -3 -409 l29 -58 -7 -157 c-4 -104 -3 -167 4 -186 14 -37 127
-147 177 -172 54 -27 156 -46 237 -44 64 1 185 33 214 55 50 39 77 213 47 302
-9 28 -29 65 -44 84 -56 72 -71 96 -71 120 0 21 -20 71 -55 141 -7 14 -16 43
-20 65 -4 22 -20 70 -36 106 -48 112 -56 153 -36 194 21 44 22 118 2 213 -21
98 -21 335 0 482 9 63 23 162 31 220 8 58 21 177 29 265 7 88 18 183 24 210 5
28 12 73 15 100 9 80 17 114 33 126 11 9 16 8 26 -5 27 -36 237 -471 237 -489
0 -18 132 -235 158 -261 55 -52 65 -39 84 119 9 77 21 178 28 225 6 47 15 114
20 150 13 102 39 266 45 281 2 8 9 52 16 99 30 235 40 326 49 444 6 72 14 155
20 185 5 31 14 130 20 221 5 91 14 203 20 250 5 47 12 110 15 140 13 138 25
493 30 920 3 256 10 528 15 606 12 169 14 579 4 720 -10 152 8 191 58 123 25
-34 66 -59 98 -59 11 0 37 -9 58 -20 31 -17 48 -19 112 -14 41 4 116 19 166
35 88 28 92 31 179 119 120 120 129 140 121 249 -4 47 -14 129 -23 181 -22
133 -19 412 7 680 21 211 28 538 14 618 -14 82 -57 229 -80 274 -13 26 -38 58
-55 70 -17 13 -39 39 -49 59 -10 19 -35 55 -55 79 -22 26 -35 51 -32 61 5 17
-25 59 -42 59 -5 0 -14 14 -22 31 -20 49 -58 89 -84 89 -16 0 -26 8 -31 22
-11 37 -102 148 -193 238 -47 47 -107 109 -132 137 -26 28 -64 60 -85 71 -80
40 -96 51 -134 93 -22 24 -40 52 -40 61 0 9 -4 18 -8 20 -14 6 -61 112 -66
149 -7 46 -61 173 -96 224 -47 67 -146 170 -202 208 -59 41 -181 87 -229 87
-18 0 -61 5 -95 11 -58 10 -68 16 -121 70 -58 58 -59 59 -146 74 -60 10 -128
33 -215 70 -291 127 -358 163 -418 227 -81 85 -102 143 -85 233 8 41 7 68 -1
100 -11 40 -10 46 14 82 14 21 31 56 38 78 7 22 21 58 30 80 40 92 69 554 41
654 -8 27 -29 62 -52 86 -70 73 -73 81 -60 137 34 148 -5 190 -166 181 -76 -5
-101 -2 -145 14 -110 42 -156 48 -253 33z m2427 -3936 c49 -34 87 -54 98 -51
12 3 22 -4 30 -18 10 -19 8 -33 -11 -86 -20 -56 -23 -82 -23 -214 0 -170 14
-261 50 -323 24 -40 26 -56 34 -243 5 -111 5 -211 0 -222 -15 -39 -109 -117
-141 -117 -21 0 -31 84 -41 335 0 17 -9 125 -19 240 -11 116 -19 240 -19 277
0 82 -24 255 -50 362 -34 139 -27 144 92 60z m254 -1566 c3 -5 5 -45 5 -89 -1
-75 -3 -82 -38 -129 -31 -41 -46 -52 -90 -65 -30 -9 -58 -13 -63 -10 -15 9
-30 102 -30 184 0 77 9 104 40 113 27 9 170 6 176 -4z m-4433 -928 c0 -19 -2
-81 -3 -137 l-2 -103 -44 -25 c-51 -30 -85 -32 -109 -5 -15 16 -17 33 -13 108
3 74 9 96 31 135 34 57 51 68 102 64 39 -2 40 -3 38 -37z"/>
<path d="M2141 8224 c0 -11 3 -14 6 -6 3 7 2 16 -1 19 -3 4 -6 -2 -5 -13z"/>
</g>
</svg>
