<?xml version="1.0" standalone="no"?>
<!DOCTYPE svg PUBLIC "-//W3C//DTD SVG 20010904//EN"
 "http://www.w3.org/TR/2001/REC-SVG-20010904/DTD/svg10.dtd">
<svg version="1.0" xmlns="http://www.w3.org/2000/svg"
 width="992.000000pt" height="1280.000000pt" viewBox="0 0 992.000000 1280.000000"
 preserveAspectRatio="xMidYMid meet">
<g transform="translate(0.000000,1280.000000) scale(0.100000,-0.100000)"
fill="#000000" stroke="none">
<path d="M569 11869 c-6 -12 -9 -41 -6 -65 4 -35 28 -76 134 -226 230 -324
2514 -3551 2561 -3616 24 -34 48 -81 54 -104 5 -22 18 -54 30 -70 11 -16 24
-47 29 -69 5 -22 23 -58 40 -81 28 -40 30 -46 24 -104 -5 -46 -3 -68 9 -92 9
-17 16 -44 16 -59 0 -15 18 -64 40 -108 22 -44 40 -85 40 -91 0 -7 20 -28 45
-49 25 -20 52 -50 60 -66 30 -56 99 -70 222 -44 30 7 36 3 105 -70 40 -42 98
-111 129 -153 68 -94 78 -102 126 -109 68 -9 117 12 157 66 20 27 36 57 36 67
-1 40 -116 214 -213 322 -51 57 -48 86 10 90 26 2 56 -4 80 -16 52 -26 108 -8
196 65 22 18 41 23 85 23 31 1 120 7 197 14 148 15 240 40 297 81 58 42 80 52
234 103 125 42 195 70 350 138 6 3 18 -2 27 -10 11 -12 16 -51 21 -173 8 -219
25 -481 36 -588 12 -107 52 -527 75 -780 16 -176 16 -182 -5 -275 -11 -52 -27
-149 -35 -215 -8 -66 -19 -139 -25 -162 -5 -23 -10 -71 -10 -106 0 -36 -4
-109 -10 -163 -5 -55 -14 -166 -20 -249 -9 -139 -13 -160 -59 -295 -50 -150
-94 -263 -156 -410 -60 -140 -87 -233 -164 -560 -56 -237 -53 -483 6 -644 23
-61 26 -86 25 -175 -1 -58 3 -125 9 -150 41 -181 51 -361 23 -427 -17 -40 -16
-71 4 -226 8 -57 27 -89 67 -111 44 -23 183 -46 281 -47 142 0 172 -13 165
-70 -1 -8 -27 -52 -57 -97 -41 -61 -68 -90 -102 -110 -26 -15 -78 -56 -117
-92 -38 -35 -86 -74 -107 -87 -62 -39 -72 -63 -64 -152 9 -101 24 -122 107
-144 87 -24 95 -23 217 17 128 43 233 110 348 221 88 86 111 100 179 109 68 8
134 26 141 37 3 5 10 64 14 131 4 67 13 134 20 148 22 49 43 52 345 50 154 -1
342 3 418 9 163 12 198 4 216 -52 15 -46 48 -219 60 -312 7 -56 15 -84 30
-100 15 -16 21 -35 21 -67 0 -39 -45 -212 -97 -379 -32 -100 -19 -409 19 -470
15 -24 44 -35 131 -51 88 -15 167 -5 230 29 64 34 89 68 143 194 l45 102 -7
192 c-6 171 -5 196 10 218 10 16 26 26 41 26 24 0 246 -101 275 -125 22 -19
280 -148 400 -200 58 -25 113 -51 124 -56 10 -6 53 -22 95 -35 42 -14 93 -36
113 -50 43 -28 77 -30 118 -9 36 19 44 34 65 121 24 96 24 439 1 537 -9 38
-16 81 -16 97 0 15 -9 72 -21 127 -31 142 -38 228 -44 508 -15 656 -22 816
-34 846 -11 27 -26 268 -41 624 -6 132 -12 265 -15 295 -3 30 -5 215 -6 410
-2 496 -25 1080 -55 1350 -8 74 -16 158 -18 185 -6 94 -46 560 -67 780 -11
121 -25 267 -29 325 -28 330 -31 362 -66 570 -8 52 -19 122 -24 155 -31 206
-113 461 -185 575 -42 66 -116 215 -130 260 -4 14 -16 36 -25 50 -10 14 -24
41 -33 61 -17 42 -101 158 -198 275 -73 87 -123 128 -234 189 l-70 39 -339 3
c-361 2 -400 7 -416 49 -19 49 -10 55 124 85 198 43 336 96 336 127 0 21 -36
94 -95 192 -24 41 -56 99 -70 129 -14 30 -40 74 -56 98 -17 24 -42 69 -56 101
-15 31 -41 81 -59 112 -18 30 -39 78 -48 105 -9 28 -29 92 -46 143 -16 51 -30
97 -30 103 0 20 -75 176 -111 229 -43 65 -114 127 -188 165 -48 24 -71 28
-190 35 -75 4 -144 11 -153 15 -43 18 -314 -95 -389 -162 -50 -46 -113 -145
-137 -218 -21 -63 -42 -234 -42 -344 0 -37 -5 -82 -10 -101 -19 -65 -39 -204
-50 -340 -6 -74 -18 -198 -26 -275 -8 -77 -16 -183 -18 -235 -3 -79 -31 -244
-52 -313 -3 -9 -40 -34 -81 -54 -94 -46 -162 -112 -203 -197 -29 -62 -38 -70
-183 -179 -83 -62 -177 -131 -207 -152 -30 -21 -91 -73 -135 -115 -126 -120
-166 -149 -221 -159 -27 -5 -65 -16 -85 -25 -19 -8 -72 -17 -117 -21 -69 -4
-86 -2 -113 14 -32 19 -33 19 -83 1 -28 -11 -88 -26 -133 -35 -44 -8 -106 -24
-136 -34 -59 -20 -152 -36 -279 -47 l-76 -6 -55 56 c-30 31 -59 56 -66 56 -7
0 -23 24 -36 54 -25 55 -38 66 -84 66 -19 0 -38 11 -59 35 -31 33 -47 41 -101
47 -19 2 -179 223 -838 1153 -448 633 -1043 1472 -1321 1865 -279 393 -521
730 -538 748 -27 27 -39 32 -78 32 -36 0 -48 -4 -57 -21z"/>
</g>
</svg>
