<?xml version="1.0" standalone="no"?>
<!DOCTYPE svg PUBLIC "-//W3C//DTD SVG 20010904//EN"
 "http://www.w3.org/TR/2001/REC-SVG-20010904/DTD/svg10.dtd">
<svg version="1.0" xmlns="http://www.w3.org/2000/svg"
 width="1255.000000pt" height="1280.000000pt" viewBox="0 0 1255.000000 1280.000000"
 preserveAspectRatio="xMidYMid meet">
<g transform="translate(0.000000,1280.000000) scale(0.100000,-0.100000)"
fill="#000000" stroke="none">
<path d="M6842 11630 c-45 -5 -108 -16 -140 -25 -81 -24 -224 -101 -268 -146
l-37 -37 69 26 c58 21 86 26 175 26 155 1 171 -19 128 -154 -27 -82 -28 -225
-5 -395 9 -66 23 -253 31 -415 8 -162 22 -378 31 -480 9 -102 13 -214 10 -249
-11 -124 -141 -365 -345 -639 -106 -142 -106 -143 -142 -139 -20 3 -54 16 -75
30 -34 21 -43 35 -58 84 -17 56 -17 62 -2 91 32 62 60 35 72 -66 4 -39 11 -61
18 -59 23 8 49 104 57 212 8 120 6 141 -23 199 -11 22 -21 64 -22 100 -3 48
-12 78 -44 141 -37 73 -40 88 -45 180 -4 65 -13 123 -28 165 -12 36 -91 202
-175 370 -141 283 -228 431 -305 522 l-31 36 21 64 c34 105 45 207 31 295 -14
87 -29 135 -39 128 -5 -2 -11 -38 -14 -79 -4 -41 -15 -98 -26 -126 -22 -58
-79 -150 -92 -150 -6 0 -40 22 -76 50 -134 102 -246 136 -485 151 -139 9 -161
8 -189 -7 -18 -9 -74 -24 -126 -35 -109 -22 -258 -93 -336 -160 -61 -53 -127
-139 -178 -233 -22 -42 -44 -78 -49 -81 -4 -3 -39 11 -78 30 -99 50 -172 125
-219 225 -21 44 -41 80 -45 80 -14 0 -8 -76 12 -154 30 -119 74 -192 204 -340
l48 -56 -31 -77 c-41 -103 -58 -176 -72 -303 -18 -160 -23 -456 -9 -518 12
-52 11 -53 -20 -82 -39 -36 -37 -48 25 -171 32 -63 45 -103 50 -150 9 -90 21
-121 57 -155 l31 -29 -21 36 c-26 43 -28 69 -7 69 14 0 13 3 -1 25 -10 15 -12
25 -5 25 6 0 18 -12 27 -27 10 -16 28 -44 41 -64 23 -36 31 -83 14 -94 -9 -5
30 -89 64 -137 8 -13 15 -30 15 -39 0 -9 8 -15 21 -15 37 2 44 -25 26 -100
-10 -38 -22 -73 -27 -78 -13 -13 -28 -5 -355 173 -148 82 -333 182 -410 223
-77 41 -236 134 -354 207 -117 73 -233 141 -258 152 -24 10 -87 25 -139 33
-101 15 -134 32 -134 70 0 32 23 60 80 96 89 57 35 66 -82 13 -51 -23 -73 -42
-143 -126 -102 -121 -127 -181 -190 -443 -68 -279 -82 -378 -115 -794 -15
-182 -27 -255 -50 -301 -25 -49 -25 -85 0 -129 38 -66 57 -116 114 -299 94
-300 221 -633 312 -813 60 -119 161 -275 171 -264 2 2 -15 42 -38 87 -39 77
-42 92 -47 180 -8 165 29 308 100 385 90 98 231 97 418 -3 190 -102 272 -170
350 -292 92 -141 106 -131 27 20 -35 68 -40 86 -44 166 -4 65 -1 112 11 166
15 68 22 80 58 112 39 33 46 35 110 35 80 0 172 -33 313 -112 115 -65 189
-122 259 -200 62 -70 84 -73 36 -4 -58 85 -77 204 -44 285 19 49 95 114 127
109 20 -3 22 -8 19 -53 -2 -36 3 -59 18 -85 11 -19 25 -46 30 -60 6 -14 20
-30 33 -35 17 -8 26 -26 38 -77 28 -116 86 -222 171 -314 16 -17 33 -44 37
-60 5 -16 14 -28 21 -26 7 1 18 -3 26 -9 11 -9 14 -7 14 10 0 27 17 27 41 -1
l18 -23 2 40 c1 22 1 47 0 55 -5 48 23 317 35 331 8 8 14 23 14 32 0 23 14 21
46 -7 l28 -23 -12 -94 c-7 -57 -9 -108 -3 -130 14 -60 75 -200 96 -223 12 -11
26 -34 34 -50 9 -23 14 -27 21 -16 6 10 15 6 41 -19 25 -25 37 -31 56 -26 16
4 37 -2 61 -16 32 -18 47 -20 102 -15 36 3 90 13 120 22 110 31 101 33 192
-47 81 -70 85 -76 137 -193 29 -67 56 -134 58 -151 3 -16 14 -39 24 -50 10
-12 24 -36 30 -55 7 -19 25 -51 41 -71 15 -20 28 -45 28 -56 0 -10 18 -42 40
-72 24 -31 40 -64 40 -80 0 -18 12 -39 35 -61 20 -19 40 -52 46 -73 6 -22 21
-51 35 -66 13 -14 24 -38 24 -52 0 -16 16 -47 40 -77 22 -27 40 -56 40 -64 0
-8 11 -29 25 -48 14 -19 25 -45 25 -59 0 -14 9 -37 20 -51 11 -14 20 -39 20
-56 0 -35 116 -262 194 -379 29 -44 46 -81 46 -100 0 -42 66 -251 89 -283 10
-15 46 -82 79 -150 33 -67 71 -131 84 -141 20 -17 22 -23 12 -49 -9 -24 -9
-33 3 -45 24 -24 39 -140 24 -182 -10 -28 -10 -39 0 -51 24 -29 59 -149 59
-205 0 -36 5 -61 14 -68 19 -16 29 -63 31 -161 1 -47 8 -98 15 -115 19 -47 24
-112 10 -145 -11 -27 -10 -33 6 -51 22 -25 25 -120 4 -158 -8 -16 -9 -30 -2
-45 33 -73 36 -129 10 -183 -8 -17 -8 -26 3 -39 17 -21 17 -170 0 -202 -8 -16
-7 -38 4 -92 15 -73 9 -140 -15 -155 -6 -4 -4 -17 5 -35 24 -45 20 -171 -5
-203 -13 -16 -16 -28 -10 -32 21 -13 6 -153 -22 -212 -6 -11 -8 -27 -5 -35 2
-7 -2 -29 -11 -48 -13 -32 -33 -124 -33 -160 0 -8 -4 -24 -9 -35 -19 -45 -30
-90 -30 -120 0 -18 -7 -38 -15 -45 -8 -7 -15 -17 -15 -23 0 -6 -9 -20 -20 -31
-10 -12 -26 -47 -34 -79 -8 -32 -22 -64 -30 -73 -9 -8 -19 -27 -22 -42 -7 -26
-60 -103 -77 -110 -18 -8 -36 -33 -32 -45 8 -20 -7 -34 -70 -67 -33 -17 -69
-42 -80 -55 -19 -22 -147 -78 -244 -106 -62 -18 -80 -58 -62 -137 8 -31 16
-74 18 -94 5 -35 7 -37 50 -44 25 -4 144 -5 265 -2 207 4 221 3 226 -14 6 -25
47 -34 287 -57 452 -43 424 -47 504 63 66 91 147 170 264 260 51 39 81 56 88
49 5 -5 16 -43 25 -84 13 -63 14 -93 4 -198 -6 -68 -9 -125 -6 -128 3 -3 26
-8 51 -11 l46 -5 -6 34 c-9 48 13 206 34 254 10 22 44 71 75 110 34 43 58 83
62 105 3 19 13 57 22 83 11 37 13 71 8 144 -7 106 -31 188 -80 278 -39 71 -56
157 -56 282 0 78 9 124 64 344 36 140 76 313 90 384 29 151 56 391 56 499 0
196 -43 440 -120 683 -98 307 -140 611 -111 808 58 388 97 599 132 710 13 39
22 77 20 86 -1 9 17 80 39 158 57 197 87 352 100 516 6 77 15 164 20 194 15
83 12 226 -6 295 -35 136 -128 290 -233 389 -55 51 -147 113 -192 129 -51 18
-33 34 64 58 270 67 554 189 787 338 280 179 514 434 602 656 29 74 32 91 33
191 0 94 -3 116 -22 150 -63 117 -206 168 -366 131 -199 -47 -408 -197 -608
-436 -51 -61 -91 -100 -102 -100 -13 0 -27 18 -45 60 -15 33 -31 59 -37 57 -5
-1 -22 -27 -37 -57 -21 -42 -30 -86 -42 -187 -23 -189 -23 -186 17 -181 17 3
84 19 147 37 113 31 181 69 188 102 1 8 -19 24 -50 39 -29 14 -54 32 -56 41
-8 44 235 307 366 397 151 103 248 142 356 142 201 0 252 -176 124 -423 -166
-318 -593 -629 -1093 -795 -188 -62 -549 -132 -684 -132 -40 0 -101 -4 -135
-10 -33 -5 -119 -17 -191 -25 -71 -9 -162 -21 -200 -27 -68 -11 -72 -10 -112
15 -73 46 -108 120 -169 359 -30 115 -54 219 -54 229 0 29 22 23 61 -17 45
-47 248 -218 276 -233 61 -31 162 5 174 64 12 55 9 125 -6 163 -9 20 -53 75
-99 122 -60 61 -92 104 -115 152 -36 77 -36 78 -16 78 9 0 12 6 9 15 -4 8 -1
15 6 15 9 0 9 4 2 13 -16 19 -62 162 -62 192 0 25 2 26 33 20 17 -4 43 -9 57
-11 l25 -5 -24 18 c-13 10 -43 36 -66 58 -37 35 -44 49 -53 104 -7 35 -25 93
-42 129 -17 37 -30 81 -30 104 0 22 -5 48 -10 58 -22 42 12 28 73 -30 73 -68
91 -99 111 -194 15 -75 28 -93 73 -113 35 -14 83 -18 82 -5 0 4 -21 21 -47 37
-42 27 -48 36 -60 85 -8 30 -19 75 -25 100 -11 47 -44 84 -147 163 -51 40 -99
102 -87 113 3 3 25 -6 50 -20 60 -36 77 -33 40 7 -37 39 -61 83 -65 122 -3 25
2 32 32 47 19 9 54 17 78 18 23 0 42 4 42 10 0 15 48 36 161 69 301 87 538 99
734 35 216 -71 324 -172 405 -377 23 -59 46 -107 51 -107 14 0 11 17 -15 114
-24 85 -24 93 -11 168 18 106 106 289 167 351 77 77 186 85 355 27 110 -38
183 -88 250 -174 31 -39 58 -73 60 -75 2 -2 6 -2 9 2 3 3 -8 32 -25 64 -52 95
-74 212 -69 367 3 112 7 138 27 179 30 62 72 92 148 107 80 16 159 -1 331 -70
150 -61 211 -102 322 -215 136 -138 161 -140 52 -4 -102 128 -134 228 -133
427 0 98 3 121 24 166 45 97 167 166 294 166 141 0 396 -73 552 -157 69 -37
112 -73 239 -197 161 -157 176 -158 60 -4 -168 223 -599 601 -1170 1027 -145
108 -238 185 -280 232 -71 80 -101 99 -155 99 -97 0 -240 49 -841 289 -455
181 -841 308 -1103 361 -118 24 -329 33 -457 20z m-649 -1655 l6 -40 -14 32
c-8 17 -17 51 -20 75 l-5 43 13 -35 c8 -19 17 -53 20 -75z m85 -290 c14 -31
16 -75 3 -75 -14 0 -42 67 -35 84 9 23 19 20 32 -9z m-94 -51 c10 -27 7 -44
-9 -44 -18 0 -30 24 -21 45 7 20 22 19 30 -1z m99 -96 c-3 -6 -12 -3 -20 5 -9
9 -12 20 -8 28 6 9 11 8 21 -6 7 -10 11 -22 7 -27z m-93 -101 c18 -31 9 -43
-19 -25 -23 14 -34 35 -25 49 9 15 27 5 44 -24z m-185 -114 c14 -122 27 -173
66 -255 23 -48 39 -91 35 -95 -3 -4 -25 11 -47 33 -69 66 -129 208 -129 305 0
49 7 57 47 58 19 1 23 -6 28 -46z m172 5 c17 -16 23 -32 23 -66 0 -72 -43 -32
-57 53 -7 40 2 44 34 13z m-317 -218 c0 -5 -4 -10 -10 -10 -5 0 -10 5 -10 10
0 6 5 10 10 10 6 0 10 -4 10 -10z m-1595 -114 c12 -40 12 -46 -1 -46 -18 0
-34 40 -34 83 0 42 17 24 35 -37z m2069 -12 c20 -8 20 -28 1 -44 -13 -11 -20
-9 -40 10 -14 13 -25 27 -25 32 0 9 41 11 64 2z m-186 -149 c4 -16 2 -16 -22
0 -14 10 -26 24 -26 32 0 14 3 14 23 1 12 -9 24 -23 25 -33z m-1828 -100 c0
-37 -10 -48 -34 -39 -20 8 -20 33 0 62 20 29 34 20 34 -23z m1615 -93 c-9 -9
-75 50 -91 81 -14 28 -9 25 40 -22 30 -30 53 -57 51 -59z m723 -8 l3 -29 -22
21 c-12 12 -18 27 -14 34 12 19 30 5 33 -26z m-1808 -1362 c0 -15 -2 -15 -10
-2 -13 20 -13 33 0 25 6 -3 10 -14 10 -23z m-171 -59 c0 -21 -9 -60 -19 -88
l-18 -50 -1 62 c-1 65 11 113 29 113 5 0 10 -17 9 -37z m1504 -1006 c20 -8 46
-23 58 -35 11 -12 30 -22 43 -22 36 0 75 -37 101 -96 13 -30 31 -57 39 -60 9
-3 24 -20 35 -37 11 -18 40 -48 65 -67 25 -19 50 -48 57 -63 6 -15 20 -34 30
-41 10 -7 32 -31 49 -54 16 -23 41 -44 54 -48 14 -3 26 -11 28 -17 2 -7 2
-116 0 -244 -3 -220 -4 -232 -22 -238 -11 -4 -20 -13 -20 -21 0 -8 -7 -28 -15
-43 -13 -26 -12 -32 5 -67 22 -42 25 -64 10 -64 -13 0 -70 88 -70 107 0 32
-44 95 -109 155 -69 64 -69 64 -134 228 -36 91 -97 257 -135 370 -39 113 -82
236 -96 274 -27 70 -32 96 -18 96 4 0 24 -6 45 -13z m1348 -2578 c20 -39 56
-154 51 -167 -2 -7 3 -21 11 -30 8 -9 20 -35 27 -57 7 -22 19 -50 27 -61 7
-12 14 -48 15 -80 1 -41 7 -67 21 -86 25 -33 34 -125 17 -157 -9 -19 -9 -26 5
-41 26 -29 33 -142 11 -176 -17 -24 -17 -27 0 -45 27 -30 30 -111 7 -156 -17
-33 -18 -42 -7 -68 21 -48 18 -154 -6 -192 -17 -29 -18 -35 -5 -60 21 -39 19
-103 -5 -164 -15 -40 -17 -57 -8 -72 5 -11 10 -53 10 -94 0 -62 -4 -80 -22
-105 -16 -22 -19 -33 -11 -41 19 -19 13 -121 -10 -174 -12 -26 -23 -70 -25
-98 -4 -48 -9 -66 -39 -126 -8 -17 -9 -32 -3 -42 9 -18 1 -84 -12 -92 -11 -7
-25 13 -38 53 -7 19 -37 70 -68 115 -72 103 -98 190 -97 327 0 81 9 128 56
315 72 285 92 389 118 587 33 251 19 587 -36 898 -8 47 -15 91 -15 98 0 19 18
14 31 -9z m-259 -2784 c9 -20 8 -28 -5 -42 -8 -10 -17 -29 -19 -43 -3 -28 -55
-59 -100 -60 -17 0 -29 -7 -33 -19 -10 -31 -105 -57 -105 -28 0 20 208 217
230 217 12 0 25 -10 32 -25z"/>
</g>
</svg>
