<?xml version="1.0" standalone="no"?>
<!DOCTYPE svg PUBLIC "-//W3C//DTD SVG 20010904//EN"
 "http://www.w3.org/TR/2001/REC-SVG-20010904/DTD/svg10.dtd">
<svg version="1.0" xmlns="http://www.w3.org/2000/svg"
 width="640.000000pt" height="1280.000000pt" viewBox="0 0 640.000000 1280.000000"
 preserveAspectRatio="xMidYMid meet">
<g transform="translate(0.000000,1280.000000) scale(0.100000,-0.100000)"
fill="#000000" stroke="none">
<path d="M216 12759 c-3 -24 -10 -188 -16 -364 -6 -176 -15 -448 -22 -605
l-11 -285 51 -102 51 -101 20 -259 c11 -142 23 -304 27 -360 5 -78 10 -103 21
-103 22 0 29 -35 42 -205 6 -88 14 -183 17 -211 l6 -51 -39 -6 c-30 -5 -51
-20 -99 -69 l-62 -63 -24 -122 -25 -121 28 -359 c15 -197 33 -387 39 -423 5
-36 15 -162 20 -280 14 -293 42 -436 115 -580 24 -47 143 -226 225 -340 l40
-55 85 -875 c46 -481 89 -920 95 -975 6 -55 73 -748 150 -1540 77 -792 146
-1505 154 -1585 8 -80 65 -662 126 -1295 61 -632 113 -1160 116 -1172 4 -22 9
-23 94 -23 l90 0 -5 38 c-3 20 -55 548 -115 1172 -118 1210 -142 1458 -165
1695 -8 83 -69 706 -135 1385 -66 679 -127 1303 -135 1385 -8 83 -21 220 -30
305 -70 707 -135 1394 -135 1420 l0 30 83 0 83 0 77 -71 c42 -39 77 -66 77
-59 0 6 5 8 10 5 6 -4 200 72 433 168 232 96 429 177 436 179 11 3 36 -39 87
-143 l72 -147 2 -363 2 -364 -35 -109 -36 -110 54 -57 c44 -46 53 -61 47 -80
-5 -20 -7 -21 -10 -6 -2 11 -11 17 -20 15 -15 -3 -17 -23 -17 -174 l0 -170
-30 -36 c-16 -20 -33 -37 -36 -37 -9 -1 -19 138 -19 268 0 292 -63 529 -173
648 -39 43 -102 83 -129 83 -13 0 -98 -125 -98 -145 0 -5 25 -35 55 -64 113
-111 145 -200 152 -423 5 -141 4 -158 -11 -159 -9 -1 -20 -2 -25 -3 -20 -2
-32 -25 -29 -52 2 -21 9 -30 26 -32 24 -4 31 -22 7 -22 -11 0 -15 -13 -15 -54
0 -45 3 -54 20 -59 16 -4 20 -14 20 -51 0 -26 -6 -55 -12 -66 -10 -16 -10 -24
1 -42 9 -14 12 -48 10 -107 -4 -119 11 -322 23 -296 7 17 8 16 4 -5 -29 -150
-106 -721 -99 -732 2 -5 19 -8 38 -8 l33 0 -4 -57 c-3 -32 -13 -207 -24 -390
l-18 -332 29 -143 c16 -79 31 -153 34 -165 5 -22 9 -23 120 -23 l114 0 6 -42
c37 -279 43 -382 44 -773 0 -602 -8 -544 175 -1248 140 -537 156 -607 156
-681 0 -45 -4 -86 -9 -92 -6 -5 -2 -36 11 -81 l21 -71 -49 -72 c-27 -40 -70
-98 -96 -130 -92 -114 -150 -201 -153 -228 -2 -21 12 -46 67 -113 l69 -86 157
-7 c86 -3 219 -9 294 -12 l137 -7 71 68 70 68 0 98 0 97 40 48 c22 27 40 51
40 54 0 3 -11 44 -25 91 -20 71 -23 97 -19 169 5 76 3 93 -21 155 -14 38 -29
74 -33 80 -4 5 -7 71 -8 145 -1 74 -6 358 -13 630 -11 460 -14 511 -42 720
-18 130 -36 229 -43 235 -7 6 -30 123 -53 263 l-40 252 49 228 c26 125 50 236
53 248 4 20 13 21 177 28 95 3 225 7 288 7 l115 2 18 -59 c77 -252 126 -390
178 -492 l60 -117 18 -245 c14 -179 30 -307 61 -475 l42 -230 138 -320 c137
-318 138 -321 164 -470 17 -101 26 -187 26 -262 0 -61 5 -124 10 -138 6 -15
19 -60 30 -102 19 -72 19 -80 3 -236 l-16 -163 42 -76 42 -77 46 -3 c46 -3 47
-4 92 -77 l46 -75 100 -41 c132 -55 221 -65 315 -34 36 11 114 26 175 32 l110
12 22 55 c16 39 22 76 23 128 0 70 -2 75 -46 140 -29 42 -44 58 -41 42 l6 -25
-17 25 c-9 14 -38 47 -65 73 -85 84 -247 279 -247 296 0 9 15 63 34 118 l34
102 -34 54 -34 55 -20 318 c-14 230 -32 418 -66 674 l-47 355 -96 219 c-68
155 -101 221 -116 228 -12 5 -26 23 -32 39 -8 21 -8 27 0 22 6 -4 8 -1 5 8 -3
8 -29 90 -57 183 l-51 168 0 199 0 199 38 0 c37 0 39 -2 92 -92 157 -266 423
-632 476 -654 67 -28 71 -22 232 303 608 1229 885 2174 974 3333 16 214 16
961 0 1180 -29 378 -43 493 -77 624 -69 270 -146 406 -261 462 l-55 27 -360 7
c-198 4 -461 5 -584 2 l-224 -5 -176 118 c-203 135 -365 221 -552 295 -84 33
-134 58 -137 68 -3 10 -14 49 -25 87 -21 73 -36 172 -46 290 -10 131 -28 650
-26 751 2 56 -2 110 -7 120 -6 11 -22 69 -36 130 -36 153 -68 226 -201 459
-63 110 -126 230 -141 268 -24 59 -31 67 -54 67 -22 0 -34 -11 -63 -57 -20
-32 -93 -125 -162 -208 -212 -250 -300 -403 -333 -575 -13 -67 -27 -261 -48
-650 -26 -508 -58 -639 -173 -716 -21 -13 -100 -49 -177 -80 -244 -98 -342
-162 -418 -275 -56 -84 -220 -206 -505 -378 -146 -88 -287 -173 -312 -190
l-47 -29 9 -44 c13 -69 11 -68 -31 20 -21 45 -77 135 -124 200 -46 64 -104
154 -129 200 -24 46 -48 82 -53 80 -5 -2 -12 33 -16 77 -5 44 -17 171 -28 282
l-20 201 49 53 c40 44 49 58 44 80 -3 15 1 37 7 50 17 30 26 414 11 424 -6 3
-11 20 -11 37 0 23 -10 40 -42 69 -24 22 -46 39 -49 39 -4 0 -10 -11 -13 -25
-6 -23 -49 -45 -62 -32 -12 12 -41 421 -32 465 7 37 2 75 -22 192 -17 80 -43
218 -59 307 l-28 162 32 83 c18 46 38 97 45 113 11 26 4 68 -55 340 -71 331
-127 598 -176 840 -17 83 -34 154 -39 159 -5 4 -11 -11 -14 -35z m361 -3225
c-3 -3 -12 -4 -19 -1 -8 3 -5 6 6 6 11 1 17 -2 13 -5z m570 -1966 c-3 -8 -6
-5 -6 6 -1 11 2 17 5 13 3 -3 4 -12 1 -19z"/>
</g>
</svg>
