<?xml version="1.0" standalone="no"?>
<!DOCTYPE svg PUBLIC "-//W3C//DTD SVG 20010904//EN"
 "http://www.w3.org/TR/2001/REC-SVG-20010904/DTD/svg10.dtd">
<svg version="1.0" xmlns="http://www.w3.org/2000/svg"
 width="1280.000000pt" height="1279.000000pt" viewBox="0 0 1280.000000 1279.000000"
 preserveAspectRatio="xMidYMid meet">
<g transform="translate(0.000000,1279.000000) scale(0.100000,-0.100000)"
fill="#000000" stroke="none">
<path d="M376 12738 c-80 -109 -135 -273 -157 -468 -16 -147 -6 -249 40 -411
78 -269 120 -538 107 -683 -15 -168 -56 -352 -104 -471 -11 -27 -52 -115 -90
-195 -97 -203 -137 -328 -167 -527 -6 -40 -5 -43 25 -62 18 -11 73 -36 123
-57 49 -21 105 -53 124 -71 44 -40 42 -51 -33 -188 -134 -246 -168 -324 -172
-394 -6 -115 42 -168 270 -297 l117 -66 -24 -38 c-48 -76 -68 -156 -69 -270
l-1 -105 60 -108 c65 -117 106 -167 137 -167 17 0 19 -4 12 -27 -19 -61 -9
-128 27 -188 97 -162 301 -323 498 -395 137 -50 236 -52 304 -6 l35 24 11 -38
c6 -20 11 -70 11 -109 0 -212 183 -448 483 -622 39 -24 106 -75 147 -114 144
-138 354 -250 545 -290 72 -15 85 -21 85 -38 0 -36 68 -224 116 -318 93 -187
234 -375 435 -584 116 -120 116 -120 169 -245 297 -708 424 -1105 529 -1655
105 -552 132 -771 138 -1135 6 -346 -4 -427 -68 -559 -78 -158 -174 -230 -519
-388 -108 -50 -214 -102 -237 -116 -78 -49 -175 -187 -214 -304 -28 -84 -22
-138 25 -232 45 -88 87 -136 133 -152 41 -13 110 -6 152 16 28 14 29 13 35 -9
9 -36 53 -84 97 -106 75 -39 163 -20 244 52 l36 31 30 -36 c38 -46 158 -107
211 -107 22 0 108 22 191 49 96 31 178 51 222 54 146 12 284 84 415 216 143
145 201 270 199 427 -2 86 0 93 29 133 54 74 92 208 122 431 6 47 27 156 46
244 27 127 41 169 69 215 50 81 47 105 -25 231 -33 57 -67 112 -76 121 -31 34
-43 391 -24 689 33 510 33 510 20 780 -15 295 -19 645 -7 673 6 16 13 12 49
-30 106 -123 148 -226 243 -598 87 -340 135 -456 250 -609 l67 -88 -13 -283
c-19 -459 -4 -557 151 -960 103 -271 140 -388 140 -449 0 -67 -24 -136 -89
-260 -33 -65 -61 -128 -61 -141 0 -30 -57 -80 -128 -113 -29 -13 -125 -42
-213 -63 -88 -22 -181 -49 -207 -61 -135 -64 -264 -299 -292 -536 -7 -52 -9
-97 -5 -100 3 -4 30 -7 60 -7 78 -2 123 -26 169 -92 56 -79 151 -179 186 -193
51 -21 184 -9 254 23 56 26 60 27 69 10 6 -10 34 -42 64 -71 54 -54 127 -94
193 -106 72 -13 252 40 351 103 40 25 48 27 64 15 44 -32 174 -5 347 71 62 28
118 60 140 82 46 45 90 126 118 222 27 87 25 130 -15 310 l-28 123 22 202 c36
322 65 441 147 596 l36 69 -26 106 c-34 139 -90 447 -110 605 -35 277 -38 392
-31 1030 8 677 7 688 -46 905 -16 66 -31 128 -33 138 -4 15 -1 15 26 -4 44
-32 131 -56 248 -70 123 -14 191 -8 296 26 90 28 132 31 160 11 18 -14 19 -30
20 -308 1 -236 4 -308 18 -372 61 -281 218 -520 433 -662 107 -70 229 -192
270 -269 49 -93 74 -188 80 -300 9 -168 -31 -325 -137 -535 -26 -52 -49 -118
-60 -170 -26 -124 -75 -267 -112 -330 l-33 -55 -67 -7 c-129 -12 -195 -46
-392 -198 -57 -43 -121 -103 -144 -132 -55 -71 -126 -222 -158 -337 -25 -88
-26 -98 -14 -162 13 -73 68 -197 118 -265 l30 -41 111 -13 c101 -11 113 -11
130 4 17 15 19 14 48 -21 16 -21 52 -49 79 -63 42 -21 63 -25 139 -25 82 0 95
3 148 32 l58 32 73 -35 c106 -50 150 -53 271 -14 159 51 232 90 297 156 116
121 287 337 303 382 20 61 19 151 -5 302 -33 211 -23 295 55 456 70 145 173
271 307 379 34 27 39 36 48 100 25 176 -9 818 -51 959 -44 148 -194 402 -360
609 l-88 110 4 76 c3 42 7 144 10 226 5 150 11 195 25 195 12 0 75 -100 139
-221 222 -420 494 -1137 563 -1482 17 -87 21 -153 24 -447 8 -558 0 -588 -226
-875 -91 -116 -330 -474 -373 -560 -65 -129 -72 -239 -22 -340 26 -54 156
-187 220 -227 46 -28 141 -24 222 8 l65 26 72 -71 c81 -80 118 -97 179 -80 47
12 102 46 136 83 14 14 29 26 34 26 5 0 29 -18 54 -40 25 -22 70 -52 99 -66
69 -34 105 -29 189 26 58 38 66 47 90 108 14 37 66 141 115 232 73 137 94 186
120 285 17 66 44 149 58 185 23 55 27 80 26 155 0 80 -5 101 -38 185 -95 238
-144 641 -117 955 17 203 61 526 77 568 27 72 20 102 -53 210 -108 160 -151
317 -140 505 3 53 15 131 26 172 20 76 58 178 72 194 13 14 28 -63 69 -337 65
-445 110 -579 281 -833 122 -181 367 -449 574 -624 145 -124 129 -115 169 -91
110 68 180 208 231 458 35 174 39 182 55 109 30 -145 109 -366 131 -366 14 0
118 193 174 323 162 375 270 833 282 1202 4 124 0 201 -16 345 -80 703 -242
1359 -487 1977 -90 224 -120 363 -204 923 -95 634 -196 982 -350 1210 -20 30
-92 152 -159 270 -147 257 -202 338 -300 443 -109 116 -220 195 -356 254 -27
12 -116 51 -197 87 -701 313 -1361 485 -2474 645 -326 47 -398 79 -704 310
-285 215 -401 282 -561 322 -68 18 -102 20 -208 16 -69 -3 -162 -10 -206 -17
-95 -14 -265 -7 -348 15 -129 34 -225 99 -433 293 -252 236 -265 243 -612 362
-400 136 -508 185 -650 292 -173 131 -180 140 -284 350 -109 223 -215 414
-296 537 -88 134 -385 422 -491 476 -31 16 -36 16 -84 0 -68 -22 -128 -62
-282 -188 -208 -170 -242 -204 -358 -349 -74 -94 -117 -140 -135 -145 -15 -5
-137 -8 -272 -8 -433 1 -602 44 -930 240 -58 34 -208 124 -335 200 -325 193
-486 268 -604 281 -46 5 -46 5 -85 -48z"/>
</g>
</svg>
