<?xml version="1.0" standalone="no"?>
<!DOCTYPE svg PUBLIC "-//W3C//DTD SVG 20010904//EN"
 "http://www.w3.org/TR/2001/REC-SVG-20010904/DTD/svg10.dtd">
<svg version="1.0" xmlns="http://www.w3.org/2000/svg"
 width="1024.000000pt" height="1280.000000pt" viewBox="0 0 1024.000000 1280.000000"
 preserveAspectRatio="xMidYMid meet">
<g transform="translate(0.000000,1280.000000) scale(0.100000,-0.100000)"
fill="#000000" stroke="none">
<path d="M5743 11975 c-207 -45 -409 -264 -513 -558 -16 -45 -34 -101 -40
-124 -7 -28 -16 -43 -27 -43 -13 0 -14 -7 -9 -42 l7 -41 -47 69 c-70 104 -229
298 -281 344 -85 75 -84 57 13 -150 138 -298 170 -393 184 -555 9 -113 29
-227 45 -268 6 -14 15 -18 34 -14 l26 6 -3 -107 c-2 -59 1 -140 8 -180 12 -72
11 -75 -14 -110 -22 -31 -41 -41 -143 -78 -483 -171 -771 -316 -1049 -529 -67
-51 -82 -60 -90 -47 -14 21 -53 6 -60 -24 -7 -28 -62 -74 -88 -74 -20 0 -63
-28 -116 -74 -19 -17 -61 -40 -93 -51 -43 -14 -70 -32 -100 -65 -42 -45 -167
-130 -193 -130 -7 0 -53 -20 -101 -45 -48 -25 -95 -45 -104 -45 -24 0 -32 -30
-14 -50 15 -17 10 -22 -82 -84 -55 -36 -158 -93 -229 -127 -71 -33 -161 -76
-201 -95 -39 -19 -78 -31 -86 -28 -25 9 -157 -66 -205 -116 -168 -177 -542
-548 -613 -608 -87 -72 -106 -81 -126 -61 -18 18 -51 0 -63 -35 -12 -38 -34
-60 -70 -71 -33 -10 -60 -34 -60 -54 0 -18 -62 -58 -320 -207 -354 -203 -396
-232 -538 -364 -74 -69 -144 -136 -154 -150 -25 -34 -85 -361 -72 -394 3 -8
15 -18 27 -22 32 -10 48 18 101 173 26 76 57 147 68 158 17 17 16 12 -6 -32
-38 -77 -34 -114 25 -245 79 -177 139 -244 168 -190 7 14 -2 60 -35 177 l-45
158 37 54 c50 72 56 73 28 5 -34 -83 -31 -124 21 -254 62 -154 78 -180 113
-176 26 3 27 5 26 56 -1 29 -14 98 -29 153 l-28 100 39 77 c31 62 44 78 64 80
l25 3 -9 -89 -9 -89 56 -79 c86 -122 97 -134 117 -134 27 0 42 24 34 57 -3 15
-24 62 -46 103 -45 85 -46 105 -5 194 32 69 93 147 168 215 61 54 118 130 159
210 58 116 223 234 570 410 224 114 224 114 253 98 40 -24 54 -21 72 13 17 33
83 75 135 85 54 11 148 65 195 111 23 24 82 66 131 95 49 28 136 84 194 124
58 40 116 76 130 80 73 22 145 73 233 165 80 85 104 104 187 146 88 44 101 48
175 49 66 2 93 8 155 35 91 39 113 57 106 86 -6 22 10 28 209 84 59 17 296 29
383 19 91 -10 183 -51 246 -110 65 -59 111 -158 143 -304 24 -111 26 -137 24
-340 -4 -578 78 -815 305 -881 62 -18 135 -20 267 -10 86 7 97 6 97 -8 0 -9
-8 -16 -19 -16 -37 0 -46 -28 -49 -149 -4 -104 -6 -119 -28 -148 -13 -18 -27
-45 -30 -61 -6 -29 -8 -30 -82 -37 -143 -13 -325 -76 -541 -185 -108 -55 -244
-128 -302 -163 -70 -43 -111 -62 -120 -56 -15 9 -52 -18 -43 -33 9 -13 -36
-46 -89 -64 -32 -11 -58 -28 -80 -56 -35 -44 -161 -144 -217 -173 -41 -21 -80
-54 -80 -69 0 -6 -116 -121 -257 -256 -176 -168 -268 -249 -292 -257 -46 -15
-156 -130 -222 -230 -27 -41 -49 -79 -49 -83 0 -4 -54 -72 -120 -151 -66 -79
-133 -169 -150 -200 -64 -120 -85 -278 -55 -407 24 -103 62 -164 175 -286 25
-26 56 -71 70 -100 16 -32 38 -59 60 -73 67 -41 56 -26 298 -433 87 -147 252
-471 252 -495 0 -17 57 -132 70 -140 13 -8 91 -175 165 -352 67 -160 93 -252
82 -295 -9 -33 -247 -237 -379 -325 -126 -83 -171 -102 -284 -119 -117 -18
-181 -41 -248 -93 -29 -23 -60 -41 -69 -41 -21 0 -37 -30 -37 -68 0 -21 9 -38
30 -56 46 -38 96 -49 186 -42 118 10 133 10 206 -5 90 -17 184 3 327 72 194
93 222 99 571 108 244 6 257 7 305 31 38 19 55 36 73 70 34 66 28 209 -16 335
-64 189 -162 456 -221 602 -33 83 -66 173 -72 200 -6 26 -17 57 -24 68 -22 37
-55 162 -55 212 -1 51 -21 146 -37 179 -14 26 -33 177 -30 246 1 40 -3 62 -15
75 -9 10 -19 38 -23 63 -13 81 -65 223 -116 320 -48 90 -86 140 -190 257 -59
66 -64 85 -31 119 39 38 192 147 243 173 24 12 78 42 119 66 41 25 85 45 97
45 30 0 184 45 222 64 16 9 53 38 81 66 35 34 88 69 162 106 60 30 200 107
311 171 393 226 721 368 1057 455 149 39 253 56 351 57 l46 1 6 -61 c4 -48 15
-78 55 -147 59 -104 78 -177 122 -484 34 -235 50 -309 135 -633 32 -121 59
-242 59 -270 1 -36 12 -70 39 -123 20 -41 37 -84 37 -97 0 -35 18 -75 33 -75
8 0 22 -21 32 -47 37 -99 166 -357 209 -417 58 -82 88 -107 263 -223 171 -113
215 -132 394 -173 176 -40 229 -58 223 -74 -7 -20 16 -34 107 -66 98 -34 335
-167 342 -192 3 -10 42 -35 86 -57 123 -60 369 -254 557 -439 74 -72 99 -105
130 -168 l39 -79 3 -151 c3 -118 -1 -184 -17 -300 -31 -210 -33 -214 -124
-308 -165 -168 -190 -251 -90 -293 43 -17 93 -17 121 3 18 12 22 13 22 1 0
-20 43 -57 68 -57 12 0 31 13 43 30 l22 30 11 -23 c30 -59 106 -39 127 33 7
22 16 40 20 40 4 0 2 -14 -4 -31 -11 -28 -10 -33 12 -50 45 -37 88 -18 112 49
6 18 15 32 19 32 5 0 2 -16 -5 -34 -14 -33 -14 -36 7 -50 37 -26 62 -19 110
32 25 26 57 55 72 65 38 26 73 93 96 182 18 70 20 111 20 414 0 185 5 390 10
456 22 286 -56 444 -232 471 -53 9 -91 34 -237 160 -201 173 -291 264 -353
357 -32 49 -72 106 -89 128 -17 22 -62 99 -99 172 -38 72 -74 131 -80 129 -6
-1 -9 2 -6 7 4 5 -9 22 -27 38 -19 15 -48 49 -65 75 -38 55 -80 91 -100 83 -7
-3 -27 4 -43 16 -90 64 -275 127 -424 145 -33 4 -70 13 -82 21 -12 8 -46 17
-77 20 -64 7 -82 22 -89 78 -3 22 -13 65 -23 95 -25 78 -32 317 -10 372 18 44
21 89 6 104 -6 6 -6 43 1 104 6 52 14 217 18 366 4 149 10 275 14 280 8 14
-10 136 -21 143 -5 3 -14 47 -20 96 -7 50 -25 167 -41 260 -16 94 -37 228 -46
299 -15 118 -60 306 -99 415 -9 24 -13 53 -10 65 7 29 -48 197 -85 261 -16 28
-52 78 -80 112 -72 89 -90 129 -84 185 5 38 0 59 -26 113 -17 36 -40 79 -51
96 -22 29 -57 38 -76 19 -7 -7 -43 41 -109 141 -134 202 -128 192 -111 232 28
69 47 182 45 267 -2 55 3 106 14 145 21 75 67 446 67 536 0 65 -14 99 -41 99
-5 0 -9 48 -9 108 0 140 -13 250 -52 451 l-32 164 34 29 c43 35 76 45 211 60
103 11 107 11 134 -10 15 -12 41 -22 57 -22 18 0 59 -18 102 -44 92 -58 144
-70 259 -63 84 6 99 4 186 -25 118 -39 148 -68 226 -208 125 -228 150 -269
227 -384 80 -119 80 -119 64 -147 -12 -20 -14 -34 -7 -51 10 -26 109 -116 182
-166 64 -43 194 -237 377 -562 17 -30 45 -100 62 -155 18 -55 45 -129 61 -164
16 -35 28 -65 27 -66 -39 -21 -58 -39 -58 -54 0 -29 26 -44 64 -37 33 6 34 5
44 -35 8 -34 8 -45 -4 -56 -8 -8 -14 -18 -14 -23 0 -19 13 -40 25 -40 7 0 20
-20 30 -45 9 -25 28 -53 42 -62 22 -15 26 -15 53 5 15 12 56 31 91 42 102 35
247 117 265 151 8 16 17 29 20 29 7 0 -3 -113 -17 -209 -12 -80 2 -134 34
-129 24 3 45 54 91 213 38 131 36 141 -43 285 -38 69 -72 142 -75 163 -9 51
-66 107 -178 175 -153 92 -323 226 -362 284 -24 34 -32 56 -26 62 15 15 12 45
-15 120 -28 81 -30 84 -55 68 -17 -10 -21 -6 -38 41 -11 29 -45 144 -76 257
-123 441 -167 555 -291 741 -83 124 -161 204 -307 314 -105 77 -118 91 -118
117 0 21 -11 41 -34 64 -34 34 -52 39 -126 35 -26 -1 -61 12 -135 54 -55 30
-144 72 -197 93 -60 23 -96 42 -93 49 2 7 -12 17 -33 24 -20 7 -65 25 -99 40
-35 16 -63 24 -63 19 0 -20 -28 -8 -119 51 -52 33 -125 76 -162 95 -149 74
-347 109 -597 102 -67 -2 -122 0 -122 3 0 3 27 42 59 86 72 99 177 183 416
332 164 103 183 117 171 128 -18 18 -321 -69 -491 -142 l-40 -17 22 23 c16 17
19 26 11 39 -8 12 -3 41 20 116 44 145 52 193 52 317 0 239 -54 403 -169 509
-63 59 -91 77 -216 137 -110 53 -242 90 -366 101 -128 12 -130 11 -206 -5z
m847 -1215 c-6 -11 -13 -20 -16 -20 -2 0 0 9 6 20 6 11 13 20 16 20 2 0 0 -9
-6 -20z m1057 -1416 c-3 -3 -12 -4 -19 -1 -8 3 -5 6 6 6 11 1 17 -2 13 -5z
m1819 -1961 c-5 -39 -13 -54 -43 -80 -21 -18 -41 -33 -45 -33 -5 0 -8 18 -8
40 0 29 5 42 20 50 11 6 27 24 35 40 9 17 23 30 32 30 13 0 15 -8 9 -47z m134
-112 c0 -11 -14 -28 -32 -39 -18 -11 -60 -36 -92 -56 -33 -20 -63 -36 -68 -36
-22 0 0 20 76 68 46 29 87 59 90 67 8 21 26 18 26 -4z m-4173 -228 c-3 -10 -5
-2 -5 17 0 19 2 27 5 18 2 -10 2 -26 0 -35z m950 -1495 c-3 -8 -6 -5 -6 6 -1
11 2 17 5 13 3 -3 4 -12 1 -19z m-3197 -112 c0 -2 -8 -10 -17 -17 -16 -13 -17
-12 -4 4 13 16 21 21 21 13z m-95 -104 l-28 -27 23 33 c12 18 25 31 28 27 3
-3 -7 -18 -23 -33z"/>
</g>
</svg>
