<?xml version="1.0" standalone="no"?>
<!DOCTYPE svg PUBLIC "-//W3C//DTD SVG 20010904//EN"
 "http://www.w3.org/TR/2001/REC-SVG-20010904/DTD/svg10.dtd">
<svg version="1.0" xmlns="http://www.w3.org/2000/svg"
 width="640.000000pt" height="1280.000000pt" viewBox="0 0 640.000000 1280.000000"
 preserveAspectRatio="xMidYMid meet">
<g transform="translate(0.000000,1280.000000) scale(0.100000,-0.100000)"
fill="#000000" stroke="none">
<path d="M2774 12719 l-69 -69 -5 -78 -5 -77 -145 3 c-80 1 -159 4 -177 7 -29
5 -40 -1 -105 -61 -49 -45 -73 -75 -73 -90 0 -12 -9 -32 -20 -44 -14 -16 -16
-24 -7 -27 17 -6 15 -32 -4 -40 -8 -3 -29 -30 -45 -59 -32 -56 -39 -60 -129
-66 -33 -3 -39 -9 -111 -128 -66 -107 -77 -133 -82 -182 -3 -32 -2 -58 2 -58
5 0 45 48 91 108 126 162 126 162 182 162 28 0 48 -5 48 -11 0 -6 -38 -79 -85
-162 -71 -124 -94 -177 -135 -307 -28 -86 -50 -159 -50 -163 0 -4 11 -5 25 -1
20 5 25 2 25 -13 0 -35 -47 -158 -60 -158 -18 0 -71 151 -64 181 5 17 -10 67
-46 162 -29 75 -58 143 -64 149 -6 7 -38 15 -71 19 -59 6 -61 5 -117 -37 -50
-37 -58 -47 -58 -75 0 -46 86 -284 114 -314 13 -14 96 -195 186 -403 l162
-378 -20 -47 c-11 -26 -22 -63 -26 -83 -6 -34 -12 -38 -98 -79 -50 -24 -93
-40 -95 -34 -10 28 -65 114 -74 114 -33 0 -91 -44 -111 -84 l-21 -43 82 -154
c44 -85 85 -160 89 -167 15 -22 102 7 121 41 19 32 59 47 72 26 5 -8 7 -19 5
-25 -2 -6 -10 -65 -17 -130 l-12 -119 -61 -65 c-185 -195 -200 -239 -183 -524
10 -158 9 -191 -12 -357 -27 -223 -46 -330 -73 -412 -23 -71 -72 -172 -89
-182 -6 -4 -43 -10 -82 -14 l-72 -6 -51 -135 c-29 -74 -50 -138 -48 -141 2 -4
35 -16 73 -28 83 -25 94 -36 81 -80 -40 -142 -61 -351 -69 -691 l-6 -295 -35
-11 -35 -12 3 -103 c2 -57 7 -209 13 -338 l10 -234 -76 -138 c-90 -164 -105
-204 -105 -275 0 -60 24 -129 94 -274 l46 -96 115 -27 c103 -25 118 -26 143
-14 15 8 52 22 82 30 30 9 63 22 74 30 28 21 46 162 56 457 11 332 36 494 122
794 29 102 37 145 30 160 -8 19 39 222 102 440 40 135 39 42 -4 -519 -6 -77
-19 -279 -30 -450 -11 -170 -40 -610 -65 -978 -25 -367 -45 -684 -45 -705 0
-43 61 -130 173 -248 l68 -72 29 -168 c58 -335 93 -494 132 -606 27 -78 29
-89 15 -102 -38 -39 -34 -284 8 -456 42 -175 37 -165 112 -192 42 -15 68 -30
74 -43 10 -25 45 -272 59 -420 22 -242 7 -481 -40 -625 -97 -294 -306 -481
-825 -741 -132 -66 -241 -124 -243 -128 -1 -4 81 -40 182 -81 l185 -73 78 6
c111 9 1165 106 1182 109 11 3 14 67 16 373 1 204 8 422 14 485 35 342 91 652
178 983 l36 138 47 34 c26 19 66 55 88 80 51 55 53 76 17 243 -26 121 -55 183
-121 260 -17 21 -49 74 -72 118 -22 45 -79 144 -126 220 -47 78 -81 143 -76
148 5 5 53 3 112 -5 143 -18 517 -16 692 5 77 9 143 13 148 8 4 -4 19 -63 33
-130 13 -67 31 -149 40 -182 11 -42 17 -119 19 -243 3 -195 18 -280 70 -392
22 -48 29 -54 74 -69 28 -10 55 -22 60 -29 14 -17 92 -229 142 -382 140 -431
206 -836 216 -1325 l6 -255 -186 -264 c-102 -145 -184 -266 -182 -270 29 -57
140 -241 144 -241 4 0 23 4 42 9 19 5 125 17 235 26 110 9 233 23 273 30 176
34 271 116 397 344 l45 81 -30 122 c-36 145 -84 417 -102 578 -18 155 -15 880
3 1135 l14 190 -27 130 c-15 72 -28 135 -28 142 0 6 20 23 45 37 l45 27 0 67
c0 86 -22 175 -67 282 -45 106 -119 236 -138 244 -8 3 -28 33 -46 68 -17 35
-78 150 -136 256 -58 106 -103 198 -100 206 3 7 26 18 52 25 30 8 45 16 42 24
-166 376 -304 1069 -421 2117 -69 613 -144 1556 -126 1574 5 5 23 -2 42 -16
18 -14 56 -38 83 -54 28 -15 53 -33 57 -39 4 -5 67 -158 139 -339 125 -312
131 -330 114 -342 -10 -8 -25 -14 -33 -14 -17 0 -23 25 84 -357 l84 -302 -64
-128 c-112 -224 -149 -361 -150 -562 l-1 -135 34 -23 c19 -13 39 -23 46 -23 6
0 34 55 62 123 27 67 54 121 59 120 18 -3 36 -80 37 -163 2 -100 -6 -120 -128
-300 -41 -62 -75 -119 -75 -127 0 -8 13 -28 29 -44 55 -54 87 -37 197 103 99
126 112 126 75 0 -12 -38 -21 -77 -21 -86 0 -28 55 -19 138 23 l77 39 67 119
c128 226 149 325 126 588 -13 156 -13 163 9 270 32 156 69 417 93 655 11 113
22 222 25 243 6 43 6 43 -78 52 -47 5 -60 11 -67 28 -4 12 -23 178 -41 369
-30 319 -32 349 -17 365 45 51 48 272 6 418 l-24 80 -78 31 c-43 18 -82 36
-87 41 -14 14 -107 285 -135 393 -30 118 -40 255 -25 335 10 53 8 74 -19 205
-41 192 -74 290 -118 349 -41 53 -106 111 -162 144 -28 16 -45 37 -68 88 -55
118 -173 203 -372 267 -126 41 -449 125 -477 125 -13 -1 -58 -18 -102 -38 -43
-21 -83 -35 -88 -32 -7 5 -27 41 -63 117 -5 9 -21 15 -41 15 l-34 0 -22 125
c-12 69 -22 140 -22 158 -1 34 18 44 26 13 5 -20 85 -91 102 -91 6 0 11 16 11
35 0 43 10 44 81 5 66 -36 69 -36 69 -5 0 39 20 30 87 -41 35 -36 63 -61 63
-57 0 4 -7 81 -16 171 -12 115 -13 167 -6 174 12 12 29 -1 166 -126 48 -43 89
-77 92 -74 3 3 -16 75 -41 159 -43 145 -49 189 -25 174 6 -4 23 -30 38 -58
l27 -52 5 50 c4 45 8 50 31 53 37 4 52 -15 85 -110 l29 -83 3 73 c2 39 7 72
12 72 5 0 51 -49 102 -109 51 -60 94 -105 96 -100 2 5 -20 79 -48 164 -28 85
-50 162 -48 171 2 13 16 6 61 -31 32 -26 59 -46 61 -44 8 8 -172 410 -200 447
-16 20 -54 70 -86 110 -58 73 -70 102 -44 102 8 0 82 -59 166 -131 83 -72 153
-129 156 -127 2 3 -45 91 -105 196 -78 136 -122 228 -155 319 -25 70 -46 136
-46 146 0 22 13 27 203 67 86 18 157 37 157 40 0 7 -160 40 -190 40 -7 0 -124
47 -259 104 l-246 105 -110 -9 c-68 -6 -113 -6 -119 0 -6 6 26 26 85 54 133
62 200 68 332 31 54 -15 100 -25 103 -22 4 3 -13 33 -37 66 -49 67 -49 67
-189 76 -52 3 -130 13 -172 22 l-77 16 -105 -38 c-57 -20 -111 -35 -118 -33
-8 3 10 29 50 70 34 35 62 67 62 70 0 3 -55 9 -122 13 -68 4 -145 13 -172 21
-27 8 -50 14 -51 14 -1 0 -44 -32 -95 -70 -55 -41 -97 -67 -103 -61 -5 5 -13
60 -18 122 -6 62 -11 115 -13 116 -1 1 -33 -29 -72 -68z m-663 -1546 c-1 -50
3 -126 9 -168 11 -72 61 -223 109 -325 11 -25 21 -50 21 -57 0 -14 -108 -83
-130 -83 -8 0 -21 4 -28 9 -7 4 -53 111 -102 237 -102 265 -105 217 23 382 44
56 85 101 91 99 6 -2 9 -38 7 -94z m-207 -31 c8 -14 -5 -52 -19 -52 -18 0 -27
30 -14 46 13 16 25 18 33 6z m2322 -2966 c6 -26 -1 -46 -17 -46 -5 0 -9 16 -9
35 0 40 17 47 26 11z"/>
</g>
</svg>
