<?xml version="1.0" standalone="no"?>
<!DOCTYPE svg PUBLIC "-//W3C//DTD SVG 20010904//EN"
 "http://www.w3.org/TR/2001/REC-SVG-20010904/DTD/svg10.dtd">
<svg version="1.0" xmlns="http://www.w3.org/2000/svg"
 width="1044.000000pt" height="1280.000000pt" viewBox="0 0 1044.000000 1280.000000"
 preserveAspectRatio="xMidYMid meet">
<g transform="translate(0.000000,1280.000000) scale(0.100000,-0.100000)"
fill="#000000" stroke="none">
<path d="M4167 12779 c-139 -39 -278 -119 -419 -242 -99 -87 -97 -86 -189
-108 -574 -137 -1086 -436 -1502 -880 -330 -352 -648 -851 -893 -1402 l-45
-102 37 -513 c33 -444 36 -515 23 -526 -8 -8 -274 -118 -591 -246 -318 -128
-578 -237 -578 -241 0 -15 -4 -15 210 5 172 17 216 12 288 -30 116 -68 175
-250 138 -426 -8 -43 -13 -85 -10 -93 9 -23 102 -19 222 10 195 47 232 32 232
-99 0 -59 -6 -86 -36 -156 -20 -47 -37 -96 -38 -110 -1 -23 2 -25 39 -24 22 0
82 13 133 29 55 17 96 25 101 19 4 -5 32 -333 60 -729 29 -396 55 -727 57
-737 6 -22 130 -132 226 -200 130 -94 323 -184 505 -238 40 -11 75 -25 79 -31
3 -6 -21 -38 -54 -73 -259 -270 -399 -778 -443 -1606 l-12 -225 -102 -106
c-58 -60 -114 -127 -128 -156 -24 -47 -30 -51 -69 -57 -24 -3 -279 -31 -568
-61 -289 -31 -531 -58 -539 -61 -25 -8 0 -21 99 -49 458 -130 734 -407 742
-746 0 -41 0 -173 -1 -294 -3 -284 16 -442 86 -690 206 -734 830 -1308 1636
-1505 106 -26 163 -36 425 -70 106 -14 168 -12 347 10 423 54 695 173 940 415
165 162 266 301 379 523 204 402 324 882 378 1507 16 191 16 770 -1 980 -15
193 -35 382 -57 528 l-16 107 37 55 c21 30 43 55 49 55 6 0 26 -23 44 -50 134
-197 316 -347 502 -415 67 -24 85 -26 165 -22 181 9 475 132 955 400 68 38
141 80 162 93 21 13 45 24 55 24 26 0 101 -31 106 -44 2 -6 -135 -720 -305
-1586 -169 -866 -306 -1585 -303 -1598 8 -31 79 -107 115 -122 73 -30 261 14
274 64 3 12 154 737 336 1612 181 874 334 1595 338 1603 4 8 64 28 132 45 149
38 255 85 303 134 42 44 51 70 37 107 -9 25 -6 30 49 82 74 68 88 101 59 139
l-21 26 36 32 c19 17 38 41 42 53 9 34 -31 70 -99 88 -32 8 -61 16 -63 18 -2
3 4 18 14 35 37 65 -16 91 -189 91 -105 1 -118 3 -118 19 -1 9 93 466 207
1015 197 948 208 999 231 1010 16 8 67 84 142 212 65 110 125 201 132 203 8 1
76 -11 152 -27 l139 -29 162 -111 c90 -61 170 -114 178 -117 15 -6 307 146
325 169 5 7 71 300 147 652 l137 640 255 444 c140 243 252 445 249 448 -2 3
-134 -118 -292 -268 -158 -151 -305 -290 -326 -309 -36 -33 -52 -70 -234 -550
-107 -283 -210 -553 -228 -600 -27 -72 -36 -85 -57 -88 -30 -3 -579 114 -592
127 -6 6 25 314 83 831 l92 821 113 338 112 338 -23 179 c-12 98 -25 247 -28
329 -12 284 -15 302 -42 308 -22 4 -32 -12 -136 -212 -61 -119 -149 -278 -195
-353 l-84 -138 -35 -351 -36 -352 -213 -662 c-118 -364 -232 -722 -255 -794
-38 -120 -44 -131 -66 -131 -33 0 -587 119 -596 128 -7 7 27 643 38 707 4 25
28 47 151 135 81 58 155 109 165 114 39 19 13 33 -124 70 -79 21 -149 43 -157
50 -11 8 -12 32 -7 112 l7 102 -162 394 c-89 216 -166 404 -171 418 -6 14 -12
20 -15 13 -2 -6 17 -222 42 -479 28 -286 43 -470 37 -476 -6 -6 -42 -2 -93 10
-46 11 -119 26 -162 32 -43 7 -79 16 -82 19 -2 4 16 135 41 291 24 157 44 298
44 314 0 17 -34 136 -76 265 -297 919 -538 1395 -894 1765 -314 326 -710 512
-1185 556 -113 11 -121 13 -140 38 -80 110 -181 183 -297 216 -69 20 -95 19
-181 -5z m2895 -4230 c-2 -13 -33 -158 -68 -322 -35 -165 -61 -304 -57 -310 4
-7 52 -72 107 -144 82 -110 104 -133 125 -133 14 0 110 14 212 32 l186 31 138
-29 c76 -16 144 -33 150 -39 8 -6 23 -101 39 -248 l26 -239 -180 -921 c-99
-507 -182 -926 -183 -932 -2 -5 -48 -10 -103 -10 -99 0 -99 0 -194 -49 -179
-91 -324 -206 -363 -288 -16 -34 -25 -39 -144 -83 -289 -107 -533 -175 -628
-175 -45 0 -100 23 -113 47 -5 10 -15 44 -22 76 -17 86 -80 202 -161 295 l-72
84 11 63 c26 137 10 256 -48 369 -17 33 -27 63 -23 67 5 4 75 26 157 48 81 23
219 65 305 94 l156 52 57 370 c32 204 121 774 197 1269 l139 899 39 39 c87 92
154 121 181 78 16 -27 30 -25 77 10 44 34 62 34 57 -1z m-4194 -3889 c301
-522 449 -1078 412 -1552 -12 -163 -37 -316 -76 -473 -30 -121 -100 -344 -114
-365 -9 -12 -18 -7 -55 33 -54 59 -81 127 -90 232 -17 190 -57 302 -167 471
-110 169 -133 223 -133 319 0 65 7 100 34 183 19 56 31 105 28 109 -4 3 -64 1
-134 -6 -145 -15 -137 -18 -167 71 l-18 53 203 503 c150 370 208 502 219 500
8 -2 34 -37 58 -78z"/>
</g>
</svg>
