<?xml version="1.0" standalone="no"?>
<!DOCTYPE svg PUBLIC "-//W3C//DTD SVG 20010904//EN"
 "http://www.w3.org/TR/2001/REC-SVG-20010904/DTD/svg10.dtd">
<svg version="1.0" xmlns="http://www.w3.org/2000/svg"
 width="960.000000pt" height="1280.000000pt" viewBox="0 0 960.000000 1280.000000"
 preserveAspectRatio="xMidYMid meet">
<g transform="translate(0.000000,1280.000000) scale(0.100000,-0.100000)"
fill="#000000" stroke="none">
<path d="M4584 12006 c-3 -8 -11 -13 -17 -10 -7 2 -17 0 -23 -4 -19 -12 -44
-70 -38 -86 13 -33 -46 -86 -82 -72 -18 7 -1 72 26 101 l22 24 -36 -11 c-22
-7 -36 -18 -36 -28 0 -9 -4 -20 -10 -26 -5 -5 -11 -36 -12 -68 -1 -31 -5 -59
-9 -62 -4 -2 -4 -16 0 -32 6 -21 2 -33 -18 -54 -14 -16 -33 -28 -42 -28 -13 0
-17 -16 -23 -80 -8 -101 -11 -107 -57 -131 -22 -11 -39 -26 -39 -33 0 -7 -7
-19 -15 -26 -8 -7 -15 -20 -15 -30 0 -9 -7 -31 -16 -49 -15 -31 -17 -31 -35
-15 -21 19 -24 13 -9 -17 8 -15 7 -19 -4 -19 -17 0 -33 -73 -17 -78 12 -4 15
-52 4 -52 -5 0 -18 -15 -31 -34 -21 -31 -21 -35 -7 -62 8 -16 15 -33 15 -37 0
-5 9 -20 20 -34 29 -37 27 -90 -5 -105 -14 -6 -26 -16 -27 -22 -6 -30 -2 -296
5 -296 4 0 15 -18 24 -41 13 -32 18 -38 25 -25 8 14 12 14 40 -2 27 -15 34
-28 48 -87 17 -75 56 -168 90 -215 11 -15 20 -35 20 -44 0 -9 -29 -55 -65
-103 -49 -67 -66 -99 -72 -136 -8 -47 -10 -50 -57 -68 -63 -23 -127 -32 -146
-20 -12 8 -12 19 -2 69 18 88 16 132 -7 132 -27 0 -70 -45 -77 -80 -4 -17 -10
-33 -15 -36 -5 -2 -84 23 -176 57 -229 85 -239 85 -551 -5 -241 -70 -296 -89
-307 -106 -8 -12 -89 -13 -131 -1 -40 11 -62 0 -40 -22 41 -41 91 -59 223 -83
76 -14 154 -29 173 -34 19 -5 112 -16 205 -25 190 -17 235 -24 235 -35 0 -4
-16 -34 -35 -66 -53 -87 -66 -138 -116 -451 -11 -73 -41 -202 -65 -285 -41
-141 -84 -357 -120 -603 -17 -123 -58 -309 -85 -393 -15 -44 -20 -82 -17 -129
3 -76 -2 -82 -57 -59 -21 9 -44 16 -51 16 -18 0 -17 -44 2 -95 9 -22 24 -74
34 -115 14 -56 25 -80 45 -96 26 -21 27 -24 20 -83 -5 -44 -3 -74 8 -109 57
-174 170 -618 162 -632 -9 -14 19 -73 54 -112 17 -20 31 -45 31 -57 0 -11 5
-40 11 -63 16 -58 -6 -141 -38 -146 -26 -4 -360 73 -428 99 -27 11 -75 19
-106 19 -51 0 -60 3 -94 36 -31 29 -43 34 -64 29 -71 -18 -92 -17 -156 9 -71
28 -113 32 -196 16 -52 -10 -55 -9 -72 15 -27 37 -62 32 -108 -14 -32 -32 -39
-46 -39 -78 0 -45 35 -106 64 -111 10 -2 29 2 42 9 20 10 28 9 61 -13 79 -52
107 -62 201 -68 87 -6 94 -8 126 -39 33 -32 33 -32 71 -17 50 21 87 20 132 -4
22 -12 57 -20 84 -20 46 0 433 -65 450 -76 5 -3 9 -14 9 -25 0 -24 33 -90 55
-113 9 -9 27 -16 41 -16 30 0 31 -20 2 -71 -17 -30 -28 -39 -48 -39 -15 0
-100 21 -189 46 -90 25 -165 44 -167 41 -2 -2 61 -43 140 -91 196 -118 230
-144 216 -161 -6 -7 -40 -21 -76 -31 -64 -17 -65 -17 -87 4 -13 12 -30 22 -38
22 -19 0 -268 -59 -297 -71 -34 -13 -58 -62 -76 -154 -12 -62 -14 -94 -7 -119
11 -42 7 -47 -72 -76 -159 -60 -255 -261 -183 -384 28 -48 73 -76 174 -106 73
-22 112 -23 224 -4 l37 6 -5 -68 c-7 -71 -11 -84 -138 -362 -30 -67 -76 -174
-100 -236 -42 -105 -112 -254 -158 -336 -11 -19 -46 -89 -78 -155 -132 -272
-166 -438 -230 -1115 -50 -535 -74 -698 -118 -822 -39 -110 -57 -169 -76 -251
-9 -37 -34 -103 -55 -145 -22 -42 -49 -101 -60 -130 -12 -29 -32 -74 -45 -100
-33 -65 -161 -258 -178 -269 -8 -4 -23 -24 -34 -45 -10 -20 -48 -71 -83 -114
-61 -75 -63 -80 -57 -121 9 -66 21 -81 80 -98 128 -37 286 -46 373 -20 66 20
146 90 166 148 9 23 27 69 41 102 l25 60 69 -3 c98 -4 105 6 126 177 12 98 23
150 42 190 34 74 42 183 20 268 -15 56 -15 69 -2 130 8 37 22 114 31 171 23
153 163 582 320 982 126 322 148 392 199 643 28 136 53 230 65 250 35 56 112
210 136 272 69 181 200 405 269 458 20 15 47 50 61 77 14 28 31 50 39 50 7 0
74 87 147 193 215 308 276 387 314 403 56 23 63 19 102 -61 21 -41 43 -75 50
-75 6 0 18 21 25 48 8 27 20 47 28 47 7 0 36 -27 64 -61 28 -33 70 -82 92
-110 23 -27 45 -46 49 -42 4 4 2 78 -5 164 -10 118 -10 158 -1 163 6 4 43 3
82 -2 90 -11 218 13 226 44 3 10 12 19 20 19 8 0 87 -20 175 -45 89 -25 165
-44 170 -43 5 2 -54 36 -131 77 -167 89 -231 128 -231 141 0 6 24 22 54 37 41
20 59 35 71 63 14 32 27 41 108 74 51 21 100 39 111 40 15 1 31 -28 81 -150
34 -83 99 -229 145 -325 107 -226 101 -211 111 -309 10 -112 38 -208 82 -278
26 -42 50 -108 86 -238 60 -216 111 -354 196 -528 63 -127 66 -136 100 -326
48 -264 60 -302 190 -630 182 -458 326 -887 339 -1010 3 -30 14 -103 23 -161
16 -100 16 -110 0 -159 -22 -69 -22 -163 2 -236 13 -42 20 -101 23 -201 6
-169 12 -183 88 -183 l47 0 31 -112 c40 -141 84 -210 157 -248 43 -22 64 -25
171 -28 205 -6 271 20 281 110 4 37 -2 59 -41 142 -25 55 -46 107 -46 116 0
10 -9 29 -20 43 -43 55 -148 278 -174 373 -16 54 -39 125 -52 156 -13 31 -28
89 -34 130 -15 101 -46 225 -75 306 -33 88 -75 380 -120 827 -45 449 -75 639
-131 825 -40 131 -72 206 -244 565 -47 98 -70 182 -109 393 -27 141 -30 176
-25 265 7 101 6 104 -34 222 -29 84 -44 150 -52 220 -5 55 -17 149 -26 208
-17 122 -15 142 19 134 63 -16 1950 -333 2422 -408 321 -50 537 -61 680 -35
149 28 167 55 87 128 -69 61 -209 132 -364 182 -164 54 -683 185 -1753 441
-1009 243 -1028 247 -1032 262 -6 16 182 73 292 88 31 4 66 18 93 37 39 27 49
30 90 23 128 -19 117 -20 140 18 27 46 61 63 146 71 87 9 116 21 194 83 58 47
65 50 92 40 65 -25 124 34 124 124 0 57 -31 108 -85 138 -51 29 -76 26 -111
-11 l-31 -33 -91 3 -91 4 -93 -47 c-97 -49 -90 -48 -198 -29 -29 5 -35 2 -62
-39 -35 -49 -78 -72 -121 -64 -20 4 -47 -3 -92 -25 -85 -40 -185 -78 -207 -78
-15 0 -22 18 -40 101 -17 77 -19 105 -11 121 7 12 8 41 4 74 -6 52 -5 55 28
86 51 48 61 74 63 163 7 250 30 456 71 640 15 66 15 73 -1 107 -16 32 -16 39
-3 60 8 13 18 59 22 103 4 46 19 117 37 167 31 91 34 134 8 131 -8 -1 -48 -13
-88 -28 -55 -20 -77 -23 -87 -15 -17 14 -45 131 -46 190 -1 25 -7 86 -15 135
-8 50 -14 115 -14 145 0 76 -55 414 -86 530 -14 52 -43 147 -64 210 -22 63
-51 180 -65 260 -14 80 -39 187 -56 239 -25 76 -29 95 -18 102 19 12 66 11 74
-1 3 -5 23 -10 44 -10 44 0 325 78 414 115 34 15 77 32 95 37 20 7 32 18 32
29 0 15 -9 17 -52 16 -61 -1 -98 9 -98 26 0 16 -38 35 -190 98 -365 148 -357
147 -530 95 l-121 -37 -76 51 c-45 30 -85 50 -97 48 -26 -4 -63 -75 -72 -139
-10 -72 -10 -72 -108 -64 l-85 7 -7 36 c-3 21 -14 70 -25 110 -10 40 -19 80
-19 90 0 10 18 43 41 73 50 67 87 137 110 209 14 46 20 55 40 55 22 0 24 -5
27 -54 l3 -54 20 32 c10 17 19 47 19 66 0 20 12 68 26 108 45 127 72 227 66
249 -3 14 2 26 19 39 l24 18 -28 10 c-25 10 -35 30 -21 44 4 3 6 50 5 104 -2
77 -6 99 -19 110 -16 12 -16 12 1 13 11 0 17 8 17 25 0 14 -4 25 -9 25 -4 0
-11 19 -14 43 -7 48 -40 117 -62 130 -10 5 -13 16 -10 30 4 16 -1 30 -19 46
-27 26 -48 22 -26 -4 7 -8 8 -15 2 -15 -45 0 -40 129 8 198 21 30 25 42 15 42
-8 0 -15 5 -15 11 0 6 -9 8 -21 4 -20 -7 -21 -5 -15 26 3 18 13 40 21 49 17
18 21 90 5 90 -5 0 -10 -9 -10 -20 0 -11 -5 -20 -11 -20 -7 0 -9 9 -5 23 3 12
6 25 6 30 0 4 7 7 16 7 13 0 15 7 10 32 -3 18 -14 36 -22 41 -9 5 -25 18 -36
29 -12 12 -26 17 -38 13 -15 -5 -23 0 -31 19 -7 14 -34 36 -64 51 l-51 26
-110 -20 c-132 -25 -136 -25 -132 -3 4 22 -40 30 -48 8z m-240 -391 c-4 -8
-10 -12 -15 -9 -11 6 -2 24 11 24 5 0 7 -7 4 -15z m734 -80 c0 -14 -6 -25 -13
-25 -6 0 -11 10 -9 23 3 28 2 27 13 27 5 0 9 -11 9 -25z m-988 -524 c0 -6 -4
-13 -10 -16 -5 -3 -10 1 -10 9 0 9 5 16 10 16 6 0 10 -4 10 -9z m1001 -1226
c-1 -15 -24 -12 -29 3 -3 9 2 13 12 10 10 -1 17 -7 17 -13z m319 -1186 c0 -11
25 -129 56 -262 30 -133 60 -271 65 -307 6 -36 17 -96 25 -133 9 -42 12 -86 8
-113 -3 -24 -1 -72 6 -108 13 -60 12 -65 -9 -95 -21 -30 -23 -38 -16 -121 5
-64 12 -97 25 -113 16 -20 17 -30 9 -64 -9 -32 -7 -48 6 -79 45 -105 84 -334
85 -491 0 -62 -11 -96 -26 -81 -2 3 -38 90 -78 194 -41 104 -89 223 -107 265
-35 83 -34 104 6 119 16 6 32 25 41 46 14 33 14 41 -5 97 -12 33 -21 69 -21
79 0 25 -44 52 -75 44 -14 -4 -32 -20 -41 -37 -13 -27 -18 -29 -29 -18 -16 17
-85 152 -85 167 0 32 -35 94 -58 103 -25 9 -25 11 -18 91 13 156 78 405 121
468 18 27 26 47 22 62 -4 12 3 49 14 82 11 34 25 91 30 129 9 73 24 111 40
102 5 -4 9 -15 9 -26z m-1680 -431 c12 -40 30 -104 41 -142 12 -37 36 -134 55
-214 l34 -146 -31 -30 c-25 -24 -32 -27 -40 -15 -5 8 -9 21 -9 30 0 40 -53 52
-88 19 -21 -20 -29 -76 -24 -170 4 -89 13 -111 48 -126 33 -14 39 -26 35 -68
0 -10 3 -24 8 -30 5 -6 11 -56 12 -111 3 -82 -5 -144 -39 -337 -60 -341 -74
-386 -88 -291 -4 27 -15 64 -26 84 -23 45 -38 234 -27 334 5 39 11 102 15 140
3 39 13 89 21 113 15 41 15 45 -7 92 l-23 50 21 23 c16 17 21 37 23 87 l3 64
-43 11 c-45 11 -62 29 -56 60 2 11 11 65 20 120 9 55 25 129 35 165 10 36 33
128 50 205 17 76 34 143 36 147 13 20 25 3 44 -64z m-949 -3253 c14 -55 34
-130 44 -167 23 -81 18 -89 -53 -96 -107 -10 -234 58 -248 134 -11 58 4 100
54 155 36 39 58 54 97 64 28 8 57 13 65 12 10 -1 23 -36 41 -102z"/>
<path d="M4288 11763 c-25 -6 -30 -31 -12 -59 9 -13 19 -22 22 -20 7 8 20 86
13 85 -3 -1 -13 -3 -23 -6z"/>
<path d="M4031 10469 c0 -13 4 -33 9 -44 7 -14 8 -8 3 20 -7 46 -13 59 -12 24z"/>
</g>
</svg>
