<?xml version="1.0" standalone="no"?>
<!DOCTYPE svg PUBLIC "-//W3C//DTD SVG 20010904//EN"
 "http://www.w3.org/TR/2001/REC-SVG-20010904/DTD/svg10.dtd">
<svg version="1.0" xmlns="http://www.w3.org/2000/svg"
 width="1239.000000pt" height="1280.000000pt" viewBox="0 0 1239.000000 1280.000000"
 preserveAspectRatio="xMidYMid meet">
<g transform="translate(0.000000,1280.000000) scale(0.100000,-0.100000)"
fill="#000000" stroke="none">
<path d="M5490 12759 c-98 -44 -116 -46 -170 -19 -51 26 -114 25 -203 -1 l-70
-22 -57 32 c-33 18 -72 31 -91 31 -99 -1 -222 -124 -244 -243 -10 -54 -30 -73
-125 -120 -77 -39 -88 -48 -131 -111 -66 -98 -93 -191 -93 -326 0 -93 4 -116
34 -200 34 -99 47 -192 36 -254 -5 -27 -17 -43 -50 -65 -49 -34 -81 -95 -92
-178 -6 -48 -9 -53 -43 -66 -20 -8 -299 -113 -621 -233 -425 -159 -591 -225
-607 -242 l-23 -25 0 -1659 0 -1659 -47 6 c-281 32 -371 33 -473 4 -210 -58
-391 -215 -500 -434 -109 -220 -120 -398 -34 -574 36 -73 133 -171 169 -171
20 0 25 -4 21 -17 -24 -80 -286 -1162 -286 -1184 0 -38 -24 -44 -170 -44 -137
1 -216 20 -378 93 -300 135 -659 405 -1014 765 -83 84 -148 142 -148 133 0 -9
-9 -112 -20 -229 -32 -350 -50 -691 -57 -1092 -27 -1693 269 -2880 837 -3359
274 -232 613 -319 976 -251 388 73 722 363 957 831 171 342 313 815 388 1297
6 42 15 77 18 77 3 -1 34 -27 69 -59 l62 -57 -15 -43 c-36 -103 -49 -212 -48
-406 1 -216 24 -419 77 -690 l34 -170 -21 -40 c-34 -63 -31 -182 6 -256 15
-31 50 -77 77 -103 l50 -46 5 -149 c6 -196 40 -430 81 -563 4 -15 -5 -14 -78
9 -46 13 -182 63 -303 110 -389 150 -515 189 -647 200 -124 10 -236 -21 -317
-88 l-24 -20 17 -75 c38 -176 111 -315 230 -442 98 -103 174 -158 307 -222
341 -162 780 -183 1214 -59 128 36 226 77 343 141 132 73 176 136 176 253 0
80 -21 129 -77 184 -32 30 -34 36 -26 65 25 80 40 262 39 475 l0 223 30 38
c74 94 94 217 51 314 -19 45 -21 65 -21 285 0 443 35 770 96 892 15 29 18 30
239 44 l90 6 17 -43 c23 -59 44 -147 58 -243 6 -44 13 -91 16 -105 2 -14 8
-189 14 -390 l9 -365 -26 -65 c-42 -107 -24 -214 53 -316 23 -30 24 -37 24
-225 0 -210 12 -378 35 -477 l15 -62 -40 -41 c-53 -55 -73 -112 -68 -191 9
-129 58 -185 242 -274 268 -129 512 -183 826 -184 308 0 566 65 778 196 93 58
253 216 300 296 53 90 101 209 121 301 l19 85 -45 32 c-113 81 -261 94 -463
41 -114 -30 -176 -52 -485 -171 -180 -70 -366 -133 -373 -126 -2 3 6 45 17 95
35 149 51 277 58 455 l6 168 49 46 c103 96 136 228 88 355 l-22 59 26 126 c87
426 110 834 58 1045 l-19 77 26 6 c133 29 238 96 312 197 l28 38 5 -33 c3 -18
8 -78 11 -132 8 -131 27 -177 82 -194 49 -14 98 -15 122 -2 14 7 23 4 37 -12
11 -11 39 -34 63 -49 l44 -28 1 -63 c1 -44 8 -77 24 -109 12 -25 22 -52 22
-60 0 -25 50 -123 78 -152 64 -68 162 -86 237 -44 22 12 57 46 78 74 45 60 87
82 208 113 182 46 214 80 214 230 0 86 3 101 31 160 36 74 46 82 204 171 63
35 133 82 155 104 36 36 118 148 127 174 1 6 55 -16 119 -48 175 -88 273 -100
324 -39 39 46 35 109 -11 176 l-36 53 60 72 c32 40 786 955 1675 2034 889
1079 1620 1970 1626 1980 20 35 342 1208 339 1235 -3 25 -22 15 -540 -306
l-537 -331 -1692 -1990 c-930 -1095 -1696 -1996 -1703 -2003 -11 -11 -23 -8
-72 13 -67 30 -179 65 -209 65 -12 0 -38 -9 -58 -19 l-38 -19 7 356 6 357
-141 572 c-78 315 -141 574 -141 576 0 3 14 7 30 11 47 9 122 91 163 177 86
180 75 337 -38 564 -131 262 -367 438 -608 453 -69 4 -263 -9 -369 -24 l-38
-6 -2 1661 -3 1661 -25 24 c-18 18 -195 86 -625 242 -330 119 -604 221 -610
226 -16 14 27 42 185 120 142 69 147 72 250 178 66 68 120 114 145 124 48 20
114 23 155 6 17 -7 53 -11 84 -8 100 8 160 82 177 217 8 67 17 92 89 259 33
77 34 115 4 174 -18 35 -26 39 -104 58 l-65 16 -6 52 c-7 53 -42 123 -77 155
-26 24 -88 46 -127 47 -25 0 -41 13 -93 74 -61 73 -125 117 -168 115 -10 0
-57 -18 -104 -40z m944 -6499 c52 0 67 -4 75 -17 5 -10 93 -290 197 -623 l188
-605 -48 -630 c-27 -346 -51 -656 -54 -689 l-5 -59 -58 -26 c-42 -19 -61 -34
-68 -53 -19 -53 -28 -27 -29 80 0 309 -22 1001 -36 1167 -37 426 -105 773
-212 1075 -33 94 -66 242 -79 352 l-7 58 36 -15 c19 -8 65 -15 100 -15z
m-3458 -17 c-10 -34 -45 -319 -51 -423 -3 -58 -8 -115 -10 -126 -6 -26 -319
-284 -330 -272 -3 2 24 96 59 209 35 112 92 294 126 404 33 110 63 206 65 213
3 8 27 12 75 12 63 0 71 -2 66 -17z m4616 -2121 c18 -25 62 -81 100 -123 l67
-77 -28 -84 c-42 -125 -58 -151 -84 -143 -12 4 -43 12 -69 18 l-48 11 0 106
c0 179 12 386 21 361 5 -12 23 -43 41 -69z"/>
</g>
</svg>
