<?xml version="1.0" standalone="no"?>
<!DOCTYPE svg PUBLIC "-//W3C//DTD SVG 20010904//EN"
 "http://www.w3.org/TR/2001/REC-SVG-20010904/DTD/svg10.dtd">
<svg version="1.0" xmlns="http://www.w3.org/2000/svg"
 width="1280.000000pt" height="781.000000pt" viewBox="0 0 1280.000000 781.000000"
 preserveAspectRatio="xMidYMid meet">
<g transform="translate(0.000000,781.000000) scale(0.100000,-0.100000)"
fill="#000000" stroke="none">
<path d="M7255 7794 c-155 -31 -244 -74 -321 -156 -67 -71 -100 -132 -183
-338 -38 -96 -92 -229 -119 -296 -59 -142 -107 -295 -128 -402 -11 -60 -13
-118 -8 -262 7 -213 5 -226 -66 -376 -49 -105 -63 -122 -83 -106 -30 25 -224
124 -276 142 -183 61 -500 38 -792 -60 -347 -115 -515 -267 -779 -704 -100
-166 -145 -260 -240 -496 -45 -113 -107 -253 -137 -312 -62 -119 -153 -238
-182 -238 -11 0 -55 24 -98 54 -111 76 -285 185 -373 233 -175 96 -482 212
-695 263 -138 34 -776 127 -928 137 -347 21 -511 -134 -626 -592 -33 -128 -41
-273 -41 -703 0 -347 -3 -422 -20 -545 -11 -78 -27 -206 -35 -284 -12 -119
-23 -166 -65 -295 -66 -200 -78 -268 -61 -350 25 -124 79 -191 241 -303 128
-89 140 -102 180 -187 31 -66 31 -67 37 -281 l6 -214 -179 -135 c-410 -308
-693 -494 -837 -552 -69 -28 -277 -89 -340 -101 -42 -8 -53 -21 -87 -103 l-23
-53 23 -44 c12 -24 34 -55 49 -69 l26 -24 235 13 c322 19 463 32 610 56 330
52 458 99 880 320 289 151 400 202 560 259 l105 38 9 71 c11 85 -1 148 -43
238 -27 56 -32 61 -75 72 -25 6 -70 22 -99 35 -123 54 -248 270 -222 385 4 17
37 69 73 115 167 210 172 233 182 691 6 318 5 360 -12 460 -16 94 -72 279
-135 447 -10 26 -14 50 -10 54 12 13 35 -27 64 -114 31 -93 71 -174 91 -180
15 -5 16 57 1 127 -6 27 -9 63 -7 78 3 22 9 10 32 -57 50 -151 80 -201 157
-275 123 -116 218 -169 731 -410 70 -33 129 -65 132 -71 2 -6 -13 -72 -35
-145 -52 -175 -142 -526 -170 -659 -36 -179 -14 -330 79 -535 83 -183 82 -175
32 -302 -24 -59 -47 -113 -52 -119 -5 -7 -48 -24 -96 -39 -107 -33 -163 -61
-230 -114 -75 -60 -223 -148 -332 -198 -180 -83 -183 -85 -199 -126 -18 -47
-21 -45 114 -89 87 -29 112 -33 195 -31 52 1 129 9 170 17 121 27 416 129 544
190 66 31 124 55 129 53 4 -1 21 -33 37 -70 36 -87 70 -130 123 -161 44 -26
155 -61 163 -53 3 3 -4 36 -16 74 -12 37 -26 113 -31 168 -5 55 -14 116 -19
137 -10 34 -58 105 -131 190 l-32 37 59 127 59 126 123 116 122 115 146 446
c80 245 150 450 155 455 5 6 56 -13 126 -46 451 -215 694 -275 948 -237 132
20 247 14 405 -21 285 -64 476 -40 1078 134 141 41 392 111 557 155 165 45
453 126 640 180 187 54 344 95 348 91 5 -4 -3 -50 -17 -101 -35 -128 -66 -317
-66 -398 0 -125 34 -193 166 -331 l73 -76 -18 -122 c-10 -67 -20 -125 -24
-128 -3 -3 -52 -15 -109 -26 -125 -24 -240 -67 -290 -108 -45 -37 -88 -124
-123 -245 -27 -95 -55 -248 -55 -304 l0 -33 238 6 c130 3 494 11 807 16 1003
18 1445 29 1455 35 16 10 12 200 -4 239 -16 39 -21 41 -136 56 -221 29 -507
102 -747 191 -228 85 -435 185 -447 216 -3 7 13 61 35 120 l39 107 118 120
c96 98 132 145 193 246 360 595 557 1062 618 1467 33 217 -18 382 -149 481
-25 19 -46 39 -48 46 -4 17 242 309 332 394 92 87 192 154 376 251 159 84 180
104 180 167 0 39 5 49 37 79 72 66 122 85 259 101 70 8 142 21 162 29 19 8 43
15 53 15 20 0 49 -36 48 -60 0 -8 -45 -53 -100 -100 l-99 -84 0 -68 c0 -37 3
-68 8 -68 4 0 63 50 132 110 69 61 128 110 132 110 4 0 37 -44 74 -97 222
-323 427 -596 637 -845 211 -253 661 -760 665 -749 2 5 -26 124 -62 263 -79
309 -101 423 -116 598 l-12 135 -182 185 c-199 202 -288 304 -418 480 -103
139 -228 327 -228 344 0 6 61 65 135 130 75 65 134 121 131 123 -2 2 -27 10
-55 18 l-52 13 -102 -89 c-56 -49 -109 -89 -117 -89 -19 0 -80 73 -80 95 0 9
8 29 19 43 53 76 63 112 56 191 -10 110 -24 134 -98 166 -80 34 -100 51 -145
125 -33 55 -44 65 -92 84 -85 32 -98 43 -125 96 -14 27 -39 65 -56 85 -27 30
-37 35 -74 35 -51 0 -75 19 -75 59 0 43 -22 56 -69 42 -61 -18 -61 -17 -55 47
8 75 -9 92 -98 99 l-63 5 -186 -170 c-102 -94 -189 -178 -193 -187 -12 -33 -6
-93 13 -116 15 -19 30 -24 87 -27 38 -2 73 -8 78 -13 6 -5 -5 -30 -26 -62 -86
-129 -88 -137 -88 -330 l0 -174 -42 -76 c-28 -50 -49 -77 -60 -77 -10 0 -18 4
-18 10 0 18 -47 41 -101 49 -49 8 -62 6 -139 -26 -273 -111 -597 -299 -692
-400 -28 -31 -64 -88 -93 -148 -25 -54 -50 -94 -55 -89 -4 5 -18 47 -29 94
-45 176 -96 246 -412 560 -188 186 -245 250 -279 308 -24 40 -57 84 -75 97
-65 50 -243 117 -439 165 -66 17 -124 34 -128 38 -5 5 29 67 75 138 126 195
193 309 310 529 127 238 151 295 173 409 69 349 -211 782 -640 992 -65 31
-146 62 -196 74 -47 11 -104 24 -128 30 -54 13 -109 11 -197 -6z m1051 -4130
c68 -84 113 -149 108 -154 -7 -7 -569 -160 -653 -178 -20 -4 -23 -2 -18 12 10
26 420 466 434 466 7 0 65 -65 129 -146z"/>
</g>
</svg>
