<?xml version="1.0" standalone="no"?>
<!DOCTYPE svg PUBLIC "-//W3C//DTD SVG 20010904//EN"
 "http://www.w3.org/TR/2001/REC-SVG-20010904/DTD/svg10.dtd">
<svg version="1.0" xmlns="http://www.w3.org/2000/svg"
 width="726.000000pt" height="1280.000000pt" viewBox="0 0 726.000000 1280.000000"
 preserveAspectRatio="xMidYMid meet">
<g transform="translate(0.000000,1280.000000) scale(0.100000,-0.100000)"
fill="#000000" stroke="none">
<path d="M3369 12581 c-30 -24 -31 -101 -3 -132 25 -27 26 -130 1 -156 -11
-13 -13 -23 -5 -36 5 -10 6 -26 2 -35 -4 -9 -8 -23 -10 -30 -12 -60 -44 -116
-100 -176 -35 -38 -64 -77 -64 -87 0 -10 -13 -25 -30 -34 -26 -14 -28 -18 -18
-35 11 -17 10 -22 -9 -35 -11 -8 -23 -25 -27 -39 -3 -13 -17 -31 -31 -40 -19
-12 -24 -22 -20 -39 5 -18 0 -26 -20 -35 -22 -10 -24 -14 -13 -31 10 -17 9
-24 -11 -45 -15 -16 -21 -31 -16 -45 4 -14 0 -23 -15 -31 -18 -10 -19 -14 -8
-27 10 -13 9 -18 -10 -33 -23 -19 -28 -36 -12 -42 6 -2 6 -15 2 -33 -6 -22
-16 -31 -38 -35 -41 -9 -76 -29 -69 -41 4 -5 13 -9 21 -9 9 0 14 -7 12 -17 -2
-11 -30 -25 -83 -43 -44 -14 -107 -40 -140 -57 -33 -16 -77 -36 -97 -42 -20
-7 -42 -18 -48 -26 -6 -7 -26 -17 -43 -21 -28 -6 -87 -55 -87 -73 0 -4 -15
-15 -32 -26 -58 -33 -160 -109 -214 -158 -39 -36 -51 -53 -46 -69 4 -16 -12
-37 -72 -94 -42 -40 -86 -76 -97 -79 -13 -4 -18 -12 -15 -22 4 -10 -16 -40
-54 -83 -62 -70 -160 -134 -222 -147 -16 -3 -32 -13 -35 -22 -6 -16 -17 -28
-113 -128 -45 -47 -49 -55 -40 -79 9 -22 6 -31 -20 -60 -35 -40 -80 -125 -80
-151 0 -28 -29 -103 -51 -134 -10 -15 -19 -31 -19 -36 0 -5 -13 -30 -30 -56
-34 -55 -36 -58 -15 -51 20 8 19 -5 -3 -37 -9 -14 -32 -48 -50 -75 -18 -27
-32 -58 -30 -70 2 -12 -6 -39 -16 -60 -44 -91 -55 -123 -64 -185 -7 -51 -18
-78 -47 -118 -40 -56 -40 -52 -4 -123 7 -14 3 -23 -16 -40 -13 -11 -29 -36
-36 -55 -6 -18 -19 -38 -30 -43 -23 -13 -25 -27 -3 -32 14 -2 12 -9 -12 -37
-21 -26 -28 -45 -29 -80 -1 -32 -9 -58 -28 -85 -15 -21 -27 -45 -27 -52 0 -7
-32 -52 -71 -99 -40 -48 -73 -98 -75 -112 -1 -13 -9 -35 -18 -48 -10 -15 -14
-35 -10 -53 4 -17 1 -32 -5 -36 -6 -4 -11 -17 -11 -29 0 -12 -6 -39 -14 -62
-21 -60 -49 -177 -48 -204 0 -13 5 -27 11 -30 6 -4 10 -20 10 -36 -3 -86 14
-164 54 -254 10 -25 25 -81 32 -126 16 -98 41 -200 60 -240 7 -16 17 -43 21
-60 9 -41 33 -86 55 -108 14 -13 19 -32 19 -67 0 -27 5 -61 11 -77 16 -40 32
-145 35 -233 2 -41 6 -113 9 -160 5 -61 2 -96 -8 -125 -12 -35 -12 -44 1 -75
13 -30 13 -52 3 -150 -11 -99 -10 -128 4 -210 9 -52 23 -99 30 -105 7 -5 16
-23 20 -40 3 -16 12 -37 20 -45 7 -8 32 -62 56 -120 23 -58 50 -116 59 -130
10 -14 23 -43 30 -65 20 -63 81 -185 91 -185 10 0 43 -67 74 -153 11 -31 25
-51 40 -57 12 -4 28 -22 35 -39 7 -18 20 -31 29 -31 10 0 49 -30 87 -66 77
-73 178 -144 205 -144 30 0 33 20 6 48 -32 35 -100 190 -91 211 3 9 12 41 19
71 l13 54 -44 84 c-38 73 -44 92 -44 145 0 121 18 115 123 -43 69 -102 165
-228 176 -232 3 0 18 -2 33 -3 14 -1 56 -15 91 -30 l66 -29 -1 -50 c0 -28 -5
-56 -10 -63 -5 -7 -7 -16 -4 -21 3 -6 -1 -15 -10 -22 -8 -7 -12 -20 -9 -28 3
-8 -3 -21 -13 -28 -11 -7 -22 -28 -26 -45 -3 -18 -14 -41 -23 -51 -16 -18 -16
-19 5 -25 12 -3 22 -11 22 -18 0 -7 -38 -43 -84 -81 -65 -53 -102 -95 -162
-182 -103 -148 -114 -169 -114 -217 0 -22 -4 -54 -9 -71 -5 -17 -5 -37 0 -46
5 -9 4 -29 -2 -49 -6 -19 -15 -54 -19 -79 -22 -121 -32 -145 -76 -190 -24 -25
-44 -50 -44 -56 0 -6 -11 -21 -24 -33 -16 -15 -26 -38 -30 -71 -4 -26 -13 -53
-21 -60 -8 -7 -15 -20 -15 -29 0 -9 -9 -29 -21 -46 -33 -49 -39 -71 -26 -104
9 -25 8 -33 -6 -49 -19 -21 -22 -42 -7 -42 20 0 9 -47 -19 -86 -29 -40 -37
-65 -47 -144 -3 -25 -10 -52 -14 -60 -9 -17 -7 -91 5 -157 5 -29 2 -54 -9 -85
-8 -24 -20 -70 -26 -103 -5 -33 -26 -105 -46 -159 -45 -129 -79 -269 -64 -274
6 -2 8 -18 4 -40 -5 -34 -16 -71 -73 -267 -12 -39 -25 -91 -30 -115 -10 -48
-25 -94 -49 -150 -8 -19 -18 -72 -22 -116 -7 -70 -13 -89 -45 -137 -26 -39
-35 -62 -30 -76 7 -24 0 -51 -49 -179 -20 -53 -41 -131 -47 -180 -7 -48 -21
-105 -32 -126 -13 -27 -22 -76 -29 -155 -9 -106 -8 -120 10 -166 11 -27 32
-84 47 -125 30 -82 61 -140 76 -140 5 0 10 19 10 43 1 23 4 56 8 72 6 28 10
30 66 36 l59 7 57 -57 c34 -33 66 -77 79 -108 12 -29 28 -53 35 -53 13 0 35
77 35 119 0 10 17 39 37 64 l37 45 51 -52 c45 -46 66 -84 91 -164 8 -27 28 -5
41 43 13 54 33 75 71 75 37 0 59 17 88 66 25 42 26 51 20 122 -9 115 17 138
49 42 18 -54 30 -64 88 -73 49 -8 67 -23 67 -56 0 -14 4 -33 10 -41 10 -17 11
-15 30 60 14 52 25 69 58 81 12 5 29 25 37 44 18 42 20 158 3 188 -9 16 -12
75 -10 200 2 141 -1 191 -14 238 l-16 59 31 35 c61 70 89 153 110 325 9 70 8
95 -5 140 -27 94 -49 347 -33 367 6 6 10 60 9 120 -1 140 5 268 14 318 8 41
60 157 84 186 7 9 26 76 43 149 16 72 38 148 48 168 42 85 67 122 88 131 12 6
32 29 43 51 19 37 24 41 50 35 24 -5 32 -1 57 30 15 20 49 52 75 70 26 19 62
54 79 77 16 24 44 50 61 58 19 9 68 63 123 135 69 91 98 121 119 125 18 3 34
17 49 45 12 22 36 47 54 55 17 8 36 25 42 37 6 13 18 23 26 23 9 0 25 20 38
48 30 64 111 146 137 139 15 -4 24 3 36 26 22 42 39 57 63 57 14 0 22 8 27 27
15 71 28 96 55 112 22 12 31 27 39 66 13 61 19 72 45 76 11 2 28 21 39 42 15
32 22 38 41 33 39 -10 55 14 71 104 8 47 21 119 29 160 8 41 14 80 14 87 1 6
12 25 26 41 13 16 30 54 36 83 13 61 25 80 47 77 11 -2 20 14 31 58 9 34 21
68 28 75 6 8 14 26 18 42 11 42 23 33 40 -30 28 -98 38 -127 50 -148 14 -23
27 -63 46 -148 8 -37 19 -62 31 -68 15 -8 18 -22 18 -78 0 -94 8 -131 27 -124
13 5 12 1 -2 -20 -16 -25 -16 -29 -1 -52 21 -33 20 -96 -2 -126 -40 -52 -63
-103 -86 -192 -36 -138 -39 -165 -15 -177 25 -14 25 -59 -1 -144 -16 -49 -20
-87 -18 -149 3 -80 4 -82 28 -82 22 0 25 -4 24 -35 0 -19 -8 -84 -17 -145 -9
-60 -14 -119 -11 -130 6 -23 -30 -81 -101 -164 -25 -29 -51 -63 -58 -75 -27
-48 -63 -305 -50 -356 7 -26 16 -36 40 -42 40 -10 93 -97 121 -197 12 -40 23
-76 26 -78 2 -3 12 9 21 26 21 42 51 41 72 -4 19 -39 25 -42 43 -20 13 16 40
21 40 8 1 -5 9 -63 19 -130 18 -121 30 -153 57 -153 20 0 51 -67 59 -125 3
-28 14 -70 25 -95 10 -25 30 -85 44 -135 58 -206 67 -234 76 -240 4 -3 12 18
17 45 4 28 13 51 18 50 6 0 16 -18 23 -39 7 -22 31 -58 53 -80 21 -23 39 -51
39 -63 0 -12 9 -40 19 -62 10 -23 22 -62 26 -89 6 -43 11 -51 62 -88 94 -70
171 -99 287 -108 69 -6 126 -18 181 -37 67 -24 96 -29 176 -29 78 0 101 3 116
17 30 28 145 25 186 -4 18 -13 51 -23 83 -26 53 -4 55 -4 99 42 25 25 51 46
57 46 7 0 31 -21 55 -46 l43 -47 0 31 c0 17 -5 43 -11 59 -13 34 -3 107 17
127 20 20 66 3 110 -41 l34 -34 0 26 c0 14 -7 42 -15 62 -19 44 -19 53 -1 53
8 0 33 -21 57 -47 l42 -48 -6 36 c-9 58 -48 130 -100 184 -26 27 -58 68 -71
90 -39 65 -136 144 -192 154 -31 6 -54 18 -68 34 -11 14 -43 38 -71 52 -27 14
-59 35 -71 45 -11 11 -48 31 -82 44 -35 14 -76 36 -92 50 -16 13 -43 27 -60
31 -19 4 -36 17 -45 35 -8 16 -24 31 -34 35 -18 5 -43 34 -119 138 -12 16 -27
49 -34 71 -6 23 -17 48 -25 57 -7 8 -13 23 -13 31 0 24 -44 97 -69 115 -17 11
-21 22 -17 39 5 17 -4 43 -27 87 -19 34 -37 83 -41 109 -4 26 -16 58 -27 72
-11 14 -18 30 -15 35 6 9 -31 87 -67 141 -8 14 -26 54 -38 89 -18 54 -21 78
-16 149 3 46 10 89 15 95 16 21 21 74 11 111 -10 36 0 72 25 88 6 4 11 31 10
59 0 38 4 57 18 71 10 10 18 25 18 33 0 11 11 15 40 15 37 0 39 2 46 35 3 20
16 40 31 50 49 32 63 54 63 95 0 47 27 80 64 80 38 0 55 25 54 77 0 33 4 48
16 55 9 5 16 15 16 22 0 16 39 36 65 33 13 -1 21 5 23 18 3 21 43 45 74 45 11
0 18 7 18 20 0 13 7 20 20 20 11 0 20 7 20 15 0 9 7 18 16 22 12 4 14 14 9 43
-4 22 -2 41 3 44 11 6 43 69 61 119 6 15 23 32 37 37 l27 11 -7 82 c-4 45 -8
91 -8 102 -1 37 25 180 34 192 6 8 8 43 4 85 -4 40 -2 79 3 87 6 9 4 30 -4 59
-8 24 -11 50 -9 57 3 7 -1 33 -9 57 -11 32 -13 61 -8 108 5 36 4 78 0 93 -4
15 -11 59 -15 97 -6 62 -5 70 10 70 24 0 15 27 -43 125 -49 84 -91 184 -91
217 0 10 -11 41 -25 68 -14 27 -25 56 -25 64 0 9 -13 30 -28 48 -15 18 -33 44
-40 58 -25 49 -40 71 -61 91 -12 12 -26 32 -31 44 -5 13 -24 32 -42 41 -35 17
-98 73 -98 86 0 4 -16 28 -35 54 -19 25 -35 53 -35 63 0 10 -9 26 -20 36 -11
10 -20 28 -20 39 0 12 -6 30 -13 41 -7 11 -19 38 -26 60 -7 22 -23 50 -34 63
-23 25 -24 44 -10 180 6 63 13 86 26 93 20 12 21 30 5 77 -10 28 -10 36 0 39
6 3 12 20 12 38 0 43 16 53 44 26 12 -12 25 -18 29 -15 3 4 25 -10 48 -30 24
-20 53 -36 67 -36 13 0 36 -9 50 -21 20 -15 35 -19 58 -14 23 4 45 -1 79 -20
27 -14 58 -25 70 -25 35 0 97 -76 124 -150 28 -77 27 -76 45 -61 11 9 18 4 35
-29 11 -22 21 -50 21 -62 0 -20 9 -58 42 -183 5 -22 21 -52 34 -68 14 -17 30
-58 41 -110 16 -76 21 -85 65 -127 29 -27 64 -76 88 -124 37 -72 39 -82 34
-134 -3 -32 -14 -77 -24 -102 -19 -47 -18 -122 2 -147 15 -19 1 -74 -32 -126
-18 -28 -25 -47 -17 -47 25 0 83 49 107 90 14 23 37 56 51 74 15 17 29 42 33
56 4 14 11 34 15 45 5 11 15 47 23 79 7 33 18 61 24 63 6 2 17 -11 24 -28 8
-17 25 -45 39 -62 22 -27 25 -38 24 -113 -1 -48 -8 -104 -18 -133 -18 -57 -14
-102 15 -138 24 -31 11 -92 -35 -158 -19 -27 -32 -51 -30 -53 19 -19 126 71
157 133 11 22 34 54 51 72 27 29 31 41 40 130 12 133 55 293 78 293 13 0 19
-17 28 -90 6 -50 15 -100 20 -113 5 -12 14 -41 21 -65 6 -24 26 -60 44 -80 56
-62 70 -99 72 -185 1 -42 6 -78 10 -78 30 -5 68 153 58 240 -4 37 -2 61 4 65
17 10 25 -13 37 -99 l12 -80 24 50 c21 44 24 65 25 170 0 71 -5 134 -12 155
-20 58 -25 127 -10 133 10 4 13 22 11 64 -3 81 -3 80 -21 98 -22 22 -36 98
-28 156 5 39 3 53 -15 77 -11 17 -21 43 -21 59 0 19 -9 38 -25 53 -14 13 -25
28 -25 34 0 5 -10 20 -22 33 -13 14 -23 39 -25 61 -4 65 -11 77 -74 128 -59
47 -99 104 -104 150 -1 12 -32 56 -69 96 -37 40 -70 85 -73 100 -3 15 -16 37
-29 49 -13 12 -24 28 -24 35 0 6 -29 49 -65 95 -108 139 -153 230 -155 309 0
14 -9 38 -20 55 -14 21 -18 40 -14 70 3 26 -1 49 -10 65 -14 23 -51 97 -112
225 -14 28 -31 61 -39 75 -7 14 -30 59 -49 100 -20 41 -45 89 -56 105 -11 17
-28 48 -39 70 -17 36 -56 84 -126 155 -55 56 -145 186 -160 229 -14 43 -14 50
6 101 11 30 27 80 34 110 8 30 19 73 25 95 28 97 33 155 20 224 -7 38 -10 81
-8 96 3 15 1 42 -5 62 -9 27 -8 36 3 43 20 12 15 100 -10 175 -24 72 -31 186
-12 193 19 6 14 26 -16 68 -16 21 -44 70 -63 108 -44 87 -129 157 -244 201
-37 15 -58 33 -107 96 -33 43 -68 81 -77 84 -10 3 -30 18 -44 33 -24 25 -28
39 -35 128 -11 136 -9 144 39 144 22 0 56 -7 77 -16 20 -9 51 -20 67 -24 28
-8 29 -9 8 -15 -13 -4 -23 -11 -23 -16 0 -12 35 -29 59 -29 12 0 21 -4 21 -9
0 -5 17 -15 38 -22 20 -6 42 -16 49 -21 6 -5 36 -12 66 -15 50 -5 59 -3 111
31 80 51 85 68 83 262 l-1 159 47 103 c26 56 47 113 47 126 0 19 7 26 30 31
35 8 64 41 81 93 6 20 27 72 46 116 43 97 39 113 -44 150 -32 15 -74 42 -93
60 -19 19 -54 43 -77 55 -23 11 -45 25 -48 31 -12 20 -85 50 -122 51 -21 1
-49 4 -63 8 -23 6 -25 12 -25 63 0 54 -1 57 -51 101 -32 29 -54 58 -57 76 -4
17 -19 49 -34 72 -15 23 -40 62 -54 87 -35 59 -91 118 -121 125 -14 4 -48 34
-77 67 -45 52 -57 60 -87 60 -20 0 -57 13 -90 31 -64 36 -131 45 -291 38 -41
-2 -149 9 -224 22 -75 13 -134 6 -147 -18 -8 -13 -26 -14 -128 -9 -65 3 -149
6 -185 5 -36 0 -94 4 -130 10 -134 21 -167 21 -190 2z m-1007 -4101 c13 -23
24 -30 47 -30 25 0 31 -5 41 -37 7 -21 20 -51 30 -68 10 -16 25 -64 35 -105
17 -70 42 -111 74 -121 7 -3 16 -33 21 -69 14 -106 20 -125 56 -165 27 -31 34
-47 34 -81 0 -24 4 -53 9 -66 5 -13 12 -31 15 -41 5 -16 8 -17 35 -2 17 8 32
15 36 15 13 0 3 -76 -17 -133 -20 -57 -24 -101 -28 -269 -1 -46 -46 -130 -126
-241 -24 -31 -48 -74 -55 -94 -7 -21 -23 -60 -35 -88 -14 -29 -24 -69 -24 -96
0 -51 -17 -109 -31 -109 -5 0 -17 9 -26 20 -10 11 -33 23 -53 26 -52 8 -137
47 -215 98 -37 25 -90 53 -116 61 -50 17 -65 29 -70 58 -2 11 -19 24 -40 31
-71 25 -101 50 -134 111 -17 33 -34 69 -38 80 -3 11 -15 31 -27 45 -11 14 -22
41 -24 60 -3 19 -9 47 -15 63 -13 34 -7 185 8 200 6 6 11 31 11 55 0 24 8 60
17 79 14 31 15 44 5 92 -7 31 -14 100 -17 154 l-6 97 31 0 c30 0 31 1 24 35
-7 38 2 44 36 23 16 -10 23 -9 46 12 15 14 33 39 40 55 22 51 88 129 114 135
24 6 100 102 100 128 0 6 5 12 10 12 6 0 10 -7 10 -15 0 -36 59 -4 139 77 20
20 41 37 46 37 6 1 18 -13 27 -29z m-76 -2250 c0 -25 6 -57 12 -72 6 -15 8
-44 5 -65 -6 -41 -58 -153 -71 -153 -4 1 -19 11 -34 23 -19 16 -32 42 -45 90
-17 65 -17 69 0 78 9 6 17 16 17 23 0 8 7 19 15 26 11 9 12 17 5 30 -6 10 -10
25 -10 33 0 19 38 37 75 34 28 -2 30 -4 31 -47z m-233 -663 c44 -50 77 -108
77 -137 0 -12 9 -40 20 -62 11 -23 20 -47 20 -54 0 -6 7 -14 15 -18 21 -8 19
-45 -6 -113 -12 -32 -26 -68 -30 -80 -11 -31 -32 -21 -69 34 -39 57 -38 66 3
58 l32 -7 -30 31 -29 32 22 6 23 6 -27 28 c-15 15 -24 34 -21 42 3 9 -3 23
-14 33 -23 21 -25 44 -4 44 12 0 13 4 5 19 -5 11 -7 26 -5 34 7 18 -12 33 -60
50 -22 8 -42 20 -45 28 -4 8 -15 29 -25 48 l-17 33 63 -6 c60 -6 67 -9 102
-49z m-163 -4071 c6 -8 21 -16 33 -18 16 -2 23 -11 25 -31 4 -36 -23 -129 -46
-158 l-19 -22 -26 57 c-29 62 -32 141 -8 170 17 20 25 20 41 2z"/>
</g>
</svg>
