<?xml version="1.0" standalone="no"?>
<!DOCTYPE svg PUBLIC "-//W3C//DTD SVG 20010904//EN"
 "http://www.w3.org/TR/2001/REC-SVG-20010904/DTD/svg10.dtd">
<svg version="1.0" xmlns="http://www.w3.org/2000/svg"
 width="1280.000000pt" height="1280.000000pt" viewBox="0 0 1280.000000 1280.000000"
 preserveAspectRatio="xMidYMid meet">
<g transform="translate(0.000000,1280.000000) scale(0.100000,-0.100000)"
fill="#000000" stroke="none">
<path d="M7103 12041 c-9 -11 -24 -45 -34 -75 -18 -60 -35 -186 -24 -186 4 0
15 10 25 23 l19 22 40 -39 c70 -68 125 -196 170 -396 55 -246 71 -428 71 -807
0 -346 -13 -527 -47 -653 -15 -57 -41 -218 -63 -398 -21 -167 -40 -306 -43
-309 -22 -21 -78 71 -121 199 -31 90 -36 210 -11 258 8 16 20 64 26 107 17
122 17 122 53 137 84 35 118 255 50 335 -21 25 -24 39 -24 108 0 43 -7 105
-15 136 -19 73 -19 122 0 150 13 21 13 28 -3 73 -10 27 -32 72 -50 99 -17 28
-32 57 -32 65 0 18 -21 77 -38 107 -18 32 -54 39 -92 16 l-31 -18 -21 28 c-11
15 -26 27 -34 27 -8 0 -14 10 -14 25 0 25 -14 33 -25 15 -12 -19 -61 -10 -85
15 -13 14 -38 33 -54 42 -103 54 -113 57 -196 61 l-85 4 -90 -60 c-49 -33
-103 -64 -118 -67 -16 -4 -32 -17 -37 -29 -4 -12 -29 -38 -54 -57 -51 -38 -78
-86 -56 -99 10 -6 9 -17 -3 -56 -24 -78 -21 -155 8 -224 14 -33 25 -70 25 -84
0 -13 5 -26 10 -28 6 -2 15 -55 20 -117 6 -63 17 -144 26 -180 14 -60 13 -68
-2 -97 -15 -28 -16 -40 -5 -104 6 -40 18 -85 26 -101 25 -48 76 -99 99 -99 34
0 43 -12 72 -90 32 -89 45 -112 95 -165 78 -82 115 -238 67 -282 -13 -11 -34
-23 -48 -26 -14 -3 -51 -14 -83 -23 -49 -15 -65 -16 -100 -6 -208 60 -295 68
-359 36 -15 -8 -33 -14 -40 -14 -26 0 -227 309 -310 473 -22 45 -69 121 -105
170 -71 95 -104 171 -173 402 -48 161 -115 490 -131 650 -14 141 -7 383 15
500 28 149 65 232 142 316 23 25 45 55 48 67 9 28 29 28 73 1 19 -12 36 -19
39 -16 7 6 -43 117 -63 139 -28 31 -111 68 -153 68 -140 0 -294 -188 -513
-625 -120 -241 -176 -370 -233 -537 -53 -155 -54 -159 -54 -273 0 -102 -5
-135 -41 -278 -22 -89 -58 -250 -80 -357 -39 -189 -53 -272 -160 -900 -27
-162 -68 -392 -89 -510 -93 -508 -173 -1024 -196 -1265 -12 -121 -18 -271 -19
-455 0 -282 7 -379 47 -605 18 -105 19 -130 9 -206 l-11 -85 54 -225 c185
-768 264 -1017 492 -1546 41 -94 74 -179 74 -188 0 -20 -23 -66 -62 -123 -17
-24 -27 -46 -24 -49 3 -3 26 -5 52 -5 46 1 46 1 40 -28 -3 -17 -15 -49 -26
-72 -11 -23 -20 -46 -20 -52 0 -5 -9 -28 -19 -50 -10 -23 -22 -58 -25 -78 -4
-21 -13 -44 -20 -51 -8 -8 -15 -25 -15 -38 -3 -65 -14 -145 -21 -154 -5 -6
-11 -37 -14 -69 -3 -39 -11 -65 -25 -80 -12 -13 -19 -34 -19 -53 1 -20 -9 -45
-24 -65 -14 -18 -27 -44 -30 -58 -3 -14 -18 -63 -32 -110 -33 -107 -64 -371
-75 -652 -5 -114 -12 -212 -16 -218 -4 -6 -8 -71 -9 -144 -2 -127 -4 -135 -36
-200 -31 -66 -33 -72 -26 -151 5 -77 4 -84 -19 -116 -33 -45 -55 -93 -55 -121
0 -32 -63 -225 -90 -279 -32 -61 -144 -170 -283 -273 -149 -111 -160 -130
-155 -262 4 -112 13 -125 103 -149 152 -39 382 7 462 93 14 15 40 57 58 93 19
36 49 80 69 96 30 27 40 30 74 26 28 -4 51 1 83 17 62 31 78 48 85 89 4 20 18
64 30 99 28 73 30 141 9 260 -16 91 -11 129 27 230 12 31 18 66 15 85 -2 18 2
44 10 60 8 15 11 37 8 47 -3 10 5 48 19 83 15 35 26 70 26 78 0 17 33 105 43
115 4 4 7 21 7 38 0 35 31 125 55 162 8 13 15 31 15 41 0 29 36 120 59 149 12
15 21 34 21 44 0 20 53 126 76 151 9 10 14 25 10 34 -3 9 1 29 9 45 8 16 15
38 15 48 0 11 9 31 21 46 16 21 18 30 9 41 -8 10 -9 32 0 87 5 40 12 105 14
143 6 115 25 189 57 225 16 17 29 38 29 46 0 8 4 14 9 14 5 0 65 -71 134 -157
183 -231 249 -306 290 -328 20 -10 39 -16 42 -13 8 8 -53 129 -178 353 -115
206 -167 312 -167 338 0 23 54 129 74 146 9 8 16 24 16 36 0 30 37 40 62 18
10 -9 20 -14 22 -12 14 16 116 343 116 371 0 25 6 41 19 50 24 17 131 143 131
154 0 5 22 28 50 52 30 25 53 55 58 75 5 17 33 68 63 112 30 44 69 103 86 132
18 28 41 54 52 58 22 7 81 95 81 121 0 9 9 18 20 21 12 3 48 43 81 90 51 73
59 89 54 116 -13 67 169 285 348 418 98 73 144 89 193 66 19 -9 49 -17 68 -17
47 0 127 26 170 55 20 14 43 25 51 25 20 0 89 -72 135 -140 49 -73 130 -232
130 -256 0 -10 24 -62 54 -114 29 -52 77 -138 106 -190 116 -209 169 -293 297
-474 115 -162 133 -194 128 -217 -4 -19 10 -77 44 -184 28 -86 51 -162 51
-168 1 -34 17 -39 61 -18 23 12 44 21 46 21 2 0 3 -16 3 -35 0 -28 5 -37 23
-44 28 -11 97 -126 97 -163 0 -20 5 -28 18 -28 18 0 92 -79 135 -145 14 -22
47 -60 73 -85 26 -25 56 -64 67 -89 10 -24 32 -64 47 -88 16 -25 32 -59 35
-77 4 -17 22 -59 41 -93 19 -34 34 -70 34 -82 0 -11 6 -24 14 -28 16 -10 76
-131 76 -155 0 -9 5 -20 10 -23 17 -10 120 -172 120 -188 0 -7 13 -32 29 -54
36 -50 74 -124 91 -178 7 -22 18 -47 25 -55 23 -26 230 -451 264 -540 18 -47
41 -101 51 -120 9 -19 29 -75 43 -125 87 -305 111 -426 101 -500 -14 -101 -11
-355 5 -393 31 -73 138 -102 306 -82 110 13 185 37 221 71 22 20 24 31 24 112
0 124 -21 196 -84 292 -67 102 -89 155 -116 285 -30 144 -76 291 -115 373 -19
38 -31 75 -28 83 3 8 -6 26 -19 39 -14 14 -33 51 -43 82 -10 32 -28 79 -41
105 -14 27 -24 65 -24 88 0 22 -6 51 -14 63 -8 12 -17 51 -21 87 -3 36 -10 74
-15 85 -11 25 -25 114 -22 139 1 11 -4 34 -13 52 -8 18 -18 61 -21 96 -3 34
-10 72 -14 83 -14 32 -30 98 -30 126 0 14 -11 53 -25 87 -14 34 -25 75 -25 90
0 16 -16 60 -35 98 -19 37 -35 78 -35 90 0 13 -4 26 -10 29 -12 7 -80 109 -81
121 0 5 -16 29 -34 54 -19 25 -51 74 -71 110 -21 36 -45 76 -56 89 -10 13 -18
30 -18 38 0 8 -20 38 -44 67 -54 63 -72 102 -55 123 15 18 -2 37 -33 38 -17 0
-26 11 -40 50 -10 28 -21 57 -25 65 -15 37 -11 126 9 170 55 127 94 244 181
550 132 465 237 963 276 1310 29 259 60 669 68 901 l6 195 -25 45 c-25 42 -26
53 -31 249 -7 247 -25 364 -98 655 -77 303 -151 521 -471 1385 -173 467 -245
662 -332 905 -97 273 -181 490 -249 645 -36 83 -64 167 -82 250 -36 160 -116
323 -291 597 -218 342 -371 532 -457 568 -53 22 -123 20 -144 -4z m403 -4740
c89 -65 170 -164 216 -262 88 -187 151 -557 165 -958 5 -155 4 -183 -8 -179
-22 7 -209 339 -209 371 0 38 -43 163 -91 267 -30 65 -56 101 -107 152 -37 38
-81 73 -99 79 -43 14 -99 79 -113 128 -9 35 -7 51 15 118 30 88 40 103 66 103
12 0 21 10 25 28 26 119 57 182 89 182 7 0 30 -13 51 -29z m-1656 -134 c8 -36
23 -74 32 -84 35 -38 98 -374 84 -449 -7 -37 -53 -98 -142 -190 -53 -54 -63
-73 -92 -157 -17 -52 -32 -111 -32 -130 0 -22 -18 -71 -50 -134 -59 -115 -85
-152 -99 -138 -13 14 -31 264 -31 444 0 335 48 556 158 728 70 110 131 185
146 180 6 -2 18 -33 26 -70z m2684 -488 c105 -93 185 -342 230 -714 41 -348
43 -549 6 -1025 -23 -314 -38 -450 -65 -605 -50 -282 -52 -289 -85 -230 -9 17
-38 39 -70 54 l-54 26 -33 110 c-18 61 -74 247 -123 415 -104 357 -163 531
-250 732 l-62 147 51 263 c50 256 111 506 149 618 56 160 135 242 243 249 9 1
37 -18 63 -40z m-3637 -461 c34 -12 76 -38 101 -62 79 -75 235 -325 327 -525
l39 -83 -28 -47 c-15 -25 -77 -147 -138 -271 -66 -136 -121 -235 -138 -250
-41 -36 -113 -206 -105 -247 7 -39 -16 -97 -54 -138 -30 -31 -71 -105 -71
-126 0 -20 -59 -139 -69 -139 -11 0 -8 -10 -60 185 -131 489 -169 1180 -81
1484 31 109 38 123 92 185 26 30 44 41 79 46 24 4 45 8 46 9 0 0 27 -9 60 -21z"/>
</g>
</svg>
