<?xml version="1.0" standalone="no"?>
<!DOCTYPE svg PUBLIC "-//W3C//DTD SVG 20010904//EN"
 "http://www.w3.org/TR/2001/REC-SVG-20010904/DTD/svg10.dtd">
<svg version="1.0" xmlns="http://www.w3.org/2000/svg"
 width="884.000000pt" height="1280.000000pt" viewBox="0 0 884.000000 1280.000000"
 preserveAspectRatio="xMidYMid meet">
<g transform="translate(0.000000,1280.000000) scale(0.100000,-0.100000)"
fill="#000000" stroke="none">
<path d="M7406 12252 l-129 -547 107 -1325 c59 -729 120 -1485 136 -1680 16
-195 43 -526 60 -735 17 -209 42 -515 55 -679 14 -165 25 -316 24 -335 0 -35
-3 -37 -82 -76 -126 -62 -154 -120 -90 -187 43 -45 105 -68 220 -80 l105 -12
-28 -20 c-16 -12 -53 -43 -84 -70 -30 -26 -114 -92 -185 -146 -129 -96 -174
-142 -231 -230 -16 -25 -213 -227 -438 -448 -361 -354 -413 -402 -440 -402
-17 0 -36 4 -42 8 -6 4 -75 145 -154 314 l-142 307 36 43 c135 158 139 392 10
627 -109 199 -291 340 -488 379 -73 15 -93 14 -277 -4 l-199 -20 0 1502 c0
1189 -3 1504 -12 1512 -7 5 -272 103 -588 218 l-575 209 63 8 c88 11 181 55
240 114 64 64 85 112 90 200 4 61 0 80 -22 129 -14 31 -25 58 -24 59 2 1 20
11 40 24 140 84 182 269 88 388 l-20 26 37 25 c108 71 157 145 158 237 1 187
-232 327 -545 328 -130 1 -203 -12 -314 -53 -40 -15 -60 -29 -66 -46 -6 -16
-15 -22 -25 -18 -23 9 -82 -41 -115 -99 -57 -99 -35 -216 55 -295 l44 -39 -29
-28 c-50 -48 -80 -120 -80 -189 0 -72 23 -127 74 -184 26 -28 32 -41 23 -45
-25 -10 -76 -98 -87 -153 -15 -72 1 -149 45 -215 28 -41 31 -49 15 -44 -11 4
-58 -9 -112 -29 -51 -19 -354 -132 -673 -251 -319 -119 -611 -228 -650 -242
-38 -15 -76 -33 -83 -42 -9 -12 -12 -329 -12 -1511 l0 -1496 -192 20 c-239 24
-296 17 -438 -51 -82 -40 -108 -59 -191 -142 -84 -84 -102 -109 -148 -201 -54
-111 -91 -234 -91 -306 0 -119 54 -250 135 -329 31 -30 65 -55 76 -55 15 0 18
-5 14 -22 -3 -13 -46 -187 -95 -388 -50 -201 -92 -375 -95 -387 -3 -13 -21
-31 -43 -42 -50 -26 -111 -87 -133 -136 -11 -24 -19 -63 -19 -97 l0 -58 -37 0
c-68 -1 -805 -48 -809 -52 -8 -9 -24 -374 -24 -573 0 -862 133 -1679 369
-2253 148 -359 316 -620 540 -842 133 -131 228 -205 372 -287 105 -60 292
-136 335 -137 66 0 316 159 473 301 126 114 290 327 369 478 l26 50 13 -170
c8 -93 23 -213 33 -265 l20 -95 -37 -30 c-21 -16 -67 -57 -103 -90 -77 -69
-158 -115 -620 -345 -474 -237 -532 -273 -543 -343 -12 -75 73 -101 263 -78
52 7 214 36 360 66 297 60 864 161 1130 201 210 31 308 60 392 117 105 70 134
135 125 277 -8 131 -60 252 -139 328 l-35 33 5 246 5 247 32 42 c57 74 70 197
29 276 -14 28 -16 64 -15 263 3 355 22 571 65 733 23 85 16 83 204 80 l166 -3
36 -95 c36 -95 111 -249 240 -495 75 -142 129 -261 167 -370 32 -93 65 -240
65 -290 0 -22 -24 -107 -52 -190 -29 -82 -77 -225 -108 -317 l-55 -167 -43 29
c-41 29 -43 29 -78 15 -120 -51 -191 -222 -166 -402 14 -102 43 -165 99 -214
95 -84 173 -111 435 -149 286 -42 794 -131 1051 -185 175 -37 248 -48 355 -52
128 -5 136 -4 163 17 20 16 27 30 27 55 0 73 -67 118 -560 380 -386 205 -442
238 -514 310 -34 33 -75 71 -93 85 l-32 25 20 44 c24 53 60 99 194 245 156
170 245 275 287 340 21 33 59 80 84 104 69 69 98 132 98 217 0 56 -6 80 -26
121 -33 62 -120 143 -192 179 -45 22 -56 32 -61 58 -4 18 -28 109 -55 202 -65
230 -69 249 -85 392 -8 69 -17 129 -20 133 -3 4 30 11 73 15 42 4 93 13 113
19 118 41 181 164 210 411 16 135 5 991 -15 1260 -40 517 -106 943 -184 1193
l-20 62 87 0 88 0 234 -497 c169 -358 237 -513 246 -558 25 -134 103 -232 236
-295 233 -111 522 -43 648 153 22 33 42 78 46 100 3 22 15 49 27 62 23 25 832
772 857 793 14 10 24 9 61 -7 25 -10 69 -24 99 -30 53 -11 54 -13 84 -74 30
-61 73 -103 151 -143 48 -25 97 -12 155 43 26 25 51 53 54 63 3 11 23 22 49
29 33 8 56 24 90 62 53 59 76 123 76 214 0 57 2 63 31 84 17 13 42 48 56 78
24 53 25 59 14 126 -7 39 -17 77 -23 84 -8 11 -5 20 14 41 43 46 58 86 58 158
0 66 0 67 -47 114 -41 40 -56 49 -99 55 l-52 7 -7 45 c-3 25 -5 46 -3 47 2 2
43 13 93 25 131 32 231 77 281 126 58 55 59 89 7 146 -37 39 -41 40 -116 46
-44 3 -81 11 -83 17 -2 6 -67 666 -144 1466 -77 800 -147 1523 -155 1605 -8
83 -49 501 -90 930 l-76 779 -282 503 c-225 401 -286 503 -302 503 -18 0 -32
-49 -149 -548z m-5400 -6394 c-14 -49 -56 -361 -66 -487 -5 -74 -10 -230 -10
-347 l0 -211 -31 -7 c-17 -3 -44 -6 -60 -6 -28 0 -30 3 -44 64 -8 38 -57 108
-90 130 -16 11 -24 23 -21 34 21 74 259 839 263 845 2 4 18 7 35 7 27 0 30 -3
24 -22z"/>
</g>
</svg>
