<?xml version="1.0" standalone="no"?>
<!DOCTYPE svg PUBLIC "-//W3C//DTD SVG 20010904//EN"
 "http://www.w3.org/TR/2001/REC-SVG-20010904/DTD/svg10.dtd">
<svg version="1.0" xmlns="http://www.w3.org/2000/svg"
 width="811.000000pt" height="1280.000000pt" viewBox="0 0 811.000000 1280.000000"
 preserveAspectRatio="xMidYMid meet">
<g transform="translate(0.000000,1280.000000) scale(0.100000,-0.100000)"
fill="#000000" stroke="none">
<path d="M4945 12788 c-2 -7 -38 -254 -81 -550 l-78 -536 197 -605 c108 -333
197 -607 197 -610 0 -3 -32 -15 -70 -28 -62 -20 -69 -25 -64 -43 4 -12 21 -76
39 -144 l31 -122 -50 -15 c-28 -7 -68 -18 -88 -24 -43 -11 -34 -30 -84 174
-15 61 -30 114 -35 119 -4 5 -47 -1 -99 -14 -72 -18 -94 -20 -100 -10 -4 7
-20 60 -35 119 -68 260 -186 551 -287 707 -99 153 -231 280 -373 360 -86 47
-231 99 -326 115 l-77 13 -5 47 c-3 27 -12 60 -20 75 -13 26 -12 30 24 78 112
147 118 359 14 455 -54 50 -101 65 -184 59 -81 -6 -137 -33 -203 -99 -27 -27
-51 -49 -53 -49 -2 0 -6 13 -10 28 -3 16 -20 45 -36 65 -73 88 -193 107 -311
49 -36 -18 -82 -51 -103 -73 -50 -55 -95 -155 -108 -239 -10 -62 -14 -69 -45
-86 -77 -41 -157 -155 -184 -261 -7 -27 -13 -50 -14 -52 -2 -1 -45 11 -96 28
-327 108 -656 130 -920 63 -293 -76 -535 -227 -819 -511 -168 -169 -213 -232
-309 -433 -186 -390 -227 -800 -120 -1213 64 -247 152 -461 390 -950 190 -391
288 -635 346 -862 10 -40 22 -73 26 -73 5 0 31 11 58 25 27 14 53 25 58 25 6
0 28 -29 51 -64 23 -35 66 -96 96 -136 30 -41 55 -79 55 -86 0 -7 -32 -42 -72
-79 -56 -52 -98 -79 -196 -126 -109 -53 -133 -69 -201 -137 -95 -95 -122 -147
-200 -377 -100 -299 -141 -503 -141 -708 0 -134 10 -297 19 -296 3 0 38 37 76
81 92 106 183 181 253 207 31 12 79 36 106 53 51 33 159 153 204 227 51 82 97
124 242 219 154 102 218 154 250 207 12 19 28 81 41 156 11 68 24 129 28 136
5 9 21 6 61 -13 30 -14 120 -48 199 -75 155 -53 145 -53 202 -2 15 14 32 21
42 18 14 -6 14 -11 2 -45 -8 -22 -19 -65 -26 -97 l-12 -58 -87 -43 c-167 -83
-317 -227 -409 -394 -23 -43 -68 -106 -101 -140 -202 -217 -385 -520 -489
-808 -47 -129 -44 -122 -153 -319 -132 -235 -194 -396 -224 -580 -11 -70 -12
-96 -4 -101 7 -4 52 -13 101 -20 78 -10 90 -14 94 -33 3 -12 21 -133 40 -270
61 -431 90 -544 149 -583 34 -22 188 -31 270 -15 33 6 61 9 63 8 1 -2 11 -53
21 -113 l18 -109 34 -5 c46 -7 52 -32 54 -205 1 -159 -12 -205 -84 -313 l-39
-57 37 -39 c81 -85 176 -128 322 -147 l87 -11 7 -69 c3 -38 11 -149 16 -246 6
-98 15 -217 21 -264 12 -88 9 -133 -10 -204 -20 -74 -40 -279 -51 -525 -6
-135 -16 -263 -22 -285 -5 -22 -12 -49 -15 -60 -3 -11 -7 -79 -10 -151 -4
-103 -2 -148 11 -208 47 -209 191 -369 388 -431 183 -58 429 -17 790 131 l107
43 63 -65 c72 -75 185 -137 283 -155 156 -29 424 28 729 155 48 21 168 59 265
86 263 72 398 130 522 226 78 59 91 79 124 176 34 100 39 228 12 291 -25 58
-132 218 -169 253 -47 45 -116 59 -278 58 -101 -1 -181 -9 -319 -33 -102 -17
-205 -31 -229 -31 l-45 0 7 78 c3 42 9 154 12 247 9 235 -10 321 -88 405 l-32
35 -1 155 c0 151 1 160 43 318 23 90 42 179 42 197 0 19 5 37 10 40 6 3 58 6
118 6 128 0 226 -23 332 -76 40 -20 74 -34 76 -32 2 2 7 53 11 113 10 191 -22
319 -152 594 -95 199 -119 266 -135 376 -12 77 -6 227 9 252 5 8 38 -13 102
-64 120 -96 200 -145 249 -151 53 -7 162 27 235 75 33 22 110 81 170 132 175
147 230 179 337 194 44 7 53 13 134 104 119 132 221 261 287 360 54 81 55 82
65 55 5 -16 186 -521 402 -1123 215 -602 455 -1273 532 -1490 78 -217 144
-399 149 -404 4 -4 296 187 648 425 542 366 641 436 641 456 0 16 -226 319
-680 911 l-680 887 8 120 c14 232 8 709 -11 840 -88 602 -341 924 -781 995
-64 11 -77 16 -81 34 -3 12 -43 174 -89 361 -46 187 -197 801 -335 1365 -139
564 -254 1032 -257 1041 -3 13 15 21 91 41 l95 25 7 -26 c3 -14 18 -71 33
-126 l26 -100 354 -31 c195 -18 356 -31 358 -30 1 2 -20 108 -48 236 -27 128
-50 239 -50 245 0 7 20 18 44 24 l43 11 -34 137 c-19 76 -39 162 -45 191 -11
55 -15 57 -64 43 l-31 -9 -32 145 c-17 80 -29 149 -26 153 3 5 19 11 36 15 17
4 28 12 26 18 -2 7 -23 92 -47 191 l-42 178 -32 -5 -32 -5 -36 166 c-19 92
-39 166 -44 165 -5 -1 -21 -4 -35 -8 -25 -6 -25 -6 -53 142 -89 466 -170 861
-206 1004 -99 398 -231 707 -398 932 -38 50 -47 57 -78 57 -19 0 -36 -6 -39
-12z m-1250 -1230 c403 -100 650 -428 833 -1110 32 -119 35 -110 -39 -123 -28
-5 -61 -30 -149 -113 l-113 -107 39 -277 38 -277 140 -62 c78 -34 146 -67 152
-73 6 -6 32 -108 57 -226 26 -118 198 -917 382 -1775 185 -858 339 -1572 342
-1586 4 -21 1 -28 -15 -33 -41 -13 -56 -128 -26 -189 9 -18 38 -55 65 -82 69
-71 74 -97 37 -171 -97 -189 -327 -421 -574 -577 -68 -43 -100 -57 -128 -57
-38 0 -116 33 -116 49 0 5 17 20 37 32 32 20 211 155 237 180 5 4 -45 64 -116
138 -195 202 -349 404 -426 557 -40 78 -163 283 -213 353 -22 30 -39 66 -39
80 0 59 -44 176 -129 348 -98 195 -96 193 -180 193 -14 0 -50 16 -80 34 l-55
34 39 16 c21 9 49 19 62 22 13 4 26 10 29 15 3 5 28 -3 55 -18 l49 -28 150
150 c82 82 150 152 150 155 0 3 -22 18 -50 33 -27 15 -51 31 -54 35 -3 5 29
75 69 158 41 82 96 197 124 256 l49 107 -36 27 c-169 125 -192 199 -126 403
19 60 39 133 43 162 l8 51 -46 29 c-25 17 -56 32 -68 35 -13 4 -23 14 -23 24
0 9 -3 44 -6 78 l-7 61 44 -16 c27 -10 89 -18 161 -21 110 -4 120 -2 174 22
132 61 202 156 191 262 -8 77 -56 159 -143 246 -82 81 -94 86 -234 87 -41 1
-91 4 -111 7 l-35 6 23 127 c25 135 41 199 68 271 22 58 16 123 -18 192 -15
31 -28 80 -32 118 -18 190 -80 425 -158 602 l-25 57 54 26 c108 53 136 145 79
261 -28 56 -173 214 -278 302 l-38 32 29 98 29 99 -146 6 c-158 7 -224 17
-286 42 l-40 17 38 30 c47 38 87 95 117 170 26 65 15 63 165 26z m1558 -1940
c20 -78 35 -144 32 -146 -5 -6 -178 -53 -180 -49 0 1 -17 68 -36 148 l-36 147
71 20 c118 34 108 42 149 -120z m702 -3504 c13 -5 14 -8 3 -15 -20 -13 -38
-11 -38 6 0 16 9 19 35 9z m375 -180 c36 -34 79 -81 97 -106 26 -37 29 -46 18
-61 -15 -20 -25 -22 -25 -4 0 31 -61 133 -89 150 -39 23 -88 22 -130 -4 -28
-17 -33 -18 -27 -4 3 9 6 44 6 76 l0 60 42 -23 c23 -13 72 -51 108 -84z m234
-384 c34 -98 72 -287 87 -425 13 -121 16 -589 4 -672 l-7 -53 -52 68 c-28 37
-86 113 -129 169 l-78 102 25 273 c20 207 31 286 47 328 16 42 19 66 14 105
-9 65 -8 175 1 245 l7 55 28 -60 c15 -33 39 -94 53 -135z m-3753 -3037 l36 -5
11 -137 c6 -75 14 -190 18 -256 3 -66 12 -146 19 -177 11 -53 10 -67 -12 -155
-26 -110 -33 -246 -20 -410 l9 -103 -60 0 -61 0 2 273 c1 293 -8 369 -55 460
-19 37 -21 56 -20 157 2 114 9 173 39 303 14 63 17 68 37 62 11 -3 37 -9 57
-12z"/>
</g>
</svg>
