<?xml version="1.0" standalone="no"?>
<!DOCTYPE svg PUBLIC "-//W3C//DTD SVG 20010904//EN"
 "http://www.w3.org/TR/2001/REC-SVG-20010904/DTD/svg10.dtd">
<svg version="1.0" xmlns="http://www.w3.org/2000/svg"
 width="806.000000pt" height="1280.000000pt" viewBox="0 0 806.000000 1280.000000"
 preserveAspectRatio="xMidYMid meet">
<g transform="translate(0.000000,1280.000000) scale(0.100000,-0.100000)"
fill="#000000" stroke="none">
<path d="M4136 11655 c4 -16 29 -109 56 -205 64 -225 88 -339 88 -422 0 -68
-6 -98 -20 -98 -5 0 -23 26 -41 58 -87 155 -310 310 -617 428 -194 75 -594
195 -607 182 -3 -3 12 -32 34 -64 21 -32 47 -83 56 -112 27 -81 21 -84 -150
-59 -225 31 -1025 29 -1025 -4 0 -5 5 -9 11 -9 6 0 57 -22 113 -49 99 -48 185
-118 172 -139 -3 -5 -92 -12 -198 -15 -276 -9 -439 -47 -653 -154 -81 -41
-288 -174 -300 -192 -2 -4 62 -13 143 -19 153 -12 238 -31 285 -64 50 -36 38
-49 -110 -112 -169 -73 -311 -143 -400 -197 -97 -59 -214 -149 -208 -159 3 -5
65 -6 138 -3 141 6 229 -8 258 -43 12 -14 11 -19 -9 -33 -96 -68 -144 -110
-190 -164 -54 -62 -254 -358 -247 -365 2 -2 34 7 72 21 130 47 331 79 362 58
11 -7 4 -21 -36 -68 -65 -74 -104 -142 -138 -235 -26 -71 -86 -310 -80 -316 1
-2 19 19 38 45 47 63 113 127 120 116 4 -6 -40 -91 -97 -191 -69 -120 -113
-212 -134 -274 -32 -97 -50 -198 -35 -197 4 0 37 46 73 102 59 93 200 257 221
257 15 0 10 -112 -17 -352 -31 -274 -38 -592 -15 -723 7 -44 15 -84 18 -89 3
-5 25 49 49 119 61 184 218 491 249 488 6 -1 18 -34 28 -75 18 -69 18 -81 3
-233 -29 -287 -18 -490 33 -660 32 -107 41 -112 41 -22 0 45 4 77 10 77 11 0
82 -95 117 -156 l22 -39 1 83 c0 109 18 110 58 5 17 -43 32 -87 35 -98 3 -14
5 -11 6 10 3 76 10 71 239 -160 229 -233 407 -386 507 -435 73 -36 161 -54
227 -45 34 5 53 3 64 -6 25 -20 61 -99 73 -160 21 -101 -3 -137 -95 -146 -72
-7 -125 -35 -187 -102 -117 -125 -287 -433 -351 -636 -20 -60 -45 -139 -56
-175 -12 -36 -36 -123 -55 -195 -65 -247 -165 -580 -210 -695 l-45 -115 -236
-280 c-130 -154 -301 -357 -379 -450 l-143 -171 -106 -494 c-57 -272 -103
-496 -101 -498 2 -2 12 1 24 7 22 12 963 211 999 211 12 0 22 -2 22 -4 0 -3
-11 -51 -25 -108 -14 -57 -31 -160 -37 -230 -17 -177 -3 -274 63 -437 10 -24
11 -35 3 -38 -43 -15 -308 -197 -334 -230 -49 -63 -65 -155 -36 -211 16 -30
77 -90 118 -115 53 -33 129 -57 260 -82 73 -15 197 -45 276 -67 116 -33 154
-40 205 -36 108 7 217 68 389 220 57 50 146 122 198 160 146 107 137 87 139
305 1 216 7 236 64 241 53 5 63 -22 48 -123 -17 -116 -15 -179 8 -199 10 -10
52 -23 93 -30 40 -7 135 -28 211 -46 113 -27 137 -36 137 -51 0 -10 -5 -21
-10 -24 -6 -4 -23 -30 -37 -58 -23 -43 -28 -65 -28 -127 0 -63 5 -84 30 -135
71 -141 256 -267 358 -241 13 3 50 33 82 66 66 67 115 95 151 86 14 -4 52 -32
86 -63 l61 -55 106 4 c121 6 184 26 366 114 161 78 225 139 225 214 0 49 -25
85 -82 120 -88 54 -138 101 -201 185 -91 123 -91 115 -19 185 109 106 146 190
146 330 0 102 -19 167 -109 389 -41 99 -61 159 -55 166 5 6 50 17 99 24 107
16 90 -13 156 276 36 159 49 203 66 215 78 56 103 88 162 208 56 114 61 130
61 191 0 81 -17 117 -120 251 -40 52 -89 131 -109 175 -69 151 -199 570 -294
950 -67 267 -121 504 -121 529 0 15 123 193 333 486 l334 462 -5 357 -5 357
776 947 c427 521 889 1077 1026 1235 138 158 251 292 253 297 3 12 -303 245
-314 239 -34 -21 -502 -574 -993 -1174 -411 -502 -571 -693 -771 -920 -248
-281 -281 -316 -289 -308 -5 4 13 56 38 115 89 210 173 489 207 688 28 164 32
177 43 166 9 -9 -3 -353 -18 -501 l-5 -45 20 40 c34 69 110 314 135 440 75
372 51 697 -76 1027 -17 43 -28 82 -24 86 11 11 159 -150 194 -210 30 -51 31
-52 31 -22 0 99 -50 286 -110 404 -53 105 -183 285 -249 344 -33 29 -27 46 17
46 59 -1 111 -31 191 -111 l73 -74 -7 40 c-9 55 -47 136 -87 186 -68 85 -222
174 -380 220 -43 12 -78 27 -78 34 0 6 21 21 46 33 25 12 68 43 95 69 51 48
146 180 136 190 -11 10 -220 -123 -284 -181 -35 -32 -66 -56 -68 -54 -3 3 0
72 7 154 10 138 6 244 -10 244 -12 -1 -100 -123 -133 -184 -17 -31 -36 -55
-41 -54 -6 2 -28 55 -49 118 -55 167 -182 413 -319 618 -65 97 -130 191 -144
207 l-26 30 6 -30z m704 -3930 l0 -64 -37 -6 c-21 -3 -47 -8 -59 -10 -48 -10
-36 22 34 97 24 26 49 48 53 48 5 0 9 -29 9 -65z m0 -184 c0 -84 -3 -102 -21
-125 -25 -32 -37 -32 -100 0 -28 14 -55 24 -60 22 -5 -2 7 -26 26 -55 19 -29
35 -56 35 -61 0 -18 -362 -350 -518 -476 -94 -76 -106 -76 -118 1 -9 62 18
156 68 234 23 35 87 109 142 165 78 78 111 104 146 115 33 10 48 22 58 44 8
18 43 50 84 79 95 66 239 156 250 156 4 0 8 -44 8 -99z m-2698 -5736 c109 -54
169 -73 281 -88 l82 -12 3 -40 c6 -64 -6 -100 -48 -148 -54 -61 -128 -97 -199
-97 -94 0 -124 18 -86 50 8 7 15 25 15 40 0 39 -41 70 -93 70 -34 0 -46 -6
-79 -41 -40 -42 -40 -42 -81 -29 -22 6 -79 30 -126 51 -46 22 -103 42 -125 45
-68 9 -69 10 -52 43 35 67 135 126 253 150 48 10 102 25 118 34 17 9 33 16 37
17 4 0 49 -20 100 -45z"/>
</g>
</svg>
