<?xml version="1.0" standalone="no"?>
<!DOCTYPE svg PUBLIC "-//W3C//DTD SVG 20010904//EN"
 "http://www.w3.org/TR/2001/REC-SVG-20010904/DTD/svg10.dtd">
<svg version="1.0" xmlns="http://www.w3.org/2000/svg"
 width="834.000000pt" height="1280.000000pt" viewBox="0 0 834.000000 1280.000000"
 preserveAspectRatio="xMidYMid meet">
<g transform="translate(0.000000,1280.000000) scale(0.100000,-0.100000)"
fill="#000000" stroke="none">
<path d="M6570 12776 c0 -25 53 -125 123 -232 265 -405 443 -803 513 -1144 22
-106 25 -322 5 -400 -33 -134 -77 -189 -201 -254 l-66 -35 -12 -188 c-27 -401
-35 -489 -47 -513 -7 -14 -16 -49 -20 -77 -6 -44 -3 -61 16 -99 14 -30 19 -51
13 -59 -111 -145 -158 -281 -158 -455 -1 -119 18 -211 64 -304 l28 -59 -31
-40 c-30 -36 -32 -44 -32 -117 0 -87 13 -111 73 -137 l32 -13 0 -82 c0 -79 -1
-83 -32 -115 -31 -32 -32 -35 -21 -76 10 -36 10 -44 -4 -54 -9 -7 -28 -13 -41
-13 -39 0 -105 -74 -132 -147 l-22 -62 -59 6 c-64 6 -84 -3 -100 -46 -17 -42
-49 -405 -40 -438 23 -78 58 -106 145 -113 l61 -5 7 -40 c3 -22 14 -57 22 -77
l16 -37 -47 -58 c-104 -129 -217 -254 -304 -335 l-92 -87 7 -79 c5 -59 4 -81
-6 -89 -7 -6 -105 -18 -218 -27 -299 -25 -272 -25 -288 7 -10 21 -20 27 -47
27 -44 0 -55 20 -55 103 0 78 -13 93 -95 108 -74 13 -118 5 -178 -33 l-48 -31
-32 31 c-39 38 -111 71 -154 72 -24 0 -37 -7 -49 -25 -15 -23 -21 -24 -68 -19
-40 4 -60 1 -90 -15 -40 -21 -40 -21 -61 -1 -27 25 -70 25 -135 1 l-50 -19 -5
24 c-3 13 -7 35 -10 48 -3 16 -17 29 -45 40 l-40 16 0 115 0 114 124 121 c133
130 148 154 161 255 7 57 10 63 89 150 121 132 274 312 301 354 47 72 84 216
113 435 10 71 22 131 28 133 6 2 21 -20 34 -48 14 -28 41 -69 62 -90 42 -43
66 -52 47 -18 -14 26 1 39 45 39 23 0 42 13 80 53 61 63 103 138 149 273 58
166 82 299 82 449 0 151 -18 212 -85 288 l-39 44 6 135 c13 288 -52 555 -227
933 -23 50 -62 153 -86 230 -122 380 -163 454 -307 555 -79 56 -151 86 -229
96 -84 11 -88 15 -88 92 0 169 -117 384 -247 454 -76 41 -142 52 -272 45 -149
-8 -265 -36 -567 -136 -363 -119 -431 -135 -595 -136 -131 0 -137 1 -195 30
-44 23 -68 44 -94 82 -19 29 -38 52 -41 53 -11 0 -46 -92 -59 -155 -15 -73 -7
-161 20 -223 25 -56 26 -55 -95 -107 -358 -155 -657 -350 -791 -516 -120 -149
-153 -248 -161 -474 -5 -179 -11 -207 -53 -261 -55 -69 -62 -137 -30 -310 14
-70 24 -183 29 -319 5 -133 13 -219 20 -234 9 -16 11 -44 5 -95 -10 -98 -7
-179 11 -293 44 -271 132 -513 213 -584 29 -26 41 -30 70 -26 37 7 37 8 16
-63 -14 -50 64 39 93 107 15 35 32 62 37 60 5 -2 24 -77 42 -168 34 -170 81
-322 117 -374 29 -43 79 -98 254 -282 140 -147 153 -165 153 -198 0 -61 33
-106 184 -252 l146 -141 0 -80 c0 -44 -3 -88 -6 -97 -4 -9 -24 -23 -45 -31
-26 -11 -41 -25 -48 -45 -10 -30 -25 -37 -37 -18 -4 8 -27 10 -66 6 -63 -6
-93 -24 -109 -64 -7 -19 -16 -23 -49 -23 -45 0 -73 -11 -107 -43 -22 -19 -24
-20 -42 -3 -46 42 -138 -40 -175 -157 -5 -17 -13 -18 -64 -12 -49 5 -67 3
-107 -16 -56 -26 -125 -89 -125 -113 0 -9 14 -44 31 -78 34 -67 31 -100 -11
-113 -20 -6 -21 -12 -16 -58 l6 -52 -67 -84 c-202 -251 -427 -555 -458 -616
-27 -53 -37 -87 -41 -140 -8 -108 -9 -109 -74 -149 -62 -38 -69 -51 -48 -78 7
-9 130 -127 273 -263 143 -136 263 -252 267 -259 7 -12 0 -48 -73 -396 -138
-647 -255 -1034 -408 -1338 -209 -417 -474 -631 -877 -708 -98 -18 -340 -24
-461 -11 -62 7 -73 6 -73 -7 0 -27 88 -245 142 -349 83 -162 197 -324 314
-446 209 -218 387 -317 594 -328 100 -6 201 9 219 31 6 7 44 127 86 266 41
140 79 258 84 263 10 10 61 -20 61 -37 0 -6 -20 -87 -45 -181 l-45 -170 18
-49 c33 -94 130 -175 209 -176 18 0 73 12 123 26 66 19 107 25 146 22 50 -4
58 -9 121 -69 38 -36 84 -75 104 -87 61 -37 162 -70 250 -81 156 -21 159 -24
62 -69 -178 -80 -302 -122 -365 -123 -122 -2 -146 -24 -154 -139 -3 -41 -10
-92 -16 -113 -9 -31 -9 -40 2 -47 21 -13 148 -29 329 -41 177 -12 429 -1 488
22 15 5 55 36 88 68 124 120 203 123 198 9 -2 -37 2 -50 14 -55 21 -8 292 14
348 28 24 6 46 17 48 23 6 14 -9 214 -18 257 -3 15 -2 30 4 33 5 4 99 -7 208
-24 263 -42 390 -48 484 -26 39 10 73 15 77 12 3 -4 -4 -48 -16 -99 -12 -50
-26 -141 -32 -200 -12 -122 -7 -136 65 -191 107 -82 348 -136 479 -108 28 7
87 19 131 28 88 18 217 67 236 90 21 26 -33 218 -86 304 -54 87 -115 214 -115
239 0 15 6 35 13 45 13 18 18 18 145 1 151 -21 198 -15 302 37 150 75 300 294
300 438 0 69 11 80 85 80 52 0 68 -4 89 -23 24 -21 25 -30 50 -337 15 -173 29
-326 32 -340 6 -25 6 -24 46 20 51 57 123 204 144 295 22 95 15 209 -30 528
l-37 257 32 40 32 40 -6 137 c-24 530 -296 2188 -582 3553 -58 279 -80 398
-74 403 2 2 33 17 69 34 77 36 83 38 530 103 388 57 405 61 475 100 28 15 74
31 102 35 51 7 54 6 118 -42 58 -43 65 -52 65 -83 0 -19 -54 -1313 -121 -2874
-104 -2456 -119 -2841 -106 -2853 35 -35 218 -41 250 -8 10 10 16 65 21 207 3
106 11 290 16 408 5 118 14 325 20 460 6 135 15 350 20 478 6 127 14 337 20
465 5 127 14 339 20 470 5 130 15 343 20 472 6 129 15 341 20 470 6 129 14
340 20 468 5 127 14 339 20 470 5 130 15 343 20 472 6 129 15 342 20 473 6
130 15 343 20 472 6 129 15 339 20 467 l11 231 48 104 c65 138 99 237 111 317
6 46 14 69 27 76 28 16 82 76 109 121 34 58 63 182 71 302 4 70 10 102 18 102
14 0 200 -242 252 -329 41 -66 40 -73 -17 -200 -175 -396 -136 -849 117 -1356
67 -134 143 -268 149 -262 2 1 -19 68 -46 147 -100 296 -133 462 -133 675 0
175 16 276 69 422 75 208 113 428 94 548 -32 203 -194 429 -451 631 -89 71
-111 94 -135 142 -18 35 -60 88 -108 136 l-78 79 12 59 c12 56 12 60 -9 82
-16 17 -22 33 -19 57 3 33 4 34 56 39 73 8 100 36 113 123 10 61 8 72 -10 110
-12 24 -21 46 -21 50 0 4 15 28 34 54 147 207 175 478 74 705 -21 47 -28 74
-22 83 44 60 49 72 52 139 2 39 7 74 11 79 9 9 151 -9 185 -24 53 -25 189
-261 245 -426 50 -150 86 -331 97 -491 7 -102 19 -151 33 -136 15 17 90 210
145 375 93 280 171 633 147 671 -16 25 -14 45 5 56 20 11 32 97 40 303 l6 146
-56 32 c-31 18 -56 36 -56 41 0 5 20 23 45 40 25 17 45 33 45 36 0 2 -7 49
-15 105 -49 323 -146 601 -304 869 -100 168 -98 166 -154 152 -85 -22 -95 -13
-52 50 29 42 31 61 11 78 -12 9 -31 8 -91 -5 -43 -10 -80 -14 -85 -9 -5 5 5
38 21 74 18 39 28 74 24 87 -11 45 -303 301 -498 437 -200 139 -607 368 -607
342z"/>
</g>
</svg>
