<?xml version="1.0" standalone="no"?>
<!DOCTYPE svg PUBLIC "-//W3C//DTD SVG 20010904//EN"
 "http://www.w3.org/TR/2001/REC-SVG-20010904/DTD/svg10.dtd">
<svg version="1.0" xmlns="http://www.w3.org/2000/svg"
 width="1280.000000pt" height="1280.000000pt" viewBox="0 0 1280.000000 1280.000000"
 preserveAspectRatio="xMidYMid meet">
<g transform="translate(0.000000,1280.000000) scale(0.100000,-0.100000)"
fill="#000000" stroke="none">
<path d="M5883 12648 c-6 -7 -21 -33 -33 -58 -12 -25 -33 -54 -46 -65 -34 -28
-74 -137 -74 -201 0 -75 18 -197 40 -268 25 -77 94 -196 155 -264 38 -42 46
-57 41 -77 -5 -19 -13 -25 -34 -25 -15 0 -33 5 -40 12 -12 12 -13 5 -16 -116
-1 -22 -6 -41 -12 -43 -8 -3 -14 26 -18 89 -11 155 -17 188 -32 188 -11 0 -14
-26 -14 -135 0 -74 -4 -135 -8 -135 -21 0 -42 39 -42 78 0 22 -5 53 -11 69
l-10 28 -18 -24 c-12 -16 -21 -20 -25 -12 -14 22 -23 10 -29 -41 -6 -47 -20
-78 -31 -67 -2 2 -10 51 -16 109 -14 127 -31 148 -44 55 -5 -36 -13 -65 -18
-65 -4 0 -8 -22 -8 -50 0 -27 -4 -50 -9 -50 -6 0 -24 20 -42 45 -31 44 -33 44
-47 24 -11 -16 -13 -36 -8 -82 16 -143 85 -405 165 -631 24 -65 31 -102 29
-140 -3 -49 -4 -51 -33 -54 -91 -8 -92 -8 -98 -65 -4 -34 9 -174 40 -415 25
-199 44 -364 41 -367 -3 -3 -39 -9 -81 -15 -154 -19 -234 -47 -345 -117 -103
-66 -159 -92 -199 -93 -12 0 -52 -21 -90 -47 -37 -25 -122 -68 -187 -94 -65
-26 -156 -70 -201 -98 -46 -28 -105 -59 -132 -70 -81 -32 -303 -182 -372 -252
-145 -147 -167 -299 -70 -491 16 -31 29 -62 29 -67 0 -13 133 -251 170 -306
65 -95 180 -288 180 -301 0 -8 4 -14 9 -14 15 0 158 -196 196 -268 46 -88 96
-154 127 -169 21 -11 27 -25 40 -91 9 -43 35 -122 58 -175 24 -54 40 -100 37
-104 -13 -12 -484 160 -807 294 -336 140 -745 338 -1045 506 -275 154 -540
310 -565 332 -23 20 -100 44 -100 30 0 -9 179 -139 305 -220 655 -425 1359
-779 2100 -1055 77 -29 145 -56 152 -62 7 -6 8 -20 3 -41 -5 -18 -11 -48 -14
-68 -4 -20 -28 -72 -54 -116 -46 -77 -82 -180 -97 -283 -4 -25 -18 -101 -31
-170 -14 -69 -29 -158 -35 -199 -12 -86 -9 -91 61 -91 25 0 51 -4 59 -9 11 -7
16 -63 22 -268 16 -490 28 -584 104 -808 35 -102 61 -272 85 -550 6 -66 16
-169 22 -230 17 -156 14 -365 -6 -404 -11 -21 -16 -53 -14 -103 2 -77 -11
-118 -39 -118 -13 0 -15 -9 -9 -56 4 -32 16 -69 27 -85 11 -16 17 -33 14 -39
-4 -6 -103 -10 -269 -10 l-263 0 -49 26 c-128 69 -176 88 -288 114 -119 27
-260 56 -344 70 -55 9 -60 15 -33 44 18 19 21 28 12 44 -13 25 -105 104 -194
166 -37 26 -100 72 -139 101 -111 84 -224 120 -430 140 -65 6 -71 9 -131 63
-35 31 -78 65 -95 74 -39 21 -40 33 -4 52 24 13 25 15 9 22 -10 4 -37 1 -60
-7 -47 -16 -68 -14 -80 7 -10 17 -39 18 -54 3 -13 -13 -166 -8 -197 6 -13 6
-17 5 -12 -3 15 -24 -17 -22 -62 5 -66 41 -96 50 -182 58 -135 13 -145 12
-145 -10 0 -14 17 -28 61 -50 33 -16 69 -39 80 -50 11 -11 56 -40 102 -63 45
-24 82 -47 82 -52 0 -4 -30 -11 -67 -14 -73 -7 -133 -18 -366 -66 -162 -34
-197 -46 -197 -67 0 -21 76 -64 243 -138 83 -37 176 -78 205 -91 29 -13 56
-24 60 -24 16 0 207 -142 207 -153 0 -13 -31 -14 -115 -4 -53 6 -54 6 -10 -4
115 -24 113 -23 149 -99 36 -75 61 -100 98 -100 16 0 62 -38 151 -128 70 -70
172 -159 227 -199 86 -62 327 -269 420 -361 47 -47 75 -88 75 -111 0 -22 101
-111 126 -111 8 0 51 -33 97 -73 108 -95 237 -203 367 -307 145 -115 137 -106
118 -127 -9 -10 -18 -27 -20 -38 -2 -13 -12 -20 -28 -21 -14 0 -45 -4 -69 -9
-39 -7 -42 -9 -22 -16 32 -13 16 -29 -29 -29 -24 0 -40 -5 -44 -15 -4 -11 -21
-15 -58 -15 -42 -1 -49 -3 -35 -11 13 -8 17 -18 13 -34 -5 -21 -2 -23 46 -27
30 -3 60 -1 70 6 21 13 33 3 42 -36 8 -34 -5 -42 -69 -43 -54 -2 -103 -12
-121 -26 -6 -5 -40 -8 -75 -6 -53 3 -66 7 -73 24 -11 23 -90 40 -110 24 -6 -4
-45 -11 -87 -15 -70 -6 -81 -4 -140 22 -35 16 -87 32 -114 36 -96 14 -105 22
-52 54 42 25 96 35 113 21 8 -6 14 -10 15 -8 0 2 1 33 3 68 1 41 7 66 15 69 7
2 16 15 21 28 8 21 16 24 59 24 40 0 53 4 61 20 6 10 26 22 45 26 61 11 46 19
-33 18 -43 -1 -89 -7 -105 -14 -28 -13 -34 -12 -99 21 -14 7 -18 5 -18 -10 0
-10 -7 -21 -15 -25 -24 -9 -17 -23 15 -30 37 -7 50 -34 26 -51 -11 -8 -13 -15
-7 -20 16 -9 13 -47 -4 -72 -8 -11 -31 -24 -52 -28 -21 -4 -51 -14 -66 -23
-28 -16 -29 -16 -48 7 -10 13 -19 28 -19 35 0 11 65 36 93 36 7 0 18 5 25 12
10 10 3 15 -30 25 -34 10 -46 9 -69 -3 -33 -17 -63 -18 -90 -4 -13 8 -19 7
-19 0 0 -6 14 -16 31 -22 21 -7 36 -22 45 -44 28 -67 13 -82 -35 -35 -16 15
-45 31 -65 35 -20 4 -36 13 -36 20 0 8 -7 19 -15 26 -9 7 -13 21 -10 31 8 24
-21 25 -49 4 -11 -8 -28 -12 -38 -9 -11 3 -25 1 -33 -6 -17 -14 -29 3 -20 30
4 12 19 22 40 26 35 6 35 6 13 23 -16 14 -30 16 -60 11 -44 -8 -43 -8 -52 -36
-5 -16 -2 -23 14 -27 29 -7 25 -29 -10 -49 -17 -10 -30 -25 -30 -36 0 -29 -70
-47 -85 -22 -3 6 -22 10 -42 10 -20 0 -51 5 -69 12 -30 11 -34 9 -70 -25 l-39
-37 33 0 c25 0 32 -4 32 -19 0 -11 3 -27 7 -37 6 -16 -3 -16 -123 -9 -71 4
-189 9 -263 10 -115 2 -131 0 -116 -11 11 -8 25 -14 32 -14 7 0 20 -8 30 -19
19 -19 103 -38 103 -22 0 5 -18 16 -41 25 -53 22 -41 36 31 36 93 0 112 -18
69 -61 -11 -11 -18 -23 -15 -26 9 -9 57 7 51 17 -3 6 1 10 10 10 9 0 14 -4 10
-9 -9 -16 36 -24 133 -23 50 0 92 -3 92 -7 0 -4 -9 -16 -20 -26 -20 -18 -45
-17 -121 3 -21 5 -43 6 -50 1 -23 -14 -99 -11 -99 5 0 9 -22 15 -76 20 -43 3
-91 13 -108 22 -38 19 -114 35 -181 37 -38 2 -50 6 -53 20 -2 9 4 19 12 22 52
16 52 15 17 37 -25 16 -47 21 -92 19 -32 -1 -59 2 -59 7 0 8 -18 3 -110 -30
-8 -3 -34 -11 -57 -17 -43 -12 -55 -25 -30 -34 35 -13 -72 -47 -148 -47 -42 0
-142 36 -153 55 -4 9 -41 18 -97 26 -101 12 -116 13 -164 4 -27 -5 -36 -2 -49
16 -13 19 -16 20 -24 5 -12 -21 -49 -20 -87 1 -41 24 -39 36 4 31 19 -2 35 -1
35 3 0 27 -164 38 -198 13 -10 -8 -12 -13 -4 -14 6 0 12 -8 12 -18 0 -21 52
-46 78 -37 11 3 32 1 47 -5 23 -9 25 -13 15 -25 -14 -17 -15 -17 24 -33 24
-11 30 -10 40 4 11 14 13 14 25 0 13 -15 7 -56 -6 -43 -3 4 -15 0 -27 -8 -11
-8 -39 -15 -62 -15 -37 0 -42 -2 -37 -20 4 -15 14 -20 38 -20 34 0 49 -18 39
-45 -5 -11 1 -15 25 -15 18 0 45 -10 62 -22 30 -23 31 -23 45 -4 8 11 14 28
14 38 0 12 11 23 29 29 16 6 31 20 34 31 5 18 12 20 50 16 50 -6 102 -28 99
-43 -1 -5 -27 -11 -57 -13 -38 -2 -55 -7 -55 -16 0 -32 143 -27 161 6 8 14 14
16 29 8 10 -5 57 -11 104 -13 47 -2 89 -6 92 -10 4 -4 16 -7 26 -7 10 0 21 -7
25 -16 5 -14 18 -15 97 -9 50 4 96 11 103 16 7 7 14 6 18 -1 3 -5 0 -10 -7
-11 -18 -1 43 -28 64 -29 23 0 98 -33 98 -42 0 -4 -15 -7 -33 -6 -37 1 -86
-20 -69 -31 6 -4 44 -4 84 -1 112 9 220 2 237 -15 14 -13 11 -15 -22 -15 -35
0 -37 -2 -37 -31 0 -31 -1 -32 -40 -26 -22 3 -40 1 -40 -4 0 -5 -8 -9 -19 -9
-12 0 -20 -9 -24 -27 -3 -16 -4 -29 -3 -30 1 -2 25 6 53 17 48 18 123 18 123
0 0 -3 -19 -19 -42 -34 -52 -34 -124 -41 -139 -13 -6 9 -18 17 -27 17 -10 0
-23 5 -29 11 -14 14 -83 1 -83 -17 0 -7 -11 -16 -25 -20 -14 -3 -25 -11 -25
-16 0 -14 -59 -2 -112 22 -36 16 -40 20 -24 26 11 4 28 16 38 26 10 10 32 21
49 25 44 9 45 23 2 25 -68 3 -88 -1 -102 -21 -12 -19 -15 -19 -43 -5 -27 14
-31 14 -47 0 -10 -9 -23 -16 -30 -16 -7 0 -26 -11 -43 -25 -16 -14 -40 -25
-53 -25 -13 0 -26 -6 -28 -12 -4 -9 -8 -10 -14 -2 -12 16 -102 28 -117 15 -7
-6 -40 -9 -75 -7 l-62 4 -6 -30 c-3 -17 -14 -33 -23 -35 -30 -8 -13 -43 21
-43 15 0 39 -5 53 -11 20 -10 31 -8 60 9 49 29 106 33 106 7 0 -9 9 -15 23
-15 12 0 31 -6 42 -14 37 -25 65 -29 86 -10 14 13 38 17 106 18 49 1 101 -3
118 -7 28 -8 29 -8 12 11 -9 10 -14 22 -10 25 8 9 78 9 86 0 11 -10 -13 -33
-34 -33 -11 0 -19 -5 -19 -11 0 -7 7 -8 18 -4 9 4 45 10 78 14 34 4 69 13 78
20 26 22 176 7 197 -19 14 -16 28 -19 70 -17 42 1 54 -1 54 -13 0 -8 -9 -16
-20 -19 -11 -2 -24 -10 -30 -17 -5 -8 -30 -18 -55 -23 l-45 -9 40 -1 c22 -1
60 -6 84 -12 39 -9 46 -7 67 12 21 19 30 21 91 14 45 -4 65 -3 58 3 -5 6 -19
12 -30 14 -21 4 -28 34 -7 32 6 -1 36 -2 66 -3 51 -1 55 -3 65 -32 6 -17 15
-28 21 -24 6 4 17 2 24 -5 11 -8 18 -5 34 15 15 19 29 25 57 25 25 0 34 4 29
12 -4 6 1 17 11 24 15 11 23 11 50 0 23 -10 36 -11 43 -4 16 16 43 2 35 -18
-6 -15 -1 -16 40 -11 29 4 49 2 53 -4 12 -20 -20 -30 -80 -24 -51 6 -58 4 -48
-8 10 -12 3 -15 -45 -20 -32 -3 -71 -12 -88 -21 -16 -9 -36 -16 -42 -16 -7 0
-38 -12 -68 -27 l-56 -27 -62 16 c-40 10 -68 13 -79 7 -9 -5 -31 -9 -48 -9
-17 0 -41 -5 -53 -12 -12 -7 -34 -11 -49 -9 -14 1 -29 -2 -33 -8 -3 -6 -22
-11 -41 -11 -19 0 -34 -3 -34 -7 1 -22 30 -43 59 -43 17 0 31 -5 31 -10 0 -7
-19 -8 -53 -3 -28 4 -80 6 -114 5 -61 -2 -92 11 -51 21 38 10 3 34 -60 40 -32
4 -66 9 -75 13 -12 4 -20 -2 -27 -21 -10 -27 -12 -28 -68 -22 -40 4 -62 2 -75
-8 -11 -7 -24 -12 -30 -10 -7 2 -26 6 -43 9 -26 4 -31 2 -30 -12 1 -13 -9 -18
-48 -20 -52 -3 -92 19 -81 46 8 21 -25 54 -47 47 -10 -4 -27 0 -39 9 -23 16
-30 13 -72 -32 -17 -18 -28 -22 -53 -17 -23 4 -37 1 -49 -11 -15 -16 -15 -18
12 -40 30 -25 58 -30 68 -14 3 6 17 10 31 10 13 0 24 3 24 8 0 4 24 8 54 10
49 2 57 -1 92 -32 l38 -34 -34 -17 c-27 -14 -37 -15 -55 -5 -19 10 -26 9 -43
-8 -22 -22 -80 -42 -122 -42 -55 0 -225 -51 -286 -85 -64 -36 -94 -40 -94 -11
0 10 -19 16 -63 20 -76 9 -111 1 -154 -30 -17 -13 -53 -29 -80 -35 -84 -19
-96 -24 -101 -38 -3 -10 8 -13 54 -11 86 4 116 1 109 -10 -3 -6 -21 -10 -38
-10 -18 0 -39 -5 -47 -10 -12 -8 -9 -10 12 -10 40 0 43 -17 11 -58 -17 -20
-38 -61 -48 -91 -17 -52 -17 -57 0 -132 13 -54 23 -79 33 -79 8 0 12 6 8 15
-18 48 -17 112 3 163 39 98 71 127 180 163 105 35 180 73 321 165 45 29 126
51 220 59 41 4 103 18 138 31 60 24 66 24 143 13 62 -10 87 -10 113 -1 18 7
46 9 62 6 21 -4 41 1 67 16 38 22 39 22 200 9 312 -26 806 -9 912 31 92 35
240 55 485 65 47 2 109 8 139 14 32 7 88 8 133 5 48 -4 78 -3 78 3 0 21 97 33
187 22 88 -10 203 -44 203 -60 0 -20 -40 -30 -82 -19 -49 14 -126 4 -93 -12
40 -18 81 -117 55 -133 -16 -10 -11 -25 8 -25 10 0 22 -4 27 -9 6 -5 26 -14
46 -20 19 -6 51 -25 70 -42 33 -30 33 -30 7 -25 -37 8 -88 -4 -88 -20 0 -17
105 -20 115 -4 9 14 20 12 45 -8 l23 -18 -26 -27 c-13 -15 -27 -38 -29 -52 -5
-21 -3 -23 14 -14 11 6 37 8 58 4 33 -5 40 -3 50 14 15 29 121 73 207 87 39 6
42 5 48 -19 4 -14 5 -34 3 -43 -4 -22 -73 -64 -105 -64 -19 0 -78 -49 -69 -57
2 -2 24 6 50 17 26 11 60 20 74 20 15 0 38 9 52 20 29 22 58 25 95 8 23 -10
29 -8 58 20 18 18 37 32 42 32 6 1 28 10 50 21 38 19 38 19 8 14 -18 -4 -34
-2 -38 4 -3 6 -17 11 -30 11 -22 0 -46 37 -93 143 -7 14 34 7 71 -12 27 -14
37 -15 37 -6 0 7 -7 15 -15 19 -20 7 -19 32 1 40 9 3 32 6 52 7 64 2 87 12 87
39 0 23 -5 25 -50 30 -64 6 -63 22 1 34 27 5 54 16 61 25 10 14 16 12 50 -19
82 -76 73 -73 159 -60 73 11 78 11 93 -8 12 -15 31 -21 78 -24 61 -4 61 -4 52
20 -7 19 -5 27 13 43 l23 18 -22 1 c-13 0 -23 6 -23 14 0 16 21 26 56 26 13 0
24 6 24 13 0 8 9 22 19 31 15 14 24 15 40 6 23 -12 29 -50 9 -50 -7 0 -5 -5 6
-11 11 -7 42 -9 82 -4 63 6 64 6 74 -20 6 -15 9 -35 8 -44 -2 -9 3 -15 10 -13
7 1 22 -3 33 -9 17 -9 25 -7 45 12 13 12 24 30 24 40 0 10 5 21 10 24 13 8 41
-13 38 -29 -1 -6 2 -22 6 -34 6 -18 3 -29 -12 -45 -11 -12 -23 -32 -27 -44 -6
-22 -21 -29 -75 -35 -33 -4 -43 -48 -11 -48 17 0 21 -6 21 -30 0 -32 6 -35 43
-21 13 5 30 5 37 1 12 -7 11 -12 -3 -28 -9 -10 -17 -22 -17 -27 0 -5 -7 -17
-17 -27 -9 -10 -11 -18 -5 -18 6 0 18 13 27 29 20 40 73 71 108 64 23 -5 29
-1 34 16 3 11 12 21 19 21 8 0 14 10 14 21 0 21 3 21 68 15 61 -5 65 -5 48 9
-11 8 -34 15 -50 15 -59 0 -76 10 -76 42 0 17 -14 56 -30 87 -29 53 -30 58
-17 101 11 40 16 45 45 48 27 3 33 7 30 25 -4 31 22 32 66 2 45 -30 44 -30 48
-2 2 17 10 23 39 25 26 2 38 9 42 22 7 26 -9 36 -67 44 -51 6 -70 17 -87 47
-7 14 -3 25 18 47 22 24 39 31 81 34 29 3 55 1 58 -3 3 -5 14 -9 26 -9 11 0
22 -8 25 -19 6 -22 26 -28 98 -30 28 -1 57 -4 66 -7 39 -11 46 -107 9 -119 -9
-3 -26 -21 -36 -41 -10 -20 -31 -42 -45 -50 -22 -11 -27 -21 -27 -49 0 -19 4
-35 9 -35 14 0 10 -43 -6 -64 -8 -11 -15 -28 -15 -38 0 -37 16 -16 37 50 15
48 19 70 11 80 -8 9 -6 18 9 35 10 12 27 34 36 49 9 15 29 29 47 33 24 5 30
11 25 25 -10 31 15 34 45 5 l28 -27 17 26 c13 19 26 26 50 26 39 0 65 8 65 21
0 4 -14 24 -31 44 -22 24 -30 42 -26 56 3 12 1 32 -4 46 -15 39 6 56 57 49 27
-3 59 0 88 10 62 21 79 14 70 -31 -5 -28 -3 -36 12 -41 11 -4 41 -23 67 -42
47 -33 48 -34 54 -13 3 11 11 21 17 21 12 0 114 -72 125 -88 13 -16 140 -73
199 -87 34 -9 86 -27 115 -40 83 -38 221 -129 232 -153 5 -12 15 -22 20 -22
16 0 72 -61 79 -86 3 -11 26 -33 51 -48 47 -30 60 -53 50 -87 -6 -16 -12 -19
-33 -14 -26 6 -56 33 -64 56 -2 7 -12 7 -31 0 -42 -16 -164 -14 -190 4 -15 10
-35 12 -60 8 -31 -5 -37 -10 -37 -30 0 -23 3 -24 63 -22 39 2 83 -4 117 -16
85 -28 87 -50 7 -71 l-42 -10 3 -57 c2 -53 0 -58 -23 -67 l-26 -10 26 -37 c14
-21 25 -50 25 -65 0 -16 5 -28 10 -28 15 0 12 27 -6 61 -17 34 -13 59 11 59 8
0 15 9 15 21 0 14 11 25 35 35 42 17 37 35 -8 31 -22 -1 -32 2 -32 13 0 9 20
19 58 28 44 11 57 18 57 33 0 10 7 19 15 19 9 0 27 7 40 16 20 13 31 14 56 5
45 -16 59 -14 59 8 0 23 17 38 50 43 17 2 24 9 22 19 -1 9 4 19 13 23 29 11
14 24 -32 29 -27 2 -64 11 -84 18 -39 15 -139 106 -139 127 0 13 29 17 96 13
45 -3 66 13 37 26 -20 9 -99 8 -153 -2 -29 -6 -44 -1 -85 27 -28 18 -50 38
-50 43 0 6 61 11 160 12 88 1 202 7 254 14 94 12 94 12 114 -12 l19 -24 -28
-3 c-15 -2 -37 -10 -48 -18 -11 -8 -35 -14 -53 -14 -35 0 -44 -14 -16 -24 12
-5 14 -9 5 -18 -17 -17 -15 -31 4 -24 8 3 23 2 32 -3 9 -5 55 -5 102 -1 112
10 160 -13 160 -79 0 -25 32 -47 85 -56 47 -8 88 -32 82 -48 -5 -17 -125 -9
-153 10 -27 18 -114 8 -114 -12 0 -7 -3 -21 -6 -30 -6 -15 0 -16 57 -11 58 6
67 4 94 -19 37 -31 28 -53 -33 -75 -54 -20 -58 -25 -83 -95 -16 -46 -19 -72
-14 -112 3 -29 10 -53 14 -53 5 0 6 20 4 44 -4 30 1 61 17 102 27 74 34 82 81
94 39 11 47 17 73 55 13 17 17 18 39 6 22 -12 31 -11 69 4 41 17 43 20 44 62
1 27 -3 43 -11 43 -6 0 -33 17 -60 38 -27 21 -67 41 -93 47 -42 9 -47 14 -60
53 -12 37 -22 47 -72 72 -53 27 -100 73 -100 98 0 23 131 45 144 24 11 -19
456 2 646 30 109 15 133 17 370 23 118 3 251 8 295 11 580 35 738 46 785 54
30 6 199 19 375 30 297 18 438 32 475 46 29 11 302 4 336 -8 30 -11 35 -10 48
7 11 15 17 17 28 7 10 -8 18 -8 25 -1 5 5 48 14 95 19 54 5 111 19 154 37 59
24 72 34 88 67 10 21 20 53 21 70 4 45 34 279 37 281 2 2 22 11 46 22 l43 20
-35 27 c-20 15 -36 31 -36 36 0 13 113 18 128 5 11 -10 8 -18 -13 -43 -23 -28
-24 -32 -8 -32 10 0 43 9 73 19 l55 18 -33 17 c-17 9 -32 22 -32 29 0 15 87
60 100 52 4 -3 16 -2 25 1 12 5 14 14 9 37 -4 20 -2 32 7 38 23 14 98 10 124
-7 27 -18 45 -12 45 15 0 10 11 28 25 41 14 13 24 28 22 33 -4 13 -115 18
-123 6 -3 -5 -13 -9 -23 -9 -10 0 -28 -11 -41 -25 -13 -14 -33 -25 -44 -25
-12 0 -32 -9 -46 -20 -14 -11 -31 -20 -38 -20 -7 0 -26 -7 -42 -15 -21 -11
-29 -22 -27 -38 2 -21 -2 -22 -65 -22 -36 -1 -73 -6 -81 -13 -11 -10 -17 -9
-27 3 -10 11 -11 40 -7 108 4 61 1 128 -10 199 -14 98 -14 119 0 235 36 291
40 357 28 500 -18 210 -57 405 -97 485 l-34 67 -72 22 c-40 12 -98 34 -128 50
-72 36 -192 66 -305 74 -49 4 -100 13 -112 21 -12 8 -29 14 -36 14 -8 0 -26 9
-39 20 -50 39 -168 49 -443 40 -137 -5 -380 -14 -540 -19 -159 -6 -369 -13
-466 -17 l-177 -6 -18 37 c-18 39 -56 68 -114 86 -81 26 -380 194 -551 310
-67 46 -124 101 -147 144 -30 56 -13 362 32 582 14 65 30 153 36 196 12 82 29
137 103 329 47 123 81 252 92 353 5 44 14 67 32 86 21 23 26 40 30 108 4 57 2
89 -7 106 -11 20 -11 41 0 116 12 91 12 92 -10 109 l-23 17 16 109 c10 60 18
123 20 139 l2 30 475 6 c261 4 549 12 640 18 543 38 895 78 1361 156 394 66
829 162 829 183 0 13 -114 2 -300 -28 -619 -100 -1007 -145 -1570 -182 -218
-15 -1244 -15 -1369 -1 l-74 8 -22 65 c-29 87 -49 124 -101 190 -24 30 -61 78
-83 107 -79 102 -162 141 -370 172 -72 12 -175 32 -228 46 -53 14 -124 25
-158 25 -93 0 -99 10 -39 67 64 60 110 128 133 196 17 50 18 73 8 372 -13 385
-12 605 4 702 9 56 9 83 -1 120 -6 26 -15 113 -20 193 -13 217 -68 373 -180
505 -38 45 -50 67 -50 92 0 44 -24 58 -178 104 -145 42 -178 54 -186 67 -3 5
8 45 25 88 34 89 59 175 90 314 18 82 22 141 28 430 l7 335 28 59 c25 51 28
66 23 116 -4 32 -16 79 -28 104 -27 55 -21 67 57 96 76 28 98 45 134 99 56 89
100 257 71 276 -5 3 -25 -5 -44 -18 -41 -28 -70 -39 -152 -62 -51 -15 -69 -26
-121 -81 -34 -35 -70 -64 -80 -64 -11 0 -34 9 -52 20 -29 18 -33 25 -27 48 14
62 112 117 324 182 193 60 301 102 362 141 26 16 89 73 140 127 79 82 105 117
162 223 74 139 75 141 51 287 -20 124 -37 147 -28 36 6 -75 5 -83 -13 -92 -14
-8 -24 -30 -33 -71 -36 -169 -113 -163 -196 16 -24 51 -45 93 -47 93 -1 0 3
-73 10 -162 22 -267 2 -330 -128 -396 -84 -42 -193 -71 -217 -56 -9 6 -36 48
-60 95 l-43 84 7 -50 c3 -27 12 -75 20 -105 12 -50 12 -56 -3 -67 -39 -29 -55
-5 -33 51 15 40 -3 31 -49 -24 -71 -84 -162 -115 -195 -68 -18 25 -21 110 -7
171 6 22 5 37 -1 37 -18 0 -79 -147 -94 -230 -23 -121 -26 -126 -83 -145 -42
-14 -60 -15 -102 -6 -27 6 -67 11 -88 11 -44 0 -136 43 -156 74 -8 12 -19 62
-25 113 -10 95 -38 194 -69 253 l-19 35 1 -107 c2 -75 -2 -111 -11 -120 -22
-23 -46 5 -72 84 -30 92 -40 104 -40 52 0 -55 -10 -84 -27 -84 -8 0 -42 14
-74 31 -47 25 -59 37 -59 56 0 20 -4 22 -24 17 -14 -3 -37 1 -55 10 -43 23
-44 39 -4 134 14 34 24 65 21 67 -2 3 -19 -15 -36 -40 -19 -26 -39 -45 -51
-45 -10 0 -25 -10 -33 -22 l-15 -23 -34 24 c-84 58 -94 108 -51 271 34 129 46
218 33 239 -6 9 -15 -8 -29 -56 -33 -107 -122 -266 -144 -258 -23 9 -68 91
-68 125 0 26 13 45 71 105 59 62 77 88 115 175 24 57 42 105 40 107 -2 2 -36
-35 -76 -82 -71 -85 -119 -125 -151 -125 -41 0 -70 85 -51 151 6 19 29 83 52
143 39 102 46 133 23 104z m2187 -913 c0 -8 -4 -15 -10 -15 -5 0 -10 7 -10 15
0 8 5 15 10 15 6 0 10 -7 10 -15z m-1960 -114 c0 -6 -4 -13 -10 -16 -5 -3 -10
1 -10 9 0 9 5 16 10 16 6 0 10 -4 10 -9z m135 -81 c10 -16 -5 -50 -21 -50 -9
0 -14 11 -14 30 0 30 21 42 35 20z m181 -96 c106 -63 196 -169 186 -219 -2
-14 -8 -28 -13 -31 -18 -11 -68 27 -98 75 -29 45 -78 94 -147 147 -20 15 -25
25 -20 42 10 30 22 28 92 -14z m-666 -326 c7 -29 30 -108 52 -176 22 -69 38
-137 36 -155 -3 -31 -5 -32 -62 -40 -81 -11 -87 -3 -89 109 -2 76 16 263 28
302 9 26 24 10 35 -40z m665 -62 l40 -35 -23 -38 c-13 -21 -46 -84 -73 -141
-37 -76 -53 -101 -62 -94 -7 6 -28 14 -47 19 -35 9 -35 10 -38 71 -2 46 5 91
28 170 16 59 30 115 30 123 0 37 22 36 63 -2 23 -21 60 -54 82 -73z m-420 -75
c46 -136 55 -198 32 -207 -8 -3 -40 -6 -72 -7 l-59 -2 -8 45 c-8 43 -5 67 38
288 9 44 25 17 69 -117z m164 -43 c7 -23 15 -65 18 -94 5 -46 3 -53 -16 -63
-15 -9 -27 -9 -41 -1 -16 9 -20 21 -20 68 0 69 16 132 34 132 7 0 18 -19 25
-42z m-949 -1996 c0 -21 -16 -94 -35 -163 l-35 -125 -4 -410 c-2 -246 -7 -418
-13 -430 -6 -10 -13 -60 -15 -110 -7 -130 -31 -161 -89 -115 -14 10 -40 26
-59 34 -62 26 -74 41 -76 89 -2 55 -17 92 -83 212 -61 110 -187 411 -236 564
-18 56 -43 118 -54 138 -28 47 -26 62 7 69 15 4 47 11 72 16 25 6 108 41 185
79 77 38 187 85 243 104 57 20 118 47 135 61 45 35 57 32 57 -13z m1989 -934
c26 -116 47 -221 86 -417 24 -126 25 -135 9 -152 -10 -11 -23 -19 -30 -19 -7
0 -18 -9 -24 -20 -14 -26 -135 -116 -220 -163 -102 -58 -143 -90 -163 -129
-11 -20 -41 -57 -66 -82 l-46 -46 -65 18 c-59 16 -65 20 -62 42 2 14 4 48 5
75 1 32 10 63 25 86 12 20 22 40 22 44 0 4 15 32 34 63 19 32 38 75 41 97 8
57 22 103 74 254 46 133 46 134 102 177 33 25 92 90 143 159 48 63 93 115 99
115 7 0 22 -43 36 -102z m571 -2177 c0 -37 -12 -51 -41 -51 -36 0 -40 30 -6
53 30 22 47 21 47 -2z m-128 -125 c-2 -31 -10 -54 -24 -68 -18 -18 -20 -30
-16 -109 2 -70 7 -91 20 -101 15 -11 20 -39 27 -168 5 -85 21 -222 35 -305 13
-82 30 -199 36 -260 6 -60 22 -184 36 -275 51 -336 43 -445 -43 -595 -39 -66
-48 -91 -51 -142 -3 -43 0 -71 12 -94 10 -20 16 -58 16 -99 0 -65 18 -132 40
-145 17 -11 12 -45 -7 -45 -10 0 -126 -5 -258 -10 -248 -11 -326 -24 -344 -58
-20 -39 -31 -175 -36 -447 -4 -214 -8 -292 -17 -301 -9 -9 -72 -15 -203 -19
-104 -3 -260 -10 -345 -15 -85 -6 -263 -15 -395 -20 l-240 -10 -113 27 c-98
24 -113 30 -118 50 -4 12 -1 94 6 180 7 87 11 275 11 418 -1 143 1 297 5 342
5 65 2 93 -11 130 -16 44 -16 77 -5 408 6 198 15 448 20 555 5 114 5 226 -1
268 -9 72 -1 210 21 407 6 50 11 113 13 140 l2 50 35 -2 c19 -2 96 -4 170 -5
150 -1 275 19 430 72 165 56 237 70 435 80 215 12 292 26 455 82 63 22 154 50
202 63 48 13 109 35 135 49 26 14 53 24 58 22 6 -2 9 -24 7 -50z m-5481 -1833
c48 -45 139 -165 139 -183 0 -22 -73 -23 -123 -1 -64 27 -249 129 -284 157
l-27 21 21 12 c20 10 160 37 206 40 10 1 40 -20 68 -46z m1074 -161 c55 -37
100 -71 100 -75 0 -5 -26 -27 -57 -49 -66 -47 -93 -46 -138 4 -33 36 -43 81
-21 102 13 14 13 18 -7 39 -12 13 -22 29 -22 35 0 27 51 8 145 -56z m1658
-436 c9 -9 16 -48 21 -108 3 -51 15 -147 26 -213 10 -67 15 -124 11 -128 -12
-12 -330 246 -341 277 -5 15 -68 66 -81 66 -18 0 -134 79 -137 93 -3 15 15 17
150 20 84 1 194 4 245 5 68 1 95 -2 106 -12z m-902 -112 c18 -20 52 -45 74
-56 22 -12 72 -42 110 -68 39 -26 185 -116 325 -200 280 -167 326 -200 377
-271 20 -29 58 -63 93 -84 58 -35 70 -50 70 -85 0 -15 -10 -20 -47 -25 -71 -9
-93 -15 -93 -23 0 -4 43 -41 95 -82 93 -73 96 -77 115 -140 23 -73 53 -235 48
-252 -2 -6 -22 -12 -43 -14 -22 -2 -59 -6 -82 -10 -39 -5 -44 -4 -52 17 -9 23
-12 21 -15 -11 0 -9 -12 -15 -26 -16 -14 -1 -38 -5 -53 -9 -25 -7 -28 -11 -22
-34 4 -14 12 -29 18 -33 18 -12 -10 -10 -54 4 -29 8 -45 8 -62 0 -12 -6 -37
-13 -55 -16 -25 -4 -34 -2 -39 12 -4 9 -12 21 -20 25 -15 9 -16 17 -3 37 7 12
12 12 29 -4 19 -18 20 -17 20 11 0 15 2 48 3 73 4 58 -17 78 -84 78 -36 0 -48
-4 -48 -15 0 -11 -7 -13 -25 -9 -31 8 -84 -22 -63 -35 9 -6 10 -11 2 -19 -8
-8 -19 -5 -38 13 l-27 25 48 45 47 45 -44 9 c-40 8 -47 7 -67 -14 -12 -13 -25
-23 -28 -23 -21 0 -63 35 -160 134 -186 189 -401 385 -485 441 -44 29 -117 84
-161 120 -112 93 -469 452 -469 472 0 14 10 15 88 7 100 -10 557 -6 617 6 22
4 65 8 96 9 51 1 58 -2 90 -35z m617 -1261 c5 -17 -26 -29 -40 -15 -6 6 -7 15
-3 22 9 14 37 9 43 -7z m-1896 -116 c15 -11 25 -23 23 -27 -3 -4 9 -13 25 -20
40 -17 37 -30 -13 -62 -32 -20 -45 -24 -55 -15 -8 6 -41 11 -74 12 -46 0 -63
4 -72 17 -18 30 3 37 89 28 44 -4 83 -6 87 -4 4 3 -2 16 -14 29 -15 17 -32 25
-55 25 -36 0 -41 10 -18 34 17 17 36 13 77 -17z m2422 27 c29 -11 17 -40 -24
-58 -44 -19 -70 -16 -70 9 0 13 12 19 32 16 5 0 13 8 20 19 14 22 18 23 42 14z
m-1254 -74 c0 -5 -4 -10 -10 -10 -5 0 -10 5 -10 10 0 6 5 10 10 10 6 0 10 -4
10 -10z m1045 1 c7 -12 -12 -24 -25 -16 -11 7 -4 25 10 25 5 0 11 -4 15 -9z
m88 2 c11 -10 -13 -33 -34 -33 -22 0 -24 11 -7 28 13 13 31 16 41 5z m-4593
-13 c0 -5 -5 -10 -11 -10 -5 0 -7 5 -4 10 3 6 8 10 11 10 2 0 4 -4 4 -10z
m4447 -7 c15 -39 -79 -70 -122 -40 -21 16 -12 37 16 37 10 0 19 5 19 10 0 18
80 12 87 -7z m-4397 -3 c0 -5 -2 -10 -4 -10 -3 0 -8 5 -11 10 -3 6 -1 10 4 10
6 0 11 -4 11 -10z m3270 0 c0 -5 -9 -10 -21 -10 -11 0 -17 5 -14 10 3 6 13 10
21 10 8 0 14 -4 14 -10z m1367 -5 c-4 -8 -2 -17 3 -20 17 -10 11 -25 -9 -25
-24 0 -45 25 -37 45 3 8 15 15 27 15 14 0 19 -5 16 -15z m-1207 -20 c0 -8 -4
-15 -9 -15 -13 0 -22 16 -14 24 11 11 23 6 23 -9z m-1466 -14 c7 -11 -13 -28
-39 -33 -14 -2 -21 3 -23 20 -3 19 1 22 27 22 16 0 32 -4 35 -9z m1711 -30
c29 -10 51 -25 53 -34 2 -10 -2 -17 -9 -17 -7 0 -4 -6 7 -14 18 -14 17 -15
-18 -30 -42 -18 -98 -21 -98 -6 0 9 15 14 23 8 6 -5 37 24 37 33 0 12 -57 11
-81 -1 -10 -6 -19 -20 -19 -30 0 -17 -7 -20 -54 -20 -30 0 -57 4 -61 9 -3 5
-19 12 -35 16 -17 4 -30 10 -30 14 0 10 62 31 92 31 14 0 43 13 64 29 45 34
61 36 129 12z m173 -18 c34 -37 14 -52 -35 -29 -92 43 -105 68 -30 59 28 -3
50 -13 65 -30z m-1349 8 c9 -6 10 -10 2 -16 -16 -9 -44 2 -36 15 8 12 16 12
34 1z m-2049 -23 c38 -26 55 -56 24 -43 -41 17 -74 18 -74 2 0 -23 -15 -29
-44 -16 -35 16 -33 33 7 57 42 26 48 26 87 0z m1598 6 c32 -9 22 -28 -19 -34
-36 -6 -105 3 -117 14 -20 21 79 35 136 20z m547 -4 c3 -5 -3 -10 -14 -10 -11
0 -23 5 -26 10 -3 6 3 10 14 10 11 0 23 -4 26 -10z m2768 -22 c16 -25 1 -48
-32 -48 -40 0 -48 17 -20 46 25 26 37 27 52 2z m-2943 -4 c0 -17 -22 -14 -28
4 -2 7 3 12 12 12 9 0 16 -7 16 -16z m-1317 -1 c-7 -2 -19 -2 -25 0 -7 3 -2 5
12 5 14 0 19 -2 13 -5z m650 -20 c-7 -2 -19 -2 -25 0 -7 3 -2 5 12 5 14 0 19
-2 13 -5z m172 -3 c18 -7 18 -9 -10 -19 -22 -9 -36 -9 -54 -1 -46 21 16 40 64
20z m465 -1 c48 -10 64 -29 39 -44 -20 -13 -140 6 -146 22 -12 31 26 39 107
22z m373 2 c89 -21 52 -41 -75 -41 -81 0 -98 3 -98 15 0 31 92 45 173 26z
m-2104 -37 c18 -13 20 -18 10 -25 -19 -12 -120 -11 -139 1 -20 12 -10 19 41
29 63 13 62 13 88 -5z m1893 -6 c24 4 33 -17 15 -36 -22 -21 -110 -6 -115 21
-5 23 36 38 63 24 11 -6 27 -10 37 -9z m1148 -2 c0 -3 -4 -8 -10 -11 -5 -3
-10 -1 -10 4 0 6 5 11 10 11 6 0 10 -2 10 -4z m1671 -7 c27 -14 14 -29 -24
-29 -38 0 -62 13 -53 29 9 14 51 14 77 0z m-1481 -9 c13 -9 13 -11 0 -20 -21
-14 -44 -8 -48 13 -4 19 23 23 48 7z m-2220 -9 c0 -11 -25 -21 -56 -21 -28 0
-32 16 -6 23 31 8 62 7 62 -2z m1250 -1 c0 -5 -2 -10 -4 -10 -3 0 -8 5 -11 10
-3 6 -1 10 4 10 6 0 11 -4 11 -10z m-1550 -10 c0 -5 -4 -10 -10 -10 -5 0 -10
5 -10 10 0 6 5 10 10 10 6 0 10 -4 10 -10z m1458 4 c32 -9 27 -24 -7 -24 -30
0 -46 12 -34 24 8 7 12 7 41 0z m-820 -28 c3 -13 -1 -17 -14 -14 -11 2 -20 11
-22 22 -3 13 1 17 14 14 11 -2 20 -11 22 -22z m102 4 c0 -5 -4 -10 -10 -10 -5
0 -10 5 -10 10 0 6 5 10 10 10 6 0 10 -4 10 -10z m1676 0 c46 0 24 -17 -28
-23 -29 -3 -60 -8 -68 -11 -8 -3 -21 -2 -29 3 -13 8 -13 12 -1 26 11 13 24 16
59 11 24 -3 54 -6 67 -6z m-1436 -20 c8 -5 11 -12 8 -16 -10 -9 -38 3 -38 16
0 12 10 13 30 0z m353 -30 c21 -25 22 -34 1 -26 -8 3 -24 1 -36 -5 -11 -6 -27
-8 -36 -4 -15 6 -13 10 11 31 34 29 38 29 60 4z m-1581 -12 c-9 -9 -15 -9 -24
0 -9 9 -7 12 12 12 19 0 21 -3 12 -12z m742 -8 c17 -17 -2 -22 -55 -13 -30 4
-54 14 -57 22 -4 11 5 13 49 7 30 -4 58 -11 63 -16z m91 -16 c-22 -17 -46 -15
-53 4 -2 8 8 12 35 12 36 -1 37 -1 18 -16z m202 10 c-3 -3 -12 -4 -19 -1 -8 3
-5 6 6 6 11 1 17 -2 13 -5z m113 -24 c0 -5 -7 -10 -15 -10 -8 0 -15 5 -15 10
0 6 7 10 15 10 8 0 15 -4 15 -10z m60 0 c0 -5 -4 -10 -10 -10 -5 0 -10 5 -10
10 0 6 5 10 10 10 6 0 10 -4 10 -10z m-846 -18 c14 -8 -23 -20 -61 -21 -27 -1
-33 3 -33 20 0 19 4 20 43 14 23 -4 46 -10 51 -13z m523 12 c-3 -3 -12 -4 -19
-1 -8 3 -5 6 6 6 11 1 17 -2 13 -5z m-262 -45 c5 -5 -3 -9 -22 -9 -40 0 -65 9
-57 22 7 10 64 1 79 -13z m2080 10 c10 -15 -1 -23 -20 -15 -9 3 -13 10 -10 16
8 13 22 13 30 -1z m-2310 -39 c3 -5 -1 -10 -10 -10 -9 0 -13 5 -10 10 3 6 8
10 10 10 2 0 7 -4 10 -10z m-139 -72 c-20 -11 -44 1 -25 12 6 5 19 6 27 3 12
-5 12 -7 -2 -15z m344 -5 c10 -9 -22 -19 -50 -15 -30 4 -37 12 -23 26 7 6 63
-2 73 -11z m-102 -45 c-5 -15 -109 -33 -133 -24 -27 10 -16 25 23 29 84 9 114
7 110 -5z m-873 -8 c3 -5 -1 -10 -10 -10 -9 0 -13 5 -10 10 3 6 8 10 10 10 2
0 7 -4 10 -10z m1658 -24 c29 -27 34 -36 24 -45 -13 -10 -98 -2 -140 14 -28
11 -16 39 23 52 50 17 52 17 93 -21z m-291 14 c6 0 6 -6 -2 -15 -13 -16 -60
-21 -60 -7 0 15 24 32 38 27 8 -3 18 -5 24 -5z m-102 -10 c0 -5 -4 -10 -9 -10
-6 0 -13 5 -16 10 -3 6 1 10 9 10 9 0 16 -4 16 -10z m605 -11 c4 -6 13 -8 21
-5 18 7 29 -13 14 -27 -9 -9 -14 -8 -24 5 -9 12 -16 14 -23 7 -13 -13 -55 -8
-60 8 -4 10 14 17 54 22 6 0 15 -4 18 -10z m-1490 -9 c-3 -5 -17 -10 -31 -10
-13 0 -24 5 -24 10 0 6 14 10 31 10 17 0 28 -4 24 -10z m2383 -11 c-2 -6 -8
-10 -13 -10 -5 0 -11 4 -13 10 -2 6 4 11 13 11 9 0 15 -5 13 -11z m2077 2 c3
-5 1 -12 -4 -15 -12 -8 -41 3 -41 15 0 12 37 12 45 0z m-3736 -10 c13 -8 8
-31 -7 -31 -17 1 -34 19 -28 29 9 13 16 14 35 2z m130 -8 c3 -2 -2 -10 -10
-18 -10 -11 -25 -13 -47 -9 -30 6 -41 22 -25 37 6 7 73 -1 82 -10z m3427 2 c4
-8 12 -15 20 -15 8 0 14 -4 14 -9 0 -19 -19 -21 -56 -5 -47 19 -48 20 -39 33
9 16 55 13 61 -4z m-3328 -11 c47 -33 10 -57 -44 -28 -38 21 -42 30 -16 37 31
8 37 7 60 -9z m-1498 -4 c0 -5 -9 -10 -20 -10 -11 0 -20 5 -20 10 0 6 9 10 20
10 11 0 20 -4 20 -10z m520 0 c0 -5 -23 -10 -51 -10 -31 0 -48 4 -44 10 3 6
26 10 51 10 24 0 44 -4 44 -10z m2267 -11 c26 -22 8 -41 -52 -52 -39 -7 -68 8
-45 23 8 5 16 15 16 22 1 7 2 17 3 22 1 11 60 0 78 -15z m1893 10 c0 -14 -29
-43 -36 -36 -8 7 15 47 26 47 6 0 10 -5 10 -11z m-3865 -9 c3 -5 -1 -10 -9
-10 -9 0 -16 5 -16 10 0 6 4 10 9 10 6 0 13 -4 16 -10z m3640 -21 c14 -18 24
-39 23 -48 -5 -21 -46 -16 -73 9 -12 11 -25 20 -30 20 -5 0 0 -6 11 -14 28
-21 12 -29 -45 -21 -48 6 -63 25 -21 25 13 0 18 5 14 15 -10 25 16 45 56 45
31 0 44 -6 65 -31z m162 5 c7 -19 -13 -34 -44 -34 -24 0 -27 7 -17 34 8 21 53
21 61 0z m-2992 -4 c7 -12 -40 -25 -55 -15 -9 6 -9 10 1 16 19 12 46 11 54 -1z
m2595 1 c0 -10 -30 -24 -37 -17 -3 3 -2 9 2 15 8 13 35 15 35 2z m-2550 -11
c0 -5 -2 -10 -4 -10 -3 0 -8 5 -11 10 -3 6 -1 10 4 10 6 0 11 -4 11 -10z m893
3 c9 -9 -12 -33 -29 -33 -17 0 -18 27 -1 33 18 8 23 8 30 0z m-1493 -13 c0 -5
-2 -10 -4 -10 -3 0 -8 5 -11 10 -3 6 -1 10 4 10 6 0 11 -4 11 -10z m94 -4 c9
-12 22 -13 65 -6 30 5 58 7 63 4 16 -10 7 -29 -19 -41 -39 -18 -70 -16 -93 7
-11 11 -27 20 -35 20 -16 0 -20 12 -8 23 9 10 15 9 27 -7z m3833 -12 c9 -24
-11 -36 -66 -37 -53 -2 -75 12 -64 40 8 20 122 18 130 -3z m-2517 -23 c0 -11
-26 -22 -34 -14 -12 12 -5 23 14 23 11 0 20 -4 20 -9z m-100 -26 c0 -14 -3
-26 -7 -27 -52 -10 -132 -13 -141 -3 -16 16 63 52 121 54 22 1 27 -3 27 -24z
m1993 -15 c5 -4 -9 -10 -30 -13 -41 -7 -68 7 -43 23 15 9 58 3 73 -10z m-465
-2 c-7 -19 -38 -22 -38 -4 0 10 9 16 21 16 12 0 19 -5 17 -12z m-168 -8 c11
-7 7 -10 -17 -10 -18 0 -33 5 -33 10 0 13 30 13 50 0z m540 1 c0 -20 -33 -41
-66 -41 -45 0 -46 26 -1 39 43 12 67 13 67 2z m-1291 -61 c-14 -9 -39 -2 -39
11 0 5 10 13 23 18 16 6 23 5 25 -7 2 -8 -2 -18 -9 -22z m66 19 c-8 -12 -35
-12 -35 0 0 11 22 20 33 14 4 -2 5 -9 2 -14z m771 -1 c4 -6 -2 -17 -12 -25
-18 -13 -17 -14 11 -11 21 2 30 -2 33 -15 3 -15 -3 -17 -45 -15 -39 2 -50 7
-58 26 -5 12 -15 22 -22 22 -13 0 -17 12 -8 22 10 10 95 6 101 -4z m523 3 c12
-8 12 -12 2 -25 -17 -20 -37 -20 -45 0 -11 30 13 44 43 25z m-1074 -11 c8 -13
-20 -24 -41 -16 -20 8 -9 26 16 26 10 0 22 -5 25 -10z m-115 -10 c0 -5 -7 -10
-15 -10 -8 0 -15 5 -15 10 0 6 7 10 15 10 8 0 15 -4 15 -10z m1120 6 c0 -3 -4
-8 -10 -11 -5 -3 -10 -1 -10 4 0 6 5 11 10 11 6 0 10 -2 10 -4z m-2697 -12
c11 -11 -3 -24 -18 -18 -8 4 -12 10 -9 15 6 11 18 12 27 3z m437 -4 c0 -5 -11
-10 -25 -10 -14 0 -25 5 -25 10 0 6 11 10 25 10 14 0 25 -4 25 -10z m2534 -21
c14 -11 26 -27 26 -35 0 -22 -29 -28 -49 -10 -10 9 -25 16 -34 16 -22 0 -31
18 -17 35 17 21 43 19 74 -6z m-827 -35 c-9 -9 -28 6 -21 18 4 6 10 6 17 -1 6
-6 8 -13 4 -17z m-2477 -4 c0 -5 -5 -10 -11 -10 -5 0 -7 5 -4 10 3 6 8 10 11
10 2 0 4 -4 4 -10z m1517 2 c6 -4 15 -20 19 -36 l7 -29 -53 7 c-65 9 -127 33
-114 45 19 18 118 28 141 13z m361 -28 c35 -7 41 -18 16 -28 -37 -14 -84 17
-84 55 0 8 6 7 18 -4 10 -9 33 -20 50 -23z m1110 0 c14 -3 22 -12 22 -24 0
-32 -70 -28 -98 5 -12 14 -22 28 -22 31 0 4 42 0 98 -12z m243 -29 c-1 -15
-24 -12 -29 3 -3 9 2 13 12 10 10 -1 17 -7 17 -13z m-3491 -3 c0 -11 -58 -34
-70 -27 -5 3 -10 13 -10 21 0 10 12 14 40 14 22 0 40 -3 40 -8z m150 -12 c0
-5 -4 -10 -10 -10 -5 0 -10 5 -10 10 0 6 5 10 10 10 6 0 10 -4 10 -10z m2670
-15 c0 -10 -10 -15 -31 -15 -27 0 -30 2 -19 15 7 8 21 15 31 15 11 0 19 -7 19
-15z m-3542 -33 c3 -10 -4 -13 -24 -10 -15 2 -29 9 -32 16 -3 10 4 13 24 10
15 -2 29 -9 32 -16z m3392 2 c0 -9 -7 -14 -17 -12 -25 5 -28 28 -4 28 12 0 21
-6 21 -16z m720 -8 c0 -13 -7 -29 -15 -36 -21 -17 -55 -3 -55 24 0 30 7 36 42
36 23 0 28 -4 28 -24z m-460 -6 c0 -5 -7 -10 -16 -10 -8 0 -12 5 -9 10 3 6 10
10 16 10 5 0 9 -4 9 -10z m578 -24 c3 -13 -1 -17 -14 -14 -11 2 -20 11 -22 22
-3 13 1 17 14 14 11 -2 20 -11 22 -22z m-1818 4 c0 -5 -7 -10 -15 -10 -8 0
-15 5 -15 10 0 6 7 10 15 10 8 0 15 -4 15 -10z m515 1 c7 -12 -31 -25 -46 -15
-8 4 -7 9 2 15 18 11 36 11 44 0z m119 -7 c9 -3 16 -10 16 -16 0 -14 -43 -5
-48 10 -4 13 7 15 32 6z m-193 -20 c10 -12 10 -20 1 -35 -17 -27 -15 -34 18
-81 l30 -41 -22 -24 c-30 -32 -48 -29 -114 22 -31 25 -61 45 -66 45 -4 0 -8 7
-8 15 0 8 14 17 35 21 39 7 42 12 18 29 -20 15 -10 32 30 49 43 19 62 19 78 0z
m-186 -34 c29 -32 6 -48 -43 -31 -74 27 -83 51 -19 51 31 0 49 -6 62 -20z
m1605 1 c5 -11 10 -40 10 -64 0 -43 -1 -44 -40 -56 -57 -17 -84 -7 -75 27 3
15 17 37 31 50 13 13 24 32 24 42 0 26 36 27 50 1z m-1750 -6 c17 -21 3 -36
-27 -29 -15 4 -28 2 -32 -5 -4 -6 -15 -9 -24 -5 -21 7 -22 24 -3 24 8 0 16 7
20 15 7 19 50 19 66 0z m600 6 c0 -14 -18 -23 -30 -16 -6 4 -8 11 -5 16 8 12
35 12 35 0z m-470 -76 c0 -8 21 -24 46 -37 25 -12 51 -30 58 -38 6 -9 19 -19
29 -23 27 -10 20 -32 -17 -52 -33 -18 -35 -18 -78 2 -33 16 -50 33 -71 71 -23
43 -25 51 -12 62 8 6 14 15 13 18 -2 17 3 21 17 16 8 -4 15 -12 15 -19z
m-3544 -76 c48 -12 55 -23 25 -39 -34 -18 -95 -12 -108 10 -11 16 -10 21 5 29
22 13 24 13 78 0z m3974 -71 c0 -16 -6 -19 -42 -16 -35 2 -44 7 -46 24 -2 16
4 24 25 32 33 11 63 -8 63 -40z"/>
<path d="M2078 3513 c6 -2 18 -2 25 0 6 3 1 5 -13 5 -14 0 -19 -2 -12 -5z"/>
<path d="M3263 2053 c9 -9 19 -14 23 -11 10 10 -6 28 -24 28 -15 0 -15 -1 1
-17z"/>
<path d="M2993 2002 c-12 -2 -27 -10 -33 -18 -10 -11 -8 -14 11 -14 28 0 53
14 48 26 -2 5 -14 8 -26 6z"/>
<path d="M3425 1950 c-13 -21 9 -27 65 -20 l55 6 -40 8 c-22 4 -47 10 -57 12
-9 3 -19 0 -23 -6z"/>
<path d="M525 1920 c-4 -6 -16 -8 -27 -4 -22 7 -78 -13 -78 -28 0 -6 14 -8 35
-4 22 4 35 3 35 -4 0 -5 -8 -10 -19 -10 -10 0 -24 -7 -31 -15 -10 -12 -10 -15
3 -15 8 0 20 -7 27 -15 9 -11 28 -14 78 -11 57 3 70 8 89 31 l24 27 -25 19
c-13 10 -33 19 -44 19 -12 0 -24 5 -27 10 -8 13 -32 13 -40 0z m65 -50 c0 -5
-4 -10 -10 -10 -5 0 -10 5 -10 10 0 6 5 10 10 10 6 0 10 -4 10 -10z"/>
<path d="M3770 1906 c-63 -14 -58 -21 22 -30 58 -7 73 -1 62 28 -7 18 -7 18
-84 2z"/>
<path d="M2940 1900 c20 -13 33 -13 25 0 -3 6 -14 10 -23 10 -15 0 -15 -2 -2
-10z"/>
<path d="M2280 1871 c-22 -15 -7 -22 47 -24 37 -2 48 2 48 13 0 18 -71 26 -95
11z"/>
<path d="M3215 1873 c-11 -3 -28 -15 -38 -26 -28 -32 1 -43 62 -22 26 8 56 13
67 9 10 -3 1 5 -21 20 -22 14 -42 25 -45 25 -3 -1 -14 -4 -25 -6z"/>
<path d="M3535 1811 c-27 -7 -24 -8 28 -15 59 -9 74 -5 62 13 -7 12 -44 13
-90 2z"/>
<path d="M12314 1769 c-9 -15 8 -29 42 -35 16 -3 30 -7 33 -10 2 -2 10 1 18 7
10 9 18 8 31 -5 21 -18 38 -21 47 -6 8 13 -78 50 -127 55 -21 3 -40 0 -44 -6z"/>
<path d="M710 1762 c0 -22 25 -30 50 -17 24 14 24 14 3 15 -12 0 -28 3 -37 6
-9 3 -16 2 -16 -4z"/>
<path d="M600 1747 c0 -8 7 -17 15 -21 8 -3 15 -2 15 3 0 5 -7 14 -15 21 -12
10 -15 10 -15 -3z"/>
<path d="M2021 1706 c-36 -20 -10 -29 60 -21 50 6 58 9 48 21 -14 18 -76 18
-108 0z"/>
<path d="M3448 1713 c7 -3 16 -2 19 1 4 3 -2 6 -13 5 -11 0 -14 -3 -6 -6z"/>
<path d="M3535 1680 c-3 -5 -2 -10 4 -10 5 0 13 5 16 10 3 6 2 10 -4 10 -5 0
-13 -4 -16 -10z"/>
<path d="M3618 1673 c7 -3 16 -2 19 1 4 3 -2 6 -13 5 -11 0 -14 -3 -6 -6z"/>
<path d="M468 1573 c7 -3 16 -2 19 1 4 3 -2 6 -13 5 -11 0 -14 -3 -6 -6z"/>
<path d="M12190 1515 c-7 -8 -21 -15 -31 -15 -10 0 -21 -4 -24 -10 -4 -6 10
-10 34 -10 23 0 41 4 41 9 0 5 10 13 21 16 17 6 19 9 8 16 -20 13 -35 11 -49
-6z"/>
<path d="M12005 1490 c-3 -5 3 -10 14 -10 12 0 21 5 21 10 0 6 -6 10 -14 10
-8 0 -18 -4 -21 -10z"/>
<path d="M579 1363 c-13 -15 -11 -16 11 -10 14 4 33 7 43 7 9 0 17 5 17 10 0
17 -57 11 -71 -7z"/>
<path d="M1160 1341 c0 -12 6 -21 15 -21 8 0 15 4 15 9 0 5 -7 14 -15 21 -13
10 -15 9 -15 -9z"/>
<path d="M1417 1354 c-15 -15 -7 -45 11 -42 9 2 17 12 17 22 0 20 -16 31 -28
20z"/>
<path d="M741 1306 c-32 -18 -17 -23 47 -18 36 3 52 8 52 18 0 18 -66 18 -99
0z"/>
<path d="M1450 1301 c0 -6 5 -13 10 -16 6 -3 10 1 10 9 0 9 -4 16 -10 16 -5 0
-10 -4 -10 -9z"/>
<path d="M1330 1280 c0 -13 5 -20 13 -17 6 2 12 10 12 17 0 7 -6 15 -12 18 -8
2 -13 -5 -13 -18z"/>
<path d="M1090 1280 c0 -5 5 -10 10 -10 6 0 10 5 10 10 0 6 -4 10 -10 10 -5 0
-10 -4 -10 -10z"/>
<path d="M1553 1283 c-25 -3 -33 -9 -33 -24 0 -13 7 -19 24 -19 14 0 28 5 32
11 6 10 54 6 90 -8 10 -3 12 0 8 10 -3 8 -17 17 -32 20 -15 2 -34 6 -42 9 -8
3 -30 3 -47 1z"/>
<path d="M520 1270 c-12 -8 -9 -10 12 -10 15 0 30 5 33 10 8 13 -25 13 -45 0z"/>
<path d="M725 1233 c-11 -2 -30 -6 -42 -9 -13 -2 -23 -8 -23 -13 0 -8 16 -8
97 -2 7 1 10 8 7 16 -4 8 -9 14 -13 14 -3 -1 -15 -3 -26 -6z"/>
<path d="M890 1180 c-12 -8 -10 -10 8 -10 13 0 20 4 17 10 -7 12 -6 12 -25 0z"/>
<path d="M6417 944 c-3 -4 -2 -15 4 -25 7 -14 14 -16 27 -10 9 5 25 12 35 15
10 3 15 10 12 16 -7 11 -68 14 -78 4z"/>
<path d="M790 926 c-10 -10 -14 -46 -6 -46 12 0 76 43 76 50 0 12 -57 9 -70
-4z"/>
<path d="M5930 877 c0 -8 -3 -22 -6 -31 -4 -11 -1 -16 10 -16 9 0 16 -4 16
-10 0 -16 57 -11 75 7 16 16 15 17 -24 29 -23 7 -48 18 -56 24 -12 10 -15 9
-15 -3z"/>
<path d="M693 860 c-23 -10 -30 -25 -15 -34 11 -6 52 21 52 35 0 11 -8 11 -37
-1z"/>
<path d="M6973 728 c-13 -6 -23 -15 -23 -19 0 -13 47 -22 75 -15 31 8 33 32 3
40 -28 7 -28 7 -55 -6z"/>
<path d="M6098 658 c-39 -14 -35 -31 5 -23 54 11 67 16 67 26 0 12 -37 10 -72
-3z"/>
<path d="M5865 651 c-10 -18 12 -21 56 -7 l44 14 -47 1 c-26 1 -49 -3 -53 -8z"/>
<path d="M7080 645 c-7 -8 -26 -15 -42 -15 -17 0 -27 -4 -23 -10 3 -5 15 -10
25 -10 10 0 32 -12 49 -26 29 -24 35 -25 107 -19 74 7 76 8 47 20 -17 7 -33
23 -36 36 -3 13 -9 20 -13 17 -3 -4 -27 0 -52 8 -26 7 -48 14 -48 14 -1 0 -7
-7 -14 -15z"/>
<path d="M7971 644 c-45 -15 -30 -21 54 -23 96 -1 167 8 162 23 -5 15 -170 15
-216 0z"/>
<path d="M512 620 c-46 -25 -25 -34 64 -25 82 7 101 28 37 39 -51 8 -63 6
-101 -14z"/>
<path d="M5753 567 c2 -8 22 -11 58 -8 84 5 91 18 10 19 -52 1 -71 -2 -68 -11z"/>
<path d="M8182 562 c-24 -8 -11 -31 21 -37 78 -16 86 -29 40 -64 -26 -18 -27
-21 -11 -33 9 -7 18 -22 20 -32 2 -16 13 -19 62 -22 49 -2 59 1 63 16 3 10 16
23 30 29 33 15 23 24 -35 31 -33 3 -48 10 -50 22 -2 12 6 19 33 24 27 5 35 10
30 22 -3 8 2 23 10 32 15 16 9 17 -93 17 -59 0 -113 -2 -120 -5z"/>
<path d="M5070 557 c0 -4 5 -16 12 -26 6 -10 9 -25 5 -34 -8 -21 -84 -28 -122
-11 -24 11 -47 12 -105 4 -41 -5 -82 -10 -90 -10 -12 0 -10 -4 4 -15 11 -8 41
-15 67 -15 65 0 77 -17 45 -66 -14 -22 -31 -46 -39 -55 -8 -9 -16 -25 -19 -37
-6 -21 -5 -21 18 -4 13 9 24 27 24 40 0 32 41 69 86 78 22 4 64 2 97 -5 33 -7
62 -9 66 -5 3 4 0 9 -7 11 -19 7 -3 23 24 23 13 0 24 4 24 8 0 5 12 13 28 19
27 10 27 10 -20 23 -27 7 -48 15 -48 19 -1 9 -50 67 -50 58z m20 -97 c12 -8
11 -10 -7 -10 -13 0 -23 5 -23 10 0 13 11 13 30 0z"/>
<path d="M5195 550 c-8 -13 35 -13 55 0 11 7 7 10 -17 10 -17 0 -35 -4 -38
-10z"/>
<path d="M7560 553 c-90 -5 -109 -17 -49 -32 24 -6 58 -18 75 -27 39 -20 99
-11 90 13 -3 8 -6 23 -6 34 0 12 -6 18 -17 17 -10 -1 -52 -4 -93 -5z"/>
<path d="M6113 468 c-22 -6 -33 -15 -33 -27 0 -30 57 -36 105 -11 22 11 31 20
22 20 -10 0 -28 6 -40 14 -16 10 -31 11 -54 4z"/>
<path d="M4695 368 c-22 -5 -56 -12 -75 -16 l-35 -8 47 -8 c40 -6 118 6 138
21 5 4 -22 23 -30 22 -3 -1 -23 -5 -45 -11z"/>
<path d="M5190 363 c-30 -8 -70 -14 -87 -14 -51 1 -39 -16 15 -23 51 -7 109 1
118 15 3 5 26 9 51 9 40 0 45 -2 40 -20 -8 -29 25 -26 39 4 11 23 10 24 -40
29 -28 2 -58 7 -66 10 -8 3 -40 -1 -70 -10z"/>
<path d="M5930 299 c0 -5 5 -7 10 -4 6 3 10 8 10 11 0 2 -4 4 -10 4 -5 0 -10
-5 -10 -11z"/>
<path d="M4493 293 c-45 -4 -60 -23 -19 -23 14 0 28 -5 31 -11 8 -12 -23 -49
-42 -49 -7 0 -13 -4 -13 -10 0 -5 3 -10 8 -10 19 1 124 38 133 47 6 6 26 9 45
6 33 -5 64 9 64 28 0 5 -22 9 -49 9 -28 0 -53 5 -56 10 -6 10 -19 10 -102 3z"/>
<path d="M4887 279 c-3 -11 0 -19 6 -19 7 0 25 -7 42 -16 29 -15 48 -14 101 6
22 9 24 13 13 26 -10 12 -24 15 -60 10 -26 -4 -58 -2 -72 3 -21 8 -26 7 -30
-10z"/>
<path d="M5940 250 c0 -5 5 -10 10 -10 6 0 10 5 10 10 0 6 -4 10 -10 10 -5 0
-10 -4 -10 -10z"/>
<path d="M5931 221 c-8 -5 -10 -14 -6 -21 6 -9 10 -8 17 4 12 21 7 28 -11 17z"/>
<path d="M7983 180 c-40 -16 -25 -30 31 -30 56 0 94 21 60 34 -22 8 -65 6 -91
-4z"/>
<path d="M22 97 c-14 -15 -22 -36 -22 -60 0 -36 1 -37 35 -37 29 0 35 4 35 22
0 12 12 34 26 49 14 15 23 32 20 38 -13 20 -71 12 -94 -12z"/>
</g>
</svg>
