<?xml version="1.0" standalone="no"?>
<!DOCTYPE svg PUBLIC "-//W3C//DTD SVG 20010904//EN"
 "http://www.w3.org/TR/2001/REC-SVG-20010904/DTD/svg10.dtd">
<svg version="1.0" xmlns="http://www.w3.org/2000/svg"
 width="1254.000000pt" height="1280.000000pt" viewBox="0 0 1254.000000 1280.000000"
 preserveAspectRatio="xMidYMid meet">
<g transform="translate(0.000000,1280.000000) scale(0.100000,-0.100000)"
fill="#000000" stroke="none">
<path d="M7050 12781 c0 -76 -24 -290 -40 -355 -18 -71 -18 -81 -5 -96 8 -9
15 -19 15 -22 0 -9 -60 -28 -89 -28 -14 0 -49 -11 -78 -24 -44 -21 -56 -23
-78 -13 -17 8 -24 18 -21 30 2 10 -11 40 -30 68 -18 28 -55 90 -81 140 -27 49
-51 89 -54 89 -3 0 13 -62 37 -137 24 -76 43 -146 44 -155 0 -9 9 -23 19 -30
13 -10 17 -18 11 -28 -5 -8 -7 -18 -4 -22 8 -12 -65 -71 -105 -85 -20 -7 -68
-13 -107 -13 -75 0 -201 -28 -255 -56 -18 -9 -54 -36 -80 -61 -85 -80 -109
-196 -71 -344 17 -63 17 -68 1 -88 -24 -30 -29 -26 -17 15 5 20 8 38 5 40 -7
7 -72 -19 -80 -32 -5 -8 -18 -11 -35 -8 -57 11 -284 -93 -333 -153 -13 -15
-12 -15 11 -1 14 9 36 18 50 20 22 3 25 -1 27 -32 3 -34 0 -36 -57 -63 -41
-20 -57 -32 -53 -42 4 -11 -2 -15 -21 -15 -31 0 -35 -17 -5 -22 19 -3 17 -6
-17 -29 -128 -84 -204 -141 -329 -243 l-140 -115 -63 -1 -64 0 54 44 c29 24
93 88 143 142 82 91 77 87 -61 -47 -146 -143 -151 -146 -203 -153 -164 -22
-313 -119 -372 -245 -52 -110 -33 -229 58 -365 l52 -78 -24 -84 c-14 -47 -32
-153 -41 -237 -13 -115 -22 -162 -39 -192 -41 -74 -67 -120 -86 -147 -11 -14
-17 -32 -14 -40 2 -7 -4 -24 -15 -38 -11 -14 -18 -17 -14 -8 4 12 1 15 -13 12
-27 -7 -322 233 -400 326 -70 83 -137 210 -232 440 -99 240 -166 343 -276 427
-92 70 -163 96 -385 142 l-125 26 -6 70 c-12 145 -126 288 -385 481 -55 40
-101 74 -104 74 -3 0 29 -69 70 -152 97 -197 114 -249 115 -362 l0 -89 -40
-14 c-55 -19 -64 -31 -69 -92 -3 -30 -8 -57 -13 -62 -4 -4 -51 -15 -103 -23
-133 -22 -683 -138 -693 -146 -4 -4 23 -3 60 2 254 31 350 40 517 45 l190 6
-22 -29 c-11 -16 -58 -69 -103 -119 -178 -195 -285 -334 -449 -580 -51 -77
-161 -237 -244 -355 -292 -418 -345 -520 -661 -1290 -65 -157 -144 -350 -177
-430 -141 -342 -269 -792 -327 -1145 -61 -372 -67 -510 -42 -966 30 -557 -20
-786 -284 -1299 -40 -77 -68 -140 -64 -140 12 0 149 157 201 230 95 134 187
339 233 522 52 203 57 266 65 868 6 367 14 615 23 708 15 141 15 143 63 228
55 96 122 178 164 199 16 8 63 16 108 17 70 3 84 0 110 -19 l31 -23 16 58 c9
31 27 93 42 137 66 206 85 177 64 -96 -5 -58 -6 -129 -3 -157 4 -49 6 -51 48
-67 25 -9 71 -43 108 -79 l64 -62 11 36 c18 63 60 312 71 425 22 223 122 624
210 840 l41 100 -6 -55 c-3 -30 -15 -84 -25 -120 -27 -91 -74 -318 -105 -506
-19 -113 -29 -221 -35 -374 -5 -135 -14 -245 -25 -295 -13 -61 -16 -107 -12
-197 5 -101 10 -126 37 -190 18 -40 85 -203 150 -363 65 -159 150 -364 189
-454 103 -238 136 -413 166 -891 22 -338 32 -350 56 -62 16 195 6 572 -20 767
-36 265 -24 634 27 848 l27 112 -21 205 c-11 113 -24 224 -28 248 -4 23 -5 42
-1 42 3 0 29 -48 56 -107 87 -188 101 -207 113 -159 3 14 20 42 37 61 24 27
29 38 20 49 -26 32 -122 335 -152 478 -55 271 -50 665 12 899 16 61 29 114 30
118 0 3 4 -4 9 -15 7 -19 4 -68 -16 -204 -3 -19 -8 -127 -11 -240 -5 -192 -4
-213 20 -330 14 -69 33 -174 43 -235 13 -85 26 -128 56 -187 31 -64 38 -88 38
-137 0 -62 6 -91 20 -91 9 0 40 85 40 110 0 30 71 163 118 220 63 77 78 86
103 64 11 -9 22 -14 25 -11 4 4 1 41 -5 83 -9 50 -10 119 -6 202 7 146 -13
453 -44 644 -24 152 -36 308 -23 308 5 0 15 -48 22 -107 6 -60 18 -135 26
-168 36 -161 94 -507 103 -612 16 -197 39 -256 84 -216 36 34 62 43 102 36 38
-6 38 -6 31 22 -4 16 -21 47 -37 70 -25 34 -34 64 -50 156 -20 119 -25 220
-11 204 5 -6 23 -71 41 -146 22 -93 44 -160 72 -215 23 -43 44 -83 49 -87 4
-5 26 1 48 12 22 11 73 27 113 36 41 9 86 18 100 21 24 6 29 0 74 -88 26 -51
49 -94 50 -96 1 -1 21 0 45 4 l42 7 -6 49 c-13 95 -102 309 -188 449 -22 36
-22 38 -5 91 9 30 17 79 17 109 0 54 -7 72 -100 287 -17 41 -29 76 -26 79 3 3
35 -22 71 -56 36 -33 72 -61 80 -61 25 0 29 40 6 69 -11 14 -58 80 -103 146
-46 66 -103 144 -128 175 -67 80 -80 102 -80 128 0 21 7 18 67 -35 37 -32 119
-110 181 -175 106 -109 176 -159 202 -143 5 3 14 22 20 43 29 91 137 225 212
263 45 23 54 37 36 52 -16 13 -168 229 -187 264 -27 53 -5 45 143 -52 99 -65
132 -82 142 -74 8 6 21 36 31 65 16 52 17 54 30 32 7 -13 13 -39 13 -58 0 -22
3 -30 8 -22 6 9 13 -1 22 -28 13 -40 12 -43 -23 -109 -20 -38 -37 -78 -37 -90
0 -14 -4 -20 -12 -15 -7 4 -8 3 -4 -5 4 -6 2 -28 -5 -49 -7 -20 -13 -44 -14
-53 -2 -21 -40 -70 -49 -62 -3 3 -6 1 -6 -4 0 -6 -32 -65 -71 -130 -39 -65
-80 -133 -91 -150 -11 -18 -17 -33 -15 -33 6 0 192 267 272 390 27 41 57 95
66 120 l18 45 1 -81 c0 -79 0 -81 -36 -115 -19 -18 -59 -63 -88 -99 -216 -269
-248 -320 -252 -419 -3 -44 0 -61 6 -51 7 12 12 7 25 -22 20 -50 19 -66 -11
-132 -21 -46 -24 -61 -16 -84 l10 -27 1 28 c1 33 36 106 60 127 10 8 23 33 29
55 14 47 28 72 37 63 3 -3 -8 -34 -25 -69 -31 -64 -37 -103 -20 -129 7 -11 10
-4 10 28 0 23 4 42 9 42 5 0 7 -17 4 -39 -3 -22 0 -47 7 -57 11 -18 11 -18 6
-1 -5 16 13 47 28 47 3 0 6 -12 6 -27 0 -16 5 -35 10 -43 7 -11 10 -5 11 25 0
22 4 49 7 60 9 26 32 30 32 6 0 -11 11 -33 25 -49 13 -16 27 -48 31 -71 6 -37
24 -68 24 -42 0 6 5 11 11 11 6 0 9 -7 5 -15 -3 -8 -2 -15 3 -15 4 0 13 -10
19 -22 11 -23 11 -23 7 2 -3 14 -1 32 5 40 9 13 11 13 21 0 8 -12 9 -9 3 10
-4 14 -11 27 -15 28 -5 2 -9 8 -9 13 0 6 4 8 9 5 5 -3 12 10 15 29 4 20 11 33
16 30 14 -8 2 124 -15 173 -14 38 -13 50 1 113 20 89 29 83 15 -10 -11 -73
-14 -117 -7 -110 3 2 12 49 22 104 16 97 40 183 29 105 -24 -170 -25 -250 -4
-250 5 0 6 6 3 13 -5 14 28 209 45 262 13 42 17 12 21 -151 1 -56 -2 -110 -8
-120 -5 -11 -7 -24 -5 -31 2 -7 -1 -21 -7 -33 -11 -21 -23 -100 -15 -100 2 0
16 21 31 48 15 26 35 56 45 67 10 11 30 48 45 83 24 56 28 60 40 45 13 -17 13
-17 14 0 0 13 9 6 33 -24 28 -37 197 -178 197 -164 0 3 30 -18 68 -47 56 -44
72 -44 22 0 -13 12 -13 13 0 7 8 -3 -39 45 -105 109 l-120 115 -3 96 c-4 107
7 160 18 85 l7 -45 2 45 c2 75 19 27 26 -79 5 -62 14 -109 26 -133 26 -51 32
-48 10 5 -13 32 -16 57 -12 102 6 55 7 57 14 26 4 -18 7 -48 8 -65 0 -17 4
-40 9 -51 5 -13 7 0 4 35 -5 53 -5 54 10 30 17 -29 21 -14 6 25 -7 17 -7 24 0
20 6 -4 10 14 10 47 1 80 16 38 25 -64 7 -88 14 -103 35 -70 9 14 11 12 7 -13
-3 -16 0 -43 7 -60 12 -27 13 -23 9 40 -3 39 -2 67 2 63 4 -4 9 -29 11 -57 2
-28 10 -63 18 -78 l15 -28 1 25 c1 25 1 25 16 5 15 -19 15 -19 8 10 l-6 30 31
-34 32 -33 -6 28 c-4 16 -8 35 -11 42 -2 6 -1 12 1 12 12 0 105 -63 105 -71 0
-5 5 -9 10 -9 19 0 -3 27 -53 65 l-47 36 0 69 c0 38 5 81 11 97 10 26 12 27
19 8 8 -19 9 -19 9 1 1 12 7 24 15 27 9 4 13 0 11 -11 -25 -127 -26 -141 -10
-174 l15 -33 -6 33 c-6 32 30 207 46 225 3 4 -2 -32 -11 -80 -27 -133 -21
-143 10 -15 16 62 31 115 34 119 10 9 9 -3 -8 -90 -19 -98 -18 -128 1 -62 45
153 65 215 73 219 5 3 -2 -40 -16 -97 -13 -56 -31 -136 -39 -177 -9 -41 -20
-83 -25 -93 -16 -29 1 -86 35 -120 34 -34 206 -141 206 -128 0 4 -30 27 -66
51 -74 49 -144 112 -144 130 0 7 9 23 19 36 18 23 20 24 30 7 6 -10 11 -13 11
-8 1 6 5 1 10 -10 7 -17 9 -14 10 15 2 32 3 33 10 10 8 -25 8 -25 10 5 1 17 4
37 8 46 7 18 200 203 240 231 13 9 25 23 26 32 2 16 13 31 24 31 4 1 22 10 40
22 22 14 29 23 20 26 -10 4 -9 9 5 20 15 12 16 17 5 24 -14 8 -43 91 -35 99 9
9 49 -67 43 -82 -3 -8 1 -17 9 -20 8 -4 15 -12 15 -20 0 -8 4 -22 9 -32 5 -9
16 -33 24 -52 8 -19 35 -80 60 -136 55 -121 94 -247 80 -251 -6 -2 -18 -10
-28 -17 -18 -13 -19 -11 16 -76 4 -8 19 -35 32 -60 68 -129 83 -150 107 -150
11 0 22 -12 28 -30 12 -32 4 -137 -9 -146 -17 -10 -9 -53 12 -67 18 -13 19
-18 8 -39 -6 -12 -18 -27 -25 -31 -8 -4 -14 -16 -14 -26 0 -10 -18 -39 -41
-65 -22 -25 -37 -46 -32 -46 12 -1 -130 -130 -143 -130 -27 0 -124 -134 -124
-170 0 -6 -22 -39 -49 -72 -53 -65 -156 -255 -195 -359 -13 -35 -31 -111 -41
-169 -9 -58 -28 -153 -41 -211 -14 -60 -24 -137 -24 -180 0 -94 -25 -260 -56
-364 -12 -44 -35 -132 -50 -195 -22 -95 -37 -135 -92 -235 -36 -66 -81 -145
-100 -175 -20 -30 -79 -125 -132 -210 -154 -249 -292 -427 -508 -653 -66 -69
-126 -135 -132 -146 -13 -26 -14 -25 100 -38 153 -17 189 -50 241 -218 38
-123 59 -165 99 -198 42 -36 68 -42 90 -22 22 20 11 25 141 -76 128 -101 239
-179 255 -179 8 0 14 10 14 21 0 36 130 259 150 259 30 0 240 -71 240 -81 0
-5 -9 -42 -21 -82 -17 -61 -22 -115 -29 -352 -5 -180 -4 -288 2 -305 11 -28 3
-188 -13 -260 -6 -25 -14 -77 -18 -116 -7 -58 -20 -95 -69 -193 -33 -67 -63
-116 -65 -109 -3 7 -6 -2 -6 -19 -1 -34 -15 -44 -25 -18 -18 48 -41 -14 -27
-75 5 -23 5 -38 0 -34 -17 10 -9 -16 12 -37 11 -11 18 -24 14 -27 -3 -4 -10 0
-15 8 -5 8 -11 12 -14 9 -3 -3 4 -20 15 -38 17 -29 22 -31 36 -19 15 12 15 11
5 -9 -7 -12 -17 -23 -22 -25 -7 -2 -5 -17 6 -43 18 -43 21 -37 -51 -88 -61
-44 -87 -148 -87 -360 0 -221 29 -324 125 -454 86 -116 196 -175 327 -177 137
-2 232 60 245 161 3 26 17 86 30 133 13 47 26 94 28 105 3 11 5 1 6 -22 0 -23
-4 -65 -10 -94 -10 -48 -10 -53 12 -74 13 -13 62 -35 109 -50 47 -15 96 -33
110 -41 126 -64 319 -113 480 -121 161 -7 227 5 281 54 21 19 39 38 39 42 0 4
-34 54 -75 112 -41 57 -97 147 -126 199 -29 52 -70 121 -91 153 -25 37 -38 66
-35 78 3 10 1 22 -4 25 -23 14 -50 86 -44 117 4 20 0 48 -9 72 -29 74 -67 210
-76 278 -9 59 -7 82 15 179 14 61 35 128 46 150 13 25 27 91 39 186 11 81 30
190 44 242 60 229 82 300 102 325 l22 26 11 -31 c6 -18 8 -36 5 -41 -3 -5 0
-9 5 -9 14 0 14 36 0 62 -6 11 -8 22 -6 24 3 3 17 -21 33 -53 27 -57 35 -121
20 -155 -7 -16 -2 -18 33 -18 32 0 41 4 41 18 0 21 36 -19 75 -85 l26 -43 -16
-837 c-8 -461 -20 -881 -26 -933 -5 -52 -11 -112 -12 -132 -1 -20 -6 -40 -10
-44 -12 -12 -8 -41 8 -54 8 -7 15 -23 15 -35 0 -13 7 -25 15 -29 10 -3 15 -19
15 -47 0 -46 31 -99 59 -99 29 0 62 45 68 92 3 23 12 47 19 51 8 4 14 15 14
23 0 8 7 26 16 39 10 16 13 32 8 47 -4 13 -7 35 -5 50 1 15 -2 35 -7 45 -6 12
0 505 19 1403 l28 1385 28 23 c51 41 208 113 250 115 33 1 48 -5 77 -31 20
-18 41 -32 47 -32 16 0 62 26 167 94 125 82 134 84 181 52 46 -32 51 -31 195
51 138 79 167 85 304 65 120 -17 142 -12 142 33 0 29 -17 43 -123 98 -142 75
-248 164 -384 321 -176 205 -407 524 -657 911 l-133 205 -6 140 c-4 77 -12
182 -19 233 -7 51 -13 189 -13 312 0 191 2 223 17 245 12 17 14 30 8 40 -5 8
-7 29 -4 47 5 24 1 39 -15 59 -24 31 -27 57 -7 73 11 9 13 30 7 94 -9 122 -3
760 8 852 11 82 16 159 19 253 2 43 5 52 20 52 13 0 21 13 30 46 19 70 27 190
13 198 -14 9 -15 46 0 46 6 0 19 -5 30 -10 15 -9 24 -6 44 14 l26 26 8 -23 c5
-12 12 -41 15 -63 6 -36 4 -44 -15 -57 -22 -16 -22 -16 12 -24 31 -8 36 -15
55 -74 41 -126 74 -170 184 -243 42 -28 65 -36 99 -36 61 0 96 40 140 159 42
113 47 158 28 241 -8 36 -12 84 -10 107 3 27 -2 63 -16 102 -12 34 -21 71 -21
84 0 14 -18 40 -45 67 -25 24 -45 50 -45 57 0 7 -4 13 -9 13 -4 0 -21 19 -37
43 -16 23 -31 44 -34 47 -25 23 -42 69 -44 117 -1 44 -6 59 -24 73 -42 34 -67
120 -102 349 -28 188 -94 433 -133 500 -18 29 -53 72 -79 95 l-47 41 114 88
c165 127 342 302 439 431 160 212 211 302 394 686 38 80 151 264 158 258 10
-10 -20 -379 -42 -508 -37 -221 -80 -356 -175 -545 -89 -178 -105 -238 -94
-350 6 -66 75 -321 110 -410 17 -44 15 -29 -17 95 -15 61 -22 118 -22 202 -1
113 6 147 24 118 11 -18 10 -19 49 55 38 73 97 155 111 155 14 0 13 -10 -10
-135 -20 -111 -25 -201 -12 -221 4 -6 40 -28 80 -49 70 -37 122 -83 122 -110
0 -7 7 -19 16 -26 14 -12 20 -9 40 16 51 64 131 282 184 505 26 107 40 124 40
46 0 -59 -20 -196 -67 -466 -39 -226 -39 -219 1 -265 34 -39 35 -39 55 -21 21
19 21 19 15 -25 -6 -50 13 -84 97 -177 35 -39 49 -49 57 -39 5 6 30 75 55 152
l45 140 7 -48 c4 -26 4 -82 0 -125 -9 -97 -49 -320 -69 -388 -9 -28 -25 -104
-36 -168 -47 -278 -13 -439 138 -643 77 -104 96 -115 35 -22 -76 118 -102 197
-102 304 0 58 8 122 22 180 l22 90 194 2 c106 1 197 5 201 10 4 4 15 41 25 81
9 39 21 72 25 72 4 0 11 -40 15 -90 6 -72 10 -90 23 -90 8 0 35 -20 59 -45 36
-38 43 -42 43 -24 0 14 5 19 14 16 8 -3 17 1 20 9 12 31 5 479 -9 564 -62 395
-89 626 -73 610 8 -7 54 -257 68 -370 7 -51 18 -111 25 -131 26 -73 55 -230
65 -351 13 -153 37 -324 49 -347 6 -10 28 -23 51 -30 33 -10 45 -20 62 -57 12
-24 26 -44 30 -44 18 0 33 66 54 234 3 29 9 45 15 39 14 -14 46 -148 57 -243
6 -47 18 -109 27 -137 15 -52 17 -53 54 -53 23 0 47 -7 58 -17 35 -32 93 -111
112 -153 l18 -41 12 133 c9 99 9 167 1 268 -6 74 -15 191 -21 260 -5 69 -16
165 -24 214 -23 144 -5 122 41 -49 23 -86 76 -472 89 -640 15 -206 28 -321 52
-455 27 -158 33 -187 87 -395 19 -77 54 -248 76 -381 22 -132 54 -295 70 -362
45 -186 142 -473 155 -461 2 3 -14 88 -36 189 -56 264 -78 402 -91 592 -12
163 -11 171 15 340 15 95 39 272 52 393 14 121 34 288 46 372 26 193 19 265
-45 445 -62 174 -73 223 -85 368 -9 110 -17 144 -65 289 -31 91 -52 161 -47
155 9 -9 85 -138 146 -249 23 -41 47 -114 75 -225 39 -159 75 -255 104 -279
11 -9 19 -2 40 34 17 29 47 58 82 80 51 33 55 38 41 53 -18 22 -119 271 -115
284 2 6 33 -23 68 -63 109 -126 93 -117 134 -83 19 16 44 36 56 44 22 15 22
16 4 60 -34 86 -126 230 -259 408 -49 66 -107 144 -127 174 -20 29 -71 102
-113 162 -42 60 -74 110 -72 113 7 7 142 -160 213 -262 96 -141 171 -232 302
-369 62 -66 131 -149 152 -185 27 -45 49 -70 72 -80 45 -20 188 -159 206 -201
85 -199 156 -433 257 -844 115 -468 207 -691 385 -928 80 -107 155 -183 257
-260 65 -49 163 -111 163 -102 0 3 -41 51 -91 107 -256 285 -363 453 -453 716
-47 136 -74 243 -135 541 -63 307 -96 417 -209 701 -148 370 -339 716 -579
1049 -431 598 -529 730 -628 855 -148 185 -267 309 -455 475 -85 75 -234 208
-330 295 -222 200 -366 316 -555 445 -82 56 -156 108 -163 114 -24 23 224 79
521 119 173 24 251 42 131 32 -32 -3 -171 -10 -309 -15 -137 -6 -289 -13 -337
-17 l-86 -6 -7 49 c-9 74 -14 79 -82 82 l-60 3 -16 59 c-30 106 -17 240 42
451 16 57 28 105 26 107 -5 5 -110 -120 -179 -213 -126 -172 -186 -330 -165
-438 5 -27 9 -51 9 -53 0 -2 -49 -28 -109 -59 -129 -66 -213 -119 -272 -172
-23 -21 -40 -31 -36 -23 3 8 29 66 57 129 115 254 103 419 -41 556 -103 99
-271 154 -426 141 l-73 -6 -49 43 c-55 48 -69 84 -40 105 10 7 19 23 19 36 0
23 26 103 75 231 32 84 21 76 -36 -25 -23 -41 -61 -103 -85 -137 -29 -42 -41
-68 -37 -82 4 -16 1 -21 -15 -21 -11 0 -22 -4 -24 -9 -1 -5 -34 1 -73 15 -38
13 -87 24 -107 24 -43 0 -56 14 -35 38 13 15 13 25 1 82 -8 36 -17 136 -21
223 -3 87 -10 160 -15 163 -4 3 -8 -4 -8 -15z m710 -961 c77 -23 135 -68 161
-124 29 -65 24 -136 -21 -292 -43 -150 -48 -205 -25 -260 10 -23 12 -42 6 -53
-20 -36 -42 -149 -71 -353 -36 -250 -50 -317 -88 -407 -73 -173 -387 -579
-584 -754 -34 -31 -63 -55 -64 -54 -1 1 -5 41 -9 89 -6 80 -5 88 14 105 12 9
21 22 21 27 0 16 34 86 41 86 4 0 9 -19 11 -42 l4 -43 13 30 14 30 7 -25 c6
-23 7 -21 14 15 4 22 18 57 32 78 31 47 43 112 37 188 -6 58 -5 58 40 109 206
229 232 429 75 583 -32 31 -63 57 -68 57 -6 0 -10 16 -10 35 0 19 -7 52 -16
74 -15 37 -14 39 9 64 20 23 25 24 38 12 12 -13 21 -13 63 0 36 11 304 45 354
45 3 0 3 2 0 5 -2 3 -90 16 -193 30 -104 15 -191 28 -194 31 -2 2 -14 -2 -26
-10 -21 -14 -24 -13 -43 7 -20 22 -20 23 -3 90 21 80 59 139 126 189 53 40 74
70 75 108 0 14 8 45 16 70 9 25 20 79 24 121 4 42 15 96 25 121 l19 44 55 -3
c31 -3 85 -13 121 -23z m-1246 -19 c9 -16 18 -66 21 -112 4 -46 12 -109 20
-139 8 -30 16 -67 19 -81 3 -14 35 -57 71 -95 73 -77 100 -121 110 -179 3 -22
8 -50 11 -62 7 -37 -30 -39 -74 -4 -21 16 -68 44 -105 62 -77 36 -90 49 -51
49 22 0 25 2 14 15 -7 8 -9 15 -4 15 4 0 -1 7 -12 15 -12 9 -14 14 -5 15 8 0
-2 17 -23 40 -20 22 -36 47 -36 55 0 30 -71 94 -128 115 -31 12 -62 26 -68 31
-19 16 -28 123 -14 166 21 64 62 96 143 113 79 15 95 12 111 -19z m-510 -267
c3 -8 2 -12 -4 -9 -6 3 -10 10 -10 16 0 14 7 11 14 -7z m481 -265 c11 -17 0
-20 -21 -4 -17 13 -17 14 -2 15 9 0 20 -5 23 -11z m30 -9 c3 -5 1 -10 -4 -10
-6 0 -11 5 -11 10 0 6 2 10 4 10 3 0 8 -4 11 -10z m665 -592 c0 -9 3 -9 12 0
7 7 21 12 31 12 17 0 19 -5 13 -47 -4 -27 -9 -57 -12 -68 -8 -31 33 22 48 63
11 29 16 32 38 27 38 -10 89 -53 96 -81 18 -70 -46 -241 -125 -334 -27 -32
-30 -33 -36 -15 -20 58 -32 82 -67 137 l-40 61 21 55 c12 30 20 57 17 59 -2 2
-12 -17 -21 -42 -11 -29 -22 -42 -27 -37 -6 6 -5 18 2 32 6 12 9 27 7 35 -3 7
1 31 9 53 7 23 11 55 8 72 -5 23 -3 30 10 30 9 0 16 -5 16 -12z m-2260 -17 c0
-6 -4 -13 -10 -16 -5 -3 -32 -50 -60 -103 -28 -53 -66 -115 -85 -137 l-35 -40
0 77 c0 78 19 147 56 203 14 22 24 25 75 25 33 0 59 -4 59 -9z m-187 -68 c-36
-66 -38 -72 -43 -195 -5 -115 -11 -150 -25 -136 -3 2 -11 42 -20 89 l-15 84 5
-67 c2 -38 2 -68 -1 -68 -9 0 -54 111 -65 160 -18 84 28 146 138 186 63 22 65
18 26 -53z m267 61 c0 -8 -63 -64 -68 -59 -8 8 39 65 54 65 8 0 14 -3 14 -6z
m2130 -33 c0 -22 -4 -42 -9 -45 -11 -7 -23 48 -15 69 11 28 24 15 24 -24z
m-2207 -13 c-14 -42 -42 -82 -50 -74 -7 7 51 116 62 116 1 0 -4 -19 -12 -42z
m2200 -441 c-3 -5 3 -26 12 -47 15 -34 16 -41 2 -60 -14 -20 -15 -18 -22 36
-4 31 -9 62 -11 69 -3 6 2 12 10 12 8 0 13 -4 9 -10z m-3627 -135 c50 -49 118
-125 152 -169 146 -192 322 -366 539 -532 93 -71 101 -80 89 -97 -39 -56 -125
-194 -122 -194 3 0 37 47 76 105 65 95 73 103 91 92 10 -6 19 -15 19 -18 0 -4
-24 -38 -53 -75 -50 -65 -74 -102 -119 -184 -13 -22 -14 -28 -4 -15 143 178
215 255 232 248 23 -9 -12 -56 -99 -135 -43 -39 -76 -72 -73 -75 2 -3 -13 -21
-35 -40 -21 -19 -39 -39 -39 -44 0 -6 15 5 33 23 18 18 56 44 85 57 29 14 52
28 52 32 0 5 7 5 17 2 11 -4 14 -3 9 5 -5 8 -2 10 8 6 9 -3 16 -7 16 -8 0 -2
-22 -17 -50 -35 -53 -34 -130 -106 -198 -185 l-42 -48 -9 25 c-8 19 -6 36 4
61 8 20 15 43 14 53 0 10 -6 3 -13 -15 -12 -35 -26 -33 -26 4 0 53 -65 149
-185 274 -97 100 -138 152 -203 257 -93 151 -120 202 -161 306 -27 67 -151
432 -151 444 0 11 61 -42 146 -125z m1384 48 c-6 -11 -13 -20 -16 -20 -2 0 0
9 6 20 6 11 13 20 16 20 2 0 0 -9 -6 -20z m2314 -160 l-4 -45 14 35 14 35 1
-30 c0 -16 -3 -37 -9 -45 -8 -12 -11 -12 -28 3 -26 24 -36 21 -18 -5 9 -12 16
-29 16 -37 0 -19 -33 26 -35 48 -1 9 -5 23 -8 31 -3 8 -8 32 -10 52 -5 33 -2
39 26 57 l32 20 7 -37 c3 -20 4 -57 2 -82z m-2454 78 c-4 -18 -31 -80 -60
-137 -47 -94 -57 -117 -59 -143 -1 -5 -4 -8 -9 -8 -4 0 -7 15 -7 33 0 35 57
187 63 168 5 -16 22 -3 22 16 0 22 39 103 50 103 4 0 4 -15 0 -32z m-45 -219
c-30 -51 -55 -97 -55 -103 0 -5 -3 -7 -6 -3 -4 3 19 52 51 107 31 56 59 99 61
97 3 -2 -20 -46 -51 -98z m2194 -20 c-14 -28 -19 -23 -19 19 1 34 2 36 15 18
10 -13 11 -24 4 -37z m-43 -33 c-3 -23 -5 -42 -5 -43 -1 -2 -12 -3 -26 -3 -22
0 -25 4 -25 37 0 45 26 79 47 61 10 -8 13 -24 9 -52z m-2046 38 c0 -9 -63 -84
-67 -80 -7 7 46 86 57 86 6 0 10 -3 10 -6z m1950 -28 c0 -2 -8 -10 -17 -17
-16 -13 -17 -12 -4 4 13 16 21 21 21 13z m174 -19 c-4 -7 -16 -22 -27 -34 -24
-27 -12 -31 15 -6 17 15 18 15 18 -3 0 -10 -8 -29 -18 -41 l-17 -22 -17 23
c-16 22 -15 25 8 65 14 23 30 39 35 35 5 -3 6 -11 3 -17z m-164 -1 c0 -2 -8
-10 -17 -17 -16 -13 -17 -12 -4 4 13 16 21 21 21 13z m-2163 -38 c-3 -8 -6 -5
-6 6 -1 11 2 17 5 13 3 -3 4 -12 1 -19z m2220 -21 c14 -15 -28 -17 -49 -3 -23
16 -23 16 10 12 18 -2 36 -6 39 -9z m-2282 -64 c-11 -18 -12 -22 -2 -10 23 28
30 20 24 -29 -3 -29 -1 -41 4 -33 6 10 9 7 9 -12 0 -14 -11 -36 -25 -49 -25
-23 -35 -47 -15 -35 6 4 1 -12 -11 -34 -11 -23 -25 -38 -30 -35 -5 3 0 18 11
34 17 24 18 28 4 26 -9 -1 -20 -10 -26 -19 -11 -21 -25 -21 -45 -1 -13 12 -14
20 -4 41 6 14 15 23 18 19 6 -6 63 87 67 109 4 26 30 77 34 67 2 -6 -4 -23
-13 -39z m224 30 c-62 -75 -78 -91 -83 -85 -4 3 15 27 41 54 47 47 70 64 42
31z m2118 -9 c-9 -9 -28 6 -21 18 4 6 10 6 17 -1 6 -6 8 -13 4 -17z m-197 -28
c0 -8 -11 -28 -25 -43 l-25 -28 12 30 c20 49 38 69 38 41z m80 1 c0 -8 -14
-34 -31 -58 -37 -51 -76 -91 -67 -69 3 8 11 33 18 55 23 71 32 85 57 85 13 0
23 -6 23 -13z m157 -24 c-3 -10 -5 -4 -5 12 0 17 2 24 5 18 2 -7 2 -21 0 -30z
m-282 17 c-3 -5 -11 -10 -16 -10 -6 0 -7 5 -4 10 3 6 11 10 16 10 6 0 7 -4 4
-10z m170 -42 c-8 -61 -18 -83 -53 -120 -26 -28 -56 -36 -67 -19 -3 5 18 40
46 77 28 38 56 78 62 91 16 36 19 27 12 -29z m65 28 c0 -22 -11 -46 -21 -46
-5 0 -8 14 -7 30 2 29 28 44 28 16z m-273 -38 c-3 -7 -5 -2 -5 12 0 14 2 19 5
13 2 -7 2 -19 0 -25z m-29 -19 c-3 -38 -7 -44 -50 -68 -25 -14 -49 -23 -53
-19 -10 10 18 101 33 106 6 2 12 -5 13 -15 0 -14 2 -14 6 -3 6 17 32 40 45 40
5 0 8 -19 6 -41z m-1765 16 c-3 -9 -8 -14 -10 -11 -3 3 -2 9 2 15 9 16 15 13
8 -4z m2113 -25 c-8 -53 -36 -110 -54 -110 -9 0 -12 6 -8 18 35 94 52 132 60
132 5 0 6 -18 2 -40z m-261 -15 c-8 -22 -14 -48 -15 -58 0 -24 -16 -28 -75
-18 -27 5 -41 9 -29 10 11 0 25 6 32 13 9 9 12 9 12 -1 0 -7 5 -9 10 -6 6 3
10 14 10 23 0 14 60 86 66 79 2 -2 -3 -21 -11 -42z m-1901 13 c-5 -8 -2 -9 11
-4 19 7 15 2 -89 -109 -39 -41 -46 -45 -41 -25 4 14 28 45 54 70 26 25 50 53
54 63 3 9 9 17 12 17 4 0 3 -5 -1 -12z m1683 -10 c-3 -8 -6 -5 -6 6 -1 11 2
17 5 13 3 -3 4 -12 1 -19z m416 7 c-3 -9 -8 -14 -10 -11 -3 3 -2 9 2 15 9 16
15 13 8 -4z m-2216 -67 c-3 -8 -6 -5 -6 6 -1 11 2 17 5 13 3 -3 4 -12 1 -19z
m75 -45 c-34 -43 -72 -80 -72 -69 0 8 90 106 97 106 3 0 -9 -17 -25 -37z m78
-17 c0 -2 -8 -10 -17 -17 -16 -13 -17 -12 -4 4 13 16 21 21 21 13z m-206 -29
c4 4 4 -1 0 -11 -5 -14 -4 -17 4 -12 7 4 12 2 12 -3 0 -15 -6 -14 -41 5 -26
13 -28 18 -18 31 12 13 14 13 24 -1 7 -9 15 -13 19 -9z m231 -4 c-19 -13 -31
-11 -21 5 3 5 13 9 22 9 15 0 15 -2 -1 -14z m-55 -28 c-7 -9 -15 -13 -17 -11
-7 7 7 26 19 26 6 0 6 -6 -2 -15z m-304 -151 c-5 -13 -3 -14 6 -6 9 7 20 7 37
-2 22 -12 19 -15 -80 -66 -57 -29 -121 -64 -142 -77 -68 -43 -51 -18 40 60 49
41 95 82 102 91 18 21 45 21 37 0z m-128 -262 c-40 -42 -177 -241 -208 -302
-12 -23 -24 -66 -28 -97 -13 -101 -27 -71 -24 49 4 127 25 188 82 243 37 36
203 153 209 148 3 -2 -11 -20 -31 -41z m-48 -133 c-7 -11 -14 -18 -17 -15 -3
3 0 12 7 21 18 21 23 19 10 -6z m-1280 -34 c13 -14 19 -25 13 -25 -6 0 -18 11
-27 25 -9 14 -15 25 -13 25 2 0 14 -11 27 -25z m1703 -399 c-16 -17 -43 -48
-61 -68 -17 -21 -34 -34 -37 -29 -7 13 105 142 117 135 5 -4 -3 -20 -19 -38z
m-671 -138 c-96 -153 -99 -157 -112 -138 -24 36 -10 62 83 160 50 54 94 96 96
94 2 -2 -28 -54 -67 -116z m366 26 c-18 -25 -36 -48 -40 -50 -5 -3 -8 -12 -8
-20 0 -9 5 -12 11 -8 6 3 3 -6 -7 -22 l-19 -28 -3 27 c-3 20 9 43 44 87 55 71
69 80 22 14z m946 -14 c5 -17 4 -20 -2 -10 -5 8 -13 26 -16 40 -5 17 -4 20 2
10 5 -8 13 -26 16 -40z m-508 -2 c-8 -13 -18 -42 -22 -66 -6 -37 -19 -61 -28
-51 -8 9 23 101 39 119 24 27 29 25 11 -2z m-953 -40 c-9 -18 -19 -42 -21 -53
-7 -33 -5 -108 3 -138 6 -23 -1 -39 -42 -100 -27 -39 -55 -85 -63 -102 -14
-30 -14 -30 -22 40 -7 65 -2 103 27 190 11 34 2 -71 -10 -111 -12 -41 -12 -46
0 -30 8 10 17 39 20 65 22 190 20 183 72 229 26 23 49 42 50 42 2 0 -4 -15
-14 -32z m614 -48 c1 -33 -3 -60 -8 -60 -10 0 -13 103 -2 113 3 4 7 7 7 7 1 0
2 -27 3 -60z m50 -47 c-3 -10 -5 -4 -5 12 0 17 2 24 5 18 2 -7 2 -21 0 -30z
m-337 -24 c0 -11 -4 -17 -10 -14 -5 3 -10 15 -10 26 0 11 5 17 10 14 6 -3 10
-15 10 -26z m377 -51 c-2 -18 -4 -6 -4 27 0 33 2 48 4 33 2 -15 2 -42 0 -60z
m-60 -30 c-2 -18 -4 -6 -4 27 0 33 2 48 4 33 2 -15 2 -42 0 -60z m633 51 c0
-10 -6 -19 -14 -19 -9 0 -12 8 -8 25 5 28 22 24 22 -6z m2477 -44 c9 -24 -1
-27 -15 -5 -8 13 -8 20 -2 20 6 0 13 -7 17 -15z m-3600 -47 c-3 -7 -5 -2 -5
12 0 14 2 19 5 13 2 -7 2 -19 0 -25z m353 -28 c6 -47 6 -49 -12 -34 -25 23
-31 50 -18 74 15 29 22 19 30 -40z m2779 -27 c-1 -10 -5 -29 -9 -43 -7 -21 -8
-19 -9 18 -1 23 4 42 9 42 6 0 10 -8 9 -17z m-3189 -70 c0 -73 -10 -133 -21
-133 -10 0 -12 173 -2 183 16 17 23 3 23 -50z m217 25 c-3 -8 -6 -5 -6 6 -1
11 2 17 5 13 3 -3 4 -12 1 -19z m520 -40 c-3 -8 -6 -5 -6 6 -1 11 2 17 5 13 3
-3 4 -12 1 -19z m-768 -163 c0 -5 -6 1 -14 15 -8 14 -14 30 -14 35 0 6 6 -1
14 -15 8 -14 14 -29 14 -35z m2641 -4787 c0 -23 -3 -29 -11 -21 -6 6 -8 20 -4
32 9 30 15 26 15 -11z m-12 -108 c0 -27 -2 -50 -4 -50 -11 0 -23 53 -18 80 9
44 22 27 22 -30z m2 -124 l-1 -31 -23 29 c-13 16 -22 36 -21 45 2 9 4 18 4 20
1 2 10 -4 21 -14 12 -11 20 -30 20 -49z m-1525 -996 c3 -5 1 -10 -4 -10 -6 0
-11 5 -11 10 0 6 2 10 4 10 3 0 8 -4 11 -10z m45 -210 c0 -5 -5 -10 -11 -10
-5 0 -7 5 -4 10 3 6 8 10 11 10 2 0 4 -4 4 -10z"/>
<path d="M6595 11250 c3 -5 16 -10 28 -9 21 0 21 1 2 9 -28 12 -37 12 -30 0z"/>
<path d="M4227 9202 l-27 -47 35 39 c34 38 43 56 28 56 -5 0 -20 -22 -36 -48z"/>
<path d="M4172 9123 c-26 -38 -34 -53 -29 -53 2 0 16 18 31 40 29 45 28 56 -2
13z"/>
<path d="M3807 8027 c-9 -13 -17 -56 -19 -102 -3 -44 -8 -89 -12 -100 -5 -11
2 -4 14 15 18 27 23 49 22 98 -1 34 3 74 8 87 12 31 7 32 -13 2z"/>
<path d="M4423 9528 c-18 -20 -65 -101 -50 -88 8 7 76 110 73 110 -1 0 -12
-10 -23 -22z"/>
<path d="M4406 9453 c-6 -14 -5 -15 5 -6 7 7 10 15 7 18 -3 3 -9 -2 -12 -12z"/>
<path d="M3993 8705 c-7 -7 -15 -26 -19 -42 -5 -23 -3 -21 15 11 22 42 23 52
4 31z"/>
<path d="M3641 7914 c-37 -77 -61 -171 -60 -229 l1 -40 9 49 c4 27 17 72 27
100 25 65 61 180 58 184 -2 1 -18 -27 -35 -64z"/>
<path d="M4782 7910 c0 -14 2 -19 5 -12 2 6 2 18 0 25 -3 6 -5 1 -5 -13z"/>
<path d="M4941 7704 c0 -11 3 -14 6 -6 3 7 2 16 -1 19 -3 4 -6 -2 -5 -13z"/>
<path d="M3590 7595 c0 -11 12 -28 102 -148 32 -42 63 -79 69 -83 13 -8 -54
86 -111 156 -20 25 -42 54 -48 65 -6 11 -12 15 -12 10z"/>
</g>
</svg>
