<?xml version="1.0" standalone="no"?>
<!DOCTYPE svg PUBLIC "-//W3C//DTD SVG 20010904//EN"
 "http://www.w3.org/TR/2001/REC-SVG-20010904/DTD/svg10.dtd">
<svg version="1.0" xmlns="http://www.w3.org/2000/svg"
 width="1254.000000pt" height="1280.000000pt" viewBox="0 0 1254.000000 1280.000000"
 preserveAspectRatio="xMidYMid meet">
<g transform="translate(0.000000,1280.000000) scale(0.100000,-0.100000)"
fill="#000000" stroke="none">
<path d="M7042 12569 c-6 -63 -18 -137 -26 -162 -11 -37 -12 -54 -3 -78 14
-36 4 -45 -63 -55 -25 -3 -65 -15 -89 -25 -24 -10 -51 -19 -60 -19 -25 0 -61
29 -61 49 0 16 -111 213 -117 207 -7 -6 65 -229 76 -235 24 -15 2 -78 -38
-108 -50 -39 -95 -53 -172 -53 -182 0 -319 -63 -386 -177 -35 -61 -42 -164
-18 -263 15 -60 15 -75 5 -96 -19 -34 -40 -31 -40 6 0 30 -13 37 -38 21 -9 -5
-11 -17 -6 -34 8 -33 1 -34 -27 -6 -26 26 -54 23 -164 -20 -102 -40 -123 -56
-109 -79 6 -9 26 -19 45 -22 l34 -6 -32 -17 c-18 -10 -33 -21 -33 -26 0 -4
-18 -16 -41 -26 -38 -18 -89 -70 -89 -92 0 -5 -53 -46 -117 -91 -118 -81 -276
-217 -238 -205 15 4 11 -3 -15 -31 -19 -21 -43 -42 -52 -47 -9 -5 -74 -13
-145 -18 -70 -6 -155 -17 -188 -26 -196 -51 -320 -175 -333 -331 -6 -83 17
-154 85 -256 29 -45 53 -87 53 -93 0 -6 5 -16 10 -21 7 -7 1 -34 -21 -85 -34
-81 -53 -164 -64 -279 -4 -41 -16 -92 -27 -113 -19 -37 -19 -38 0 -28 16 8 21
6 31 -15 21 -48 13 -118 -23 -198 -19 -42 -39 -76 -44 -76 -18 0 -72 32 -85
50 -7 11 -24 23 -38 28 -42 16 -261 192 -349 281 -120 120 -163 197 -305 541
-79 193 -157 307 -264 387 -76 56 -162 88 -346 127 l-149 33 -12 75 c-14 92
-46 154 -129 251 -55 65 -224 209 -304 259 -30 19 -29 17 38 -124 88 -182 102
-223 108 -330 6 -97 0 -113 -47 -123 -41 -9 -61 -36 -65 -90 -5 -60 -16 -73
-73 -80 -80 -11 -487 -94 -513 -104 -19 -8 -15 -9 21 -5 162 16 290 24 393 24
105 0 117 -2 117 -17 -1 -10 -44 -65 -96 -123 -205 -225 -285 -331 -543 -710
-84 -124 -202 -297 -262 -384 -184 -268 -292 -478 -464 -901 -53 -132 -148
-362 -211 -512 -222 -535 -336 -922 -408 -1393 -51 -334 -53 -418 -25 -915 19
-345 -14 -627 -103 -870 -22 -60 -83 -195 -135 -300 l-94 -190 60 62 c148 154
272 393 336 648 54 214 65 345 65 796 0 380 10 656 30 838 8 74 16 95 56 165
59 104 127 186 169 208 48 25 183 28 219 5 31 -21 29 -24 66 108 25 89 71 198
89 209 21 13 24 -26 14 -202 -14 -234 -12 -247 41 -270 22 -10 67 -43 99 -72
32 -29 60 -50 63 -48 14 14 49 228 84 508 30 246 192 818 247 870 14 14 15 9
9 -47 -4 -34 -16 -93 -26 -132 -27 -98 -75 -327 -106 -506 -17 -105 -28 -217
-34 -375 -7 -149 -16 -257 -29 -319 -17 -81 -18 -108 -9 -195 9 -90 17 -118
73 -251 34 -82 101 -244 148 -360 47 -115 116 -282 154 -370 67 -153 84 -210
118 -393 18 -102 42 -341 51 -522 16 -339 39 -182 39 270 -1 241 -4 313 -24
465 -21 161 -23 204 -18 400 7 238 16 319 51 458 l23 90 -23 221 c-13 121 -25
232 -26 246 -7 60 22 25 86 -105 59 -121 70 -137 80 -121 6 10 22 32 35 48 22
27 23 33 13 62 -55 142 -117 346 -144 471 -31 146 -32 156 -32 395 0 268 12
387 50 525 35 127 35 125 43 125 18 0 20 -80 5 -170 -8 -52 -18 -192 -21 -311
-5 -194 -4 -225 15 -315 23 -108 47 -241 57 -317 4 -27 24 -85 46 -130 33 -68
39 -91 39 -144 0 -35 4 -63 8 -63 5 0 19 35 31 77 29 100 62 164 124 241 50
61 81 80 113 68 13 -5 14 1 7 42 -4 26 -7 117 -5 202 3 181 -19 486 -48 664
-30 186 -30 460 1 441 5 -4 9 -36 9 -73 0 -87 24 -282 49 -402 41 -201 81
-440 91 -555 17 -194 33 -228 86 -186 17 13 41 21 65 21 21 0 40 4 43 8 3 5
-11 34 -30 66 -30 47 -39 75 -55 174 -21 127 -24 189 -10 211 13 20 18 7 57
-151 31 -126 84 -259 115 -292 5 -6 33 -2 71 11 35 12 96 29 137 39 87 20 79
26 142 -98 40 -79 45 -83 87 -71 22 5 23 9 17 51 -14 96 -90 279 -172 415
l-35 59 17 64 c27 101 18 158 -48 307 -89 201 -87 217 21 121 38 -34 68 -54
77 -50 22 8 19 21 -13 58 -15 18 -66 87 -112 153 -46 66 -105 147 -132 180
-52 64 -67 100 -50 117 14 14 166 -116 268 -228 75 -82 139 -129 170 -122 8 2
25 28 38 59 12 30 39 78 60 105 40 54 125 129 156 139 11 4 20 12 20 18 0 7
-28 50 -62 97 -187 257 -193 292 -29 182 144 -98 179 -116 196 -102 8 7 15 17
15 22 0 5 7 25 15 45 20 48 35 34 71 -63 l27 -75 -21 -52 c-12 -29 -22 -60
-22 -70 0 -10 -4 -16 -9 -12 -11 6 -26 -33 -17 -42 3 -4 6 0 7 8 0 8 4 5 8 -6
7 -18 11 -15 30 23 12 23 26 42 31 42 6 0 10 18 10 40 0 22 11 65 25 96 17 39
20 52 10 44 -21 -17 -32 -4 -38 45 -17 133 -54 198 -205 356 -106 112 -141
157 -211 273 -46 76 -99 173 -118 214 -50 111 -185 514 -175 524 18 18 218
-176 322 -312 89 -116 226 -262 334 -357 136 -118 249 -207 307 -241 21 -13
39 -28 39 -33 0 -5 9 -9 19 -9 11 0 26 -7 35 -15 8 -8 20 -15 27 -15 23 0 89
-34 89 -46 0 -7 -20 -24 -45 -39 -25 -14 -52 -37 -61 -50 -9 -14 -51 -49 -93
-79 -77 -54 -204 -176 -185 -176 6 0 19 8 28 19 9 10 55 45 102 77 61 42 87
55 95 47 8 -8 -1 -24 -33 -60 -64 -69 -104 -131 -148 -231 -22 -48 -44 -86
-49 -85 -11 3 -31 -58 -31 -91 0 -11 -35 -56 -77 -101 -136 -143 -152 -165
-118 -165 20 0 19 -6 -7 -43 -21 -29 -23 -44 -23 -152 0 -107 -2 -124 -22
-155 -15 -23 -23 -50 -23 -80 l0 -45 19 24 19 25 4 -24 c6 -44 24 -30 54 42
32 76 48 92 59 58 5 -15 14 -20 28 -18 30 4 32 31 8 83 -12 25 -21 52 -21 60
0 36 109 222 110 187 0 -7 11 -17 25 -22 19 -7 25 -17 25 -41 0 -31 0 -32 20
-14 19 17 20 17 41 -31 l21 -49 -21 -120 c-12 -66 -24 -133 -28 -150 -5 -27
-4 -29 10 -17 9 7 29 42 46 78 32 68 52 84 76 64 13 -11 15 -6 15 37 0 49 23
99 41 88 10 -7 15 4 23 56 5 29 12 38 31 41 18 4 25 0 28 -16 2 -12 5 4 6 34
1 41 7 65 26 93 28 41 45 47 45 17 0 -29 12 -25 39 15 19 28 21 38 11 50 -10
12 -3 24 41 70 29 31 55 52 58 47 3 -5 14 -11 24 -15 9 -3 17 -14 17 -22 0
-20 -101 -143 -118 -144 -7 -1 -20 -16 -29 -35 -15 -32 -15 -37 1 -69 9 -19
16 -48 16 -64 0 -19 3 -24 9 -15 5 9 12 -14 20 -65 16 -110 31 -160 41 -142 7
11 14 9 39 -9 17 -12 31 -22 33 -22 2 0 4 30 5 68 3 97 13 121 56 146 21 11
66 47 100 79 100 93 113 95 82 7 -8 -23 -15 -66 -15 -94 0 -32 -13 -88 -35
-151 -19 -55 -35 -113 -35 -130 l0 -30 17 33 c9 18 41 53 72 77 71 55 149 135
132 135 -8 0 -11 7 -8 20 3 11 1 20 -4 20 -15 0 -10 34 10 60 17 21 21 22 36
10 11 -10 15 -23 11 -42 -3 -15 -3 -28 0 -28 4 0 24 14 46 31 28 23 38 37 35
51 -4 13 1 22 16 28 32 12 104 90 84 90 -10 0 -20 15 -27 40 -9 33 -8 44 6 65
9 14 20 25 24 25 9 0 50 -53 50 -65 0 -3 11 -31 25 -61 14 -30 25 -58 25 -63
0 -4 6 -21 14 -37 48 -97 107 -241 126 -303 l23 -73 -26 -22 c-28 -24 -27 -27
33 -131 15 -27 40 -71 54 -96 16 -30 34 -49 50 -53 44 -11 53 -101 21 -202 -4
-13 -1 -27 9 -37 29 -29 19 -54 -71 -181 -39 -55 -138 -153 -185 -182 -40 -25
-94 -99 -105 -144 -4 -14 -31 -56 -60 -95 -64 -83 -172 -292 -202 -388 -11
-37 -26 -107 -32 -155 -7 -48 -22 -131 -35 -184 -15 -59 -24 -127 -24 -175 0
-92 -29 -279 -58 -378 -12 -38 -35 -125 -51 -193 -33 -135 -78 -226 -236 -477
-44 -71 -103 -166 -130 -210 -105 -170 -268 -375 -471 -590 -66 -69 -120 -132
-122 -139 -2 -10 20 -16 85 -23 155 -17 199 -55 247 -210 37 -121 65 -181 98
-208 40 -34 66 -40 88 -20 22 20 19 22 137 -72 116 -92 242 -183 254 -183 5 0
9 7 9 16 0 24 131 255 148 262 19 7 253 -69 259 -84 2 -6 -6 -44 -17 -85 -19
-63 -23 -114 -30 -352 -5 -171 -4 -291 1 -310 11 -37 3 -170 -17 -277 -8 -41
-14 -89 -14 -107 0 -40 -25 -102 -89 -222 -27 -51 -51 -100 -53 -110 -2 -10
-12 -15 -25 -14 -30 3 -39 -28 -14 -49 23 -18 28 -38 10 -38 -8 0 -8 -5 1 -15
8 -9 10 -28 6 -49 -6 -31 -4 -34 13 -29 16 4 19 1 14 -19 -3 -12 -10 -29 -16
-35 -5 -7 -6 -20 -3 -29 5 -13 9 -14 21 -4 20 17 19 -1 -2 -38 -9 -16 -32 -37
-52 -48 -76 -41 -104 -140 -104 -364 0 -219 30 -328 122 -450 80 -107 213
-180 325 -180 121 0 219 66 231 155 11 80 61 249 75 253 13 5 11 -59 -6 -150
-6 -34 -4 -38 27 -57 19 -12 59 -28 89 -37 30 -9 100 -35 155 -59 115 -49 176
-67 294 -89 97 -19 258 -21 331 -5 55 12 125 62 116 84 -2 7 -33 52 -69 101
-36 49 -91 136 -122 194 -32 58 -72 125 -90 150 -65 90 -98 179 -89 235 3 17
-2 50 -11 75 -47 128 -75 247 -75 320 0 79 34 230 64 288 9 18 22 72 27 120
17 137 45 275 89 432 50 177 55 192 86 221 28 27 33 24 70 -50 33 -68 46 -121
33 -137 -7 -9 -4 -14 12 -19 15 -5 25 -2 31 9 5 9 13 16 18 16 5 0 29 -33 54
-73 l46 -74 -19 -927 c-13 -619 -23 -931 -30 -940 -6 -7 -10 -28 -9 -48 1 -19
-2 -40 -6 -46 -4 -6 7 -39 24 -73 16 -33 30 -76 30 -93 0 -33 33 -76 58 -76
19 0 52 62 52 97 0 17 4 34 9 37 5 4 18 25 29 49 17 36 19 50 10 102 -13 77
-12 183 17 1630 l24 1210 33 28 c56 48 192 110 251 115 49 4 57 1 90 -28 44
-39 48 -38 169 42 109 71 165 98 187 90 9 -3 28 -15 43 -26 l28 -19 67 35 c38
19 104 54 148 77 l80 43 95 -7 c52 -4 118 -8 145 -8 49 -2 50 -1 50 27 0 27
-8 34 -103 85 -180 98 -304 210 -494 448 -172 216 -486 666 -650 933 l-46 75
-6 147 c-3 81 -13 198 -22 260 -21 148 -15 484 9 518 11 15 13 29 7 44 -4 12
-6 34 -3 49 3 17 -2 35 -16 53 -25 32 -26 41 -5 83 14 29 15 44 4 134 -16 129
-7 596 16 887 16 188 19 207 40 227 33 32 46 140 32 258 -3 29 -1 30 31 27 21
-1 41 4 52 14 10 9 25 14 33 11 19 -8 42 -115 27 -130 -16 -16 -14 -23 13 -35
18 -8 29 -26 41 -68 21 -74 57 -143 87 -170 64 -60 142 -104 180 -104 72 0 90
22 148 181 33 88 37 138 16 215 -7 28 -11 74 -8 102 3 39 -1 64 -17 101 -11
27 -21 59 -21 70 0 11 -32 60 -70 108 -125 155 -141 183 -143 247 -2 45 -7 61
-24 74 -11 9 -25 26 -31 37 -18 36 -51 179 -67 291 -27 189 -93 446 -131 511
-13 23 -47 64 -74 91 -28 27 -50 54 -50 59 0 6 42 42 93 80 116 88 287 242
363 328 33 37 97 119 142 183 134 187 184 278 335 605 46 98 156 269 171 264
24 -8 1 -338 -39 -557 -35 -192 -85 -342 -166 -495 -37 -72 -76 -160 -85 -195
-19 -75 -15 -170 13 -277 l18 -68 6 85 c7 103 15 131 36 128 10 -2 31 22 59
70 111 187 145 191 108 14 -9 -42 -17 -115 -18 -162 l-1 -85 67 -35 c79 -42
116 -74 134 -117 8 -18 18 -33 22 -33 14 0 69 103 105 195 36 90 60 172 96
320 24 101 37 135 52 135 15 0 7 -171 -15 -295 -8 -49 -28 -160 -42 -245 -40
-228 -40 -229 -3 -269 22 -24 34 -30 42 -22 24 24 37 12 31 -29 -5 -33 -2 -47
24 -87 17 -26 49 -66 71 -87 l41 -40 14 35 c11 28 34 99 82 258 4 11 7 12 17
2 33 -33 -2 -356 -63 -586 -49 -185 -63 -393 -35 -513 14 -59 75 -195 93 -206
4 -2 -3 28 -16 67 -21 63 -24 84 -19 167 5 102 37 238 58 251 7 4 93 8 190 7
97 0 182 2 187 6 5 3 17 36 26 74 21 84 32 103 46 82 5 -8 10 -28 10 -45 0
-16 3 -54 6 -82 5 -41 11 -54 28 -59 11 -4 32 -19 46 -34 20 -21 30 -25 48
-19 22 8 22 9 21 251 0 150 -5 274 -13 323 -17 102 -43 269 -57 360 -17 118
-23 282 -10 269 13 -12 58 -230 84 -404 9 -58 28 -148 42 -200 14 -52 29 -135
35 -185 5 -49 17 -153 25 -231 22 -195 26 -208 75 -223 30 -9 47 -23 66 -53
32 -51 40 -42 55 69 20 149 24 168 34 168 17 0 53 -125 69 -240 9 -61 21 -130
29 -155 12 -42 15 -45 55 -51 48 -6 65 -20 123 -100 35 -47 45 -56 52 -43 26
45 7 464 -34 760 -10 78 -19 152 -18 165 1 40 47 -68 74 -174 26 -103 78 -492
95 -707 16 -204 27 -295 49 -404 12 -54 21 -111 21 -127 0 -15 11 -63 24 -106
39 -123 81 -320 120 -553 19 -119 47 -265 61 -325 28 -117 114 -390 121 -382
2 2 -14 89 -35 193 -45 214 -68 384 -77 559 -5 101 -2 146 20 280 14 88 37
259 51 380 14 121 34 289 46 374 27 205 23 251 -51 471 -58 172 -80 279 -80
395 0 34 -21 110 -65 244 -36 107 -63 197 -61 199 5 5 54 -71 128 -198 83
-142 84 -144 127 -318 40 -158 70 -240 95 -262 10 -8 20 0 40 30 14 22 45 52
69 66 23 15 44 28 46 30 2 2 -4 19 -13 39 -9 19 -37 85 -62 145 -69 172 -61
179 56 50 l83 -90 32 28 c17 15 40 32 50 37 17 10 17 13 -2 57 -35 77 -160
279 -224 358 -33 41 -117 158 -187 260 -70 102 -151 211 -181 243 -30 31 -52
60 -49 63 3 3 33 -18 67 -46 62 -52 140 -144 228 -268 107 -152 186 -252 263
-332 111 -115 162 -175 199 -236 20 -34 51 -64 88 -89 75 -50 168 -146 191
-199 78 -175 144 -394 253 -827 145 -579 259 -819 508 -1070 103 -103 209
-189 234 -189 5 0 -20 32 -54 71 -328 367 -438 589 -544 1100 -113 540 -200
800 -405 1209 -148 296 -257 470 -544 865 -100 138 -236 324 -301 415 -226
312 -391 503 -580 670 -66 58 -209 186 -320 285 -338 304 -439 386 -688 554
-115 79 -125 87 -109 103 14 14 213 62 347 83 61 10 113 21 117 24 9 8 -117 4
-351 -10 -204 -12 -194 -15 -205 54 -10 58 -21 67 -81 67 l-53 0 -21 62 c-13
38 -21 87 -21 127 0 65 34 249 64 350 8 28 13 51 10 51 -16 0 -171 -201 -225
-291 -79 -133 -101 -224 -87 -359 3 -22 -6 -30 -72 -64 -128 -65 -253 -142
-302 -185 -26 -23 -49 -38 -51 -34 -3 5 19 63 49 131 30 67 62 153 70 190 69
293 -163 521 -517 510 -85 -2 -89 -1 -126 28 -21 17 -46 47 -57 68 -18 37 -18
38 3 57 11 11 21 28 21 38 0 9 11 51 25 91 14 40 23 75 21 77 -2 2 -16 -18
-31 -44 -15 -26 -38 -62 -50 -79 -13 -16 -25 -41 -27 -54 -1 -14 -15 -31 -30
-40 -25 -13 -32 -13 -79 3 -28 10 -76 21 -105 24 -65 7 -82 22 -60 55 13 20
13 30 0 85 -8 35 -18 109 -22 165 l-7 103 -13 -116z m742 -745 c29 -10 68 -36
97 -63 82 -80 88 -165 25 -371 -38 -122 -44 -193 -22 -245 10 -25 10 -39 -6
-88 -21 -67 -39 -169 -68 -382 -46 -325 -74 -388 -318 -714 -120 -160 -383
-441 -413 -441 -13 0 -18 16 -23 84 -7 82 -6 86 24 139 16 29 30 68 30 84 0
17 6 33 12 35 10 4 9 16 -3 56 -19 58 -11 80 40 107 25 12 31 12 49 -1 12 -8
24 -31 28 -51 11 -58 25 -15 22 69 l-3 73 63 75 c111 131 162 235 162 330 0
107 -47 191 -153 277 -20 16 -27 31 -27 56 0 19 -7 52 -16 72 -15 37 -15 39
10 64 23 22 29 24 46 13 17 -10 30 -10 72 3 28 8 100 20 161 27 62 6 102 14
91 18 -11 4 -83 15 -160 24 -103 13 -147 15 -161 7 -17 -8 -24 -6 -43 14 -19
21 -22 31 -17 70 14 99 50 152 170 251 14 12 29 35 32 50 3 16 13 54 22 84 9
30 19 90 24 133 4 44 16 99 26 124 l18 45 80 -5 c44 -3 102 -13 129 -23z
m-1267 -11 c11 -17 20 -58 25 -112 4 -47 16 -124 27 -170 19 -79 24 -87 84
-150 79 -81 106 -133 114 -215 5 -60 4 -64 -16 -71 -17 -5 -37 3 -79 33 -31
22 -77 49 -102 62 -25 12 -53 29 -63 38 -9 8 -27 20 -39 26 -12 6 -24 17 -26
25 -4 11 2 13 27 8 36 -7 40 6 16 53 -11 22 -24 30 -57 35 -85 12 -98 17 -109
36 -8 16 -6 21 13 28 13 5 26 7 29 5 3 -2 20 -6 37 -9 70 -12 16 40 -77 75
-63 23 -61 20 -76 111 -4 20 -2 54 4 76 21 76 71 118 160 133 79 13 89 12 108
-17z m-693 -409 c9 -22 -3 -32 -14 -14 -12 19 -12 30 -1 30 5 0 12 -7 15 -16z
m1414 -727 c8 -7 10 -21 6 -45 -8 -42 7 -37 26 8 11 27 17 30 39 25 33 -8 87
-49 102 -77 18 -34 5 -119 -30 -194 -42 -90 -107 -187 -135 -200 -22 -10 -26
-6 -74 87 -32 62 -47 99 -39 102 8 2 7 15 -5 46 -13 32 -14 48 -7 65 9 18 6
33 -11 71 -17 38 -20 53 -11 71 6 13 17 24 26 24 8 0 15 7 15 14 0 17 76 19
98 3z m-2274 -20 c22 -1 41 -7 43 -13 4 -12 -129 -134 -146 -134 -6 0 -18 -15
-27 -32 -25 -48 -84 -118 -100 -118 -14 0 -19 31 -16 120 1 37 0 40 -7 20 -5
-14 -9 -70 -10 -126 -1 -71 -5 -106 -16 -120 -14 -18 -15 -18 -40 11 -35 43
-74 126 -85 186 -12 61 2 102 48 141 37 31 137 71 161 64 9 -3 23 -1 31 5 8 5
40 7 70 4 30 -3 73 -6 94 -8z m-180 -323 c-15 -26 -30 -42 -32 -35 -4 13 47
96 55 88 2 -3 -8 -27 -23 -53z m2349 -162 c31 -34 40 -77 23 -111 -15 -29 -34
-47 -41 -40 -2 2 -6 41 -10 87 -8 85 -2 98 28 64z m-2259 -130 c-24 -36 -30
-12 -8 30 14 26 19 29 22 15 2 -10 -4 -30 -14 -45z m-118 -17 c3 -8 -2 -37
-11 -65 -16 -48 -16 -52 0 -70 16 -18 14 -25 -45 -152 -34 -73 -66 -137 -71
-142 -5 -6 -9 9 -9 40 -1 45 -2 47 -15 30 -21 -27 -31 -12 -18 27 6 17 11 46
11 63 1 34 54 160 75 178 8 6 22 32 31 59 17 46 41 61 52 32z m158 -130 c-4
-8 -10 -15 -15 -15 -4 0 -6 7 -3 15 4 8 10 15 15 15 4 0 6 -7 3 -15z m-34 -44
c-12 -23 -30 -36 -30 -22 0 10 27 41 36 41 3 0 0 -9 -6 -19z m2013 -58 l19
-37 -25 -22 c-14 -11 -28 -30 -31 -42 -4 -11 -25 -38 -46 -60 -40 -40 -42 -52
-7 -52 17 0 18 -5 12 -52 -9 -65 -42 -129 -76 -145 -34 -16 -69 -6 -69 20 0
21 0 21 -21 -1 -18 -20 -27 -22 -72 -16 -29 4 -57 11 -64 16 -7 5 -17 7 -23 3
-15 -9 -40 13 -40 36 0 11 -4 19 -9 19 -15 0 -22 32 -10 46 6 7 16 11 23 8 6
-2 33 7 59 21 27 14 53 25 59 25 6 0 19 6 27 14 9 7 43 21 76 29 33 9 50 16
38 16 -30 1 -38 19 -18 41 10 11 15 28 12 39 -6 25 16 45 43 38 11 -3 18 -2
15 3 -2 4 7 16 21 26 14 11 38 29 52 41 15 13 29 23 32 23 3 0 13 -17 23 -37z
m-2089 -70 c-8 -68 -12 -77 -73 -163 -49 -68 -76 -120 -63 -120 4 0 28 21 54
48 25 26 71 61 101 78 l55 32 -30 -57 c-16 -31 -43 -73 -59 -93 -16 -21 -46
-68 -65 -105 -49 -93 -53 -97 -90 -79 -16 7 -46 22 -66 31 -21 10 -38 22 -38
29 0 6 14 31 30 55 17 24 30 52 30 62 0 10 8 23 18 28 22 12 66 97 57 111 -4
6 17 48 45 93 80 125 104 138 94 50z m2130 -28 c4 -20 4 -40 0 -46 -3 -6 -8
-65 -10 -131 -2 -67 -7 -124 -11 -128 -4 -4 -20 -10 -36 -14 -40 -10 -42 9 -7
93 29 71 39 128 21 117 -4 -3 -11 -24 -15 -47 -4 -23 -14 -55 -24 -73 l-17
-31 -3 51 c-3 55 27 181 53 220 22 34 42 30 49 -11z m-1977 -157 c-40 -54 -51
-79 -37 -88 28 -17 -66 -140 -106 -140 -8 0 -28 -7 -44 -15 -36 -19 -38 -9 -9
48 29 55 80 119 154 189 63 59 84 62 42 6z m1864 -151 c-8 -8 -11 -7 -11 4 0
9 3 19 7 23 4 4 9 2 11 -4 3 -7 -1 -17 -7 -23z m-3811 -672 c7 -14 10 -28 6
-32 -9 -9 -49 36 -72 81 l-16 28 34 -26 c19 -14 40 -37 48 -51z m1280 35 c-12
-23 -30 -27 -30 -7 0 17 10 27 27 27 11 0 11 -5 3 -20z m415 -293 c-54 -78
-121 -154 -129 -146 -3 3 -1 21 4 40 10 35 135 169 159 169 6 0 -10 -28 -34
-63z m-74 15 c-14 -27 -41 -48 -41 -33 0 22 20 51 36 51 11 0 12 -4 5 -18z
m429 -37 c-13 -14 -26 -23 -28 -20 -3 3 5 16 18 30 13 14 26 23 28 20 3 -3 -5
-16 -18 -30z m-701 -12 c-48 -62 -93 -113 -96 -109 -10 10 40 83 69 103 41 27
44 28 27 6z m11 -96 c0 -7 -11 -29 -25 -47 -14 -19 -35 -61 -47 -92 -11 -32
-23 -58 -27 -58 -3 0 -12 14 -20 31 -16 38 -7 59 57 131 44 49 62 59 62 35z
m-250 -15 c0 -5 -23 -47 -52 -93 -28 -46 -66 -110 -85 -141 -40 -66 -57 -76
-78 -45 -27 41 -4 82 102 189 92 93 113 109 113 90z m170 -19 c0 -5 -11 -21
-25 -38 -20 -25 -24 -27 -25 -11 0 11 7 28 17 38 17 18 33 24 33 11z m142 -65
c-58 -109 -80 -144 -100 -153 -12 -5 -22 -15 -22 -22 0 -25 -20 -23 -30 2 -12
31 -6 44 54 125 70 95 78 103 95 86 12 -12 12 -20 3 -38z m456 -13 c3 -11 10
-24 18 -28 8 -4 14 -16 14 -26 0 -21 -27 -47 -37 -37 -4 3 -28 -15 -55 -41
-51 -50 -53 -49 -48 22 2 35 13 57 49 103 28 35 54 38 59 7z m417 -47 c8 -32
-1 -36 -22 -10 -13 16 -14 16 -9 -3 3 -11 -1 -29 -9 -39 -12 -16 -17 -17 -30
-6 -21 17 -19 23 18 63 34 38 42 37 52 -5z m2339 -211 c12 -19 3 -32 -19 -24
-17 7 -21 51 -3 45 6 -2 16 -12 22 -21z m-2662 -59 c-7 -7 -12 -8 -12 -2 0 14
12 26 19 19 2 -3 -1 -11 -7 -17z m-262 -34 c0 -31 -2 -35 -15 -24 -16 13 -20
42 -8 53 15 15 23 5 23 -29z m2455 5 c9 -13 -14 -99 -26 -99 -10 0 -12 93 -2
103 9 10 21 8 28 -4z m-582 -5021 c2 -7 1 -60 -3 -118 -3 -58 -3 -113 2 -122
13 -26 9 -58 -6 -58 -8 0 -24 12 -36 28 -23 29 -23 25 0 162 17 102 21 120 30
120 4 0 10 -6 13 -12z"/>
<path d="M6579 9468 c-27 -33 -29 -39 -11 -26 27 19 56 57 49 64 -2 3 -20 -14
-38 -38z"/>
<path d="M4486 9565 c-41 -74 -49 -121 -9 -52 20 33 45 97 38 97 -2 0 -15 -20
-29 -45z"/>
<path d="M3945 8420 c-4 -12 -5 -24 -2 -27 3 -2 8 5 12 17 4 12 5 24 2 27 -3
2 -8 -5 -12 -17z"/>
<path d="M3726 7982 c-14 -22 -31 -61 -37 -86 -10 -40 -9 -49 8 -77 l20 -31
-4 49 c-4 37 1 63 21 112 14 36 24 66 22 69 -3 2 -16 -14 -30 -36z"/>
<path d="M4380 7810 c0 -6 -6 -8 -12 -4 -7 4 5 -12 27 -35 73 -78 103 -77 39
1 -38 46 -54 57 -54 38z"/>
<path d="M3995 7787 c-16 -79 -16 -137 1 -162 l17 -26 18 31 c19 30 25 102 13
147 -8 30 -43 37 -49 10z"/>
<path d="M3960 7606 c0 -8 5 -18 10 -21 6 -3 10 3 10 14 0 12 -4 21 -10 21 -5
0 -10 -6 -10 -14z"/>
</g>
</svg>
