<?xml version="1.0" standalone="no"?>
<!DOCTYPE svg PUBLIC "-//W3C//DTD SVG 20010904//EN"
 "http://www.w3.org/TR/2001/REC-SVG-20010904/DTD/svg10.dtd">
<svg version="1.0" xmlns="http://www.w3.org/2000/svg"
 width="1033.000000pt" height="1280.000000pt" viewBox="0 0 1033.000000 1280.000000"
 preserveAspectRatio="xMidYMid meet">
<g transform="translate(0.000000,1280.000000) scale(0.100000,-0.100000)"
fill="#000000" stroke="none">
<path d="M8147 12459 c-27 -17 -61 -48 -77 -68 -16 -20 -204 -297 -418 -616
l-388 -580 -85 -1 c-81 -1 -91 -3 -286 -82 -262 -106 -246 -102 -269 -55 l-19
38 -65 1 c-97 2 -162 14 -187 36 -14 13 -32 19 -55 17 -18 -2 -52 3 -74 10
-40 13 -44 12 -127 -28 -50 -25 -113 -46 -149 -52 -35 -5 -78 -14 -95 -20 -24
-8 -74 -6 -189 6 -85 9 -195 15 -243 13 -85 -3 -90 -4 -119 -35 -16 -18 -35
-33 -40 -33 -6 0 -53 -20 -104 -44 -51 -25 -120 -55 -153 -68 -85 -33 -166
-90 -204 -143 -18 -25 -36 -45 -40 -45 -21 0 -180 190 -181 217 -2 25 -166
220 -208 247 -44 28 -133 114 -181 175 -19 24 -48 49 -65 56 -38 17 -101 81
-115 117 -8 22 -21 31 -57 40 -33 9 -49 20 -55 36 -8 20 -13 22 -44 16 -27 -5
-41 -2 -56 12 -17 16 -35 18 -125 16 -66 -1 -119 -8 -141 -17 -19 -8 -44 -15
-54 -15 -10 0 -30 -11 -45 -25 -15 -14 -45 -30 -66 -37 -22 -6 -43 -19 -49
-29 -5 -10 -23 -21 -41 -25 -46 -10 -89 -45 -179 -147 -101 -114 -116 -158
-124 -353 -5 -119 -3 -143 10 -154 11 -9 15 -31 15 -77 0 -49 6 -75 25 -111
14 -26 25 -57 25 -69 0 -20 28 -157 51 -253 6 -25 19 -79 29 -120 10 -41 24
-94 31 -117 13 -43 13 -43 -23 -80 -44 -47 -58 -73 -58 -110 0 -32 36 -71 82
-91 19 -8 29 -21 34 -46 3 -20 3 -42 0 -48 -47 -93 -64 -115 -121 -149 l-60
-36 -37 -109 c-77 -230 -81 -349 -14 -467 19 -35 43 -92 52 -128 17 -61 50
-109 70 -102 11 4 39 -85 30 -94 -3 -3 -13 11 -21 32 -9 20 -19 35 -22 31 -3
-3 11 -38 31 -79 30 -61 36 -85 37 -143 1 -38 4 -59 6 -46 9 49 43 -5 58 -92
5 -29 9 -36 18 -27 8 8 8 22 0 52 -14 52 -7 85 14 67 32 -26 53 -87 58 -170 6
-91 17 -143 42 -200 16 -37 42 -56 28 -20 -22 54 -26 75 -21 97 7 29 22 33 29
8 4 -17 5 -17 6 0 1 21 21 13 21 -9 0 -8 9 -27 19 -42 17 -23 27 -89 22 -140
-2 -22 -20 -3 -30 31 -7 26 -10 29 -16 14 -9 -22 36 -182 46 -165 5 8 12 3 20
-15 7 -15 15 -27 19 -27 11 0 20 39 20 88 0 23 2 42 5 42 3 0 22 -7 42 -15
l36 -15 -7 -101 c-5 -70 -4 -99 3 -94 6 3 11 30 11 60 0 30 4 56 9 60 13 7 31
-27 31 -57 -1 -85 15 -111 88 -143 28 -12 33 -19 30 -42 -4 -40 12 -113 24
-113 7 0 8 -16 3 -47 -15 -100 -12 -124 16 -139 44 -22 47 -81 13 -261 -2 -13
-23 -35 -45 -50 -40 -26 -41 -28 -34 -70 5 -36 1 -58 -24 -118 -18 -41 -31
-92 -31 -114 0 -23 -4 -49 -10 -59 -21 -39 -80 -230 -80 -261 0 -23 -16 -62
-47 -115 -47 -80 -48 -83 -53 -186 -6 -102 -8 -109 -74 -265 -37 -88 -73 -173
-81 -190 -7 -16 -18 -41 -23 -55 -265 -631 -427 -975 -534 -1139 -30 -45 -58
-104 -58 -121 0 -22 45 -62 108 -96 46 -24 58 -37 87 -94 20 -39 58 -89 94
-125 34 -33 61 -64 61 -71 0 -21 -72 -249 -90 -284 -10 -19 -32 -45 -49 -58
-17 -12 -39 -37 -48 -56 -19 -36 -122 -131 -162 -150 -19 -8 -25 -8 -29 2 -9
27 -48 9 -121 -58 -67 -60 -80 -78 -105 -141 -23 -59 -26 -76 -17 -96 9 -20 8
-30 -9 -53 -11 -15 -20 -35 -20 -43 0 -8 -13 -43 -29 -78 -16 -35 -41 -100
-55 -144 -25 -73 -39 -137 -112 -519 -13 -70 -29 -137 -36 -149 -10 -19 -12
-19 -23 -4 -26 36 -48 8 -79 -102 -19 -66 -20 -106 -4 -184 l12 -59 -76 -152
c-82 -160 -93 -193 -103 -296 -4 -36 -13 -88 -21 -116 -10 -38 -11 -65 -4
-109 11 -70 61 -179 100 -220 15 -16 34 -50 40 -75 15 -55 87 -199 132 -261
88 -123 151 -198 171 -203 102 -25 334 -32 517 -15 101 9 121 14 163 41 26 16
47 37 47 45 0 8 14 28 30 43 17 15 30 37 30 48 0 23 -52 88 -184 230 -47 52
-87 98 -87 103 -1 5 -3 14 -4 19 -1 6 -3 14 -4 20 0 5 -21 32 -46 60 -25 28
-45 57 -45 64 0 7 -10 21 -21 32 -36 32 -109 150 -109 175 0 14 -7 35 -16 47
-12 18 -13 29 -5 55 6 17 17 67 25 109 15 75 77 240 102 267 10 11 19 11 50 1
32 -11 42 -10 71 5 54 29 151 197 183 314 16 62 36 88 75 101 24 8 47 30 79
74 24 34 63 75 86 90 33 22 49 43 80 110 33 73 46 89 101 132 93 72 99 79 99
125 0 29 11 59 39 107 21 37 45 85 51 107 26 83 33 94 81 135 51 43 63 76 34
100 -23 19 -18 41 19 85 l34 39 50 -77 c28 -42 53 -83 56 -90 9 -22 35 22 175
303 357 718 430 878 566 1240 87 232 91 240 108 240 7 0 55 -84 107 -187 52
-103 141 -268 198 -367 56 -99 102 -188 102 -197 0 -15 -156 -517 -306 -985
-35 -111 -70 -207 -78 -214 -8 -6 -18 -33 -22 -58 -3 -26 -14 -73 -24 -104
-38 -119 -115 -544 -103 -573 11 -29 30 -14 71 58 49 85 182 369 182 389 0 7
16 44 35 82 19 37 35 83 35 100 0 18 63 216 140 441 194 565 201 585 216 585
10 0 89 -185 137 -323 6 -15 10 -16 28 -6 28 15 36 2 44 -75 9 -85 13 -94 46
-111 42 -22 62 -67 52 -118 -4 -23 -8 -82 -9 -132 -1 -49 -5 -134 -9 -188 -5
-64 -4 -106 3 -120 6 -12 13 -78 17 -147 9 -199 35 -302 150 -605 14 -38 53
-155 86 -259 48 -154 58 -199 53 -231 -8 -56 18 -151 51 -185 31 -33 42 -73
51 -195 4 -66 2 -108 -10 -158 -19 -82 -20 -129 -4 -145 7 -7 14 -41 15 -75 1
-34 3 -78 4 -97 1 -19 -5 -53 -14 -75 -23 -58 -23 -254 0 -302 28 -59 147
-115 237 -113 100 4 115 1 158 -23 64 -37 160 -52 234 -36 32 6 153 13 268 15
196 2 210 4 229 23 19 18 20 24 9 54 -16 46 -15 86 3 93 35 14 10 53 -65 103
-19 13 -60 49 -91 80 -64 65 -176 161 -188 161 -4 0 -19 17 -34 38 -78 107
-101 149 -108 197 -4 28 -16 95 -28 149 -15 72 -22 142 -24 250 l-2 149 29 8
c46 13 66 37 66 83 0 60 -19 89 -65 102 l-40 11 4 78 c2 59 10 92 32 139 53
113 60 163 62 438 2 139 6 258 10 265 14 22 9 197 -7 242 -9 24 -16 60 -16 80
0 20 -11 56 -24 81 -13 25 -27 65 -30 90 -4 25 -16 77 -26 116 -10 38 -23 113
-29 165 -5 52 -19 121 -31 154 -12 33 -34 119 -50 192 -15 72 -30 136 -34 141
-5 9 -56 236 -56 253 0 5 11 19 25 31 14 12 45 56 69 98 30 51 67 95 115 138
66 59 71 66 83 124 10 49 19 65 46 86 67 51 63 72 -42 212 -60 81 -285 516
-350 680 -84 207 -106 271 -101 280 4 6 26 10 49 10 24 0 61 7 82 16 22 9 50
20 63 26 l24 9 -25 27 c-14 15 -30 35 -35 45 -10 20 -61 79 -130 152 -23 25
-44 54 -48 65 -4 13 -19 22 -43 26 -67 12 -77 43 -14 44 22 0 22 0 5 31 -45
80 -44 71 -17 153 15 43 33 80 40 83 8 3 26 25 40 49 14 24 28 44 31 44 9 0
159 -94 202 -127 24 -18 52 -33 61 -33 26 0 55 39 55 74 0 30 2 31 37 28 49
-4 82 27 76 70 -5 28 -1 32 34 46 43 17 54 41 44 97 -6 30 -4 35 11 35 26 0
63 28 73 56 15 38 -2 65 -78 126 -83 66 -97 75 -165 95 -71 21 -163 69 -171
88 -3 9 -6 24 -6 33 0 8 -10 26 -22 39 -37 39 -31 109 19 228 77 185 101 265
129 422 16 97 47 155 97 188 64 41 93 147 67 240 -37 131 -175 154 -231 39
-21 -43 -23 -61 -21 -149 3 -116 -10 -192 -44 -255 -28 -53 -84 -196 -84 -214
0 -7 -7 -26 -15 -43 -8 -17 -19 -50 -24 -74 -18 -83 -48 -178 -65 -204 -23
-35 -67 -33 -160 10 -80 37 -94 53 -112 130 -5 20 -9 24 -11 13 -6 -26 -41
-32 -66 -12 -12 10 -3 -2 21 -25 24 -24 42 -51 40 -59 -2 -9 -19 -20 -40 -25
-29 -7 -46 -5 -74 10 -31 15 -41 29 -60 82 -29 77 -29 83 -4 112 l20 24 34
-36 c30 -32 35 -34 39 -18 3 13 14 19 31 19 24 0 25 2 14 20 -8 12 -19 18 -28
14 -52 -20 -68 -17 -85 16 -22 42 -13 97 18 110 22 9 22 9 1 9 -30 1 -41 18
-58 85 -16 61 -31 86 -50 86 -7 0 -25 14 -42 31 -28 30 -29 30 -11 60 22 39
21 54 -8 109 -82 154 -79 147 -60 190 17 38 17 41 -3 92 -11 29 -23 78 -27
108 -3 30 -11 60 -16 67 -14 16 -7 65 8 71 7 2 17 -8 22 -21 6 -14 14 -28 20
-31 6 -4 15 -25 21 -47 14 -50 31 -41 28 14 -1 39 21 103 79 226 21 46 11 162
-17 198 -11 14 -20 36 -20 48 0 12 -9 48 -21 81 -11 32 -25 77 -31 99 -6 22
-18 48 -26 57 -9 10 -12 27 -8 41 3 14 0 31 -9 43 -14 18 -15 17 -9 -8 5 -22
3 -28 -11 -28 -25 0 -73 37 -90 70 -19 37 -19 50 1 50 11 0 14 6 8 23 -9 31
-56 100 -71 105 -18 5 -16 -32 2 -68 10 -19 11 -31 5 -35 -18 -11 -42 17 -35
42 4 17 -3 32 -30 60 -41 43 -76 124 -57 131 20 6 13 42 -19 99 -27 46 -31 62
-26 98 5 35 2 52 -20 90 -19 35 -28 43 -35 33 -6 -9 -7 -6 -3 10 4 14 1 32 -8
46 -9 12 -18 43 -22 68 -6 40 -4 47 15 61 17 12 28 13 46 5 16 -8 27 -8 36 0
7 5 36 13 63 17 138 19 236 58 257 102 7 15 22 30 33 33 11 3 32 13 47 23 14
10 41 18 60 17 133 -6 174 -2 229 23 34 15 72 43 95 70 52 59 228 157 278 155
24 -1 46 7 70 25 19 15 43 27 53 27 32 1 100 37 129 69 20 22 36 31 59 31 18
0 67 9 110 20 83 21 140 26 149 11 3 -4 -6 -19 -19 -31 -17 -16 -25 -34 -25
-57 0 -37 21 -50 113 -72 72 -17 102 -14 135 14 17 14 46 32 65 40 32 13 37
13 61 -6 35 -28 112 -52 141 -45 63 16 74 79 24 139 -29 35 -30 41 -18 63 7
14 31 44 54 68 40 43 68 94 79 148 7 31 47 46 195 74 48 9 120 26 161 39 41
13 89 26 107 30 44 9 58 28 35 47 -27 24 -76 29 -129 13 -251 -73 -392 -100
-406 -78 -4 6 167 316 379 689 304 537 384 685 382 709 -4 41 -24 42 -81 4z
m-3850 -1295 c-10 -10 -47 26 -47 45 0 11 7 8 27 -11 15 -15 24 -31 20 -34z
m136 -104 c-6 -6 -33 30 -33 44 0 6 9 0 20 -14 10 -14 16 -27 13 -30z m61 -43
c11 -15 17 -29 13 -33 -7 -7 -57 44 -57 58 0 16 23 3 44 -25z m-1384 -1499
c-1 -7 -9 -31 -20 -53 -11 -22 -20 -47 -20 -55 -1 -20 -37 -66 -45 -58 -9 9
20 106 45 146 20 32 40 43 40 20z m2495 -618 c19 -23 30 -93 13 -88 -7 3 -15
15 -16 29 -2 13 -13 32 -24 43 -10 10 -17 25 -14 33 3 8 6 24 7 36 0 18 3 16
11 -8 6 -16 16 -37 23 -45z m-2521 -80 c3 -11 9 -29 12 -40 3 -11 1 -20 -4
-20 -10 0 -32 44 -32 65 0 22 18 18 24 -5z m156 -59 c21 -78 18 -181 -5 -181
-24 0 -35 43 -35 136 0 67 3 84 15 84 8 0 19 -16 25 -39z m2361 3 c9 -16 22
-28 28 -26 18 4 12 -61 -8 -87 -25 -32 -51 -22 -52 21 -6 138 -1 151 32 92z
m-39 -186 c-15 -15 -27 14 -17 40 6 15 8 15 18 -6 7 -16 7 -26 -1 -34z m88
-28 c0 -16 -4 -30 -10 -30 -11 0 -14 43 -3 53 11 12 13 8 13 -23z m-2380 -58
c0 -21 -2 -24 -10 -12 -13 20 -13 53 0 45 6 -3 10 -18 10 -33z m2476 -867 c17
-49 17 -58 2 -53 -7 3 -15 18 -19 34 -4 16 -10 37 -14 48 -6 13 -4 17 4 15 7
-3 19 -23 27 -44z m324 -595 c0 -5 -4 -10 -10 -10 -5 0 -10 5 -10 10 0 6 5 10
10 10 6 0 10 -4 10 -10z"/>
<path d="M3380 8101 c0 -11 5 -23 10 -26 6 -3 10 3 10 14 0 11 -4 23 -10 26
-5 3 -10 -3 -10 -14z"/>
</g>
</svg>
