<?xml version="1.0" standalone="no"?>
<!DOCTYPE svg PUBLIC "-//W3C//DTD SVG 20010904//EN"
 "http://www.w3.org/TR/2001/REC-SVG-20010904/DTD/svg10.dtd">
<svg version="1.0" xmlns="http://www.w3.org/2000/svg"
 width="825.000000pt" height="1280.000000pt" viewBox="0 0 825.000000 1280.000000"
 preserveAspectRatio="xMidYMid meet">
<g transform="translate(0.000000,1280.000000) scale(0.100000,-0.100000)"
fill="#000000" stroke="none">
<path d="M4255 12539 c-59 -11 -141 -45 -192 -80 -55 -38 -175 -150 -168 -157
2 -3 -25 -36 -60 -74 -36 -38 -63 -73 -60 -79 4 -5 2 -8 -4 -7 -8 3 -90 -112
-268 -377 -22 -33 -81 -121 -131 -196 -50 -75 -111 -174 -135 -220 -112 -216
-327 -511 -447 -612 -44 -38 -78 -72 -75 -77 7 -12 -380 -344 -488 -418 -51
-34 -103 -71 -117 -82 -13 -10 -43 -24 -67 -31 -24 -6 -43 -16 -43 -20 0 -5
-10 -9 -22 -10 -17 0 -19 -2 -8 -7 17 -8 19 -20 6 -40 -12 -19 -185 -132 -202
-132 -8 0 -14 -4 -14 -9 0 -12 -181 -121 -346 -208 -68 -36 -122 -68 -120 -70
2 -2 54 21 115 51 61 31 111 54 111 52 0 -13 -303 -180 -430 -237 -80 -35
-113 -56 -70 -45 21 6 22 5 7 -4 -10 -7 -26 -9 -35 -5 -9 3 -13 3 -9 -2 4 -4
-16 -20 -45 -35 l-53 -27 35 -1 c30 0 32 -2 17 -11 -11 -6 -36 -13 -58 -15
-38 -3 -128 -44 -98 -44 8 0 24 7 35 15 22 17 38 20 29 5 -8 -13 -10 -13 91
10 48 11 89 18 92 15 3 -3 -1 -5 -8 -5 -7 0 -11 -2 -8 -5 2 -3 31 4 63 15 72
25 80 25 35 0 -19 -11 -28 -20 -20 -20 8 -1 -16 -17 -55 -35 -69 -33 -68 -49
2 -20 32 14 34 14 22 -1 -7 -8 -38 -29 -68 -44 -69 -36 -54 -39 23 -5 31 14
62 25 69 24 7 0 1 -5 -13 -10 -18 -8 -21 -12 -11 -18 13 -9 -1 -19 -104 -75
-47 -26 5 -10 84 26 79 36 141 59 141 52 0 -2 -21 -18 -47 -34 -49 -31 -51
-36 -9 -20 17 6 26 6 26 -1 0 -5 -8 -13 -17 -16 -9 -4 -24 -14 -34 -24 -9 -9
-33 -23 -53 -30 -20 -7 -36 -19 -36 -27 0 -8 5 -10 13 -6 8 6 8 3 -1 -9 -8 -9
-29 -21 -48 -27 -20 -7 -33 -14 -31 -16 5 -6 110 20 165 40 54 20 54 11 0 -15
-63 -30 -204 -108 -196 -109 4 0 49 18 100 41 128 56 122 54 114 41 -4 -6 23
0 60 14 87 32 94 25 9 -11 -36 -16 -64 -30 -62 -32 7 -6 118 36 213 81 104 49
128 54 34 6 -76 -38 -78 -48 -3 -15 106 47 65 16 -58 -44 -68 -33 -121 -61
-118 -61 4 0 37 11 74 25 37 14 70 24 72 21 3 -3 -18 -19 -46 -36 -28 -18 -51
-36 -51 -41 0 -6 4 -7 10 -4 19 12 144 55 148 51 2 -3 -16 -14 -40 -25 -23
-11 -32 -18 -18 -15 38 9 167 79 345 187 88 53 149 87 135 76 -14 -12 -49 -35
-77 -51 -50 -28 -71 -47 -38 -34 31 12 13 -5 -59 -54 -41 -27 -87 -61 -101
-74 -15 -14 -49 -39 -76 -57 -49 -31 -67 -49 -29 -29 11 6 20 9 20 6 0 -8 361
223 405 258 22 18 66 49 97 69 31 20 101 76 155 124 92 83 95 84 43 27 -30
-34 -77 -80 -105 -102 -53 -42 -122 -105 -96 -86 26 18 41 25 41 20 0 -10
-184 -153 -233 -180 -53 -32 -64 -45 -14 -20 88 46 360 254 412 316 34 40 274
289 259 268 -6 -8 -26 -35 -44 -59 -19 -24 -29 -42 -24 -40 13 5 75 75 184
209 87 106 216 237 231 233 4 -2 44 45 89 102 45 58 83 105 85 105 3 0 2 -8
-2 -17 -3 -10 9 -2 26 17 l33 35 -23 -35 c-13 -19 -71 -101 -130 -182 -59 -80
-124 -170 -145 -200 -54 -77 -175 -218 -288 -335 -54 -57 -94 -103 -90 -103 5
0 43 34 84 75 40 40 77 72 81 69 4 -2 27 20 50 48 24 29 70 80 102 112 32 33
94 102 137 155 43 53 92 112 110 131 53 60 -44 -73 -139 -190 -129 -157 -236
-293 -245 -310 -4 -8 24 19 64 60 l71 75 -108 -144 c-95 -127 -371 -437 -407
-458 -7 -4 -51 -44 -97 -88 -63 -59 -72 -71 -37 -46 26 19 110 98 188 176 77
79 140 141 140 138 0 -2 19 12 43 31 47 40 180 192 318 364 50 61 93 112 96
112 3 0 0 -8 -7 -17 -7 -10 2 -3 18 16 17 19 103 133 191 255 88 121 170 232
182 246 l21 25 -21 -37 c-12 -20 -24 -46 -26 -57 -3 -17 -127 -239 -173 -308
-8 -13 -12 -23 -9 -23 3 0 44 64 92 143 143 232 148 213 13 -43 -40 -74 -91
-172 -114 -216 -23 -45 -66 -124 -96 -175 -147 -252 -206 -373 -114 -234 50
77 25 24 -53 -110 -44 -74 -75 -132 -70 -129 14 8 -74 -154 -144 -266 -74
-118 -146 -254 -117 -220 18 21 21 22 16 5 -5 -17 -3 -16 13 5 11 13 19 31 18
40 0 8 7 27 17 43 21 31 28 35 19 10 -5 -11 -3 -14 6 -8 11 6 11 3 1 -16 -17
-32 -213 -325 -247 -369 l-27 -35 32 29 c40 37 41 27 3 -27 -31 -46 -59 -98
-44 -82 5 6 34 46 63 90 65 99 150 215 157 215 2 0 -5 -16 -17 -35 -12 -19
-19 -35 -17 -35 3 0 31 42 62 93 32 50 72 110 90 132 17 22 49 68 70 103 21
34 40 62 42 62 7 0 -62 -121 -144 -254 -41 -65 -93 -157 -116 -205 -48 -98
-131 -225 -208 -321 -80 -99 -27 -49 68 65 98 117 196 255 323 454 100 156
150 229 150 216 0 -17 -253 -475 -351 -635 -20 -33 -20 -34 -1 -10 58 70 318
509 500 845 51 94 104 184 117 200 31 37 -100 -252 -221 -489 -47 -93 -88
-180 -90 -193 -5 -26 -57 -131 -124 -250 -44 -79 -49 -102 -6 -28 15 25 29 45
32 45 5 0 -79 -165 -153 -300 l-25 -45 34 40 c18 21 43 51 56 65 l23 25 -15
-32 c-20 -40 -20 -44 -1 -37 13 5 13 3 0 -22 -8 -16 -15 -33 -15 -39 1 -5 27
40 58 100 71 136 172 315 178 315 2 0 -7 -22 -21 -50 -27 -54 -29 -60 -16 -60
4 0 32 42 61 93 59 104 79 131 54 72 -9 -22 -18 -51 -21 -65 -2 -14 -13 -44
-23 -67 -10 -24 -17 -43 -14 -43 2 0 55 102 118 228 63 125 115 224 115 219 1
-4 -22 -52 -49 -107 -28 -55 -48 -100 -45 -100 3 0 -7 -26 -21 -57 -14 -32
-27 -70 -29 -84 -2 -14 -15 -51 -29 -83 -14 -32 -26 -61 -25 -65 1 -15 292
597 364 767 10 23 22 42 27 42 5 0 6 4 3 10 -3 5 10 40 29 77 19 37 55 115 80
172 l44 104 11 -39 c21 -77 6 -249 -28 -311 -6 -13 -9 -23 -6 -23 3 0 -5 -21
-18 -47 -14 -27 -27 -77 -31 -113 -4 -36 -15 -83 -25 -106 -10 -22 -21 -61
-25 -87 -5 -31 -14 -50 -27 -57 -11 -6 -19 -21 -19 -37 0 -22 4 -25 25 -21 24
5 25 3 25 -48 0 -46 -4 -57 -31 -84 -32 -31 -32 -32 -26 -111 6 -75 5 -81 -23
-125 -15 -25 -32 -64 -35 -87 -4 -23 -18 -63 -31 -89 -16 -31 -24 -65 -24 -96
0 -40 -6 -57 -31 -88 -30 -38 -31 -41 -25 -111 6 -63 4 -79 -19 -132 -14 -33
-25 -70 -25 -81 0 -11 -12 -30 -26 -43 -47 -41 -55 -69 -81 -307 -3 -30 -12
-59 -19 -63 -18 -11 -18 -49 2 -112 16 -50 16 -52 -14 -140 -17 -50 -33 -106
-37 -125 -9 -45 -42 -102 -100 -174 -50 -61 -65 -98 -65 -159 0 -30 -4 -40
-20 -44 -14 -4 -20 -14 -20 -33 0 -23 4 -27 19 -23 11 3 21 16 24 31 17 93 47
167 82 201 34 33 36 34 30 11 -4 -14 -20 -39 -36 -55 -33 -35 -36 -45 -13 -45
8 0 24 -5 35 -10 18 -10 18 -12 -10 -63 -15 -29 -41 -82 -57 -119 -16 -38 -32
-68 -37 -68 -4 0 -22 7 -39 16 -17 9 -58 25 -92 36 -72 24 -193 82 -221 108
-42 37 -64 43 -101 25 -19 -9 -42 -27 -51 -41 -33 -51 20 -134 86 -134 44 0
218 -57 247 -81 6 -5 35 -16 63 -25 30 -8 65 -28 84 -47 32 -33 134 -113 168
-133 10 -6 30 -23 43 -37 14 -15 36 -27 49 -27 14 0 27 -6 30 -14 9 -24 65
-30 88 -10 10 9 19 23 19 30 0 18 55 27 82 13 51 -27 50 -56 -3 -114 -49 -53
-112 -87 -161 -88 -24 0 -60 13 -105 39 -37 21 -99 48 -136 61 -37 13 -104 41
-148 64 -45 22 -83 38 -85 36 -3 -2 35 -37 82 -78 48 -41 108 -92 134 -115 36
-31 62 -44 111 -55 94 -20 228 -17 261 7 7 6 25 16 40 23 15 8 59 40 99 72 39
33 75 59 79 59 3 0 17 -11 30 -25 13 -14 29 -25 36 -25 6 0 34 -6 60 -14 27
-8 68 -19 92 -26 47 -12 54 -27 19 -35 -28 -7 -57 -53 -57 -90 0 -15 11 -36
26 -50 22 -20 37 -25 81 -25 29 0 70 7 90 15 51 21 59 19 83 -20 21 -34 21
-37 6 -54 -15 -17 -16 -26 -5 -82 15 -73 17 -78 28 -61 6 10 15 10 35 2 50
-19 62 -12 108 58 25 37 53 82 62 100 9 17 18 32 20 32 3 0 42 -20 88 -43 46
-24 97 -48 114 -54 l30 -11 -17 -113 c-21 -134 -25 -481 -8 -624 6 -49 11
-148 12 -220 1 -109 -4 -152 -28 -263 -21 -99 -32 -131 -42 -127 -7 3 -20 8
-28 11 -11 5 -15 -1 -15 -24 0 -16 -12 -51 -26 -76 -22 -40 -25 -55 -20 -97 4
-31 3 -49 -4 -49 -5 0 -10 -8 -10 -18 0 -35 -41 -137 -69 -172 -48 -60 -60
-93 -85 -241 -28 -169 -37 -195 -71 -211 -29 -13 -34 -60 -10 -92 17 -22 20
-67 6 -82 -18 -17 -15 -165 3 -224 10 -30 21 -93 26 -140 4 -47 12 -101 17
-120 6 -20 7 -45 3 -56 -5 -11 -8 -56 -9 -100 0 -43 -5 -103 -11 -133 -5 -29
-10 -87 -10 -127 0 -61 -3 -75 -19 -83 -24 -13 -17 -64 8 -59 12 3 19 26 28
108 17 141 21 156 36 141 19 -19 14 -173 -6 -205 -9 -14 -17 -27 -17 -29 0 -9
37 -46 42 -42 2 2 2 -50 0 -116 -3 -75 0 -143 8 -182 19 -93 21 -196 3 -234
-13 -27 -13 -41 -3 -84 15 -62 7 -119 -20 -139 -18 -13 -20 -29 -24 -135 -3
-86 -10 -136 -25 -179 -27 -76 -27 -99 1 -111 13 -6 28 -20 34 -33 19 -39 56
-72 93 -82 47 -13 183 -13 311 1 85 8 114 7 172 -6 142 -32 394 -66 478 -64
47 1 102 -2 123 -6 31 -6 44 -4 67 14 25 18 33 19 55 9 21 -9 31 -9 46 0 14 9
25 9 39 2 10 -5 21 -6 24 -2 3 5 18 7 35 4 22 -3 30 0 35 16 4 11 19 25 35 32
61 25 61 100 0 100 -17 0 -52 11 -78 24 -25 14 -76 39 -113 57 -37 18 -66 37
-65 43 2 9 -36 32 -210 129 -157 87 -189 107 -205 134 -10 15 -18 31 -18 36 0
13 64 7 130 -13 77 -24 176 -26 204 -5 12 9 42 15 74 15 46 0 58 4 83 29 16
16 29 36 29 44 0 21 -37 50 -54 44 -9 -4 -30 -1 -48 5 -55 19 -277 146 -347
198 -104 77 -117 95 -125 170 -5 52 -10 68 -28 80 -12 8 -34 25 -47 36 l-26
22 17 51 c9 29 12 53 7 57 -5 3 -12 -2 -15 -10 -11 -29 -21 -16 -27 35 -5 44
-2 58 23 102 30 54 42 151 25 191 -5 11 -4 25 3 35 35 48 36 59 12 129 -29 80
-30 176 -5 292 9 41 18 91 21 110 3 19 8 42 11 50 3 8 7 44 10 80 2 36 10 85
18 110 10 31 13 69 9 126 -4 62 -1 90 12 125 9 24 18 60 19 80 1 20 5 41 9 48
4 6 5 15 2 20 -3 5 6 16 20 26 27 18 84 132 84 169 0 13 15 43 34 67 18 24 45
67 59 96 15 28 31 54 37 58 10 6 60 105 60 118 0 4 -13 13 -29 21 l-29 15 38
118 c21 65 64 183 96 263 31 80 115 316 185 525 70 209 153 452 184 540 31 87
67 199 80 248 13 49 25 91 28 93 6 7 330 -57 341 -67 6 -5 -14 -54 -47 -119
-64 -124 -109 -237 -127 -319 -16 -68 -7 -306 15 -406 8 -38 19 -97 24 -130
36 -243 119 -366 426 -625 83 -70 173 -148 200 -172 l50 -46 -1 -118 c-1 -144
-19 -222 -105 -441 -32 -83 -56 -158 -53 -166 6 -16 66 -27 148 -27 46 0 131
-11 316 -40 55 -8 163 -38 208 -57 9 -4 9 4 -3 29 -8 18 -36 92 -62 163 -78
216 -220 472 -349 631 -24 30 -60 78 -78 107 -61 94 -198 249 -285 321 -212
175 -331 327 -367 466 -21 82 -14 251 16 392 62 295 158 555 200 543 27 -7
200 -15 615 -30 679 -24 709 -26 750 -30 50 -6 26 10 -30 19 -22 4 -301 63
-620 131 -319 68 -615 130 -659 137 -76 13 -78 14 -90 48 -16 46 -78 129 -159
211 -69 70 -110 139 -126 211 -11 47 -44 364 -61 573 -15 190 -28 258 -56 296
-29 40 -41 94 -24 114 7 8 27 17 46 21 19 3 36 10 39 14 10 17 -14 20 -65 8
-46 -11 -55 -16 -68 -48 l-15 -35 -17 40 c-10 22 -14 44 -10 48 4 5 38 11 76
15 38 4 69 12 69 17 0 6 -36 11 -82 13 l-83 3 0 32 c0 62 -32 211 -71 335 -25
78 -51 196 -71 317 l-32 193 28 99 c16 57 30 135 33 189 l6 90 66 17 c37 10
85 30 108 45 43 28 106 103 123 144 l9 23 0 -23 c1 -13 5 -21 10 -17 5 3 13 0
16 -5 5 -7 12 -5 21 7 13 17 13 17 14 0 0 -11 5 -15 11 -11 26 16 -20 248 -66
331 -36 65 -72 94 -148 119 -70 22 -202 99 -221 130 -9 13 -41 38 -71 55 -30
17 -67 46 -82 66 -15 19 -48 54 -73 76 -83 77 -121 121 -126 147 -12 56 -29
82 -70 112 -24 17 -44 35 -44 39 0 5 -29 42 -65 83 -36 41 -65 77 -65 81 0 13
96 108 118 116 16 6 31 3 55 -11 54 -33 91 -27 129 22 18 24 57 65 87 93 146
135 299 297 324 342 43 80 126 310 138 383 9 50 9 93 0 166 -23 194 -51 256
-175 391 -140 152 -262 340 -320 495 -20 52 -53 178 -82 306 -2 13 -9 20 -16
16 -10 -7 -3 -235 9 -273 3 -10 -2 -7 -14 7 -10 12 -26 48 -36 80 -10 31 -37
95 -60 142 -32 65 -47 86 -64 88 -16 2 -25 12 -28 30 -23 111 -62 164 -132
177 -21 4 -63 17 -93 30 -67 27 -112 34 -165 24z m254 -555 c25 -18 25 -25 0
-133 -9 -42 -10 -58 0 -73 10 -16 7 -26 -24 -69 -20 -27 -41 -49 -47 -49 -14
0 -105 -94 -159 -165 -100 -131 -197 -316 -305 -582 -29 -73 -59 -142 -66
-153 -9 -14 -9 -23 -2 -30 16 -16 66 50 135 182 67 124 199 341 206 334 2 -2
-14 -40 -36 -83 -58 -117 -75 -182 -72 -290 2 -84 0 -92 -15 -86 -12 5 -15 3
-9 -6 6 -10 2 -11 -16 -7 -23 7 -23 6 4 -14 15 -12 27 -27 27 -33 0 -7 13 -19
29 -29 20 -11 34 -30 42 -57 10 -32 15 -39 26 -30 21 18 17 -34 -8 -91 -18
-42 -25 -49 -52 -52 -24 -2 -31 -7 -29 -20 1 -10 -16 -41 -39 -70 -22 -29 -56
-83 -75 -121 -41 -81 -188 -300 -251 -373 -39 -46 -51 -54 -109 -68 -37 -9
-83 -26 -104 -36 l-38 -19 41 93 c23 51 44 90 47 85 3 -5 23 44 44 109 21 64
47 135 57 157 11 22 30 80 43 129 27 98 36 113 37 70 1 -16 7 5 14 46 18 103
82 347 100 379 16 29 64 214 100 391 28 136 33 151 78 221 18 30 50 88 71 128
20 41 49 91 63 110 15 19 46 82 70 140 56 136 66 153 95 168 33 18 99 16 127
-3z m-1759 -1309 c-7 -8 -18 -15 -24 -15 -6 0 -2 7 8 15 25 19 32 19 16 0z
m-220 -1169 c0 -2 -8 -10 -17 -17 -16 -13 -17 -12 -4 4 13 16 21 21 21 13z
m-360 -169 c0 -2 -10 -12 -22 -23 l-23 -19 19 23 c18 21 26 27 26 19z m-120
-92 c-13 -14 -28 -25 -34 -25 -6 1 3 12 19 25 39 32 45 32 15 0z m-160 1 c0
-2 -8 -10 -17 -17 -16 -13 -17 -12 -4 4 13 16 21 21 21 13z m470 -80 c0 -2 -8
-10 -17 -17 -16 -13 -17 -12 -4 4 13 16 21 21 21 13z m900 -567 c0 -49 -41
-109 -74 -109 -6 0 16 62 39 112 21 42 35 41 35 -3z m-868 -81 c-7 -7 -12 -8
-12 -2 0 14 12 26 19 19 2 -3 -1 -11 -7 -17z m1345 -180 c-3 -8 -6 -5 -6 6 -1
11 2 17 5 13 3 -3 4 -12 1 -19z m2 -173 c1 -38 -4 -155 -10 -260 -9 -164 -13
-193 -30 -210 -27 -30 -35 -78 -15 -94 23 -19 24 -352 1 -371 -21 -17 -19 -46
4 -62 24 -17 35 -112 15 -129 -20 -16 -17 -46 6 -79 21 -30 33 -103 48 -292 5
-65 4 -99 -3 -102 -6 -2 -6 -11 3 -25 14 -25 16 -137 2 -146 -20 -12 -57 -101
-70 -165 -7 -36 -28 -113 -47 -172 l-35 -107 -77 4 c-93 5 -215 22 -259 36
-18 6 -38 9 -45 6 -6 -2 -25 7 -40 19 -31 26 -82 32 -90 12 -6 -18 -13 -9 -41
54 l-25 57 26 3 c14 2 32 13 40 25 13 19 12 23 -5 40 -29 28 -33 51 -17 90 14
32 14 39 0 59 -19 30 -19 48 1 65 12 9 15 24 11 51 -4 27 2 52 22 95 15 32 30
84 34 115 3 35 12 65 23 75 25 26 44 77 44 123 0 26 10 59 29 93 37 65 57 127
82 242 17 84 22 93 63 130 35 32 45 49 50 85 4 24 16 65 27 89 11 25 23 80 26
122 5 68 9 79 39 112 19 20 36 37 39 37 11 0 -9 -117 -26 -155 -12 -26 -15
-43 -8 -50 12 -12 31 14 24 34 -3 7 0 20 6 28 16 19 21 138 8 187 -6 21 -7 42
-2 45 4 3 14 23 22 44 7 22 26 59 43 83 24 36 29 54 28 92 -5 94 -3 128 8 155
l12 28 29 -23 c28 -21 30 -28 30 -93z m-1479 74 c-7 -11 -14 -18 -17 -15 -3 3
0 12 7 21 18 21 23 19 10 -6z m1955 -365 c79 -134 106 -209 115 -329 5 -55 6
-103 4 -107 -2 -4 -18 -2 -35 4 -23 8 -42 7 -71 -1 -47 -15 -55 -10 -40 24 10
22 8 33 -12 73 -13 26 -35 57 -48 70 l-24 22 13 103 c20 150 34 237 38 237 2
0 29 -43 60 -96z m-1722 21 c-3 -9 -8 -14 -10 -11 -3 3 -2 9 2 15 9 16 15 13
8 -4z m1637 -411 c0 -11 -7 -29 -15 -40 -13 -17 -14 -13 -14 46 0 61 1 64 14
40 8 -14 14 -34 15 -46z m160 -92 c0 -8 -120 -5 -129 3 -2 3 26 5 62 5 37 0
67 -4 67 -8z m-41 -33 c42 -6 78 -13 80 -15 8 -8 -20 -128 -32 -140 -11 -11
-107 -36 -107 -28 0 1 4 14 10 28 12 31 -3 35 -23 5 -14 -19 -15 -19 -21 15
-11 56 -23 51 -30 -12 -4 -31 -13 -68 -21 -82 -13 -22 -14 -14 -8 80 6 114 30
177 61 165 8 -3 50 -10 91 -16z m-122 -353 c-9 -13 -19 -39 -22 -59 -9 -48
-25 -37 -25 17 0 53 37 110 52 81 7 -11 5 -23 -5 -39z m1390 -511 c4 -13 2
-17 -4 -10 -15 16 -52 116 -58 160 -4 28 4 15 25 -45 17 -47 33 -94 37 -105z
m-1 -280 c30 -152 83 -330 124 -422 17 -36 30 -69 30 -72 0 -6 -188 3 -194 10
-1 2 0 29 3 59 3 30 3 109 -1 175 -16 299 -20 444 -13 461 6 15 10 7 17 -31 4
-27 20 -108 34 -180z m-2236 -374 c66 -1 193 -16 236 -28 27 -7 39 -22 83
-107 48 -92 50 -100 34 -112 -10 -7 -21 -14 -24 -14 -9 0 -138 54 -174 73 -49
26 -165 68 -173 63 -5 -3 -16 4 -25 15 -9 10 -23 19 -30 19 -8 0 -22 9 -32 20
-14 15 -22 17 -37 9 -23 -12 -61 -2 -54 14 3 7 9 20 12 29 4 12 14 16 33 12
15 -3 34 1 46 9 12 9 26 12 35 7 8 -4 40 -8 70 -9z m796 -216 c9 -8 29 -15 45
-15 28 0 29 -1 29 -52 0 -29 -3 -64 -7 -76 -5 -21 -10 -23 -42 -17 -20 3 -57
13 -82 21 l-46 15 15 64 c14 56 19 65 41 68 14 2 27 5 29 6 2 0 10 -6 18 -14z
m352 -3718 c2 -20 -1 -45 -7 -54 -9 -16 -11 -15 -12 7 -1 14 -3 40 -5 58 -3
24 0 32 9 30 6 -3 13 -21 15 -41z m-613 -145 c-12 -31 -25 3 -15 38 6 19 11
51 12 70 1 19 3 6 5 -29 2 -35 1 -71 -2 -79z"/>
<path d="M3781 10344 c0 -11 3 -14 6 -6 3 7 2 16 -1 19 -3 4 -6 -2 -5 -13z"/>
<path d="M3637 9933 c-21 -53 -36 -98 -34 -100 2 -2 21 40 42 92 21 52 36 97
34 100 -3 3 -22 -39 -42 -92z"/>
<path d="M2925 10093 l-17 -28 23 22 c12 12 20 25 17 28 -3 3 -13 -7 -23 -22z"/>
<path d="M2884 10038 l-19 -23 23 19 c21 18 27 26 19 26 -2 0 -12 -10 -23 -22z"/>
<path d="M2849 9993 c-13 -16 -12 -17 4 -4 9 7 17 15 17 17 0 8 -8 3 -21 -13z"/>
<path d="M2761 9917 c-13 -21 -12 -21 5 -5 10 10 16 20 13 22 -3 3 -11 -5 -18
-17z"/>
<path d="M2765 9879 c-20 -28 -32 -48 -26 -45 12 8 74 96 67 96 -2 0 -21 -23
-41 -51z"/>
<path d="M2729 9873 c-13 -16 -12 -17 4 -4 9 7 17 15 17 17 0 8 -8 3 -21 -13z"/>
<path d="M2639 9713 c-13 -16 -12 -17 4 -4 9 7 17 15 17 17 0 8 -8 3 -21 -13z"/>
<path d="M2599 9663 c-13 -16 -12 -17 4 -4 9 7 17 15 17 17 0 8 -8 3 -21 -13z"/>
<path d="M2529 9583 c-13 -16 -12 -17 4 -4 9 7 17 15 17 17 0 8 -8 3 -21 -13z"/>
<path d="M2474 9438 l-19 -23 23 19 c12 11 22 21 22 23 0 8 -8 2 -26 -19z"/>
<path d="M2489 9383 c-13 -16 -12 -17 4 -4 16 13 21 21 13 21 -2 0 -10 -8 -17
-17z"/>
<path d="M2334 9298 l-29 -33 33 29 c17 17 32 31 32 33 0 8 -8 1 -36 -29z"/>
<path d="M2245 9248 l-50 -53 53 50 c48 46 57 55 49 55 -1 0 -25 -24 -52 -52z"/>
<path d="M1919 9163 c-13 -16 -12 -17 4 -4 9 7 17 15 17 17 0 8 -8 3 -21 -13z"/>
<path d="M1874 9134 c-18 -14 -18 -15 4 -4 12 6 22 13 22 15 0 8 -5 6 -26 -11z"/>
<path d="M1675 9100 c-3 -6 1 -7 9 -4 18 7 21 14 7 14 -6 0 -13 -4 -16 -10z"/>
<path d="M955 8929 c-22 -10 -29 -16 -15 -13 28 7 80 33 65 33 -5 0 -28 -9
-50 -20z"/>
<path d="M1171 8879 c-35 -16 -62 -32 -59 -34 3 -3 38 10 79 30 40 19 67 35
59 34 -8 0 -44 -14 -79 -30z"/>
<path d="M990 8810 c-8 -5 -10 -10 -5 -10 6 0 17 5 25 10 8 5 11 10 5 10 -5 0
-17 -5 -25 -10z"/>
<path d="M1859 8713 l-24 -28 28 24 c25 23 32 31 24 31 -2 0 -14 -12 -28 -27z"/>
<path d="M1804 8668 l-19 -23 23 19 c21 18 27 26 19 26 -2 0 -12 -10 -23 -22z"/>
<path d="M2420 8558 c-12 -22 -12 -22 6 -6 10 10 15 20 12 24 -4 3 -12 -5 -18
-18z"/>
</g>
</svg>
