<?xml version="1.0" standalone="no"?>
<!DOCTYPE svg PUBLIC "-//W3C//DTD SVG 20010904//EN"
 "http://www.w3.org/TR/2001/REC-SVG-20010904/DTD/svg10.dtd">
<svg version="1.0" xmlns="http://www.w3.org/2000/svg"
 width="1280.000000pt" height="1175.000000pt" viewBox="0 0 1280.000000 1175.000000"
 preserveAspectRatio="xMidYMid meet">
<g transform="translate(0.000000,1175.000000) scale(0.100000,-0.100000)"
fill="#000000" stroke="none">
<path d="M2955 11421 c-76 -10 -107 -26 -175 -96 -30 -31 -85 -86 -122 -123
-36 -37 -71 -77 -77 -89 -14 -27 -14 -100 -1 -105 11 -4 30 -95 30 -147 0 -47
-26 -113 -70 -181 -30 -46 -36 -65 -38 -114 -1 -33 -6 -64 -11 -69 -6 -6 -7
-22 -5 -37 5 -22 0 -31 -23 -48 -15 -12 -39 -29 -52 -39 -30 -22 -81 -75 -81
-84 0 -3 19 -6 43 -5 77 1 80 -2 72 -102 -4 -48 -7 -103 -8 -122 -1 -20 -18
-65 -37 -100 -27 -52 -35 -76 -35 -120 l0 -55 -61 -20 c-106 -35 -173 -94
-228 -203 -46 -92 -53 -139 -54 -390 -1 -128 -4 -237 -7 -243 -11 -17 -35 11
-35 39 0 20 -3 23 -12 14 -19 -19 -34 -14 -46 13 -16 35 -15 45 6 46 14 0 14
2 -3 9 -32 14 -33 12 -37 -35 -2 -32 1 -45 10 -45 27 0 24 -32 -8 -71 -24 -30
-30 -46 -26 -65 4 -13 11 -24 17 -24 18 0 99 -74 99 -91 0 -9 -6 -22 -14 -28
-8 -7 -17 -29 -21 -50 -8 -48 -40 -102 -66 -108 -21 -6 -26 -23 -7 -23 6 0 0
-12 -13 -27 -53 -58 -53 -162 1 -235 22 -30 26 -53 10 -63 -5 -3 -10 -17 -10
-29 0 -13 -14 -63 -31 -112 -27 -77 -38 -95 -82 -134 -28 -25 -68 -55 -90 -68
l-39 -22 -24 25 c-37 40 -55 24 -48 -41 6 -45 4 -55 -10 -60 -10 -4 -25 1 -37
11 -12 12 -37 19 -69 20 -49 2 -50 1 -50 -28 0 -16 5 -46 11 -66 10 -32 8 -41
-13 -73 -23 -36 -46 -50 -102 -63 -38 -8 -28 -15 29 -21 36 -3 53 0 66 12 17
15 19 15 25 1 8 -21 -29 -68 -82 -107 -24 -17 -44 -36 -44 -41 0 -6 44 24 99
65 94 73 121 87 121 66 0 -12 -61 -71 -122 -118 -29 -22 -51 -47 -54 -62 -12
-61 -21 -76 -60 -97 -22 -13 -49 -24 -60 -26 -11 -1 -31 -12 -43 -24 -13 -12
-53 -38 -90 -57 -36 -19 -86 -53 -111 -76 -25 -23 -68 -60 -97 -81 -28 -21
-55 -44 -59 -50 -8 -14 16 -31 37 -25 34 8 39 -7 27 -72 -11 -58 -10 -66 16
-132 15 -38 32 -70 37 -70 21 0 31 42 19 90 -12 52 0 119 27 141 11 9 13 0 13
-49 0 -113 16 -161 74 -217 l51 -50 5 50 5 50 65 -4 65 -3 -24 25 c-12 14 -39
29 -59 34 -24 6 -42 18 -52 35 -27 50 -13 52 212 38 112 -8 258 -14 325 -14
122 -1 122 -1 152 28 18 17 38 53 48 83 11 36 34 73 68 111 74 82 115 142 115
168 0 29 -18 41 -26 17 -3 -10 -10 -26 -15 -35 -5 -10 -9 -27 -9 -37 0 -11 -6
-24 -13 -28 -19 -12 -117 -126 -117 -136 0 -4 -12 -25 -27 -44 -16 -20 -27
-38 -25 -40 16 -21 -43 -54 -113 -61 -64 -7 -162 -4 -220 7 -26 5 -64 5 -89
-1 -34 -7 -53 -6 -81 7 -27 11 -53 13 -86 9 -40 -5 -50 -4 -55 10 -8 20 22 56
46 56 10 0 20 6 23 13 2 7 30 25 60 41 30 15 63 36 73 47 9 11 36 22 58 26 23
3 35 8 28 11 -20 6 -14 19 31 61 37 36 48 41 91 41 41 0 47 -2 42 -17 -6 -16
-6 -16 12 0 10 9 22 17 26 17 4 0 33 26 65 58 32 31 78 74 102 95 89 76 206
185 314 292 144 143 159 173 220 449 47 210 87 361 99 373 3 3 8 4 11 1 15
-14 48 -176 54 -260 5 -70 12 -102 24 -116 28 -30 40 -126 35 -272 -6 -155
-16 -186 -92 -285 -25 -33 -60 -79 -77 -101 -35 -45 -78 -155 -140 -354 -100
-319 -119 -428 -126 -715 -7 -279 3 -349 102 -725 41 -157 75 -298 75 -314 0
-15 7 -55 15 -87 9 -33 15 -65 14 -72 -1 -7 1 -19 4 -27 11 -27 27 -95 27
-114 0 -14 -5 -17 -22 -13 -27 8 -58 -9 -58 -31 0 -10 -7 -27 -15 -39 -23 -33
-9 -71 50 -133 66 -68 90 -118 82 -167 -4 -20 -11 -40 -18 -43 -19 -13 -1 -63
64 -172 56 -95 62 -111 77 -207 11 -69 14 -117 9 -145 -5 -22 -18 -92 -29
-154 -12 -67 -34 -147 -55 -199 -20 -47 -33 -89 -28 -92 4 -3 8 -76 8 -162 0
-133 3 -160 17 -176 36 -40 41 -124 11 -203 -15 -38 7 -142 52 -248 40 -94 55
-112 55 -67 0 29 15 33 29 7 15 -28 132 -461 136 -503 4 -42 1 -44 -62 -40
-31 2 -33 1 -33 -31 1 -31 59 -158 60 -130 0 19 48 64 60 57 6 -3 10 -20 10
-36 0 -16 11 -46 25 -67 20 -31 28 -65 45 -197 12 -88 21 -194 20 -235 -1 -79
3 -129 20 -220 12 -63 8 -233 -8 -365 -8 -61 -9 -153 -3 -285 9 -198 21 -262
60 -320 9 -14 22 -37 28 -52 18 -40 109 -71 193 -65 73 5 170 45 229 95 l34
28 1 160 c1 122 -3 179 -18 244 -10 47 -20 103 -22 125 -2 22 -10 67 -18 100
-30 124 -43 194 -38 200 19 19 52 -21 52 -64 0 -11 6 -21 14 -24 9 -4 23 -45
36 -104 31 -142 49 -193 79 -235 67 -91 199 -170 356 -213 96 -27 189 -33 201
-13 4 7 7 46 7 87 0 90 -29 202 -78 309 -19 41 -35 83 -35 93 0 10 -4 21 -10
24 -5 3 -24 36 -42 73 -30 64 -59 110 -120 191 -90 120 -168 280 -193 396 -24
114 -30 324 -11 440 31 192 50 285 59 285 5 0 21 -9 35 -21 25 -19 27 -20 40
-2 17 23 26 62 17 71 -11 11 -126 4 -142 -9 -33 -28 -33 9 1 277 19 148 39
287 45 309 6 22 15 105 21 185 6 80 15 177 20 215 5 39 10 142 11 230 1 171 4
199 43 400 26 141 40 194 81 325 14 47 30 110 35 140 4 30 18 82 30 115 12 33
28 92 35 131 8 39 23 95 34 125 12 30 21 65 21 79 1 40 37 109 62 119 22 9 22
9 3 17 -11 4 -28 16 -38 25 -16 15 -17 21 -6 41 7 12 13 50 14 83 1 33 23 146
49 252 74 308 79 350 72 563 -3 102 -12 246 -19 320 -7 74 -11 141 -9 148 6
17 216 14 240 -4 9 -7 29 -14 44 -14 30 0 93 -24 361 -135 104 -43 191 -84
194 -92 3 -8 -5 -36 -17 -63 -34 -72 -12 -102 45 -64 23 15 26 15 54 -8 18
-13 30 -33 30 -47 1 -18 5 -21 18 -15 23 11 135 6 147 -7 6 -5 22 -9 37 -9 44
0 97 -28 114 -59 12 -24 13 -43 5 -109 -10 -79 -10 -82 24 -174 19 -51 47
-131 62 -178 73 -232 227 -444 389 -535 37 -20 69 -35 71 -32 2 2 -25 37 -62
78 -76 85 -110 140 -136 217 -22 67 -24 179 -3 229 10 23 15 70 16 132 0 102
13 157 41 175 26 16 141 -8 238 -49 105 -45 185 -102 279 -199 40 -42 81 -76
91 -76 9 0 88 -5 176 -11 l159 -11 765 -303 c745 -295 785 -312 1550 -668 731
-339 825 -380 1373 -596 l587 -231 791 -225 c435 -124 794 -225 797 -225 17 0
-69 48 -764 429 l-751 412 -477 204 c-491 211 -886 365 -1555 604 -432 155
-1796 707 -2090 846 -175 82 -193 93 -349 217 l-163 130 -72 -7 c-161 -17
-253 -1 -350 57 -81 49 -118 80 -148 121 -24 34 -27 44 -22 93 5 45 3 57 -12
67 -16 12 -16 18 0 103 9 49 16 124 16 166 -2 140 52 203 194 222 104 15 108
26 14 46 -132 28 -264 -30 -395 -172 -59 -65 -108 -156 -159 -293 -45 -121
-50 -127 -84 -118 -33 8 -38 15 -46 72 -12 82 -36 154 -86 254 -36 71 -47 105
-43 123 5 18 3 23 -8 19 -9 -4 -19 5 -27 22 -7 15 -17 35 -22 43 -5 8 -16 31
-25 50 -70 153 -70 148 -20 174 28 14 31 13 60 -11 l31 -26 3 22 c4 26 -70
181 -99 206 -10 10 -19 22 -19 28 0 5 -8 21 -19 35 -29 42 -131 229 -131 242
0 15 -93 201 -137 272 -19 32 -48 94 -64 138 -16 44 -44 111 -63 148 -18 37
-42 101 -51 142 -10 41 -29 96 -42 122 -12 26 -23 58 -23 71 0 13 -7 32 -15
43 -8 10 -15 34 -15 52 0 18 -9 50 -20 72 -11 22 -20 49 -20 61 0 23 -5 44
-34 137 -10 29 -35 177 -56 330 -52 369 -57 393 -87 470 -38 96 -126 182 -209
205 -33 9 -79 17 -102 17 -42 0 -42 0 -42 38 0 42 -18 73 -80 138 l-43 45 11
52 c7 29 13 61 14 72 2 12 12 21 25 23 22 3 22 4 5 30 -9 15 -22 32 -28 37 -6
6 -32 47 -58 93 -37 66 -47 93 -50 138 -3 55 -10 69 -85 165 -19 24 -21 43
-24 185 -3 165 -2 158 -54 259 -31 59 -87 125 -97 115 -20 -20 -36 -10 -36 24
0 39 -20 52 -51 33 -17 -10 -22 -9 -34 6 -7 10 -11 27 -8 37 7 25 -12 26 -26
3 -10 -17 -12 -17 -28 3 -15 18 -33 23 -98 28 -161 13 -201 14 -260 7z m865
-1201 c0 -11 -4 -20 -10 -20 -5 0 -10 9 -10 20 0 11 5 20 10 20 6 0 10 -9 10
-20z m-4 -77 c-11 -11 -19 6 -11 24 8 17 8 17 12 0 3 -10 2 -21 -1 -24z m19
-125 c-4 -102 -15 -132 -57 -158 -36 -22 -59 -19 -126 13 -41 20 -43 24 -37
52 4 16 9 48 12 70 5 37 31 75 51 75 5 0 15 -12 22 -26 11 -20 19 -24 38 -19
16 4 31 0 43 -11 20 -18 17 -23 34 61 3 14 10 25 15 25 5 0 8 -35 5 -82z
m-1253 52 c19 -14 27 -32 31 -70 6 -50 17 -80 48 -128 19 -31 4 -51 -52 -69
l-46 -15 -52 37 c-58 42 -65 60 -59 145 4 61 23 94 63 111 31 12 40 11 67 -11z
m1308 -70 c0 -5 -2 -10 -4 -10 -3 0 -8 5 -11 10 -3 6 -1 10 4 10 6 0 11 -4 11
-10z m-1134 -35 c18 -43 18 -69 0 -84 -27 -22 -81 54 -69 98 9 36 51 28 69
-14z m-789 -1137 c-3 -7 -5 -2 -5 12 0 14 2 19 5 13 2 -7 2 -19 0 -25z m2200
-651 c18 -18 99 -213 128 -309 69 -225 89 -277 165 -434 46 -93 109 -236 141
-319 32 -82 78 -199 103 -260 25 -60 45 -117 46 -126 0 -8 -13 -28 -29 -43
-17 -16 -31 -40 -33 -55 -2 -17 -12 -29 -30 -35 -22 -8 -45 -2 -128 34 -56 23
-104 49 -107 56 -3 8 -14 14 -25 14 -19 0 -53 29 -135 113 -51 53 -92 52 -145
-4 -21 -22 -42 -38 -47 -35 -12 8 -24 110 -22 191 1 48 -4 88 -19 129 -11 33
-20 85 -20 116 0 41 -8 74 -26 114 -23 51 -26 70 -26 164 1 63 9 151 21 214
11 59 23 142 26 185 5 54 13 87 27 107 18 26 20 38 13 118 l-7 91 59 -8 c32
-3 63 -12 70 -18z m947 -925 c37 -98 36 -104 -4 -124 -19 -10 -38 -14 -42 -10
-10 10 -58 151 -58 169 0 14 59 45 72 37 3 -2 18 -34 32 -72z m-148 -563 c11
-22 14 -45 10 -73 -3 -22 -9 -65 -12 -94 -4 -29 -10 -54 -14 -57 -8 -5 -156
52 -177 68 -21 16 -15 52 17 95 24 34 36 42 61 42 21 0 37 8 51 25 26 33 44
32 64 -6z m-1884 -834 c-2 -118 1 -200 12 -269 16 -102 15 -116 -9 -116 -20 0
-24 23 -29 205 -2 97 -11 188 -20 230 -33 140 -34 127 10 123 l39 -3 -3 -170z
m19 -418 c-1 -12 -15 -9 -19 4 -3 6 1 10 8 8 6 -3 11 -8 11 -12z m4 -117 c-4
-23 -9 -39 -13 -36 -3 3 -6 29 -8 57 -2 46 -1 50 13 36 11 -11 13 -25 8 -57z
m-585 -1640 c0 -5 -2 -10 -4 -10 -3 0 -8 5 -11 10 -3 6 -1 10 4 10 6 0 11 -4
11 -10z"/>
<path d="M1816 8875 c-3 -9 -6 -22 -5 -28 0 -7 5 -1 10 12 5 13 8 26 5 28 -2
2 -6 -3 -10 -12z"/>
<path d="M1727 8544 c-11 -11 3 -24 18 -18 8 4 12 10 9 15 -6 11 -18 12 -27 3z"/>
<path d="M1600 8146 c0 -2 7 -9 15 -16 9 -7 15 -8 15 -2 0 5 -7 12 -15 16 -8
3 -15 4 -15 2z"/>
<path d="M1680 8060 c0 -19 26 -34 41 -24 18 11 9 32 -16 36 -19 4 -25 1 -25
-12z"/>
<path d="M1579 7940 c7 -38 26 -40 26 -3 0 18 -6 29 -16 31 -14 2 -16 -3 -10
-28z"/>
<path d="M1394 7866 c-10 -8 -16 -18 -12 -22 5 -4 17 1 27 10 15 14 30 17 63
12 30 -4 37 -3 23 3 -30 14 -79 13 -101 -3z"/>
<path d="M1120 7401 c0 -16 -6 -32 -12 -34 -15 -6 31 -48 46 -44 15 5 58 77
45 77 -5 0 -19 -5 -30 -10 -16 -9 -21 -7 -29 15 -13 33 -20 32 -20 -4z"/>
<path d="M947 7130 c-3 -11 -2 -20 3 -20 4 0 10 9 13 20 3 11 2 20 -3 20 -4 0
-10 -9 -13 -20z"/>
<path d="M1830 7099 c0 -5 5 -7 10 -4 6 3 10 8 10 11 0 2 -4 4 -10 4 -5 0 -10
-5 -10 -11z"/>
<path d="M4055 5182 l-30 -17 33 -3 c48 -5 68 4 52 23 -15 18 -18 18 -55 -3z"/>
<path d="M2206 5017 c-34 -11 -37 -14 -23 -25 10 -8 17 -9 22 -3 3 6 28 13 55
17 28 4 50 10 50 15 0 12 -57 10 -104 -4z"/>
</g>
</svg>
