<?xml version="1.0" standalone="no"?>
<!DOCTYPE svg PUBLIC "-//W3C//DTD SVG 20010904//EN"
 "http://www.w3.org/TR/2001/REC-SVG-20010904/DTD/svg10.dtd">
<svg version="1.0" xmlns="http://www.w3.org/2000/svg"
 width="966.000000pt" height="1280.000000pt" viewBox="0 0 966.000000 1280.000000"
 preserveAspectRatio="xMidYMid meet">
<g transform="translate(0.000000,1280.000000) scale(0.100000,-0.100000)"
fill="#000000" stroke="none">
<path d="M6052 12473 c14 -2 31 -10 37 -17 9 -10 -8 -10 -76 2 -78 14 -94 14
-167 0 -45 -9 -94 -14 -111 -12 -18 3 -38 -1 -50 -10 -20 -15 -20 -15 3 -16
12 0 22 -3 22 -7 0 -4 -10 -18 -22 -32 -13 -14 -16 -20 -7 -13 12 9 20 9 34
-2 17 -12 13 -16 -48 -45 -74 -35 -191 -127 -182 -142 4 -5 0 -12 -9 -15 -8
-3 -12 -12 -9 -20 3 -9 -5 -18 -23 -25 -39 -14 -65 -39 -57 -53 17 -26 11 -58
-22 -124 -39 -79 -42 -91 -19 -71 9 7 5 -4 -9 -24 -14 -21 -24 -44 -21 -50 2
-7 -15 -51 -39 -97 -24 -47 -52 -117 -62 -155 -9 -39 -24 -83 -32 -99 -8 -15
-10 -25 -4 -21 6 3 21 24 32 47 28 55 36 41 10 -19 -20 -45 -20 -46 -2 -23 42
53 33 5 -16 -88 -28 -53 -59 -122 -68 -152 -18 -62 -38 -102 -76 -157 -15 -21
-30 -49 -34 -63 -5 -18 2 -12 29 22 20 26 42 51 49 55 7 4 23 23 36 41 13 18
25 31 27 29 5 -5 -21 -69 -32 -80 -4 -4 -9 -15 -9 -25 -1 -9 -5 -39 -8 -67 -5
-35 -4 -42 2 -23 5 15 16 37 25 50 9 12 16 30 16 38 0 9 11 27 25 40 30 28 31
22 6 -31 -11 -21 -16 -37 -12 -35 4 3 5 -24 3 -60 -3 -45 0 -69 9 -81 12 -14
12 -15 0 -9 -10 7 -12 2 -6 -23 4 -20 2 -37 -6 -47 -6 -8 -9 -17 -6 -21 4 -3
12 6 18 21 7 14 16 26 21 26 5 0 7 4 4 9 -3 4 3 16 14 26 19 17 19 17 15 -5
-2 -13 -16 -40 -30 -62 -14 -21 -20 -38 -14 -38 5 0 1 -13 -10 -28 -19 -27
-19 -28 -2 -27 10 1 30 14 44 31 14 16 29 25 33 21 11 -11 -24 -74 -57 -102
-16 -12 -25 -26 -21 -30 4 -3 -1 -11 -11 -16 -9 -6 -17 -16 -17 -24 0 -8 -12
-21 -27 -29 -22 -12 -24 -15 -9 -16 17 0 17 -2 3 -24 -15 -22 -15 -24 1 -21 9
1 15 9 14 16 -2 8 0 11 4 6 4 -4 16 0 26 10 10 9 18 11 18 6 0 -6 -7 -16 -15
-23 -8 -7 -15 -20 -15 -29 0 -9 -4 -21 -9 -27 -5 -5 -16 -26 -25 -48 -14 -33
-14 -37 -1 -26 8 7 15 9 15 5 0 -5 9 0 20 10 12 10 18 25 16 32 -3 7 0 15 6
19 7 5 8 2 3 -7 -4 -8 6 2 23 21 17 19 31 38 32 43 0 4 5 7 10 7 6 0 3 -15 -7
-32 -9 -18 -16 -36 -16 -39 1 -3 -4 -30 -12 -60 -8 -29 -12 -55 -10 -58 3 -2
5 1 5 7 0 7 4 12 9 12 5 0 7 -9 4 -20 -3 -11 0 -20 6 -20 7 0 9 -10 6 -25 -3
-14 -7 -36 -10 -50 -4 -18 -20 -32 -60 -51 -31 -14 -78 -48 -105 -74 -121
-118 -129 -253 -35 -630 53 -212 63 -284 75 -512 5 -97 16 -240 25 -318 19
-162 17 -179 -31 -299 -38 -92 -96 -305 -113 -411 -5 -36 -20 -139 -31 -230
-41 -317 -105 -567 -171 -668 -46 -72 -66 -116 -84 -182 l-12 -45 -139 1
c-237 3 -682 52 -889 99 -192 44 -267 73 -460 180 l-185 103 -58 -18 c-31 -10
-178 -48 -325 -85 -147 -38 -264 -71 -260 -75 12 -10 526 -225 698 -291 326
-125 581 -185 920 -213 l140 -12 -300 -103 c-1101 -379 -1483 -493 -1952 -585
-351 -69 -496 -71 -738 -14 l-140 33 -285 -159 c-369 -206 -372 -207 -368
-211 2 -2 102 -14 223 -26 179 -19 278 -23 530 -23 347 0 453 11 755 80 245
57 427 121 1572 550 593 222 1082 404 1086 404 5 0 14 -18 21 -40 16 -54 41
-66 89 -43 36 17 37 20 42 81 l5 63 50 -32 c27 -17 59 -31 70 -30 46 2 118 1
122 -2 2 -2 7 -48 13 -103 9 -99 9 -99 -20 -144 -30 -49 -30 -34 -14 -267 5
-74 8 -83 26 -83 12 0 24 12 33 33 15 35 17 32 33 -48 19 -90 52 -229 72 -295
7 -25 14 -49 16 -55 1 -5 9 -30 17 -55 13 -39 51 -165 63 -211 2 -9 -5 -26
-16 -39 -25 -29 -27 -105 -4 -138 10 -14 13 -30 8 -45 -8 -23 -6 -86 3 -100 2
-4 7 -40 9 -80 2 -40 9 -86 15 -104 11 -33 57 -69 106 -82 26 -7 28 -12 44
-117 12 -78 14 -127 8 -174 -11 -86 -11 -340 1 -625 9 -240 33 -426 90 -718
90 -463 101 -540 111 -812 15 -374 -7 -522 -117 -778 -87 -205 -86 -200 -86
-327 0 -134 14 -193 55 -224 25 -18 42 -21 125 -20 115 0 222 27 323 80 87 46
101 62 107 126 3 29 12 63 20 76 12 18 13 41 8 111 -8 105 11 205 79 426 53
174 60 227 42 330 -16 88 -55 174 -113 250 l-37 49 6 181 c7 196 31 425 78
745 55 375 55 480 -1 830 -14 87 -20 156 -17 195 3 33 9 94 12 135 18 241 26
283 62 338 l35 53 5 203 c3 112 3 214 0 228 -4 14 -20 38 -36 54 l-29 29 -6
265 c-3 146 -8 291 -12 323 -5 47 -3 61 10 70 26 20 48 123 40 194 -7 72 -34
121 -74 136 -24 9 -29 18 -35 56 -3 25 -9 61 -12 80 l-6 34 34 -7 c24 -4 46 0
72 13 43 22 41 25 57 -87 5 -39 14 -91 19 -115 6 -23 17 -87 25 -142 8 -55 22
-122 30 -150 22 -69 20 -85 -6 -85 -13 0 -29 -4 -35 -8 -24 -15 3 -172 29
-172 5 0 6 -5 3 -11 -9 -14 21 -46 49 -53 51 -13 138 -273 176 -523 9 -59 45
-228 56 -264 3 -11 -3 -18 -16 -22 -39 -10 -44 -53 -16 -152 14 -50 26 -98 26
-107 0 -8 7 -21 15 -28 9 -7 14 -22 13 -34 -2 -21 15 -92 33 -135 8 -20 14
-22 43 -17 30 6 35 4 41 -16 4 -13 17 -50 29 -83 32 -83 48 -148 57 -230 4
-38 13 -115 20 -170 9 -61 13 -163 11 -261 -4 -175 11 -371 34 -474 8 -36 75
-245 149 -465 135 -401 230 -723 241 -822 l7 -52 -53 -58 c-57 -62 -97 -139
-125 -240 -28 -99 -19 -144 63 -307 107 -214 114 -243 120 -482 l4 -202 42
-13 c22 -7 80 -13 127 -14 80 0 87 -2 110 -27 22 -24 36 -28 147 -42 140 -18
328 -21 417 -6 67 11 87 28 106 88 17 58 21 232 6 262 -7 14 -57 56 -112 95
-86 60 -159 124 -211 186 -8 9 -14 25 -14 36 0 11 -9 28 -20 38 -43 39 -85
191 -100 365 -18 218 -31 313 -50 390 -11 41 -24 122 -29 180 -11 111 -40 730
-45 940 -2 115 -31 384 -56 523 -5 31 -14 83 -20 115 -5 31 -17 128 -25 215
-8 86 -24 217 -34 290 -11 72 -22 195 -25 272 l-5 140 27 1 c15 1 46 7 70 13
l44 12 -7 77 c-4 42 -11 79 -16 80 -5 2 -9 22 -9 45 -1 23 -7 69 -15 102 -8
33 -15 74 -15 92 0 44 -19 83 -41 83 -16 0 -17 12 -11 163 4 89 7 267 6 394
l-1 233 39 -6 c46 -8 48 1 18 78 -11 29 -27 87 -36 128 -8 41 -20 80 -26 87
-14 17 -35 16 -46 -2 -6 -11 -13 7 -26 62 -25 106 -80 302 -110 391 l-25 73
72 -5 c40 -2 87 -12 104 -21 18 -9 41 -14 51 -11 11 4 39 -5 66 -19 26 -14 75
-29 109 -34 87 -13 117 -26 159 -72 30 -33 42 -39 60 -34 53 17 88 74 88 145
0 80 -46 130 -101 111 -24 -8 -55 -2 -187 38 -86 27 -193 57 -237 66 -44 10
-84 21 -88 25 -21 19 75 380 224 838 53 165 96 344 112 472 14 111 7 624 -11
761 l-8 66 54 28 c30 16 56 35 59 43 4 8 -6 39 -20 68 -15 30 -27 59 -27 65 0
6 -6 25 -14 42 -8 18 -21 50 -29 72 -8 22 -26 65 -40 95 -14 30 -42 105 -62
165 -37 109 -73 165 -110 165 -9 0 -16 14 -20 38 -3 20 -24 129 -47 242 -23
113 -44 230 -48 260 -20 146 -100 268 -214 327 -55 28 -141 35 -253 20 l-63
-9 0 41 c0 23 -11 93 -25 157 -28 130 -30 153 -10 109 l13 -30 -4 40 c-4 36
-3 38 7 15 6 -14 21 -65 34 -115 31 -117 32 -79 1 48 -13 53 -19 97 -15 97 5
0 9 -6 10 -12 0 -7 4 -4 9 7 4 11 6 30 3 43 -4 18 2 25 38 42 l44 20 -39 0
c-37 0 -39 1 -20 15 18 14 17 14 -9 5 -35 -13 -40 -13 -32 0 3 6 0 10 -8 10
-8 0 -19 6 -25 13 -9 11 -2 12 41 6 56 -7 71 -5 38 6 -31 9 -25 26 7 20 22 -4
21 -3 -5 7 -44 15 -42 28 2 18 38 -9 52 1 47 33 -2 12 4 17 22 17 14 0 26 -4
26 -10 0 -5 7 -7 15 -4 22 9 18 21 -9 28 -13 3 -36 22 -52 43 -15 20 -21 34
-13 31 8 -4 31 -13 52 -22 20 -9 37 -15 37 -12 0 2 -21 19 -46 39 -25 19 -46
39 -47 44 0 4 -17 15 -37 24 -23 11 -43 32 -58 60 -22 42 -22 43 -2 19 l21
-25 -4 33 c-2 17 0 32 5 32 5 0 1 15 -7 33 -14 28 -14 30 0 13 12 -16 15 -16
15 -5 0 9 -3 19 -7 22 -3 4 -7 19 -8 34 -4 44 -22 135 -34 165 -9 23 -8 26 6
21 13 -5 13 -2 -3 23 l-18 29 24 -20 24 -20 -18 28 c-10 16 -15 31 -12 34 3 3
-2 19 -10 35 -8 16 -12 33 -9 38 3 5 -1 25 -9 45 -9 20 -11 33 -6 30 18 -11
10 12 -10 30 -23 21 -22 61 1 76 8 5 10 9 4 10 -5 0 -1 4 10 9 19 9 19 9 -2
16 -13 3 -23 10 -23 15 0 5 -6 9 -13 9 -8 0 -22 9 -32 20 -10 11 -22 17 -26
14 -5 -3 -6 1 -4 9 4 8 -25 43 -71 87 -71 68 -75 74 -59 87 18 13 18 13 -1 28
-22 17 -41 19 -46 5 -1 -5 -23 4 -48 21 -25 16 -67 41 -93 55 -26 14 -45 29
-42 34 12 19 -23 22 -50 4 -25 -16 -27 -16 -48 4 -26 25 -70 43 -100 41 -17
-2 -16 -3 5 -6z m656 -638 c-3 -3 -9 2 -12 12 -6 14 -5 15 5 6 7 -7 10 -15 7
-18z m16 -62 c8 -20 3 -16 -35 24 l-34 37 32 -25 c17 -13 34 -30 37 -36z m32
-261 c9 -31 -4 -41 -22 -18 -17 24 -18 40 -2 30 6 -4 4 3 -5 17 -9 13 -17 28
-17 34 1 16 39 -37 46 -63z m-42 -148 c3 -8 2 -12 -4 -9 -6 3 -10 10 -10 16 0
14 7 11 14 -7z m-1462 -26 c-7 -7 -12 -8 -12 -2 0 14 12 26 19 19 2 -3 -1 -11
-7 -17z m-33 -82 c-11 -19 -27 -40 -36 -48 -10 -7 -2 8 16 35 37 55 50 63 20
13z m1595 -34 c8 -18 -39 19 -54 42 -10 16 -6 15 18 -5 17 -13 33 -30 36 -37z
m-13 -19 c13 -16 12 -17 -3 -4 -17 13 -22 21 -14 21 2 0 10 -8 17 -17z m44
-83 c8 -13 -5 -13 -25 0 -13 8 -13 10 2 10 9 0 20 -4 23 -10z m-1609 -215 c-9
-9 -17 -11 -21 -5 -3 5 -2 10 3 10 5 0 13 10 17 23 6 19 8 19 12 5 2 -10 -2
-25 -11 -33z m1524 -16 c0 -6 -4 -7 -10 -4 -5 3 -10 11 -10 16 0 6 5 7 10 4 6
-3 10 -11 10 -16z m-61 -290 c25 -107 25 -109 7 -109 -13 0 -36 112 -36 175 0
44 8 27 29 -66z m-1456 -424 c-3 -9 -8 -14 -10 -11 -3 3 -2 9 2 15 9 16 15 13
8 -4z m1827 -1760 c0 -38 -6 -117 -15 -175 -34 -231 -46 -328 -48 -397 -2 -75
-6 -83 -27 -59 -6 8 -34 22 -61 31 -60 20 -61 27 -20 187 16 62 36 149 45 193
16 77 37 133 62 165 13 17 24 65 30 125 2 22 7 51 11 65 5 22 7 19 14 -20 4
-25 8 -76 9 -115z m337 -2592 c-3 -10 -5 -4 -5 12 0 17 2 24 5 18 2 -7 2 -21
0 -30z"/>
<path d="M6801 10614 c0 -11 3 -14 6 -6 3 7 2 16 -1 19 -3 4 -6 -2 -5 -13z"/>
</g>
</svg>
