<?xml version="1.0" standalone="no"?>
<!DOCTYPE svg PUBLIC "-//W3C//DTD SVG 20010904//EN"
 "http://www.w3.org/TR/2001/REC-SVG-20010904/DTD/svg10.dtd">
<svg version="1.0" xmlns="http://www.w3.org/2000/svg"
 width="786.000000pt" height="1280.000000pt" viewBox="0 0 786.000000 1280.000000"
 preserveAspectRatio="xMidYMid meet">
<g transform="translate(0.000000,1280.000000) scale(0.100000,-0.100000)"
fill="#000000" stroke="none">
<path d="M4270 11951 c-19 -10 -56 -47 -81 -82 -36 -50 -51 -64 -70 -62 -59 3
-208 -41 -343 -101 -77 -35 -181 -80 -231 -99 -120 -46 -312 -135 -523 -242
-177 -90 -223 -124 -307 -230 -42 -53 -42 -53 -61 -141 -23 -111 -7 -340 30
-434 4 -10 -8 -24 -40 -43 -51 -31 -50 -23 -20 -131 9 -33 24 -69 34 -80 10
-12 26 -42 36 -67 14 -40 98 -181 151 -256 12 -17 27 -23 67 -25 l52 -3 42
-120 c57 -160 99 -300 124 -414 26 -119 71 -239 158 -421 38 -80 95 -217 127
-305 59 -165 135 -357 160 -405 8 -15 14 -48 13 -72 0 -33 10 -66 38 -122 20
-42 41 -79 46 -82 18 -11 6 -24 -17 -18 -23 6 -24 4 -17 -17 6 -16 19 -25 37
-27 60 -7 122 -105 160 -252 20 -77 15 -119 -20 -172 l-26 -39 -54 6 c-71 9
-105 0 -150 -39 -21 -19 -58 -44 -84 -56 -25 -13 -55 -31 -67 -41 -11 -10 -67
-44 -125 -74 -170 -91 -206 -115 -228 -155 -11 -20 -30 -45 -42 -56 -64 -57
-142 -206 -184 -349 -24 -82 -26 -101 -22 -215 4 -94 12 -147 32 -215 43 -150
82 -220 209 -382 12 -16 15 -28 9 -36 -21 -26 -63 -150 -58 -167 3 -10 -19
-92 -48 -182 -63 -188 -122 -377 -133 -428 -4 -19 -8 -37 -9 -40 -1 -3 -5 -22
-9 -42 -7 -31 -13 -38 -32 -38 -29 0 -63 -50 -89 -130 -15 -48 -27 -78 -65
-165 -18 -42 -40 -120 -40 -141 0 -17 13 -31 45 -50 25 -14 45 -29 45 -32 -1
-40 -88 -248 -134 -319 -13 -21 -39 -73 -57 -115 -18 -43 -53 -104 -77 -135
-164 -217 -240 -415 -267 -691 -9 -87 -24 -222 -35 -302 -11 -80 -27 -214 -35
-298 -23 -225 -81 -499 -118 -556 -9 -13 -51 -34 -107 -55 -95 -35 -153 -72
-228 -147 -64 -64 -72 -92 -72 -246 0 -163 -15 -343 -36 -423 -8 -33 -41 -125
-73 -205 -41 -101 -55 -147 -47 -152 19 -13 284 -98 304 -98 19 0 20 10 25
213 4 195 14 277 37 300 7 8 31 -84 100 -383 12 -52 28 -105 34 -118 7 -13 46
-49 89 -80 65 -49 91 -62 178 -86 105 -29 235 -55 279 -56 39 0 169 150 175
203 2 12 8 40 15 63 17 57 6 73 -97 135 -112 67 -223 175 -222 216 1 15 -2 46
-6 68 -5 31 2 69 33 170 22 72 45 164 52 205 6 41 20 125 30 185 10 61 22 137
26 170 3 33 18 92 31 130 61 175 85 239 138 365 31 74 77 189 102 255 25 66
51 127 57 135 7 8 43 94 81 190 37 96 85 213 106 260 21 47 57 139 80 205 65
186 119 301 196 416 40 59 88 137 107 175 53 102 68 119 94 105 34 -18 49 -13
56 20 6 33 26 31 26 -3 0 -16 3 -18 14 -9 8 7 17 24 21 39 12 47 101 238 116
247 11 8 32 82 33 122 1 23 18 56 60 113 57 76 61 79 78 63 10 -9 27 -31 38
-47 10 -17 39 -44 64 -60 25 -16 46 -32 46 -35 0 -8 -73 -127 -92 -148 -8 -10
-47 -71 -86 -136 -83 -139 -153 -300 -189 -435 -26 -96 -26 -100 -28 -482 0
-243 -5 -409 -12 -450 -7 -36 -17 -110 -23 -165 -13 -120 -53 -297 -74 -329
-8 -13 -37 -49 -64 -80 -60 -69 -115 -172 -132 -249 -11 -47 -11 -72 1 -145
17 -106 18 -225 2 -312 -7 -36 -11 -132 -10 -215 l2 -150 68 -8 c67 -8 177 6
177 22 0 5 79 10 175 13 97 3 178 8 181 11 3 2 10 32 16 66 9 48 9 79 -1 139
-15 88 -21 103 -66 153 -30 33 -32 40 -28 98 3 56 83 456 118 591 8 30 19 99
25 152 6 54 20 135 31 180 11 46 31 137 45 203 40 189 81 343 114 429 30 78
47 131 96 311 87 316 151 490 220 602 116 187 155 289 170 445 4 46 16 90 31
119 13 25 24 61 25 80 2 63 -23 151 -58 202 -31 46 -54 103 -54 138 0 8 -13
33 -28 55 -16 21 -41 68 -57 104 -15 36 -52 114 -82 173 l-54 109 35 106 c46
140 53 168 86 351 20 104 34 157 44 163 8 5 36 40 62 78 26 39 48 70 50 70 2
0 1 -13 -2 -30 -4 -17 -2 -30 4 -30 16 0 41 46 56 102 8 29 19 66 25 82 6 16
9 37 6 47 -5 14 6 31 35 60 44 43 67 89 90 174 7 28 19 62 26 76 15 30 8 45
-13 28 -7 -6 -13 -9 -13 -5 0 7 128 218 170 281 45 67 86 148 105 205 9 30 31
86 47 124 31 72 81 299 92 420 8 76 18 102 52 129 40 31 93 153 106 242 18
124 -12 288 -71 385 -5 8 -16 32 -24 52 -9 20 -29 44 -44 52 -47 24 -140 121
-152 158 -10 31 -8 47 20 134 57 180 143 360 250 527 29 46 110 167 263 392
100 148 235 390 374 667 40 82 77 225 68 263 -4 15 -19 38 -34 52 -36 33 -526
324 -627 372 -70 34 -481 200 -680 275 -73 28 -181 96 -178 112 1 5 7 23 14
40 34 86 -51 138 -138 84 -18 -11 -26 -10 -57 8 -45 27 -89 27 -136 3z m352
-475 c48 -17 225 -137 393 -265 221 -169 437 -317 492 -336 l52 -19 -70 -74
c-82 -86 -127 -152 -206 -306 l-57 -111 -12 70 c-6 39 -15 78 -19 88 -4 11 -3
17 5 17 7 0 10 7 6 16 -4 12 -2 15 9 11 8 -4 17 -2 20 3 4 6 0 10 -7 10 -10 0
-10 2 0 9 11 7 9 16 -11 47 -13 22 -24 43 -23 47 1 4 -9 19 -22 32 -13 14 -18
25 -11 27 6 2 -9 17 -34 32 -29 19 -55 46 -72 77 -14 27 -31 52 -37 55 -6 4
-4 -3 5 -17 34 -48 16 -39 -27 13 -73 89 -139 138 -224 164 -63 19 -81 18 -56
-2 18 -14 18 -15 -6 -9 -21 5 -22 4 -7 -5 35 -22 16 -30 -24 -10 -88 45 -275
78 -263 47 4 -11 -14 -15 -78 -20 -93 -8 -192 -33 -183 -47 4 -6 30 -10 58
-11 45 -1 48 -2 22 -9 -16 -4 -43 -14 -59 -23 -16 -8 -59 -23 -97 -32 -37 -9
-92 -32 -121 -50 -29 -19 -78 -47 -108 -64 -30 -16 -68 -42 -85 -56 l-30 -26
46 25 c47 27 89 34 89 16 0 -50 -115 -176 -186 -206 -45 -18 -114 -60 -114
-68 0 -6 46 3 75 14 17 7 45 14 63 15 l33 3 -56 -59 c-30 -33 -55 -65 -55 -72
0 -6 7 -1 16 11 8 12 20 19 26 16 8 -5 7 -11 -3 -18 -8 -6 -16 -22 -17 -36 -2
-14 -16 -38 -31 -55 -16 -16 -40 -47 -54 -68 l-25 -39 -7 43 c-4 23 -20 70
-35 103 -15 34 -33 84 -40 112 l-13 51 138 154 c140 157 221 259 360 458 44
62 85 111 94 111 9 0 36 11 59 25 37 21 52 24 96 19 53 -6 66 -1 193 80 36 23
42 43 17 53 -12 4 -8 9 17 20 79 33 144 39 201 19z m-704 -153 c-1 -17 4 -38
10 -45 8 -10 -24 -60 -139 -213 -148 -199 -362 -455 -380 -455 -5 0 -9 12 -9
28 0 15 -12 56 -27 91 -27 63 -27 63 -62 58 -34 -4 -38 -1 -74 51 -21 30 -37
55 -35 56 68 29 431 290 597 429 60 49 67 53 93 43 22 -8 27 -16 26 -43z
m-288 -787 c0 -2 -7 -7 -16 -10 -8 -3 -12 -2 -9 4 6 10 25 14 25 6z m90 -46
c-12 -22 -50 -46 -50 -31 0 8 48 50 58 51 1 0 -2 -9 -8 -20z m-211 -321 c-10
-20 -12 -21 -21 -5 -7 13 -5 21 9 31 22 17 28 4 12 -26z m61 27 c0 -2 -8 -10
-17 -17 -16 -13 -17 -12 -4 4 13 16 21 21 21 13z m-37 -91 c-3 -9 -8 -14 -10
-11 -3 3 -2 9 2 15 9 16 15 13 8 -4z m1443 -2839 c-24 -72 -77 -174 -145 -282
-17 -27 -34 -68 -38 -90 -6 -42 -60 -170 -68 -162 -12 11 15 101 36 124 32 35
32 113 -1 184 -23 50 -24 52 -6 84 18 34 77 112 181 238 l60 73 3 -47 c2 -30
-6 -73 -22 -122z m-337 -666 c-29 -68 -34 -59 -7 14 12 33 24 54 26 48 2 -6
-7 -34 -19 -62z m-159 -1172 c0 -6 -6 -5 -15 2 -8 7 -15 14 -15 16 0 2 7 1 15
-2 8 -4 15 -11 15 -16z m20 -40 c0 -13 -23 -5 -28 10 -2 7 2 10 12 6 9 -3 16
-11 16 -16z"/>
</g>
</svg>
