<?xml version="1.0" standalone="no"?>
<!DOCTYPE svg PUBLIC "-//W3C//DTD SVG 20010904//EN"
 "http://www.w3.org/TR/2001/REC-SVG-20010904/DTD/svg10.dtd">
<svg version="1.0" xmlns="http://www.w3.org/2000/svg"
 width="880.000000pt" height="1280.000000pt" viewBox="0 0 880.000000 1280.000000"
 preserveAspectRatio="xMidYMid meet">
<g transform="translate(0.000000,1280.000000) scale(0.100000,-0.100000)"
fill="#000000" stroke="none">
<path d="M5212 10531 c-29 -10 -69 -32 -89 -48 -45 -36 -160 -204 -173 -252
-6 -21 -19 -40 -32 -46 -25 -11 -37 -48 -28 -85 3 -14 3 -42 0 -62 -7 -39 2
-71 14 -47 3 8 4 4 2 -8 -2 -12 -1 -21 3 -20 4 1 22 -12 39 -30 29 -29 34 -42
53 -159 18 -106 19 -128 8 -135 -12 -7 -12 -9 0 -9 8 0 -3 -13 -24 -30 -21
-16 -41 -30 -45 -30 -17 0 -120 -112 -126 -137 -3 -15 -9 -37 -12 -48 -4 -11
-7 -54 -7 -95 l0 -74 -65 -14 c-102 -22 -113 -29 -157 -95 -80 -121 -95 -167
-113 -347 -7 -63 -18 -133 -26 -155 -9 -26 -10 -41 -3 -46 7 -4 4 -26 -8 -65
-10 -32 -17 -65 -16 -71 0 -7 -2 -13 -7 -13 -10 0 -30 -47 -30 -71 0 -10 5
-27 10 -37 17 -27 -51 -184 -83 -193 -37 -10 -159 -84 -185 -112 -13 -14 -31
-23 -40 -20 -18 4 -76 -49 -96 -89 -16 -33 -151 -127 -174 -121 -11 2 -40 -13
-77 -42 -33 -25 -71 -48 -85 -51 -51 -11 -126 -38 -148 -52 -13 -8 -30 -29
-39 -46 -8 -17 -32 -46 -51 -64 l-36 -33 -24 25 -25 25 28 38 c58 77 220 231
250 238 52 12 55 14 55 42 0 55 -50 99 -99 88 -23 -5 -30 -13 -34 -41 -7 -44
-81 -148 -171 -242 -68 -70 -71 -73 -76 -48 -4 18 -280 273 -980 902 -536 482
-1061 953 -1166 1045 -304 268 -491 399 -567 399 -28 0 -29 -2 -23 -32 22
-109 149 -244 711 -754 1119 -1017 1879 -1694 1901 -1694 13 0 24 -3 24 -6 0
-3 -30 -42 -67 -87 -87 -103 -187 -187 -225 -187 -26 0 -28 -3 -28 -37 1 -61
43 -98 99 -87 26 5 31 11 31 34 0 37 79 154 172 253 l73 79 43 -32 c40 -30 42
-34 27 -50 -22 -25 -16 -64 11 -68 11 -2 27 4 34 13 7 8 17 15 23 15 6 0 1
-10 -11 -23 -26 -27 -27 -40 -7 -60 18 -19 52 -11 66 15 6 11 13 18 16 15 2
-3 -1 -14 -8 -25 -20 -31 -4 -56 31 -48 22 4 30 2 30 -8 0 -19 30 -29 46 -15
10 9 37 -9 121 -82 59 -51 135 -117 169 -146 33 -28 85 -87 114 -130 30 -43
59 -81 64 -85 6 -4 27 -8 47 -8 62 0 99 64 69 120 -6 11 -47 38 -92 62 -66 34
-111 70 -240 193 l-159 150 38 30 c21 17 52 46 70 65 128 136 149 149 408 247
93 35 194 73 223 84 28 11 56 29 62 38 5 10 24 21 42 25 18 3 50 18 71 32 28
18 42 22 51 15 7 -6 30 -14 52 -19 38 -8 39 -9 56 -77 16 -61 16 -71 3 -85 -8
-9 -15 -33 -15 -52 0 -20 -7 -41 -14 -48 -8 -6 -20 -35 -26 -63 -6 -29 -21
-74 -34 -102 -12 -27 -21 -55 -19 -62 2 -6 -23 -64 -55 -130 -70 -138 -157
-401 -197 -588 -15 -71 -38 -151 -51 -177 -47 -92 -68 -223 -44 -268 27 -51
85 -46 165 15 46 36 55 35 55 -2 0 -35 65 -322 101 -443 17 -58 66 -216 109
-351 108 -338 113 -361 101 -419 -6 -28 -8 -110 -4 -202 7 -179 -12 -317 -55
-401 -23 -45 -23 -48 -7 -73 15 -24 15 -27 -4 -60 -33 -55 -27 -79 32 -142 49
-52 55 -63 66 -126 7 -38 19 -85 28 -105 8 -20 28 -77 43 -128 21 -69 24 -90
13 -86 -11 4 -13 -3 -9 -37 5 -45 28 -88 51 -96 19 -8 28 -53 31 -169 2 -55 4
-118 5 -140 1 -22 -15 -93 -34 -157 -65 -210 -69 -333 -16 -473 25 -69 82
-132 127 -141 l30 -6 7 -102 c3 -55 8 -167 10 -247 3 -162 14 -199 66 -244 39
-32 87 -40 162 -25 80 16 125 39 171 90 60 66 76 111 76 216 0 88 -28 275 -51
339 -10 28 -9 39 11 80 47 98 6 228 -108 345 -24 24 -48 56 -54 69 -14 39 9
193 42 280 43 111 59 170 70 254 9 73 54 207 70 207 9 0 60 112 60 134 0 27
62 119 71 105 10 -17 46 43 54 90 5 30 15 42 62 71 147 92 223 242 226 443 1
83 -1 97 -27 146 -33 64 -32 117 4 198 23 53 14 77 -21 55 -18 -12 -20 -11
-15 5 25 88 97 471 121 643 9 63 27 176 40 250 13 74 32 194 41 265 9 72 18
132 20 134 2 2 26 -6 53 -18 70 -30 106 -28 143 10 30 29 30 32 26 102 -5 80
-43 182 -97 263 -18 26 -50 95 -71 153 -82 228 -143 381 -202 506 -34 72 -78
166 -99 210 -21 44 -41 92 -44 107 -4 14 -18 36 -31 49 -13 12 -29 41 -35 63
-6 23 -18 47 -26 53 -10 8 -17 29 -17 55 -1 41 0 43 26 40 35 -3 41 9 23 52
-12 29 -13 48 -5 99 5 34 17 67 25 73 10 8 15 29 15 66 0 51 22 133 54 203 8
17 24 64 36 105 13 41 29 84 36 95 8 11 14 35 14 55 0 55 17 71 26 24 9 -50
59 -156 122 -259 53 -86 54 -88 185 -223 59 -62 87 -99 87 -115 0 -35 99 -178
145 -209 22 -15 77 -45 123 -68 46 -23 82 -47 82 -55 0 -9 58 -44 143 -86 221
-111 475 -259 535 -314 52 -47 55 -48 69 -30 13 19 15 18 49 -23 41 -49 152
-117 214 -131 52 -12 114 -68 144 -131 28 -59 56 -100 68 -100 13 0 -1 87 -23
138 -10 23 -14 40 -8 37 16 -11 46 -78 54 -122 3 -23 13 -47 21 -54 8 -6 14
-20 14 -30 0 -26 16 -24 24 4 11 40 6 113 -10 161 -9 26 -14 50 -11 52 8 8 55
-69 80 -128 11 -26 24 -48 28 -48 5 0 9 -9 9 -20 0 -12 7 -20 16 -20 13 0 15
10 9 68 -4 37 -18 91 -30 120 -28 61 -16 70 16 12 12 -22 31 -42 41 -46 10 -3
18 -11 18 -18 0 -18 27 -40 34 -28 9 15 -38 135 -72 184 -21 30 -55 59 -102
87 l-71 43 46 46 c49 51 47 59 -12 43 -69 -20 -106 -14 -179 29 -38 22 -76 40
-86 40 -9 0 -30 16 -46 36 -24 28 -34 35 -52 29 -12 -4 -19 -12 -16 -20 3 -9
0 -12 -10 -8 -16 6 -18 19 -4 28 17 10 11 20 -20 33 -16 7 -49 33 -74 58 -25
24 -50 44 -57 44 -22 0 -102 72 -331 299 -126 124 -237 229 -248 233 -21 8
-50 -13 -50 -37 0 -27 -102 49 -169 125 -107 121 -125 148 -112 164 9 11 6 20
-13 43 -17 20 -23 37 -19 52 4 16 -2 30 -22 51 -15 16 -24 33 -21 38 8 13 -13
73 -34 97 -24 27 -68 119 -120 248 -67 170 -162 297 -250 335 -54 24 -156 32
-189 16 -23 -12 -35 -11 -90 6 -73 22 -125 54 -196 120 -27 26 -60 52 -72 59
-12 6 -27 27 -33 47 -10 30 -9 38 6 55 9 10 19 17 22 14 6 -6 52 63 52 79 0 8
6 19 14 25 8 7 17 27 20 46 4 22 13 35 22 35 8 0 13 4 10 9 -3 5 1 14 10 21 8
7 13 19 10 26 -3 8 0 17 7 21 7 5 21 22 31 38 11 17 34 45 53 62 40 38 88 136
78 161 -3 9 -5 18 -3 19 2 1 -8 13 -22 28 -24 25 -48 107 -49 167 -2 51 -43
141 -87 188 -24 26 -69 59 -100 75 -48 25 -67 28 -136 28 -48 -1 -93 4 -114
13 -45 19 -98 17 -162 -5z m-181 -1151 c10 0 19 6 20 13 0 8 2 8 6 -2 5 -11 7
-11 14 0 7 11 9 11 9 -2 0 -9 -6 -22 -14 -28 -7 -6 -31 -41 -52 -77 -34 -59
-72 -98 -75 -77 -11 88 -1 163 22 163 6 0 18 7 27 16 10 11 17 13 20 5 2 -6
12 -11 23 -11z m-1431 -1496 c0 -8 -4 -12 -10 -9 -5 3 -10 10 -10 16 0 5 5 9
10 9 6 0 10 -7 10 -16z m-685 -764 c3 -5 2 -10 -4 -10 -5 0 -13 5 -16 10 -3 6
-2 10 4 10 5 0 13 -4 16 -10z m1155 -345 c0 -8 -7 -15 -15 -15 -8 0 -15 7 -15
15 0 8 7 15 15 15 8 0 15 -7 15 -15z m1254 -607 c9 -180 29 -348 60 -508 40
-204 59 -423 51 -590 -5 -104 -10 -149 -21 -161 -8 -8 -14 -34 -14 -56 0 -29
-6 -46 -24 -62 -22 -21 -24 -21 -31 -4 -9 23 -52 397 -60 529 -5 63 -1 165 9
279 23 255 18 611 -10 697 -4 13 0 18 14 18 18 0 20 -11 26 -142z"/>
</g>
</svg>
