<?xml version="1.0" standalone="no"?>
<!DOCTYPE svg PUBLIC "-//W3C//DTD SVG 20010904//EN"
 "http://www.w3.org/TR/2001/REC-SVG-20010904/DTD/svg10.dtd">
<svg version="1.0" xmlns="http://www.w3.org/2000/svg"
 width="991.000000pt" height="1280.000000pt" viewBox="0 0 991.000000 1280.000000"
 preserveAspectRatio="xMidYMid meet">
<g transform="translate(0.000000,1280.000000) scale(0.100000,-0.100000)"
fill="#000000" stroke="none">
<path d="M5805 12533 c-72 -10 -194 -48 -246 -75 -78 -41 -163 -119 -191 -176
-23 -46 -23 -53 -23 -337 1 -341 12 -475 44 -509 11 -12 21 -25 21 -28 0 -3
-26 -8 -57 -12 -80 -9 -232 -69 -316 -124 -40 -25 -109 -77 -154 -114 -117
-97 -145 -114 -388 -236 -245 -123 -426 -202 -685 -302 -190 -73 -267 -94
-405 -109 -157 -18 -202 -44 -475 -267 -479 -391 -741 -570 -1095 -746 -129
-65 -197 -91 -266 -102 -47 -8 -64 -28 -89 -106 -25 -79 -36 -93 -225 -262
-157 -141 -258 -222 -341 -276 -28 -18 -76 -65 -109 -106 -55 -71 -122 -129
-194 -168 l-31 -17 0 -128 c0 -74 -7 -157 -15 -197 -13 -62 -13 -72 1 -87 14
-16 14 -23 -1 -84 l-17 -67 27 -28 c22 -23 26 -34 20 -58 -5 -26 1 -37 44 -86
37 -43 55 -75 70 -125 11 -37 30 -76 42 -87 l22 -19 -6 26 c-6 23 -3 28 20 34
16 3 31 12 35 18 12 19 9 90 -5 117 -8 14 -17 41 -21 60 -3 19 -17 51 -31 71
-21 32 -24 49 -24 125 0 48 8 135 18 194 18 102 20 108 72 175 30 38 74 90 97
115 l44 45 -24 -44 c-12 -24 -49 -70 -81 -101 l-58 -58 10 -103 c10 -97 2
-293 -13 -317 -3 -5 17 -28 43 -51 32 -26 54 -54 61 -78 16 -50 35 -80 60 -93
19 -10 20 -9 14 14 -5 20 -2 26 10 26 21 0 36 32 29 61 -3 13 -25 50 -49 82
-40 55 -43 64 -50 145 -4 51 -3 122 4 172 9 71 19 100 60 177 72 135 116 188
165 203 25 7 63 34 101 70 89 84 166 117 166 71 0 -34 -60 -193 -106 -280 -24
-46 -44 -89 -44 -95 0 -6 -16 -45 -35 -85 -20 -41 -40 -90 -45 -110 -5 -20
-12 -46 -15 -57 -5 -15 -1 -23 11 -28 21 -8 86 60 104 109 26 68 54 126 66
136 7 5 18 33 25 62 24 103 94 264 144 332 12 17 34 66 50 110 32 92 79 190
132 273 21 31 44 86 53 122 l16 65 135 90 c319 213 697 417 1039 561 180 75
233 104 315 170 22 17 76 50 121 72 45 23 142 74 216 116 226 125 389 203 708
338 478 203 655 270 842 318 93 24 112 20 103 -24 -3 -17 -17 -103 -31 -191
-14 -88 -36 -225 -50 -304 -41 -232 -35 -399 16 -464 18 -22 19 -34 14 -104
-4 -43 -12 -89 -19 -103 -23 -47 -26 -96 -9 -139 15 -38 15 -44 0 -82 -24 -60
-23 -101 4 -137 17 -23 21 -37 15 -59 -18 -73 -17 -108 4 -127 14 -13 21 -31
21 -58 0 -51 33 -114 70 -133 34 -18 50 -63 50 -145 -1 -150 -67 -305 -162
-378 -65 -49 -72 -69 -88 -250 -12 -134 -25 -208 -56 -312 -106 -352 -637
-1407 -982 -1950 -128 -202 -145 -224 -297 -380 -142 -146 -162 -173 -181
-243 -26 -96 -14 -212 42 -423 28 -105 31 -168 17 -384 -7 -122 -5 -237 10
-545 24 -477 28 -1219 9 -1435 -15 -169 -38 -360 -54 -445 -15 -81 -77 -205
-161 -317 -38 -51 -87 -120 -109 -153 -129 -188 -365 -483 -495 -617 -83 -85
-143 -155 -143 -166 0 -10 -12 -41 -26 -68 -23 -42 -25 -53 -15 -80 6 -17 11
-38 11 -48 0 -10 14 -23 34 -31 19 -8 37 -19 41 -25 9 -15 78 -12 100 4 15 10
25 11 39 4 11 -6 53 -8 96 -6 89 5 132 26 155 75 20 42 42 53 103 53 68 0 163
31 210 68 31 25 43 44 56 89 65 226 110 313 228 438 50 53 141 135 202 184
148 117 166 139 166 202 0 58 -18 107 -76 209 -64 110 -69 165 -69 740 1 637
19 818 125 1239 67 268 70 483 11 876 l-30 199 33 76 c19 41 55 140 81 220 64
195 129 348 215 510 198 367 472 762 798 1145 234 276 353 375 529 441 38 14
84 35 103 46 34 19 39 19 104 4 37 -9 96 -16 132 -16 71 0 163 -26 231 -66 82
-47 255 -340 407 -686 80 -181 89 -208 116 -350 47 -253 81 -494 91 -658 15
-249 63 -383 195 -545 103 -127 132 -195 204 -485 75 -300 150 -505 266 -720
171 -319 244 -493 399 -950 152 -446 257 -843 290 -1093 13 -100 17 -112 48
-146 44 -49 51 -103 38 -316 -12 -187 -29 -286 -77 -439 -47 -147 -51 -191
-25 -234 12 -18 33 -37 47 -42 22 -9 25 -15 20 -36 -13 -51 46 -109 128 -124
54 -11 83 2 94 42 10 34 15 29 26 -23 7 -31 42 -50 74 -38 16 6 22 17 23 41 0
31 1 32 11 11 13 -26 49 -31 68 -8 9 11 16 12 31 2 14 -9 24 -9 37 -1 14 9 17
26 17 85 0 71 1 74 27 83 37 13 42 5 24 -39 -21 -50 -20 -72 4 -80 44 -14 80
35 66 89 -4 18 1 33 19 54 44 53 27 177 -45 332 -27 58 -63 150 -80 205 -32
99 -32 101 -19 188 10 71 10 99 -1 145 -7 31 -12 76 -11 100 3 56 -24 112 -94
192 -92 106 -160 256 -286 630 -130 385 -259 851 -433 1570 -138 575 -162 643
-299 862 -104 166 -113 189 -121 303 -9 147 -52 271 -142 412 -63 98 -106 196
-169 383 -204 598 -408 1474 -445 1910 -13 147 -54 410 -69 438 -6 12 -43 47
-81 77 -124 99 -188 198 -197 304 -5 71 10 100 67 127 43 20 45 24 50 70 4 41
9 49 30 54 31 7 50 43 50 94 0 32 6 46 35 72 31 28 35 37 35 84 0 41 5 58 25
81 13 16 32 55 41 87 9 31 29 86 44 122 55 131 73 204 86 348 4 52 11 82 18
82 21 0 147 -108 255 -219 98 -99 235 -271 532 -661 128 -168 266 -383 379
-590 34 -63 71 -127 81 -142 11 -15 26 -44 33 -66 27 -75 56 -118 156 -227
100 -108 190 -234 265 -370 22 -38 54 -94 73 -123 18 -30 32 -55 30 -56 -1 -1
-22 -10 -44 -20 -26 -11 -56 -37 -80 -69 -63 -83 -183 -205 -256 -259 -40 -30
-78 -69 -94 -95 -36 -61 -141 -171 -229 -239 -53 -40 -77 -66 -85 -90 -6 -19
-26 -52 -43 -74 -69 -86 -77 -99 -77 -118 0 -31 21 -38 41 -14 9 12 23 22 31
22 20 1 59 40 102 103 46 69 243 270 304 311 34 23 47 28 60 19 27 -16 26 -83
-2 -173 -14 -45 -26 -103 -26 -129 0 -54 -40 -125 -122 -217 -25 -28 -51 -60
-59 -71 -23 -33 -107 -84 -171 -104 -59 -19 -60 -19 -89 2 -61 43 -130 31
-116 -22 4 -16 2 -19 -11 -15 -10 4 -7 -2 7 -15 14 -11 37 -23 53 -26 15 -3
39 -20 53 -39 31 -41 46 -42 90 -8 40 30 161 83 191 84 25 0 74 36 74 54 0 35
164 275 178 261 9 -9 -50 -138 -96 -209 -24 -38 -48 -80 -52 -92 -9 -23 -134
-118 -178 -135 -12 -5 -42 -18 -66 -29 -54 -24 -60 -24 -76 -5 -7 8 -29 19
-50 25 -64 17 -112 -18 -95 -70 5 -15 2 -20 -12 -20 -36 -1 31 -29 69 -30 29
0 47 -8 77 -35 36 -33 81 -47 81 -25 0 5 20 25 45 44 40 30 49 33 73 24 24 -9
38 -7 87 16 31 15 67 30 80 32 12 2 57 16 101 32 88 31 77 15 104 153 6 31 26
87 45 125 l33 69 -5 -55 c-3 -30 -9 -70 -14 -89 -5 -19 -7 -37 -5 -39 7 -7 46
18 46 30 0 6 25 59 55 119 37 74 60 133 70 184 8 42 53 171 103 297 49 123 99
263 111 313 20 78 28 96 66 136 24 26 47 59 51 73 9 38 -14 84 -56 111 -50 31
-100 92 -167 200 -97 156 -166 329 -248 625 -46 168 -74 244 -109 292 -11 15
-58 52 -106 83 -109 69 -144 106 -329 354 -169 226 -232 319 -339 501 -41 69
-105 169 -143 222 -54 78 -74 115 -94 185 -55 184 -89 279 -109 307 -12 16
-34 57 -51 90 -26 53 -38 65 -89 94 -32 18 -87 58 -120 90 -34 32 -98 83 -143
114 -68 48 -93 74 -148 153 -90 128 -153 195 -249 264 -56 40 -80 63 -78 75 2
11 -5 20 -17 23 -15 4 -21 15 -23 47 -2 28 -8 41 -18 41 -8 0 -18 8 -23 19 -5
14 -13 17 -32 12 -17 -4 -31 -1 -41 9 -10 10 -24 13 -37 9 -18 -6 -19 -3 -14
30 7 46 54 150 77 171 15 14 19 13 43 -9 18 -17 33 -23 49 -19 38 9 45 21 51
77 3 30 19 85 36 124 35 78 38 124 16 198 -18 62 -54 98 -89 92 -23 -5 -26 -2
-31 41 -14 120 -48 271 -71 319 -41 83 -150 153 -277 177 -81 15 -237 25 -282
18z m2645 -6173 c-23 -45 -44 -80 -46 -77 -3 3 13 42 36 87 23 45 44 80 46 77
3 -3 -13 -42 -36 -87z m290 -5771 c0 -45 -12 -50 -28 -14 -15 33 -15 52 1 58
21 7 27 -3 27 -44z m-110 11 c6 -12 10 -35 8 -53 l-3 -32 -18 32 c-19 35 -23
73 -7 73 5 0 14 -9 20 -20z m-111 -16 c16 -37 9 -39 -11 -3 -9 16 -14 29 -9
29 4 0 13 -12 20 -26z"/>
</g>
</svg>
