<?xml version="1.0" standalone="no"?>
<!DOCTYPE svg PUBLIC "-//W3C//DTD SVG 20010904//EN"
 "http://www.w3.org/TR/2001/REC-SVG-20010904/DTD/svg10.dtd">
<svg version="1.0" xmlns="http://www.w3.org/2000/svg"
 width="961.000000pt" height="1280.000000pt" viewBox="0 0 961.000000 1280.000000"
 preserveAspectRatio="xMidYMid meet">
<g transform="translate(0.000000,1280.000000) scale(0.100000,-0.100000)"
fill="#000000" stroke="none">
<path d="M1716 12388 c33 -171 276 -872 834 -2398 377 -1032 630 -1752 677
-1930 19 -74 38 -115 83 -185 72 -114 90 -148 106 -210 19 -69 17 -119 -4
-145 -16 -19 -22 -21 -40 -11 -27 14 -63 77 -93 160 -54 152 -22 -36 37 -218
37 -114 72 -177 143 -261 65 -76 87 -109 110 -166 11 -27 20 -42 20 -34 1 31
-22 98 -61 178 -46 94 -60 170 -35 191 14 11 20 6 46 -29 38 -52 80 -181 79
-240 0 -38 9 -60 57 -140 32 -52 65 -110 74 -129 15 -32 15 -34 -3 -45 -11 -6
-35 -24 -53 -41 -29 -26 -35 -39 -44 -99 -12 -89 -5 -128 37 -198 19 -31 34
-60 34 -65 0 -5 13 -14 30 -20 17 -6 34 -23 40 -38 10 -27 12 -27 87 -24 77 4
78 4 92 -25 12 -25 11 -33 -4 -65 -35 -74 -73 -108 -182 -166 -119 -63 -183
-109 -183 -132 0 -8 19 -31 41 -51 52 -46 72 -91 63 -140 -10 -54 -20 -70 -90
-144 -35 -36 -64 -73 -64 -81 0 -8 18 -50 41 -93 57 -106 68 -143 84 -266 29
-215 48 -243 195 -294 135 -46 160 -66 160 -128 0 -55 11 -63 101 -71 372 -32
467 -37 569 -32 148 7 163 12 155 46 -3 14 -85 186 -181 381 -268 540 -279
575 -279 875 0 186 12 300 41 398 6 20 27 22 43 4 15 -19 105 -19 151 -1 48
19 100 106 82 135 -14 23 1 69 22 69 8 0 28 11 44 25 17 14 37 25 46 25 9 0
16 8 16 20 0 19 5 21 70 18 39 -1 70 -3 70 -5 0 -2 -9 -12 -21 -24 -23 -23
-21 -38 4 -51 9 -4 24 -12 33 -16 15 -7 53 -108 54 -140 0 -7 -11 -17 -24 -21
-51 -20 -43 -65 16 -77 36 -8 42 -14 63 -64 15 -37 24 -84 28 -143 l5 -88 -32
-13 c-94 -39 -84 -173 14 -192 59 -12 87 -70 103 -212 4 -35 1 -47 -16 -62
-11 -11 -24 -20 -28 -20 -11 0 -49 -65 -49 -84 0 -9 16 -33 35 -53 39 -40 44
-70 19 -109 -12 -18 -15 -35 -9 -67 3 -23 9 -56 12 -73 8 -53 -34 -104 -128
-153 -44 -22 -90 -41 -103 -41 -50 0 -62 -58 -14 -71 15 -4 40 -16 57 -28 22
-16 44 -21 89 -21 84 0 88 -7 72 -123 -7 -50 -17 -101 -22 -111 -7 -13 -6 -31
2 -57 11 -34 10 -46 -9 -102 -14 -41 -21 -85 -20 -123 1 -32 1 -101 0 -153 -1
-55 3 -99 9 -105 15 -15 12 -35 -9 -62 -15 -20 -18 -31 -11 -55 5 -17 14 -37
20 -44 7 -8 9 -23 5 -34 -3 -11 -2 -28 4 -38 8 -15 27 -140 44 -293 2 -19 0
-47 -5 -61 -6 -17 -5 -41 1 -66 6 -22 13 -70 16 -109 3 -38 9 -86 13 -107 4
-21 5 -117 2 -214 l-5 -175 -49 -16 c-43 -15 -53 -24 -78 -70 -30 -57 -101
-156 -118 -167 -5 -3 -18 -34 -29 -69 -11 -34 -31 -79 -44 -99 -14 -21 -28
-56 -32 -80 -4 -23 -18 -63 -31 -89 -29 -58 -30 -68 -4 -68 24 0 26 -13 4 -34
-10 -11 -14 -29 -12 -53 3 -35 1 -38 -26 -43 -25 -4 -31 -13 -50 -70 -12 -36
-36 -86 -54 -112 -17 -26 -46 -82 -63 -124 -28 -71 -30 -84 -24 -149 5 -57 1
-99 -20 -206 -14 -74 -24 -148 -20 -165 3 -16 23 -49 45 -72 42 -44 44 -55 19
-123 -8 -21 -6 -33 11 -62 17 -28 20 -46 15 -75 -6 -35 8 -75 41 -121 12 -15
403 -65 444 -56 15 3 40 19 55 35 28 29 28 30 12 67 -9 21 -21 55 -27 75 -6
21 -16 40 -21 44 -5 3 -23 33 -40 66 -28 55 -31 71 -31 147 1 198 7 297 20
319 14 24 10 37 -11 37 -7 0 -13 10 -15 23 -2 12 1 22 7 22 7 0 9 14 5 39 -6
36 -2 44 33 88 43 52 233 328 233 338 0 25 70 99 125 134 93 59 140 109 148
157 10 61 8 124 -5 162 -12 32 -11 36 10 50 12 8 22 22 22 32 0 10 6 23 14 29
8 7 14 24 14 39 0 15 5 47 12 72 7 25 17 77 21 115 29 249 39 384 37 485 -2
63 1 122 7 130 5 8 9 71 10 140 l1 125 54 125 c32 75 55 143 56 170 20 296 34
370 71 370 15 0 15 -17 8 -177 -11 -257 -13 -298 -19 -503 -2 -102 -9 -205
-15 -230 -6 -28 -7 -148 -4 -313 l6 -269 -27 -21 c-26 -22 -26 -23 -15 -86 11
-62 11 -64 -15 -87 -14 -14 -28 -35 -30 -47 -6 -29 -19 -175 -19 -205 1 -16
-9 -28 -37 -42 -80 -41 -102 -117 -60 -200 11 -22 20 -52 20 -68 0 -15 7 -37
15 -48 25 -34 19 -117 -15 -184 -31 -61 -37 -107 -20 -140 22 -41 78 -258 73
-283 -8 -39 -18 -41 -66 -13 -24 14 -47 23 -50 19 -4 -3 -7 -23 -7 -43 0 -21
-11 -66 -24 -101 -13 -35 -27 -87 -31 -115 -6 -46 -3 -59 25 -114 17 -34 40
-96 51 -138 20 -80 21 -70 -8 -266 l-6 -39 33 6 c27 6 36 2 60 -23 23 -25 36
-30 72 -30 31 0 52 -6 68 -20 13 -11 28 -20 34 -20 6 0 33 -11 61 -24 106 -50
127 -56 188 -56 80 0 271 33 292 50 9 8 23 26 30 41 13 24 12 30 -4 50 -9 13
-28 45 -40 71 -13 27 -36 58 -53 70 -71 54 -156 141 -188 194 -34 56 -35 61
-33 154 1 84 4 104 27 146 28 53 32 107 16 199 -25 134 -25 134 2 163 37 40
43 53 103 257 37 126 55 205 55 242 0 59 7 95 50 248 33 114 55 252 47 292 -3
16 -10 55 -16 88 -6 33 -11 151 -12 262 -1 168 1 207 14 226 9 14 18 60 22
108 4 46 11 102 17 124 14 63 30 174 33 240 1 33 12 96 25 140 12 44 24 91 25
105 5 60 38 206 51 231 8 16 14 43 14 62 0 19 7 54 16 78 10 29 13 60 10 90
-6 44 -4 49 40 103 26 31 51 55 56 54 12 -4 63 -135 72 -184 9 -44 -1 -94 -19
-94 -7 0 -20 11 -29 25 -18 27 -41 33 -49 12 -2 -7 5 -37 17 -67 17 -42 33
-62 70 -88 42 -30 54 -33 88 -28 92 15 143 61 177 158 11 29 27 71 36 93 33
76 1 185 -89 299 -25 32 -46 63 -46 68 0 5 7 19 15 32 18 27 10 54 -19 66 -20
7 -68 110 -71 152 -1 10 -9 26 -19 37 -27 30 -34 82 -35 250 0 129 -3 160 -18
190 -10 20 -24 40 -30 44 -10 6 -10 14 1 36 13 24 13 31 1 48 -8 11 -28 23
-45 26 -20 5 -34 15 -40 32 -15 38 -12 81 5 95 25 21 18 57 -12 72 -20 10 -29
23 -34 49 -3 20 -15 49 -27 64 -13 16 -22 42 -22 59 1 47 -12 140 -20 151 -14
18 -28 88 -45 220 -8 72 -21 154 -27 182 -11 51 -10 54 16 78 21 20 25 30 20
52 -9 36 -8 36 -46 37 l-33 1 -6 65 c-3 36 -13 137 -22 225 -27 268 -38 430
-44 675 -3 129 -6 253 -7 275 -1 37 1 40 23 37 15 -3 21 0 16 8 -11 18 -15 64
-18 195 -3 107 -8 139 -43 273 -6 22 -51 14 -58 -10 -9 -34 -7 -38 9 -32 12 5
15 -2 15 -29 0 -44 -15 -87 -31 -87 -8 0 -9 14 -4 46 4 32 3 44 -4 39 -6 -3
-11 -11 -11 -17 0 -5 -18 -48 -40 -95 -23 -49 -40 -101 -40 -121 0 -27 -8 -42
-36 -69 -20 -19 -45 -50 -54 -68 -17 -33 -17 -34 1 -25 10 6 21 15 24 20 10
16 25 12 25 -7 0 -15 1 -15 18 1 18 15 20 15 36 -3 14 -15 15 -24 7 -40 -7
-12 -17 -18 -26 -15 -9 4 -16 0 -16 -7 -1 -8 -3 -21 -4 -29 -1 -8 -3 -21 -4
-28 -2 -22 -25 -8 -31 19 -6 24 -6 24 -23 -8 -9 -18 -17 -39 -17 -48 0 -20
-29 -78 -93 -185 -28 -46 -61 -109 -74 -140 -18 -44 -27 -55 -45 -55 -16 0
-25 8 -31 30 -5 17 -14 48 -21 70 -8 28 -9 61 -3 112 8 65 12 75 39 95 61 43
91 174 49 212 -14 13 -20 38 -25 113 -17 229 -118 356 -317 398 -79 17 -96 14
-189 -27 -80 -36 -122 -67 -149 -112 -24 -39 -46 -172 -43 -259 3 -71 -16 -74
-36 -6 -26 88 -28 88 -41 16 -6 -37 -11 -114 -10 -170 1 -72 -2 -109 -12 -124
-11 -18 -11 -29 -1 -56 25 -69 12 -81 -56 -51 -20 10 -57 20 -81 23 -45 6 -45
6 -62 65 -11 36 -30 72 -50 92 -24 24 -36 51 -50 111 -10 43 -19 93 -19 111 0
31 12 42 25 22 4 -6 16 -8 27 -5 12 4 27 0 37 -9 17 -16 19 -15 24 4 3 12 3
37 0 56 -6 36 10 47 35 22 9 -9 12 -8 12 5 0 9 -4 17 -10 17 -17 0 -62 81 -55
98 5 15 9 13 26 -8 11 -14 25 -37 31 -52 5 -16 16 -28 24 -28 10 0 11 6 4 26
-13 33 -13 34 4 34 8 0 24 -12 35 -27 36 -49 41 -53 64 -53 18 0 13 8 -33 55
-39 40 -51 58 -43 66 13 13 -12 57 -64 119 -18 20 -33 48 -34 61 -1 42 -62
171 -92 193 -27 20 -29 20 -55 4 -54 -34 -72 -42 -82 -32 -11 11 -37 120 -47
199 -7 50 -11 60 -29 63 -19 3 -22 -5 -33 -90 -7 -51 -24 -151 -37 -223 -13
-71 -42 -274 -64 -450 -48 -382 -79 -566 -131 -778 -36 -148 -119 -418 -137
-443 -9 -14 -81 -23 -180 -23 -40 0 -89 -5 -109 -12 -21 -7 -38 -8 -44 -2 -5
5 -16 43 -24 84 -8 41 -20 99 -26 129 -6 30 -13 65 -15 78 -3 13 -20 32 -39
43 -53 32 -99 161 -120 337 -4 41 -3 52 9 52 22 0 43 -41 71 -140 23 -83 68
-190 80 -190 2 0 -7 30 -19 68 -13 37 -29 108 -35 157 -27 214 -33 248 -52
307 -24 72 -108 242 -137 278 -17 21 -15 9 14 -75 18 -55 34 -119 34 -143 0
-60 -38 -131 -62 -116 -29 18 -87 213 -88 294 -1 54 -13 88 -125 345 -143 330
-346 835 -673 1675 -530 1360 -662 1693 -817 2055 -120 279 -185 400 -169 313z
m2918 -3810 c7 -58 -7 -138 -24 -138 -11 0 -14 203 -3 214 11 11 20 -14 27
-76z m159 -343 c1 -31 -2 -40 -16 -43 -25 -5 -47 16 -47 45 0 18 4 24 14 20 9
-4 17 2 21 15 10 29 25 9 28 -37z m1637 3 c0 -16 -4 -28 -10 -28 -5 0 -10 19
-10 43 0 31 3 38 10 27 5 -8 10 -27 10 -42z m-1785 -21 c17 -107 67 -239 119
-312 11 -16 28 -44 38 -61 9 -17 38 -59 65 -95 27 -35 56 -81 66 -101 16 -35
16 -39 0 -73 l-17 -36 33 -63 c37 -68 37 -86 1 -143 -15 -26 -26 -33 -51 -33
-17 0 -46 -7 -65 -16 -49 -24 -120 -107 -139 -163 -9 -27 -23 -52 -31 -55 -25
-10 -62 -7 -66 5 -2 6 2 58 9 117 6 59 17 204 24 323 12 209 9 328 -18 689 -6
77 -5 84 10 72 8 -7 18 -32 22 -55z m245 -113 c0 -8 -4 -14 -10 -14 -5 0 -10
9 -10 21 0 11 5 17 10 14 6 -3 10 -13 10 -21z m1358 -366 c-9 -14 -13 -36 -11
-55 6 -39 -3 -83 -18 -83 -6 0 -9 27 -8 66 2 51 7 72 21 86 25 25 35 16 16
-14z m-1582 -6083 c7 -27 -10 -55 -32 -55 -16 0 -18 19 -4 54 12 33 28 33 36
1z m1110 -42 c-10 -10 -19 5 -10 18 6 11 8 11 12 0 2 -7 1 -15 -2 -18z m-116
-558 c0 -8 -4 -15 -10 -15 -5 0 -10 7 -10 15 0 8 5 15 10 15 6 0 10 -7 10 -15z"/>
</g>
</svg>
