<?xml version="1.0" standalone="no"?>
<!DOCTYPE svg PUBLIC "-//W3C//DTD SVG 20010904//EN"
 "http://www.w3.org/TR/2001/REC-SVG-20010904/DTD/svg10.dtd">
<svg version="1.0" xmlns="http://www.w3.org/2000/svg"
 width="1038.000000pt" height="1280.000000pt" viewBox="0 0 1038.000000 1280.000000"
 preserveAspectRatio="xMidYMid meet">
<g transform="translate(0.000000,1280.000000) scale(0.100000,-0.100000)"
fill="#000000" stroke="none">
<path d="M4871 12519 c-18 -6 -51 -21 -72 -34 -21 -14 -60 -30 -86 -35 -147
-33 -295 -158 -375 -315 -88 -172 -93 -202 -93 -505 l1 -265 41 -161 c45 -176
63 -297 44 -308 -36 -23 -95 126 -72 182 13 32 6 55 -34 111 -14 19 -30 51
-35 72 -14 49 -96 122 -170 150 -30 11 -75 33 -100 49 -52 33 -132 50 -175 38
-17 -5 -62 -6 -101 -3 -55 5 -80 3 -110 -10 -21 -9 -55 -19 -74 -21 -19 -3
-44 -12 -55 -20 -11 -8 -41 -28 -66 -45 l-47 -31 0 -86 c0 -63 5 -92 15 -104
19 -21 10 -48 -15 -48 -10 0 -27 -7 -38 -15 -28 -21 -38 -19 -100 22 -51 34
-56 35 -71 20 -15 -15 -12 -23 40 -101 39 -58 66 -115 87 -181 24 -73 45 -113
86 -168 30 -40 54 -76 54 -80 0 -4 -6 -20 -14 -35 -7 -15 -38 -97 -69 -182
-54 -154 -83 -207 -164 -299 -17 -20 -58 -86 -91 -146 -70 -130 -119 -213
-143 -240 -9 -11 -27 -40 -39 -65 -12 -25 -29 -52 -36 -61 -8 -9 -17 -27 -19
-40 -3 -13 -12 -28 -22 -34 -30 -17 -72 -68 -75 -89 -2 -15 -25 -32 -78 -57
-56 -28 -99 -60 -170 -129 -52 -50 -111 -100 -130 -110 -41 -21 -107 -89 -247
-256 -56 -66 -124 -135 -150 -154 -26 -18 -90 -77 -141 -132 -52 -54 -100 -98
-108 -98 -7 0 -20 -13 -28 -28 l-15 -29 -178 -9 c-227 -11 -296 -10 -411 3
-71 8 -114 7 -185 -3 -119 -17 -177 -34 -184 -51 -12 -31 17 -38 145 -38 76 0
128 -4 130 -10 2 -5 -20 -18 -50 -28 -148 -50 -308 -130 -308 -154 0 -26 37
-34 82 -17 24 9 66 22 93 30 28 8 70 21 95 29 25 8 61 14 80 13 19 -1 59 2 88
6 44 7 52 6 52 -7 0 -10 -19 -25 -48 -37 -71 -31 -167 -132 -187 -195 -20 -68
-19 -75 11 -75 20 0 29 8 44 43 23 52 109 116 191 141 64 20 92 18 97 -7 3
-15 -23 -43 -75 -82 -34 -25 -50 -172 -23 -215 14 -22 40 7 40 44 0 116 113
192 398 266 105 27 155 45 188 68 24 18 53 32 64 32 20 0 100 47 185 111 65
48 447 249 473 249 12 0 34 17 51 39 22 28 59 53 125 86 52 25 104 58 117 72
13 14 45 35 70 48 25 13 51 31 59 40 7 9 28 22 46 30 18 7 35 23 39 34 3 12
18 28 33 36 15 7 44 33 64 57 21 24 57 66 82 93 24 28 60 80 81 118 34 62 56
80 69 58 8 -12 -13 -163 -24 -176 -12 -15 -32 -122 -31 -167 1 -37 -11 -50
-23 -25 -4 6 -4 2 -2 -10 2 -13 1 -23 -3 -23 -4 0 -13 -17 -19 -39 -15 -47
-15 -54 -2 -46 16 10 11 -10 -9 -36 -10 -13 -31 -53 -46 -89 -16 -36 -37 -75
-48 -87 -18 -20 -18 -23 -2 -57 20 -42 14 -71 -14 -63 -14 3 -24 -6 -40 -34
-12 -22 -26 -39 -31 -39 -12 0 -25 -48 -21 -73 1 -11 -3 -17 -11 -16 -7 1 -58
-41 -112 -93 -72 -71 -97 -101 -92 -113 4 -12 0 -18 -14 -22 -15 -4 -19 -11
-15 -24 4 -11 2 -19 -4 -19 -6 0 -11 -7 -11 -16 0 -9 -11 -47 -25 -85 -32 -89
-97 -174 -157 -205 -32 -16 -46 -29 -42 -38 3 -9 -18 -40 -54 -79 -72 -78
-129 -161 -137 -202 -5 -28 -5 -28 6 -7 17 32 29 27 23 -10 -52 -294 -84 -370
-206 -502 l-29 -31 17 37 c17 36 15 56 -4 44 -5 -3 -26 -30 -47 -60 -33 -48
-38 -64 -46 -143 -5 -48 -19 -176 -30 -283 -27 -249 -23 -307 30 -415 83 -171
129 -318 102 -334 -9 -6 -8 -16 3 -42 7 -19 17 -64 21 -101 3 -36 13 -88 21
-114 8 -27 14 -90 14 -150 0 -101 0 -102 -25 -108 -33 -8 -51 -51 -36 -84 17
-36 13 -58 -15 -91 -14 -17 -23 -34 -20 -39 13 -22 -22 -289 -55 -409 -10 -40
-19 -92 -19 -115 0 -33 -9 -56 -38 -100 -20 -31 -59 -94 -85 -140 -27 -46 -66
-108 -88 -138 -21 -30 -37 -60 -35 -67 3 -6 -6 -23 -20 -38 -13 -14 -24 -34
-24 -45 0 -10 -11 -32 -25 -48 -14 -17 -25 -39 -25 -50 0 -11 -11 -33 -24 -49
-35 -41 -63 -168 -64 -280 0 -51 -6 -109 -12 -129 -8 -23 -10 -63 -7 -104 4
-46 1 -75 -8 -93 -9 -18 -12 -49 -8 -104 4 -63 2 -86 -11 -112 -15 -27 -15
-38 -6 -61 7 -17 9 -38 4 -52 -8 -24 -13 -156 -12 -298 1 -128 0 -161 -7 -208
-5 -31 -3 -49 10 -68 16 -24 16 -27 -1 -45 -13 -15 -16 -29 -10 -74 5 -49 3
-60 -19 -93 -30 -43 -33 -62 -6 -38 13 12 21 14 26 6 7 -12 -9 -37 -37 -58
-10 -7 -18 -23 -18 -36 0 -12 -11 -37 -25 -56 -37 -51 -59 -124 -47 -160 8
-21 7 -41 -4 -77 -21 -66 -20 -246 2 -395 16 -105 16 -136 6 -256 -7 -76 -12
-167 -12 -203 0 -37 -7 -86 -15 -109 -20 -58 -19 -67 11 -82 20 -9 37 -37 64
-101 21 -48 50 -103 65 -123 41 -53 136 -110 239 -143 108 -34 179 -46 383
-62 189 -15 197 -13 213 66 18 88 0 154 -75 270 -23 34 -35 67 -39 105 -3 30
-19 102 -36 159 -36 125 -50 234 -50 401 0 69 -5 162 -10 207 -10 77 -7 105
15 181 5 16 3 22 -7 22 -8 0 -22 6 -31 13 -16 11 -17 25 -7 162 6 83 15 174
20 203 8 45 7 61 -9 95 -15 34 -17 53 -11 102 4 33 13 73 19 89 7 16 15 66 18
110 4 50 14 95 26 119 11 22 17 48 14 64 -3 15 -1 38 5 52 5 14 12 62 14 106
3 45 14 98 24 122 10 23 22 67 25 97 4 31 13 61 21 67 8 6 14 22 14 35 0 13
11 47 25 76 18 37 25 68 25 111 0 43 6 69 21 93 12 19 18 42 14 52 -3 12 8 43
30 82 22 40 33 70 29 82 -3 10 1 30 10 43 9 13 16 35 16 48 0 35 38 116 71
155 18 21 29 44 29 63 0 22 15 48 55 95 30 36 55 72 55 80 0 9 20 41 44 72 24
32 55 80 69 107 13 28 32 64 41 80 9 17 16 41 16 55 1 14 7 36 15 50 8 14 14
45 15 68 0 28 7 53 20 69 11 14 20 36 20 48 0 23 38 113 57 137 6 7 16 32 22
56 7 23 14 42 16 42 23 0 100 -42 143 -78 87 -73 113 -147 132 -377 6 -71 13
-148 16 -171 4 -37 -1 -49 -54 -131 -131 -199 -234 -405 -307 -614 -37 -106
-87 -292 -100 -366 -7 -42 -7 -42 32 -52 21 -6 102 -21 180 -33 l142 -22 0
-66 c-1 -36 -16 -144 -34 -240 -90 -472 -140 -830 -117 -830 6 0 13 4 16 9 3
4 21 105 40 222 34 208 44 259 120 609 20 91 41 190 47 220 6 30 17 75 24 100
8 25 19 92 25 149 6 58 12 106 14 109 3 2 36 -6 74 -19 38 -12 77 -19 86 -16
9 4 28 32 42 64 14 31 33 67 43 79 10 13 33 65 51 116 18 51 36 97 40 101 4 5
48 -4 98 -19 49 -15 96 -24 104 -21 8 3 29 40 47 83 18 44 41 88 51 99 10 11
41 67 68 125 l49 105 20 -44 19 -44 21 29 c11 16 28 45 38 64 9 19 28 44 41
55 28 24 97 159 92 181 -2 11 -21 -6 -55 -49 -48 -60 -143 -140 -143 -120 0 4
11 43 25 86 53 167 18 371 -76 438 -38 27 -47 19 -58 -53 -13 -78 -27 -106
-130 -268 l-92 -144 6 95 c3 51 2 108 -3 124 -13 45 -37 43 -61 -4 -11 -21
-77 -114 -146 -206 -68 -92 -142 -195 -162 -228 l-38 -62 -6 187 c-4 132 -9
191 -18 202 -8 9 -22 86 -32 173 -22 180 -44 265 -91 342 -29 48 -41 57 -98
81 -91 37 -123 53 -127 66 -2 5 11 32 28 58 30 44 68 156 69 200 0 14 -5 17
-24 12 -30 -7 -36 7 -36 86 0 34 -8 85 -17 115 -16 49 -16 59 0 140 9 49 23
117 32 153 8 36 22 103 30 150 8 47 29 139 45 205 16 66 43 203 60 305 17 101
33 187 36 189 3 3 13 0 22 -6 9 -6 63 -34 119 -62 111 -54 109 -52 194 -205
24 -44 88 -139 142 -210 53 -72 97 -137 97 -144 0 -14 -252 -142 -280 -142
-10 0 -23 -7 -30 -15 -17 -20 -116 -75 -137 -75 -10 0 -34 -21 -53 -47 -65
-86 -36 -169 63 -180 39 -5 83 7 288 77 235 80 245 82 308 76 76 -8 126 -29
148 -63 9 -13 60 -134 114 -269 94 -233 98 -246 90 -291 -8 -43 -7 -50 27
-100 27 -41 36 -66 37 -101 2 -51 13 -79 48 -128 12 -17 29 -50 36 -75 21 -72
38 -105 116 -229 41 -65 88 -149 105 -187 16 -37 39 -85 50 -105 11 -20 20
-45 20 -55 1 -10 8 -36 16 -58 9 -22 20 -71 25 -109 4 -37 14 -76 22 -85 8 -9
22 -36 31 -61 10 -25 24 -52 32 -61 17 -19 54 -111 62 -154 3 -16 18 -46 33
-65 15 -19 40 -59 54 -88 15 -29 51 -89 80 -133 29 -44 63 -107 74 -141 13
-38 33 -73 56 -95 19 -19 42 -48 51 -66 9 -18 41 -69 71 -114 41 -61 56 -93
57 -122 1 -21 7 -46 14 -54 19 -22 27 -128 24 -287 -3 -137 -2 -151 23 -220
14 -41 33 -115 40 -165 17 -109 38 -376 36 -464 -1 -35 4 -70 10 -77 16 -19
83 -18 99 2 11 12 10 24 -3 67 -16 51 -40 247 -32 255 8 8 22 -42 44 -151 52
-260 143 -408 322 -525 95 -61 165 -83 286 -89 l102 -6 29 30 c49 49 67 157
40 248 -6 22 -12 90 -12 150 l-1 110 -62 125 c-65 131 -118 276 -183 497 -45
153 -63 193 -89 193 -32 0 -68 37 -80 84 -6 24 -22 58 -36 74 -31 36 -95 187
-95 223 0 14 -7 48 -15 75 -8 27 -15 65 -15 84 0 19 -9 55 -20 79 -11 24 -20
50 -20 58 0 30 -41 186 -55 207 -8 11 -19 48 -24 81 -6 33 -15 78 -20 100 -5
22 -17 73 -26 114 -8 40 -22 86 -30 102 -8 15 -15 43 -15 62 0 36 -25 120 -46
152 -8 12 -17 54 -20 94 -5 56 -13 80 -31 101 -12 15 -23 38 -23 49 0 24 -72
200 -98 241 -32 51 -82 152 -82 168 0 9 -18 46 -40 83 -36 58 -42 77 -46 140
-3 41 -6 88 -8 104 -2 17 2 39 9 49 13 17 29 3 202 -171 184 -186 215 -213
376 -323 43 -30 103 -81 134 -114 93 -103 282 -273 403 -364 114 -86 536 -365
611 -404 22 -11 47 -17 57 -13 21 8 -13 40 -225 220 -78 65 -141 120 -139 122
1 2 106 -46 232 -106 249 -118 299 -135 357 -122 20 5 37 6 37 3 0 -3 -16 -20
-35 -38 -19 -17 -35 -36 -35 -42 0 -28 136 -75 253 -87 79 -8 77 -13 51 124
-9 47 -14 110 -12 141 5 50 2 58 -26 94 -17 21 -88 76 -157 121 -70 46 -129
87 -133 93 -3 5 8 40 25 76 17 36 29 73 27 83 -2 12 -23 25 -60 38 -40 13 -58
25 -60 38 -2 14 -38 35 -137 78 -74 32 -138 62 -144 68 -7 7 -6 15 3 26 19 23
6 31 -105 61 -54 14 -108 32 -120 40 -12 8 -68 27 -126 43 -144 41 -358 117
-377 134 -26 22 -153 97 -165 97 -31 0 -289 171 -268 178 5 2 20 -2 31 -8 35
-19 34 -4 -2 21 -62 44 -323 256 -342 278 -14 15 -16 25 -9 32 12 12 129 -13
288 -62 92 -29 370 -135 416 -159 10 -6 19 -8 19 -5 0 11 -182 95 -310 143
-134 50 -309 100 -425 122 -131 24 -160 34 -181 58 -21 23 -23 24 -45 8 -13
-9 -27 -16 -31 -16 -5 0 -8 60 -8 133 -1 132 -8 180 -49 332 -52 189 -65 215
-108 215 -18 0 -28 9 -39 35 -32 77 -37 73 209 175 465 193 1374 561 1469 596
36 12 38 12 86 -27 60 -47 97 -51 133 -13 13 14 40 34 60 46 19 11 42 30 50
43 8 12 35 45 60 73 41 45 58 55 165 95 65 25 148 50 183 58 36 7 106 34 158
61 52 26 187 84 301 128 179 70 213 81 248 75 28 -4 78 3 153 20 93 21 125 24
193 19 l81 -7 60 -61 c32 -34 72 -86 87 -116 30 -59 78 -109 124 -131 33 -16
39 -26 55 -86 13 -47 65 -92 135 -117 87 -31 181 -56 210 -56 18 0 50 -13 75
-30 24 -16 59 -32 78 -36 60 -11 160 2 216 29 28 14 75 32 104 42 97 31 131
75 138 178 2 34 14 86 25 115 42 109 17 238 -75 382 -19 28 -22 47 -20 96 3
61 8 74 71 174 52 82 74 165 74 277 0 109 -18 190 -62 277 -63 126 -153 215
-278 275 -73 35 -79 36 -200 38 -144 3 -197 17 -214 57 -6 15 -29 37 -51 49
-22 12 -45 33 -52 47 -6 14 -24 51 -38 83 -54 116 -200 237 -288 237 -16 0
-57 10 -92 22 -57 20 -68 21 -112 10 -26 -7 -60 -21 -74 -31 -14 -10 -49 -29
-77 -41 -29 -12 -67 -40 -87 -61 -38 -43 -85 -129 -85 -156 0 -10 -27 -73 -61
-141 -62 -121 -62 -122 -63 -211 -1 -86 0 -91 28 -120 26 -27 29 -38 27 -81
-2 -59 13 -123 40 -159 10 -14 29 -65 41 -113 l21 -88 -40 -57 c-30 -44 -63
-74 -138 -123 -59 -40 -108 -81 -125 -105 -24 -34 -47 -49 -156 -99 -72 -33
-165 -67 -209 -76 -45 -10 -96 -25 -115 -33 l-35 -15 28 -1 c17 -1 26 -5 22
-11 -8 -13 -172 -90 -192 -90 -17 0 -59 -21 -118 -60 -16 -11 -50 -28 -74 -37
l-44 -17 -94 97 c-76 80 -93 103 -93 128 0 21 -11 43 -31 67 -18 20 -48 72
-69 116 -20 45 -59 110 -86 146 -33 44 -72 118 -118 225 -89 207 -101 231
-141 271 -18 18 -48 62 -65 98 -18 36 -39 71 -46 77 -8 6 -14 18 -14 25 0 7
-32 46 -70 86 -63 64 -70 76 -69 107 1 21 -7 54 -19 78 -12 23 -22 53 -22 66
0 13 -14 106 -31 208 -16 101 -41 262 -54 357 -14 96 -27 177 -30 182 -3 5
-10 35 -16 67 -5 32 -17 80 -26 107 -13 40 -14 78 -8 232 l7 185 42 21 c78 40
125 81 183 162 32 44 84 109 115 143 72 78 70 95 -11 92 -51 -3 -59 0 -91 29
l-34 32 37 38 c20 21 37 47 37 57 0 11 9 31 20 45 24 31 25 43 2 101 -27 73
-153 189 -205 189 -8 0 -31 13 -51 29 -58 46 -88 52 -252 48 -125 -3 -158 -7
-206 -26 -41 -16 -58 -28 -62 -45 -4 -15 -21 -31 -50 -45 -50 -23 -56 -31 -65
-75 -4 -19 -14 -32 -25 -34 -16 -4 -18 1 -12 33 18 94 131 277 292 470 76 92
137 209 159 310 10 41 19 142 22 241 5 143 3 180 -12 230 -38 131 -125 245
-251 329 -70 46 -255 130 -331 150 -64 17 -131 18 -182 4z m-917 -1290 c37
-29 20 -39 -67 -39 -70 0 -87 10 -73 45 9 25 107 20 140 -6z m41 -68 c3 -5 1
-12 -4 -16 -14 -8 -62 5 -55 16 7 12 51 12 59 0z m1600 -387 c24 -16 35 -54
15 -54 -17 0 -117 47 -124 59 -11 18 81 13 109 -5z m-111 -30 c19 -7 21 -34 3
-34 -14 0 -37 20 -37 32 0 10 13 10 34 2z m-2199 -1413 c3 -5 1 -12 -5 -16 -5
-3 -10 1 -10 9 0 18 6 21 15 7z m2007 -171 c5 -25 17 -84 28 -132 11 -47 17
-94 14 -102 -10 -25 15 -145 43 -211 25 -59 42 -134 63 -270 16 -104 77 -263
127 -332 13 -17 23 -36 23 -41 0 -11 55 -82 123 -158 26 -30 47 -59 47 -64 0
-6 39 -47 86 -92 56 -54 87 -92 91 -111 4 -18 19 -37 42 -52 53 -34 310 -284
395 -384 l74 -88 -8 -86 c-5 -47 -11 -91 -15 -97 -4 -6 -10 -32 -13 -57 l-7
-45 -95 -43 c-988 -441 -1477 -655 -1499 -655 -11 0 -25 25 -45 83 -55 159
-118 304 -206 474 -96 186 -115 239 -125 348 -4 53 -2 75 8 90 11 14 12 23 3
37 -8 14 -7 25 6 50 18 34 23 91 12 144 -5 25 0 36 26 64 31 33 34 60 6 60 -7
0 -16 6 -19 13 -8 21 7 39 26 31 10 -3 17 -1 17 5 0 6 -5 11 -10 11 -24 0 -33
49 -20 106 11 47 11 57 0 64 -11 7 -9 16 12 47 22 33 25 47 21 86 -4 30 -1 52
7 62 10 12 10 15 -4 15 -9 0 -16 7 -16 15 0 8 8 15 18 15 23 0 42 19 42 43 0
16 -3 17 -15 7 -13 -10 -15 -9 -15 10 0 18 4 21 21 17 13 -4 22 0 25 11 3 9
10 25 15 34 5 10 9 25 9 33 0 9 16 31 36 49 27 25 35 38 30 54 -4 11 -2 23 4
27 5 3 10 1 10 -6 0 -21 38 21 49 54 10 29 9 30 -4 13 -20 -27 -32 -12 -15 19
14 26 30 33 30 14 0 -7 9 0 20 14 11 14 20 40 20 59 0 20 8 43 20 56 11 12 20
28 20 35 0 8 9 17 20 20 11 3 19 11 18 18 -2 8 6 15 18 17 11 1 28 16 37 32
10 16 31 38 47 50 16 11 40 45 55 75 25 54 38 65 50 45 12 -20 24 1 54 94 16
52 37 108 45 125 19 36 21 88 4 93 -10 4 -10 13 0 46 13 42 33 65 40 44 7 -23
24 -12 18 12 -4 15 -1 26 7 29 28 12 42 1 49 -43z m-194 -321 c-18 -11 -32 6
-24 28 7 17 8 17 22 -1 11 -16 11 -21 2 -27z m-1958 -189 c0 -20 -25 -38 -36
-27 -8 7 15 47 26 47 6 0 10 -9 10 -20z m-47 -96 c11 -11 -5 -34 -24 -34 -22
0 -24 11 -7 28 13 13 22 15 31 6z m5295 -256 c7 -7 12 -18 12 -25 0 -16 -129
-76 -148 -68 -29 11 -7 49 43 76 57 30 76 34 93 17z m17 -178 c13 -21 -44 -77
-90 -89 -57 -14 -55 -15 -55 12 0 22 24 65 44 79 16 11 94 10 101 -2z m111
-54 c3 -14 3 -30 -1 -36 -4 -6 -12 -44 -19 -83 l-12 -72 -54 -26 c-30 -16 -75
-51 -104 -82 -45 -48 -73 -66 -219 -137 -182 -88 -246 -103 -138 -32 35 23 70
42 78 42 16 0 89 44 121 73 12 12 22 32 22 48 0 44 31 182 46 206 8 14 28 24
51 28 60 10 117 33 159 65 48 36 62 37 70 6z m-4016 -240 c0 -3 -4 -8 -10 -11
-5 -3 -10 -1 -10 4 0 6 5 11 10 11 6 0 10 -2 10 -4z m-1995 -203 c-15 -26 -53
-114 -85 -195 -72 -182 -83 -201 -74 -133 13 106 37 192 69 245 38 62 105 143
112 136 3 -3 -7 -27 -22 -53z m6224 -235 c27 -18 64 -41 82 -51 32 -18 33 -20
15 -32 -10 -8 -15 -18 -12 -23 7 -11 -18 -34 -61 -56 -29 -14 -35 -14 -85 3
-74 26 -185 77 -218 101 -39 27 -71 25 -138 -10 -32 -16 -80 -33 -107 -36 -80
-10 -44 12 101 62 111 38 137 44 184 39 39 -3 69 0 105 14 70 26 79 25 134
-11z m189 -162 c5 -24 -14 -36 -60 -36 -72 0 -89 22 -35 45 44 20 91 15 95 -9z
m100 -58 c31 -31 -5 -57 -115 -85 -42 -10 -25 25 29 62 57 38 68 41 86 23z
m-2458 -243 c0 -8 -4 -15 -10 -15 -5 0 -10 7 -10 15 0 8 5 15 10 15 6 0 10 -7
10 -15z m-4324 -12 c-18 -62 -27 -184 -31 -448 -5 -259 -39 -851 -52 -895 -8
-27 -23 14 -29 82 -10 101 -52 235 -107 343 l-52 100 1 120 c2 138 51 450 79
506 18 34 173 206 188 208 5 1 6 -7 3 -16z m-86 -1409 c0 -14 -4 -23 -10 -19
-5 3 -10 15 -10 26 0 10 5 19 10 19 6 0 10 -12 10 -26z m3062 -588 c21 -29 58
-120 58 -143 0 -13 -7 -10 -30 12 -20 19 -30 39 -30 57 0 16 -7 44 -14 63 -17
40 -9 45 16 11z m394 -97 c9 -15 -6 -10 -42 12 -19 11 -34 25 -34 29 0 10 67
-26 76 -41z m-35 -356 c13 -16 12 -17 -3 -4 -10 7 -18 15 -18 17 0 8 8 3 21
-13z m1509 -467 c0 -23 -68 -76 -87 -69 -14 5 -9 13 26 45 46 41 61 46 61 24z
m-1065 -1889 c0 -26 -20 -25 -23 2 -3 16 1 22 10 19 7 -3 13 -12 13 -21z"/>
<path d="M2956 8478 c-28 -36 -27 -43 2 -34 12 4 22 18 24 36 3 17 3 30 2 30
-1 0 -14 -14 -28 -32z"/>
</g>
</svg>
