<?xml version="1.0" standalone="no"?>
<!DOCTYPE svg PUBLIC "-//W3C//DTD SVG 20010904//EN"
 "http://www.w3.org/TR/2001/REC-SVG-20010904/DTD/svg10.dtd">
<svg version="1.0" xmlns="http://www.w3.org/2000/svg"
 width="920.000000pt" height="1280.000000pt" viewBox="0 0 920.000000 1280.000000"
 preserveAspectRatio="xMidYMid meet">
<g transform="translate(0.000000,1280.000000) scale(0.100000,-0.100000)"
fill="#000000" stroke="none">
<path d="M1583 12471 c-186 -64 -285 -241 -285 -511 0 -222 85 -550 203 -786
43 -85 130 -206 136 -188 2 6 -8 36 -22 67 -88 201 -101 539 -25 664 67 110
169 62 295 -137 54 -85 56 -91 45 -124 -12 -36 -6 -77 15 -112 11 -18 9 -29
-16 -85 -15 -35 -29 -72 -29 -82 0 -9 -23 -78 -52 -153 -41 -107 -58 -139 -79
-151 -37 -22 -63 -82 -55 -126 5 -28 -13 -85 -110 -333 -88 -228 -122 -304
-141 -318 -14 -11 -32 -34 -39 -52 -11 -26 -22 -35 -49 -40 -19 -3 -39 -12
-45 -19 -14 -17 -40 -104 -40 -137 0 -15 -5 -38 -11 -52 -9 -19 -9 -40 -1 -80
11 -54 10 -57 -29 -143 l-41 -88 16 -52 c19 -59 36 -80 73 -89 30 -8 106 28
129 61 8 11 31 72 51 137 l36 116 36 -16 c20 -10 40 -23 44 -29 4 -7 28 -28
53 -47 25 -19 40 -37 35 -40 -16 -10 44 -106 67 -106 5 0 67 -111 137 -247 70
-137 140 -272 156 -301 22 -43 25 -57 17 -80 -8 -21 -5 -37 11 -74 12 -26 28
-53 36 -61 7 -8 33 -41 56 -73 38 -54 41 -56 36 -27 -6 30 1 24 92 -67 54 -54
118 -108 141 -120 l42 -22 -27 -28 -28 -29 -34 30 c-19 16 -38 27 -43 24 -19
-12 -103 -139 -131 -199 -104 -222 18 -492 264 -585 47 -17 91 -38 97 -46 7
-9 30 -15 55 -15 l42 0 6 -117 c4 -65 16 -161 28 -213 11 -52 25 -129 30 -170
18 -123 -7 -410 -43 -510 -30 -83 -35 -178 -12 -221 36 -69 23 -94 -127 -237
-213 -204 -338 -369 -453 -598 -44 -88 -71 -133 -85 -137 -23 -6 -81 -83 -81
-108 0 -10 -6 -22 -14 -26 -7 -4 -28 -37 -46 -72 -17 -35 -47 -87 -66 -116
-37 -56 -56 -125 -34 -125 7 0 10 -7 7 -17 -3 -10 -19 -67 -35 -128 -16 -60
-55 -174 -86 -253 -31 -79 -61 -166 -67 -194 -10 -47 -12 -49 -26 -29 -8 12
-23 21 -33 21 -27 0 -45 -68 -71 -275 -11 -93 -23 -173 -26 -178 -10 -16 -95
-47 -129 -47 -91 0 -107 113 -39 281 30 75 94 168 146 213 37 31 40 36 20 36
-63 0 -229 -128 -325 -251 -145 -185 -186 -397 -108 -562 29 -64 71 -117 90
-117 5 0 35 34 66 75 76 101 122 123 187 90 22 -12 28 -21 24 -38 -3 -12 -7
-53 -9 -90 l-3 -69 40 -29 c21 -16 55 -34 73 -41 19 -7 34 -19 34 -28 0 -52
-45 -292 -71 -380 -38 -131 -51 -162 -112 -277 -36 -70 -50 -107 -54 -150 -2
-32 -11 -75 -19 -96 -8 -20 -14 -49 -14 -62 0 -68 -124 -302 -203 -385 -83
-87 -104 -93 -311 -94 l-148 -1 -28 -34 c-33 -38 -47 -96 -29 -117 13 -16 179
-71 313 -104 70 -17 109 -21 175 -18 76 4 102 11 226 63 77 31 167 70 199 86
44 22 67 28 91 23 24 -4 55 4 121 31 184 75 274 142 274 202 0 53 -37 229 -59
278 l-21 46 21 28 c14 19 21 47 24 94 6 115 15 159 57 282 39 116 150 355 243
520 25 44 52 103 61 130 9 28 29 64 44 80 15 17 30 38 33 47 11 30 -19 296
-36 322 -17 25 -47 177 -47 234 0 29 13 46 103 134 56 55 157 145 223 199 119
96 164 147 164 186 0 18 66 92 73 82 4 -5 24 -181 72 -639 75 -715 158 -1348
236 -1815 32 -192 41 -225 68 -249 16 -14 22 -14 63 -1 25 9 60 31 78 50 31
32 32 37 28 94 l-4 61 55 21 c54 20 91 44 91 59 0 13 -123 -36 -148 -59 -18
-16 -22 -27 -17 -44 17 -56 17 -68 -1 -89 -19 -20 -88 -57 -110 -58 -14 0 -31
37 -40 87 -4 21 -15 50 -26 65 -15 22 -17 37 -12 95 5 53 1 101 -19 203 -30
161 -76 487 -122 875 -23 191 -30 288 -18 243 3 -13 18 -3 66 45 53 53 62 68
67 106 3 25 11 47 20 51 18 9 53 24 97 40 36 14 53 50 53 115 0 23 3 45 7 49
4 3 8 14 9 23 2 10 8 27 14 39 11 19 16 20 53 12 23 -5 62 -18 87 -30 50 -23
115 -25 194 -8 28 6 61 13 73 16 14 3 23 -2 27 -13 3 -10 3 2 1 27 -4 44 -4
45 6 11 6 -19 8 -43 5 -54 -2 -10 -2 -16 2 -12 3 3 16 -43 29 -102 12 -59 33
-133 47 -163 14 -30 28 -72 31 -93 3 -20 19 -52 34 -70 15 -17 31 -45 35 -62
4 -16 13 -37 21 -45 7 -8 15 -33 17 -55 7 -55 55 -289 74 -353 16 -57 95 -254
125 -313 l18 -36 -67 -65 c-37 -37 -89 -80 -116 -97 -45 -28 -58 -31 -133 -31
-73 0 -94 5 -183 40 -100 40 -210 62 -210 43 0 -6 25 -13 55 -17 30 -3 101
-24 157 -47 86 -34 114 -41 177 -41 68 -1 82 2 132 30 30 18 84 61 120 97 35
36 67 65 70 65 8 0 12 -9 55 -132 34 -99 68 -259 85 -403 6 -49 29 -137 59
-225 44 -129 49 -150 39 -180 -6 -19 -14 -82 -19 -140 -6 -78 -16 -127 -40
-190 -17 -47 -44 -132 -60 -190 -16 -58 -36 -124 -45 -148 -12 -34 -13 -52 -5
-80 19 -69 8 -66 227 -59 109 4 224 10 257 14 53 5 59 9 71 37 18 44 35 240
39 446 2 152 6 184 26 240 22 62 28 148 19 280 -1 19 2 80 6 135 7 94 6 104
-20 175 -37 102 -55 254 -47 410 l6 125 70 60 c90 77 202 162 241 183 23 12
65 16 175 18 80 1 160 7 179 13 19 6 37 8 42 6 4 -3 10 -1 14 5 4 6 11 7 17 4
7 -5 8 -2 4 5 -6 8 -2 11 10 9 12 -2 18 2 16 11 -2 9 3 11 13 7 10 -3 14 -2
10 5 -4 6 1 9 11 7 11 -2 18 2 17 9 -1 6 4 14 13 17 10 4 13 1 9 -7 -4 -6 0
-4 8 5 8 10 18 14 22 10 5 -4 4 -1 0 7 -6 11 -4 13 7 8 9 -3 24 3 34 14 9 10
13 19 9 19 -5 0 0 6 10 14 11 8 23 12 27 10 4 -2 24 16 44 40 21 25 41 43 45
40 4 -2 19 11 35 28 15 18 31 33 36 33 5 0 16 9 24 20 8 11 19 20 25 20 6 0
19 11 30 25 12 14 18 18 14 10 -4 -8 5 -3 19 13 14 15 28 27 31 28 2 0 10 2
17 4 7 2 40 6 73 8 53 3 51 3 -20 5 l-80 2 -85 -67 c-47 -37 -132 -108 -190
-158 -182 -157 -327 -225 -453 -210 -32 3 -90 3 -129 -1 -62 -6 -79 -12 -143
-56 -40 -27 -113 -83 -161 -125 l-89 -76 -12 143 c-13 160 -26 226 -82 421
-53 183 -72 230 -131 316 l-50 75 -11 141 c-8 97 -8 182 -2 267 10 118 10 121
13 50 2 -56 4 -66 9 -40 9 51 35 50 154 -10 99 -51 104 -52 165 -46 46 4 87
17 150 48 48 23 98 43 112 44 14 1 53 10 88 20 61 16 63 16 118 -5 32 -12 79
-38 106 -57 l48 -36 48 38 c26 21 78 69 115 107 58 59 66 71 55 85 -7 10 5 1
25 -17 43 -40 51 -56 10 -20 l-28 24 24 -27 c13 -15 27 -25 32 -23 4 3 79 -57
166 -133 196 -171 395 -340 536 -456 59 -49 107 -91 107 -93 0 -3 -30 -42 -67
-87 -37 -44 -69 -83 -71 -86 -2 -2 -27 -8 -55 -12 -50 -6 -49 -6 15 -4 67 2
112 23 106 50 -2 6 2 12 7 14 18 6 45 35 43 46 -2 6 2 13 7 14 21 7 36 26 31
39 -10 25 34 -6 184 -131 250 -206 349 -295 536 -478 142 -138 189 -178 220
-187 21 -6 42 -11 46 -11 20 0 104 106 144 184 96 184 175 262 289 286 32 7
83 24 111 38 l52 25 14 76 c11 55 13 98 7 156 -17 176 9 245 171 450 71 91
111 152 186 287 6 10 -164 94 -299 148 l-122 49 -12 43 c-6 24 -12 102 -12
175 -1 95 -7 156 -22 220 -29 124 -28 123 -55 133 -58 23 -246 52 -507 80
-709 76 -1111 153 -1532 292 -214 71 -632 231 -732 279 -206 101 -411 252
-524 386 -98 117 -135 171 -233 343 -89 155 -114 183 -251 286 -132 98 -127
95 -187 129 -77 44 -136 109 -180 201 -59 122 -66 181 -45 377 26 233 36 284
68 353 16 34 29 69 29 77 0 8 9 34 19 58 10 24 42 100 71 168 52 125 99 214
85 161 -4 -14 -11 -29 -16 -35 -5 -5 -8 -20 -8 -35 1 -20 2 -21 6 -5 3 11 12
29 19 40 13 17 14 13 15 -40 l1 -60 13 48 c15 54 25 70 26 41 0 -10 10 22 23
71 12 50 27 99 33 110 6 11 16 36 21 55 18 63 13 -4 -8 -126 -14 -78 -17 -120
-11 -132 9 -15 10 -15 9 3 -1 53 22 157 41 181 l21 27 0 -26 c0 -14 -5 -29
-11 -32 -6 -4 -8 -14 -5 -22 3 -8 2 -12 -3 -9 -10 7 -21 -17 -21 -42 1 -15 2
-15 11 1 6 9 15 14 21 11 7 -4 8 -2 4 4 -4 7 -3 12 2 12 6 0 13 16 16 35 11
59 25 48 22 -19 -2 -51 -10 -76 -40 -130 -20 -37 -31 -64 -25 -60 8 4 9 -1 4
-17 -14 -45 51 47 75 106 34 83 35 59 2 -31 -16 -44 -32 -97 -36 -119 -6 -38
-5 -38 17 15 13 30 35 72 50 93 14 20 45 86 68 147 24 60 45 108 47 106 3 -4
-18 -99 -63 -281 -3 -11 -7 -50 -9 -86 -3 -36 -8 -79 -12 -95 -5 -24 -4 -27 7
-16 8 7 12 28 11 50 -2 24 0 32 6 24 9 -13 25 48 74 285 12 57 23 101 25 99 2
-2 -5 -57 -16 -122 -10 -66 -22 -141 -26 -169 -9 -76 -27 -155 -37 -161 -4 -3
-8 -11 -8 -17 0 -7 8 -1 18 13 20 29 42 37 42 15 0 -8 -5 -14 -11 -12 -6 1
-14 -4 -16 -11 -4 -11 -1 -12 15 -3 19 10 35 45 24 55 -3 3 -11 1 -19 -5 -7
-6 -13 -8 -13 -3 0 13 20 41 20 29 0 -5 11 8 25 30 37 59 64 156 72 254 5 58
9 76 13 56 5 -28 7 -26 24 28 11 36 16 70 12 89 -3 18 -3 29 0 25 4 -4 13 -2
20 4 17 14 43 -77 51 -179 6 -86 -9 -158 -53 -245 -13 -26 -19 -45 -13 -41 6
3 26 37 44 75 18 37 35 66 38 63 9 -10 41 142 41 202 l1 62 35 -3 c45 -3 70
-14 70 -30 0 -20 21 -30 30 -15 5 9 12 4 21 -15 12 -22 42 -38 170 -89 85 -35
187 -82 226 -104 39 -23 83 -46 97 -52 15 -5 52 -26 84 -47 56 -36 60 -37 169
-41 l112 -4 11 -50 c42 -200 -218 -272 -338 -94 l-32 48 0 -38 c0 -89 101
-234 201 -289 44 -24 64 -28 125 -28 62 0 83 5 137 31 62 31 207 155 207 177
0 6 -24 25 -54 44 -99 62 -104 131 -12 185 49 29 87 70 107 115 8 18 26 35 44
42 191 70 292 99 343 100 31 0 66 4 77 8 26 11 205 -77 227 -111 9 -13 46 -37
83 -53 62 -26 70 -27 94 -14 38 22 37 43 -6 90 l-38 42 42 -22 c47 -23 93 -27
111 -9 23 23 14 72 -18 103 -34 33 -32 43 9 37 20 -3 35 2 50 17 30 30 27 65
-9 91 -34 24 -38 38 -12 47 30 11 52 35 52 60 0 33 -45 77 -73 69 -11 -3 -26
-1 -33 5 -6 5 -43 13 -82 18 -74 9 -95 17 -177 69 -81 51 -105 52 -158 3 -30
-28 -53 -41 -73 -41 -36 0 -126 -34 -164 -62 -21 -15 -53 -23 -122 -30 -116
-11 -321 0 -371 20 -41 16 -76 14 -220 -13 -52 -9 -94 -12 -100 -7 -7 4 -32
14 -57 22 -100 29 -136 42 -165 60 -16 9 -48 23 -70 30 -56 18 -71 31 -49 43
13 8 5 15 -44 38 -33 16 -77 48 -98 71 -43 47 -45 44 59 73 32 9 55 19 53 24
-3 4 -31 18 -63 29 -52 19 -123 71 -123 90 0 4 20 18 45 31 25 13 44 29 42 34
-3 10 -86 35 -122 37 -12 1 -54 39 -105 96 -101 114 -177 174 -286 225 -74 35
-83 42 -98 82 -34 90 -14 162 57 199 36 20 56 23 147 22 92 -1 117 -5 207 -36
165 -56 271 -133 333 -242 28 -49 29 -49 36 -22 36 146 -201 439 -464 571
-121 60 -205 78 -372 79 -80 1 -161 -2 -180 -7 l-35 -7 -87 152 c-47 84 -111
203 -141 263 -30 61 -69 129 -86 152 -53 73 -158 179 -198 198 -21 11 -59 37
-85 58 -72 58 -110 71 -213 71 -166 0 -303 -62 -428 -194 -85 -90 -130 -162
-170 -273 -27 -74 -30 -97 -34 -237 -7 -207 21 -557 53 -688 18 -72 52 -149
90 -198 12 -17 36 -54 52 -81 l29 -50 -49 -34 c-56 -37 -91 -76 -82 -91 3 -5
8 -37 10 -71 4 -60 2 -64 -24 -79 -15 -9 -48 -35 -74 -57 -42 -37 -51 -41
-100 -41 -29 0 -67 -4 -85 -9 -28 -8 -34 -6 -47 15 -22 32 -21 34 22 35 29 0
33 2 17 9 -27 11 -73 60 -93 101 -12 23 -35 42 -78 63 -44 22 -103 71 -205
169 -151 144 -339 345 -339 362 0 14 -62 81 -79 87 -8 2 -61 86 -117 187
l-104 183 122 302 c105 261 126 305 157 332 34 30 36 35 37 100 1 58 9 89 53
199 29 72 59 137 66 145 7 8 15 24 19 36 3 11 22 28 42 37 l36 18 65 -53 c78
-64 144 -148 174 -226 19 -46 23 -77 24 -157 0 -119 -17 -166 -91 -245 -74
-79 -149 -88 -267 -31 -31 15 -57 25 -57 22 0 -16 77 -100 123 -134 102 -77
226 -120 347 -121 114 -1 165 18 230 83 106 108 142 223 141 461 0 165 -16
289 -52 398 -23 71 -19 69 -141 50 -60 -9 -83 -9 -106 1 -54 22 -111 92 -168
204 -55 107 -55 109 -41 145 16 42 13 57 -15 89 l-20 22 27 70 c20 51 26 77
20 98 -5 15 -7 34 -6 40 3 23 -18 50 -49 63 -28 11 -34 10 -80 -21 -27 -19
-52 -41 -55 -50 -3 -9 -22 -24 -43 -33 l-38 -17 -69 40 c-146 85 -191 160
-230 381 -14 80 -28 155 -31 168 -9 44 -99 55 -191 23z m1332 -2826 c8 -55 18
-113 20 -130 5 -26 4 -25 -9 7 -20 51 -46 242 -32 227 3 -3 12 -49 21 -104z
m64 -255 c11 -24 11 -24 -3 -6 -9 11 -16 24 -16 30 0 12 5 7 19 -24z m2924
-887 c-7 -2 -21 -2 -30 0 -10 3 -4 5 12 5 17 0 24 -2 18 -5z m-1503 -71 c0
-15 -2 -15 -10 -2 -13 20 -13 33 0 25 6 -3 10 -14 10 -23z m107 -29 c-3 -10
-5 -2 -5 17 0 19 2 27 5 18 2 -10 2 -26 0 -35z m-92 -106 l-16 -32 5 40 c3 22
6 49 7 60 0 16 3 14 11 -8 8 -22 6 -35 -7 -60z m242 41 c-3 -8 -6 -5 -6 6 -1
11 2 17 5 13 3 -3 4 -12 1 -19z m-310 -30 c-3 -7 -5 -2 -5 12 0 14 2 19 5 13
2 -7 2 -19 0 -25z m420 -50 c-3 -8 -6 -5 -6 6 -1 11 2 17 5 13 3 -3 4 -12 1
-19z m-166 -156 c-9 -59 -35 -132 -46 -132 -2 0 2 21 10 48 7 26 19 76 26 112
16 83 24 61 10 -28z m-281 -62 c-6 -11 -13 -20 -16 -20 -2 0 0 9 6 20 6 11 13
20 16 20 2 0 0 -9 -6 -20z m217 -57 c-3 -10 -5 -4 -5 12 0 17 2 24 5 18 2 -7
2 -21 0 -30z m-2752 -3101 c-10 -10 -16 -12 -13 -7 3 6 8 19 13 30 5 14 9 16
12 7 3 -8 -3 -21 -12 -30z m6258 -72 c9 -47 18 -153 20 -236 l3 -152 -23 9
c-13 5 -132 41 -266 80 -133 39 -243 72 -245 74 -2 2 20 25 48 51 35 33 75 58
121 75 44 17 95 49 146 90 79 65 163 113 174 101 4 -4 14 -45 22 -92z m-2383
-475 c30 -30 52 -55 49 -55 -2 0 -29 25 -59 55 -30 30 -52 55 -49 55 2 0 29
-25 59 -55z m2631 -91 c63 -4 111 -14 147 -30 28 -13 52 -26 52 -29 0 -20
-106 -185 -172 -267 -42 -53 -93 -121 -111 -152 -19 -31 -36 -54 -38 -51 -3 2
-5 -4 -6 -13 -1 -9 -6 -39 -12 -67 -5 -27 -8 -93 -6 -145 3 -67 1 -82 -4 -50
-6 34 -8 38 -9 16 -2 -25 -4 -27 -18 -15 -9 8 -25 32 -35 54 -10 22 -29 56
-41 75 -13 20 -32 50 -43 68 -11 17 -25 32 -31 32 -7 0 -11 6 -11 13 1 6 -7
29 -18 50 -12 24 -15 41 -9 47 10 10 184 -46 195 -63 9 -13 26 -1 32 22 3 14
-17 40 -78 99 -148 144 -149 147 -114 304 30 131 51 157 107 129 9 -5 41 -13
71 -19 52 -9 54 -8 34 7 -66 52 -72 59 -27 28 47 -32 61 -36 145 -43z m-4574
-206 c-3 -8 -6 -5 -6 6 -1 11 2 17 5 13 3 -3 4 -12 1 -19z m10 -40 c-3 -8 -6
-5 -6 6 -1 11 2 17 5 13 3 -3 4 -12 1 -19z m4420 -640 c-3 -7 -5 -2 -5 12 0
14 2 19 5 13 2 -7 2 -19 0 -25z m-10 -65 c-3 -10 -5 -4 -5 12 0 17 2 24 5 18
2 -7 2 -21 0 -30z m-2217 -46 c0 -2 -10 -12 -22 -23 l-23 -19 19 23 c18 21 26
27 26 19z m-80 -70 c0 -2 -12 -14 -27 -28 l-28 -24 24 28 c23 25 31 32 31 24z
m-90 -81 c0 -2 -8 -10 -17 -17 -16 -13 -17 -12 -4 4 13 16 21 21 21 13z"/>
<path d="M8218 4233 c12 -2 30 -2 40 0 9 3 -1 5 -23 4 -22 0 -30 -2 -17 -4z"/>
<path d="M8328 4223 c12 -2 30 -2 40 0 9 3 -1 5 -23 4 -22 0 -30 -2 -17 -4z"/>
<path d="M2914 8959 c-19 -22 -19 -22 4 -8 12 8 22 17 22 21 0 12 -6 9 -26
-13z"/>
<path d="M4201 8064 c0 -11 3 -14 6 -6 3 7 2 16 -1 19 -3 4 -6 -2 -5 -13z"/>
<path d="M3449 2338 c4 -28 6 -29 9 -9 2 13 0 27 -5 32 -6 6 -7 -3 -4 -23z"/>
<path d="M3462 2275 c0 -16 2 -22 5 -12 2 9 2 23 0 30 -3 6 -5 -1 -5 -18z"/>
<path d="M3292 2210 c0 -19 2 -27 5 -17 2 9 2 25 0 35 -3 9 -5 1 -5 -18z"/>
<path d="M3473 2205 c0 -22 2 -30 4 -17 2 12 2 30 0 40 -3 9 -5 -1 -4 -23z"/>
<path d="M3302 2120 c0 -19 2 -27 5 -17 2 9 2 25 0 35 -3 9 -5 1 -5 -18z"/>
</g>
</svg>
