<?xml version="1.0" standalone="no"?>
<!DOCTYPE svg PUBLIC "-//W3C//DTD SVG 20010904//EN"
 "http://www.w3.org/TR/2001/REC-SVG-20010904/DTD/svg10.dtd">
<svg version="1.0" xmlns="http://www.w3.org/2000/svg"
 width="961.000000pt" height="1280.000000pt" viewBox="0 0 961.000000 1280.000000"
 preserveAspectRatio="xMidYMid meet">
<g transform="translate(0.000000,1280.000000) scale(0.100000,-0.100000)"
fill="#000000" stroke="none">
<path d="M4105 12359 c-33 -11 -102 -41 -154 -66 -75 -37 -112 -64 -188 -136
-104 -100 -131 -139 -164 -241 -19 -60 -21 -83 -16 -175 10 -189 68 -363 181
-536 47 -71 54 -89 46 -105 -6 -11 -14 -20 -18 -20 -4 0 -16 -7 -26 -15 -18
-14 -18 -16 8 -55 l27 -41 -40 -46 c-23 -25 -96 -98 -163 -162 -125 -118 -219
-233 -344 -421 -134 -202 -163 -267 -269 -590 -37 -113 -105 -293 -150 -400
-46 -107 -96 -238 -113 -290 -16 -52 -48 -139 -71 -193 -29 -69 -40 -107 -36
-125 5 -27 -89 -225 -262 -552 -73 -137 -117 -258 -138 -380 -9 -49 -24 -125
-35 -167 -11 -43 -36 -175 -55 -293 -19 -118 -44 -253 -55 -300 -25 -111 -34
-230 -25 -325 6 -63 11 -80 32 -100 25 -23 26 -26 19 -112 -3 -48 -20 -176
-37 -283 -16 -107 -34 -260 -38 -340 -10 -164 -10 -161 -120 -435 -54 -131
-85 -224 -92 -270 -18 -121 -92 -363 -138 -454 -29 -56 -38 -123 -18 -139 26
-22 61 21 123 153 32 70 60 122 62 116 4 -11 -102 -331 -123 -371 -16 -32 -35
-129 -28 -147 9 -23 38 -14 74 24 54 58 66 81 166 328 l94 230 -5 -140 c-19
-479 -19 -555 -1 -562 10 -3 25 -2 34 4 26 16 80 134 91 198 25 153 39 280 45
398 8 150 21 161 48 41 10 -43 30 -119 44 -169 14 -49 34 -136 44 -192 36
-192 68 -240 113 -163 18 30 21 49 18 138 -1 56 -12 171 -23 255 -26 192 -35
363 -20 400 14 36 63 57 152 64 l68 6 33 -36 c18 -20 52 -57 75 -84 144 -164
134 -155 176 -150 42 6 67 22 67 43 0 18 -110 194 -121 194 -5 0 -18 19 -30
42 -12 23 -47 75 -78 117 -105 139 -196 265 -228 316 -40 64 -63 150 -63 240
0 119 48 450 82 560 17 55 48 163 68 240 21 77 59 212 85 300 25 88 49 180 52
205 4 25 26 91 50 146 47 111 81 229 88 314 5 49 13 106 30 222 3 21 12 44 21
52 8 8 17 36 20 63 4 32 15 57 32 76 14 15 42 54 61 86 20 33 61 97 93 143 61
90 194 325 320 566 l81 154 17 -54 c10 -29 20 -72 24 -96 7 -48 49 -138 66
-144 8 -2 5 -29 -9 -85 -22 -85 -26 -233 -12 -403 4 -45 1 -99 -6 -135 -7 -33
-15 -94 -18 -135 -4 -41 -17 -104 -31 -140 -55 -151 -66 -215 -69 -394 -2 -94
-8 -189 -14 -211 -13 -51 -14 -160 -1 -204 5 -19 20 -45 32 -58 19 -21 23 -35
23 -96 -1 -174 -31 -475 -60 -586 -68 -266 -135 -770 -135 -1021 0 -89 -21
-384 -55 -755 -13 -148 -29 -351 -35 -450 -5 -99 -15 -229 -20 -290 -6 -60
-11 -204 -11 -320 -2 -193 1 -224 30 -391 39 -226 63 -321 156 -604 47 -144
87 -290 111 -405 l37 -180 -27 -145 c-14 -80 -26 -155 -26 -167 0 -28 38 -57
100 -78 48 -16 49 -16 43 -53 -3 -20 -11 -59 -19 -86 -8 -27 -14 -61 -14 -76
0 -14 -29 -87 -66 -161 -60 -123 -65 -138 -59 -179 4 -25 11 -53 16 -62 14
-25 56 -44 115 -52 28 -3 76 -13 107 -21 85 -22 224 -22 267 0 89 46 140 109
140 174 0 14 -11 61 -25 104 -29 89 -31 124 -11 171 12 28 13 79 7 283 -7 232
-9 252 -31 297 -21 45 -22 56 -16 155 3 58 15 158 26 221 l20 115 -4 -160 c-4
-170 7 -175 18 -9 4 54 16 171 26 259 53 447 50 698 -11 944 l-21 83 22 97
c12 53 64 249 115 436 51 187 118 446 150 575 177 725 268 1086 294 1171 20
63 49 125 87 185 96 152 105 177 98 266 -5 60 -3 81 9 98 15 22 16 22 26 -16
23 -89 52 -221 91 -424 244 -1270 250 -1298 369 -1779 44 -177 81 -337 82
-355 1 -17 -4 -74 -11 -126 -8 -62 -10 -153 -7 -260 6 -177 15 -250 52 -460
28 -155 56 -428 48 -480 -3 -19 -21 -89 -40 -154 -42 -145 -40 -167 29 -211
l46 -30 -5 -91 c-4 -64 -1 -98 7 -115 17 -30 14 -84 -5 -139 -22 -62 -19 -115
13 -205 24 -69 32 -82 62 -97 43 -22 88 -23 116 -3 19 12 24 12 40 0 26 -20
48 -18 69 5 14 15 22 17 37 9 20 -11 58 -4 58 11 0 5 12 4 26 -2 22 -10 28
-10 39 5 7 10 19 15 28 11 10 -3 25 8 43 32 25 32 29 45 27 95 -2 46 -13 78
-58 169 -30 62 -55 124 -55 138 0 13 -7 50 -15 82 -14 52 -26 269 -26 450 1
66 24 193 41 220 7 12 12 12 22 2 20 -20 25 -14 33 36 3 26 28 119 56 207 113
370 137 506 138 775 1 480 -7 923 -20 1020 -14 102 -17 716 -5 955 3 57 1 77
-4 55 -6 -28 -7 -22 -7 35 0 58 1 64 8 35 13 -57 1 391 -16 556 -8 84 -24 198
-35 255 -11 57 -31 176 -44 264 -14 88 -48 268 -76 399 -27 132 -50 244 -50
249 0 21 28 -15 40 -53 20 -59 28 -49 18 23 -16 108 -51 192 -236 567 -164
335 -232 488 -232 526 0 7 16 35 36 61 55 72 129 235 169 373 30 101 99 284
122 323 6 10 39 -36 142 -198 46 -71 155 -236 244 -365 88 -129 169 -254 179
-277 10 -23 22 -82 27 -130 7 -71 24 -130 84 -301 65 -183 82 -220 116 -257
22 -24 49 -62 61 -85 33 -65 98 -252 140 -405 21 -77 39 -130 39 -118 2 46 19
30 31 -30 7 -34 36 -173 65 -308 50 -231 57 -253 109 -358 42 -83 71 -127 114
-169 31 -32 66 -69 78 -82 11 -14 48 -51 82 -82 50 -46 62 -63 62 -88 0 -43
37 -112 57 -108 9 2 21 21 28 43 l11 40 13 -65 c10 -56 10 -70 -3 -102 -49
-116 20 -218 92 -139 69 75 70 79 78 173 l7 89 38 -37 c22 -21 39 -46 39 -57
0 -10 -27 -44 -60 -75 -60 -58 -74 -87 -44 -99 13 -5 30 -2 98 19 6 2 14 -13
19 -32 10 -40 33 -70 54 -70 19 0 33 43 33 105 0 54 1 55 40 75 22 11 47 31
56 44 18 28 12 45 -37 106 -56 70 -126 166 -153 210 -15 25 -71 88 -124 140
-86 84 -296 308 -329 351 -7 9 -17 49 -23 90 -13 94 -41 422 -36 426 5 6 54
-256 71 -384 15 -109 34 -175 55 -188 17 -11 23 44 7 78 -17 36 -32 146 -47
352 -6 77 -13 151 -15 165 -3 14 -10 86 -15 159 -6 74 -15 140 -19 145 -5 6
-12 22 -16 36 -4 14 -16 37 -26 51 -25 36 -59 164 -59 224 0 64 18 161 36 196
26 51 -19 368 -78 549 -31 95 -62 146 -144 230 -39 41 -88 100 -107 130 -69
110 -189 368 -295 635 -65 163 -138 352 -168 435 -34 92 -35 98 -28 195 l6
101 -40 49 c-45 57 -176 185 -189 185 -4 0 -31 20 -58 45 -28 25 -53 45 -58
45 -4 0 -26 17 -50 38 -23 21 -62 52 -87 69 -43 29 -123 109 -182 181 -27 32
-139 92 -201 107 -16 4 -38 20 -49 35 -30 41 -99 82 -231 138 -176 75 -183 82
-157 159 19 52 -11 162 -84 308 -36 72 -68 140 -71 152 -4 13 -25 46 -47 74
-22 28 -44 67 -50 85 -5 19 -22 49 -37 67 -15 17 -41 57 -57 87 -41 78 -182
214 -284 275 -76 46 -89 50 -139 48 -46 -2 -63 3 -93 23 -68 48 -156 56 -253
23z m1150 -1330 c11 -17 -1 -21 -15 -4 -8 9 -8 15 -2 15 6 0 14 -5 17 -11z
m1726 -2241 c16 -29 2 -21 -22 15 -17 23 -18 28 -6 18 10 -8 23 -23 28 -33z
m-1291 -198 c-6 -11 -13 -20 -16 -20 -2 0 0 9 6 20 6 11 13 20 16 20 2 0 0 -9
-6 -20z m-61 -86 c-15 -16 -25 -21 -28 -13 -2 7 4 18 15 26 30 22 39 15 13
-13z m450 -1510 c9 -36 10 -76 5 -113 l-7 -56 -7 40 c-13 70 -20 196 -12 191
5 -3 14 -31 21 -62z m158 -1286 c-2 -13 -4 -5 -4 17 -1 22 1 32 4 23 2 -10 2
-28 0 -40z m-670 -3605 c-3 -10 -5 -2 -5 17 0 19 2 27 5 18 2 -10 2 -26 0 -35z"/>
</g>
</svg>
