<?xml version="1.0" standalone="no"?>
<!DOCTYPE svg PUBLIC "-//W3C//DTD SVG 20010904//EN"
 "http://www.w3.org/TR/2001/REC-SVG-20010904/DTD/svg10.dtd">
<svg version="1.0" xmlns="http://www.w3.org/2000/svg"
 width="1017.000000pt" height="1280.000000pt" viewBox="0 0 1017.000000 1280.000000"
 preserveAspectRatio="xMidYMid meet">
<g transform="translate(0.000000,1280.000000) scale(0.100000,-0.100000)"
fill="#000000" stroke="none">
<path d="M3854 12480 c-101 -14 -146 -37 -220 -108 -89 -86 -157 -183 -183
-260 -23 -67 -28 -186 -11 -257 5 -22 14 -101 21 -175 6 -74 17 -152 24 -175
13 -40 13 -39 14 43 1 62 4 83 14 79 7 -2 12 -22 12 -48 1 -51 53 -201 95
-274 16 -27 44 -79 63 -115 36 -67 69 -108 121 -148 25 -19 31 -32 37 -85 4
-37 3 -69 -3 -80 -5 -11 -11 -52 -12 -92 -2 -110 -31 -134 -187 -160 -51 -8
-113 -21 -138 -29 -25 -8 -99 -17 -163 -20 -99 -4 -118 -3 -118 9 0 20 37 42
82 50 22 4 35 12 32 17 -11 17 -123 -1 -206 -33 -198 -77 -313 -226 -358 -464
-11 -60 -28 -134 -36 -164 -9 -29 -20 -93 -24 -142 -5 -48 -12 -94 -16 -100
-4 -7 -7 -69 -6 -138 1 -104 -3 -142 -22 -216 -54 -204 -96 -319 -169 -458
-73 -140 -104 -214 -94 -223 3 -3 51 18 107 46 65 33 105 49 111 43 26 -26
-98 -243 -139 -243 -9 0 -26 -10 -39 -22 l-24 -22 -582 293 c-320 162 -591
302 -602 312 -11 10 -32 22 -48 28 -15 6 -31 19 -34 28 -4 10 -27 39 -52 65
-50 52 -122 84 -169 75 -38 -7 -71 12 -80 47 -8 28 -14 32 -68 43 -146 30
-479 91 -482 89 -1 -2 66 -68 150 -146 84 -79 174 -164 201 -189 45 -43 49
-45 78 -34 30 12 79 1 79 -18 0 -4 12 -22 27 -39 38 -45 104 -71 188 -74 39
-1 84 -8 100 -14 56 -23 1196 -597 1201 -604 11 -16 -37 -97 -100 -170 -36
-42 -118 -128 -182 -190 -177 -171 -184 -179 -259 -277 -85 -112 -154 -221
-202 -319 -31 -64 -36 -88 -45 -190 -5 -67 -15 -123 -23 -132 -14 -17 -55
-132 -55 -156 0 -37 34 -85 81 -114 27 -16 49 -36 49 -43 0 -17 56 -125 78
-149 8 -10 27 -18 43 -18 15 0 51 -11 81 -25 73 -34 92 -33 85 4 -6 26 -1 32
64 76 48 34 68 53 64 64 -7 25 48 152 83 189 27 28 31 42 37 110 9 113 21 158
70 249 65 123 109 185 211 297 115 127 172 181 180 173 3 -3 -8 -61 -25 -129
-50 -202 -56 -260 -55 -553 1 -302 15 -442 64 -631 21 -81 27 -120 21 -137
-12 -31 13 -156 45 -223 14 -30 24 -69 24 -96 0 -47 31 -147 75 -247 l27 -59
-76 -283 c-93 -351 -187 -680 -349 -1224 -69 -231 -155 -523 -191 -650 -62
-220 -176 -674 -176 -700 0 -28 128 -48 345 -53 230 -5 237 -6 335 -77 77 -55
125 -66 345 -76 110 -5 256 -19 325 -31 69 -11 165 -24 215 -27 l90 -6 2 -85
c5 -122 19 -179 63 -253 49 -81 64 -142 55 -230 -5 -54 -3 -70 9 -83 19 -18
21 -71 5 -111 -6 -15 -15 -71 -19 -124 -7 -85 -12 -106 -49 -175 -22 -44 -82
-133 -132 -199 -110 -145 -243 -337 -293 -424 -20 -35 -55 -118 -78 -184 -33
-96 -39 -128 -34 -164 9 -65 44 -139 83 -173 44 -39 91 -39 283 0 167 34 278
69 331 105 51 33 86 109 101 215 6 47 21 108 33 135 13 28 30 71 39 97 26 71
85 156 180 258 93 102 121 148 111 187 -3 14 -1 58 5 97 6 39 14 152 18 251
l7 180 25 3 c50 7 109 94 99 146 -4 16 -6 16 -31 -4 -16 -12 -38 -20 -50 -18
-20 3 -23 10 -26 51 -3 50 17 104 74 194 36 59 14 57 -67 -7 -66 -51 -89 -60
-89 -36 0 26 51 171 92 258 23 49 38 91 35 94 -3 3 -22 -17 -43 -46 -48 -67
-61 -56 -44 37 11 60 57 228 75 276 4 9 3 17 -2 17 -6 0 -34 -45 -64 -101 -58
-108 -84 -134 -105 -105 -15 21 -20 14 -29 -41 -4 -24 -11 -45 -16 -49 -23
-14 -32 66 -40 344 -4 161 -14 345 -21 410 -7 64 -12 176 -11 247 2 137 175
1850 187 1863 11 10 36 -27 29 -44 -3 -8 4 -26 16 -38 27 -28 61 -133 61 -185
0 -22 9 -50 23 -71 25 -37 52 -119 61 -184 3 -21 12 -46 20 -55 20 -23 45 -94
61 -176 23 -112 41 -170 64 -201 15 -21 23 -50 27 -103 3 -41 11 -86 19 -101
7 -14 55 -65 105 -113 66 -63 111 -96 165 -122 65 -32 78 -42 104 -88 17 -29
42 -91 57 -137 94 -302 158 -441 301 -655 110 -166 129 -206 111 -235 -17 -26
18 -143 81 -276 37 -78 55 -105 77 -115 24 -12 34 -28 57 -99 15 -47 29 -101
31 -122 2 -20 14 -56 28 -80 33 -56 86 -236 98 -331 5 -45 25 -114 49 -174 66
-164 85 -323 67 -559 -10 -121 2 -200 33 -228 21 -20 194 -60 326 -77 114 -14
148 -5 282 71 94 54 113 72 113 105 0 40 -52 189 -108 310 -30 66 -72 170 -92
230 -21 61 -56 160 -78 220 -23 61 -51 160 -62 220 -27 145 -42 192 -94 305
-43 92 -86 225 -86 263 0 11 -8 31 -19 45 -22 32 -71 262 -71 336 0 34 -7 61
-20 81 -12 18 -20 47 -20 73 0 23 -5 42 -11 42 -13 0 -4 -87 17 -171 16 -63
18 -99 7 -99 -5 0 -23 19 -42 41 -30 36 -38 60 -68 198 -19 86 -45 228 -59
316 -26 172 -86 410 -134 531 -43 107 -103 223 -175 339 -66 104 -67 107 -115
332 -18 84 -37 117 -94 165 -18 15 -40 46 -49 70 -18 49 -81 278 -97 353 -6
28 -17 59 -24 70 -25 39 -56 215 -80 455 -22 217 -44 344 -91 533 -16 64 -37
104 -27 52 5 -31 -13 -33 -29 -3 -6 12 -33 106 -60 209 -60 233 -86 310 -159
469 -32 69 -54 129 -50 134 9 9 743 -360 749 -377 6 -16 39 -46 120 -107 39
-30 80 -69 91 -87 14 -24 27 -32 52 -35 30 -3 33 -7 39 -42 9 -56 25 -63 97
-41 18 6 22 3 22 -13 0 -44 63 -70 90 -37 17 21 23 19 42 -15 23 -40 60 -40
98 0 15 17 34 30 41 30 26 0 1065 -533 1096 -562 22 -22 44 -32 77 -35 39 -5
49 -11 66 -40 23 -40 72 -63 118 -56 30 5 32 3 32 -24 0 -16 7 -39 15 -51 15
-21 17 -21 41 -6 27 18 48 9 59 -27 11 -33 40 -41 83 -23 l40 15 128 -65 c82
-40 142 -78 163 -101 26 -28 39 -35 55 -30 74 23 75 22 51 -60 -20 -64 -22
-197 -5 -310 12 -84 18 -96 76 -185 57 -87 100 -133 247 -265 25 -22 52 -39
62 -37 9 2 39 -4 67 -14 52 -17 67 -12 68 23 0 6 3 18 6 27 4 11 -5 20 -35 32
-23 9 -41 21 -41 28 0 6 13 34 28 61 25 46 30 50 62 48 19 -2 73 -6 120 -9
143 -10 235 28 338 142 l60 66 63 -33 c35 -19 65 -42 67 -51 2 -10 -6 -31 -17
-47 -12 -16 -21 -36 -21 -44 0 -13 40 -47 54 -47 3 0 19 20 36 45 25 37 36 45
62 45 31 0 31 0 13 20 -18 20 -18 23 6 98 20 66 24 96 23 207 0 86 -6 149 -16
186 -33 116 -170 298 -278 369 -19 13 -45 34 -58 47 -13 12 -34 23 -47 23 -13
0 -46 9 -72 19 -167 66 -404 44 -565 -50 -67 -39 -180 -141 -209 -188 -19 -31
-49 -22 -49 13 0 29 -25 46 -69 46 -32 0 -289 122 -303 144 -4 6 -8 21 -8 33
0 36 -28 56 -67 48 -41 -7 -63 7 -63 41 0 18 -5 24 -23 24 -13 0 -32 -7 -43
-15 -27 -21 -43 -18 -49 8 -9 33 -55 57 -110 57 -40 0 -51 5 -79 34 -21 23
-45 37 -71 42 -41 7 -988 475 -1000 494 -3 5 8 30 25 55 18 26 37 73 46 112 9
38 22 95 29 128 12 51 12 83 0 211 -22 235 -47 286 -245 504 -192 212 -389
528 -409 658 -4 28 -16 60 -25 71 -9 10 -14 25 -10 35 11 28 -6 107 -24 112
-9 3 -23 9 -30 12 -13 7 -131 350 -132 380 0 18 22 14 50 -9 14 -11 50 -37 81
-59 30 -21 80 -59 110 -85 29 -25 55 -42 57 -37 1 5 -16 49 -39 98 -99 216
-131 301 -154 414 -43 218 -58 453 -41 673 8 108 7 119 -9 131 -15 11 -17 21
-12 61 5 33 1 71 -14 129 -25 99 -114 305 -164 380 -52 79 -138 154 -223 194
-70 33 -76 34 -167 30 -52 -2 -97 -7 -101 -11 -4 -3 -1 -13 5 -21 10 -12 8
-19 -8 -35 -17 -17 -33 -21 -88 -21 -126 1 -281 24 -311 47 -39 29 -69 87 -75
149 -3 30 -13 69 -22 87 -13 24 -19 76 -25 202 -10 203 1 307 35 345 47 52 65
104 65 190 0 81 -7 107 -40 145 -10 12 -20 45 -23 81 -23 225 -245 530 -430
589 -54 17 -158 24 -223 15z m-734 -1974 c0 -7 -7 -19 -16 -27 -22 -18 -58
-94 -74 -154 -44 -173 -51 -188 -105 -241 -42 -41 -55 -61 -65 -103 -14 -59
-24 -67 -64 -51 l-28 10 7 82 c4 45 18 112 31 149 13 38 24 77 24 86 0 34 58
138 97 176 38 36 139 86 176 87 9 0 17 -6 17 -14z m1822 -997 c73 -345 136
-589 217 -834 59 -180 88 -312 72 -328 -16 -16 -14 -67 3 -86 8 -9 35 -99 61
-201 63 -251 100 -357 188 -545 95 -201 121 -280 147 -439 21 -131 20 -166 -7
-166 -8 0 -231 109 -495 242 -396 199 -482 246 -490 267 -6 14 -13 72 -16 128
-5 101 -4 102 19 107 13 2 50 10 82 17 l57 12 0 51 c-1 28 2 88 6 133 5 68 3
85 -10 98 -14 15 -14 19 6 45 12 17 18 33 15 37 -15 14 -84 33 -124 33 -69 0
-73 4 -73 75 0 54 -3 65 -20 70 -26 8 -35 56 -34 175 0 90 8 151 39 320 8 41
26 149 40 240 41 260 48 278 179 479 45 69 85 134 89 144 14 36 31 10 49 -74z
m4113 -3797 c28 -11 51 -26 53 -33 1 -8 -13 -39 -31 -69 -24 -40 -39 -54 -53
-52 -10 1 -47 7 -81 14 -83 15 -177 -1 -261 -43 -55 -29 -96 -65 -155 -138
-13 -16 -24 -20 -40 -15 -28 8 -57 33 -57 49 0 7 -9 24 -21 39 -24 30 -24 31
50 109 74 78 155 120 306 161 47 12 240 -2 290 -22z m168 -83 c32 -17 146
-130 163 -162 21 -40 13 -53 -40 -60 -25 -4 -56 -9 -68 -12 -18 -4 -38 8 -90
58 l-68 64 27 61 c28 64 38 70 76 51z m-226 -122 c14 -14 10 -25 -38 -111 -29
-53 -58 -96 -66 -96 -7 0 -41 11 -75 24 -35 13 -97 31 -137 40 -41 9 -79 20
-84 23 -13 8 52 72 98 96 74 38 116 47 204 43 57 -3 88 -9 98 -19z m156 -88
c29 -30 30 -32 13 -45 -21 -15 -103 -30 -113 -21 -6 7 14 64 30 85 15 20 36
14 70 -19z m-684 -55 c20 -15 22 -22 16 -58 -4 -22 -10 -72 -14 -111 l-6 -70
-65 -37 c-89 -52 -95 -45 -95 105 1 140 12 168 69 173 21 2 41 6 44 9 9 9 27
5 51 -11z m946 -24 c9 -15 -7 -32 -52 -57 -45 -25 -63 -19 -66 23 -2 27 1 29
38 35 64 10 73 10 80 -1z m-683 -38 c57 -19 72 -38 36 -47 -25 -6 -150 45
-164 66 -9 15 55 6 128 -19z m514 -17 c7 -19 14 -39 14 -44 0 -12 -41 -34 -97
-54 -36 -12 -44 -12 -74 4 -19 9 -42 26 -52 37 -15 16 -15 21 -3 31 13 11 159
59 184 60 7 1 20 -15 28 -34z m-602 -11 c57 -32 62 -40 36 -54 -18 -10 -28 -6
-66 25 -70 58 -53 75 30 29z m842 -36 c14 -44 7 -203 -11 -261 -25 -80 -32
-84 -104 -51 -80 35 -84 42 -67 91 8 22 17 69 20 104 3 35 5 65 6 66 0 4 134
72 142 73 4 0 10 -10 14 -22z m-902 -32 c9 -13 7 -20 -9 -32 -11 -8 -29 -13
-40 -12 -15 2 -20 10 -18 32 4 53 10 60 35 44 12 -8 27 -22 32 -32z m236 -46
c0 -5 -11 -10 -25 -10 -14 0 -25 5 -25 10 0 6 11 10 25 10 14 0 25 -4 25 -10z
m210 -10 c0 -5 -11 -10 -25 -10 -14 0 -25 5 -25 10 0 6 11 10 25 10 14 0 25
-4 25 -10z m243 -39 c0 -18 -5 -37 -10 -42 -12 -12 -63 27 -63 46 0 18 30 35
55 32 16 -2 20 -9 18 -36z m-545 -6 c29 -20 50 -40 47 -45 -7 -12 -163 -60
-194 -60 -27 0 -60 65 -42 83 12 12 109 55 126 56 6 1 34 -15 63 -34z m451
-41 c29 -24 41 -54 23 -54 -15 0 -102 60 -102 70 0 19 49 10 79 -16z m-55 -34
c106 -47 76 -69 -40 -30 -97 33 -91 30 -70 46 27 19 35 18 110 -16z m-630 -13
c13 -37 -2 -47 -71 -47 -66 0 -69 15 -10 52 51 32 69 31 81 -5z m479 -31 c35
-13 98 -32 140 -41 48 -11 77 -22 77 -30 0 -20 -58 -65 -120 -93 -93 -43 -290
-40 -290 4 0 17 64 139 88 167 20 22 29 22 105 -7z m-243 -41 c0 -28 -30 -75
-47 -75 -20 0 -63 38 -63 56 0 14 47 31 88 33 14 1 22 -5 22 -14z m-127 -80
c31 -30 57 -60 57 -67 0 -25 -49 -118 -62 -118 -47 0 -208 166 -196 202 4 11
86 34 128 37 8 0 41 -24 73 -54z m-3149 -151 c19 -18 20 -30 6 -39 -15 -9 -40
14 -40 36 0 23 13 24 34 3z m-530 -620 c24 -35 15 -53 -12 -26 -22 22 -30 52
-13 52 5 0 16 -12 25 -26z m661 -1237 c18 -29 23 -69 9 -74 -11 -4 -24 23 -39
75 -8 29 10 29 30 -1z"/>
<path d="M6041 3319 c0 -13 4 -33 9 -44 7 -14 8 -8 3 20 -7 46 -13 59 -12 24z"/>
</g>
</svg>
