<?xml version="1.0" standalone="no"?>
<!DOCTYPE svg PUBLIC "-//W3C//DTD SVG 20010904//EN"
 "http://www.w3.org/TR/2001/REC-SVG-20010904/DTD/svg10.dtd">
<svg version="1.0" xmlns="http://www.w3.org/2000/svg"
 width="927.000000pt" height="1280.000000pt" viewBox="0 0 927.000000 1280.000000"
 preserveAspectRatio="xMidYMid meet">
<g transform="translate(0.000000,1280.000000) scale(0.100000,-0.100000)"
fill="#000000" stroke="none">
<path d="M4064 12628 c7 -77 16 -107 47 -172 22 -43 39 -87 39 -98 0 -10 6
-29 14 -41 19 -28 68 -204 64 -226 -2 -9 1 -20 8 -26 6 -5 28 -57 49 -114 36
-96 37 -105 23 -128 -10 -17 -40 -35 -85 -53 -86 -33 -212 -119 -265 -180 -22
-25 -79 -113 -128 -196 -49 -82 -94 -155 -100 -161 -13 -16 -59 -17 -96 -3
-26 10 -27 11 -22 90 3 45 10 86 18 95 11 13 11 18 1 24 -10 6 -10 40 -3 162
8 116 8 156 -1 161 -20 13 -144 9 -154 -4 -6 -7 -13 -60 -16 -117 -4 -56 -12
-109 -18 -117 -8 -10 -9 -18 0 -28 15 -18 3 -196 -14 -203 -7 -2 -48 2 -90 10
-43 9 -83 13 -90 11 -6 -3 -49 9 -96 26 -95 36 -86 34 -199 31 l-85 -2 90 -44
c74 -37 100 -45 146 -45 68 0 170 -19 186 -34 15 -14 29 -533 18 -700 -7 -117
-7 -118 -36 -135 -25 -14 -29 -22 -29 -59 0 -29 5 -45 15 -48 8 -4 15 -12 15
-19 0 -19 -32 -28 -46 -13 -6 7 -139 247 -295 533 -156 285 -293 530 -304 543
-21 24 -22 24 -56 7 -57 -30 -89 -56 -89 -73 0 -10 133 -259 295 -555 162
-296 295 -541 295 -545 0 -5 -15 -23 -34 -41 -55 -53 -62 -82 -36 -130 24 -42
47 -53 91 -44 24 4 31 0 53 -36 47 -74 81 -150 71 -160 -27 -26 -235 -103
-290 -108 -128 -12 -331 -9 -358 6 -15 8 -29 12 -31 10 -2 -2 29 -42 70 -88
41 -46 74 -90 74 -97 0 -15 -80 -27 -192 -28 -46 -1 -78 -5 -78 -11 0 -6 105
-90 233 -187 127 -97 249 -194 269 -215 l37 -38 -12 -83 c-8 -63 -8 -115 2
-218 l13 -134 -25 -53 c-48 -99 -61 -156 -62 -267 -1 -58 -5 -118 -9 -133 -10
-34 -56 -60 -91 -51 -20 5 -33 0 -51 -17 -22 -21 -37 -24 -112 -27 -61 -2
-109 2 -159 16 -78 20 -85 14 -20 -19 70 -36 148 -59 221 -65 93 -9 113 -25
110 -94 -2 -28 -8 -66 -14 -86 -7 -20 -9 -54 -6 -79 17 -112 -135 -460 -218
-497 -32 -14 -110 -130 -121 -179 -3 -15 -17 -37 -31 -50 -14 -13 -35 -39 -47
-59 -12 -19 -35 -53 -52 -75 -17 -23 -39 -63 -49 -89 -17 -45 -17 -49 -2 -58
25 -14 20 -26 -28 -72 -24 -24 -49 -60 -56 -82 -7 -21 -21 -50 -31 -63 -11
-13 -19 -29 -19 -35 0 -7 -11 -27 -24 -45 -30 -40 -51 -120 -37 -134 6 -6 11
-18 11 -27 0 -8 -46 -100 -102 -205 -55 -104 -105 -209 -109 -233 -9 -45 -94
-165 -112 -159 -5 1 -43 54 -84 117 -119 186 -130 200 -156 200 -23 0 -97 -77
-97 -101 0 -7 49 -90 110 -184 60 -95 110 -178 110 -186 0 -8 -10 -30 -22 -49
-18 -29 -21 -48 -20 -114 2 -48 8 -89 17 -105 8 -14 23 -54 34 -88 19 -63 40
-96 99 -159 17 -19 32 -38 32 -43 0 -5 18 -27 40 -49 43 -42 85 -54 208 -56
l54 -1 245 -380 c134 -209 266 -415 292 -458 l49 -77 -44 -176 c-25 -96 -42
-179 -39 -183 2 -5 20 -12 39 -15 19 -4 38 -12 44 -19 11 -13 -52 -372 -103
-595 -47 -201 -102 -329 -171 -393 -35 -32 -54 -71 -54 -110 0 -25 -11 -44
-50 -85 -45 -47 -50 -58 -50 -97 0 -41 -4 -48 -44 -80 -39 -33 -44 -42 -51
-92 -5 -47 -12 -59 -42 -84 -26 -22 -39 -43 -49 -82 -8 -29 -20 -57 -28 -61
-8 -5 -29 -20 -45 -34 -30 -25 -31 -29 -31 -102 0 -92 -10 -133 -44 -172 -19
-23 -36 -79 -76 -247 -29 -120 -86 -351 -127 -513 -58 -230 -76 -321 -84 -415
-8 -98 -34 -234 -65 -337 -5 -17 17 -18 373 -18 l378 0 23 78 c13 42 84 201
157 352 73 151 174 363 224 470 51 107 110 225 132 261 37 63 40 72 50 185 13
155 14 158 54 203 23 25 37 52 41 80 5 32 20 58 55 99 29 33 53 72 60 96 5 23
12 49 15 58 3 9 19 29 37 44 42 35 56 61 57 106 0 26 9 47 35 78 19 23 37 57
40 78 15 96 30 137 99 277 41 83 142 288 225 457 102 207 157 309 170 313 33
10 71 53 71 80 0 34 76 171 118 214 31 30 33 38 28 74 -7 45 7 75 57 117 37
32 40 75 7 100 l-23 18 58 93 c71 113 146 256 170 324 23 64 36 78 102 115 62
35 97 84 146 204 32 81 95 161 120 153 7 -2 28 -30 47 -62 19 -32 50 -67 68
-78 36 -22 35 -17 62 -187 28 -172 27 -181 -15 -223 -35 -35 -36 -37 -35 -114
1 -43 1 -96 1 -118 0 -182 6 -295 18 -309 13 -15 16 -90 11 -281 -3 -130 7
-292 19 -313 9 -17 13 -77 14 -200 1 -171 0 -179 -27 -251 -23 -60 -26 -78
-17 -98 16 -36 13 -68 -10 -108 -24 -40 -21 -70 13 -116 19 -25 20 -33 11 -64
-10 -32 -8 -42 19 -93 22 -42 28 -66 24 -90 -3 -20 2 -49 13 -75 12 -27 15
-49 10 -62 -14 -36 -9 -83 13 -137 19 -47 22 -80 29 -293 7 -223 27 -457 65
-750 20 -157 38 -223 81 -308 35 -71 70 -191 93 -325 l13 -72 302 0 303 0 4
153 c3 85 1 160 -4 171 -27 52 -4 636 28 712 7 18 18 53 24 79 9 40 8 49 -5
59 -14 10 -14 25 0 156 15 143 36 286 57 386 17 82 -24 302 -66 357 -12 15
-11 25 1 68 14 46 13 55 -2 95 -13 35 -15 51 -6 76 16 44 13 77 -8 124 -16 35
-17 48 -8 82 9 35 7 50 -19 123 -27 78 -29 94 -27 215 l1 131 42 74 c23 40 46
97 52 126 9 43 15 53 31 53 20 0 20 0 -1 23 -14 15 -22 36 -22 57 0 19 -5 82
-12 141 l-12 107 37 70 c21 39 43 99 50 134 12 55 16 63 35 61 27 -3 28 7 2
30 -16 13 -20 29 -20 74 1 32 5 77 9 100 9 45 5 56 -21 66 -10 3 -18 13 -18
22 0 9 -9 34 -20 56 -12 22 -19 43 -17 47 3 4 12 97 22 207 15 172 20 204 39
230 16 24 22 49 26 119 3 49 10 91 16 93 5 2 21 -20 35 -49 16 -35 34 -58 53
-67 16 -7 47 -33 69 -57 73 -78 134 -92 225 -49 30 14 57 25 61 25 4 0 505
-505 1114 -1122 609 -618 1134 -1145 1167 -1173 91 -76 232 -144 218 -106 -10
29 -275 301 -1287 1319 -619 624 -1130 1140 -1134 1149 -6 9 -1 32 11 61 11
27 23 84 26 132 7 80 5 91 -29 190 -49 144 -73 237 -91 355 -17 113 -33 180
-76 314 -19 58 -31 121 -33 165 -1 39 -10 87 -18 106 -8 19 -25 76 -37 125
-12 50 -28 100 -36 112 -9 14 -12 37 -8 65 5 41 1 76 -32 248 -8 41 -19 116
-24 165 -9 91 -35 195 -48 195 -4 0 -17 8 -29 18 -19 14 -31 53 -68 214 -48
209 -56 297 -29 318 30 26 37 51 24 91 -11 34 -11 44 5 79 21 47 14 133 -13
163 -13 14 -18 43 -20 112 -5 115 1 124 113 200 44 29 101 72 125 94 l45 40
-109 -54 c-60 -30 -121 -55 -136 -55 l-27 0 5 70 c3 52 0 82 -13 116 -9 25
-15 55 -11 67 3 12 -4 40 -16 65 -21 40 -21 48 -10 120 6 42 29 120 50 172 38
93 63 188 79 300 l8 55 88 6 c81 6 91 9 117 35 30 31 210 382 254 497 31 78
44 183 27 215 -6 11 -23 27 -38 34 -23 11 -29 22 -35 62 -9 64 -26 80 -96 86
l-57 5 -3 250 c-1 138 2 310 7 383 l10 133 58 70 c32 39 68 84 80 101 31 44
25 53 -94 134 -29 20 18 34 145 43 103 7 127 13 194 43 43 19 75 38 71 42 -3
3 -46 6 -94 6 -68 0 -106 -6 -166 -26 -43 -14 -93 -24 -110 -22 -18 2 -33 1
-33 -2 0 -4 -12 -7 -27 -7 -44 0 -186 -23 -208 -33 -27 -12 -150 -35 -260 -50
-49 -7 -102 -16 -117 -20 -16 -5 -30 -5 -33 0 -7 11 -49 6 -88 -9 -34 -13 -47
-7 -47 22 -1 12 -9 56 -19 97 -10 41 -17 77 -15 79 2 3 16 -6 31 -20 30 -27
26 -18 -29 64 -37 55 -39 61 -37 125 4 76 -3 92 -34 93 -44 1 -86 25 -126 73
-31 36 -40 53 -35 70 17 58 127 306 136 306 6 0 8 6 5 14 -10 26 65 236 83
236 6 0 10 11 10 25 0 22 17 60 75 165 12 23 39 189 32 197 -9 8 -117 -167
-117 -189 0 -36 -62 -213 -114 -327 -25 -54 -68 -161 -96 -237 -27 -76 -56
-144 -64 -152 -11 -11 -23 -7 -74 26 -162 105 -405 150 -567 106 -33 -9 -71
-19 -85 -21 -14 -3 -44 -14 -67 -26 -23 -12 -45 -18 -49 -15 -3 4 -30 76 -59
160 -29 84 -72 206 -95 272 -23 65 -50 155 -59 200 -12 58 -29 103 -61 158
-25 43 -47 78 -50 78 -3 0 -1 -42 4 -92z m-406 -1464 c12 -4 22 -13 22 -20 0
-17 -59 -164 -72 -178 -4 -6 -8 35 -8 90 0 56 3 104 7 107 8 8 21 9 51 1z
m2460 -100 c1 -44 -1 -90 -5 -102 -12 -32 -245 -312 -260 -312 -17 0 -16 47 5
272 9 97 22 182 28 188 12 12 163 39 204 37 24 -2 25 -5 28 -83z m-411 -10 c6
-17 -14 -503 -25 -578 -11 -77 -32 -71 -32 8 0 37 -4 66 -10 66 -13 0 -20 -32
-22 -119 -3 -73 -17 -101 -33 -64 -5 10 -10 66 -11 125 -2 60 -5 112 -8 117
-8 12 3 41 15 41 5 0 9 -13 9 -29 0 -16 6 -31 14 -34 9 -4 13 -1 11 6 -2 7 -6
35 -9 62 -5 47 -5 49 9 25 8 -14 14 -37 15 -52 0 -16 5 -28 11 -28 19 0 4 121
-35 280 -20 80 -36 150 -36 157 0 7 13 9 38 6 27 -4 42 -1 51 11 17 20 40 21
48 0z m392 -546 c-1 -73 -4 -212 -8 -308 l-6 -174 -45 -18 c-25 -9 -70 -17
-100 -17 -31 -1 -82 -8 -115 -16 -54 -14 -101 -14 -172 1 -20 4 -23 10 -23 58
0 45 5 60 38 104 81 111 408 501 420 502 9 0 12 -32 11 -132z m-2427 -350 c-6
-24 -14 -68 -17 -98 -7 -57 -31 -120 -46 -120 -12 0 -11 68 2 150 9 53 16 69
30 73 13 4 19 14 19 33 0 21 3 25 11 17 9 -9 9 -23 1 -55z m-7 -218 c-6 -48
-4 -60 6 -58 9 2 13 -7 11 -29 -2 -17 1 -34 7 -37 15 -9 24 -87 14 -124 l-8
-32 -51 25 c-61 29 -66 43 -54 141 9 68 41 144 61 144 5 0 9 7 9 15 0 8 3 15
6 15 3 0 3 -27 -1 -60z m1761 -2685 c7 -28 19 -70 29 -95 32 -88 61 -252 51
-292 -7 -30 -4 -58 18 -143 28 -106 28 -123 4 -111 -59 28 -106 78 -143 152
l-40 79 2 150 c1 132 12 238 29 298 11 35 38 14 50 -38z m-2036 -47 c8 0 25 3
37 7 19 6 22 2 33 -52 6 -32 23 -107 36 -168 64 -278 68 -413 18 -524 -23 -52
-36 -68 -80 -96 -69 -44 -97 -110 -101 -238 -3 -98 -32 -219 -68 -282 -46 -80
-75 -223 -85 -425 -10 -205 -21 -246 -145 -566 -92 -236 -96 -251 -85 -285 13
-37 16 -23 -108 -447 -16 -57 -29 -68 -81 -74 l-34 -3 -279 430 c-153 237
-278 435 -278 441 0 7 11 32 25 55 14 24 25 60 25 80 0 47 -50 126 -93 144
-45 19 -46 21 -32 75 25 94 28 182 10 264 -11 47 -14 91 -10 113 12 65 151
328 198 375 23 24 50 59 59 78 24 51 67 88 108 92 32 3 61 35 454 511 363 441
422 508 440 502 12 -4 28 -7 36 -7z m2191 -743 c19 -43 18 -72 -2 -59 -11 7
-39 71 -39 90 0 29 22 12 41 -31z m-2185 -220 c-7 -29 -26 -34 -26 -7 0 18 20
45 28 37 2 -2 2 -16 -2 -30z m2321 -25 c6 0 16 -7 24 -16 10 -12 10 -20 1 -35
-17 -27 -15 -54 8 -99 11 -22 20 -52 20 -67 1 -43 50 -126 80 -133 21 -5 30
-21 58 -95 81 -222 92 -263 92 -353 0 -97 22 -207 47 -234 15 -17 12 -48 -5
-48 -5 0 -49 42 -99 93 l-90 92 -11 96 c-11 89 -10 101 9 155 34 97 8 223 -67
321 -13 17 -24 36 -24 42 0 5 -16 31 -37 57 -40 53 -73 147 -73 210 0 51 8 59
35 34 12 -11 26 -20 32 -20z m-3887 -1110 c0 -5 -4 -10 -10 -10 -5 0 -10 5
-10 10 0 6 5 10 10 10 6 0 10 -4 10 -10z m4094 -53 c10 -14 14 -42 13 -77 -2
-51 -4 -55 -27 -55 -24 0 -25 2 -28 78 -2 63 0 77 12 77 9 0 22 -10 30 -23z
m216 13 c0 -5 -5 -10 -11 -10 -5 0 -7 5 -4 10 3 6 8 10 11 10 2 0 4 -4 4 -10z
m-129 -179 c22 -18 22 -20 6 -26 -19 -8 -47 10 -47 31 0 19 14 17 41 -5z"/>
</g>
</svg>
