<?xml version="1.0" standalone="no"?>
<!DOCTYPE svg PUBLIC "-//W3C//DTD SVG 20010904//EN"
 "http://www.w3.org/TR/2001/REC-SVG-20010904/DTD/svg10.dtd">
<svg version="1.0" xmlns="http://www.w3.org/2000/svg"
 width="1077.000000pt" height="1280.000000pt" viewBox="0 0 1077.000000 1280.000000"
 preserveAspectRatio="xMidYMid meet">
<g transform="translate(0.000000,1280.000000) scale(0.100000,-0.100000)"
fill="#000000" stroke="none">
<path d="M5820 11861 c-184 -39 -249 -66 -324 -131 -65 -56 -102 -105 -142
-190 -20 -42 -30 -355 -13 -408 6 -17 8 -46 4 -62 -5 -24 -12 -30 -32 -30 -20
0 -24 -3 -17 -17 4 -10 11 -83 15 -163 7 -151 17 -199 53 -238 27 -31 108 -72
140 -72 21 0 28 -9 46 -57 11 -31 30 -69 41 -84 32 -46 58 -130 47 -158 -5
-14 -6 -31 -3 -39 11 -28 -16 -78 -66 -126 -48 -45 -52 -47 -80 -36 -63 26
-220 -15 -235 -62 -6 -19 -58 -37 -169 -58 -116 -23 -204 -91 -251 -194 -28
-62 -67 -271 -89 -473 -9 -81 -25 -182 -35 -223 -31 -125 -49 -245 -64 -445
-15 -185 -28 -252 -76 -390 -11 -33 -29 -102 -40 -154 -19 -93 -35 -129 -44
-100 -13 38 -34 260 -29 300 5 41 3 48 -22 67 -36 29 -70 28 -100 -3 -29 -28
-31 -50 -10 -102 16 -43 68 -495 59 -518 -3 -8 -1 -29 6 -47 13 -36 32 -334
34 -521 1 -116 0 -119 -25 -141 -53 -45 -58 -83 -20 -132 14 -18 16 -32 9 -85
-5 -35 -11 -84 -14 -108 -4 -26 -1 -52 6 -67 9 -17 11 -48 6 -109 -4 -59 -2
-93 6 -108 15 -28 12 -67 -12 -145 -23 -73 -26 -131 -7 -155 6 -9 32 -23 57
-32 50 -18 80 -41 80 -63 0 -21 -19 -79 -38 -119 -10 -23 -22 -33 -38 -33 -29
0 -88 -66 -78 -89 6 -16 20 -71 31 -124 7 -34 -16 -142 -59 -282 -34 -111 -34
-175 -1 -267 l16 -47 -32 -65 c-54 -109 -148 -170 -205 -133 -28 19 -41 60
-26 87 13 24 45 26 54 4 10 -27 36 3 36 41 0 73 -72 103 -137 57 -75 -53 -103
-206 -55 -299 43 -84 145 -132 237 -113 100 21 233 119 288 212 34 58 52 72
90 70 26 -1 36 5 52 31 12 18 29 32 40 32 17 0 21 -10 28 -60 8 -58 8 -60 -22
-85 -40 -32 -56 -86 -41 -139 5 -21 17 -42 26 -45 19 -7 44 10 44 30 0 25 18
15 24 -14 3 -15 15 -99 26 -187 12 -88 26 -171 32 -185 6 -14 12 -74 13 -135
1 -60 7 -127 15 -149 8 -24 11 -66 8 -111 -4 -59 -10 -79 -32 -108 -19 -25
-32 -33 -46 -30 -13 3 -20 0 -21 -8 0 -8 -4 -52 -8 -99 -6 -69 -4 -93 9 -130
10 -25 20 -66 24 -92 6 -38 11 -48 26 -48 22 0 28 -16 32 -85 2 -36 -1 -49 -9
-47 -14 2 -17 -17 -7 -43 4 -10 9 -13 13 -6 11 17 4 -79 -10 -141 -11 -50 -11
-62 4 -93 12 -26 22 -34 38 -32 28 3 30 -7 58 -204 12 -85 29 -196 38 -246 12
-71 13 -99 5 -120 -7 -16 -21 -70 -32 -122 -16 -74 -18 -101 -10 -121 16 -39
-2 -74 -52 -101 -38 -22 -44 -30 -55 -78 -15 -70 -66 -122 -193 -201 -52 -32
-122 -82 -154 -112 -58 -53 -60 -55 -64 -116 -4 -56 -2 -66 23 -97 19 -26 32
-34 45 -30 10 3 21 1 25 -6 4 -6 22 -17 40 -25 40 -17 98 -3 136 32 14 13 35
24 47 24 38 0 114 42 151 83 154 171 145 164 234 178 99 15 153 37 186 74 39
45 46 99 26 200 -9 44 -18 130 -21 190 -6 104 -4 115 25 200 19 54 33 121 37
170 6 69 11 84 37 114 28 33 29 37 22 100 -4 36 -9 94 -10 129 -2 41 -9 70
-20 82 -14 15 -14 25 -5 66 25 104 43 147 79 183 50 51 93 138 80 162 -5 11
-18 19 -28 19 -25 0 -28 18 -36 180 -4 74 -11 154 -16 178 -6 26 -6 50 0 60
14 27 -6 110 -29 117 -28 9 -31 31 -15 101 10 44 15 119 15 227 0 191 6 237
29 237 27 0 61 30 61 54 0 13 -9 49 -20 81 l-20 59 27 39 c24 35 28 52 33 143
5 96 8 106 38 148 80 111 131 298 131 475 0 51 7 107 20 153 32 113 50 209 76
390 12 91 26 171 30 177 4 8 28 9 70 5 48 -5 70 -3 95 10 18 9 37 16 42 16 13
0 9 -47 -12 -131 -31 -120 -49 -258 -55 -411 -3 -106 -8 -144 -21 -163 -16
-24 -16 -31 4 -108 11 -45 30 -149 43 -231 20 -136 21 -159 10 -270 -16 -159
-19 -174 -40 -181 -21 -6 -41 -59 -41 -106 0 -19 12 -54 26 -79 24 -42 26 -51
20 -130 -4 -47 -16 -137 -27 -200 -21 -112 -21 -117 -4 -218 17 -98 17 -103 0
-122 -17 -19 -17 -25 -1 -142 l17 -123 -26 -95 c-14 -52 -32 -134 -40 -182 -7
-47 -24 -106 -36 -130 -43 -83 -22 -195 42 -217 31 -11 40 -43 59 -200 12 -96
10 -111 -19 -111 -36 0 -35 -59 1 -172 25 -79 33 -122 34 -183 0 -44 6 -102
12 -130 6 -27 11 -85 11 -127 1 -69 -2 -80 -24 -102 -32 -32 -35 -106 -5 -151
25 -38 25 -63 0 -145 -13 -42 -20 -94 -20 -145 0 -44 -7 -129 -15 -190 -9 -60
-20 -143 -26 -183 -6 -41 -24 -101 -41 -138 -27 -58 -30 -71 -23 -122 3 -31 7
-80 8 -108 2 -57 22 -88 62 -98 32 -8 76 10 82 34 7 28 16 25 33 -13 18 -38
44 -46 70 -22 12 11 28 15 41 12 13 -3 34 0 48 7 46 23 95 44 118 51 25 7 29
15 48 110 15 71 15 74 -9 141 -14 38 -30 103 -35 144 l-11 75 31 25 30 26 -12
144 c-18 202 -14 312 17 515 9 55 17 145 19 200 2 61 13 141 28 205 14 58 30
131 37 162 7 36 22 71 42 95 65 82 140 261 154 369 3 31 17 75 30 98 18 30 24
56 24 101 0 39 6 69 16 83 22 32 5 189 -23 209 -10 6 -22 16 -28 21 -6 5 -14
3 -21 -6 -20 -27 -34 -3 -34 59 0 58 15 81 24 37 3 -13 7 -32 9 -43 3 -11 5
-4 6 15 1 57 -16 114 -42 135 -68 56 -61 349 19 785 17 93 19 100 48 116 38
21 59 61 58 110 0 34 7 57 25 85 14 21 34 67 43 101 10 35 25 80 33 101 9 27
12 52 6 80 -6 33 0 72 28 182 39 155 46 169 73 155 27 -15 27 -14 54 39 37 71
36 140 0 182 -15 16 -9 49 8 49 11 0 58 50 58 62 0 5 -8 8 -17 6 -10 -2 -18 3
-18 11 0 8 30 24 75 40 97 34 110 56 110 189 0 86 2 94 25 114 27 23 61 100
51 116 -6 10 11 68 41 143 12 28 13 59 8 138 l-8 102 37 33 c48 45 50 90 5
141 -30 34 -31 37 -25 107 4 40 14 120 22 178 8 58 19 168 24 245 5 77 12 159
16 182 5 34 2 47 -15 69 -13 17 -21 41 -21 67 0 22 -9 54 -20 72 -15 25 -22
63 -30 171 -6 76 -15 159 -21 184 -5 25 -16 189 -23 365 -13 294 -17 334 -49
500 -20 99 -47 279 -62 400 -30 252 -45 326 -79 393 -31 59 -96 123 -161 155
-65 32 -94 65 -106 117 -9 38 -6 50 20 104 16 34 32 81 36 106 4 25 14 52 21
61 13 14 17 43 14 89 -1 8 2 55 6 103 5 63 3 99 -6 127 -15 46 -10 56 20 40
12 -6 24 -10 26 -7 5 4 -13 64 -27 90 -14 26 10 57 43 57 36 0 35 9 -2 45 -16
16 -30 32 -30 36 0 4 14 10 30 14 35 8 36 12 13 38 -13 14 -14 21 -6 24 7 2 9
11 6 19 -4 11 4 14 36 14 52 0 53 16 1 30 -21 6 -43 16 -47 24 -4 7 -35 34
-68 61 -61 49 -73 63 -100 125 -8 19 -25 52 -37 72 -31 54 -20 72 40 64 44 -5
48 -4 59 20 7 15 10 31 7 36 -3 4 9 11 26 14 l31 7 -28 26 c-38 36 -230 181
-240 181 -21 0 -129 94 -171 149 -59 75 -140 127 -262 166 -114 36 -276 43
-400 16z m980 -576 l25 -15 -30 6 c-16 4 -37 10 -45 15 -12 7 -11 8 5 8 11 0
31 -6 45 -14z m100 -606 c0 -5 -4 -9 -10 -9 -5 0 -10 7 -10 16 0 8 5 12 10 9
6 -3 10 -10 10 -16z m-134 -2160 c68 -295 74 -341 74 -543 0 -164 3 -196 31
-338 l32 -157 -38 -55 c-35 -51 -37 -58 -30 -104 8 -59 -7 -76 -29 -33 -9 16
-25 32 -36 36 -13 4 -36 36 -59 83 -41 80 -69 107 -101 97 -23 -7 -36 12 -114
167 l-60 117 1 93 c1 94 8 140 44 260 17 59 25 70 68 101 72 52 117 133 124
223 3 42 2 75 -4 81 -7 7 -3 31 10 71 12 34 21 74 21 89 0 62 23 -3 66 -188z
m-176 -152 c0 -17 -29 -57 -41 -57 -12 0 -12 27 1 51 12 21 40 26 40 6z
m-1509 -29 c1 -13 3 -43 4 -68 1 -25 8 -97 15 -160 21 -203 -1 -398 -69 -594
-12 -33 -21 -67 -21 -76 0 -10 -9 -29 -20 -43 -11 -14 -28 -52 -39 -86 -10
-33 -30 -74 -45 -91 -14 -18 -26 -44 -26 -58 -1 -15 -7 -38 -15 -52 -8 -14
-14 -47 -15 -75 0 -27 -7 -72 -15 -99 -23 -75 -20 -84 16 -50 l31 29 -4 -45
c-23 -246 -68 -460 -97 -460 -8 0 -26 28 -93 144 -10 17 -18 48 -18 68 0 47
46 207 65 228 8 9 15 33 15 54 0 20 9 55 21 77 11 23 18 47 15 55 -3 8 -2 12
4 9 13 -8 40 48 40 83 0 15 -5 33 -11 39 -12 12 17 114 53 186 18 37 20 51 18
223 0 60 8 94 51 220 45 130 53 164 61 269 19 249 29 295 64 295 8 0 15 -10
15 -22z m1818 -1352 c27 -39 31 -50 25 -85 -5 -30 -1 -57 16 -101 17 -46 21
-72 16 -107 -3 -26 -10 -51 -14 -55 -8 -8 -102 346 -102 380 0 25 28 10 59
-32z m-279 -3830 c0 -8 -4 -18 -10 -21 -5 -3 -10 3 -10 14 0 12 5 21 10 21 6
0 10 -6 10 -14z m-51 -266 c-1 -44 2 -75 10 -84 11 -13 8 -24 -14 -61 -27 -47
-50 -64 -64 -49 -5 5 2 55 15 111 40 170 57 197 53 83z"/>
<path d="M4791 3254 c0 -11 3 -14 6 -6 3 7 2 16 -1 19 -3 4 -6 -2 -5 -13z"/>
</g>
</svg>
