<?xml version="1.0" standalone="no"?>
<!DOCTYPE svg PUBLIC "-//W3C//DTD SVG 20010904//EN"
 "http://www.w3.org/TR/2001/REC-SVG-20010904/DTD/svg10.dtd">
<svg version="1.0" xmlns="http://www.w3.org/2000/svg"
 width="1280.000000pt" height="771.000000pt" viewBox="0 0 1280.000000 771.000000"
 preserveAspectRatio="xMidYMid meet">
<g transform="translate(0.000000,771.000000) scale(0.100000,-0.100000)"
fill="#000000" stroke="none">
<path d="M6172 7449 c-158 -20 -373 -123 -493 -236 -95 -90 -112 -124 -113
-223 -1 -62 4 -85 28 -137 15 -34 39 -72 52 -84 20 -19 24 -32 24 -82 l0 -59
-89 -86 c-74 -73 -91 -96 -106 -142 -10 -30 -21 -59 -25 -64 -5 -4 -55 10
-113 33 -192 75 -271 74 -557 -5 -236 -64 -239 -65 -335 -16 -44 21 -91 43
-104 47 -13 4 -78 37 -143 72 -85 47 -119 71 -122 86 -3 12 -10 60 -17 105
-14 98 -52 166 -109 195 -73 38 -253 -2 -285 -63 -10 -20 -27 -31 -59 -39 -45
-11 -86 -49 -86 -80 0 -69 50 -143 117 -173 24 -10 43 -24 43 -31 0 -36 44
-303 61 -372 49 -201 135 -246 403 -211 166 21 516 23 516 2 0 -26 -326 -181
-487 -232 -223 -70 -230 -73 -297 -123 -110 -83 -157 -204 -142 -367 14 -155
60 -269 151 -374 30 -35 67 -84 82 -109 24 -41 25 -45 8 -57 -9 -7 -22 -11
-29 -8 -6 2 -20 -2 -31 -10 -17 -12 -20 -26 -20 -105 0 -122 5 -127 127 -124
83 2 96 5 146 35 89 53 176 144 192 201 17 61 8 208 -20 331 -24 108 -25 135
-5 143 9 3 27 26 39 52 44 84 72 101 217 126 99 17 149 38 202 85 19 16 47 34
63 40 17 7 182 14 424 19 217 5 400 10 405 11 31 7 35 -2 35 -73 0 -85 24
-280 40 -321 19 -51 73 -120 181 -231 69 -71 111 -124 120 -148 41 -115 168
-185 368 -203 78 -8 101 -21 101 -60 0 -48 -23 -164 -34 -172 -6 -5 -65 -23
-131 -41 -461 -124 -924 -265 -1150 -351 -240 -91 -460 -205 -552 -285 -124
-109 -150 -266 -94 -571 101 -544 164 -897 193 -1084 l13 -84 150 -1 c170 -1
212 -10 282 -60 67 -49 134 -94 146 -98 14 -4 36 -139 37 -227 1 -220 -110
-380 -392 -569 -102 -68 -255 -146 -403 -205 -130 -52 -165 -76 -165 -114 0
-30 33 -86 63 -107 28 -19 107 -19 154 0 47 20 56 19 99 -10 47 -32 94 -32
190 0 85 29 106 30 189 10 101 -25 132 -20 241 34 141 69 172 75 435 75 l226
1 27 32 c80 95 77 189 -18 495 -57 185 -92 344 -110 499 -16 134 -14 143 34
154 28 6 28 6 14 41 -28 67 -56 210 -57 289 0 44 8 127 18 184 22 129 17 243
-14 323 -12 31 -47 98 -77 148 -62 103 -61 124 2 92 93 -48 183 -67 309 -67
138 0 211 14 418 82 76 24 145 42 153 39 9 -3 14 -20 14 -49 0 -24 3 -72 6
-106 l7 -61 47 0 c26 0 62 3 80 6 l32 7 -7 138 -7 138 29 14 c49 25 252 89
270 85 16 -3 17 -17 14 -161 l-3 -158 73 3 73 3 18 120 c9 66 17 145 18 176 0
30 6 63 13 72 7 10 66 31 152 53 l140 37 50 -28 c82 -45 402 -252 520 -336
212 -151 339 -260 660 -569 495 -476 678 -617 1020 -785 200 -98 330 -151 632
-255 l223 -77 39 66 c21 36 55 99 75 139 20 39 43 72 51 72 27 0 120 -86 147
-135 50 -92 77 -272 58 -389 -18 -111 -46 -151 -137 -191 -86 -38 -119 -133
-68 -193 27 -33 26 -33 315 -11 312 23 409 70 513 247 l37 62 -15 70 c-8 38
-19 120 -25 181 -13 134 -24 188 -50 239 -23 44 -94 118 -156 161 -24 16 -46
40 -48 52 -3 12 -8 40 -11 62 -8 47 -39 122 -62 147 -8 9 -46 29 -85 44 -89
34 -146 79 -252 202 l-86 100 0 56 c0 47 -4 61 -24 79 -13 12 -93 99 -177 192
-189 211 -423 444 -509 509 -85 64 -148 92 -240 106 -104 15 -153 42 -241 129
-154 155 -400 515 -938 1375 -33 52 -47 64 -121 104 -95 50 -126 72 -258 189
-104 92 -164 124 -272 147 -51 10 -80 22 -92 36 -16 20 -16 24 15 83 29 55 32
69 31 146 -1 71 -7 105 -37 193 -20 58 -52 139 -73 179 -35 70 -36 75 -25 124
76 344 44 620 -105 911 -78 152 -117 209 -213 304 -133 133 -302 212 -559 263
-110 22 -126 28 -162 61 -49 44 -125 80 -205 97 -81 17 -187 57 -202 75 -15
21 -95 41 -231 59 -123 16 -136 17 -230 4z"/>
<path d="M2050 6480 c-320 -19 -483 -51 -637 -125 -374 -179 -497 -412 -481
-909 13 -362 100 -507 413 -685 140 -80 257 -118 455 -147 128 -19 535 -22
780 -5 311 22 910 88 910 100 0 3 -197 64 -437 134 -240 70 -439 130 -441 132
-3 3 1 11 7 19 23 28 161 77 328 117 205 48 203 48 183 59 -12 7 -145 57 -399
152 -16 6 -21 12 -14 19 14 14 610 89 705 89 45 0 78 4 78 10 0 6 -133 10
-379 10 -210 0 -382 4 -385 9 -3 5 0 13 7 19 25 20 206 81 317 106 63 14 196
44 295 66 99 22 187 43 195 46 36 13 -23 22 -190 28 -244 8 -623 36 -634 46
-4 4 0 13 10 18 24 13 397 111 579 152 179 41 176 40 140 53 -21 7 -86 7 -220
-2 -274 -17 -637 -31 -658 -25 -9 3 -15 9 -12 14 6 10 25 16 479 141 198 54
364 103 370 109 8 8 -8 9 -54 5 -102 -9 -646 -35 -734 -35 -68 0 -78 2 -66 14
8 7 35 21 60 30 92 34 579 240 576 244 -2 2 -51 -2 -109 -9 -82 -10 -182 -10
-458 -1 -375 13 -384 13 -579 2z"/>
</g>
</svg>
