<?xml version="1.0" standalone="no"?>
<!DOCTYPE svg PUBLIC "-//W3C//DTD SVG 20010904//EN"
 "http://www.w3.org/TR/2001/REC-SVG-20010904/DTD/svg10.dtd">
<svg version="1.0" xmlns="http://www.w3.org/2000/svg"
 width="632.000000pt" height="1280.000000pt" viewBox="0 0 632.000000 1280.000000"
 preserveAspectRatio="xMidYMid meet">
<g transform="translate(0.000000,1280.000000) scale(0.100000,-0.100000)"
fill="#000000" stroke="none">
<path d="M3860 12780 c-36 -11 -95 -29 -132 -41 -55 -18 -70 -20 -83 -9 -8 7
-27 10 -42 7 -14 -3 -39 -1 -54 5 -43 15 -164 -25 -214 -72 -22 -20 -58 -50
-80 -66 -87 -62 -206 -178 -251 -245 -26 -39 -86 -105 -133 -147 -187 -167
-242 -229 -345 -395 -133 -213 -198 -367 -153 -359 21 4 21 -2 -2 -69 -49
-144 -30 -177 23 -39 17 47 54 122 81 167 55 94 134 188 135 161 0 -31 -58
-163 -90 -201 -83 -100 -165 -282 -158 -350 l4 -32 10 25 c6 14 23 59 38 101
47 131 135 250 101 137 -7 -24 -16 -62 -20 -85 -6 -36 -4 -43 9 -43 30 0 23
-55 -19 -150 -46 -105 -54 -133 -64 -235 -9 -92 -5 -155 10 -155 7 0 10 15 25
138 13 110 25 118 49 35 19 -66 24 -138 12 -201 -7 -39 -5 -44 13 -49 17 -4
20 -14 20 -55 0 -81 57 -167 149 -226 31 -19 115 -91 188 -159 l131 -123 -5
-60 c-7 -70 2 -84 65 -112 23 -10 42 -22 42 -25 0 -13 -94 -189 -135 -253 -54
-84 -110 -134 -275 -244 -73 -50 -147 -102 -164 -117 -17 -14 -41 -29 -53 -33
-37 -12 -120 -112 -143 -172 -16 -43 -21 -82 -22 -163 -2 -143 11 -183 77
-248 88 -85 94 -113 24 -113 -21 0 -94 -11 -161 -25 -68 -14 -148 -30 -178
-36 -30 -6 -80 -22 -111 -35 -54 -22 -181 -44 -378 -64 -133 -13 -175 -2 -270
70 -76 58 -145 87 -182 75 -10 -4 -26 -20 -34 -36 -9 -16 -20 -29 -27 -29 -6
0 -36 15 -67 32 -34 20 -75 35 -106 38 -47 5 -50 7 -50 33 1 22 -4 27 -22 27
-13 0 -23 4 -23 9 0 6 -12 3 -27 -4 -23 -12 -30 -12 -41 -1 -19 18 -72 -1 -72
-26 0 -11 -10 -20 -26 -24 -21 -5 -31 -2 -46 17 -17 22 -19 23 -29 7 -5 -10
-18 -18 -28 -18 -18 0 -41 -37 -41 -65 0 -22 -28 -18 -41 6 l-11 21 -15 -21
c-11 -17 -12 -25 -3 -36 13 -16 1 -24 -65 -45 -71 -22 -176 -83 -231 -133 -52
-47 -124 -167 -124 -206 0 -9 13 13 30 47 18 39 51 84 85 117 64 63 189 129
238 127 18 -1 55 -3 82 -5 42 -3 53 0 72 20 20 21 53 32 53 17 0 -3 -21 -33
-47 -66 -115 -146 -125 -168 -76 -168 17 0 38 13 62 38 82 87 141 134 157 128
15 -6 14 -10 -11 -36 -26 -27 -27 -33 -23 -98 3 -57 9 -76 31 -106 27 -35 59
-47 72 -26 4 7 18 3 38 -9 18 -11 56 -23 86 -27 l54 -7 -7 37 -7 36 45 0 c29
0 89 -16 166 -45 72 -27 138 -45 163 -45 23 0 61 -8 85 -17 37 -14 51 -15 92
-4 68 18 107 17 129 -3 11 -10 43 -20 75 -23 53 -5 56 -5 65 21 6 14 14 26 17
26 4 0 93 -11 198 -25 201 -27 261 -43 287 -77 13 -17 30 -21 105 -25 l89 -5
17 31 c15 28 22 31 62 31 80 0 86 -14 107 -253 12 -139 -1 -298 -26 -327 -13
-14 -17 -61 -27 -360 -2 -36 5 -126 15 -200 34 -262 41 -325 38 -339 -2 -14
-93 -126 -308 -383 -68 -81 -123 -155 -123 -165 0 -10 -20 -41 -44 -68 -24
-28 -64 -82 -90 -122 -25 -40 -51 -75 -56 -78 -6 -3 -10 -17 -10 -31 0 -13
-31 -79 -70 -145 -38 -67 -77 -144 -86 -171 -9 -27 -35 -89 -59 -137 -24 -48
-50 -108 -58 -132 -8 -24 -27 -74 -41 -112 -14 -37 -30 -95 -36 -130 -18 -100
-37 -150 -143 -367 -55 -113 -102 -207 -103 -209 -2 -2 -17 8 -33 22 -58 49
-121 43 -152 -15 -17 -31 -5 -107 30 -187 34 -77 39 -129 15 -166 -9 -13 -16
-46 -16 -72 -1 -36 -7 -55 -26 -78 -67 -80 -81 -183 -36 -274 15 -29 35 -58
45 -64 20 -13 25 -42 9 -52 -15 -9 -12 -51 5 -65 13 -11 13 -16 -1 -48 -8 -21
-26 -54 -40 -75 -30 -46 -23 -60 41 -76 34 -9 45 -16 45 -31 0 -15 -7 -20 -28
-20 -66 0 -99 -84 -108 -273 -3 -72 -16 -190 -29 -262 -20 -112 -23 -164 -23
-380 0 -299 -15 -516 -41 -607 -11 -37 -22 -71 -25 -76 -3 -5 -36 -9 -74 -10
-84 0 -123 -18 -147 -68 -27 -57 -16 -122 39 -247 47 -104 48 -109 44 -185 -3
-49 -13 -96 -28 -129 -21 -49 -26 -54 -72 -68 -27 -8 -62 -24 -79 -35 -60 -43
-92 -152 -69 -233 10 -37 9 -52 -5 -93 -9 -27 -19 -75 -22 -106 -7 -73 10
-103 69 -119 43 -11 51 -11 426 22 68 6 126 8 129 5 3 -3 9 -23 12 -43 6 -36
9 -38 51 -45 56 -8 185 -8 225 1 25 5 32 13 43 51 15 52 88 227 143 345 37 79
37 81 29 160 -8 85 -3 99 35 91 11 -3 46 -8 78 -11 68 -9 66 -21 33 158 -14
73 -28 160 -32 195 -8 71 -22 92 -64 92 -19 0 -41 12 -64 34 -30 27 -36 40
-36 73 0 49 27 156 79 317 22 66 42 132 45 146 5 24 185 179 365 314 279 209
450 412 620 731 59 110 128 220 155 247 19 20 35 15 73 -21 13 -12 19 -28 16
-40 -6 -23 28 -61 55 -61 24 0 42 -19 42 -44 0 -75 64 -167 143 -205 23 -11
76 -24 117 -27 52 -5 84 -14 103 -28 18 -13 41 -20 66 -19 36 2 39 0 62 -50
31 -65 60 -77 121 -48 24 11 52 27 64 36 20 14 24 13 70 -17 27 -18 50 -41 52
-51 3 -15 -6 -17 -81 -17 -67 0 -89 -4 -107 -18 -49 -39 10 -106 121 -139 52
-15 84 -38 191 -134 76 -70 154 -121 200 -132 15 -4 33 -14 40 -23 37 -45 50
-54 79 -54 24 0 44 -13 92 -59 34 -32 96 -84 137 -116 41 -31 107 -86 145
-121 39 -35 81 -72 95 -83 14 -11 22 -22 19 -25 -3 -3 -41 -15 -84 -26 -83
-21 -125 -42 -125 -63 0 -7 20 -23 45 -36 49 -26 95 -87 154 -206 28 -56 35
-82 36 -130 0 -97 -61 -215 -121 -235 -44 -15 -60 -42 -44 -80 7 -16 20 -36
31 -46 10 -9 19 -23 19 -29 0 -7 -45 -27 -99 -44 -110 -35 -125 -48 -155 -135
-21 -64 -20 -83 2 -90 97 -31 313 -78 377 -83 71 -5 94 -1 205 30 69 20 153
43 187 51 122 30 185 80 218 172 32 87 64 154 74 154 8 0 51 -98 51 -118 0 -4
4 -13 8 -20 9 -13 96 19 232 86 l55 27 7 240 c3 131 9 255 12 275 4 24 1 43
-9 56 -22 29 -18 48 16 78 30 27 30 28 14 53 -10 14 -19 37 -20 52 -2 14 -7
38 -11 54 -5 21 -3 27 10 27 24 0 19 23 -16 76 -25 36 -40 50 -61 52 -16 2
-31 10 -34 18 -3 8 -19 14 -42 14 -32 0 -41 7 -81 56 -25 30 -90 92 -145 137
-160 132 -335 298 -421 398 -118 140 -144 176 -144 199 0 23 -23 73 -51 109
-23 29 -25 69 -4 77 23 9 18 36 -16 87 -23 35 -37 47 -55 47 -37 0 -70 27
-119 94 -24 34 -76 93 -115 131 -40 39 -87 94 -106 123 -53 82 -80 103 -128
101 -31 -2 -53 6 -91 30 -27 17 -66 36 -85 41 -46 12 -188 91 -217 120 -21 21
-30 22 -103 18 -77 -4 -80 -4 -80 17 0 11 16 36 35 55 38 36 45 60 19 60 -9 0
-61 -24 -116 -52 -96 -51 -100 -52 -114 -34 -23 32 -17 52 26 80 73 48 188
166 248 254 33 48 91 151 130 228 93 186 149 279 230 383 111 145 251 274 436
406 168 120 264 204 388 343 56 63 71 74 105 79 48 6 87 -12 150 -70 53 -49
81 -101 93 -171 8 -50 -1 -182 -15 -218 -11 -29 50 -23 123 12 164 77 332 323
335 492 1 36 -1 69 -4 72 -3 3 -21 1 -40 -6 -19 -7 -81 -13 -139 -13 -92 0
-111 3 -153 25 -64 32 -127 101 -127 138 0 15 12 44 26 63 14 19 34 52 44 74
26 61 41 70 75 43 34 -26 87 -29 113 -5 10 9 35 17 55 17 29 0 41 6 59 30 16
22 30 30 53 30 20 0 39 8 52 23 46 51 173 255 173 278 0 13 -16 48 -36 78 -36
53 -36 54 -20 88 9 18 16 39 16 45 0 6 18 30 40 54 22 24 40 50 40 59 0 8 13
21 28 29 29 15 152 140 152 155 0 5 -17 20 -39 35 -21 15 -49 38 -61 51 -13
14 -31 25 -40 25 -14 0 -121 -113 -145 -154 -5 -10 -19 -18 -29 -19 -30 -3
-45 65 -58 253 -15 222 -14 239 17 358 22 84 27 128 28 240 2 151 -19 449 -34
489 -5 14 -26 41 -46 59 l-36 34 -4 127 c-3 111 -7 135 -28 178 -28 58 -108
155 -178 216 -44 38 -50 41 -74 30 -14 -7 -29 -8 -34 -4 -16 17 -159 310 -159
327 0 24 -28 87 -49 111 -12 13 -20 43 -24 89 -6 64 -11 77 -63 153 -32 45
-91 122 -131 170 -70 82 -233 304 -233 316 0 3 25 13 55 22 77 22 89 47 82
174 -6 127 -19 164 -75 220 -86 87 -136 152 -126 166 5 7 42 52 82 101 39 49
84 112 99 141 15 28 38 57 52 63 49 22 39 -12 -29 -107 -47 -63 -62 -103 -41
-103 5 0 33 26 61 59 32 37 61 61 79 64 37 8 111 80 161 158 33 51 40 71 40
110 0 67 -24 121 -71 158 -39 32 -51 61 -25 61 8 0 28 -22 45 -50 43 -70 71
-68 34 3 -39 73 -39 73 -7 44 55 -52 50 -24 -16 80 -34 53 -35 60 -15 87 14
19 15 19 35 1 29 -26 25 -3 -11 65 -17 32 -66 96 -109 143 -57 62 -82 99 -95
137 -30 90 -8 79 119 -61 93 -101 122 -121 70 -46 -16 23 -42 67 -57 97 -28
58 -120 168 -199 240 -46 41 -63 80 -34 80 16 0 163 -151 235 -242 29 -38 55
-68 57 -68 15 0 -3 38 -51 106 -103 148 -185 277 -185 291 0 7 9 13 19 13 13
0 51 -38 107 -106 95 -115 125 -125 50 -16 -129 188 -187 264 -255 335 -41 42
-71 80 -68 83 21 22 200 -152 291 -283 32 -46 62 -85 67 -88 19 -13 7 23 -29
82 -86 143 -219 273 -375 368 -45 28 -107 76 -137 109 -47 50 -213 181 -355
279 -22 15 -71 52 -110 83 -68 53 -101 67 -220 94 -85 20 -108 20 -175 0z m98
-171 c-2 -6 -8 -10 -13 -10 -5 0 -11 4 -13 10 -2 6 4 11 13 11 9 0 15 -5 13
-11z m-93 -40 c0 -7 -8 -15 -17 -17 -18 -3 -25 18 -11 32 10 10 28 1 28 -15z
m-339 -66 c-7 -17 -8 -17 -21 0 -8 11 -11 26 -8 34 5 13 8 13 21 0 9 -10 12
-23 8 -34z m-156 12 c0 -19 -20 -29 -32 -17 -8 8 -7 16 2 26 14 17 30 12 30
-9z m879 -21 c24 -30 27 -44 8 -44 -15 0 -67 47 -67 60 0 20 39 9 59 -16z
m-806 -60 c9 -9 -4 -35 -14 -28 -5 3 -9 12 -9 20 0 14 12 19 23 8z m1027 -70
c87 -54 117 -79 136 -116 22 -43 1 -42 -87 3 -65 34 -87 51 -110 88 -28 46
-36 71 -21 71 4 0 41 -21 82 -46z m-1163 -50 c9 -23 -13 -40 -32 -24 -8 7 -15
19 -15 26 0 19 39 18 47 -2z m1278 -170 c58 -38 87 -63 91 -80 4 -14 3 -28 0
-32 -20 -19 -216 134 -201 158 10 17 21 12 110 -46z m175 36 c11 -11 20 -27
20 -37 0 -14 -2 -14 -21 3 -11 10 -25 27 -30 36 -13 25 6 23 31 -2z m-1926
-181 c-36 -40 -46 -17 -12 27 19 24 23 26 26 10 2 -9 -4 -26 -14 -37z m1965 7
c46 -34 80 -80 68 -92 -3 -4 -35 11 -69 33 -49 30 -64 45 -66 66 -4 36 10 34
67 -7z m-2077 -73 c-37 -88 -170 -260 -184 -237 -14 22 39 120 101 186 61 66
99 89 83 51z m152 -20 c-8 -32 -21 -50 -30 -40 -9 8 16 67 27 67 5 0 6 -12 3
-27z m2012 -74 c41 -25 69 -69 45 -69 -14 0 -70 49 -82 71 -13 24 -4 24 37 -2z
m-2136 -90 c-11 -46 -58 -109 -81 -109 -15 0 -10 18 22 83 55 110 82 122 59
26z m185 61 c8 -13 -68 -94 -84 -89 -8 3 1 21 26 52 39 49 48 54 58 37z m1875
-30 c0 -5 -4 -10 -9 -10 -6 0 -13 5 -16 10 -3 6 1 10 9 10 9 0 16 -4 16 -10z
m40 -30 c0 -5 -2 -10 -4 -10 -3 0 -8 5 -11 10 -3 6 -1 10 4 10 6 0 11 -4 11
-10z m78 -120 c26 -18 42 -38 42 -50 0 -27 -21 -16 -75 39 -47 49 -28 55 33
11z m-2488 -84 c0 -8 -9 -24 -21 -37 l-20 -24 7 25 c10 39 34 64 34 36z m2560
-114 c29 -26 41 -44 38 -57 -3 -18 -8 -15 -41 20 -73 77 -71 103 3 37z m-2200
-60 c0 -10 -6 -27 -14 -38 -12 -15 -17 -16 -27 -7 -10 10 -10 18 -1 38 13 29
42 34 42 7z m2380 -171 c17 -33 12 -46 -10 -26 -21 19 -27 45 -10 45 5 0 14
-9 20 -19z m-2562 -83 c-3 -35 -28 -52 -28 -20 0 28 10 52 22 52 5 0 8 -14 6
-32z m2422 -29 c7 -11 9 -23 6 -26 -7 -7 -46 26 -46 39 0 17 30 7 40 -13z m70
-194 c0 -8 -4 -15 -10 -15 -5 0 -10 7 -10 15 0 8 5 15 10 15 6 0 10 -7 10 -15z
m-2486 -83 c-6 -74 -23 -122 -44 -122 -14 0 -12 22 11 121 11 49 25 87 30 84
5 -3 6 -41 3 -83z m2634 5 c6 -7 16 -33 23 -58 11 -42 10 -50 -10 -92 -13 -26
-29 -47 -37 -47 -18 0 -28 43 -19 78 4 15 9 50 11 77 1 28 3 51 3 53 2 7 20 0
29 -11z m-1028 -38 c0 -11 -4 -17 -10 -14 -5 3 -10 13 -10 21 0 8 5 14 10 14
6 0 10 -9 10 -21z m-1277 -542 c91 -88 110 -118 88 -131 -16 -10 -221 210
-221 236 0 17 36 -12 133 -105z m257 -369 c-14 -47 -60 -91 -60 -56 0 20 51
99 60 93 5 -3 5 -19 0 -37z m1455 -1116 c50 -75 92 -148 95 -162 3 -14 15 -44
28 -67 17 -32 28 -43 46 -43 18 0 42 -20 88 -74 35 -40 102 -116 151 -168 71
-78 87 -101 87 -127 0 -46 35 -109 62 -113 29 -4 63 -70 60 -118 -24 -369 -14
-559 32 -610 13 -14 45 -79 72 -145 47 -117 48 -123 49 -226 0 -70 -5 -114
-14 -131 -9 -17 -11 -45 -8 -84 3 -33 7 -117 9 -189 2 -78 8 -144 16 -165 13
-33 12 -41 -32 -147 l-46 -112 6 -104 c10 -152 -1 -178 -65 -154 -29 11 -33 9
-68 -25 -54 -51 -108 -59 -167 -24 -24 14 -60 45 -80 68 -34 40 -56 101 -41
116 4 4 37 7 74 7 53 0 73 5 98 23 17 12 35 22 40 22 5 0 24 18 42 40 l32 40
-47 68 c-180 254 -494 718 -494 729 0 8 -21 33 -46 56 -46 41 -104 119 -104
138 0 6 -9 27 -20 47 -10 20 -39 81 -64 134 -60 132 -109 183 -240 248 -55 28
-114 61 -130 74 -28 24 -28 24 -21 107 12 137 22 176 59 225 29 38 33 49 26
70 -7 18 -6 34 6 56 12 24 14 36 6 49 -6 9 -8 33 -5 53 5 32 3 36 -17 36 -28
0 -26 15 28 165 55 155 84 209 122 225 71 30 107 66 153 160 28 55 41 90 32
86 -19 -7 -28 9 -20 34 8 24 31 26 43 4 8 -14 13 -12 33 15 12 17 28 31 33 30
6 0 52 -62 101 -137z m-3810 -593 c0 -7 -26 -21 -60 -31 -76 -22 -75 -22 -75
5 0 34 12 46 55 55 43 10 80 -4 80 -29z m3427 -757 c43 -41 123 -194 114 -218
-15 -39 -145 79 -197 180 -29 57 -32 68 -19 76 24 16 62 2 102 -38z m1152
-254 c28 -78 32 -98 16 -82 -14 14 -60 154 -51 154 5 0 20 -33 35 -72z m66
-323 c0 -8 -4 -17 -10 -20 -6 -4 -10 5 -10 20 0 15 4 24 10 20 6 -3 10 -12 10
-20z m-23 -372 c-3 -10 -5 -4 -5 12 0 17 2 24 5 18 2 -7 2 -21 0 -30z m-2817
-201 c0 -34 -9 -46 -95 -132 -127 -127 -127 -112 2 67 41 57 79 103 84 103 5
0 9 -17 9 -38z m-316 -390 c-13 -21 -44 -28 -44 -11 0 7 8 21 17 31 21 24 44
7 27 -20z m2321 -173 c33 -6 77 -20 99 -31 54 -28 146 -123 146 -151 0 -29
-225 -266 -322 -339 -40 -30 -122 -89 -183 -131 -60 -42 -146 -108 -190 -147
-43 -38 -83 -66 -87 -62 -10 10 27 179 43 198 7 9 4 18 -13 33 l-22 21 18 142
c10 78 26 165 37 193 23 63 147 213 195 238 33 17 147 43 200 46 11 1 47 -4
79 -10z m-1920 -1411 c2 -13 9 -66 14 -118 5 -52 19 -138 30 -190 16 -71 23
-150 28 -311 l6 -216 -82 -93 c-121 -137 -207 -273 -332 -526 -110 -222 -218
-404 -240 -404 -21 0 24 182 60 240 23 38 14 70 -19 70 -10 0 -21 4 -24 8 -2
4 4 46 14 93 11 46 22 118 26 159 7 84 -12 383 -26 410 -13 23 -43 218 -36
229 4 5 37 19 74 31 117 39 130 72 43 117 -24 12 -46 24 -48 27 -26 25 257
303 355 349 15 7 22 19 22 37 0 21 12 37 53 68 60 48 75 51 82 20z m-1779
-3682 c6 -17 -35 -102 -66 -133 -21 -23 -60 -31 -60 -13 0 14 72 144 84 152
17 12 36 9 42 -6z"/>
</g>
</svg>
