<?xml version="1.0" standalone="no"?>
<!DOCTYPE svg PUBLIC "-//W3C//DTD SVG 20010904//EN"
 "http://www.w3.org/TR/2001/REC-SVG-20010904/DTD/svg10.dtd">
<svg version="1.0" xmlns="http://www.w3.org/2000/svg"
 width="984.000000pt" height="1280.000000pt" viewBox="0 0 984.000000 1280.000000"
 preserveAspectRatio="xMidYMid meet">
<g transform="translate(0.000000,1280.000000) scale(0.100000,-0.100000)"
fill="#000000" stroke="none">
<path d="M5393 12421 c3 -14 8 -36 12 -48 10 -31 -9 -30 -121 3 -195 58 -207
56 -284 -42 -28 -36 -74 -90 -101 -120 -65 -72 -67 -91 -11 -169 19 -27 47
-63 61 -78 22 -24 24 -31 13 -47 -15 -25 -16 -72 0 -88 17 -17 104 -15 164 3
27 8 104 17 169 19 148 6 216 24 300 77 61 39 85 43 85 15 0 -6 23 -37 50 -68
28 -31 50 -65 50 -75 0 -26 19 -43 48 -43 30 0 210 -173 293 -282 106 -138
296 -295 343 -284 22 6 156 -54 156 -69 0 -5 -37 -30 -83 -54 -45 -24 -118
-67 -161 -95 l-79 -50 -41 25 c-39 23 -49 24 -221 25 -99 1 -202 6 -230 12
-64 13 -217 -2 -265 -26 -19 -10 -73 -39 -119 -65 -89 -50 -113 -55 -119 -22
-7 39 -22 41 -48 7 -17 -21 -34 -32 -51 -32 -16 0 -27 -7 -30 -19 -3 -14 -17
-20 -56 -25 -80 -9 -165 -7 -172 4 -8 13 -19 418 -13 508 3 57 -23 216 -38
234 -9 9 -51 29 -93 43 -68 22 -82 32 -132 87 -31 35 -96 90 -145 122 -49 33
-110 78 -135 100 -122 108 -119 106 -163 99 -88 -13 -132 -56 -202 -195 -25
-50 -64 -115 -86 -144 -22 -29 -49 -81 -59 -116 -15 -48 -32 -75 -74 -119 -30
-32 -55 -66 -55 -77 0 -28 28 -168 45 -222 8 -25 21 -90 31 -145 9 -55 23
-120 30 -145 7 -25 18 -95 23 -156 9 -100 14 -118 45 -171 37 -63 89 -116 155
-157 42 -27 53 -55 55 -141 l1 -40 -52 1 c-41 1 -59 8 -83 28 -18 14 -35 26
-39 26 -5 0 -33 22 -62 50 -68 63 -129 94 -227 115 -42 10 -117 29 -167 43
-212 59 -298 66 -411 31 -37 -12 -83 -21 -102 -21 -18 0 -35 -5 -38 -11 -3 -8
-47 -13 -132 -15 -179 -4 -259 -9 -270 -16 -19 -11 -162 23 -214 51 -28 15
-55 37 -59 49 -11 31 17 78 61 103 21 12 42 32 46 44 3 12 15 31 25 42 40 44
58 146 84 475 7 85 56 295 72 311 6 6 23 5 42 -2 23 -8 67 -9 140 -4 58 4 164
8 234 9 116 1 130 3 143 21 20 28 14 54 -19 79 -22 16 -46 22 -110 24 -45 2
-86 7 -90 12 -5 4 3 36 17 70 14 35 26 73 26 85 0 23 -118 168 -146 179 -8 3
-32 6 -52 6 -21 0 -48 9 -62 20 -29 23 -65 25 -100 6 -22 -12 -29 -12 -64 6
-58 30 -161 21 -242 -20 -82 -42 -185 -131 -219 -187 -15 -26 -58 -136 -95
-244 -70 -203 -87 -246 -164 -419 -72 -160 -97 -258 -100 -385 -2 -88 0 -112
13 -125 9 -9 17 -35 18 -61 8 -162 20 -269 35 -296 25 -45 111 -131 170 -169
29 -18 118 -66 197 -105 80 -40 156 -80 170 -90 14 -10 63 -37 109 -60 45 -23
82 -45 82 -50 0 -17 114 -54 173 -56 31 -2 110 -17 175 -34 64 -17 172 -44
238 -60 67 -16 157 -44 200 -63 72 -30 81 -38 106 -83 15 -28 84 -221 155
-430 127 -379 127 -380 134 -500 7 -114 16 -200 39 -360 11 -79 13 -265 4
-290 -4 -8 -26 -30 -51 -46 -30 -21 -51 -46 -64 -75 -10 -25 -30 -59 -43 -77
-24 -32 -29 -73 -25 -227 1 -37 -11 -108 -26 -160 -37 -121 -45 -154 -45 -177
0 -13 -11 -39 -24 -56 -40 -52 -101 -167 -129 -242 -36 -95 -67 -252 -67 -339
0 -39 -9 -116 -19 -171 -57 -300 -64 -405 -87 -1256 l-7 -256 23 -16 c22 -15
73 -29 162 -42 53 -8 64 -24 77 -112 14 -87 11 -107 -41 -286 -35 -121 -33
-126 32 -127 19 -1 53 -4 75 -8 l40 -7 6 -75 c9 -105 44 -234 84 -308 49 -88
87 -228 83 -306 l-3 -61 -43 0 c-57 0 -82 -28 -82 -94 -1 -25 -7 -57 -15 -71
-30 -52 -13 -254 60 -695 24 -148 52 -322 61 -385 21 -146 24 -417 5 -522 -9
-53 -11 -85 -4 -105 6 -15 7 -38 2 -49 -4 -14 -2 -32 7 -49 18 -36 18 -41 -8
-75 -18 -25 -20 -33 -10 -55 15 -33 2 -54 -65 -102 -64 -46 -123 -75 -208
-103 -127 -42 -223 -108 -261 -181 -30 -58 -35 -234 -9 -300 3 -9 24 -26 47
-39 34 -19 49 -22 100 -16 33 3 99 19 147 35 47 16 106 34 131 39 85 21 156
60 241 134 47 41 102 87 123 103 l37 28 80 -33 c77 -32 81 -32 141 -20 154 30
231 110 187 192 -8 16 -8 35 -1 72 28 128 32 174 22 201 -14 37 -4 64 27 71
23 6 24 10 20 48 -23 184 -29 290 -19 306 6 10 14 34 18 55 5 30 2 43 -16 68
-26 35 -27 32 28 237 29 112 52 285 52 403 0 35 10 85 25 129 25 72 33 138 16
138 -17 0 -23 36 -22 145 1 61 -4 137 -10 170 -6 33 -13 80 -16 105 -4 25 -18
61 -33 82 -22 30 -29 53 -34 120 -10 114 -33 268 -52 345 -9 35 -14 67 -10 70
3 4 22 1 42 -5 29 -9 52 -6 133 14 93 23 101 23 136 8 30 -12 46 -13 88 -4 28
6 57 15 64 22 18 15 16 56 -6 146 -31 123 -63 292 -58 306 6 15 94 36 152 36
32 0 45 -5 50 -17 4 -10 27 -74 52 -143 72 -199 142 -338 205 -406 33 -37 63
-82 78 -119 27 -68 58 -122 105 -180 17 -22 55 -82 84 -134 46 -82 53 -102 58
-166 l6 -73 -34 -7 c-58 -13 -86 -33 -113 -81 -40 -71 -36 -147 24 -443 63
-315 83 -373 206 -591 63 -112 83 -184 119 -418 35 -230 49 -308 70 -369 18
-54 28 -65 39 -38 9 24 35 17 42 -11 4 -14 4 -45 1 -69 -3 -29 0 -48 8 -55 10
-8 7 -29 -11 -96 -29 -110 -38 -132 -91 -224 -71 -124 -95 -207 -94 -324 1
-156 18 -169 211 -170 269 -2 459 66 460 163 0 14 10 46 21 71 17 37 20 57 15
115 -5 54 -1 94 16 170 17 74 23 131 23 218 l0 118 35 29 c33 27 34 29 22 62
-6 19 -12 50 -12 69 0 19 -10 73 -21 120 -19 72 -21 100 -15 199 3 63 13 162
22 220 8 58 18 200 21 315 5 201 4 216 -22 335 -14 69 -34 163 -44 210 -18 88
-48 159 -83 197 -14 14 -23 44 -28 90 -5 37 -13 82 -18 98 -6 17 -13 42 -16
57 -3 14 -20 41 -38 58 -19 20 -47 70 -72 133 -23 56 -80 174 -128 262 -66
122 -92 183 -112 256 -13 53 -46 143 -72 200 -52 118 -87 242 -103 374 -19
154 -18 160 34 190 44 26 105 87 105 105 0 6 25 37 55 70 65 70 65 72 31 234
-38 177 -107 338 -261 606 -152 265 -240 455 -275 599 -19 80 -22 108 -16 195
3 55 10 128 15 161 5 33 10 113 10 178 1 68 5 117 11 117 15 0 30 35 41 97 6
32 16 64 21 71 13 15 3 137 -18 211 -11 39 -14 74 -9 122 8 78 -8 145 -60 254
-19 39 -41 98 -50 133 -19 74 -15 90 83 342 94 242 130 320 166 360 24 26 50
83 95 205 34 92 64 187 68 210 5 38 3 43 -17 48 -35 9 -31 27 109 504 17 56
48 173 71 259 22 87 45 163 50 169 12 15 168 30 270 27 41 -1 81 2 88 7 7 4
28 75 47 157 18 82 36 156 39 164 4 8 46 42 94 74 55 38 143 116 237 210 83
83 195 191 249 241 186 168 279 310 279 423 0 72 -17 106 -99 193 -46 49 -64
76 -64 95 0 58 -23 105 -69 142 -25 20 -73 64 -107 97 -71 70 -316 260 -424
329 -41 26 -151 86 -245 133 -93 47 -207 108 -252 135 -190 114 -371 170 -556
173 l-109 1 5 -25z m-193 -300 c27 -19 53 -82 44 -105 -7 -18 -59 -40 -74 -31
-6 4 -18 23 -28 43 -14 30 -23 38 -49 40 -56 6 -70 52 -21 72 31 12 97 3 128
-19z m-206 -1368 c8 -19 -1 -33 -20 -33 -17 0 -28 24 -20 45 6 17 32 10 40
-12z"/>
</g>
</svg>
