<?xml version="1.0" standalone="no"?>
<!DOCTYPE svg PUBLIC "-//W3C//DTD SVG 20010904//EN"
 "http://www.w3.org/TR/2001/REC-SVG-20010904/DTD/svg10.dtd">
<svg version="1.0" xmlns="http://www.w3.org/2000/svg"
 width="1280.000000pt" height="1154.000000pt" viewBox="0 0 1280.000000 1154.000000"
 preserveAspectRatio="xMidYMid meet">
<g transform="translate(0.000000,1154.000000) scale(0.100000,-0.100000)"
fill="#000000" stroke="none">
<path d="M2720 11415 c0 -5 7 -43 15 -83 21 -100 10 -138 -61 -206 -64 -63
-69 -90 -24 -136 23 -23 30 -40 30 -70 0 -51 -40 -322 -49 -335 -4 -5 -4 -138
0 -295 4 -156 6 -287 3 -289 -11 -11 -118 36 -303 133 l-195 101 -119 180
c-65 99 -121 182 -124 185 -3 3 26 -56 66 -131 39 -75 71 -142 71 -149 0 -8
-7 -10 -22 -5 -65 19 -68 19 -68 -11 0 -55 19 -100 52 -124 96 -70 156 -143
183 -220 12 -35 12 -39 -9 -59 -27 -25 -39 -26 -57 -4 -8 9 -119 103 -247 210
-128 107 -317 269 -420 361 -287 255 -284 249 33 -78 251 -258 540 -578 540
-597 0 -8 -23 -24 -54 -37 l-54 -23 -41 23 c-22 12 -201 94 -396 182 -362 163
-592 270 -918 427 -100 48 -185 85 -189 81 -4 -3 -2 -10 3 -15 5 -5 156 -94
335 -199 555 -324 1064 -642 1064 -665 0 -28 -175 -45 -580 -57 -371 -11 -469
-20 -384 -34 19 -3 185 -20 369 -36 422 -38 427 -39 453 -61 19 -16 20 -20 7
-28 -23 -16 -210 -58 -360 -81 -200 -31 -205 -33 -205 -55 0 -19 10 -20 245
-26 291 -8 405 -20 502 -55 132 -48 123 -37 136 -166 9 -89 8 -134 -3 -213
-11 -88 -11 -103 2 -124 22 -34 9 -101 -28 -147 -16 -20 -32 -49 -35 -63 -3
-14 -14 -44 -25 -67 -10 -23 -19 -50 -19 -60 1 -11 10 -1 23 26 26 53 41 57
45 14 2 -22 -5 -40 -23 -63 -15 -17 -31 -31 -37 -31 -5 0 -22 -13 -38 -28 -24
-25 -28 -35 -23 -68 5 -45 -45 -195 -78 -230 -20 -21 -20 -23 -3 -70 l17 -49
-26 -40 c-15 -22 -40 -59 -58 -82 -18 -25 -33 -59 -36 -85 -3 -24 -16 -64 -29
-90 -13 -26 -24 -55 -24 -63 0 -9 -14 -49 -31 -87 -28 -64 -30 -75 -20 -108
15 -50 14 -89 -5 -195 -10 -57 -27 -109 -45 -141 -30 -53 -37 -98 -18 -109 7
-5 8 -40 3 -103 -5 -79 -10 -100 -26 -112 -16 -14 -17 -20 -8 -45 20 -52 12
-135 -25 -275 -20 -74 -46 -173 -59 -220 -18 -68 -27 -87 -49 -100 -25 -15
-25 -17 -9 -33 14 -15 15 -20 3 -40 -13 -20 -11 -19 22 6 39 30 72 35 80 13 5
-13 -65 -190 -84 -210 -22 -24 -128 53 -149 109 -10 27 -73 58 -100 50 -39
-12 -60 -45 -60 -93 l0 -47 73 -33 c40 -18 94 -52 120 -76 44 -40 47 -46 47
-91 0 -47 2 -51 79 -130 67 -68 82 -90 96 -138 22 -75 46 -92 120 -82 30 3 55
4 55 0 0 -19 -51 -70 -90 -90 -54 -27 -73 -21 -117 38 -16 21 -45 48 -65 60
-21 12 -60 42 -88 66 l-51 43 37 -78 c20 -44 40 -91 46 -106 16 -44 114 -88
195 -88 56 0 71 4 111 32 26 17 66 49 89 70 47 42 66 47 85 20 7 -11 45 -36
83 -57 79 -42 320 -233 409 -323 l59 -60 -24 -184 c-16 -131 -25 -264 -29
-468 -8 -349 -32 -505 -79 -517 -14 -3 -20 -16 -24 -46 -2 -23 -10 -70 -17
-104 -10 -54 -10 -69 4 -110 22 -63 20 -148 -4 -218 -23 -67 -25 -138 -9 -302
l12 -113 -27 -38 c-34 -49 -33 -71 5 -118 22 -28 29 -45 24 -62 -8 -33 13
-128 40 -183 13 -25 27 -63 31 -85 4 -21 23 -79 41 -129 19 -49 43 -117 52
-150 10 -33 23 -70 29 -81 6 -12 19 -57 28 -100 17 -80 17 -84 12 -119 -2 -15
3 -20 22 -20 32 0 63 -54 86 -148 11 -47 32 -92 69 -148 30 -43 59 -101 66
-127 14 -55 17 -136 7 -172 -4 -14 -5 -19 -2 -12 10 22 32 13 43 -19 15 -44
13 -90 -4 -113 -8 -11 -15 -28 -15 -38 0 -10 -4 -18 -10 -18 -12 0 -19 28 -23
95 -2 33 -4 22 -5 -31 -2 -69 2 -90 24 -138 21 -46 25 -66 20 -104 -19 -155
-20 -148 11 -170 15 -12 37 -31 48 -42 29 -28 77 -40 165 -40 66 0 85 -4 150
-36 103 -50 236 -94 283 -94 22 0 57 -5 79 -12 35 -10 42 -9 69 11 25 19 35
21 59 13 21 -8 33 -7 50 5 18 12 27 13 47 4 21 -10 29 -9 43 4 15 13 22 14 45
3 24 -11 29 -10 43 9 10 12 34 25 56 29 40 7 76 34 76 58 0 16 -44 50 -115 91
-27 15 -85 48 -129 72 -137 77 -240 166 -299 258 -15 22 -36 52 -47 68 -40 51
-4 32 112 -61 37 -29 69 -58 71 -65 4 -7 6 -6 6 4 1 18 -37 54 -96 92 -23 15
-50 38 -59 51 -8 14 -51 53 -95 87 -81 65 -83 67 -95 134 -4 22 -38 128 -76
235 -62 174 -91 283 -117 434 -8 45 -5 56 24 117 29 61 32 73 24 114 -5 26
-18 67 -29 92 -12 27 -20 66 -20 97 l1 51 19 -24 c11 -13 20 -34 20 -47 0 -28
18 -41 26 -19 4 9 -1 24 -10 34 -9 10 -24 56 -33 102 -31 171 -38 194 -52 194
-8 0 -16 6 -19 14 -3 10 0 12 13 7 15 -5 16 -2 10 31 -4 21 -13 52 -20 68 -8
17 -14 41 -14 55 0 45 -12 94 -32 132 -18 33 -19 50 -14 135 4 54 11 109 16
123 5 14 13 64 18 112 8 69 18 102 50 166 22 43 52 93 67 111 25 31 26 33 9
51 -17 19 -17 23 -1 77 33 109 75 228 145 415 39 103 91 265 115 360 25 95 52
196 60 223 19 60 20 89 5 113 -9 14 0 69 44 258 31 131 59 258 63 281 3 24 13
48 21 55 13 10 19 8 38 -16 23 -29 31 -47 150 -336 40 -96 80 -190 89 -209 10
-19 15 -43 12 -57 -7 -28 139 -327 282 -577 50 -87 98 -182 108 -210 9 -29 25
-69 35 -89 24 -47 24 -70 0 -92 -15 -14 -18 -29 -16 -102 2 -76 0 -88 -23
-122 -19 -28 -28 -60 -38 -136 -12 -87 -20 -113 -70 -213 -39 -78 -57 -125
-55 -146 1 -18 2 -70 2 -116 0 -79 -2 -87 -26 -109 -18 -17 -25 -31 -21 -46 2
-11 7 -70 11 -131 3 -60 11 -138 17 -173 8 -51 8 -66 -4 -85 -12 -17 -13 -28
-5 -47 6 -14 11 -89 11 -167 1 -124 -1 -143 -16 -152 -10 -6 -18 -20 -18 -32
0 -17 5 -20 33 -17 l32 3 -3 -200 c-1 -118 -7 -211 -13 -228 -8 -18 -8 -31 -1
-40 22 -27 23 -91 2 -132 -11 -21 -20 -58 -20 -81 0 -61 -18 -103 -46 -110
-16 -4 -26 -16 -30 -33 -3 -14 -10 -36 -15 -49 -5 -13 -9 -33 -10 -45 0 -19
-10 -41 -60 -134 -11 -20 -9 -25 13 -42 19 -15 27 -33 31 -69 10 -82 29 -116
79 -139 58 -28 132 -41 275 -48 209 -12 373 -73 503 -190 58 -52 81 -66 135
-80 55 -15 72 -16 107 -6 26 8 65 10 107 6 59 -6 70 -4 101 17 43 29 53 72 19
83 -13 4 -37 22 -53 40 -18 19 -50 38 -76 46 -60 17 -68 26 -36 40 14 7 25 17
23 23 -2 6 -37 40 -78 75 -138 119 -312 285 -330 316 -11 16 -19 45 -19 62 0
19 -13 54 -32 84 -31 51 -31 52 -35 213 -6 232 21 578 61 776 8 41 26 140 40
220 14 80 41 190 60 245 19 55 37 112 40 127 3 14 18 41 33 59 25 29 28 42 29
108 2 72 15 221 30 321 4 25 17 58 30 73 13 16 24 36 24 45 0 9 12 37 26 62
22 38 28 63 34 160 5 63 11 129 15 145 15 64 38 131 52 147 13 14 11 22 -11
66 -14 28 -34 52 -46 55 -13 3 -20 14 -21 29 0 12 -9 55 -19 93 -41 149 -90
372 -90 413 0 23 -9 60 -19 80 -11 21 -26 64 -34 96 -13 49 -13 58 -2 63 21 8
992 -465 1009 -492 8 -13 27 -26 42 -29 64 -16 1428 -684 1535 -752 21 -13 48
-24 59 -24 32 0 426 -205 906 -471 287 -159 324 -181 324 -195 0 -6 27 -40 59
-75 37 -40 77 -99 108 -159 154 -302 282 -400 522 -400 142 0 169 7 194 46 13
20 30 34 42 34 36 0 148 -38 250 -84 55 -25 108 -43 117 -40 10 3 50 -10 90
-29 428 -201 676 -300 838 -334 54 -11 113 -35 210 -86 215 -112 474 -263 618
-359 149 -100 162 -107 162 -85 0 22 -285 201 -570 357 -190 104 -200 110
-200 122 0 7 23 9 73 5 61 -5 90 -15 197 -67 69 -34 161 -83 205 -110 121 -72
301 -160 330 -160 14 0 111 -43 215 -95 104 -52 192 -95 195 -95 3 0 5 7 5 15
0 16 -62 55 -135 83 -93 37 -686 325 -725 352 -44 31 -38 44 15 37 57 -8 134
-47 306 -153 75 -46 141 -84 148 -84 30 0 -2 29 -99 90 -57 36 -105 71 -107
77 -5 13 2 11 122 -31 79 -29 105 -32 105 -13 0 17 -249 101 -356 121 -51 9
-109 28 -155 52 -41 20 -147 70 -236 109 -89 40 -209 102 -265 137 -57 36
-137 84 -178 108 -44 26 -68 46 -59 48 9 1 69 -17 135 -41 401 -149 870 -271
1144 -297 69 -6 133 -14 143 -16 18 -6 25 20 7 31 -5 3 -67 11 -137 16 -447
34 -1090 234 -1716 533 -126 60 -159 80 -167 101 -8 20 -38 40 -135 87 -69 33
-127 64 -130 68 -3 5 2 39 11 77 l17 68 -31 46 c-18 26 -50 63 -73 84 -56 51
-206 120 -326 151 -93 24 -107 25 -263 19 -362 -15 -385 -12 -560 58 -216 88
-444 185 -755 322 -321 141 -362 160 -367 174 -1 5 -88 47 -193 94 -323 144
-1280 604 -1385 665 -25 14 -56 25 -69 24 -21 -2 -1090 504 -1113 526 -4 4
-18 63 -32 131 -19 95 -31 130 -49 150 -16 16 -44 85 -77 186 -78 236 -140
388 -244 595 -52 102 -101 210 -111 242 l-18 56 35 49 c66 91 77 116 87 201 9
70 8 89 -6 124 -12 31 -14 45 -5 58 9 14 8 19 -4 24 -27 11 -33 7 -36 -26 -5
-58 -23 -35 -26 35 -3 65 -2 67 22 67 27 0 111 33 120 48 3 5 -13 5 -40 -1
-55 -13 -70 0 -103 88 -12 33 -29 67 -38 77 -12 14 -16 49 -19 171 -5 190 12
328 60 476 43 133 52 246 37 460 l-11 154 26 24 c19 17 24 30 20 46 -4 15 4
33 25 60 61 75 72 142 44 250 -8 32 -15 67 -15 77 0 12 -13 26 -32 36 -18 9
-66 37 -106 63 -65 41 -78 55 -127 136 -39 65 -70 103 -111 135 -60 47 -124
135 -124 169 0 28 -57 86 -102 105 -21 8 -38 19 -38 24 0 14 109 92 129 92 9
0 43 -16 75 -35 32 -19 62 -35 67 -35 15 0 22 48 14 98 -8 55 -45 150 -74 191
-12 16 -21 33 -21 39 0 10 103 133 199 235 l66 71 -78 -64 c-177 -147 -233
-190 -248 -190 -9 0 -27 8 -40 19 -22 17 -22 21 -10 61 7 24 35 97 61 164 57
140 51 135 -45 -38 -39 -70 -76 -126 -84 -126 -18 0 -70 39 -138 104 -63 58
-66 79 -19 140 31 41 107 209 136 299 9 30 16 38 30 34 14 -4 19 3 24 32 10
64 7 113 -24 317 -42 281 -73 371 -156 443 -43 39 -190 108 -259 123 -61 14
-95 43 -146 128 -44 74 -51 60 -19 -42 11 -34 20 -64 20 -65 0 -2 -7 -3 -16
-3 -10 0 -57 39 -106 86 -100 96 -117 101 -156 44 -13 -19 -27 -35 -32 -35 -5
0 -25 25 -44 55 -20 30 -36 51 -36 45z m54 -1333 l56 -62 -20 -40 c-23 -46
-29 -47 -87 -20 l-43 19 0 80 c0 93 7 119 25 99 7 -7 38 -41 69 -76z m-56
-404 c13 -13 17 -68 5 -69 -56 -4 -176 -3 -179 2 -11 18 94 78 137 79 14 0 30
-5 37 -12z m-7 -1550 c39 -46 80 -91 91 -101 43 -37 85 -205 59 -233 -5 -5
-11 -20 -13 -33 -3 -23 -4 -24 -20 -8 -9 9 -18 22 -20 29 -4 10 -30 4 -100
-20 -53 -17 -110 -32 -127 -32 -19 0 -34 -7 -40 -18 -5 -10 -28 -24 -51 -31
-23 -7 -50 -21 -61 -32 -41 -41 -10 -151 47 -165 18 -5 48 1 88 16 34 12 81
26 106 30 55 9 78 18 102 42 10 10 24 18 32 18 20 0 56 48 56 76 0 37 21 40
52 5 31 -34 35 -68 14 -116 -9 -22 -10 -35 -2 -47 8 -13 6 -29 -6 -63 -10 -25
-15 -52 -12 -60 4 -8 3 -27 0 -41 l-7 -26 -82 6 c-45 4 -99 9 -119 12 l-38 6
6 54 c9 70 -6 70 -51 0 -30 -47 -43 -57 -92 -76 -62 -23 -73 -33 -73 -66 0
-15 11 -27 35 -38 62 -30 92 -66 99 -120 7 -58 11 -63 30 -47 10 9 13 22 9 42
-7 37 13 63 41 54 12 -3 61 -8 110 -11 50 -2 98 -6 108 -10 38 -12 20 -51 -62
-136 l-79 -82 -61 29 c-68 32 -88 29 -104 -19 -9 -23 -5 -30 28 -61 21 -19 45
-35 53 -35 18 0 102 -44 131 -70 l24 -20 -20 -27 c-48 -67 -85 -91 -179 -116
-75 -21 -97 -31 -121 -58 l-30 -34 44 -16 c24 -10 53 -15 63 -12 38 10 29 -17
-35 -101 -36 -48 -74 -108 -85 -134 -11 -26 -27 -52 -35 -59 -13 -10 -16 -34
-15 -138 1 -69 4 -132 7 -140 10 -25 -3 -46 -23 -37 -10 4 -94 46 -187 93
-131 65 -173 91 -187 115 -20 33 -75 64 -113 64 -22 0 -76 -50 -102 -95 -13
-23 -34 -12 -34 18 0 24 24 143 40 197 13 45 13 126 0 151 -9 15 -6 26 10 49
12 16 28 62 36 102 8 39 24 92 34 117 18 42 57 169 90 294 7 26 26 62 42 79
49 52 58 71 58 116 0 23 7 59 15 79 8 19 15 55 15 79 0 32 12 67 41 126 32 63
39 88 35 113 -7 38 39 146 89 210 47 60 49 65 56 137 5 56 13 78 52 141 26 41
47 81 47 88 0 29 18 40 81 50 35 7 71 15 79 20 37 21 59 9 131 -73z m172
-1188 c-9 -33 -59 -73 -83 -65 -31 10 -21 34 29 73 45 34 64 31 54 -8z m1312
-556 c11 -12 14 -26 9 -52 -15 -80 -51 -152 -76 -152 -12 0 -10 51 7 127 24
104 28 109 60 77z m-2397 -64 c-4 -43 -28 -53 -28 -12 0 17 3 38 6 47 10 26
26 1 22 -35z m32 -416 c34 -17 61 -24 78 -21 20 4 80 -18 219 -80 106 -47 197
-91 203 -98 6 -8 17 -12 24 -9 6 2 20 -2 31 -9 18 -14 18 -18 -3 -218 -40
-372 -63 -554 -72 -563 -5 -5 -28 2 -54 18 -54 32 -318 230 -362 271 -47 45
-85 75 -95 75 -4 0 -28 39 -51 88 l-43 87 2 108 c3 97 0 116 -23 174 -25 63
-26 89 -2 65 16 -16 68 -15 69 1 1 6 1 35 -1 64 -2 52 4 73 20 73 4 0 32 -12
60 -26z m-265 -634 c11 -18 -15 -40 -46 -40 -33 0 -36 6 -12 32 18 20 48 24
58 8z m7981 -2534 c80 -38 144 -89 144 -116 0 -36 -21 -31 -76 19 -32 29 -95
71 -150 98 -52 25 -94 50 -94 54 0 12 97 -19 176 -55z m-222 -1 c75 -20 215
-87 243 -117 20 -21 21 -28 12 -61 -13 -47 -2 -50 -234 65 -173 86 -199 103
-189 120 8 13 106 9 168 -7z m-230 -469 c53 -36 137 -84 186 -108 98 -47 104
-57 71 -113 -15 -26 -25 -31 -72 -36 -118 -13 -234 25 -302 100 -75 83 -87
143 -38 192 16 16 36 29 44 29 8 0 58 -29 111 -64z m1296 -255 c195 -87 343
-171 302 -171 -15 0 -364 150 -407 175 -49 28 -85 65 -64 65 8 0 84 -31 169
-69z m-410 -41 c10 -12 36 -20 75 -25 50 -5 104 -28 310 -132 287 -143 328
-166 303 -171 -39 -8 -353 119 -619 249 -152 75 -163 82 -145 95 23 16 54 10
76 -16z m675 -208 c203 -99 371 -184 373 -190 2 -7 -8 -12 -25 -12 -75 1 -161
35 -433 175 -345 178 -335 172 -319 191 6 8 17 14 23 14 7 0 178 -80 381 -178z
m-40 77 c77 -34 182 -79 234 -100 98 -41 175 -85 206 -119 14 -15 15 -20 4
-20 -16 0 -557 260 -591 284 -45 32 8 15 147 -45z m628 -270 c38 -20 49 -39
22 -39 -23 0 -67 25 -90 50 l-20 23 25 -8 c14 -4 42 -16 63 -26z"/>
<path d="M2440 7110 c0 -23 4 -30 20 -30 11 0 20 5 20 10 0 6 -9 19 -20 30
l-20 20 0 -30z"/>
<path d="M1197 5813 c-4 -3 -7 -13 -7 -21 0 -12 3 -12 15 -2 8 7 15 16 15 21
0 11 -14 12 -23 2z"/>
<path d="M3436 623 c-12 -12 -6 -33 9 -33 8 0 15 6 15 14 0 17 -14 28 -24 19z"/>
</g>
</svg>
