<?xml version="1.0" standalone="no"?>
<!DOCTYPE svg PUBLIC "-//W3C//DTD SVG 20010904//EN"
 "http://www.w3.org/TR/2001/REC-SVG-20010904/DTD/svg10.dtd">
<svg version="1.0" xmlns="http://www.w3.org/2000/svg"
 width="1280.000000pt" height="338.000000pt" viewBox="0 0 1280.000000 338.000000"
 preserveAspectRatio="xMidYMid meet">
<g transform="translate(0.000000,338.000000) scale(0.100000,-0.100000)"
fill="#000000" stroke="none">
<path d="M11263 2569 c-8 -8 -13 -38 -13 -71 l0 -57 -122 -3 -123 -3 -5 -55
-5 -55 -240 -6 c-132 -3 -241 -6 -242 -7 -2 -1 -3 -22 -3 -46 0 -24 -3 -64 -6
-89 l-7 -46 -81 -3 -81 -3 -3 -67 -3 -68 -309 0 -310 0 0 125 0 125 -175 0
c-132 0 -177 3 -180 13 -2 6 -6 29 -10 50 -6 35 -8 37 -45 37 l-40 0 0 -109 0
-110 -52 -3 c-51 -3 -52 -4 -61 -40 l-9 -38 -217 0 c-155 0 -220 3 -229 12 -7
7 -12 41 -12 83 0 72 0 72 -56 143 -55 72 -56 72 -104 72 -49 0 -49 0 -95 -65
-26 -36 -51 -62 -56 -59 -5 3 -27 30 -50 60 -39 54 -40 54 -93 54 l-53 0 -43
-60 c-24 -33 -46 -60 -50 -60 -4 0 -28 27 -53 60 -47 60 -47 60 -100 60 l-54
0 -43 -60 c-24 -33 -48 -60 -54 -60 -6 0 -30 27 -53 60 l-43 60 -55 0 -54 0
-42 -57 c-23 -32 -45 -62 -49 -66 -4 -5 -29 21 -56 57 l-48 66 -56 0 -57 0
-42 -60 c-23 -33 -46 -60 -51 -60 -5 0 -28 27 -51 60 -34 48 -48 61 -77 66
-38 7 -54 -5 -123 -95 l-27 -34 -47 62 -48 61 -61 0 -61 0 -42 -55 c-24 -30
-47 -55 -52 -55 -5 0 -27 25 -50 55 -40 52 -44 55 -86 55 -43 0 -47 -2 -96
-65 -28 -36 -52 -65 -53 -65 -1 0 -24 31 -51 70 -46 64 -53 70 -86 70 -32 0
-44 -8 -92 -60 -31 -33 -60 -60 -65 -60 -5 0 -31 24 -58 52 l-49 53 -77 3
c-65 4 -77 7 -81 23 -5 18 -31 19 -965 19 -841 0 -961 -2 -972 -15 -8 -10 -31
-15 -66 -15 -41 0 -54 4 -54 15 0 13 -72 15 -589 15 l-590 0 -3 -27 -3 -28
-190 -3 -190 -2 -69 100 -70 100 -217 0 -218 0 -71 -100 -71 -99 -122 -3 -122
-3 -7 -45 c-4 -25 -17 -165 -27 -312 -19 -265 -19 -271 0 -535 10 -148 23
-288 27 -313 l7 -45 122 -3 122 -3 71 -99 71 -100 218 0 217 0 70 100 69 100
190 -2 190 -3 3 -27 3 -28 590 0 c517 0 589 2 589 15 0 21 102 21 120 0 11
-13 131 -15 972 -15 934 0 960 1 965 19 4 16 16 19 81 23 l77 3 49 53 c27 28
53 52 58 52 5 0 34 -27 65 -60 48 -52 60 -60 92 -60 33 0 40 6 86 70 27 39 50
70 51 70 1 0 25 -29 53 -65 49 -63 53 -65 96 -65 42 0 46 3 86 55 23 30 45 55
50 55 5 0 28 -25 52 -55 l42 -55 61 0 61 0 48 61 47 62 27 -34 c69 -90 85
-102 123 -95 29 5 43 18 77 66 23 33 46 60 51 60 5 0 28 -27 51 -60 l42 -60
57 0 56 0 48 66 c27 36 52 62 56 57 4 -4 26 -34 49 -66 l42 -57 54 0 55 0 43
60 c23 33 47 60 53 60 6 0 30 -27 54 -60 l43 -60 54 0 c53 0 53 0 100 60 25
33 49 60 53 60 4 0 26 -27 50 -60 l43 -60 53 0 c53 0 54 0 93 54 23 30 45 57
50 60 5 3 30 -23 56 -59 46 -65 46 -65 95 -65 48 0 49 0 104 72 56 71 56 71
56 143 0 42 5 76 12 83 9 9 74 12 229 12 l217 0 9 -37 c9 -37 10 -38 61 -41
l52 -3 0 -110 0 -109 40 0 c37 0 39 2 45 38 4 20 8 43 10 50 3 9 48 12 180 12
l175 0 0 125 0 125 310 0 309 0 3 -67 3 -68 81 -3 81 -3 7 -46 c3 -25 6 -65 6
-89 0 -24 1 -45 3 -46 1 -1 110 -4 242 -7 l240 -6 5 -55 5 -55 123 -3 122 -3
0 -58 c0 -69 13 -84 67 -79 l38 4 0 884 0 884 -40 4 c-23 2 -45 -2 -52 -9z"/>
</g>
</svg>
