<?xml version="1.0" standalone="no"?>
<!DOCTYPE svg PUBLIC "-//W3C//DTD SVG 20010904//EN"
 "http://www.w3.org/TR/2001/REC-SVG-20010904/DTD/svg10.dtd">
<svg version="1.0" xmlns="http://www.w3.org/2000/svg"
 width="790.000000pt" height="1280.000000pt" viewBox="0 0 790.000000 1280.000000"
 preserveAspectRatio="xMidYMid meet">
<g transform="translate(0.000000,1280.000000) scale(0.100000,-0.100000)"
fill="#000000" stroke="none">
<path d="M3635 12763 c-257 -69 -1049 -361 -1590 -586 -897 -372 -1492 -685
-1706 -897 -96 -93 -112 -136 -78 -201 11 -23 55 -77 98 -119 171 -171 456
-319 875 -456 173 -56 559 -158 717 -189 48 -10 92 -21 100 -25 10 -7 -2 -38
-50 -137 -408 -828 -669 -2053 -726 -3398 -6 -145 -8 -152 -41 -220 -22 -46
-36 -91 -41 -132 l-6 -62 -131 -52 c-382 -152 -773 -324 -808 -356 -28 -25
-32 -76 -13 -151 20 -80 48 -130 78 -137 27 -7 312 107 785 314 90 39 170 71
179 71 9 0 24 -7 34 -16 29 -26 90 -43 159 -43 78 -1 116 8 283 61 94 30 131
46 139 62 7 11 13 55 15 96 1 41 2 79 2 83 2 18 20 -6 64 -81 61 -105 135
-182 176 -182 21 0 34 7 42 22 19 34 5 199 -25 301 -34 115 -34 123 9 137 20
7 42 10 49 7 10 -4 14 -69 19 -284 16 -697 118 -1583 189 -1641 7 -5 94 -22
192 -36 99 -14 184 -30 189 -35 5 -5 20 -267 33 -582 22 -527 40 -970 79
-1899 8 -190 21 -520 30 -735 8 -214 19 -457 24 -540 6 -82 7 -153 3 -157 -4
-3 -90 -36 -192 -73 -333 -120 -563 -224 -625 -281 -54 -50 -7 -85 140 -105
251 -33 846 61 1060 168 94 47 95 48 95 199 0 73 23 537 50 1031 28 494 75
1340 105 1881 30 541 57 988 60 993 8 12 92 12 100 -1 8 -14 215 -3730 215
-3871 0 -107 2 -117 22 -136 122 -112 657 -220 1038 -211 142 3 172 7 213 25
56 26 59 43 15 83 -61 56 -353 184 -683 300 -66 23 -123 45 -127 48 -3 4 2
196 12 427 20 442 22 495 70 1660 71 1702 80 1899 88 1907 5 5 57 20 117 33
123 28 151 43 171 90 83 200 53 983 -77 1965 -16 124 -17 156 -7 159 22 7 77
71 100 115 15 28 22 60 22 102 1 87 -37 148 -117 187 l-58 28 3 102 3 101 120
48 c66 26 126 47 132 47 18 1 20 -12 53 -383 l31 -339 -34 -31 c-37 -34 -85
-146 -118 -275 -38 -149 -31 -161 119 -229 65 -29 139 -59 166 -67 61 -19 147
-19 189 -2 92 39 160 188 161 352 1 82 -2 96 -32 160 -18 39 -42 79 -52 90
-15 17 -19 50 -29 235 -6 118 -19 311 -28 428 -10 135 -12 217 -6 223 5 5 553
222 1219 483 887 347 1208 477 1205 487 -2 8 -16 71 -30 141 -14 69 -29 129
-32 133 -4 3 -540 -213 -1193 -481 -652 -267 -1192 -484 -1200 -481 -9 4 -17
39 -25 104 -71 586 -241 1334 -401 1771 -16 45 -30 89 -30 96 0 11 34 15 158
20 741 31 1129 108 1182 236 16 38 -6 86 -100 224 -152 223 -432 536 -852 952
-441 437 -792 748 -1148 1019 -308 234 -495 332 -585 308z m-1424 -3886 c-2
-480 9 -1051 29 -1407 8 -151 7 -156 -14 -190 -57 -88 -59 -186 -7 -307 24
-56 31 -86 31 -136 0 -119 -1 -121 -98 -162 -47 -20 -91 -34 -97 -31 -6 2 -29
34 -51 72 -48 83 -137 182 -172 191 -57 14 -78 -77 -51 -220 5 -32 8 -61 5
-66 -6 -9 -104 15 -119 29 -9 8 42 439 99 830 125 874 257 1494 386 1820 31
77 47 105 56 95 3 -3 5 -236 3 -518z m2596 403 c60 -208 157 -796 215 -1304
11 -101 11 -109 -6 -122 -29 -21 -198 -86 -211 -80 -9 3 -13 164 -18 653 -4
356 -10 706 -14 777 -5 107 -4 128 8 124 7 -2 19 -24 26 -48z"/>
</g>
</svg>
