<?xml version="1.0" standalone="no"?>
<!DOCTYPE svg PUBLIC "-//W3C//DTD SVG 20010904//EN"
 "http://www.w3.org/TR/2001/REC-SVG-20010904/DTD/svg10.dtd">
<svg version="1.0" xmlns="http://www.w3.org/2000/svg"
 width="1024.000000pt" height="1280.000000pt" viewBox="0 0 1024.000000 1280.000000"
 preserveAspectRatio="xMidYMid meet">
<g transform="translate(0.000000,1280.000000) scale(0.100000,-0.100000)"
fill="#000000" stroke="none">
<path d="M3791 12384 c9 -10 22 -35 28 -55 13 -41 35 -63 109 -112 68 -45 196
-207 177 -225 -3 -4 -27 17 -53 45 l-47 51 -135 6 c-134 5 -135 5 -185 -23
-27 -16 -66 -34 -86 -40 -20 -7 -45 -21 -54 -31 -17 -19 -17 -20 3 -20 11 0
24 -4 27 -10 9 -15 64 -12 121 5 59 18 138 19 200 4 35 -9 56 -24 94 -67 72
-80 66 -98 -11 -37 -49 38 -73 43 -107 19 -13 -9 -29 -13 -37 -10 -10 4 -15
-1 -15 -14 0 -13 -19 -34 -50 -56 -40 -28 -53 -45 -64 -82 -8 -26 -21 -64 -30
-84 -21 -48 -20 -58 3 -58 29 0 68 38 99 94 15 27 37 56 49 63 21 14 23 12 48
-37 26 -51 26 -53 8 -74 -11 -11 -36 -50 -57 -84 l-38 -64 16 -81 c9 -44 18
-83 21 -86 3 -2 13 3 23 12 12 13 17 35 18 85 1 66 15 106 42 117 7 2 38 -3
69 -13 89 -27 152 -92 211 -215 29 -61 52 -124 56 -156 8 -57 30 -111 46 -111
6 0 19 -9 30 -20 15 -15 18 -27 13 -52 -14 -78 -113 -244 -213 -358 -31 -36
-76 -92 -101 -124 -24 -32 -61 -82 -82 -110 -21 -28 -72 -103 -114 -166 -89
-137 -77 -122 -105 -124 -34 -2 -127 -157 -296 -495 l-147 -293 1 -82 c0 -68
7 -103 46 -221 55 -165 82 -302 138 -675 52 -351 67 -417 136 -597 120 -316
130 -349 188 -648 31 -159 72 -407 93 -550 36 -253 37 -266 33 -500 -2 -132
-4 -404 -4 -605 0 -423 7 -492 99 -933 43 -207 58 -261 74 -275 18 -14 23 -36
32 -142 12 -136 7 -232 -17 -325 -28 -107 -66 -220 -79 -235 -37 -43 -83 -198
-102 -342 -4 -30 -17 -49 -60 -88 -30 -27 -62 -50 -70 -50 -9 0 -27 12 -40 26
-20 21 -30 25 -55 20 -18 -3 -40 -13 -49 -22 -18 -16 -42 -74 -53 -126 -8 -34
-46 -72 -143 -142 -43 -30 -93 -68 -111 -83 -28 -22 -37 -25 -53 -15 -13 9
-25 9 -42 1 -19 -9 -30 -7 -58 10 -61 38 -69 32 -69 -56 0 -43 -3 -88 -6 -100
-3 -12 -31 -41 -62 -65 -32 -24 -140 -123 -242 -219 -322 -305 -423 -390 -945
-796 -299 -232 -357 -299 -397 -456 -11 -45 -33 -108 -49 -139 -24 -48 -29
-69 -29 -130 1 -141 31 -211 116 -271 37 -26 52 -29 215 -44 134 -12 183 -13
214 -5 40 12 160 95 225 156 19 19 78 62 130 96 52 35 122 84 155 109 138 106
363 258 550 370 111 67 204 121 207 121 4 0 96 43 205 96 264 128 271 130 393
138 109 7 119 10 201 77 18 14 46 22 90 26 70 6 101 19 171 70 66 48 147 74
258 83 123 10 176 26 217 68 20 19 60 43 97 56 35 13 74 31 86 39 21 15 26 14
60 -3 20 -10 64 -26 99 -35 36 -9 80 -30 106 -49 49 -38 126 -56 241 -56 98 0
185 -24 289 -77 82 -42 98 -47 181 -53 86 -6 96 -9 149 -46 l57 -39 187 -6
c203 -7 244 -15 381 -74 47 -20 143 -59 214 -86 142 -56 378 -171 526 -257
144 -84 397 -249 440 -287 14 -13 36 -26 50 -30 37 -10 139 -69 185 -105 63
-50 198 -119 246 -126 41 -6 203 14 314 38 98 21 155 91 180 223 20 103 19
144 -5 185 -18 31 -64 125 -122 248 -38 81 -119 153 -345 309 -120 83 -238
163 -263 178 -25 15 -70 47 -100 71 -233 183 -373 289 -496 379 -38 27 -132
103 -209 169 -77 65 -179 145 -226 177 l-86 58 -13 81 c-7 44 -17 83 -22 86
-11 7 -98 -33 -98 -45 0 -28 -43 -11 -162 66 -172 110 -194 131 -201 191 -7
58 -43 142 -62 142 -7 0 -32 -21 -54 -46 -47 -53 -55 -53 -140 -2 -82 50 -91
68 -101 193 -8 92 -14 117 -44 179 -53 108 -98 314 -97 441 1 167 24 313 53
335 24 20 109 418 132 620 22 186 20 295 -11 718 -38 515 -37 654 11 1017 39
303 102 668 137 795 11 41 58 170 105 287 103 257 125 340 169 648 45 311 94
549 145 710 45 140 52 211 30 280 -20 63 -257 531 -319 630 -39 62 -62 90 -75
90 -14 0 -55 53 -140 180 -67 99 -174 247 -237 328 -64 82 -137 184 -163 227
-74 124 -97 228 -56 250 28 15 46 56 54 120 10 78 72 222 118 275 45 51 153
108 195 103 38 -4 67 -49 65 -97 -3 -47 22 -115 40 -109 14 5 38 144 30 168
-3 8 -18 33 -34 54 -15 21 -28 45 -28 53 0 17 60 103 72 103 4 0 18 -17 32
-37 30 -49 54 -69 89 -75 33 -6 36 12 8 59 -11 17 -25 50 -32 73 -7 23 -25 52
-41 65 -28 24 -37 58 -18 70 6 3 10 11 10 16 0 5 -17 1 -39 -10 l-38 -20 -34
29 c-39 33 -67 37 -110 14 -45 -23 -46 -11 -4 35 23 25 52 45 75 51 57 15 159
13 215 -4 61 -19 89 -20 139 -2 l38 13 -28 20 c-16 11 -40 24 -54 28 -14 4
-50 20 -81 35 -55 27 -57 28 -207 24 -84 -2 -152 -1 -152 2 0 18 71 91 115
120 61 38 115 97 115 124 0 11 10 29 23 41 l22 22 -30 -7 c-16 -4 -43 -16 -60
-26 -16 -11 -52 -31 -80 -46 -55 -30 -219 -172 -251 -218 -12 -17 -38 -61 -58
-98 -20 -36 -58 -93 -84 -125 -74 -89 -87 -112 -116 -198 -26 -78 -65 -156
-158 -320 -25 -44 -58 -117 -73 -163 -23 -71 -27 -95 -23 -165 4 -75 9 -91 51
-172 105 -203 267 -543 267 -562 0 -11 7 -27 17 -34 23 -20 73 -136 73 -171 0
-17 -13 -53 -30 -79 l-30 -49 63 -28 c68 -31 90 -52 82 -74 -8 -19 -48 -38
-80 -38 -14 0 -25 -2 -25 -5 0 -15 115 -297 141 -345 20 -38 58 -82 110 -130
102 -92 113 -113 112 -215 -1 -65 -14 -134 -76 -375 -41 -162 -87 -351 -101
-420 -39 -180 -46 -207 -77 -287 -27 -69 -98 -184 -122 -200 -7 -5 -22 -26
-33 -48 -23 -42 -44 -57 -44 -30 0 26 29 75 45 75 16 0 17 2 46 144 13 62 29
115 39 125 18 17 50 82 50 100 0 7 -16 8 -45 4 -40 -5 -45 -3 -45 13 0 11 -7
28 -15 38 -9 11 -15 42 -15 70 0 56 -20 128 -69 249 -17 43 -31 84 -31 91 0 8
-16 37 -35 66 l-35 52 3 115 c2 100 5 117 22 129 18 13 17 14 -14 14 -25 0
-40 -9 -69 -41 -20 -23 -44 -45 -54 -50 -21 -11 -95 21 -128 56 -44 48 -98 65
-220 70 -30 2 -69 6 -87 10 -20 5 -42 2 -60 -7 -17 -9 -52 -13 -92 -11 -70 3
-119 -14 -149 -51 -54 -67 -123 -87 -144 -41 -12 27 -28 24 -28 -5 0 -12 -13
-26 -32 -37 -32 -16 -32 -17 -10 -22 34 -9 32 -24 -5 -40 -28 -12 -33 -20 -33
-47 0 -19 -9 -44 -23 -61 -13 -15 -27 -41 -31 -58 -4 -16 -18 -46 -30 -65 -31
-48 -97 -190 -87 -190 4 0 13 6 20 13 18 18 44 -19 31 -44 -6 -10 -10 -28 -10
-41 0 -28 -52 -62 -69 -45 -17 17 -14 -14 5 -53 15 -30 15 -35 0 -66 -17 -38
-23 -39 -95 -23 -32 7 -52 17 -55 27 -3 9 -17 69 -31 132 -14 63 -60 241 -101
395 -115 421 -113 450 31 581 91 82 122 132 204 326 49 113 46 141 -13 152
-29 6 -36 11 -36 30 0 30 34 59 95 81 28 10 54 21 58 25 5 4 -6 30 -22 59 -39
65 -39 88 0 172 23 49 38 69 55 73 20 5 24 13 24 46 0 31 28 93 132 292 72
139 145 280 162 312 27 52 31 70 30 136 -1 115 -70 306 -145 400 -32 40 -77
143 -109 249 -16 53 -36 91 -72 135 -62 78 -128 177 -161 241 -49 96 -312 306
-413 331 -28 7 -28 6 -13 -12z m2358 -630 c-13 -16 -62 -44 -76 -44 -14 1 61
60 75 60 12 0 12 -3 1 -16z m-1946 -3667 c20 -41 44 -121 53 -175 10 -66 -17
-54 -59 26 -41 79 -67 161 -67 211 l1 36 28 -33 c16 -18 36 -48 44 -65z m102
-270 c35 -34 73 -107 56 -107 -10 0 -39 35 -77 93 -38 59 -31 64 21 14z m199
-193 c9 -23 7 -36 -3 -30 -12 8 -21 46 -11 46 4 0 11 -7 14 -16z m90 -200 c4
-9 4 -19 1 -22 -6 -6 -35 18 -35 29 0 16 28 10 34 -7z m869 -82 c-4 -95 -21
-146 -52 -150 -21 -3 -23 -1 -18 25 4 15 11 57 17 93 14 80 27 113 43 107 8
-3 11 -26 10 -75z m-856 6 c14 -18 22 -67 12 -74 -5 -3 0 -17 12 -33 20 -28
18 -55 -6 -65 -22 -8 -39 22 -42 73 -1 25 -4 61 -7 79 -5 34 12 44 31 20z"/>
</g>
</svg>
