<?xml version="1.0" standalone="no"?>
<!DOCTYPE svg PUBLIC "-//W3C//DTD SVG 20010904//EN"
 "http://www.w3.org/TR/2001/REC-SVG-20010904/DTD/svg10.dtd">
<svg version="1.0" xmlns="http://www.w3.org/2000/svg"
 width="1280.000000pt" height="1276.000000pt" viewBox="0 0 1280.000000 1276.000000"
 preserveAspectRatio="xMidYMid meet">
<g transform="translate(0.000000,1276.000000) scale(0.100000,-0.100000)"
fill="#000000" stroke="none">
<path d="M8940 12662 c0 -55 76 -279 248 -727 196 -511 198 -514 258 -570 60
-57 107 -146 125 -240 11 -52 21 -70 76 -133 83 -96 126 -161 216 -323 99
-180 102 -189 86 -236 -7 -21 -14 -51 -16 -67 -2 -17 -9 -37 -16 -47 -76 -106
-106 -151 -92 -139 10 8 34 40 53 70 42 64 56 52 17 -15 -15 -25 -24 -45 -21
-45 3 0 12 12 21 28 15 26 16 26 9 2 -3 -14 -21 -49 -40 -77 -35 -55 -53 -70
-34 -30 11 21 10 21 -7 -2 -10 -12 -35 -42 -55 -65 -21 -24 -37 -45 -35 -47 1
-3 -12 10 -30 27 -18 17 -51 36 -74 43 -40 12 -44 11 -141 -35 -103 -50 -168
-105 -168 -143 0 -11 -18 -35 -41 -53 -172 -139 -241 -203 -319 -292 -50 -57
-100 -118 -113 -136 -15 -22 -36 -37 -64 -45 -53 -16 -90 -50 -159 -148 -49
-69 -55 -83 -50 -113 9 -43 46 -87 102 -120 l44 -26 -44 -39 c-61 -54 -82 -92
-105 -188 -17 -72 -18 -87 -7 -125 8 -26 10 -50 5 -57 -15 -24 -10 -93 10
-129 l18 -35 -38 -95 c-22 -52 -62 -133 -89 -181 -28 -48 -56 -104 -64 -126
-7 -21 -23 -54 -35 -73 -11 -19 -21 -47 -21 -62 0 -20 -8 -32 -27 -42 -16 -8
-39 -26 -53 -41 -23 -25 -25 -33 -22 -113 1 -48 7 -100 12 -117 5 -16 12 -66
15 -110 4 -43 10 -98 14 -122 8 -41 6 -46 -25 -77 -47 -47 -45 -83 7 -182 39
-73 42 -85 50 -193 5 -64 14 -140 19 -170 6 -30 9 -55 7 -56 -1 -1 -17 -8 -35
-15 -50 -20 -67 -50 -52 -97 7 -21 23 -57 36 -80 13 -23 24 -51 24 -63 0 -30
49 -188 60 -195 5 -3 12 -27 16 -53 11 -78 29 -112 63 -118 26 -6 30 -10 25
-30 -8 -33 13 -90 43 -114 29 -23 81 -26 148 -9 35 9 63 8 132 -5 97 -17 158
-10 180 20 7 10 13 46 13 83 l0 66 103 33 c99 31 197 56 202 50 2 -2 -16 -52
-40 -112 -33 -83 -53 -119 -87 -153 -41 -42 -43 -47 -43 -103 0 -45 5 -65 23
-90 l23 -31 -25 -117 c-13 -64 -27 -134 -31 -154 -3 -21 -21 -55 -41 -80 -34
-39 -36 -46 -32 -98 3 -41 12 -67 35 -100 l31 -45 -14 -99 c-8 -54 -30 -148
-49 -209 -64 -195 -98 -352 -93 -429 2 -44 9 -72 17 -78 11 -6 12 -20 6 -57
-13 -85 -12 -98 11 -101 12 -2 38 12 65 37 58 50 203 248 237 321 l25 55 8
-30 c23 -85 119 -498 128 -550 5 -33 15 -130 21 -215 l11 -155 -36 -67 c-29
-54 -41 -68 -66 -73 -17 -4 -33 -13 -36 -21 -3 -8 -26 -26 -52 -39 -50 -25
-80 -54 -131 -127 -36 -51 -49 -102 -50 -193 -1 -85 -16 -142 -50 -189 -35
-47 -39 -76 -11 -76 34 0 71 19 102 52 30 32 79 128 79 154 0 14 45 103 60
117 15 16 21 -47 9 -98 -6 -27 -13 -92 -16 -143 -6 -107 11 -195 64 -342 38
-107 107 -384 118 -475 4 -33 17 -94 30 -135 13 -41 28 -100 34 -130 13 -65
30 -425 23 -489 -3 -35 -1 -47 13 -58 16 -11 17 -18 7 -50 -6 -21 -14 -63 -18
-93 -4 -30 -20 -87 -35 -127 -16 -39 -29 -75 -29 -80 0 -5 -16 -25 -36 -44
-20 -18 -44 -51 -55 -71 -11 -21 -38 -59 -62 -86 -24 -26 -58 -69 -76 -94 -17
-24 -58 -63 -90 -86 -75 -52 -107 -111 -97 -179 7 -54 17 -68 67 -94 161 -82
735 -55 1209 56 267 62 630 113 710 99 19 -3 51 -18 70 -33 51 -40 96 -58 175
-72 163 -28 656 31 673 81 2 6 8 8 13 4 5 -3 9 0 9 7 0 7 3 10 6 7 9 -10 56
40 49 52 -6 9 -2 9 14 1 18 -10 20 -9 14 5 -5 13 -3 15 7 9 9 -5 11 -4 6 4
-10 16 3 53 16 45 6 -4 9 -3 6 2 -23 50 -33 64 -45 60 -7 -3 -13 -1 -13 4 0 6
-11 10 -25 10 -14 0 -25 5 -25 11 0 6 -7 9 -15 6 -8 -4 -17 -2 -19 2 -3 5 -18
6 -32 3 -20 -4 -25 -2 -19 8 5 9 2 10 -14 5 -13 -4 -21 -2 -21 5 0 7 -6 10
-14 7 -8 -3 -17 1 -20 9 -3 9 -11 12 -16 9 -6 -4 -17 -1 -25 5 -8 6 -24 10
-37 9 -13 -2 -28 0 -33 3 -6 4 -44 8 -85 10 l-75 3 -92 85 c-51 48 -102 99
-114 114 -12 15 -39 38 -60 52 -24 14 -41 35 -45 52 -4 15 -22 57 -41 94 -46
91 -51 123 -25 151 29 32 35 61 19 99 -13 30 -12 50 4 159 38 269 86 456 224
879 l57 175 8 207 7 207 31 36 c22 25 33 49 38 85 4 27 9 49 13 48 3 -1 18 4
32 10 31 12 65 6 96 -18 27 -21 103 -116 103 -128 0 -11 49 -76 82 -110 51
-52 142 -80 154 -48 3 9 -15 41 -44 77 -30 36 -60 87 -72 123 -55 155 -128
253 -241 322 -32 19 -59 40 -61 46 -4 12 -30 20 -65 19 -29 -1 -47 33 -44 82
1 30 -4 44 -26 66 -28 27 -28 29 -27 148 2 118 2 121 44 214 37 82 146 279
155 279 2 0 29 -36 60 -80 83 -119 168 -171 195 -121 5 11 10 44 10 73 0 29 9
80 19 113 27 87 49 268 55 441 3 134 6 154 23 171 11 11 25 47 32 81 20 102
-10 374 -53 476 -13 32 -13 36 6 53 18 16 20 27 16 114 -3 63 -11 107 -22 130
-39 77 -107 275 -113 330 -5 55 -4 59 14 59 27 0 38 15 52 72 26 107 4 319
-44 434 -20 49 -20 57 17 149 17 45 34 109 37 145 l6 65 29 -54 c15 -30 33
-64 39 -75 5 -12 14 -28 19 -36 4 -8 12 -25 18 -37 8 -19 17 -23 55 -23 48 0
105 23 105 42 0 6 8 20 17 30 15 17 15 21 -6 61 -12 23 -30 54 -39 69 -88 142
-130 213 -159 268 -20 36 -41 72 -48 80 -7 8 -27 42 -44 75 -18 33 -39 67 -47
76 -21 24 -18 42 5 29 29 -15 88 -12 127 6 41 19 106 88 133 141 23 47 57 144
66 193 9 51 -11 193 -35 239 -27 54 -94 116 -147 138 -31 13 -41 22 -37 33 4
8 13 51 20 95 15 85 10 163 -12 207 -10 19 -14 68 -14 160 l0 134 57 19 c75
26 123 71 123 117 0 41 -41 166 -69 211 -11 18 -33 42 -49 54 -17 12 -36 39
-43 60 -7 21 -22 60 -35 87 -22 49 -22 50 -4 85 45 89 62 203 38 256 -18 40
-128 96 -201 103 -68 6 -77 12 -189 124 -38 37 -68 75 -68 85 0 10 7 40 15 67
21 68 19 178 -5 271 -30 116 -72 173 -144 191 -33 8 -101 -16 -173 -62 -34
-22 -55 -30 -59 -22 -4 6 -7 55 -8 110 0 55 -4 89 -7 76 -3 -15 -8 -2 -13 41
-4 35 -5 66 -2 69 3 3 6 -6 6 -19 0 -14 7 -34 16 -45 15 -18 15 -18 10 6 -2
14 -9 45 -15 70 -22 89 -23 96 -10 80 9 -13 10 -12 5 4 -4 10 -18 60 -32 110
-15 50 -34 105 -42 121 -9 17 -16 49 -17 73 -1 24 -9 50 -19 61 -10 11 -15 28
-12 38 3 10 -1 29 -8 42 -10 18 -11 30 -3 41 16 26 0 69 -28 76 -13 3 -27 15
-31 26 -6 21 -75 99 -159 179 -58 56 -151 94 -192 78 -15 -6 -31 -5 -43 1 -32
17 -118 12 -160 -10 -80 -41 -220 -191 -235 -253 -5 -17 -14 -27 -25 -27 -19
0 -46 -52 -36 -68 3 -5 -1 -15 -9 -22 -9 -7 -15 -29 -15 -51 0 -22 -4 -39 -9
-39 -13 0 -34 -58 -27 -75 5 -13 -16 -65 -42 -105 -9 -14 -72 136 -107 254
-22 77 -32 96 -79 147 -75 80 -115 155 -128 236 -9 55 -20 79 -53 123 -22 30
-67 93 -100 140 -173 251 -517 706 -603 798 -59 63 -82 76 -82 44z m850 -2626
c0 -2 -8 -10 -17 -17 -16 -13 -17 -12 -4 4 13 16 21 21 21 13z m15 -90 c-17
-25 -45 -42 -45 -27 0 8 48 50 58 51 1 0 -5 -11 -13 -24z m-232 -1832 c22 -55
46 -145 61 -230 14 -77 35 -166 46 -198 11 -33 20 -80 20 -105 0 -25 5 -75 11
-111 19 -119 18 -182 -2 -212 -12 -15 -16 -33 -12 -44 8 -20 6 -20 -86 43 -88
60 -114 56 -127 -18 -3 -19 -17 -65 -29 -104 -21 -62 -23 -85 -20 -199 2 -70
7 -157 10 -191 6 -55 4 -72 -20 -132 -15 -37 -40 -93 -55 -123 -15 -30 -35
-75 -44 -100 -16 -43 -20 -46 -68 -58 -28 -6 -58 -18 -67 -26 -22 -19 -133
-76 -148 -76 -7 0 -20 15 -29 33 -9 17 -51 71 -93 119 -42 47 -91 107 -110
133 -33 44 -35 51 -35 129 0 59 5 88 17 107 9 14 26 61 37 104 l20 78 -25 25
c-14 13 -25 33 -25 43 0 27 30 99 55 134 23 31 68 191 66 235 0 14 6 52 14 85
35 148 56 282 50 325 -6 44 -5 46 30 64 69 38 159 146 215 260 28 58 77 136
107 173 30 37 69 92 86 121 l30 53 42 -123 c24 -68 59 -164 78 -214z m2215
-822 c2 -13 10 -26 18 -29 8 -3 14 -10 14 -15 0 -5 20 -53 45 -105 25 -53 44
-97 43 -98 -36 -33 -92 -75 -100 -75 -7 0 -9 22 -6 58 4 43 1 66 -13 92 -12
22 -18 53 -17 82 2 36 -3 53 -26 82 l-28 37 33 -3 c27 -2 35 -8 37 -26z
m-1098 -2939 c-1 -226 17 -394 46 -441 13 -20 13 -40 -1 -160 -18 -146 -14
-253 11 -375 23 -110 20 -134 -18 -150 -43 -18 -60 -40 -67 -85 -6 -34 -11
-39 -61 -59 -35 -14 -56 -28 -58 -40 -2 -10 -10 -40 -19 -66 -9 -31 -12 -52
-5 -60 19 -25 12 -148 -14 -221 -28 -80 -31 -153 -10 -253 21 -98 54 -348 66
-488 5 -66 19 -149 30 -183 12 -40 20 -91 20 -135 0 -56 5 -82 25 -120 23 -47
23 -50 7 -83 -13 -28 -14 -41 -5 -64 12 -32 8 -40 -18 -40 -9 0 -23 -10 -31
-23 -16 -23 -30 -147 -17 -147 4 0 11 -9 14 -20 3 -11 16 -22 28 -25 21 -6 22
-12 24 -116 1 -61 7 -163 14 -227 6 -64 12 -130 14 -145 1 -15 13 -39 25 -52
13 -14 22 -25 19 -25 -2 0 -121 -18 -265 -40 -143 -21 -301 -44 -350 -50 -49
-5 -119 -15 -157 -22 -37 -6 -70 -8 -74 -5 -12 13 50 87 96 113 69 41 146 100
171 131 20 26 21 34 15 158 -3 71 -11 171 -16 221 -10 90 -10 92 16 130 14 21
30 41 35 44 5 3 5 25 -1 50 -6 25 -8 55 -6 67 3 17 -4 28 -28 44 l-32 22 5
126 5 126 46 90 c44 87 46 93 52 205 5 107 9 123 51 225 78 187 82 207 74 390
-8 181 -8 165 0 262 5 56 1 96 -16 175 -13 57 -26 107 -30 111 -4 4 -19 9 -33
11 -36 4 -57 24 -57 53 0 14 -10 42 -21 63 l-22 38 30 84 c48 132 61 209 77
450 8 124 23 258 32 299 l17 74 23 -54 c14 -31 29 -51 36 -49 19 6 44 61 73
163 14 50 27 96 30 103 3 8 34 12 105 12 89 0 100 -2 100 -17z"/>
<path d="M1782 11615 c-32 -15 -72 -25 -98 -25 -59 0 -107 -21 -165 -73 -27
-23 -66 -57 -88 -75 -46 -38 -73 -102 -92 -209 -6 -37 -17 -79 -24 -93 -37
-74 -67 -299 -85 -645 -5 -93 -15 -191 -21 -217 -13 -56 -60 -126 -168 -248
-104 -118 -232 -297 -311 -435 -35 -61 -86 -148 -115 -195 -85 -140 -89 -155
-90 -315 -1 -132 -3 -147 -37 -255 -20 -63 -39 -135 -43 -160 -4 -25 -17 -55
-30 -68 -25 -25 -34 -67 -41 -194 -3 -54 -1 -89 6 -93 5 -3 10 -13 10 -22 0
-9 7 -24 15 -33 13 -14 13 -27 0 -111 -9 -51 -22 -161 -29 -244 -8 -82 -26
-197 -40 -255 -29 -119 -33 -217 -11 -325 13 -69 13 -71 -12 -122 -24 -48 -25
-56 -14 -100 21 -86 185 -543 216 -604 9 -16 22 -29 30 -29 21 0 19 -27 -5
-60 -24 -33 -18 -40 31 -40 37 0 38 -1 33 -29 -5 -21 12 -70 66 -197 40 -93
81 -176 91 -186 10 -9 19 -26 19 -38 0 -13 19 -41 44 -67 47 -48 67 -103 45
-129 -12 -14 -10 -60 9 -194 7 -52 53 -150 70 -150 5 0 14 -16 21 -35 7 -20
25 -43 39 -52 15 -10 47 -32 71 -50 51 -38 67 -40 96 -13 12 12 29 18 38 15
21 -9 32 -175 23 -344 -8 -151 6 -300 35 -379 18 -47 23 -90 29 -252 5 -126
15 -232 28 -300 11 -58 23 -139 26 -181 4 -51 17 -109 40 -172 49 -136 53
-172 22 -227 -46 -83 -83 -165 -116 -255 -18 -50 -62 -158 -96 -241 -106 -252
-113 -303 -85 -564 10 -102 22 -221 26 -265 8 -99 29 -184 61 -246 29 -58 36
-161 9 -139 -26 22 -29 3 -7 -57 30 -88 34 -110 33 -208 -2 -85 -11 -142 -61
-360 -16 -73 -21 -131 -23 -303 -2 -199 -1 -214 17 -227 16 -12 19 -29 20
-129 1 -99 4 -118 22 -143 28 -38 99 -85 154 -102 25 -7 53 -17 64 -23 10 -5
60 -14 110 -19 208 -20 322 -4 378 51 25 26 28 35 28 95 0 36 -7 82 -15 102
-8 19 -15 46 -15 59 0 27 -62 193 -90 239 -22 38 -34 85 -21 85 6 0 26 14 45
30 l34 30 83 -44 c232 -122 384 -166 577 -166 126 0 228 19 309 57 79 36 93
60 93 153 0 81 2 77 -87 211 -31 47 -91 78 -238 124 -66 20 -131 47 -145 59
-60 52 -110 86 -129 86 -11 0 -29 12 -41 28 -12 15 -34 29 -48 32 -20 4 -30
14 -37 37 -6 22 -15 33 -27 33 -11 0 -23 12 -29 28 -6 15 -17 41 -24 57 -14
35 -20 165 -6 165 5 0 9 24 9 53 -1 70 7 128 19 152 6 11 9 53 8 94 -2 66 1
80 26 120 59 96 140 401 199 746 40 238 66 312 173 493 36 61 62 120 77 175
12 45 35 129 51 187 41 150 66 280 74 390 4 52 13 117 21 145 16 54 78 429 89
535 4 36 19 108 35 160 72 245 83 420 40 600 -15 63 -25 144 -29 240 -6 135
-9 150 -40 219 -20 45 -37 103 -42 145 -5 39 -16 94 -23 121 -22 76 -30 153
-18 168 6 7 14 33 17 57 4 25 12 58 18 74 9 24 8 31 -7 41 -15 11 -15 16 -4
34 10 17 10 23 1 29 -9 6 -12 33 -11 88 2 62 -2 91 -20 134 -35 86 -28 104 16
40 20 -30 52 -70 70 -89 28 -29 32 -38 26 -67 l-6 -33 32 9 c37 11 56 4 41
-14 -7 -8 -6 -20 3 -38 22 -42 174 -235 191 -241 9 -4 13 -18 11 -42 -2 -27
-11 -43 -39 -66 -21 -17 -44 -45 -52 -62 -8 -18 -26 -47 -40 -66 -14 -19 -29
-52 -35 -75 -5 -23 -17 -61 -26 -86 -29 -84 -37 -139 -21 -163 8 -12 19 -38
26 -58 18 -55 141 -159 189 -159 15 0 36 -7 46 -15 11 -8 27 -15 36 -15 9 0
60 36 113 80 102 84 115 108 105 182 -3 17 1 43 8 57 24 45 23 314 0 359 -10
19 -16 56 -16 95 0 35 -3 67 -7 71 -5 4 -8 26 -9 49 0 23 -22 109 -48 191 -37
115 -52 149 -67 153 -24 7 -24 15 1 38 26 24 25 31 -7 47 -21 10 -28 21 -29
43 0 17 -17 84 -36 150 -20 66 -50 182 -67 258 -34 151 -52 197 -80 197 -26 0
-54 35 -96 120 -21 41 -56 101 -77 133 -67 99 -78 132 -84 269 -5 105 -3 140
17 238 39 195 27 344 -42 524 -11 28 -23 89 -28 136 -12 110 -35 199 -73 280
-25 53 -54 88 -156 188 -70 68 -147 135 -172 150 -25 14 -70 51 -100 81 -48
49 -57 65 -70 121 -15 63 -15 67 8 125 20 49 23 70 19 122 -5 51 -2 74 17 125
13 35 31 97 41 138 10 41 30 100 43 130 22 46 27 76 32 185 4 72 7 122 8 111
2 -15 10 -10 41 25 50 55 70 129 52 188 -8 27 -8 47 -1 66 17 44 11 97 -15
143 -16 29 -23 52 -19 67 3 13 -1 48 -10 78 -16 56 -14 53 -161 181 -70 61
-89 68 -185 77 -47 4 -112 16 -145 28 -78 27 -128 26 -193 -4z m-536 -1349
c-24 -104 -45 -137 -170 -266 -62 -63 -134 -143 -161 -177 -26 -35 -50 -63
-52 -63 -14 0 92 144 190 258 121 141 178 234 193 314 4 24 9 35 12 25 2 -10
-4 -51 -12 -91z m58 -64 c-20 -39 -121 -150 -105 -117 5 11 19 29 31 40 34 30
60 94 60 151 0 70 13 77 24 14 8 -44 6 -58 -10 -88z m-572 -669 c-20 -37 -108
-158 -101 -137 6 17 114 182 117 179 2 -2 -6 -20 -16 -42z m-91 -217 c-21 -48
-41 -90 -45 -93 -10 -11 -7 21 8 71 13 43 63 122 72 113 2 -2 -14 -43 -35 -91z
m-57 -18 c-4 -6 -9 -52 -10 -102 -2 -50 -10 -111 -18 -136 -15 -45 -15 -45
-12 65 1 75 8 122 19 148 9 20 19 37 22 37 3 0 3 -5 -1 -12z m391 -1679 c26
-83 78 -211 115 -287 37 -75 70 -156 73 -180 5 -26 1 -80 -9 -137 -23 -135
-17 -279 14 -322 14 -20 19 -34 12 -38 -6 -4 -22 -31 -35 -61 -13 -30 -27 -54
-30 -54 -3 0 -19 7 -35 15 -31 16 -38 33 -20 51 7 7 2 82 -15 229 -14 121 -25
242 -25 270 -1 100 -30 175 -70 175 -27 0 -55 50 -83 150 -45 160 -45 152 4
251 24 49 46 89 49 89 3 0 28 -68 55 -151z m119 -1124 c-15 -23 -34 -33 -34
-18 0 10 32 43 42 43 5 0 1 -11 -8 -25z m2120 -589 c40 -53 46 -85 17 -103
-18 -11 -22 -8 -43 30 -36 65 -86 60 -72 -7 4 -21 3 -26 -6 -21 -7 5 -10 23
-8 49 3 22 1 54 -3 70 -9 29 0 56 29 89 14 16 16 15 32 -21 10 -21 34 -60 54
-86z"/>
<path d="M5725 10776 c-44 -14 -88 -25 -98 -26 -9 0 -25 -9 -34 -20 -10 -11
-23 -20 -29 -20 -17 0 -89 -61 -86 -72 1 -5 -2 -7 -7 -4 -5 3 -17 -6 -26 -20
-11 -18 -13 -24 -4 -19 8 5 7 0 -3 -11 -41 -47 -49 -108 -22 -172 11 -28 11
-41 -3 -95 -16 -62 -14 -219 3 -321 l7 -38 -49 37 c-28 22 -50 32 -52 26 -6
-17 77 -281 101 -321 11 -19 28 -44 37 -55 10 -11 23 -44 30 -72 6 -29 25 -71
42 -94 l29 -40 -27 -82 c-14 -45 -34 -91 -44 -102 -24 -28 -42 -64 -36 -74 9
-13 -66 -79 -114 -100 -72 -31 -130 -35 -217 -16 -52 12 -104 16 -163 13 -73
-3 -94 -9 -150 -39 -79 -42 -180 -141 -311 -304 -108 -135 -163 -188 -282
-271 -230 -160 -372 -289 -485 -439 -94 -124 -126 -192 -119 -246 9 -70 117
-219 334 -461 68 -76 123 -142 123 -147 0 -13 100 -101 115 -101 6 0 20 -10
31 -21 10 -12 62 -58 114 -102 52 -44 97 -85 99 -91 6 -15 28 -32 72 -55 19
-11 48 -39 64 -63 16 -24 44 -62 63 -85 37 -47 37 -44 -21 -129 -82 -123 -190
-390 -247 -608 -42 -163 -101 -456 -169 -841 -93 -526 -102 -593 -126 -995
-20 -331 -36 -483 -85 -819 -22 -152 -46 -343 -54 -426 -32 -316 -37 -364 -51
-485 -8 -69 -24 -204 -35 -300 -11 -96 -30 -235 -42 -308 -20 -120 -21 -142
-10 -218 7 -47 33 -142 58 -212 43 -120 45 -131 40 -203 -3 -42 -6 -82 -8 -89
-2 -7 13 -18 32 -25 l35 -12 13 -104 c7 -57 17 -108 22 -113 5 -5 23 3 42 18
42 31 95 51 213 77 50 11 94 24 98 28 5 5 3 235 -3 512 -11 506 -11 1004 1
939 4 -19 19 -134 33 -255 15 -121 33 -267 41 -325 27 -206 47 -559 35 -635
-7 -38 -14 -108 -17 -155 -3 -53 -12 -101 -24 -127 -10 -24 -19 -47 -19 -53 0
-5 -13 -22 -30 -37 -17 -14 -30 -36 -30 -49 0 -28 -34 -109 -50 -119 -24 -15
-83 -120 -87 -154 -11 -96 -11 -95 34 -117 31 -16 39 -24 30 -33 -65 -65 427
-93 728 -40 84 14 196 30 217 30 4 0 26 6 49 15 33 11 74 13 188 9 119 -5 171
-2 275 15 71 11 131 22 135 24 3 2 35 7 71 11 143 14 153 20 45 28 -146 10
-519 36 -600 42 -217 17 -372 25 -465 25 -99 0 -106 1 -115 23 -8 16 -7 35 3
67 10 32 12 70 7 130 -3 47 -7 90 -7 95 0 6 7 64 16 130 19 142 20 199 4 275
-10 49 -9 63 5 99 9 23 17 68 17 100 0 138 70 552 130 763 16 58 36 138 46
178 9 40 22 87 29 105 10 23 14 101 14 296 1 298 6 334 56 490 59 183 66 229
105 694 24 290 49 459 96 665 61 269 74 347 74 446 0 92 1 96 46 187 26 50 60
111 76 135 l30 43 29 -37 c70 -88 85 -132 118 -349 22 -146 46 -229 101 -360
21 -49 68 -182 105 -295 85 -263 113 -342 165 -465 23 -55 64 -163 92 -240 63
-175 107 -262 217 -434 49 -75 96 -151 106 -170 28 -56 135 -342 135 -363 0
-21 35 -94 48 -100 4 -1 36 -50 71 -108 35 -58 93 -152 128 -210 74 -122 292
-553 324 -641 12 -33 34 -77 49 -98 15 -20 30 -54 34 -76 4 -22 18 -80 32
-129 19 -67 23 -95 16 -112 -21 -45 -23 -109 -7 -184 9 -41 18 -95 20 -119 2
-28 16 -62 38 -96 52 -78 93 -162 118 -245 30 -100 72 -184 125 -246 24 -28
41 -54 38 -56 -11 -11 28 -29 92 -43 97 -20 294 -29 389 -17 69 9 83 14 102
39 13 15 23 36 23 46 0 15 -7 18 -37 16 -50 -4 -90 23 -98 64 -11 55 -34 96
-71 124 -53 40 -198 333 -173 349 22 13 0 88 -60 210 -34 67 -67 124 -73 126
-6 2 -15 37 -19 76 -5 49 -20 100 -44 155 -60 134 -92 219 -103 272 -6 28 -27
109 -46 181 -19 73 -45 196 -60 275 -70 395 -99 569 -101 617 -2 30 -10 61
-18 70 -8 10 -18 33 -22 52 -17 82 -60 201 -103 283 -52 102 -96 164 -211 297
-102 118 -151 215 -188 370 -27 114 -27 119 -29 485 -2 551 -29 828 -114 1175
-27 107 -58 247 -70 310 -12 63 -35 173 -53 244 l-31 129 22 18 c22 17 22 18
7 94 -9 42 -20 88 -26 102 -14 36 -29 230 -29 371 0 129 -7 158 -49 196 -35
32 -28 88 24 195 48 99 54 137 29 181 -16 26 -15 34 16 155 18 70 40 136 49
147 9 10 34 27 56 37 51 23 130 107 158 169 18 38 22 65 22 147 0 89 -3 106
-28 157 -16 32 -49 85 -73 118 -41 54 -45 64 -42 107 3 48 4 48 60 77 75 37
152 43 298 21 155 -23 579 -32 720 -16 189 22 446 99 511 153 36 30 52 69 52
127 -1 32 -6 68 -12 80 -16 30 -241 225 -315 273 -33 22 -107 61 -162 88 -56
27 -104 55 -107 62 -2 8 -36 26 -73 42 -105 42 -254 117 -419 212 -284 164
-322 179 -439 178 -89 -1 -396 -57 -473 -86 -38 -14 -49 -8 -33 21 6 12 13 50
17 85 4 41 10 63 17 60 6 -2 16 0 22 4 21 13 76 112 81 145 6 41 36 93 52 89
8 -1 10 4 7 16 -9 26 3 52 19 46 10 -4 15 10 20 49 4 31 4 60 1 66 -4 5 -2 12
3 16 6 3 8 12 5 20 -4 8 1 18 10 21 9 3 16 17 16 31 0 13 -4 21 -10 18 -6 -3
-7 1 -4 9 3 9 1 16 -5 16 -6 0 -11 8 -11 18 0 9 -11 41 -25 70 -27 59 -33 98
-12 86 6 -4 -4 11 -24 32 -59 65 -66 82 -14 34 l48 -45 -39 54 c-21 29 -57 72
-79 95 -22 23 -26 26 -10 7 l30 -34 -35 24 c-19 13 -41 24 -49 26 -8 1 -21 9
-30 19 -13 14 -11 13 14 -2 21 -13 26 -14 18 -4 -6 8 -11 18 -10 22 1 4 -31
24 -72 43 -41 20 -71 38 -68 41 3 3 23 -4 46 -16 23 -11 41 -18 41 -16 0 13
-92 57 -125 60 -20 1 -40 8 -45 16 -6 9 -43 14 -126 17 -105 3 -129 0 -199
-21z m455 -1360 c0 -3 -4 -8 -10 -11 -5 -3 -10 -1 -10 4 0 6 5 11 10 11 6 0
10 -2 10 -4z m223 -64 c16 -7 15 -10 -10 -33 -30 -27 -88 -69 -96 -69 -11 0
17 71 35 90 19 21 40 24 71 12z m397 -7 c16 -8 38 -28 50 -45 12 -16 42 -42
68 -57 69 -40 225 -157 293 -219 32 -30 64 -54 71 -54 7 0 27 -12 43 -26 l30
-25 -80 6 c-44 4 -147 24 -230 45 -261 66 -457 85 -580 55 -81 -19 -83 -19
-77 11 3 19 -3 34 -26 57 l-30 32 63 48 c35 27 115 70 177 98 62 27 124 58
138 69 31 23 52 25 90 5z m-604 -21 c-13 -34 -28 -158 -24 -210 1 -30 1 -54
-1 -54 -9 0 -51 44 -51 53 0 5 -10 22 -21 39 -24 33 -22 71 8 144 17 41 20 44
57 44 31 0 37 -3 32 -16z m99 -272 c74 -39 75 -44 9 -39 -56 4 -143 36 -102
37 10 0 22 10 29 21 6 12 14 17 18 12 3 -6 24 -20 46 -31z m-1323 -674 l26
-67 -36 -68 c-31 -58 -36 -78 -36 -133 0 -76 23 -161 59 -213 25 -38 47 -159
46 -249 -3 -184 0 -207 32 -232 25 -20 27 -28 27 -89 0 -69 0 -69 -60 -132
-22 -23 -24 -79 -3 -111 11 -17 11 -27 2 -47 -10 -22 -15 -24 -37 -16 -31 12
-70 4 -97 -20 -11 -10 -34 -26 -52 -36 l-32 -19 -81 80 c-79 76 -280 326 -280
346 0 17 -71 109 -80 103 -11 -7 -278 331 -268 339 1 2 19 11 38 21 53 27 197
125 283 194 43 34 161 143 263 242 178 175 185 180 221 177 36 -3 39 -6 65
-70z m76 -1223 c-3 -3 -9 2 -12 12 -6 14 -5 15 5 6 7 -7 10 -15 7 -18z m22
-19 c0 -3 -4 -8 -10 -11 -5 -3 -10 -1 -10 4 0 6 5 11 10 11 6 0 10 -2 10 -4z"/>
<path d="M11240 10696 c0 -11 50 -106 55 -106 3 0 -7 24 -21 53 -28 55 -34 65
-34 53z"/>
<path d="M11272 10480 c0 -14 2 -19 5 -12 2 6 2 18 0 25 -3 6 -5 1 -5 -13z"/>
<path d="M9850 10160 c-6 -11 -8 -20 -6 -20 3 0 10 9 16 20 6 11 8 20 6 20 -3
0 -10 -9 -16 -20z"/>
<path d="M9789 10143 c-13 -16 -12 -17 4 -4 9 7 17 15 17 17 0 8 -8 3 -21 -13z"/>
<path d="M9734 10078 l-19 -23 23 19 c21 18 27 26 19 26 -2 0 -12 -10 -23 -22z"/>
</g>
</svg>
