<?xml version="1.0" standalone="no"?>
<!DOCTYPE svg PUBLIC "-//W3C//DTD SVG 20010904//EN"
 "http://www.w3.org/TR/2001/REC-SVG-20010904/DTD/svg10.dtd">
<svg version="1.0" xmlns="http://www.w3.org/2000/svg"
 width="1129.000000pt" height="1280.000000pt" viewBox="0 0 1129.000000 1280.000000"
 preserveAspectRatio="xMidYMid meet">
<g transform="translate(0.000000,1280.000000) scale(0.100000,-0.100000)"
fill="#000000" stroke="none">
<path d="M6565 12779 c-191 -35 -319 -99 -415 -207 -156 -175 -248 -459 -237
-732 3 -69 10 -141 17 -160 6 -19 49 -111 95 -205 46 -93 109 -242 140 -330
87 -246 103 -269 231 -333 106 -53 164 -145 164 -259 0 -104 -55 -169 -187
-217 -240 -88 -466 -195 -593 -281 -68 -47 -91 -57 -147 -65 -144 -20 -378
-164 -559 -345 -135 -134 -161 -169 -334 -444 -148 -236 -191 -294 -246 -332
-23 -16 -62 -57 -86 -91 -34 -50 -56 -69 -105 -94 -66 -35 -69 -35 -379 -54
-112 -6 -264 -25 -440 -54 -763 -127 -1147 -145 -1643 -81 -115 15 -131 12
-183 -34 -37 -32 -77 -51 -109 -51 -11 0 -51 31 -89 69 -118 116 -249 168
-570 226 -80 15 -192 37 -248 51 -146 34 -173 32 -284 -19 -71 -33 -103 -55
-136 -92 -50 -57 -95 -144 -90 -177 3 -20 8 -23 48 -22 25 0 79 4 121 9 121
12 155 3 276 -77 115 -75 201 -122 246 -133 43 -11 43 -25 -4 -66 -41 -36 -48
-38 -110 -39 -89 0 -162 -24 -210 -67 -21 -19 -39 -39 -39 -43 0 -13 74 -40
150 -55 41 -7 119 -25 174 -39 107 -28 155 -31 237 -16 67 13 124 40 176 85
27 23 51 35 71 35 16 0 55 9 87 20 97 33 131 28 199 -29 48 -41 71 -52 130
-66 161 -37 331 -69 716 -136 465 -80 658 -120 890 -184 100 -27 226 -53 320
-66 197 -27 200 -28 200 -38 0 -5 -22 -41 -49 -80 -86 -126 -102 -245 -40
-315 44 -50 93 -60 265 -53 l143 6 65 -129 c41 -82 68 -148 72 -180 7 -50 7
-50 57 -65 167 -50 398 36 637 234 53 45 61 47 149 59 87 12 95 11 124 -7 27
-16 40 -18 79 -11 73 14 164 38 267 71 52 17 98 26 102 22 5 -5 -2 -86 -16
-183 -14 -96 -25 -185 -25 -197 0 -15 29 -45 105 -105 58 -46 105 -87 105 -92
0 -5 -11 -23 -24 -41 -29 -37 -302 -193 -386 -220 -282 -91 -733 -272 -1043
-419 -261 -124 -572 -303 -762 -440 -55 -40 -135 -98 -178 -129 -46 -33 -186
-110 -335 -184 -555 -274 -651 -339 -749 -508 -139 -240 -234 -489 -382 -1005
-91 -321 -160 -534 -226 -700 -90 -226 -95 -339 -29 -575 120 -426 134 -548
92 -814 -11 -70 -20 -89 -174 -346 -181 -302 -201 -326 -368 -436 -259 -171
-628 -317 -1066 -423 -189 -46 -204 -53 -216 -103 -8 -29 22 -106 50 -132 l23
-21 1109 2 1109 3 33 24 c87 62 143 202 146 365 l1 100 -95 47 c-105 51 -179
111 -221 176 l-27 43 59 288 c32 158 62 293 67 301 4 8 35 22 68 31 147 40
247 127 368 320 136 217 168 260 297 396 252 263 297 368 364 851 43 304 63
406 117 569 32 100 44 123 64 133 34 15 61 14 94 -5 15 -10 35 -14 44 -11 8 3
36 47 61 97 50 100 55 103 155 114 110 12 426 75 611 121 458 115 895 271
1739 620 l185 77 175 -7 c96 -4 223 -9 281 -11 275 -10 428 -87 913 -458 204
-156 307 -224 432 -283 127 -60 215 -80 430 -97 179 -15 224 -25 224 -48 0 -6
-13 -32 -29 -57 -17 -25 -34 -65 -39 -89 -10 -42 -5 -119 7 -126 3 -2 35 2 71
10 86 18 125 17 167 -3 75 -35 80 -128 17 -299 -116 -315 -147 -437 -165 -651
-12 -130 -6 -482 10 -641 9 -91 30 -132 151 -307 122 -175 130 -233 71 -483
-24 -106 -51 -193 -68 -223 -34 -63 -127 -156 -217 -217 -65 -45 -70 -50 -101
-130 -19 -45 -50 -127 -69 -182 l-36 -100 31 -34 c97 -111 334 -189 659 -216
74 -6 179 -15 233 -21 124 -12 442 -11 617 1 74 5 313 10 531 10 l397 1 69 77
c114 128 119 143 65 194 -25 24 -47 29 -277 63 -137 20 -306 47 -375 61 -551
109 -824 292 -847 569 -4 49 3 92 41 240 56 220 98 310 257 550 155 235 211
327 263 431 67 135 76 182 76 391 0 213 11 366 50 688 50 416 54 466 54 660 0
194 -11 308 -45 474 -29 143 -61 194 -219 351 -222 223 -379 341 -845 635
-367 232 -486 310 -625 413 -298 220 -483 415 -610 642 -24 41 -57 96 -75 121
-53 74 -65 105 -65 161 0 90 40 208 75 222 9 3 38 6 65 6 58 0 73 17 110 120
60 168 115 288 447 975 284 588 401 902 444 1197 14 100 6 364 -15 458 -31
142 -103 302 -197 442 -48 70 -95 109 -184 154 -95 46 -193 69 -430 99 -219
27 -312 49 -419 99 -181 85 -204 98 -216 124 -7 15 -16 95 -20 182 -7 138 -6
164 12 235 18 71 20 102 15 270 -6 205 -22 320 -81 575 -89 379 -188 577 -361
722 -111 95 -160 114 -423 167 -73 15 -148 12 -267 -10z m-882 -4440 c36 -103
58 -233 64 -380 l6 -146 -69 -26 c-38 -14 -132 -49 -209 -78 -235 -87 -344
-138 -359 -168 -8 -14 -22 -33 -32 -43 -22 -19 -171 -78 -198 -78 -47 0 -196
34 -196 44 0 7 16 28 36 47 20 18 51 55 68 81 23 34 68 73 154 132 185 129
303 227 453 376 90 89 154 163 189 218 30 45 58 81 64 79 6 -2 19 -28 29 -58z"/>
</g>
</svg>
