<?xml version="1.0" standalone="no"?>
<!DOCTYPE svg PUBLIC "-//W3C//DTD SVG 20010904//EN"
 "http://www.w3.org/TR/2001/REC-SVG-20010904/DTD/svg10.dtd">
<svg version="1.0" xmlns="http://www.w3.org/2000/svg"
 width="1280.000000pt" height="1280.000000pt" viewBox="0 0 1280.000000 1280.000000"
 preserveAspectRatio="xMidYMid meet">
<g transform="translate(0.000000,1280.000000) scale(0.100000,-0.100000)"
fill="#000000" stroke="none">
<path d="M3565 12330 c-3 -5 8 -31 26 -57 42 -60 98 -175 144 -293 33 -86 36
-101 31 -164 -5 -74 -21 -100 -79 -134 -16 -10 -37 -33 -47 -53 l-19 -36 -108
-5 c-130 -6 -206 -33 -332 -123 l-82 -57 -39 16 c-28 11 -63 15 -120 12 -84
-4 -206 21 -220 44 -30 49 36 357 113 532 16 35 22 60 16 64 -12 7 -153 -77
-200 -120 -41 -39 -108 -120 -129 -157 -102 -185 -127 -268 -106 -366 13 -64
55 -137 102 -176 16 -13 56 -36 89 -50 94 -40 190 -77 204 -77 7 0 42 -16 78
-35 36 -19 74 -35 85 -35 27 0 56 -55 63 -119 4 -31 16 -76 28 -101 12 -25 20
-60 18 -80 -2 -36 12 -67 147 -321 45 -84 64 -108 144 -180 51 -46 106 -94
121 -106 42 -33 71 -144 63 -243 -4 -41 -9 -113 -13 -160 -6 -82 -7 -87 -50
-139 -103 -126 -134 -216 -168 -479 -14 -106 -25 -226 -25 -266 0 -133 57
-263 131 -299 l34 -16 0 -93 c0 -59 6 -111 16 -143 9 -27 25 -87 34 -132 16
-74 17 -88 4 -125 -19 -58 -15 -168 10 -250 19 -65 19 -71 3 -148 -16 -78 -16
-83 5 -188 29 -141 37 -205 29 -238 -7 -26 -8 -26 -69 -20 -71 8 -325 -17
-413 -40 -150 -39 -294 -114 -426 -222 -46 -38 -114 -86 -153 -108 -38 -21
-92 -53 -120 -71 -27 -18 -54 -33 -59 -33 -5 0 -50 -23 -100 -52 -121 -70
-312 -230 -381 -321 -30 -40 -82 -94 -115 -121 -87 -70 -212 -223 -259 -319
-52 -106 -83 -236 -84 -352 -1 -163 51 -282 178 -410 131 -132 259 -181 459
-173 93 3 109 7 165 36 34 17 74 32 90 32 16 0 48 7 72 16 43 16 190 22 359
15 71 -3 106 7 161 45 20 14 59 31 85 39 27 8 82 26 123 40 40 15 77 23 81 18
5 -4 13 -107 19 -228 11 -233 28 -327 84 -468 49 -122 86 -254 101 -359 11
-76 24 -126 47 -175 39 -81 34 14 51 -1093 2 -84 -4 -161 -16 -234 -18 -105
-18 -124 0 -276 6 -52 4 -57 -31 -102 -52 -66 -59 -104 -29 -169 l24 -51 -31
-52 c-18 -28 -47 -70 -66 -93 -28 -35 -34 -48 -28 -72 7 -35 -5 -46 -31 -26
-29 22 -62 18 -79 -9 -9 -13 -30 -30 -48 -37 -18 -7 -40 -19 -49 -27 -9 -7
-36 -18 -59 -23 -24 -6 -54 -22 -68 -36 -28 -28 -120 -73 -149 -73 -10 0 -26
-6 -37 -14 -11 -7 -34 -17 -52 -20 -17 -4 -37 -14 -44 -22 -6 -8 -19 -14 -28
-14 -9 0 -34 -9 -56 -20 -22 -11 -45 -20 -52 -20 -26 0 -209 -74 -241 -97 -42
-32 -62 -72 -62 -127 0 -50 9 -59 74 -70 21 -4 329 -9 685 -11 639 -5 825 2
881 28 l25 12 1 205 c0 184 2 205 17 208 15 3 16 14 11 90 -4 48 -11 95 -15
104 -14 27 -11 35 25 58 21 12 39 34 45 53 6 18 33 70 61 117 58 99 93 205
125 380 13 69 28 143 34 165 5 22 17 96 26 164 13 110 19 132 54 195 98 179
109 482 32 836 -32 143 -80 323 -101 371 -25 59 -28 139 -8 208 11 40 12 65 6
92 -11 41 -7 50 55 140 21 30 62 95 91 144 30 50 60 90 67 90 14 0 46 -75 58
-137 5 -20 22 -65 38 -100 17 -34 45 -110 62 -166 37 -127 61 -167 114 -192
63 -31 103 -27 127 12 37 61 42 121 45 537 4 406 8 461 40 461 8 0 27 12 44
26 40 34 42 71 4 80 -16 4 -33 11 -39 15 -16 13 -46 114 -42 141 4 22 5 22 18
-7 20 -44 71 -95 95 -95 45 0 60 47 26 84 -31 35 -72 224 -77 355 -6 140 -29
277 -59 351 -44 107 -44 113 18 183 75 86 104 135 110 187 3 25 19 110 36 190
25 119 31 168 31 273 0 91 -4 134 -14 150 -13 22 -35 124 -56 267 -8 61 -8 85
4 125 22 75 44 198 56 306 5 56 25 144 45 208 19 60 42 147 51 193 9 46 29
108 44 138 50 101 70 179 86 329 29 283 29 338 -5 511 -82 415 -151 568 -356
780 -56 58 -131 143 -167 190 -107 140 -174 193 -358 284 -52 26 -108 56 -125
66 -16 10 -41 21 -55 25 -79 23 -108 53 -124 131 -5 24 -1 36 20 60 59 66 82
163 70 296 -9 93 -15 104 -47 88 -13 -7 -39 -26 -57 -42 -27 -23 -37 -27 -48
-17 -8 6 -14 17 -14 23 0 6 -16 49 -35 96 -39 95 -41 107 -20 130 9 10 24 47
34 83 11 36 33 95 50 131 56 116 61 143 46 255 -17 131 -30 154 -165 287 -101
99 -179 150 -254 163 -74 14 -103 14 -111 1z"/>
<path d="M8085 12030 c-69 -20 -135 -52 -184 -89 -63 -47 -209 -198 -230 -237
-12 -22 -31 -54 -43 -72 -15 -25 -22 -56 -26 -123 -5 -99 7 -157 43 -199 12
-14 33 -43 47 -65 14 -22 48 -64 77 -94 28 -29 51 -57 51 -61 0 -5 22 -32 48
-62 52 -56 66 -98 63 -186 -3 -87 -30 -101 -95 -52 -22 17 -46 30 -53 30 -16
0 -17 -59 -3 -183 12 -102 39 -179 76 -218 60 -62 8 -171 -171 -358 -138 -144
-168 -185 -226 -305 -22 -48 -49 -91 -60 -96 -10 -6 -61 -12 -113 -14 -155 -7
-330 -79 -445 -182 -56 -50 -148 -181 -180 -257 -11 -26 -35 -96 -52 -155 -47
-163 -54 -173 -151 -220 -151 -72 -220 -158 -283 -352 -34 -104 -51 -138 -128
-260 -122 -192 -146 -274 -129 -450 14 -145 47 -250 113 -360 73 -122 124
-177 254 -276 63 -47 117 -95 120 -105 4 -10 24 -45 45 -77 22 -32 46 -83 54
-113 76 -293 205 -557 373 -764 43 -53 128 -114 141 -100 6 6 -26 73 -53 110
-24 32 -105 178 -105 189 0 21 27 -4 77 -71 31 -43 80 -104 110 -135 29 -31
53 -61 53 -66 0 -6 -23 -61 -51 -124 -119 -262 -163 -414 -205 -696 -44 -301
-22 -543 60 -667 27 -41 36 -65 36 -97 1 -24 8 -61 17 -83 14 -34 21 -103 25
-240 1 -39 -28 -137 -57 -195 -13 -25 -26 -72 -30 -105 -4 -33 -13 -100 -22
-150 -9 -58 -14 -144 -12 -240 1 -82 -3 -174 -9 -203 -7 -30 -11 -154 -11
-295 0 -231 -1 -245 -25 -312 -22 -66 -47 -121 -83 -189 -13 -24 -14 -42 -4
-113 12 -96 14 -101 48 -114 30 -11 26 -29 -10 -47 -14 -7 -29 -21 -32 -32 -4
-11 -15 -25 -26 -30 -10 -6 -19 -19 -19 -29 0 -22 -56 -102 -161 -232 -44 -54
-109 -152 -144 -216 -54 -100 -65 -128 -70 -183 -8 -84 18 -139 88 -187 96
-65 206 -80 292 -39 115 54 203 152 288 322 25 50 87 149 137 220 138 194 134
184 126 339 -8 147 -3 169 48 226 19 20 47 58 62 85 27 45 29 57 29 149 0 98
1 101 37 161 65 105 96 185 119 299 25 127 39 158 108 240 28 33 61 84 73 115
26 68 35 213 19 313 -6 40 -14 107 -17 150 l-5 79 61 129 c84 176 89 199 120
471 16 140 119 381 237 552 98 142 127 221 163 451 24 156 40 201 83 242 36
35 168 113 191 113 30 0 84 -61 125 -140 30 -57 54 -128 85 -252 54 -209 66
-244 115 -328 21 -36 62 -110 91 -165 82 -155 118 -212 199 -318 42 -54 82
-107 90 -117 7 -11 26 -86 42 -167 30 -152 44 -187 149 -383 23 -44 40 -89 40
-108 0 -20 -24 -89 -59 -167 -127 -282 -133 -518 -17 -699 58 -92 73 -126 110
-268 63 -237 91 -301 160 -367 41 -40 43 -53 16 -112 -31 -69 -26 -135 14
-212 18 -36 47 -82 64 -104 16 -21 33 -49 37 -63 3 -14 17 -50 30 -80 19 -46
25 -84 33 -225 l9 -170 67 -139 c36 -76 76 -175 87 -219 38 -150 107 -244 216
-294 52 -24 63 -25 162 -21 133 7 258 44 296 90 38 45 35 123 -9 237 -44 113
-61 147 -146 282 -83 131 -140 240 -140 269 0 11 -18 36 -40 56 -38 35 -60 82
-60 132 0 19 5 22 35 22 19 0 35 4 35 8 0 5 -18 54 -40 110 -48 121 -51 171
-15 214 30 36 32 79 6 139 -11 24 -27 78 -35 119 -15 69 -15 82 1 158 14 72
14 97 4 180 -17 139 -16 212 4 337 21 128 24 365 6 465 -7 36 -15 115 -20 175
-7 107 -8 113 -43 157 -32 43 -36 54 -42 136 -6 82 -4 93 19 143 29 63 30 70
9 129 -23 66 -10 195 34 345 106 363 108 429 16 762 -58 211 -95 316 -156 438
-71 141 -211 362 -354 557 -119 163 -123 171 -165 295 -37 112 -48 134 -90
178 -46 49 -48 54 -58 134 -7 52 -18 92 -30 110 -11 15 -29 51 -40 79 -12 29
-32 70 -47 91 -25 39 -25 40 -10 92 20 66 20 140 0 249 -17 95 -14 133 22 295
14 61 31 166 39 235 14 119 30 188 88 382 54 181 61 230 62 453 2 257 13 312
71 340 51 24 115 16 161 -22 37 -30 57 -62 117 -193 62 -135 229 -306 366
-373 64 -32 67 -32 245 -37 189 -5 225 -13 225 -50 0 -11 -12 -69 -27 -128
-20 -82 -26 -130 -26 -207 1 -108 13 -160 77 -323 26 -67 41 -131 56 -233 11
-77 25 -161 31 -186 21 -83 -7 -298 -47 -360 -7 -12 -50 -50 -94 -83 -45 -34
-122 -101 -173 -149 -51 -48 -117 -101 -147 -119 -73 -41 -96 -66 -119 -132
-10 -30 -28 -80 -39 -110 -11 -30 -23 -71 -27 -90 -7 -34 -6 -35 10 -12 9 12
25 22 37 22 28 0 83 60 119 132 32 64 51 76 154 104 91 25 156 15 203 -29 13
-12 41 -58 63 -101 34 -69 41 -97 54 -205 9 -69 18 -133 21 -142 2 -10 -3 -49
-12 -89 -9 -39 -13 -82 -10 -94 3 -13 1 -38 -5 -55 -6 -17 -8 -43 -5 -57 10
-39 30 -16 65 74 46 121 62 195 66 320 3 65 5 119 5 122 0 2 5 -1 10 -6 18
-18 41 -244 39 -384 -3 -155 3 -236 19 -252 15 -15 27 12 47 112 10 47 21 89
26 94 10 11 40 -60 33 -79 -8 -19 3 -65 15 -65 9 0 38 113 62 235 6 33 12 121
13 197 0 75 4 134 9 131 11 -7 53 -94 61 -128 8 -34 54 -105 68 -105 29 0 -21
231 -71 328 -16 31 -24 73 -31 155 -6 61 -15 155 -20 207 -6 52 -8 212 -6 355
l4 260 47 185 c95 378 123 626 90 811 -22 128 -103 439 -122 468 -44 70 -213
222 -338 304 -101 66 -154 110 -240 198 -60 62 -130 125 -155 141 -77 49 -191
79 -320 86 l-115 5 -86 83 c-91 87 -217 175 -322 224 -153 72 -364 80 -535 20
-111 -38 -142 -36 -210 13 -26 19 -71 47 -100 61 -54 27 -54 28 -47 64 4 22
22 53 45 78 21 23 46 57 56 75 35 68 102 244 95 251 -3 4 -30 0 -58 -9 -69
-22 -87 -14 -79 35 4 20 16 48 27 62 10 14 29 43 40 66 14 27 32 45 53 52 17
6 53 30 80 52 26 22 55 40 64 40 24 0 192 111 236 157 111 114 116 306 13 478
-20 33 -47 81 -61 106 -36 66 -130 157 -211 205 -113 66 -131 65 -96 -5 49
-95 115 -358 125 -498 4 -58 2 -74 -12 -86 -34 -30 -109 -56 -191 -66 -58 -6
-92 -16 -112 -30 -15 -12 -33 -21 -39 -21 -6 0 -41 18 -77 40 -106 63 -181 85
-298 84 -66 0 -122 -7 -164 -19 l-64 -18 -26 31 c-14 17 -60 48 -101 68 -134
64 -161 103 -131 192 39 121 155 338 233 436 21 27 38 53 38 57 0 13 -48 9
-115 -11z m-835 -3326 c9 -9 16 -64 21 -147 9 -158 16 -182 131 -407 46 -91
104 -214 128 -275 48 -123 53 -166 30 -283 -13 -67 -13 -80 4 -155 10 -45 19
-95 19 -112 0 -36 -64 -222 -90 -261 -14 -23 -18 -50 -19 -137 l-1 -108 -41
-58 c-22 -32 -47 -75 -56 -95 -9 -21 -21 -36 -28 -34 -6 2 -21 31 -33 64 -32
87 -52 122 -102 176 -62 66 -169 151 -223 178 -79 39 -108 68 -166 165 -55 93
-74 144 -116 310 -11 44 -33 129 -48 190 -16 60 -27 113 -24 117 3 4 37 28 75
53 210 136 341 374 355 645 7 132 7 133 61 163 54 30 104 35 123 11z m52
-2268 c11 -26 5 -56 -11 -56 -11 0 -31 60 -24 73 8 14 24 7 35 -17z m-125
-151 c24 -67 28 -95 13 -95 -13 0 -70 117 -70 143 0 12 6 17 18 15 11 -2 25
-25 39 -63z m3983 -55 c0 -16 -4 -30 -10 -30 -11 0 -14 43 -3 53 11 12 13 8
13 -23z"/>
</g>
</svg>
