<?xml version="1.0" standalone="no"?>
<!DOCTYPE svg PUBLIC "-//W3C//DTD SVG 20010904//EN"
 "http://www.w3.org/TR/2001/REC-SVG-20010904/DTD/svg10.dtd">
<svg version="1.0" xmlns="http://www.w3.org/2000/svg"
 width="640.000000pt" height="1280.000000pt" viewBox="0 0 640.000000 1280.000000"
 preserveAspectRatio="xMidYMid meet">
<g transform="translate(0.000000,1280.000000) scale(0.100000,-0.100000)"
fill="#000000" stroke="none">
<path d="M2830 12784 c-73 -24 -150 -63 -156 -79 -3 -8 -31 -29 -62 -46 -70
-41 -181 -145 -222 -210 -18 -27 -63 -118 -101 -202 -68 -149 -69 -152 -99
-149 -25 2 -31 -2 -37 -25 -10 -36 -10 -312 0 -337 7 -18 8 -18 31 3 29 27 36
19 36 -38 0 -79 20 -210 39 -260 11 -26 34 -71 51 -101 50 -84 110 -206 110
-223 0 -8 -28 -31 -62 -50 -179 -100 -304 -200 -340 -271 -16 -31 -19 -51 -15
-89 l6 -48 -67 -31 c-197 -89 -293 -140 -348 -181 -75 -57 -189 -185 -215
-241 -60 -131 -143 -340 -164 -412 -31 -107 -33 -111 -95 -163 -61 -52 -90
-95 -90 -135 0 -20 -11 -39 -33 -60 -59 -55 -105 -123 -112 -166 -5 -30 -14
-44 -34 -55 -20 -10 -37 -35 -60 -91 -30 -70 -32 -82 -22 -115 32 -108 169
-127 266 -38 23 21 48 39 55 39 23 0 209 -60 215 -70 3 -5 -2 -78 -12 -162
-19 -164 -21 -440 -3 -598 l10 -85 -55 -55 c-31 -31 -55 -65 -55 -76 0 -12 15
-35 34 -52 19 -17 37 -40 41 -51 3 -12 19 -24 35 -28 34 -9 220 -168 220 -187
0 -24 39 -63 67 -69 17 -4 76 -51 151 -122 141 -134 141 -135 97 -265 -14 -40
-32 -112 -41 -159 -9 -47 -22 -97 -29 -111 -6 -14 -24 -79 -39 -145 -15 -66
-34 -140 -43 -165 -8 -25 -18 -70 -22 -100 -10 -73 -49 -238 -62 -261 -5 -10
-16 -68 -24 -129 -8 -61 -17 -116 -20 -121 -10 -16 -65 -283 -65 -316 0 -66
89 -128 232 -160 40 -8 76 -18 80 -22 4 -3 20 -134 37 -291 17 -157 44 -413
62 -570 40 -368 43 -525 11 -635 -34 -113 -41 -289 -17 -409 15 -76 17 -119
11 -296 -8 -225 -17 -278 -67 -415 l-34 -90 0 -685 c0 -769 6 -683 -85 -1143
-27 -136 -55 -255 -62 -265 -7 -10 -32 -35 -55 -56 -41 -36 -58 -63 -159 -251
-39 -72 -43 -85 -38 -130 4 -34 1 -64 -11 -95 -22 -60 -27 -92 -17 -108 6 -9
74 -20 208 -33 331 -33 352 -33 455 -14 136 25 167 44 178 113 l6 37 75 1 c81
1 188 30 221 60 17 15 19 32 19 136 0 114 1 121 32 181 l33 62 6 440 c8 495
20 628 70 779 17 50 33 120 36 156 3 36 12 76 20 89 8 13 16 42 18 65 1 22 14
91 28 151 15 61 34 162 43 225 21 152 21 426 0 535 l-16 80 34 55 c132 215
166 375 146 683 -8 140 -8 199 4 316 8 79 18 146 21 149 18 18 22 -5 80 -480
48 -401 249 -1936 291 -2228 80 -559 220 -1413 239 -1466 9 -23 32 -58 51 -78
46 -47 79 -46 109 4 36 62 26 216 -80 1280 -90 905 -189 2088 -260 3095 -14
198 -28 398 -31 445 -6 76 -4 90 15 120 11 19 21 47 21 62 0 22 8 32 41 48 23
12 47 19 53 17 35 -14 298 -837 299 -932 0 -11 -4 -74 -8 -141 -10 -158 6
-234 84 -392 l58 -117 32 -245 c29 -227 31 -264 29 -500 -3 -291 -10 -245 107
-760 87 -379 96 -432 126 -685 18 -158 22 -244 22 -510 1 -176 -3 -339 -7
-363 -12 -65 2 -190 24 -212 10 -10 44 -24 77 -31 68 -15 231 -18 285 -5 36 8
39 6 55 -24 10 -18 30 -47 45 -64 l27 -31 158 1 c190 2 576 37 655 60 28 8 31
41 9 85 -12 22 -21 55 -21 73 0 21 -11 48 -30 74 -19 26 -30 54 -30 74 0 37
-39 127 -76 175 -13 17 -62 59 -109 93 -108 78 -124 100 -130 187 -7 84 -19
126 -56 181 -20 29 -38 82 -58 170 -54 234 -68 431 -51 757 21 436 23 587 11
675 -7 47 -41 173 -76 280 -86 264 -87 268 -73 306 9 27 8 35 -12 61 -26 37
-25 75 9 198 18 68 22 113 25 305 l4 225 -28 70 c-23 57 -28 85 -28 150 1 67
-4 92 -27 145 l-28 65 -9 435 c-9 444 -7 564 9 635 7 34 16 44 55 65 76 41 90
59 83 100 -4 19 -11 58 -15 85 -4 28 -19 91 -33 140 -14 50 -31 119 -37 155
-7 36 -36 142 -65 235 -33 104 -51 180 -48 196 3 15 0 36 -6 47 -24 44 -101
312 -101 350 0 23 -25 113 -60 212 -41 116 -60 187 -60 219 0 26 -7 56 -15 67
-30 40 -19 60 67 126 46 34 105 74 133 88 27 14 59 39 70 56 23 36 149 141
232 194 61 39 116 92 127 123 7 20 -23 54 -99 114 l-39 31 -3 308 c-1 170 -3
329 -5 354 l-3 45 51 6 c29 4 74 18 100 32 27 14 81 32 119 41 45 11 89 29
123 53 51 35 112 98 112 116 0 5 -34 51 -75 104 -41 52 -75 103 -75 113 0 11
-10 25 -22 32 -13 7 -56 47 -96 89 -61 64 -72 81 -67 101 5 21 -8 38 -89 118
-85 83 -96 98 -96 129 0 27 -8 42 -34 65 -29 27 -34 40 -41 96 -10 94 -24 135
-61 178 -18 21 -37 58 -44 81 -9 34 -27 59 -82 110 -129 121 -242 181 -520
277 -191 66 -183 57 -153 169 17 65 8 100 -27 108 -14 4 -30 20 -39 39 -15 35
-59 61 -154 94 -27 9 -66 29 -85 44 -19 15 -59 39 -87 54 -30 14 -53 33 -53
42 0 8 18 56 39 107 50 119 53 133 60 317 l6 155 27 -3 c24 -2 28 2 39 36 10
35 8 49 -15 118 -14 44 -26 89 -26 101 0 12 -9 31 -20 41 -11 10 -46 68 -76
128 -126 246 -248 383 -418 470 -50 26 -102 56 -116 65 -24 18 -117 38 -205
44 -22 2 -60 -3 -85 -11z"/>
</g>
</svg>
