<?xml version="1.0" standalone="no"?>
<!DOCTYPE svg PUBLIC "-//W3C//DTD SVG 20010904//EN"
 "http://www.w3.org/TR/2001/REC-SVG-20010904/DTD/svg10.dtd">
<svg version="1.0" xmlns="http://www.w3.org/2000/svg"
 width="1280.000000pt" height="1116.000000pt" viewBox="0 0 1280.000000 1116.000000"
 preserveAspectRatio="xMidYMid meet">
<g transform="translate(0.000000,1116.000000) scale(0.100000,-0.100000)"
fill="#000000" stroke="none">
<path d="M6598 10724 c-4 -3 -28 -5 -55 -5 -58 0 -161 -18 -169 -30 -3 -5 -24
-9 -46 -9 -37 0 -47 -6 -90 -50 -26 -27 -48 -57 -48 -65 0 -8 -4 -15 -10 -15
-14 0 -76 -116 -100 -189 -12 -35 -25 -100 -30 -144 -5 -44 -13 -84 -17 -88
-5 -5 -30 10 -57 33 -56 48 -56 41 -2 -74 l32 -66 -16 -59 c-9 -33 -25 -73
-36 -89 -28 -40 -47 -90 -41 -106 4 -8 6 -7 6 4 1 20 42 108 50 108 7 0 3
-170 -6 -300 -3 -47 -2 -82 1 -79 4 4 7 34 8 68 1 60 11 74 20 26 3 -14 1 -25
-6 -25 -7 0 -7 -3 1 -8 11 -7 53 -87 81 -153 18 -45 71 -97 117 -114 48 -19
55 -32 55 -111 0 -58 -22 -138 -56 -206 -24 -46 -26 -48 -69 -48 -117 0 -256
-59 -329 -141 -82 -91 -126 -257 -126 -473 0 -76 -7 -173 -16 -227 -23 -133
-107 -467 -144 -574 -33 -93 -131 -294 -195 -400 -20 -33 -62 -114 -92 -180
-30 -66 -59 -125 -64 -131 -5 -6 -20 -39 -33 -75 -63 -166 -184 -417 -251
-519 -23 -36 -52 -83 -63 -105 -59 -114 -88 -140 -317 -301 -76 -52 -132 -99
-141 -116 -10 -20 -14 -51 -12 -95 l3 -66 -780 -324 c-429 -178 -798 -328
-820 -333 -48 -11 -111 -12 -183 -4 -62 7 -90 -7 -125 -62 -17 -28 -36 -40
-92 -61 -39 -14 -97 -26 -130 -28 -33 -1 -79 -6 -101 -10 -34 -6 -47 -3 -70
13 -54 39 -104 33 -153 -19 -39 -39 -43 -50 -56 -136 -5 -33 -11 -43 -26 -43
-10 0 -19 -4 -19 -10 0 -13 45 -24 66 -16 10 4 14 1 12 -6 -5 -16 -139 -101
-386 -245 -165 -98 -182 -110 -182 -135 0 -15 -5 -30 -11 -34 -7 -4 1 -12 20
-20 17 -7 31 -17 30 -21 0 -4 -23 -26 -51 -48 -80 -63 -71 -69 44 -29 156 54
423 205 523 297 53 47 85 60 85 32 0 -17 16 -20 25 -6 3 5 39 -6 79 -25 92
-42 128 -43 189 -4 48 30 64 61 52 100 -5 15 0 26 19 41 14 11 31 35 38 54 23
65 116 92 234 70 54 -10 97 13 123 64 42 81 82 101 922 455 l791 334 55 -15
c31 -8 67 -12 80 -8 24 6 24 5 18 -39 -6 -39 -5 -45 14 -51 24 -7 41 1 41 20
0 8 13 29 29 47 15 18 36 48 45 66 9 17 20 32 25 32 16 0 126 70 144 91 21 26
15 38 -9 18 -16 -13 -16 -12 -6 7 7 13 52 38 123 68 62 25 114 45 115 43 2 -2
-21 -51 -52 -108 -235 -433 -251 -457 -365 -545 -51 -39 -59 -50 -59 -77 1
-18 6 -42 13 -55 19 -34 94 -109 135 -134 l35 -22 25 30 c41 50 88 162 146
354 31 102 63 203 71 226 l15 41 145 27 c79 16 148 28 152 27 5 0 13 -38 19
-83 21 -158 68 -353 140 -587 58 -188 120 -342 204 -511 68 -136 168 -392 195
-498 8 -31 28 -143 45 -248 16 -105 34 -204 39 -220 10 -31 24 -103 40 -199
10 -60 13 -83 31 -298 19 -217 65 -437 154 -737 14 -47 53 -193 86 -325 32
-132 64 -258 70 -280 39 -148 53 -317 32 -372 -26 -69 -35 -100 -42 -143 -10
-63 -71 -177 -144 -274 -35 -45 -75 -100 -89 -121 -25 -39 -87 -200 -87 -227
0 -33 47 -59 131 -73 209 -33 311 -28 415 19 67 31 81 59 94 191 4 52 11 99
14 104 4 5 28 17 54 25 26 9 60 27 77 40 26 21 30 31 33 87 14 193 0 397 -42
646 -58 340 -68 510 -55 968 4 121 3 252 -2 290 -23 190 -32 253 -60 405 -17
90 -32 167 -34 170 -2 3 -8 62 -15 130 -18 207 -50 520 -60 600 -6 41 -10 88
-10 103 0 23 -6 31 -29 40 -21 8 -31 19 -35 41 -12 70 -25 252 -31 431 -7 218
-17 335 -40 489 -9 59 -14 110 -12 112 2 2 17 -1 33 -6 24 -9 47 -43 128 -188
55 -97 125 -233 157 -302 31 -69 93 -202 138 -295 45 -94 105 -235 132 -315
45 -129 49 -149 39 -177 -6 -17 -8 -44 -4 -60 9 -37 182 -383 233 -467 22 -36
80 -114 128 -174 87 -108 142 -197 339 -552 107 -194 163 -337 219 -555 27
-107 30 -165 15 -232 -6 -24 -17 -94 -26 -155 -8 -63 -27 -142 -41 -178 -43
-108 -102 -219 -122 -230 -26 -13 -39 -60 -43 -150 l-3 -75 35 -17 c43 -21
246 -42 344 -36 119 8 213 70 235 154 6 22 15 94 21 160 11 136 38 292 81 479
27 111 30 144 26 225 -6 121 -33 203 -97 287 -56 73 -62 102 -80 333 -24 305
-40 399 -96 544 -68 176 -97 220 -241 362 -73 71 -137 143 -144 160 -44 113
-62 200 -79 389 -27 287 -38 353 -61 360 -11 4 -20 19 -24 38 -2 18 -12 77
-21 132 -9 55 -18 105 -21 110 -2 6 4 -1 14 -15 66 -89 72 -92 158 -59 l56 21
53 -35 c38 -25 83 -43 157 -60 l104 -25 165 33 c91 19 239 52 330 74 195 48
243 50 325 14 88 -38 155 -33 312 22 235 83 502 247 550 338 12 23 22 45 23
50 0 15 -166 180 -250 247 -214 170 -364 239 -945 439 -442 151 -642 228 -850
328 -110 53 -279 131 -375 175 -363 164 -329 144 -361 215 -15 35 -31 79 -35
98 -3 19 -10 38 -15 41 -29 18 15 271 61 344 20 33 30 68 39 131 10 79 107
481 129 540 6 14 24 90 42 169 29 132 80 292 101 314 5 6 9 26 9 46 0 19 13
69 29 110 l28 75 38 -75 c50 -100 96 -165 300 -420 191 -238 256 -332 303
-433 56 -121 161 -213 322 -280 47 -19 144 -60 215 -91 72 -30 195 -74 275
-96 80 -23 191 -59 247 -81 93 -37 102 -43 108 -71 4 -16 24 -69 46 -117 37
-84 54 -159 88 -396 12 -81 54 -190 73 -190 10 0 13 44 13 205 1 180 3 205 17
208 17 3 30 -29 89 -233 17 -60 45 -135 60 -165 16 -30 29 -61 29 -68 0 -8 9
-12 23 -10 20 3 22 7 19 63 -4 77 -38 272 -61 352 -14 47 -16 63 -7 66 8 3 27
-27 50 -78 31 -68 51 -97 104 -148 37 -35 87 -85 112 -112 24 -26 58 -56 75
-67 54 -33 92 -16 40 18 -17 11 -25 25 -25 46 0 30 -35 84 -131 203 -40 49
-112 202 -102 218 10 16 27 1 143 -128 67 -74 128 -135 134 -135 7 0 22 -14
35 -31 15 -20 29 -29 43 -27 31 4 32 22 3 56 -14 16 -25 37 -25 45 0 22 -127
212 -189 282 -29 33 -62 78 -73 100 -11 22 -36 61 -54 86 -19 26 -34 50 -34
54 0 10 52 1 123 -21 50 -15 67 -16 116 -6 43 9 66 9 90 1 24 -9 35 -9 44 0
31 31 -59 84 -217 125 -54 15 -111 33 -126 41 -31 16 -215 61 -402 99 -179 35
-256 76 -523 277 -93 70 -210 148 -258 173 -126 66 -128 68 -234 185 -160 176
-373 476 -438 616 -18 39 -47 113 -65 165 -105 312 -250 459 -473 481 -51 5
-104 12 -118 16 -38 11 -113 100 -128 152 -12 42 -32 66 -95 118 -42 35 -30
102 35 194 10 14 21 37 24 52 6 22 12 26 39 25 45 -2 55 6 83 70 32 74 41 219
20 352 l-15 95 29 54 29 55 -28 -27 c-32 -30 -42 -34 -42 -13 0 26 -67 222
-95 276 -79 155 -349 326 -483 304 -25 -4 -42 -2 -46 5 -8 12 -19 14 -28 5z
m608 -971 l-15 -28 -1 30 c0 17 6 48 12 70 l13 40 3 -42 c2 -24 -3 -54 -12
-70z m26 -55 c-22 -22 -30 -2 -14 32 l16 35 4 -29 c2 -16 -1 -33 -6 -38z
m-952 -723 c0 -2 -13 -11 -30 -20 -38 -19 -40 -11 -2 9 31 17 32 18 32 11z
m-391 -1767 c33 -103 36 -149 13 -202 -12 -25 -25 -46 -31 -46 -5 0 -26 -28
-47 -62 -47 -80 -82 -125 -165 -215 -113 -122 -169 -220 -359 -633 -30 -63
-59 -124 -67 -135 -11 -17 -392 -188 -401 -180 -8 7 218 306 354 467 136 161
370 467 461 603 79 118 134 229 168 340 26 86 41 125 50 125 2 0 13 -28 24
-62z m61 -142 c0 -29 -38 -121 -46 -113 -4 3 1 27 10 53 9 26 16 56 16 66 0
10 5 18 10 18 6 0 10 -11 10 -24z m-3985 -2426 c3 -5 2 -10 -4 -10 -5 0 -23
-12 -40 -26 -35 -29 -35 -29 -20 15 8 23 17 31 34 31 13 0 27 -4 30 -10z m206
-310 c5 0 9 -9 9 -20 0 -21 -29 -25 -80 -11 l-25 7 30 17 c17 9 36 14 43 12 8
-3 18 -5 23 -5z"/>
<path d="M5961 9474 c0 -11 3 -14 6 -6 3 7 2 16 -1 19 -3 4 -6 -2 -5 -13z"/>
</g>
</svg>
