<?xml version="1.0" standalone="no"?>
<!DOCTYPE svg PUBLIC "-//W3C//DTD SVG 20010904//EN"
 "http://www.w3.org/TR/2001/REC-SVG-20010904/DTD/svg10.dtd">
<svg version="1.0" xmlns="http://www.w3.org/2000/svg"
 width="1280.000000pt" height="1280.000000pt" viewBox="0 0 1280.000000 1280.000000"
 preserveAspectRatio="xMidYMid meet">
<g transform="translate(0.000000,1280.000000) scale(0.100000,-0.100000)"
fill="#000000" stroke="none">
<path d="M5720 12545 c0 -17 7 -61 16 -100 9 -38 16 -80 15 -92 -1 -32 63
-193 121 -305 64 -123 153 -236 256 -324 77 -66 99 -93 67 -80 -12 4 -15 -8
-16 -72 -3 -163 2 -182 55 -182 36 0 96 -33 96 -54 0 -7 10 -25 21 -40 12 -15
20 -28 18 -30 -13 -11 -78 -26 -109 -26 -51 0 -90 -32 -90 -73 0 -40 48 -125
91 -161 17 -15 30 -28 28 -30 -2 -2 -24 0 -49 3 -56 9 -93 -3 -110 -34 -7 -14
-17 -25 -20 -25 -14 0 -57 -75 -54 -94 1 -10 -8 -35 -21 -55 -30 -44 -48 -125
-40 -170 l6 -33 25 23 c32 30 32 8 -1 -54 -23 -42 -25 -55 -19 -110 l6 -62
-38 57 c-22 31 -66 93 -99 137 -33 45 -82 112 -110 150 -113 156 -217 282
-299 361 -48 47 -124 121 -169 165 -45 44 -111 101 -147 127 -123 88 -386 382
-516 576 -39 58 -54 59 -94 2 -18 -26 -20 -38 -15 -85 4 -30 5 -55 2 -55 -4 0
-29 9 -57 20 -28 11 -54 20 -59 20 -16 0 -103 -93 -117 -126 -13 -30 -13 -38
1 -64 25 -49 6 -58 -31 -16 l-33 37 -83 -86 c-108 -113 -172 -227 -193 -346
-16 -87 -19 -207 -9 -271 6 -36 7 -36 29 -22 16 10 25 12 30 5 3 -6 15 -11 26
-11 11 0 27 -12 36 -28 9 -16 26 -33 37 -38 34 -15 28 -28 -27 -53 l-52 -24
-90 22 c-49 13 -126 33 -169 47 -43 13 -82 22 -85 19 -4 -2 -38 5 -76 16 -39
11 -97 22 -130 24 -62 4 -160 21 -175 30 -11 7 -107 26 -150 30 -222 19 -444
23 -464 6 -11 -9 -108 -22 -181 -24 -163 -5 -973 35 -996 48 -4 3 -56 14 -116
24 -59 11 -175 41 -258 66 -166 52 -207 63 -375 101 -186 41 -323 67 -360 68
-32 1 -36 -2 -44 -35 -18 -73 53 -158 171 -205 24 -9 43 -19 43 -23 0 -3 -55
-4 -122 -3 -151 5 -192 -6 -217 -57 -31 -60 -33 -78 -16 -115 18 -37 102 -86
191 -111 l49 -13 -75 4 c-41 2 -100 6 -130 9 -63 5 -82 -5 -106 -56 -9 -19
-26 -53 -38 -77 -17 -32 -21 -57 -20 -106 2 -81 6 -87 44 -73 22 8 33 8 41 0
9 -9 1 -14 -30 -23 -46 -12 -53 -22 -74 -103 -14 -51 -14 -64 -1 -107 8 -26
22 -58 33 -71 19 -23 27 -25 123 -30 64 -3 65 -10 5 -40 -23 -12 -52 -27 -64
-33 -24 -12 -43 -46 -43 -76 0 -30 45 -123 70 -143 60 -50 83 -57 175 -57 106
0 194 13 237 35 17 8 37 15 45 15 7 0 13 4 13 9 0 10 78 32 134 37 l39 4 -49
-38 c-28 -20 -61 -48 -75 -61 -13 -12 -35 -30 -49 -40 -24 -15 -41 -29 -86
-68 -20 -17 -44 -72 -44 -100 0 -7 14 -22 32 -33 42 -26 133 -37 323 -40 90
-1 106 -3 91 -13 -11 -7 -27 -19 -37 -29 -9 -9 -25 -18 -35 -20 -10 -2 -26
-17 -36 -35 -19 -31 -19 -32 2 -72 11 -23 16 -41 10 -41 -5 0 4 -22 21 -50 17
-27 37 -50 45 -50 8 0 14 -4 14 -10 0 -5 9 -10 20 -10 11 0 20 -6 20 -14 0 -8
10 -14 23 -14 12 0 40 -5 62 -11 22 -6 47 -8 56 -5 15 4 17 -5 16 -70 -2 -97
16 -123 98 -148 31 -10 62 -15 68 -11 6 4 29 6 52 4 23 -1 54 3 69 9 l28 10
-26 -42 c-41 -70 -67 -127 -73 -164 -5 -30 -3 -36 16 -41 11 -3 21 -9 21 -15
0 -14 -77 -88 -92 -88 -11 0 -11 -2 0 -9 11 -6 10 -11 -3 -25 -15 -15 -15 -17
0 -22 9 -4 27 -1 40 6 19 10 27 10 39 1 12 -10 28 -7 85 17 39 17 71 27 71 22
0 -7 -116 -146 -173 -205 -36 -38 -81 -125 -70 -135 13 -13 195 7 228 24 17 9
40 16 53 16 13 0 35 6 50 14 46 24 101 36 96 21 -3 -7 -16 -18 -30 -26 -27
-14 -84 -80 -84 -96 0 -5 -26 -27 -58 -50 -41 -29 -63 -38 -74 -32 -11 6 -26
-2 -53 -26 -21 -19 -46 -35 -56 -35 -10 0 -25 -10 -33 -22 -9 -12 -22 -23 -29
-24 -18 -2 -57 -35 -57 -47 0 -5 -11 -18 -25 -29 -14 -11 -23 -24 -20 -29 4
-5 1 -9 -6 -9 -7 0 -9 -3 -6 -7 4 -3 2 -12 -4 -19 -7 -9 -5 -14 10 -19 12 -3
21 -11 21 -16 0 -6 16 -7 38 -4 l37 6 -25 -20 c-30 -24 -9 -22 40 3 l35 19
-25 -28 c-14 -16 -19 -25 -11 -20 8 4 17 2 22 -6 6 -9 12 -10 16 -4 5 6 19 19
33 30 l25 20 -19 -23 c-16 -18 -17 -25 -7 -35 9 -9 16 -7 31 13 14 17 20 20
20 10 0 -9 -4 -20 -9 -25 -5 -6 -1 -22 10 -40 10 -16 19 -24 19 -17 0 24 19
11 25 -18 6 -25 10 -30 27 -24 17 5 20 3 15 -10 -6 -14 -3 -16 13 -11 12 4 20
2 20 -5 0 -6 5 -8 10 -5 6 3 10 -4 10 -16 0 -18 2 -19 15 -9 13 10 15 9 15
-10 0 -18 3 -20 14 -11 11 9 16 9 21 0 6 -8 10 -7 16 2 7 11 9 9 9 -5 0 -20 0
-20 15 0 14 18 14 18 15 -6 1 -23 2 -24 14 -7 7 9 16 17 20 17 3 0 6 -8 6 -17
1 -14 3 -13 14 5 11 21 14 21 25 8 8 -9 10 -27 6 -45 -6 -27 -2 -32 34 -55 22
-15 45 -26 51 -26 6 0 25 -7 42 -16 23 -12 33 -13 38 -4 14 23 75 -6 132 -64
31 -31 63 -56 72 -56 12 0 13 -8 9 -37 -8 -47 -29 -64 -108 -87 -54 -15 -66
-23 -79 -50 -8 -18 -13 -41 -10 -52 5 -17 -5 -26 -49 -49 -30 -16 -53 -34 -51
-40 7 -17 87 -35 127 -28 20 3 44 2 54 -1 15 -6 12 -12 -22 -42 -85 -74 -145
-116 -181 -126 -20 -5 -55 -21 -76 -34 -30 -19 -38 -30 -38 -53 0 -17 -5 -42
-10 -57 -6 -15 -8 -35 -4 -43 4 -9 8 -18 9 -21 9 -35 20 -49 38 -52 12 -2 22
-10 22 -18 0 -11 10 -15 33 -14 22 1 32 -3 32 -13 0 -11 5 -13 18 -8 51 22 59
19 67 -27 13 -76 9 -91 -40 -143 -80 -85 -129 -160 -92 -139 10 6 10 4 0 -7
-17 -18 -16 -29 2 -29 17 0 20 -16 4 -25 -7 -5 -3 -14 10 -26 26 -24 26 -30 1
-57 -21 -23 -27 -37 -10 -27 16 10 1 -46 -18 -67 -14 -16 -13 -18 4 -19 10 -1
30 -3 44 -5 14 -1 63 4 109 12 46 8 85 13 88 10 8 -8 -34 -26 -89 -37 -56 -11
-93 -22 -145 -45 -17 -8 -37 -14 -45 -14 -19 -1 -48 -45 -47 -72 1 -13 -2 -51
-6 -85 -5 -40 -4 -63 2 -63 7 0 7 -16 3 -42 -9 -45 -1 -74 30 -118 11 -15 17
-30 14 -33 -6 -6 58 -1 96 8 25 5 25 5 5 -12 -42 -36 -105 -168 -105 -219 0
-29 43 -70 96 -90 37 -14 49 -15 68 -5 13 7 32 12 42 10 22 -3 103 20 122 34
7 5 15 7 18 4 4 -3 -33 -48 -81 -99 -95 -102 -132 -157 -137 -203 -3 -29 -1
-30 40 -33 23 -2 76 6 118 18 123 33 172 61 313 177 19 15 37 28 40 28 3 0 39
27 80 60 40 33 82 65 92 71 11 6 30 21 43 33 12 11 27 21 33 21 6 0 16 6 22
14 14 16 86 56 101 56 6 0 29 9 53 19 65 29 130 53 152 57 11 1 47 14 80 28
l60 25 8 -37 c8 -38 72 -106 89 -96 5 3 15 1 22 -5 7 -6 21 -9 30 -5 11 4 16
1 16 -10 0 -14 4 -15 20 -6 16 8 20 8 20 -3 0 -8 8 -17 18 -19 17 -5 18 -17
14 -164 -8 -303 -10 -273 22 -300 26 -23 27 -26 12 -43 -17 -18 -13 -51 6 -51
6 0 8 -7 4 -15 -3 -8 1 -20 8 -27 7 -7 11 -18 9 -24 -2 -6 8 -17 22 -24 22
-12 25 -20 24 -55 -2 -25 5 -53 16 -72 14 -24 16 -35 7 -45 -7 -8 -9 -29 -6
-50 4 -21 2 -38 -5 -42 -6 -4 -11 -18 -11 -31 0 -19 4 -23 18 -18 15 6 16 5 2
-12 -16 -19 -19 -36 -24 -133 -3 -53 0 -65 16 -76 23 -16 87 36 -568 -471
-305 -236 -477 -376 -563 -460 -138 -134 -209 -217 -191 -223 18 -6 213 92
293 148 40 27 254 191 476 364 222 173 409 312 415 310 21 -9 76 -93 76 -116
0 -13 -7 -36 -15 -51 -8 -16 -9 -25 -3 -21 8 5 9 2 5 -9 -4 -10 -10 -24 -14
-34 -4 -11 -3 -14 5 -9 16 10 15 -7 0 -23 -11 -10 -10 -11 5 -6 25 10 22 -15
-8 -55 -29 -40 -30 -41 -10 -34 20 8 19 -5 -2 -28 -15 -17 -15 -18 0 -18 18 0
23 -15 8 -24 -12 -8 -11 -106 1 -106 5 0 8 -6 7 -12 -3 -29 2 -37 18 -31 15 6
15 5 1 -15 -13 -19 -13 -29 -2 -74 8 -29 11 -61 8 -71 -4 -13 -2 -17 5 -13 15
10 14 -81 -3 -166 -8 -41 -9 -71 -3 -77 5 -5 5 -11 -2 -15 -14 -9 -14 -53 -1
-61 6 -3 10 -15 10 -26 0 -10 4 -19 9 -19 6 0 9 -8 9 -17 -3 -36 133 -337 193
-432 34 -53 68 -106 76 -119 12 -19 17 -21 29 -11 8 6 14 21 14 33 1 11 7 39
15 61 9 25 11 43 5 49 -6 6 -4 16 6 28 9 9 16 30 16 45 -1 15 4 38 11 51 9 18
8 25 -3 32 -11 7 -11 11 -1 24 8 9 11 26 7 40 -4 15 0 28 9 36 44 36 108 191
121 289 3 19 11 39 18 45 7 6 19 32 26 58 7 26 19 53 26 59 8 6 14 17 14 25 0
7 9 18 20 24 10 6 24 28 30 50 6 22 15 40 19 40 5 0 15 15 22 33 7 17 20 40
28 50 24 27 71 120 71 140 0 9 4 17 9 17 5 0 13 15 16 32 4 18 11 38 15 43 4
6 11 21 15 35 4 14 45 102 90 195 48 99 85 188 88 214 3 24 11 47 17 51 6 4
12 14 14 23 3 24 48 107 58 107 4 0 8 13 8 28 0 16 7 43 16 61 9 19 18 67 20
114 6 122 11 152 45 262 54 178 57 189 54 230 -2 22 -5 58 -7 79 l-3 40 184
143 c102 79 192 142 200 141 12 -2 18 -20 23 -68 11 -103 14 -130 20 -135 10
-11 73 47 74 68 0 12 5 31 12 43 6 11 14 44 18 73 7 56 9 58 64 94 19 12 50
45 69 72 24 37 39 49 54 47 12 -1 33 2 48 7 20 7 30 5 42 -6 20 -20 54 -2 63
32 6 25 66 85 84 85 5 0 21 18 35 40 14 22 32 40 40 40 23 0 57 76 50 110 -6
26 2 34 116 124 67 53 130 96 141 96 10 0 48 29 83 65 39 40 72 65 85 65 37 0
70 43 70 94 0 24 -3 52 -6 61 -9 22 -57 45 -97 45 -36 0 -87 -32 -87 -54 0
-14 -53 -56 -72 -56 -19 0 -88 -51 -88 -65 0 -11 -179 -159 -227 -188 -9 -6
-12 6 -12 45 1 29 -2 67 -6 83 -9 43 36 144 153 339 242 405 386 675 436 816
15 41 33 84 40 95 7 11 16 42 20 68 7 44 9 47 21 30 13 -17 14 -17 20 0 4 9 5
31 3 47 -3 17 -1 30 3 30 8 0 29 -63 29 -87 0 -6 4 -14 9 -18 6 -3 8 22 5 65
-4 51 -2 70 6 70 13 0 10 74 -5 130 l-6 25 15 -25 c8 -14 17 -47 21 -75 10
-85 16 -105 27 -99 18 11 0 131 -28 186 -14 27 -23 55 -21 61 2 7 11 -3 21
-20 9 -18 20 -33 25 -33 5 0 12 -12 16 -27 l7 -28 10 26 c7 20 4 43 -12 88
-25 77 -25 82 3 41 22 -33 44 -39 40 -10 -2 8 -6 32 -9 53 -7 41 11 53 25 15
5 -14 10 -17 15 -10 14 23 24 12 31 -35 7 -43 8 -45 16 -24 5 13 9 56 8 96 -1
41 4 82 11 95 l13 24 14 -29 c13 -24 17 -26 24 -12 5 9 5 25 0 40 -8 21 -3 30
42 75 37 36 61 51 85 54 31 3 35 0 67 -61 103 -193 141 -335 132 -491 -6 -106
-30 -190 -72 -249 -33 -49 -275 -294 -282 -287 -3 3 -15 1 -25 -5 -16 -8 -19
-17 -14 -40 4 -22 -3 -47 -25 -92 -66 -129 -222 -551 -273 -737 -63 -231 -67
-467 -17 -950 38 -366 47 -435 112 -835 50 -309 50 -311 46 -495 -5 -199 -16
-270 -73 -480 -42 -158 -53 -228 -64 -418 -12 -218 3 -385 84 -907 52 -335 59
-507 30 -752 -4 -29 -1 -72 5 -97 9 -39 8 -52 -13 -108 -33 -86 -51 -126 -118
-250 -32 -59 -58 -118 -58 -132 0 -26 23 -56 43 -56 8 0 7 -4 -1 -12 -20 -20
-14 -26 53 -47 63 -20 250 -45 277 -37 7 3 25 7 39 10 25 5 55 48 51 73 -2 6
8 28 20 49 17 29 23 57 25 109 1 38 9 95 18 125 13 43 15 79 10 166 -5 91 -3
119 10 150 14 34 15 50 4 120 -26 176 16 592 105 1054 45 232 51 294 46 495
-2 105 -4 251 -3 325 0 129 2 140 41 260 68 212 94 389 122 845 11 182 25 369
30 416 5 47 14 227 20 400 5 173 12 341 15 374 5 54 -4 166 -20 242 l-6 28 15
-25 c8 -15 34 -33 63 -43 35 -13 58 -31 84 -66 20 -26 64 -67 97 -92 59 -43
64 -49 143 -209 105 -213 182 -344 283 -483 66 -91 115 -179 249 -447 92 -184
218 -434 280 -555 63 -121 126 -257 141 -302 31 -92 31 -85 -14 -413 -10 -74
-22 -158 -25 -186 -14 -113 18 -275 145 -729 111 -396 152 -571 175 -744 11
-84 12 -133 3 -260 -17 -222 -16 -340 2 -375 24 -48 69 -67 172 -75 50 -3 93
-11 95 -17 2 -7 -19 -8 -69 -2 -67 7 -119 4 -142 -10 -10 -5 51 -41 72 -42 20
0 173 -62 168 -68 -20 -19 173 -112 259 -125 59 -9 174 8 203 30 31 23 39 43
18 43 -11 0 -2 14 25 42 34 36 40 47 35 72 -8 40 -26 58 -105 105 -170 101
-389 412 -404 576 -4 33 2 195 13 360 10 165 22 392 25 505 3 113 8 241 10
284 3 43 -1 194 -10 335 -8 141 -17 398 -18 571 l-3 315 -36 105 c-19 58 -45
166 -57 240 -29 180 -127 711 -152 830 -84 392 -204 671 -436 1018 -67 102
-128 203 -134 226 -7 24 -10 98 -7 181 3 125 5 143 23 162 18 19 107 248 138
355 13 46 7 52 -45 53 -24 0 -43 5 -45 13 -3 8 10 12 47 12 65 0 86 11 94 51
6 31 9 27 112 -122 59 -85 128 -184 154 -220 26 -36 55 -80 64 -97 18 -36 23
-125 8 -163 -6 -14 -10 -42 -10 -63 0 -20 -2 -39 -4 -41 -8 -8 -117 71 -126
91 -9 17 -48 41 -130 78 -13 5 -31 22 -40 38 -23 39 -60 52 -110 38 -58 -15
-72 -33 -72 -91 0 -41 5 -54 26 -74 15 -14 36 -25 46 -25 27 0 77 -31 83 -51
6 -19 78 -69 99 -69 8 0 71 -39 140 -87 120 -82 126 -88 126 -121 0 -18 7 -46
15 -60 15 -27 130 -444 146 -532 15 -77 57 -154 60 -107 0 6 5 1 10 -12 5 -13
7 -32 4 -42 -3 -9 -1 -20 4 -23 6 -4 8 -12 6 -19 -3 -7 1 -43 9 -82 16 -86 23
-72 30 68 6 114 25 184 26 95 0 -27 3 -48 8 -48 4 0 8 -15 8 -32 1 -18 6 -58
11 -88 l9 -55 7 45 c18 126 26 334 18 465 -9 135 -7 154 20 155 3 0 19 -20 37
-45 18 -26 52 -56 81 -72 45 -25 51 -33 61 -76 5 -27 15 -58 22 -70 6 -12 12
-30 13 -39 1 -10 4 -19 6 -21 2 -2 17 -13 33 -25 39 -30 50 -28 43 8 -4 16 -2
32 4 36 7 4 10 29 7 64 -4 56 -3 58 21 57 17 0 207 -125 571 -375 300 -207
896 -618 1325 -914 608 -419 806 -551 900 -598 123 -61 205 -94 213 -86 14 15
-193 208 -332 310 -39 29 -638 441 -1331 916 -693 475 -1276 875 -1297 889
-20 15 -38 37 -41 52 -3 14 -21 48 -40 76 -20 29 -37 71 -41 96 -4 24 -13 53
-21 63 -8 11 -15 29 -15 41 0 26 -54 68 -76 59 -10 -4 -13 -13 -8 -30 3 -13 2
-26 -3 -29 -5 -3 -42 60 -82 141 l-74 147 -3 200 c-3 224 -20 433 -61 765 -27
218 -28 238 -25 635 4 532 -14 763 -99 1315 -48 310 -48 299 -54 1325 -2 322
-42 638 -74 586 -6 -9 -11 -10 -15 -2 -10 16 -62 13 -76 -4 -7 -8 -24 -15 -37
-15 -31 0 -113 -66 -113 -91 0 -11 -6 -19 -13 -19 -7 0 -23 -9 -35 -21 -12
-11 -26 -18 -31 -15 -4 3 -18 -9 -31 -25 -18 -25 -21 -39 -16 -71 4 -22 3 -37
-2 -34 -5 3 -9 -7 -10 -22 -1 -32 -6 -60 -17 -85 -6 -14 -10 -15 -21 -6 -9 8
-14 8 -14 1 0 -6 -9 -13 -19 -17 -11 -3 -22 -14 -25 -23 -3 -9 -20 -23 -38
-31 -52 -23 -99 -57 -112 -83 -7 -12 -23 -40 -34 -61 -13 -23 -22 -55 -22 -81
0 -30 -8 -55 -25 -80 -14 -20 -26 -47 -26 -59 -1 -17 -2 -18 -6 -4 -6 22 -23
12 -23 -14 0 -26 -18 -24 -23 4 -4 22 -4 22 -6 -2 0 -13 -11 -32 -22 -42 -14
-12 -20 -26 -16 -39 3 -11 1 -18 -4 -14 -5 3 -9 -9 -9 -25 0 -31 -14 -42 -23
-18 -3 6 -6 -3 -6 -20 -1 -33 -21 -48 -21 -15 0 14 -2 14 -9 3 -6 -9 -6 -22 0
-33 7 -12 6 -18 -2 -18 -7 0 -9 -10 -6 -27 l5 -28 -21 25 c-19 23 -19 20 -1
-25 3 -8 2 -15 -4 -15 -6 0 -12 6 -15 13 -2 6 -3 -10 -1 -38 2 -45 1 -48 -12
-31 -16 22 -19 14 -5 -13 6 -10 6 -23 1 -31 -7 -12 -10 -12 -16 3 -11 31 -23
18 -13 -15 11 -41 11 -41 -1 -33 -15 10 -12 -2 6 -20 9 -9 18 -30 20 -46 2
-16 8 -38 14 -49 17 -31 11 -37 -10 -10 l-19 25 15 -44 c16 -46 11 -71 -5 -30
-8 19 -9 15 -5 -21 4 -33 3 -41 -5 -30 -15 21 -15 -4 0 -32 8 -15 8 -23 0 -31
-14 -14 -32 8 -24 29 2 6 -1 15 -8 20 -8 5 -10 3 -4 -6 5 -9 2 -10 -15 -5 -21
7 -21 6 -5 -19 10 -14 13 -26 7 -26 -5 0 -13 8 -16 17 -5 12 -9 14 -14 6 -5
-8 -12 -8 -26 3 -17 12 -18 23 -14 106 4 72 3 84 -4 53 -5 -22 -8 -92 -6 -155
4 -104 4 -109 -5 -50 -6 36 -13 67 -16 70 -3 3 -6 39 -7 80 0 54 2 67 7 45 7
-25 8 -23 5 13 -2 23 0 40 5 36 5 -3 9 6 9 19 0 14 6 40 14 58 14 32 14 33 19
9 4 -22 4 -21 6 6 0 18 33 97 72 177 39 80 74 167 79 194 4 26 8 42 9 34 1
-10 4 -11 15 -2 24 20 46 100 53 186 3 44 10 85 14 91 5 6 10 21 12 35 2 13 9
25 15 25 7 1 20 2 30 3 14 1 11 7 -13 27 l-30 26 33 -6 33 -6 -22 32 c-13 17
-18 28 -11 24 7 -4 12 -3 12 3 0 5 -8 15 -17 20 -10 6 -13 11 -6 11 7 0 10 7
7 15 -4 11 4 19 27 27 l34 12 -30 6 -30 6 40 18 40 17 -37 13 c-42 15 -74 42
-56 48 17 6 0 28 -22 28 -15 0 -18 6 -14 38 3 26 1 33 -5 22 -6 -8 -13 -11
-17 -7 -4 4 -2 13 4 19 7 7 12 20 12 30 0 16 -3 17 -21 8 -16 -9 -20 -8 -19 2
3 23 -12 58 -22 52 -6 -4 -7 2 -3 16 6 19 4 22 -9 17 -12 -5 -23 8 -46 52 -16
32 -26 61 -23 65 4 3 0 6 -9 6 -8 0 -54 40 -102 90 -49 49 -92 87 -97 84 -5
-3 -6 -10 -3 -16 4 -6 1 -9 -7 -6 -8 3 -13 15 -11 29 3 32 -16 59 -116 164
-79 83 -85 87 -118 82 -34 -6 -34 -6 -34 33 0 27 -8 49 -27 72 -46 57 -117
128 -128 128 -16 0 -83 -142 -125 -267 -38 -113 -41 -143 -25 -240 7 -38 -1
-41 -65 -18 -39 14 -41 14 -29 -2 13 -14 11 -16 -19 -11 -38 5 -38 4 -11 -23
23 -23 18 -39 -6 -19 -13 11 -14 10 -9 -4 5 -13 -1 -16 -41 -16 -41 0 -46 -2
-35 -15 10 -12 9 -15 -6 -15 -15 0 -16 -2 -5 -9 9 -6 10 -11 2 -15 -18 -12
-27 0 -81 100 -60 110 -168 276 -250 384 -97 127 -167 242 -240 392 -64 130
-77 151 -146 218 -51 50 -74 67 -69 53 12 -41 -10 -24 -44 36 -34 59 -148 171
-174 171 -8 0 -22 17 -31 39 -15 32 -127 157 -114 126 2 -5 12 -27 22 -48 9
-22 15 -44 13 -50 -2 -7 -10 6 -17 28 -7 22 -19 49 -26 60 -13 18 -14 18 -14
-10z m214 -240 l6 -30 -20 35 c-23 41 -26 60 -6 40 7 -8 16 -28 20 -45z m225
-250 c0 -5 -6 1 -14 15 -8 14 -14 30 -14 35 0 6 6 -1 14 -15 8 -14 14 -29 14
-35z m160 -367 c0 -5 -8 -8 -18 -8 -20 0 -63 45 -95 102 -16 28 -10 24 46 -27
36 -33 66 -63 67 -67z m1906 -1576 c-3 -3 -5 0 -5 7 0 7 -4 9 -10 6 -12 -7
-12 -3 -3 21 6 15 7 14 15 -6 5 -13 6 -25 3 -28z m-1601 -694 c66 -89 85 -123
91 -158 3 -25 9 -53 11 -62 3 -10 0 -18 -6 -18 -6 0 -40 60 -74 133 -35 73
-75 152 -90 175 -47 74 -18 45 68 -70z m1119 -12 c8 -51 -9 -34 -18 19 -5 26
-4 37 2 30 6 -5 13 -28 16 -49z m-17 -52 c-3 -9 -2 -12 5 -9 6 4 8 -3 4 -22
-5 -22 -4 -25 4 -13 9 12 10 8 5 -15 -4 -16 -8 -32 -10 -34 -8 -10 -24 55 -24
97 1 38 3 43 11 29 6 -10 8 -25 5 -33z m103 -7 c14 -17 24 -90 11 -82 -6 4
-10 0 -10 -7 0 -9 -3 -9 -10 2 -5 8 -10 22 -10 30 0 13 1 13 10 0 8 -13 10
-12 10 3 0 10 -7 25 -15 33 -17 17 -20 34 -6 34 5 0 14 -6 20 -13z m-6352
-1329 c-3 -8 -6 -5 -6 6 -1 11 2 17 5 13 3 -3 4 -12 1 -19z m7290 -687 c15 12
16 12 10 -5 -6 -15 -5 -17 6 -8 8 7 17 9 21 5 3 -4 13 2 21 13 13 17 14 15 11
-26 -2 -25 -7 -87 -12 -137 -4 -51 -10 -93 -13 -93 -4 0 -13 17 -20 38 -8 20
-33 83 -57 139 -24 57 -44 106 -44 110 0 4 13 -6 30 -22 26 -25 31 -26 47 -14z
m-3333 -1319 c-16 -26 -69 -148 -119 -271 -82 -204 -115 -262 -107 -188 4 34
-11 35 -55 1 -24 -18 -33 -32 -30 -45 3 -10 -1 -26 -8 -36 -7 -10 -16 -45 -20
-77 -5 -36 -17 -73 -32 -95 -13 -20 -30 -55 -36 -79 -10 -39 -23 -52 -137
-139 -160 -123 -159 -122 -138 -97 36 42 87 171 96 241 5 48 15 79 30 99 39
50 112 163 112 173 0 5 4 11 8 13 17 6 107 191 117 238 4 19 20 61 36 92 34
67 125 148 167 148 15 0 38 3 51 7 l24 6 -24 19 c-22 17 -22 19 -4 17 11 -1
27 -1 35 0 13 1 13 2 0 11 -12 8 -9 10 12 10 15 0 30 5 34 12 6 9 9 9 12 0 2
-7 -9 -34 -24 -60z m3927 -315 c-13 -13 -15 1 -4 30 7 17 8 17 11 -1 2 -10 -1
-23 -7 -29z m-4127 -313 c3 -8 2 -12 -4 -9 -6 3 -10 10 -10 16 0 14 7 11 14
-7z"/>
<path d="M7812 9595 c0 -16 2 -22 5 -12 2 9 2 23 0 30 -3 6 -5 -1 -5 -18z"/>
<path d="M7892 9460 c0 -14 2 -19 5 -12 2 6 2 18 0 25 -3 6 -5 1 -5 -13z"/>
</g>
</svg>
