<?xml version="1.0" standalone="no"?>
<!DOCTYPE svg PUBLIC "-//W3C//DTD SVG 20010904//EN"
 "http://www.w3.org/TR/2001/REC-SVG-20010904/DTD/svg10.dtd">
<svg version="1.0" xmlns="http://www.w3.org/2000/svg"
 width="1280.000000pt" height="1280.000000pt" viewBox="0 0 1280.000000 1280.000000"
 preserveAspectRatio="xMidYMid meet">
<g transform="translate(0.000000,1280.000000) scale(0.100000,-0.100000)"
fill="#000000" stroke="none">
<path d="M5348 12441 c-77 -25 -182 -84 -245 -138 -280 -237 -456 -785 -359
-1113 27 -92 112 -301 126 -310 11 -7 50 -123 50 -150 0 -11 5 -20 10 -20 6 0
10 -8 10 -19 0 -22 25 -46 34 -33 7 12 85 5 102 -9 7 -6 18 -8 24 -4 5 3 10 2
10 -3 0 -6 11 -12 24 -16 18 -4 28 -20 44 -69 19 -59 27 -93 66 -307 9 -47 16
-128 16 -181 l0 -97 -62 -15 c-65 -16 -287 -51 -393 -61 -153 -16 -489 -36
-590 -36 -110 0 -326 29 -364 49 -13 7 -20 32 -29 98 -6 48 -23 138 -37 198
-31 136 -41 256 -26 310 8 30 31 60 89 117 78 75 157 189 203 294 23 50 23 46
0 234 -5 41 -18 95 -30 120 -11 25 -21 57 -21 72 0 44 -18 78 -40 78 -13 0
-20 7 -20 18 0 30 -37 62 -73 62 -45 0 -57 -16 -57 -76 0 -57 -12 -73 -37 -52
-14 11 -15 34 -9 178 7 157 6 167 -13 184 -28 25 -62 17 -84 -21 -14 -25 -21
-66 -28 -166 -4 -74 -12 -144 -17 -156 -7 -20 -10 -21 -21 -8 -9 12 -9 33 3
104 27 168 40 314 29 331 -13 22 -40 27 -58 12 -24 -20 -85 -251 -85 -320 0
-22 -4 -40 -10 -40 -5 0 -10 8 -10 19 0 10 -7 24 -14 31 -26 21 -58 7 -82 -35
-21 -37 -23 -52 -24 -203 0 -167 9 -277 37 -462 20 -132 18 -284 -7 -595 -22
-257 -19 -344 16 -521 22 -109 45 -148 136 -220 133 -108 93 -103 756 -96 651
6 616 11 519 -78 -55 -50 -153 -130 -160 -130 -3 0 -15 27 -27 60 -12 33 -27
63 -33 67 -21 13 -98 -90 -153 -206 -31 -64 -78 -161 -105 -216 -30 -60 -56
-130 -65 -174 -34 -168 35 -341 168 -424 51 -32 56 -41 34 -72 -33 -48 -53
-130 -49 -195 4 -62 3 -67 -34 -120 -38 -54 -39 -55 -95 -58 l-56 -3 -37 113
c-43 130 -104 267 -141 315 -31 41 -70 44 -104 8 -30 -31 -41 -31 -96 1 -58
34 -90 24 -100 -33 -9 -50 -20 -63 -55 -63 -15 0 -39 -5 -53 -11 -21 -10 -26
-20 -28 -58 -3 -43 -5 -46 -37 -52 -62 -13 -63 -43 -7 -175 29 -68 46 -93 122
-169 87 -88 91 -91 179 -119 50 -16 129 -52 178 -82 48 -29 108 -60 133 -70
44 -17 45 -19 39 -48 -3 -17 -9 -55 -12 -85 -8 -75 11 -60 37 30 l21 70 92 -4
92 -3 3 -44 c8 -107 -37 -372 -89 -530 -35 -107 -43 -206 -21 -278 13 -42 14
-43 32 -27 17 16 18 15 11 -17 -19 -82 -33 -90 -166 -93 -49 -1 -103 -8 -118
-14 -15 -6 -105 -31 -200 -55 -221 -57 -306 -88 -562 -201 -233 -104 -373
-170 -835 -397 -729 -359 -1016 -547 -1143 -749 -48 -76 -72 -137 -162 -409
-62 -190 -78 -251 -82 -316 -6 -82 5 -124 30 -124 7 0 31 18 52 41 42 43 159
139 169 139 3 0 6 -64 6 -142 0 -100 5 -159 16 -199 18 -63 67 -130 115 -155
25 -12 29 -20 29 -57 0 -23 6 -96 14 -162 8 -66 17 -160 21 -210 4 -49 13
-124 21 -165 30 -167 44 -310 71 -776 6 -113 -11 -443 -33 -610 -19 -149 -71
-292 -124 -339 -12 -11 -37 -43 -55 -70 -17 -28 -55 -70 -83 -94 -41 -34 -51
-47 -46 -64 4 -18 -5 -30 -43 -58 -64 -49 -193 -117 -335 -178 -131 -56 -149
-66 -233 -134 -83 -67 -95 -83 -95 -127 0 -33 23 -70 43 -70 3 0 23 -11 43
-25 49 -33 141 -35 199 -4 30 16 56 20 106 19 94 -2 194 24 296 77 48 25 119
62 157 82 l70 36 236 -3 c215 -2 243 -1 303 18 80 25 119 56 142 112 26 65 59
364 44 400 -6 16 -9 45 -5 67 5 30 2 42 -14 56 -16 15 -20 31 -20 90 0 119 73
766 105 930 26 132 43 262 55 410 6 77 17 181 25 230 35 230 28 383 -31 628
-20 82 -35 150 -33 152 2 2 63 7 136 12 106 8 137 13 153 28 29 26 26 74 -7
118 -16 20 -56 73 -90 119 -35 46 -77 101 -94 123 -35 45 -34 76 5 136 51 77
287 203 453 243 126 29 382 68 603 91 85 9 274 37 420 62 262 45 268 46 580
53 220 6 335 13 381 23 71 17 236 83 309 125 60 34 179 130 261 210 58 56 69
63 87 53 11 -6 43 -11 70 -11 57 0 59 -2 279 -172 356 -277 451 -349 638 -475
110 -75 286 -196 390 -268 105 -72 254 -172 333 -221 241 -150 418 -289 602
-474 146 -146 232 -222 538 -478 76 -64 371 -279 492 -359 36 -23 100 -70 143
-103 73 -55 117 -74 117 -50 0 18 -63 81 -100 100 -21 11 -63 48 -94 83 -56
64 -56 65 -56 128 0 86 7 109 34 109 32 0 44 -12 51 -51 18 -95 53 -115 220
-126 87 -5 109 -10 170 -40 39 -19 111 -62 160 -96 50 -33 122 -83 161 -109
110 -74 265 -149 704 -338 453 -195 723 -373 1009 -664 51 -53 98 -96 102 -96
26 0 49 -42 49 -87 0 -55 36 -135 83 -183 35 -36 59 -133 77 -314 6 -61 16
-129 21 -151 12 -46 55 -125 69 -125 4 0 11 -18 15 -41 18 -103 149 -153 218
-83 24 24 24 24 42 4 24 -27 81 -27 97 0 9 14 24 20 49 20 23 0 42 7 54 20 10
11 26 20 36 20 10 0 23 9 29 20 6 11 19 20 29 20 47 0 58 80 23 166 -11 27
-26 74 -33 104 -16 73 -34 113 -113 250 -52 91 -63 116 -50 118 13 3 15 12 10
45 -16 97 -84 224 -177 332 -31 36 -59 78 -62 93 -3 15 -27 61 -54 102 -27 41
-55 90 -62 108 -24 58 -123 138 -253 203 -133 67 -453 263 -566 347 -39 30
-159 133 -265 230 -105 98 -232 208 -282 247 -49 38 -147 120 -218 182 -240
211 -346 280 -525 343 l-107 38 -26 83 c-45 147 -90 210 -148 208 -75 -3 -352
23 -395 37 -121 40 -341 219 -715 582 -166 161 -310 312 -447 472 -299 346
-370 424 -491 540 -215 206 -329 308 -423 375 -52 38 -120 89 -150 115 -30 26
-79 60 -109 76 -61 33 -296 278 -313 326 -6 15 -14 28 -18 28 -4 0 -20 20 -34
45 -15 24 -35 49 -44 54 -10 5 -46 43 -80 84 -60 73 -61 75 -42 92 31 28 8 52
-95 100 -69 32 -101 53 -126 85 -19 23 -50 61 -71 85 -50 61 -109 225 -80 225
20 0 71 -70 78 -107 8 -46 31 -93 44 -93 15 0 12 36 -6 78 -8 20 -19 85 -24
145 -5 59 -11 111 -14 116 -3 4 -10 49 -16 98 -16 129 11 267 78 400 16 32 33
78 37 103 13 77 40 114 177 238 160 144 222 207 217 220 -2 5 -47 -8 -99 -29
-90 -35 -146 -50 -151 -39 -2 3 36 79 83 170 180 345 243 567 242 845 -1 153
-21 300 -55 389 -25 69 -99 152 -169 190 -67 37 -115 89 -167 184 -70 126 -87
193 -80 320 3 59 12 124 20 146 l14 38 7 -28 c6 -22 9 -25 17 -13 5 7 9 28 10
44 l1 30 14 -33 c16 -36 42 -52 54 -32 5 8 9 9 14 1 13 -21 25 -11 31 27 6 34
71 200 83 212 3 3 2 -6 -1 -19 -25 -100 76 148 109 270 29 103 25 287 -9 419
-81 317 -242 582 -414 682 -70 41 -159 74 -233 88 -30 6 -73 19 -96 30 -43 21
-135 40 -189 39 -16 0 -56 -8 -87 -18z m-1883 -1040 c-7 -29 -17 -56 -20 -60
-11 -10 7 93 18 107 16 21 17 9 2 -47z"/>
</g>
</svg>
