<?xml version="1.0" standalone="no"?>
<!DOCTYPE svg PUBLIC "-//W3C//DTD SVG 20010904//EN"
 "http://www.w3.org/TR/2001/REC-SVG-20010904/DTD/svg10.dtd">
<svg version="1.0" xmlns="http://www.w3.org/2000/svg"
 width="988.000000pt" height="1280.000000pt" viewBox="0 0 988.000000 1280.000000"
 preserveAspectRatio="xMidYMid meet">
<g transform="translate(0.000000,1280.000000) scale(0.100000,-0.100000)"
fill="#000000" stroke="none">
<path d="M4790 12433 c-8 -4 -19 -12 -25 -20 -5 -7 -44 -20 -86 -28 -42 -8
-96 -22 -120 -31 -56 -23 -198 -159 -246 -238 -32 -52 -36 -66 -38 -135 -2
-73 -15 -117 -39 -133 -6 -4 -27 -8 -46 -8 -37 0 -83 -20 -47 -20 9 0 17 -6
17 -13 0 -7 11 -35 24 -63 36 -76 37 -78 11 -163 -13 -43 -26 -103 -30 -132
-12 -100 36 -354 86 -451 15 -29 19 -59 19 -135 0 -96 3 -132 34 -398 22 -187
22 -197 -18 -252 -18 -27 -53 -88 -78 -138 -102 -207 -316 -510 -411 -583 -31
-24 -59 -52 -62 -63 -4 -10 -10 -19 -15 -19 -5 0 -12 -9 -15 -20 -4 -11 -17
-33 -30 -48 -41 -49 -70 -183 -44 -209 7 -7 7 -22 -1 -50 -11 -36 -10 -44 15
-93 47 -92 148 -185 193 -178 14 2 18 -8 25 -62 10 -90 18 -200 21 -295 3 -76
48 -276 90 -394 18 -50 11 -65 -32 -74 -15 -3 -54 -22 -86 -41 -67 -40 -82
-43 -115 -20 -13 10 -57 20 -100 25 -61 6 -127 27 -341 109 -340 131 -569 229
-798 340 -100 49 -182 87 -182 85 0 -9 214 -123 365 -195 133 -64 511 -229
845 -369 56 -24 85 -43 113 -76 32 -38 36 -48 27 -65 -15 -28 -5 -40 34 -40
36 0 46 -15 46 -73 0 -34 68 -118 148 -183 39 -32 65 -45 100 -49 26 -4 67
-18 92 -32 39 -21 41 -21 18 -3 -16 12 -28 27 -28 34 0 14 73 76 88 76 11 0
62 -113 62 -137 0 -12 -8 -14 -37 -10 -33 5 -34 4 -13 -5 90 -36 104 -66 96
-209 -4 -82 -2 -99 14 -123 17 -28 17 -30 0 -81 -10 -29 -53 -131 -95 -225
-92 -208 -126 -297 -160 -427 -14 -54 -37 -120 -50 -148 -14 -28 -31 -92 -39
-145 -8 -52 -23 -142 -32 -200 -15 -90 -18 -188 -20 -685 -3 -589 -14 -840
-41 -975 -8 -41 -43 -156 -78 -255 -35 -99 -70 -207 -79 -240 -8 -33 -34 -112
-56 -175 -31 -84 -46 -151 -61 -257 -11 -78 -29 -178 -40 -220 -44 -163 -49
-190 -49 -268 0 -44 -5 -98 -10 -120 -5 -22 -14 -78 -20 -125 -13 -112 -28
-174 -55 -235 -12 -27 -36 -99 -54 -160 -18 -60 -55 -155 -82 -211 -49 -99
-83 -199 -73 -216 3 -4 -4 -45 -15 -91 -21 -82 -51 -426 -51 -588 0 -44 -5
-82 -12 -92 -7 -9 -48 -26 -91 -37 -174 -44 -203 -76 -222 -247 l-7 -62 51
-54 c87 -92 236 -147 343 -127 156 30 220 97 438 456 76 126 120 164 186 164
79 0 130 -67 208 -273 24 -61 43 -97 52 -97 8 0 33 9 54 20 49 25 50 39 9 145
-48 126 -59 178 -74 375 -17 209 -31 289 -54 298 -9 3 -25 13 -36 23 -11 9
-51 34 -90 55 -38 20 -78 44 -87 52 -22 18 -23 65 -4 82 8 6 29 48 46 93 31
81 136 266 267 471 37 58 83 131 101 163 18 32 69 103 113 158 105 130 208
304 254 430 84 228 77 173 80 645 4 453 2 431 59 600 14 41 37 117 51 169 18
65 63 171 144 335 65 133 133 276 150 318 18 43 40 88 50 100 31 41 81 135 81
153 0 10 13 41 29 69 15 28 34 69 41 91 7 22 21 52 32 67 11 15 37 67 60 114
26 56 43 83 50 76 5 -5 29 -95 53 -199 42 -183 115 -413 188 -593 18 -47 46
-116 60 -155 15 -38 59 -128 98 -200 137 -249 171 -324 180 -401 4 -39 23
-111 42 -160 19 -49 44 -131 56 -182 12 -51 37 -142 56 -203 44 -138 95 -389
101 -494 3 -44 7 -145 9 -225 2 -80 8 -161 14 -180 6 -19 11 -55 11 -80 0 -25
7 -85 15 -133 11 -66 12 -108 5 -162 -12 -96 -39 -203 -56 -219 -7 -8 -35 -17
-61 -21 -66 -9 -112 -33 -119 -61 -6 -25 10 -85 32 -121 17 -27 103 -73 136
-73 13 0 123 19 244 41 122 23 229 39 238 36 13 -5 16 -23 16 -102 0 -94 0
-95 24 -95 23 0 24 3 30 88 4 48 15 128 26 177 11 50 24 117 29 150 5 33 19
84 30 113 28 70 27 97 -10 183 -73 175 -70 158 -68 328 1 98 -3 173 -11 201
-8 28 -10 69 -6 110 8 73 62 312 100 437 14 45 37 146 51 224 25 134 26 148
15 248 -17 153 -32 201 -105 351 -66 134 -103 191 -244 375 l-73 95 -10 108
c-13 150 -10 370 7 477 8 49 15 115 15 145 0 30 5 71 11 90 6 19 12 58 15 85
15 178 23 246 29 255 4 6 11 71 15 143 10 150 32 294 60 382 32 102 40 161 40
288 0 151 -12 228 -52 337 -19 52 -32 107 -33 140 -1 42 -9 69 -34 113 -18 31
-38 60 -45 65 -6 4 -34 39 -61 77 -27 39 -91 113 -142 166 -58 59 -92 101 -88
110 3 8 -5 20 -19 29 -13 8 -146 135 -295 281 l-271 267 16 38 c10 24 19 82
23 148 l6 110 84 18 c105 23 203 69 231 108 21 29 46 152 35 170 -3 4 -10 75
-16 156 -8 112 -7 181 2 278 l12 129 -31 26 c-22 19 -37 49 -57 111 -50 152
-85 209 -218 351 -117 125 -215 209 -322 277 -153 96 -301 310 -345 500 -23
100 -25 89 35 184 21 33 42 51 70 63 22 8 67 35 100 60 33 24 106 76 163 115
97 68 102 73 87 90 -9 10 -43 25 -75 34 -48 14 -60 21 -60 37 0 28 27 89 39
89 6 0 11 6 11 13 0 8 15 34 34 58 33 42 35 48 40 154 3 61 6 119 7 130 1 11
-5 47 -14 80 -26 107 -28 125 -12 125 8 0 15 7 15 16 0 16 -38 76 -52 82 -4 2
-8 8 -8 13 0 24 -42 99 -55 99 -8 0 -22 8 -32 19 -20 21 -91 61 -109 61 -6 0
-21 12 -35 26 -55 59 -201 104 -331 103 -46 0 -90 -3 -98 -6z"/>
</g>
</svg>
