<?xml version="1.0" standalone="no"?>
<!DOCTYPE svg PUBLIC "-//W3C//DTD SVG 20010904//EN"
 "http://www.w3.org/TR/2001/REC-SVG-20010904/DTD/svg10.dtd">
<svg version="1.0" xmlns="http://www.w3.org/2000/svg"
 width="1280.000000pt" height="968.000000pt" viewBox="0 0 853.000000 1280.000000"
 preserveAspectRatio="xMidYMid meet">
<g transform="translate(0.000000,1280.000000) scale(0.100000,-0.100000)"
fill="#000000" stroke="none">
<path d="M4665 12766 c-44 -18 -102 -46 -129 -61 l-48 -28 -214 6 c-119 3
-229 1 -248 -4 -72 -20 -369 -222 -497 -338 -86 -77 -93 -95 -86 -216 3 -55
17 -155 32 -222 l26 -122 -27 -53 c-14 -29 -43 -69 -65 -88 -58 -53 -113 -162
-114 -226 0 -47 4 -57 35 -89 l35 -36 -2 -118 -1 -118 -50 -74 c-58 -86 -88
-163 -97 -245 -5 -48 0 -85 30 -203 l35 -144 -19 -31 c-60 -94 -56 -66 -56
-391 0 -165 4 -385 8 -490 l8 -190 -174 -181 c-162 -169 -198 -218 -181 -245
3 -5 0 -31 -7 -57 -10 -42 -9 -53 6 -86 10 -21 42 -56 71 -79 29 -23 55 -48
58 -55 3 -7 -3 -29 -14 -50 -24 -44 -25 -73 -5 -112 20 -39 58 -57 147 -71 40
-6 77 -14 81 -19 5 -4 -14 -93 -42 -197 -28 -104 -68 -265 -89 -356 -33 -141
-44 -172 -70 -201 -39 -45 -68 -192 -57 -289 4 -34 7 -97 6 -141 -1 -68 2 -84
24 -122 37 -64 31 -91 -28 -123 -26 -14 -60 -43 -75 -65 -26 -37 -27 -43 -28
-175 0 -100 -8 -176 -27 -286 -15 -82 -32 -179 -38 -215 -6 -36 -24 -89 -40
-117 -34 -61 -39 -142 -14 -213 17 -48 21 -39 -57 -126 -20 -23 -43 -55 -52
-72 -40 -78 -106 -365 -109 -477 l-2 -65 -390 -355 c-214 -196 -394 -354 -400
-352 -5 2 -11 13 -13 24 -2 14 17 39 65 84 165 156 163 153 163 195 0 21 -20
251 -45 509 -38 386 -50 474 -64 495 -11 14 -47 36 -87 52 l-69 28 -395 -6
c-311 -5 -401 -10 -423 -21 -15 -7 -177 -114 -360 -238 -280 -188 -345 -236
-411 -305 -67 -70 -77 -86 -72 -108 3 -15 37 -213 75 -441 39 -228 75 -426 81
-440 14 -36 29 -44 140 -75 52 -15 98 -31 102 -35 4 -4 11 -28 14 -53 6 -45 4
-51 -55 -142 -34 -53 -78 -130 -98 -171 l-36 -76 6 -167 c6 -179 20 -258 77
-434 34 -109 24 -99 169 -165 51 -23 96 -45 99 -48 3 -3 13 -57 22 -120 12
-84 14 -119 6 -129 -6 -7 -39 -34 -73 -60 -81 -61 -93 -79 -93 -142 0 -92 80
-778 94 -809 10 -21 38 -44 97 -77 l84 -47 373 -55 c392 -59 437 -63 463 -43
8 7 139 147 290 313 253 277 277 306 308 379 l35 78 -44 366 c-23 201 -49 381
-56 399 -16 40 -73 68 -156 78 -31 4 -61 10 -68 14 -7 4 -14 41 -17 86 l-5 79
106 132 c103 129 106 134 106 182 l0 50 451 418 c248 230 455 418 461 418 5 0
15 -16 22 -36 29 -84 87 -150 151 -172 32 -11 41 -19 43 -42 7 -53 -5 -75 -41
-75 -58 0 -119 -39 -146 -94 l-25 -50 16 -156 c18 -176 25 -197 97 -269 l47
-48 107 -374 c58 -206 131 -472 162 -592 l56 -219 -21 -32 c-11 -18 -52 -63
-91 -100 l-71 -67 3 -72 4 -72 -200 -68 c-199 -67 -200 -68 -240 -52 -23 8
-48 15 -58 15 -45 0 -438 -155 -589 -232 -109 -56 -170 -113 -190 -182 -8 -26
-13 -101 -12 -206 1 -242 40 -378 126 -440 86 -63 421 -133 692 -146 100 -5
151 -2 296 20 263 39 621 53 970 37 394 -17 735 5 829 53 68 35 92 102 98 273
8 187 -22 397 -78 562 -16 47 -17 57 -5 70 42 49 43 57 56 601 13 522 10 839
-10 935 -6 28 -18 61 -29 75 -28 39 -92 80 -161 104 -75 25 -91 52 -70 116 12
36 10 82 -5 142 -5 20 -1 35 15 57 19 27 27 31 70 31 38 0 55 6 80 26 l31 27
52 -18 52 -18 194 37 c113 21 198 33 203 28 5 -5 23 -69 40 -143 17 -74 41
-158 54 -188 30 -67 30 -75 -2 -96 -14 -9 -35 -37 -46 -62 -24 -55 -19 -117
17 -203 13 -31 46 -133 74 -226 128 -433 160 -604 162 -865 1 -125 -1 -140
-26 -205 -16 -38 -48 -105 -73 -148 -68 -121 -69 -179 -6 -240 27 -26 35 -41
31 -58 -3 -13 -17 -67 -31 -120 -37 -142 -50 -285 -42 -483 7 -194 23 -284 66
-372 94 -191 281 -264 750 -292 96 -6 234 -16 307 -22 258 -23 609 30 774 117
118 62 148 115 169 299 20 184 8 341 -30 395 -15 22 -20 38 -15 58 4 21 -13
81 -60 218 -63 180 -65 191 -54 231 15 56 7 95 -46 209 -54 116 -61 141 -79
280 -29 220 -30 367 -2 699 57 703 57 740 -8 840 -18 28 -40 75 -50 105 -21
68 -34 85 -168 237 l-108 121 0 110 c0 70 4 113 11 118 24 14 51 -37 89 -167
46 -161 61 -196 97 -239 29 -34 93 -69 129 -70 11 0 29 -10 40 -21 38 -43 97
-60 227 -66 118 -6 128 -4 238 27 288 81 522 172 561 216 43 49 148 306 148
362 0 34 -51 140 -119 244 -33 52 -121 221 -196 377 -136 283 -136 284 -121
316 43 89 63 224 47 313 -7 39 -15 256 -20 522 -7 429 -6 457 11 492 10 21 18
59 18 86 0 64 -27 208 -46 244 -18 34 -13 44 23 53 16 3 40 18 56 33 58 56 24
192 -94 375 -79 122 -117 168 -167 199 -18 11 -43 39 -57 63 -23 38 -25 51
-23 136 3 93 3 95 -46 207 l-49 113 38 31 c53 44 65 80 65 197 0 98 0 100 -35
145 -19 26 -35 50 -35 54 0 4 20 18 45 31 25 13 65 45 90 72 61 66 61 99 0
202 -25 41 -56 82 -69 91 -16 10 -31 37 -45 84 -24 80 -57 146 -131 261 -37
58 -65 120 -97 214 -52 156 -76 199 -138 250 -113 94 -449 271 -667 352 -26
10 -53 24 -60 32 -10 13 -6 14 35 8 38 -6 52 -3 82 15 32 20 41 21 74 11 69
-20 110 -14 142 20 52 56 39 95 -67 208 -43 46 -73 86 -68 90 5 5 74 -16 154
-46 178 -66 221 -70 263 -23 25 28 29 39 24 74 -7 52 -49 90 -162 145 -63 31
-97 56 -147 109 -112 119 -365 468 -470 647 l-35 61 -7 294 c-5 182 -12 321
-21 362 -19 93 -104 294 -160 377 -54 82 -110 134 -180 167 -62 30 -112 30
-177 2 l-51 -22 -111 28 c-150 37 -481 112 -534 121 -31 5 -60 22 -111 64
-143 119 -217 164 -323 195 -76 22 -100 20 -193 -18z m1624 -5847 c16 -12 44
-24 62 -28 30 -6 38 -15 70 -82 20 -41 51 -87 68 -101 17 -15 84 -44 156 -68
77 -26 129 -48 133 -58 3 -9 -15 -56 -44 -111 -48 -93 -49 -97 -49 -182 0 -87
0 -88 -35 -124 -35 -36 -35 -37 -35 -126 0 -49 -3 -89 -7 -89 -8 0 -26 30 -99
163 -41 76 -63 106 -96 128 -26 18 -43 38 -43 49 0 11 -17 57 -38 102 -36 79
-39 91 -51 248 -9 124 -17 173 -30 195 -13 20 -17 42 -14 68 6 43 13 45 52 16z
m481 -1228 c14 -27 13 -41 -3 -41 -15 0 -39 44 -30 54 11 11 22 6 33 -13z"/>
</g>
</svg>
