<?xml version="1.0" standalone="no"?>
<!DOCTYPE svg PUBLIC "-//W3C//DTD SVG 20010904//EN"
 "http://www.w3.org/TR/2001/REC-SVG-20010904/DTD/svg10.dtd">
<svg version="1.0" xmlns="http://www.w3.org/2000/svg"
 width="1280.000000pt" height="968.000000pt" viewBox="0 0 1280.000000 968.000000"
 preserveAspectRatio="xMidYMid meet">
<g transform="translate(0.000000,968.000000) scale(0.100000,-0.100000)"
fill="#000000" stroke="none">
<path d="M6623 8141 c-116 -43 -204 -138 -223 -241 -10 -55 -21 -93 -47 -164
-25 -69 -20 -142 16 -226 18 -41 35 -84 38 -95 3 -11 16 -48 29 -82 32 -83 31
-113 -8 -164 -43 -55 -102 -77 -158 -59 -21 7 -66 11 -102 8 -91 -5 -166 -46
-323 -172 -133 -108 -302 -212 -390 -242 -27 -9 -84 -34 -126 -55 -42 -21
-107 -48 -144 -60 -93 -30 -135 -71 -191 -183 -24 -50 -54 -106 -65 -123 -15
-24 -23 -60 -29 -133 -5 -55 -12 -105 -15 -110 -3 -6 -27 -10 -53 -10 -52 0
-246 -18 -307 -28 -34 -6 -40 -11 -40 -31 0 -20 9 -27 55 -42 67 -22 91 -23
152 -5 71 22 205 31 223 16 9 -8 29 -10 49 -7 18 3 38 1 44 -5 18 -18 107 -32
172 -28 36 2 82 -10 102 -28 16 -13 23 -11 72 27 30 24 57 48 59 54 2 8 16 7
47 -3 24 -8 62 -14 85 -14 405 10 422 12 456 41 11 9 54 16 122 20 l106 6 16
-56 c18 -63 23 -154 11 -239 -6 -44 -15 -67 -42 -99 -19 -22 -34 -47 -34 -54
0 -8 -22 -37 -50 -66 -27 -29 -50 -58 -50 -64 0 -7 -11 -20 -23 -28 -42 -27
-145 -194 -168 -271 -40 -136 -102 -321 -117 -351 -8 -16 -36 -55 -62 -85
-133 -156 -198 -273 -321 -581 -122 -308 -235 -658 -289 -902 -18 -83 -27
-103 -56 -132 -19 -19 -34 -37 -34 -40 0 -3 -20 -79 -44 -168 -82 -301 -94
-394 -116 -847 -6 -118 -17 -260 -25 -316 -29 -191 -116 -516 -167 -619 -54
-109 -162 -289 -204 -341 -47 -59 -62 -108 -66 -228 l-3 -79 109 -37 c108 -37
109 -38 184 -26 42 6 77 17 80 24 2 7 15 12 28 12 17 0 27 8 33 24 5 13 19 26
30 29 12 3 21 13 21 24 0 10 9 24 20 31 11 7 20 23 20 37 0 14 7 28 15 31 9 4
15 19 15 35 0 16 4 29 8 29 5 0 16 19 26 41 16 36 17 46 6 80 -12 34 -11 44 3
74 12 26 23 35 41 35 33 0 120 87 136 134 14 44 -2 229 -26 300 -24 70 -9 166
71 459 72 262 111 375 178 517 58 125 73 172 96 310 30 179 35 248 21 275 -16
31 14 135 88 305 109 249 248 455 556 826 56 66 122 150 148 187 71 100 140
122 235 74 l51 -26 111 -223 c61 -123 141 -281 178 -353 38 -71 90 -188 117
-260 27 -71 86 -211 132 -309 46 -99 84 -185 84 -191 0 -21 43 -89 119 -188
43 -57 97 -132 119 -168 48 -75 112 -210 112 -234 0 -8 10 -41 21 -73 13 -32
25 -96 29 -147 11 -145 67 -282 144 -353 37 -34 53 -42 84 -42 20 0 47 6 58
14 30 22 83 133 95 202 19 108 6 148 -163 502 -39 82 -40 87 -49 240 -17 297
-47 374 -182 475 -29 22 -55 47 -59 56 -11 31 -47 269 -88 593 -57 453 -73
519 -204 833 -37 88 -76 194 -87 235 -11 41 -30 107 -43 145 -43 131 -46 141
-46 181 0 48 36 171 78 272 17 40 29 79 25 88 -3 9 5 26 20 42 27 29 77 163
77 207 0 17 15 44 41 73 22 26 59 75 81 108 l39 62 72 6 c168 13 348 18 787
21 375 2 511 7 705 24 284 25 428 41 435 48 3 3 -56 3 -130 -1 -152 -7 -813
-23 -1415 -35 -222 -4 -405 -4 -411 1 -7 5 -10 33 -7 76 6 84 -23 171 -68 204
-16 12 -29 27 -29 34 0 6 -28 38 -63 70 -61 58 -107 122 -107 150 0 11 22 14
118 15 64 1 149 4 187 8 39 3 84 2 101 -3 22 -6 61 -2 135 14 247 53 265 71
416 430 38 91 82 194 96 230 41 99 37 95 93 76 62 -21 120 -20 164 2 28 14 34
22 32 43 -2 25 2 28 50 39 63 15 134 54 149 82 6 11 27 26 46 35 49 20 103 64
103 84 0 37 -26 41 -79 15 -61 -31 -64 -31 -100 -5 -33 24 -160 59 -219 59
-51 0 -193 -35 -243 -61 -57 -28 -96 -66 -131 -125 -18 -30 -40 -56 -48 -59
-36 -11 -342 -74 -415 -85 -44 -7 -152 -31 -240 -53 -143 -36 -173 -41 -284
-41 -83 -1 -126 3 -128 10 -2 6 24 53 59 103 85 127 90 167 39 366 -6 22 -11
54 -11 71 0 45 -55 147 -102 189 -94 85 -244 117 -355 76z m1876 -645 c16 -19
-2 -30 -37 -21 -26 6 -26 7 -8 21 25 18 31 18 45 0z m-529 -129 c0 -8 -45 -69
-100 -138 -55 -68 -113 -150 -130 -181 -34 -63 -42 -67 -160 -76 -137 -10
-303 -1 -390 21 -59 14 -121 21 -205 23 l-120 2 -3 38 c-4 42 38 138 67 153 9
5 92 21 185 36 140 22 173 25 192 14 20 -10 51 -6 196 24 95 20 211 43 258 52
47 8 108 21 135 29 67 18 75 18 75 3z m-1913 -817 c25 -79 33 -116 29 -152 -6
-57 44 -241 74 -273 50 -53 69 -51 -597 -71 l-162 -5 -27 53 c-15 29 -37 66
-50 81 -13 16 -24 34 -24 41 0 24 46 56 160 109 63 30 124 65 135 77 11 12 54
39 95 60 41 21 127 72 190 114 63 42 121 75 129 74 8 -2 28 -47 48 -108z"/>
</g>
</svg>
