<?xml version="1.0" standalone="no"?>
<!DOCTYPE svg PUBLIC "-//W3C//DTD SVG 20010904//EN"
 "http://www.w3.org/TR/2001/REC-SVG-20010904/DTD/svg10.dtd">
<svg version="1.0" xmlns="http://www.w3.org/2000/svg"
 width="1280.000000pt" height="968.000000pt" viewBox="0 0 1076.000000 1280.000000"
 preserveAspectRatio="xMidYMid meet">
<g transform="translate(0.000000,1280.000000) scale(0.100000,-0.100000)"
fill="#000000" stroke="none">
<path d="M5330 12601 c-183 -37 -330 -105 -475 -220 -46 -36 -319 -284 -607
-551 -563 -521 -587 -547 -664 -714 -192 -417 -117 -889 195 -1240 31 -35 169
-146 181 -146 5 0 52 61 105 136 l97 137 -25 56 c-58 128 -74 333 -38 473 19
75 88 238 100 238 3 -1 24 -23 46 -50 32 -40 46 -50 71 -50 18 0 38 -8 49 -20
16 -18 17 -23 5 -45 -11 -21 -11 -27 4 -44 17 -19 14 -22 -81 -93 l-98 -73 3
-40 c6 -58 77 -141 129 -148 37 -5 40 -3 123 85 85 90 86 91 100 69 14 -20 18
-21 42 -10 25 11 31 9 70 -26 59 -52 80 -91 75 -140 -2 -22 -7 -49 -12 -60
-16 -36 24 4 46 46 33 66 20 125 -48 207 -35 43 -36 45 -20 72 16 26 15 28 -3
45 -24 22 -10 46 14 26 11 -9 20 -10 35 -1 22 11 28 35 11 45 -14 9 -12 45 3
45 6 0 49 35 95 77 46 42 87 72 91 67 5 -5 45 -57 90 -117 106 -140 145 -210
137 -242 -4 -15 0 -38 11 -58 9 -17 18 -45 20 -62 2 -16 17 -65 33 -107 27
-71 28 -83 19 -133 -5 -30 -19 -80 -29 -111 -11 -31 -27 -90 -35 -132 -12 -61
-21 -82 -43 -99 -34 -29 -36 -29 -78 3 -27 21 -37 24 -48 15 -25 -21 -46 -78
-46 -126 0 -37 -6 -55 -29 -84 -100 -126 -146 -309 -112 -447 11 -44 9 -71 -9
-195 -11 -79 -26 -154 -32 -166 -8 -17 -8 -26 2 -38 14 -17 10 -41 -27 -140
-22 -59 -39 -83 -111 -157 -66 -68 -90 -86 -106 -82 -16 4 -36 -10 -83 -59
-35 -35 -63 -67 -63 -71 0 -10 -74 -98 -122 -146 -21 -20 -38 -41 -38 -45 0
-8 -83 -100 -181 -201 -21 -22 -39 -44 -39 -48 0 -8 -25 -36 -110 -123 -19
-20 -35 -42 -36 -49 -1 -7 -17 -31 -34 -53 -27 -32 -32 -46 -27 -71 5 -23 0
-39 -21 -69 -22 -32 -40 -43 -102 -65 -92 -32 -234 -66 -275 -66 -17 0 -41 -7
-53 -16 -17 -11 -49 -17 -110 -18 -85 -1 -89 -2 -160 -46 -40 -25 -96 -62
-124 -84 -44 -33 -48 -40 -36 -53 8 -8 24 -16 34 -18 10 -2 21 -4 23 -4 1 -1
-10 -16 -25 -35 -75 -89 -98 -127 -83 -137 28 -18 61 -9 92 25 121 128 169
176 176 176 5 0 1 -22 -10 -50 -25 -67 -73 -276 -66 -294 4 -9 15 -12 32 -9
27 6 47 36 59 88 9 39 49 135 57 135 3 0 2 -21 -2 -47 -4 -27 -8 -69 -8 -95
-1 -41 2 -48 19 -48 27 0 52 41 55 93 5 67 32 127 73 163 68 60 223 93 248 52
4 -6 -24 -41 -65 -79 -55 -53 -71 -75 -71 -97 0 -36 16 -52 53 -52 48 0 91 27
151 95 41 47 67 67 95 75 29 8 57 31 118 98 44 48 94 107 112 132 17 24 44 50
59 57 15 7 55 34 89 60 114 88 374 275 377 272 2 -2 8 -14 15 -26 17 -33 14
-53 -9 -53 -27 0 -25 -24 3 -63 13 -18 36 -65 51 -104 l28 -73 -35 -42 c-59
-74 -320 -438 -407 -568 -46 -69 -143 -208 -216 -310 -201 -281 -367 -570
-512 -890 -119 -264 -119 -264 -57 -337 35 -41 235 -183 258 -183 7 0 25 -10
40 -23 28 -22 28 -22 12 -66 -21 -60 -19 -103 6 -135 38 -48 348 -190 483
-221 75 -17 143 -20 266 -11 61 4 123 2 175 -6 l80 -13 12 -70 c6 -38 13 -128
14 -198 1 -119 0 -130 -19 -143 -27 -18 -39 -60 -47 -159 -3 -44 -13 -114 -21
-155 -15 -74 -17 -136 -30 -810 -6 -342 -5 -374 11 -413 14 -34 36 -245 40
-387 2 -47 3 -95 4 -108 1 -13 15 -37 31 -54 28 -27 30 -35 30 -102 0 -61 -3
-76 -21 -92 -17 -15 -20 -26 -14 -59 19 -124 19 -125 -28 -220 -24 -49 -50
-108 -57 -130 -7 -22 -18 -47 -25 -55 -25 -28 -84 -171 -97 -231 -9 -46 -9
-66 0 -92 7 -18 12 -46 12 -61 0 -59 62 -122 157 -159 72 -28 206 -43 260 -29
60 16 101 47 109 80 4 15 17 43 31 64 21 30 25 49 26 120 1 45 -2 115 -7 155
-8 63 -6 76 13 116 21 43 21 51 11 154 -6 59 -14 118 -17 131 -4 16 4 36 26
67 36 50 39 84 12 109 -12 11 -23 42 -30 80 -16 91 -14 117 12 144 18 19 22
34 20 80 -1 31 3 113 9 182 9 105 15 135 40 188 30 63 33 83 28 227 -1 39 11
113 33 210 72 311 88 421 92 645 1 113 8 237 13 275 7 46 8 83 2 106 -20 72
-19 189 1 246 23 69 66 355 81 546 7 81 15 147 19 147 4 0 27 -11 51 -25 l45
-25 31 79 c18 44 48 157 68 252 40 193 75 301 164 504 34 77 78 179 98 227 20
48 40 88 43 88 3 0 21 -33 40 -72 19 -40 53 -106 77 -146 35 -61 40 -74 26
-79 -24 -9 -11 -80 26 -142 16 -29 30 -56 30 -60 0 -15 90 -92 124 -106 27
-11 46 -36 100 -132 57 -100 81 -158 155 -383 82 -245 88 -270 84 -326 -4 -50
-1 -70 20 -116 14 -30 39 -66 56 -79 21 -17 43 -56 77 -139 74 -183 120 -276
169 -346 34 -49 45 -74 45 -103 0 -23 9 -52 23 -72 13 -20 28 -65 35 -112 15
-87 55 -212 76 -236 7 -9 30 -76 51 -149 20 -72 48 -160 62 -195 27 -68 139
-293 210 -425 30 -55 47 -102 53 -142 11 -76 50 -162 98 -214 43 -47 133 -249
152 -339 10 -50 17 -62 44 -78 34 -20 47 -48 66 -147 6 -35 6 -59 -3 -82 -11
-30 -10 -34 20 -59 l33 -27 -7 -98 c-5 -82 -9 -99 -26 -107 -16 -9 -19 -19
-15 -60 3 -32 13 -58 27 -72 11 -13 21 -33 21 -46 0 -32 26 -77 58 -100 26
-18 30 -28 36 -91 6 -64 18 -104 44 -150 5 -8 17 -32 28 -54 40 -84 141 -123
274 -105 95 12 154 32 197 65 61 46 72 76 76 214 1 33 -7 63 -31 110 -37 76
-107 182 -148 225 -15 17 -48 77 -72 135 -58 140 -62 153 -73 240 -8 69 -12
78 -47 111 -30 27 -45 54 -65 114 l-27 79 20 21 c23 24 27 93 8 128 -10 20
-40 147 -73 316 -8 40 -12 88 -9 106 6 40 -19 142 -50 205 -12 25 -28 72 -35
105 -43 195 -98 394 -155 567 -37 108 -66 203 -66 212 0 54 -47 170 -94 232
-65 85 -64 84 -71 118 -3 16 -26 48 -50 71 -37 37 -48 57 -74 141 -41 134 -57
199 -84 339 -20 105 -21 125 -9 160 10 32 10 52 0 109 -11 59 -19 77 -49 107
-20 20 -39 49 -42 65 -3 16 -31 151 -62 299 -31 149 -67 318 -81 377 -24 101
-25 108 -9 138 15 29 15 35 1 71 -9 22 -16 49 -16 61 0 24 -35 86 -61 108 -10
8 -38 80 -64 163 -59 193 -85 259 -141 368 -25 49 -45 91 -43 92 2 2 29 11 60
20 99 30 104 60 36 202 -26 53 -47 100 -47 104 0 4 15 13 34 19 19 7 49 26 66
42 38 36 36 56 -14 134 -65 101 -66 91 16 132 86 43 118 70 118 99 0 25 -191
242 -233 264 -16 9 -44 12 -76 9 -48 -5 -49 -4 -36 16 37 60 23 169 -27 211
-16 14 -25 25 -19 25 13 0 33 73 25 93 -3 9 -16 23 -29 31 -19 12 -22 20 -16
48 6 26 11 32 28 30 44 -6 61 91 23 126 -19 17 -20 27 -14 86 6 62 8 66 32 66
21 0 24 3 19 28 -7 32 34 218 67 305 13 34 44 104 70 156 45 88 46 94 30 112
-15 17 -14 23 29 111 25 51 58 139 73 196 26 98 29 103 51 97 26 -6 30 6 8 25
-13 11 -12 18 12 61 39 72 42 73 107 43 40 -18 61 -23 68 -16 13 13 9 23 -37
86 -20 27 -34 53 -33 57 2 4 19 18 38 31 19 13 36 33 38 43 9 54 42 101 42 60
0 -21 57 -142 70 -150 14 -9 40 13 35 28 -2 7 -6 25 -9 40 -6 26 -5 27 14 17
34 -18 100 38 100 85 0 10 20 60 45 113 56 115 71 206 56 334 -19 161 -78 285
-189 396 -126 126 -244 181 -400 188 l-93 4 -5 172 c-8 353 -26 547 -65 721
-34 153 -117 338 -187 417 -44 50 -171 130 -247 155 -38 12 -57 26 -79 57
-230 322 -675 497 -1066 419z m603 -637 c13 -4 9 -14 -19 -51 -19 -24 -34 -49
-34 -55 0 -7 -13 -8 -35 -5 -33 5 -38 2 -116 -84 l-82 -90 -21 20 c-19 17 -23
18 -40 5 -18 -12 -22 -12 -44 8 -18 18 -22 30 -18 52 5 24 -1 38 -39 81 l-45
53 63 25 c54 22 111 36 197 51 32 6 213 -2 233 -10z m-514 -291 c17 4 30 -1
47 -20 22 -24 23 -28 9 -43 -19 -21 -19 -29 2 -52 20 -22 9 -37 -16 -21 -11 7
-23 8 -35 1 -14 -8 -16 -18 -10 -54 5 -34 3 -44 -7 -44 -8 0 -47 -30 -87 -67
l-73 -66 -29 32 c-53 57 -138 32 -128 -39 5 -34 1 -36 -26 -15 -28 21 -52 19
-76 -7 -16 -17 -20 -31 -16 -56 l5 -32 -38 6 c-33 5 -41 3 -60 -22 -12 -15
-19 -35 -16 -43 4 -9 9 -28 12 -42 4 -23 1 -27 -26 -32 -40 -8 -54 -42 -42
-98 9 -39 8 -41 -42 -87 -29 -26 -72 -66 -96 -89 -48 -47 -52 -49 -81 -31 -16
10 -23 10 -37 -5 -14 -14 -15 -21 -6 -37 18 -28 -5 -38 -24 -11 -14 21 -16 21
-41 5 -25 -16 -26 -16 -48 10 -19 21 -22 31 -14 52 9 22 4 31 -40 78 -28 29
-50 58 -50 63 0 6 215 207 477 447 l478 437 55 -62 c46 -51 60 -61 79 -56z
m233 -320 c16 -14 22 -15 40 -4 11 7 22 11 24 9 11 -12 -15 -263 -36 -333 -75
-263 -95 -327 -123 -392 -16 -40 -33 -73 -36 -73 -3 0 -17 9 -31 20 l-25 19 0
208 0 208 -36 76 -37 77 81 76 c79 75 81 76 104 60 23 -14 26 -14 44 1 14 13
16 22 9 36 -19 34 -8 39 22 12z m27 -531 c-12 -37 -32 -93 -45 -124 -13 -31
-21 -64 -18 -72 3 -8 -3 -23 -13 -34 -29 -30 -27 -45 4 -25 26 18 27 18 19 -2
-5 -11 -10 -31 -10 -45 -1 -14 -6 -37 -10 -52 l-8 -27 -34 40 c-19 23 -34 47
-34 54 0 6 15 41 33 76 18 35 56 121 83 192 50 130 74 144 33 19z m75 -484 l7
-38 -40 0 c-36 0 -43 4 -64 36 l-23 37 41 81 40 82 16 -80 c9 -45 19 -98 23
-118z m-111 92 c-11 -26 -20 -37 -26 -31 -6 6 -2 21 12 40 30 41 33 39 14 -9z
m240 -107 c7 -9 5 -13 -7 -13 -11 0 -16 8 -15 28 0 15 3 21 6 12 3 -8 10 -21
16 -27z m-685 -2105 c7 -7 12 -22 12 -35 0 -18 -6 -23 -25 -23 -29 0 -50 -39
-41 -76 5 -17 0 -23 -20 -28 -14 -4 -33 -20 -42 -35 -17 -30 -65 -65 -75 -55
-3 3 18 38 48 77 30 39 66 97 82 129 28 59 39 68 61 46z m-238 -315 c0 -20 -3
-24 -11 -16 -7 7 -9 19 -6 27 10 24 17 19 17 -11z m227 -5455 c-3 -8 -6 -5 -6
6 -1 11 2 17 5 13 3 -3 4 -12 1 -19z m-502 -1087 c-3 -6 -11 -11 -17 -11 -6 0
-6 6 2 15 14 17 26 13 15 -4z"/>
<path d="M5596 10615 c-9 -26 -7 -32 5 -12 6 10 9 21 6 23 -2 3 -7 -2 -11 -11z"/>
</g>
</svg>
