<?xml version="1.0" encoding="utf-8"?>
<!-- Generator: Adobe Illustrator 22.1.0, SVG Export Plug-In . SVG Version: 6.00 Build 0)  -->
<svg version="1.1" id="Layer_1" xmlns="http://www.w3.org/2000/svg" xmlns:xlink="http://www.w3.org/1999/xlink" x="0px" y="0px"
	 viewBox="0 0 1280 968" style="enable-background:new 0 0 1280 968;" xml:space="preserve">
<g transform="translate(0.000000,1280.000000) scale(0.100000,-0.100000)">
	<path d="M5774.7,12155.7c-23.4-13.6-29.5-14.4-43.1-6c-65.8,40.8-130.1,1.5-104.4-63.5c5.3-12.9,9.8-26.5,10.6-30.2
		c2.3-12.1-79.4-63.5-134.6-84.7c-150.5-56.7-461.3-182.3-514.2-208c-76.4-36.3-446.9-256.4-474.2-281.3
		c-11.3-10.6-22.7-28-25.7-39.3c-6.8-28.7,21.2-136.9,51.4-198.9c105.1-209.5,207.2-392.5,282.8-504.4
		c115.7-170.2,177-261.7,198.9-296.5c80.9-126.3,146-262.4,189.1-398.5c21.2-65.8,22.7-77.9,15.1-101.3
		c-9.1-28-79.4-101.3-114.9-119.5c-11.3-6.1-26.5-24.2-33.3-39.3c-6.1-15.1-14.4-33.3-18.2-39.3c-44.6-73.4-67.3-197.4-53.7-291.2
		c9.8-67.3,49.9-159.6,80.2-183c25.7-20.4,33.3-40.1,39.3-97.6c8.3-91.5,46.1-263.2,69.6-317.6c12.1-28.7,28.7-71.1,35.5-93.8
		c14.4-43.1,45.4-104.4,79.4-155c31.8-47.6,128.6-207.2,128.6-212.5c0-3-4.5-0.8-9.8,3.8c-15.9,12.9-21.2,1.5-9.8-21.2
		c5.3-10.6,14.4-36.3,19.7-57.5c17.4-64.3,34.8-99.1,68.1-131.6c21.9-21.9,30.2-34.8,26.5-45.4c-2.3-7.6,0-23.4,4.5-35.5
		s12.9-40.1,18.9-62c11.3-42.3,30.2-77.1,42.4-77.1c4.5,0,6,9.8,3,22.7c-2.3,12.9-3,22.7-1.5,22.7c1.5,0,18.2-23.4,37.8-52.9
		c19.7-28.7,40.8-55.2,46.9-59c7.6-4.5,18.1-44.6,33.3-123.3c25-138.4,30.2-159.6,65-265.4l26.5-80.2l-40.8-82.4
		c-22.7-44.6-50.7-103.6-62-130.8c-12.1-27.2-31-62.8-43.1-78.6c-11.3-16.6-21.2-35.5-21.2-41.6c0-26.5-17.4-69.6-40.8-104.4
		c-26.5-38.6-45.4-105.1-43.9-152.8c0.8-14.4,9.1-41.6,18.9-60.5c11.3-21.9,20.4-55.2,23.4-90c11.3-118,40.8-195.1,128.6-336.5
		c52.2-84.7,100.6-216.3,166.4-455.3c37.1-136.1,49.9-176.2,72.6-235.2c25-65,56-181.5,86.2-324.4c10.6-49.9,25.7-118.7,34-153.5
		c8.3-34,18.9-95.3,23.4-136.1c4.5-40.1,12.9-92.3,18.9-114.9c26.5-102.1,87-404.6,89.2-446.9c3-43.9,1.5-49.2-21.2-74.1
		c-34-37.8-38.6-49.2-49.9-115.7c-7.6-45.4-7.6-68.8-0.8-105.1c4.5-25.7,9.8-48.4,12.1-49.9c2.3-2.3,63.5-6.1,136.9-8.3
		c72.6-2.3,132.3-6,132.3-9.8c0-12.1,83.2-22.7,133.9-16.6l51.4,6l1.5,113.4c0.8,62.8-2.3,135.4-7.6,162.6
		c-12.1,65.8-11.3,155.8,1.5,236c9.1,55.2,9.1,74.1,0.8,109.7c-12.9,58.2-54.4,136.1-99.8,188.3c-20.4,23.4-42.4,50.7-48.4,60.5
		c-15.9,24.2-46.1,158.1-56,248.8c-4.5,41.6-12.1,97.6-17.4,124.8c-5.3,31-9.1,156.5-9.1,340.3c-1.5,288.9-1.5,291.9-21.2,364.5
		c-27.2,102.1-80.2,223.9-142.9,329c-29.5,49.2-59,95.3-65,102.9c-14.4,15.9-69.6,105.9-69.6,111.9c0,2.3,15.9,14.4,34.8,26.5
		c18.9,12.1,40.8,32.5,48.4,45.4c8.3,12.1,21.2,28.7,28.7,35.5c12.9,12.1,15.9,9.8,59-47.6c31.8-43.1,44.6-68.1,45.4-85.5
		c0.8-30.2,16.6-86.2,25-92.3c11.3-6.8,78.6-151.2,87.7-186.8c3-11.3,9.8-24.2,15.9-29.5c8.3-6.8,10.6-5.3,10.6,6.8
		c0,25.7,15.1,27.2,19.7,2.3c5.3-25,16.6-28.7,42.4-15.1c19.7,10.6,31-2.3,71.1-79.4c14.4-28.7,50.7-87.7,80.9-132.3
		c58.2-87,99.1-173.9,148.2-314.6c17.4-49.9,44.6-119.5,60.5-155c15.9-35.5,52.2-124,80.2-196.6c28.7-72.6,56-137.6,61.3-143.7
		c4.5-6.1,24.2-52.2,43.1-102.1c18.9-49.9,53.7-136.9,77.1-192.8c40.1-95.3,58.2-143.7,104.4-276c9.8-28.7,21.2-73.4,23.4-98.3
		c3-25,12.1-82.4,19.7-128.6c7.6-45.4,18.2-108.9,22.7-139.9c5.3-31,22.7-100.6,39.3-155c23.4-76.4,28.7-105.1,25-128.6
		c-3-16.6-5.3-40.1-4.5-51.4c0.8-31-83.2-112.7-167.9-163.4c-77.9-46.9-86.2-59-73.4-102.1c5.3-17.4,9.8-38.6,11.3-47.6
		c4.5-40.1,102.9-153.5,132.3-153.5c33.3,0.8,131.6,20.4,211,42.3c65.8,18.2,85.5,28,134.6,65c32.5,23.4,62,50.7,67.3,60.5
		c4.5,9.8,16.6,49.9,25.7,89.2c52.2,226.1,70.3,295.7,75.6,289.6c17.4-17.4,25-79.4,28-226.9c3.8-153.5,4.5-161.1,18.9-161.1
		c15.1,0,215.5,64.3,229.9,74.1c6.1,3.8-4.5,38.6-35.5,114.9c-24.2,60.5-49.2,130.1-55.2,155c-15.9,60.5-27.2,196.6-27.2,319.9
		c0,116.5-6.1,137.6-54.5,186c-56.7,56.7-100.6,84.7-172.4,111.2c-42.3,15.9-74.1,31.8-80.9,41.6c-28,43.1-71.8,250.3-89.2,420.5
		c-6,63.5-18.1,164.9-26.5,225.4c-8.3,60.5-19.7,162.6-26.5,228.4c-20.4,208.7-77.9,358.5-201.9,522.6
		c-18.1,23.4-44.6,69.6-58.2,102.1c-13.6,31.8-33.3,71.1-43.1,87c-34.8,53.7-100.6,211-101.3,241.2c0,2.3,15.1,13.6,34,24.2
		c24.2,14.4,34,25,34,37.8c0,15.9-16.6,74.9-30.2,106.6c-28.7,65.8-37.8,88.5-49.2,124.8c-19.7,60.5-45.4,98.3-67.3,98.3
		c-14.4,0-18.9,5.3-24.2,28.7c-3,15.1-6.1,29.5-6.8,31.8c-0.8,2.3-3.8,15.9-6.8,30.2c-8.3,38.6-52.9,181.5-100.6,323.7
		c-21.9,68.1-38.6,130.1-36.3,137.6c3.8,12.9-28,106.6-43.9,126.3c-4.5,6.1-2.3,15.1,6.8,27.2c96,122.5,125.5,175.5,158.1,288.9
		c15.1,51.4,21.2,91.5,24.2,162.6c3,86.2,1.5,100.6-16.6,162.6c-31.8,108.1-90.8,220.8-139.1,263.9c-9.1,8.3-23.4,27.2-31.8,42.3
		c-16.6,30.2-43.9,48.4-172.4,117.2c-43.9,22.7-86.2,48.4-94.5,56c-9.1,7.6-31.8,21.2-50.7,31c-19.7,9.1-47.6,28-63.5,42.3
		c-34,29.5-59.7,36.3-113.4,29.5l-40.8-4.5l-19.7,29.5c-26.5,40.1-30.2,71.8-15.1,130.1c28.7,111.2,75.6,185.3,121,190.6
		c13.6,1.5,23.4,8.3,28,20.4c5.3,15.9,4.5,17.4-12.9,12.9c-17.4-4.5-26.5,5.3-12.9,13.6c3.8,2.3,19.7,30.2,34.8,62
		c21.2,42.4,28.7,67.3,28.7,92.3c-0.8,18.2,3.8,43.1,9.8,54.5c18.9,36.3,76.4,181.5,121,306.3c24.2,66.5,67.3,170.2,96,230.7
		c65.8,137.6,99.8,228.4,119.5,318.4c18.9,86.2,50.7,192.1,93.8,313.1l31.8,90.8l39.3,2.3c30.2,1.5,41.6,6,50.7,18.9
		c40.1,56.7,103.6,163.4,114.2,193.6c7.6,18.9,19.7,41.6,27.2,50.7c7.6,8.3,18.9,35.5,25.7,60.5c22.7,81.7,23.4,75.6-15.1,99.1
		c-24.2,14.4-33.3,25-30.2,32.5c28,71.1,40.1,244.3,22.7,328.2c-14.4,66.5-14.4,66.5-46.1,106.6c-63.5,80.2-98.3,105.9-232.2,173.9
		c-159.6,80.9-304.8,148.2-395.5,183c-37.8,14.4-116.5,48.4-174.7,74.9c-102.1,45.4-214.8,78.6-259.4,76.4
		c-14.4-1.5-25.7,9.1-52.9,46.9c-18.9,26.5-46.9,54.5-61.3,62C5842,12176.1,5808.8,12176.1,5774.7,12155.7z M5763.4,11784.4
		c18.9-8.3,21.9-12.1,12.9-15.1c-18.9-7.6-14.4-22.7,12.9-40.1c96-61.3,105.9-65,146-60.5c33.3,3.8,44.6,1.5,72.6-14.4
		c17.4-10.6,37.8-18.9,44.6-18.9s37.8-37.1,71.1-83.9c105.1-150.5,166.4-227.6,272.2-346.4l104.4-116.5l-9.8-38.6
		c-5.3-21.2-18.9-59-30.2-84.7c-11.3-25-23.4-60.5-26.5-77.9l-5.3-32.5l-18.9,29.5c-10.6,15.9-28.7,39.3-40.8,51.4
		c-11.3,12.9-21.9,31-23.4,41.6c-0.8,10.6-6.8,22.7-12.9,27.2c-7.6,5.3-8.3,9.8-2.3,13.6c4.5,2.3,13.6-3,19.7-12.1
		c6.8-9.1,12.1-12.9,12.1-8.3c0,5.3-18.9,29.5-41.6,54.5l-42.3,44.6l25-2.3c13.6-0.8,34.8-6,47.6-11.3c21.9-8.3,56.7-15.1,56.7-10.6
		c0,6.1-52.2,37.8-86.2,51.4c-53.7,22.7-140.7,118-140.7,155.8c0,13.6,31.8,8.3,67.3-12.1l34.8-18.9l-22.7,19.7
		c-12.9,10.6-41.6,30.2-64.3,42.3c-22.7,12.9-59.7,34-81.7,48.4c-21.9,13.6-63.5,31-91.5,37.8c-28.7,6.8-61.3,18.2-73.4,24.2
		c-12.1,6.8-32.5,14.4-44.6,17.4c-19.7,5.3-17.4,6,16.6,6.8c21.2,0.8,40.8,3.8,43.9,8.3c6.8,10.6-68.1,29.5-138.4,35.5
		c-48.4,3.8-62,6.8-59,15.1c9.1,23.4-132.3-1.5-198.9-35.5c-30.2-15.1-44.6-9.1-18.1,7.6c11.3,6.8,10.6,7.6-5.3,3.8
		c-18.1-4.5-18.1-3.8-4.5,6.8c18.9,15.1,5.3,15.9-42.3,1.5c-64.3-19.7-114.2-56.7-169.4-124c-32.5-39.3-46.1-46.1-20.4-9.8
		c6.8,10.6,8.3,15.9,3.8,12.9c-4.5-2.3-17.4-21.2-28-41.6c-12.9-23.4-32.5-43.9-54.4-58.2c-18.9-11.3-30.2-22.7-25.7-24.2
		c5.3-1.5,1.5-9.8-8.3-20.4c-9.8-9.8-17.4-21.2-16.6-24.2c0.8-3-7.6-18.9-17.4-35.5c-15.1-23.4-16.6-30.2-8.3-35.5
		c7.6-5.3,7.6-6.8,0-6.8c-5.3,0-8.3-3-5.3-7.6c2.3-3.8,9.1-5.3,15.1-2.3c8.3,3,9.8,0.8,6.8-8.3c-3-6.8-0.8-12.1,4.5-12.1
		c6.1,0,6.8-4.5,3.8-12.9c-3-7.6-9.8-37.1-14.4-66.5l-9.1-52.9l-43.1,83.9c-59.7,116.5-93.8,166.4-155.8,231.4l-52.9,56l39.3,14.4
		c41.6,14.4,204.9,126.3,372.1,254.1c127.1,96.8,260.9,187.6,297.2,200.4C5654.5,11813.9,5703.7,11809.3,5763.4,11784.4z
		 M6163.5,11715.5c19.7,7.6,25,4.5,70.3-32.5c125.5-105.1,400.1-302.5,451.5-324.4c1.5-0.8-10.6-19.7-26.5-42.4
		c-27.2-39.3-30.2-41.6-56-38.6c-26.5,3.8-26.5,3.8-46.9-43.9c-11.3-26.5-20.4-57.5-20.4-68.8c0-12.1-3-21.2-6.8-21.2
		c-13.6,0-175.4,193.6-287.4,344.1c-87,115.7-111.2,153.5-105.1,161.1c4.5,5.3,8.3,21.2,7.6,34
		C6143,11703.4,6146.8,11709.5,6163.5,11715.5z M6380.5,11083.3c2.3-4.5-0.8-5.3-6.8-3c-6.8,2.3-12.1,6.1-12.1,7.6
		C6361.6,11093.9,6376,11090.9,6380.5,11083.3z M6287.5,11068.2c7.6-0.8,43.9-32.5,43.9-38.6c0-11.3-28.7,6.8-37.8,23.4
		C6289,11061.4,6286.7,11068.2,6287.5,11068.2z M6462.2,10830c10.6-7.6,12.1-13.6,6.8-23.4c-6.8-12.1-8.3-11.3-15.9,3.8
		C6441,10833,6445.5,10842.8,6462.2,10830z M6422.8,10820.9c9.8-12.1,9.1-12.9-3-3c-6.8,5.3-12.9,11.3-12.9,12.9
		C6407,10836.8,6413,10833,6422.8,10820.9z M6441,10764.9c3-4.5,3.8-9.1,1.5-11.3c-1.5-2.3-5.3,1.5-7.6,8.3
		C6429.7,10774.8,6434.2,10777,6441,10764.9z M5327,8707.2l2.3,35.5l45.4-55.2c78.6-95.3,123.3-154.3,136.9-180
		c13.6-24.2,12.9-25.7-4.5-63.5c-25-53.7-25-112.7-0.8-139.2c15.9-17.4,36.3-85.5,27.2-93.8c-6-6-46.9,90.8-51.4,122.5
		c-3,16.6-15.9,47.6-28.7,68.1c-51.4,81.7-91.5,158.8-109.7,213.3C5331.6,8652,5325.5,8684.5,5327,8707.2z M5584.2,8158.1
		c1.5,4.5,10.6-11.3,19.7-36.3c20.4-55.2,16.6-62-5.3-10.6C5589.5,8132.4,5582.7,8153.6,5584.2,8158.1z M5730.1,7237
		c6.1,2.3,11.3,3,11.3,1.5c0-1.5-5.3-6.8-11.3-12.1c-6.8-5.3-11.3-6.1-11.3-1.5C5718.8,7228.7,5724.1,7234,5730.1,7237z
		 M5715.8,7206.8c7.6,3,10.6,0.8,9.1-4.5c-3.8-11.3-21.2-17.4-21.2-7.6C5703.7,7198.5,5708.9,7204.5,5715.8,7206.8z"/>
</g>
</svg>
