<?xml version="1.0" encoding="utf-8"?>
<!-- Generator: Adobe Illustrator 22.1.0, SVG Export Plug-In . SVG Version: 6.00 Build 0)  -->
<svg version="1.1" id="Layer_1" xmlns="http://www.w3.org/2000/svg" xmlns:xlink="http://www.w3.org/1999/xlink" x="0px" y="0px"
	 viewBox="0 0 1280 970" style="enable-background:new 0 0 1280 970;" xml:space="preserve">
<g transform="translate(0.000000,715.000000) scale(0.100000,-0.100000)">
	<path d="M8142.9,5750l-23-27c-13-16-30-28-38-28s-41-26-73-57l-58-58l21,48c34,76,18,76-30,1c-51-78-183-245-228-287
		c-16-16-90-53-170-86c-77-32-160-70-185-84c-81-48-152-122-194-203l-40-76l-110,149c-61,82-116,159-124,171c-13,21-39,31-39,15
		c0-5,56-100,125-213c120-197,125-207,125-261c0-30,11-93,25-139s24-85,22-86c-2-2-270,228-400,344c-9,8-20,12-24,8s65-80,154-169
		c192-194,313-333,313-358c0-12,10-23,25-29s23-15,19-24c-4-11-43,1-182,54c-97,38-226,89-286,114c-61,25-112,43-115,39
		c-4-3-1-8,5-10c36-13,372-187,446-232c84-49,88-54,88-86c0-31-3-35-25-35c-16,0-40-16-67-44c-52-52-128-105-171-117
		c-19-6-40-23-52-42c-16-25-29-33-62-38c-22-3-51-13-64-22s-34-25-47-34c-35-24-148-54-232-62c-69-6-76-8-88-33c-13-27-16-28-88-28
		c-46,0-86-6-103-14c-15-8-37-13-48-10s-34-1-49-9c-16-8-46-17-67-20c-24-4-53-19-77-41c-41-37-79-50-173-62c-41-4-62-12-70-25
		c-7-11-20-19-30-19s-31-7-47-15s-41-12-57-9c-21,4-38-2-71-26c-78-56-147-81-236-86c-117-5-129-5-140,6c-16,16-23,12-40-25
		c-13-26-14-40-6-54c5-11,7-22,3-24c-5-3-62-17-128-31c-66-15-126-33-133-40c-8-7-16-32-19-54c-5-34-10-42-32-46
		c-95-19-1660-11-1911,10c-224,18-230,20-230,49c0,71-40,99-140,99l-75,1l-90,78c-124,108-171,131-262,132c-62,0-75-3-97-24
		c-14-14-26-29-26-34c0-6-6-18-14-26c-11-12-12-28-6-66c5-27,9-65,9-82l1-33h-73c-47,0-86-7-112-18c-35-16-65-18-235-16
		c-179,2-201,4-265,27c-112,40-178,72-205,101c-55,58-120,82-120,43c0-42,183-150,322-190l41-12l-64-38l-64-38l-88,12
		c-64,9-99,19-125,37c-21,14-84,54-141,89c-87,55-116,67-186,80c-80,16-115,14-115-6c0-21,49-41,118-50c58-7,85-18,151-57
		c44-27,79-50,77-51c-2-2-74,6-161,17c-129,17-161,18-172,8c-29-30,3-40,178-60c216-23,262-31,266-43c2-7-96-6-284,2
		c-159,6-328,12-376,12c-86,1-88,0-85-21s9-23,70-26c60-3,67-5,70-25l3-22l330,3l330,3l-31-19c-17-11-58-25-90-32s-69-19-81-27
		c-26-17-30-41-9-49c25-9,156,36,223,77l65,40l52-29c100-57,310-102,474-102c66,0,102-5,124-16c17-9,58-19,90-22l58-5l-6-32
		c-4-25,0-42,19-71c65-102,151-138,230-98c18,9,57,34,88,55l56,38l80-16c69-15,87-15,124-4c58,17,116,76,123,124c3,20,8,52,11,71
		c7,40,0,38,190,61c202,25,309,33,325,25c8-4,69-4,135,1s235,12,375,15c140,4,262,10,271,15s204,11,432,15l415,6l4-24
		c3-22,6-23,84-20c47,1,104,10,135,21c72,24,229,23,277-3c37-20,78-15,116,15c29,23,43,78,27,106c-13,26,3,43,42,43
		c16,0,59,14,97,30c38,17,84,30,104,30c19,0,46,4,61,10c14,5,75,14,135,20c61,6,131,17,155,26c27,9,59,12,79,9c23-5,44-1,67,11
		c18,9,58,18,87,20c30,2,59,7,66,13c6,5,43,17,81,26c38,8,79,24,90,34c28,25,133,51,204,51c39,0,63,5,71,15c7,8,28,17,49,21
		c20,3,63,14,95,25c33,10,74,19,92,19c17,0,58,13,90,30c32,16,67,30,78,30c10,0,33,8,50,19c17,10,49,24,71,30c22,7,57,19,78,28
		c36,16,38,15,63-8c14-13,33-41,41-62c9-21,24-44,35-51c12-9,22-30,25-56c5-37,3-45-23-66c-28-23-28-24-10-39c10-8,23-12,28-9
		c17,11,19-27,4-73c-9-26-20-81-25-121c-8-65-7-79,14-132c31-80,59-116,106-140c24-13,41-30,45-45c6-23,17-29,52-28
		c8,1,39-52,72-120c32-69,71-135,88-151l31-29l-29-36c-28-36-42-87-56-203c-5-50-9-58-27-58c-16,0-18-3-9-12c8-8,8-17,1-30
		c-6-11-8-25-6-33c3-7-5-34-19-61c-28-56-29-65-8-109c14-29,14-53,6-182c-6-81-8-168-5-193l5-45l-114-57c-62-31-115-53-116-48
		c-2,6-8,10-14,10c-15,0-283-161-338-203c-25-18-101-71-170-117c-69-45-151-100-183-121c-32-22-64-39-70-39c-7,0-19-10-27-22
		c-30-47-80-164-80-189c0-15-9-56-20-91c-19-63-19-65-1-130c10-36,24-76,31-88c9-17,11-48,5-109c-10-121-9-161,9-286
		c7-47,5-53-32-109l-40-58l25-56c25-54,25-56,10-101c-9-25-24-75-32-111c-9-36-35-99-58-142c-36-65-48-79-87-97
		c-127-59-180-96-180-125c0-23,21-20,27,4c3,12,35,34,84,59c69,35,77,37,64,18c-26-40-169-163-225-195c-30-16-80-40-110-53
		c-87-36-90-40-36-65l47-22l-58-31c-32-17-65-35-73-40c-26-14-23-40,7-53c15-7,32-18,38-24c13-15,64-24,71-12c3,5,12,4,19-2
		c8-7,23-9,34-5c11,3,29,0,40-7c16-10,27-10,54,0c18,7,47,12,64,12c35,0,129,33,253,90c56,25,111,42,161,49c123,17,156,35,190,104
		c18,39,18,40-2,78c-11,22-22,68-25,102s-9,69-14,77s-2,26,6,42c8,15,13,31,12,35c-4,18,17,70,38,96c13,15,29,47,35,70
		c15,56,69,144,93,151c16,4,18,0,13-29c-3-19-2-37,3-40c13-8,31,30,20,41c-6,6-6,23,0,44c5,19,16,72,24,118c11,58,26,100,50,140
		c19,31,38,73,41,92c4,19,14,45,22,57c11,16,13,38,9,80c-9,86-9,111-1,191c8,69,7,74-23,121l-30,49l51,13c136,31,319,95,442,153
		c74,36,135,69,135,74c0,9,169,92,187,92c19,0,74-72,195-255c139-211,147-225,141-242c-9-26,21-54,95-88c140-65,198-85,261-89
		c38-2,69-10,80-20c10-9,24-16,32-16s39-16,69-35s65-35,79-35c13,0,32-7,42-16c9-8,50-29,90-45c77-32,129-66,167-111
		c19-23,32-28,66-28c33,0,51-7,82-33c21-18,77-60,124-94c94-67,123-95,125-121c1-9,10-41,20-71c17-50,17-55,1-81c-10-18-13-31-6-35
		c13-8,32,4,25,16c-4,5-2,16,3,26c8,14,13,9,32-27l22-44l-17-110c-12-79-22-117-36-132c-22-24-34-81-25-117c9-37,54-49,132-37
		c35,6,74,14,87,19c26,10,77,65,78,84c0,7,2,48,4,92c4,105,38,184,92,218s66,52,60,86c-5,22,1,38,24,69c16,22,33,62,38,88
		c9,45,7,53-20,95c-16,25-29,55-29,67c0,16-6,22-23,22c-12,0-49,13-82,29c-43,21-64,26-73,18c-9-7-21-4-42,11c-16,12-34,22-41,22
		c-6,0-25,14-42,31c-94,90-116,109-158,137c-41,27-66,58-56,68c6,6,81-24,85-35c8-23,28-10,27,17c-1,20-7,28-26,31
		c-13,1-36,12-50,22c-15,10-30,19-34,19s-32,18-64,40c-31,22-62,40-69,40s-12,4-12,9s-12,19-26,32s-38,43-54,67
		c-27,41-102,101-128,102c-6,0-12,4-12,8c0,5-9,18-21,30c-15,17-31,22-57,21c-24-1-57,8-91,26c-40,20-74,29-125,32c-57,4-75,9-91,27
		c-31,34-74,58-94,51c-17-5-20,2-26,67c-9,91-48,246-81,317c-13,29-24,55-24,57s33,27,73,57c90,67,121,103,164,192l34,70l-6-58
		c-3-38-2-56,5-52c5,3,10,37,10,76v69h31c25,0,32-6,45-35c7-19,14-45,14-57c0-28,24-73,66-122l31-37l49,18c54,20,83,57,69,89
		c-4,10-7,23-6,28s-2,12-7,15c-41,28-172,243-172,282c0,8-14,43-31,79c-26,56-29,70-21,102c7,27,6,44-4,64c-18,33-18,58-2,48
		c7-4,6,1-3,12c-10,10-19,28-21,39c-2,12-13,21-26,23s-33,19-47,42c-13,21-30,40-37,43c-7,2,13,17,44,33c63,31,74,56,39,88
		c-18,16-22,16-81-14s-63-30-76-13c-16,21-19,79-4,88c5,3,10,11,10,17s-11,1-24-11l-25-23l-6,35c-4,20-3,84,3,144c7,83,6,116-4,140
		c-11,29-11,33,6,38c11,3,41,31,68,60l48,54l27-41l27-41l-5,43c-3,36,0,47,20,66l24,22l11-29c13-30,29-39,31-16c2,18,3,15-27,97
		c-35,99-44,108-89,91c-32-11-37-10-70,15c-31,23-35,24-41,9c-4-9,0-29,9-44c15-26,15-27-69-113c-93-97-104-97-80-2
		c8,33,24,112,36,178c24,133,41,167,121,244c63,60,67,92,21,133l-31,28l25,45c14,26,32,46,40,46c28,0,131-59,148-84
		c9-14,23-26,32-26c8,0,35-14,59-30c26-18,71-36,110-44c37-8,76-23,88-34s44-26,71-33c32-8,65-27,97-55c33-29,60-44,89-49
		c58-10,121-39,149-69c12-13,44-29,69-36c26-6,58-22,72-35s47-34,75-46c27-12,61-30,75-41c18-14,33-18,60-13c28,5,53-2,125-36
		c50-23,119-52,154-66c34-13,84-35,109-48c26-14,53-25,61-25s31-16,51-36c19-20,76-57,125-83c69-36,94-54,105-79c18-39,40-49,57-26
		c7,10,13,13,13,7c0-7,10-15,22-19c13-4,37-17,54-30s41-24,52-24c12,0,22-6,22-14s16-37,35-65s35-59,35-69c0-24,19-42,46-42
		c28,0,57,28,50,46c-3,8-1,14,4,14c16,0,50-63,50-92s23-56,68-79c27-13,71-57,72-71c0-5-7-8-15-8s-15-4-15-10c0-5,7-7,15-3
		c10,3,28-7,48-28c40-41,195-259,302-424c102-156,649-905,661-905c5,0-10,23-137,221c-146,228-363,552-467,697
		c-124,172-268,389-312,467c-18,33-40,68-48,77c-10,12-12,30-7,66c6,44,3,55-39,134c-25,47-46,96-46,108s-6,34-14,48
		c-8,15-17,38-20,52c-3,16-21,35-50,52c-33,20-46,34-51,60c-16,75-99,158-135,135c-14-8-28-6-65,14c-48,25-70,55-95,132
		c-6,21-17,36-23,34c-7-2-20,0-30,5c-23,12-55-7-68-40l-11-27l-47,54c-42,47-50,52-68,43c-17-9-24-8-39,9c-11,12-31,27-46,35
		c-16,8-28,20-28,28c0,22-33,44-85,57c-67,17-156,70-189,113c-19,25-37,37-64,42c-37,6-132,43-185,71c-15,8-51,22-80,32
		c-39,13-56,25-66,47c-16,33-26,42-61,51c-14,3-63,28-110,55c-53,30-96,48-117,48c-24,0-37,7-49,25c-9,13-14,29-12,34
		c4,11,109-38,121-56c4-7,14-10,22-7c23,9-1,47-24,39c-12-3-30,4-48,19c-17,14-70,39-119,55c-56,19-91,36-96,48c-4,10-34,41-66,68
		c-32,28-74,72-93,99c-46,67-56,76-86,76c-14,0-49,13-77,30c-29,16-72,32-96,35c-73,10-92,15-88,24c2,5,31,32,66,61
		c34,29,70,66,78,82c15,29,15,32-15,73l-31,43l57,51c31,28,54,53,52,56c-3,3-32-16-65-41c-32-25-60-41-62-36c-4,13,186,333,395,662
		c176,279,203,323,203,334c0,24-35-17-142-166c-304-426-540-701-625-726c-64-19-71-16-84,31c-6,23-23,89-39,147
		c-21,79-30,138-35,240c-3,74-8,158-10,185c-2,28-7,132-11,233c-5,144-9,182-20,182c-8,0-14-6-14-12c0-7-4-98-10-203
		c-5-104-12-246-15-315c-13-244-39-410-66-410c-4,0-15,35-24,78c-23,109-24,111-47,123c-15,8-27,8-45,0c-23-10-25-16-19-50
		c3-21,8-89,12-152c5-93,3-118-9-134c-15-20-15-20-21,5c-2,14-18,95-35,180c-36,186-62,267-118,379l-42,83l49,133
		c55,152,59,166,44,172c-6,2-21-18-33-44c-24-53-23-44,9,65c21,71,21,74,4,130c-19,60-19,62-9,102L8142.9,5750z M8194.9,4635
		c1,0,14-39,29-86l28-85l-37-70c-20-38-43-69-51-69c-38,0-91,24-96,44c-15,54-7,86,30,118c19,17,49,58,65,90
		S8192.9,4635,8194.9,4635z M8282.9,4275c5,0,7-4,4-10c-3-5-8-10-11-10c-2,0-4,5-4,10C8271.9,4271,8276.9,4275,8282.9,4275z
		 M2092.9,3431c83-29,119-76,119-153v-53h-78h-79l-12,87c-7,48-17,94-24,101c-8,10-7,16,4,23C2040.9,3447,2048.9,3447,2092.9,3431z
		 M1466.9,3123c142-21,130-18,106-34c-11-8-21-22-21-30c0-11-17-14-83-14c-88,0-237,19-237,30c0,4,26,19,59,34
		C1352.9,3136,1370.9,3138,1466.9,3123z M1601.9,2960c9-8,22-15,28-15c10,0,32-30,32-43s-73-16-158-6c-97,10-269,51-307,72
		c-17,10-12,13,40,18C1367.9,3001,1573.9,2986,1601.9,2960z M8921.9,2985c5,0,10-4,10-10c0-5-5-10-10-10c-6,0-10,5-10,10
		C8911.9,2981,8915.9,2985,8921.9,2985z M8899.9,2908c18,17,22,18,22,5c0-18-27-44-37-34C8880.9,2883,8887.9,2895,8899.9,2908z
		 M2489.9,2784c28-16,32-22,22-34c-14-17-135-21-145-6c-3,5,7,18,22,29C2433.9,2804,2453.9,2807,2489.9,2784z M2081.9,2770
		c33-25,51-32,69-28c21,5,22,4,12-16c-7-12-30-35-53-51c-52-38-99-40-121-6c-15,22-14,27,4,62c10,21,19,46,19,56
		C2011.9,2813,2030.9,2809,2081.9,2770z M7896.9,2465c31,29,31,22,4-32c-12-23-27-58-34-77c-12-31-14-33-14-11c-1,14,4,41,9,61
		C7867.9,2425,7882.9,2452,7896.9,2465z M11243.9,2430c3,3,13-7,23-22l17-28l-23,22C11248.9,2414,11240.9,2427,11243.9,2430z
		 M8879.9,2132c31-33,28-61-4-39c-11,7-34,45-34,56C8841.9,2162,8859.9,2154,8879.9,2132z M8971.9,2005c5,0,10-12,10-27
		c0-22-2-25-10-13c-5,8-10,21-10,28C8961.9,1999,8965.9,2005,8971.9,2005z M8888.9,1998c15-6,17-69,3-78c-6-3-10-3-10,2
		c0,4-4,25-9,46C8863.9,2005,8865.9,2008,8888.9,1998z M9591.9,295c23,0,105-45,88-48c-8-1-34,9-59,22
		C9596.9,283,9583.9,295,9591.9,295z M7070.9-198c9,16,10,14,11-11c0-22-3-27-11-19S7062.9-212,7070.9-198z M9690.9-315
		c13,0,21-12,21-33c0-11,9-35,21-53c11-19,19-44,17-56c-3-20-6-18-22,17c-10,22-24,59-32,83C9688.9-334,9685.9-315,9690.9-315z"/>
</g>
</svg>
