<?xml version="1.0" standalone="no"?>
<!DOCTYPE svg PUBLIC "-//W3C//DTD SVG 20010904//EN"
 "http://www.w3.org/TR/2001/REC-SVG-20010904/DTD/svg10.dtd">
<svg version="1.0" xmlns="http://www.w3.org/2000/svg"
 width="1280.000000pt" height="970.000000pt" viewBox="0 0 1280.000000 715.000000"
 preserveAspectRatio="xMidYMid meet">
<g transform="translate(0.000000,715.000000) scale(0.100000,-0.100000)"
fill="#000000" stroke="none">
<path d="M4405 7000 c10 -40 10 -42 -9 -102 -17 -56 -17 -59 4 -130 32 -109
33 -118 9 -65 -12 26 -27 46 -33 44 -15 -6 -11 -20 44 -172 l49 -133 -42 -83
c-56 -112 -82 -193 -118 -379 -17 -85 -33 -166 -35 -180 -6 -25 -6 -25 -21 -5
-12 16 -14 41 -9 134 4 63 9 131 12 152 6 34 4 40 -19 50 -18 8 -30 8 -45 0
-23 -12 -24 -14 -47 -123 -9 -43 -20 -78 -24 -78 -27 0 -53 166 -66 410 -3 69
-10 211 -15 315 -6 105 -10 196 -10 203 0 6 -6 12 -14 12 -11 0 -15 -38 -20
-182 -4 -101 -9 -205 -11 -233 -2 -27 -7 -111 -10 -185 -5 -102 -14 -161 -35
-240 -16 -58 -33 -124 -39 -147 -13 -47 -20 -50 -84 -31 -85 25 -321 300 -625
726 -107 149 -142 190 -142 166 0 -11 27 -55 203 -334 209 -329 399 -649 395
-662 -2 -5 -30 11 -62 36 -33 25 -62 44 -65 41 -2 -3 21 -28 52 -56 l57 -51
-31 -43 c-30 -41 -30 -44 -15 -73 8 -16 44 -53 78 -82 35 -29 64 -56 66 -61 4
-9 -15 -14 -88 -24 -24 -3 -67 -19 -96 -35 -28 -17 -63 -30 -77 -30 -30 0 -40
-9 -86 -76 -19 -27 -61 -71 -93 -99 -32 -27 -62 -58 -66 -68 -5 -12 -40 -29
-96 -48 -49 -16 -102 -41 -119 -55 -18 -15 -36 -22 -48 -19 -23 8 -47 -30 -24
-39 8 -3 18 0 22 7 12 18 117 67 121 56 2 -5 -3 -21 -12 -34 -12 -18 -25 -25
-49 -25 -21 0 -64 -18 -117 -48 -47 -27 -96 -52 -110 -55 -35 -9 -45 -18 -61
-51 -10 -22 -27 -34 -66 -47 -29 -10 -65 -24 -80 -32 -53 -28 -148 -65 -185
-71 -27 -5 -45 -17 -64 -42 -33 -43 -122 -96 -189 -113 -52 -13 -85 -35 -85
-57 0 -8 -12 -20 -28 -28 -15 -8 -35 -23 -46 -35 -15 -17 -22 -18 -39 -9 -18
9 -26 4 -68 -43 l-47 -54 -11 27 c-13 33 -45 52 -68 40 -10 -5 -23 -7 -30 -5
-6 2 -17 -13 -23 -34 -25 -77 -47 -107 -95 -132 -37 -20 -51 -22 -65 -14 -36
23 -119 -60 -135 -135 -5 -26 -18 -40 -51 -60 -29 -17 -47 -36 -50 -52 -3 -14
-12 -37 -20 -52 -8 -14 -14 -36 -14 -48 0 -12 -21 -61 -46 -108 -42 -79 -45
-90 -39 -134 5 -36 3 -54 -7 -66 -8 -9 -30 -44 -48 -77 -44 -78 -188 -295
-312 -467 -104 -145 -321 -469 -467 -697 -127 -198 -142 -221 -137 -221 12 0
559 749 661 905 107 165 262 383 302 424 20 21 38 31 48 28 8 -4 15 -2 15 3 0
6 -7 10 -15 10 -8 0 -15 3 -15 8 1 14 45 58 72 71 45 23 68 50 68 79 0 29 34
92 50 92 5 0 7 -6 4 -14 -7 -18 22 -46 50 -46 27 0 46 18 46 42 0 10 16 41 35
69 19 28 35 57 35 65 0 8 10 14 22 14 11 0 35 11 52 24 17 13 41 26 54 30 12
4 22 12 22 19 0 6 6 3 13 -7 17 -23 39 -13 57 26 11 25 36 43 105 79 49 26
106 63 125 83 20 20 43 36 51 36 8 0 35 11 61 25 25 13 75 35 109 48 35 14
104 43 154 66 72 34 97 41 125 36 27 -5 42 -1 60 13 14 11 48 29 75 41 28 12
61 33 75 46 14 13 46 29 72 35 25 7 57 23 69 36 28 30 91 59 149 69 29 5 56
20 89 49 32 28 65 47 97 55 27 7 59 22 71 33 12 11 51 26 88 34 39 8 84 26
110 44 24 16 51 30 59 30 9 0 23 12 32 26 17 25 120 84 148 84 8 0 26 -20 40
-46 l25 -45 -31 -28 c-46 -41 -42 -73 21 -133 80 -77 97 -111 121 -244 12 -66
28 -145 36 -178 24 -95 13 -95 -80 2 -84 86 -84 87 -69 113 9 15 13 35 9 44
-6 15 -10 14 -41 -9 -33 -25 -38 -26 -70 -15 -45 17 -54 8 -89 -91 -30 -82
-29 -79 -27 -97 2 -23 18 -14 31 16 l11 29 24 -22 c20 -19 23 -30 20 -66 l-5
-43 27 41 27 41 48 -54 c27 -29 57 -57 68 -60 17 -5 17 -9 6 -38 -10 -24 -11
-57 -4 -140 6 -60 7 -124 3 -144 l-6 -35 -25 23 c-13 12 -24 17 -24 11 0 -6 5
-14 10 -17 15 -9 12 -67 -4 -88 -13 -17 -17 -17 -76 13 -59 30 -63 30 -81 14
-35 -32 -24 -57 39 -88 31 -16 51 -31 44 -33 -7 -3 -24 -22 -37 -43 -14 -23
-34 -40 -47 -42 -13 -2 -24 -11 -26 -23 -2 -11 -11 -29 -21 -39 -9 -11 -10
-16 -3 -12 16 10 16 -15 -2 -48 -10 -20 -11 -37 -4 -64 8 -32 5 -46 -21 -102
-17 -36 -31 -71 -31 -79 0 -39 -131 -254 -172 -282 -5 -3 -8 -10 -7 -15 1 -5
-2 -18 -6 -28 -14 -32 15 -69 69 -89 l49 -18 31 37 c42 49 66 94 66 122 0 12
7 38 14 57 13 29 20 35 45 35 l31 0 0 -69 c0 -39 5 -73 10 -76 7 -4 8 14 5 52
l-6 58 34 -70 c43 -89 74 -125 164 -192 40 -30 73 -55 73 -57 0 -2 -11 -28
-24 -57 -33 -71 -72 -226 -81 -317 -6 -65 -9 -72 -26 -67 -20 7 -63 -17 -94
-51 -16 -18 -34 -23 -91 -27 -51 -3 -85 -12 -125 -32 -34 -18 -67 -27 -91 -26
-26 1 -42 -4 -57 -21 -12 -12 -21 -25 -21 -30 0 -4 -6 -8 -12 -8 -26 -1 -101
-61 -128 -102 -16 -24 -40 -54 -54 -67 -14 -13 -26 -27 -26 -32 0 -5 -5 -9
-12 -9 -7 0 -38 -18 -69 -40 -32 -22 -60 -40 -64 -40 -4 0 -19 -9 -34 -19 -14
-10 -37 -21 -50 -22 -19 -3 -25 -11 -26 -31 -1 -27 19 -40 27 -17 4 11 79 41
85 35 10 -10 -15 -41 -56 -68 -42 -28 -64 -47 -158 -137 -17 -17 -36 -31 -42
-31 -7 0 -25 -10 -41 -22 -21 -15 -33 -18 -42 -11 -9 8 -30 3 -73 -18 -33 -16
-70 -29 -82 -29 -17 0 -23 -6 -23 -22 0 -12 -13 -42 -29 -67 -27 -42 -29 -50
-20 -95 5 -26 22 -66 38 -88 23 -31 29 -47 24 -69 -6 -34 6 -52 60 -86 54 -34
88 -113 92 -218 2 -44 4 -85 4 -92 1 -19 52 -74 78 -84 13 -5 52 -13 87 -19
78 -12 123 0 132 37 9 36 -3 93 -25 117 -14 15 -24 53 -36 132 l-17 110 22 44
c19 36 24 41 32 27 5 -10 7 -21 3 -26 -7 -12 12 -24 25 -16 7 4 4 17 -6 35
-16 26 -16 31 1 81 10 30 19 62 20 71 2 26 31 54 125 121 47 34 103 76 124 94
31 26 49 33 82 33 34 0 47 5 66 28 38 45 90 79 167 111 40 16 81 37 90 45 10
9 29 16 42 16 14 0 49 16 79 35 30 19 61 35 69 35 8 0 22 7 32 16 11 10 42 18
80 20 63 4 121 24 261 89 74 34 104 62 95 88 -6 17 2 31 141 242 121 183 176
255 195 255 18 0 187 -83 187 -92 0 -5 61 -38 135 -74 123 -58 306 -122 442
-153 l51 -13 -30 -49 c-30 -47 -31 -52 -23 -121 8 -80 8 -105 -1 -191 -4 -42
-2 -64 9 -80 8 -12 18 -38 22 -57 3 -19 22 -61 41 -92 24 -40 39 -82 50 -140
8 -46 19 -99 24 -118 6 -21 6 -38 0 -44 -11 -11 7 -49 20 -41 5 3 6 21 3 40
-5 29 -3 33 13 29 24 -7 78 -95 93 -151 6 -23 22 -55 35 -70 21 -26 42 -78 38
-96 -1 -4 4 -20 12 -35 8 -16 11 -34 6 -42 -5 -8 -11 -43 -14 -77 -3 -34 -14
-80 -25 -102 -20 -38 -20 -39 -2 -78 34 -69 67 -87 190 -104 50 -7 105 -24
161 -49 124 -57 218 -90 253 -90 17 0 46 -5 64 -12 27 -10 38 -10 54 0 11 7
29 10 40 7 11 -4 26 -2 34 5 7 6 16 7 19 2 7 -12 58 -3 71 12 6 6 23 17 38 24
30 13 33 39 7 53 -8 5 -41 23 -73 40 l-58 31 47 22 c54 25 51 29 -36 65 -30
13 -80 37 -110 53 -56 32 -199 155 -225 195 -13 19 -5 17 64 -18 49 -25 81
-47 84 -59 6 -24 27 -27 27 -4 0 29 -53 66 -180 125 -39 18 -51 32 -87 97 -23
43 -49 106 -58 142 -8 36 -23 86 -32 111 -15 45 -15 47 10 101 l25 56 -40 58
c-37 56 -39 62 -32 109 18 125 19 165 9 286 -6 61 -4 92 5 109 7 12 21 52 31
88 18 65 18 67 -1 130 -11 35 -20 76 -20 91 0 25 -50 142 -80 189 -8 12 -20
22 -27 22 -6 0 -38 17 -70 39 -32 21 -114 76 -183 121 -69 46 -145 99 -170
117 -55 42 -323 203 -338 203 -6 0 -12 -4 -14 -10 -1 -5 -54 17 -116 48 l-114
57 5 45 c3 25 1 112 -5 193 -8 129 -8 153 6 182 21 44 20 53 -8 109 -14 27
-22 54 -19 61 2 8 0 22 -6 33 -7 13 -7 22 1 30 9 9 7 12 -9 12 -18 0 -22 8
-27 58 -14 116 -28 167 -56 203 l-29 36 31 29 c17 16 56 82 88 151 33 68 64
121 72 120 35 -1 46 5 52 28 4 15 21 32 45 45 47 24 75 60 106 140 21 53 22
67 14 132 -5 40 -16 95 -25 121 -15 46 -13 84 4 73 5 -3 18 1 28 9 18 15 18
16 -10 39 -26 21 -28 29 -23 66 3 26 13 47 25 56 11 7 26 30 35 51 8 21 27 49
41 62 25 23 27 24 63 8 21 -9 56 -21 78 -28 22 -6 54 -20 71 -30 17 -11 40
-19 50 -19 11 0 46 -14 78 -30 32 -17 73 -30 90 -30 18 0 59 -9 92 -19 32 -11
75 -22 95 -25 21 -4 42 -13 49 -21 8 -10 32 -15 71 -15 71 0 176 -26 204 -51
11 -10 52 -26 90 -34 38 -9 75 -21 81 -26 7 -6 36 -11 66 -13 29 -2 69 -11 87
-20 23 -12 44 -16 67 -11 20 3 52 0 79 -9 24 -9 94 -20 155 -26 60 -6 121 -15
135 -20 15 -6 42 -10 61 -10 20 0 66 -13 104 -30 38 -16 81 -30 97 -30 39 0
55 -17 42 -43 -16 -28 -2 -83 27 -106 38 -30 79 -35 116 -15 48 26 205 27 277
3 31 -11 88 -20 135 -21 78 -3 81 -2 84 20 l4 24 415 -6 c228 -4 423 -10 432
-15 9 -5 131 -11 271 -15 140 -3 309 -10 375 -15 66 -5 127 -5 135 -1 16 8
123 0 325 -25 190 -23 183 -21 190 -61 3 -19 8 -51 11 -71 7 -48 65 -107 123
-124 37 -11 55 -11 124 4 l80 16 56 -38 c31 -21 70 -46 88 -55 79 -40 165 -4
230 98 19 29 23 46 19 71 l-6 32 58 5 c32 3 73 13 90 22 22 11 58 16 124 16
164 0 374 45 474 102 l52 29 65 -40 c67 -41 198 -86 223 -77 21 8 17 32 -9 49
-12 8 -49 20 -81 27 -32 7 -73 21 -90 32 l-31 19 330 -3 330 -3 3 22 c3 20 10
22 70 25 61 3 67 5 70 26 3 21 1 22 -85 21 -48 0 -217 -6 -376 -12 -188 -8
-286 -9 -284 -2 4 12 50 20 266 43 175 20 207 30 178 60 -11 10 -43 9 -172 -8
-87 -11 -159 -19 -161 -17 -2 1 33 24 77 51 66 39 93 50 151 57 69 9 118 29
118 50 0 20 -35 22 -115 6 -70 -13 -99 -25 -186 -80 -57 -35 -120 -75 -141
-89 -26 -18 -61 -28 -125 -37 l-88 -12 -64 38 -64 38 41 12 c139 40 322 148
322 190 0 39 -65 15 -120 -43 -27 -29 -93 -61 -205 -101 -64 -23 -86 -25 -265
-27 -170 -2 -200 0 -235 16 -26 11 -65 18 -112 18 l-73 0 1 33 c0 17 4 55 9
82 6 38 5 54 -6 66 -8 8 -14 20 -14 26 0 5 -12 20 -26 34 -22 21 -35 24 -97
24 -91 -1 -138 -24 -262 -132 l-90 -78 -75 -1 c-100 0 -140 -28 -140 -99 0
-29 -6 -31 -230 -49 -251 -21 -1816 -29 -1911 -10 -22 4 -27 12 -32 46 -3 22
-11 47 -19 54 -7 7 -67 25 -133 40 -66 14 -123 28 -128 31 -4 2 -2 13 3 24 8
14 7 28 -6 54 -17 37 -24 41 -40 25 -11 -11 -23 -11 -140 -6 -89 5 -158 30
-236 86 -33 24 -50 30 -71 26 -16 -3 -41 1 -57 9 -16 8 -37 15 -47 15 -10 0
-23 8 -30 19 -8 13 -29 21 -70 25 -94 12 -132 25 -173 62 -24 22 -53 37 -77
41 -21 3 -51 12 -67 20 -15 8 -38 12 -49 9 -11 -3 -33 2 -48 10 -17 8 -57 14
-103 14 -72 0 -75 1 -88 28 -12 25 -19 27 -88 33 -84 8 -197 38 -232 62 -13 9
-34 25 -47 34 -13 9 -42 19 -64 22 -33 5 -46 13 -62 38 -12 19 -33 36 -52 42
-43 12 -119 65 -171 117 -27 28 -51 44 -67 44 -22 0 -25 4 -25 35 0 32 4 37
88 86 74 45 410 219 446 232 6 2 9 7 5 10 -3 4 -54 -14 -115 -39 -60 -25 -189
-76 -286 -114 -139 -53 -178 -65 -182 -54 -4 9 4 18 19 24 15 6 25 17 25 29 0
25 121 164 313 358 89 89 158 165 154 169 -4 4 -15 0 -24 -8 -130 -116 -398
-346 -400 -344 -2 1 8 40 22 86 14 46 25 109 25 139 0 54 5 64 125 261 69 113
125 208 125 213 0 16 -26 6 -39 -15 -8 -12 -63 -89 -124 -171 l-110 -149 -40
76 c-42 81 -113 155 -194 203 -25 14 -108 52 -185 84 -80 33 -154 70 -170 86
-45 42 -177 209 -228 287 -48 75 -64 75 -30 -1 l21 -48 -58 58 c-32 31 -65 57
-73 57 -8 0 -25 12 -38 28 l-23 27 6 -25z m-26 -1148 c16 -32 46 -73 65 -90
37 -32 45 -64 30 -118 -5 -20 -58 -44 -96 -44 -8 0 -31 31 -51 69 l-37 70 28
85 c15 47 28 86 29 86 2 0 16 -26 32 -58z m-109 -312 c0 -5 -2 -10 -4 -10 -3
0 -8 5 -11 10 -3 6 -1 10 4 10 6 0 11 -4 11 -10z m6249 -829 c11 -7 12 -13 4
-23 -7 -7 -17 -53 -24 -101 l-12 -87 -79 0 -78 0 0 53 c0 77 36 124 119 153
44 16 52 16 70 5z m732 -327 c33 -15 59 -30 59 -34 0 -11 -149 -30 -237 -30
-66 0 -83 3 -83 14 0 8 -10 22 -21 30 -24 16 -36 13 106 34 96 15 114 13 176
-14z m54 -123 c52 -5 57 -8 40 -18 -38 -21 -210 -62 -307 -72 -85 -10 -158 -7
-158 6 0 13 22 43 32 43 6 0 19 7 28 15 28 26 234 41 365 26z m-7675 -11 c0
-5 -4 -10 -10 -10 -5 0 -10 5 -10 10 0 6 5 10 10 10 6 0 10 -4 10 -10z m27
-96 c-10 -10 -37 16 -37 34 0 13 4 12 22 -5 12 -13 19 -25 15 -29z m6496 -106
c15 -11 25 -24 22 -29 -10 -15 -131 -11 -145 6 -10 12 -6 18 22 34 36 23 56
20 101 -11z m377 14 c0 -10 9 -35 19 -56 18 -35 19 -40 4 -62 -22 -34 -69 -32
-121 6 -23 16 -46 39 -53 51 -10 20 -9 21 12 16 18 -4 36 3 69 28 51 39 70 43
70 17z m-5850 -381 c5 -20 10 -47 9 -61 0 -22 -2 -20 -14 11 -7 19 -22 54 -34
77 -27 54 -27 61 4 32 14 -13 29 -40 35 -59z m-3399 -4 l-23 -22 17 28 c10 15
20 25 23 22 3 -3 -5 -16 -17 -28z m2419 -253 c0 -11 -23 -49 -34 -56 -32 -22
-35 6 -4 39 20 22 38 30 38 17z m-120 -156 c0 -7 -5 -20 -10 -28 -8 -12 -10
-9 -10 13 0 15 5 27 10 27 6 0 10 -6 10 -12z m89 -25 c-5 -21 -9 -42 -9 -46 0
-5 -4 -5 -10 -2 -14 9 -12 72 3 78 23 10 25 7 16 -30z m-748 -1699 c-25 -13
-51 -23 -59 -22 -17 3 65 48 88 48 8 0 -5 -12 -29 -26z m2550 -497 c-8 -8 -11
-3 -11 19 1 25 2 27 11 11 8 -14 8 -22 0 -30z m-2625 -129 c-8 -24 -22 -61
-32 -83 -16 -35 -19 -37 -22 -17 -2 12 6 37 17 56 12 18 21 42 21 53 0 21 8
33 21 33 5 0 2 -19 -5 -42z"/>
</g>
</svg>
