<?xml version="1.0" encoding="utf-8"?>
<!-- Generator: Adobe Illustrator 22.1.0, SVG Export Plug-In . SVG Version: 6.00 Build 0)  -->
<svg version="1.1" id="Layer_1" xmlns="http://www.w3.org/2000/svg" xmlns:xlink="http://www.w3.org/1999/xlink" x="0px" y="0px"
	 viewBox="0 0 1283 970" style="enable-background:new 0 0 1283 970;" xml:space="preserve">
<g transform="translate(0.000000,1280.000000) scale(0.100000,-0.100000)">
	<path d="M3922.2,12648.6c-1.5-18.2,59.1-130.3,289.5-537.3c160.7-282.7,290.2-517.6,287.2-522.1c-10.6-16.7-117.5,3.8-307.7,59.1
		c-40.2,12.1-77.3,8.3-97.8-9.9c-17.4-14.4-6.8-28.8,26.5-35.6c13.6-3,50-12.9,81.1-22.7s85.6-22.7,122-29.6
		c112.2-21.2,142.5-32.6,147.8-56.1c8.3-40.9,29.6-79.6,59.9-112.2c17.4-18.2,35.6-40.9,40.9-51.5c9.1-16.7,8.3-21.2-13.6-47.7
		c-37.9-45.5-29.6-93.2,18.2-105.3c22-5.3,80.3,12.9,106.9,34.1c18.2,14.4,22,14.4,46.2,4.5c14.4-6.1,36.4-19.7,49.3-30.3
		c25-21.2,47.7-23.5,102.3-10.6c69.7,16.7,85.6,26.5,85.6,54.6c0,17.4-6.1,31.1-18.9,43.2c-9.9,9.1-16.7,20.5-14.4,23.5
		c6.8,11.4,50,7.6,112.9-8.3c32.6-8.3,69.7-15.2,83.4-15.2c17.4,0,29.6-6.8,44.7-23.5c22-24.2,73.5-51.5,97.8-52.3
		c7.6,0,25.8-9.1,40.2-20.5c18.2-13.6,34.9-19.7,53-18.9c37.9,1.5,171.3-72.8,210.7-117.5c17.4-20.5,46.2-41.7,72-53
		c41.7-18.9,72.8-22,173.5-17.4c14.4,0.8,34.9-5.3,45.5-12.9c11.4-7.6,27.3-15.2,35.6-17.4s19.7-13.6,25-25
		c15.9-33.3,90.2-62.9,194.8-77.3c20.5-3,42.4-9.1,47.7-12.9c6.8-6.1,15.2-6.1,27.3,0c13.6,6.1,22,5.3,34.9-3.8
		c14.4-10.6,15.9-15.9,11.4-46.2c-3-18.9-9.9-42.4-16.7-51.5c-6.8-10.6-9.1-24.2-6.1-34.9c3-12.1,2.3-14.4-2.3-7.6
		c-5.3,7.6-12.1,1.5-26.5-25c-16.7-28.8-18.9-41.7-15.2-68.2c3.8-27.3,0.8-39.4-19.7-74.3c-24.2-43.2-29.6-70.5-14.4-75
		c14.4-5.3-12.1-66.7-43.2-99.3c-20.5-21.2-25.8-32.6-22.7-45.5c5.3-18.9-12.9-40.2-26.5-31.8c-4.5,3-3.8,12.1,3.8,26.5
		c13.6,27.3,15.2,55.3,1.5,51.5c-11.4-3.8-47-56.1-53.8-79.6c-4.5-12.9-2.3-17.4,6.1-17.4c15.2,0,15.2-9.9,0.8-37.9
		c-12.9-25-49.3-53-68.2-53c-10.6,0-12.1,4.5-8.3,21.2c4.5,18.9,3.8,19.7-6.8,6.1c-6.8-9.1-9.1-22-6.8-32.6
		c3-10.6,0.8-23.5-6.1-31.1c-6.1-6.8-15.2-26.5-19.7-43.2s-15.2-50.8-23.5-75c-9.1-25-15.9-52.3-15.9-61.4s-6.8-25.8-15.2-36.4
		c-21.2-27.3-28.8-115.2-12.9-150c44-93.2,60.6-141.7,59.9-171.3c-2.3-41.7,10.6-48.5,21.2-10.6c4.5,16.7,11.4,32.6,15.9,35.6
		c4.5,2.3,10.6,12.9,15.2,23.5c3.8,9.9,11.4,17.4,16.7,15.9c11.4-4.5,16.7-41.7,6.1-53.8c-3.8-5.3-9.9-28-12.1-50.8
		c-3-22.7-12.1-59.9-20.5-81.8c-15.2-38.6-15.2-40.9-2.3-69.7c14.4-32.6,16.7-27.3-45.5-144c-22-41.7-22.7-53-6.1-82.6
		c13.6-22.7,12.9-22.7-8.3-45.5c-12.9-12.9-26.5-23.5-31.8-23.5c-14.4,0-25.8-18.9-37.9-65.2c-12.9-50.8-21.2-63.7-44-64.4
		c-15.9,0-15.9,0,0.8-6.8c23.5-9.9,30.3-51.5,13.6-83.4c-12.9-25-25-27.3-64.4-12.1c-6.8,3-15.2-1.5-21.2-10.6
		c-8.3-13.6-7.6-15.2,10.6-15.2c12.9,0,21.2-4.5,23.5-14.4c3-12.1,6.8-10.6,29.6,13.6l25.8,27.3l15.2-18.2c18.9-22,18.9-26.5-3-84.9
		c-14.4-40.2-22-50.8-45.5-62.1c-21.2-11.4-34.1-12.9-56.1-7.6c-15.9,3.8-28.8,12.1-30.3,18.9c-1.5,6.1,12.1,26.5,30.3,44.7
		c18.2,17.4,25,26.5,15.9,18.9c-18.9-15.2-45.5-10.6-50,9.1c-1.5,8.3-4.5,5.3-8.3-9.9c-13.6-58.4-24.2-70.5-84.9-98.5
		c-70.5-32.6-103.8-34.1-121.2-7.6c-12.9,19.7-35.6,91.7-49.3,154.6c-3.8,18.2-12.1,43.2-18.2,56.1s-11.4,27.3-11.4,32.6
		c0,13.6-42.4,122-63.7,162.2c-25.8,47.7-35.6,105.3-33.3,193.2c1.5,66.7,0,80.3-15.9,112.9c-42.4,87.1-147,69.7-175.1-29.6
		c-19.7-70.5,2.3-150.8,50.8-181.9c37.9-25,61.4-69,73.5-142.5c21.2-119,39.4-179.6,97.8-319.8c37.9-90.2,42.4-143.2,14.4-172.8
		c-9.1-9.9-16.7-23.5-16.7-29.6c0-6.8-2.3-18.2-4.5-25c-6.1-14.4-75.8-50.8-129.6-66.7c-51.5-15.2-62.1-22-125-72
		c-57.6-46.2-70.5-66.7-59.1-95.5c7.6-21.2,35.6-42.4,55.3-42.4c11.4,0,12.9-3.8,8.3-26.5c-7.6-42.4,0.8-60.6,33.3-73.5
		c26.5-10.6,29.6-13.6,25.8-34.9c-4.5-32.6,20.5-56.1,57.6-53c26.5,2.3,28,1.5,28-21.2c0-26.5,22-56.1,41.7-56.1
		c6.8,0,28,11.4,46.2,25c32.6,25,146.3,96.2,153.1,96.2c2.3,0,12.9-15.2,23.5-33.3s24.2-34.9,30.3-37.1c5.3-2.3,18.9-30.3,30.3-62.9
		c20.5-62.1,21.2-55.3-12.9-115.9c-12.9-23.5-12.9-23.5,3.8-23.5c47.7-0.8,40.2-24.2-10.6-33.3c-18.2-3-29.6-9.9-32.6-19.7
		c-3-8.3-18.9-30.3-36.4-49.3c-52.3-55.3-90.9-100-98.5-115.2c-3.8-7.6-15.9-22.7-26.5-34.1l-18.9-20.5l18.2-6.8
		c9.9-4.5,31.1-12.9,47.7-19.7c15.9-6.8,44-12.1,62.1-12.1c17.4,0,34.1-3,37.1-7.6c3.8-6.8-12.9-55.3-76.5-212.2
		c-49.3-124.3-219.8-453.9-265.2-515.3c-79.6-106.1-82.6-122-31.8-160.7c20.5-15.9,27.3-28,34.9-65.2c9.1-44,12.9-49.3,62.9-94
		c36.4-32.6,64.4-65.9,87.1-104.6c18.2-31.8,41.7-65.2,52.3-74.3s18.9-19.7,18.9-23.5c0-12.9-38.6-184.9-42.4-191.7
		c-3-3.8-14.4-52.3-25.8-106.9c-12.1-55.3-28.8-120.5-37.9-145.5s-19.7-77.3-23.5-116.7c-4.5-39.4-14.4-96.2-22-125
		c-7.6-29.6-16.7-69-19.7-87.9c-2.3-18.9-12.9-49.3-22.7-68.2s-18.2-46.2-18.2-61.4s-5.3-42.4-12.1-60.6
		c-12.1-34.1-15.9-166.7-5.3-183.4c3-5.3,6.1-95.5,7.6-200.8c1.5-208.4,6.8-246.3,47-331.9c16.7-35.6,22.7-60.6,24.2-105.3l3-59.1
		l-30.3-8.3c-34.9-9.9-49.3-31.8-49.3-77.3c0-34.9,15.2-53,50-62.9l22-6.1l-1.5-112.9c-1.5-81.8-6.8-134.9-18.2-189.5
		c-9.1-40.9-18.2-91.7-21.2-112.9c-5.3-36.4-22.7-68.2-81.8-149.3c-11.4-15.9-22.7-28.8-25.8-28.8c-9.1,0-94-72.8-142.5-122
		c-23.5-23.5-54.6-50.8-69-60.6c-56.8-37.9-75.8-67.4-49.3-78.1c13.6-5.3,14.4-35.6,2.3-70.5c-8.3-22.7-7.6-27.3,6.8-40.9
		c14.4-14.4,25-15.9,173.5-17.4c87.1-1.5,178.8-6.8,203.1-11.4c56.1-12.1,128.8-0.8,177.3,27.3c32.6,18.2,44,20.5,119.7,17.4
		c68.2-1.5,158.4,40.9,179.6,85.6c17.4,36.4,17.4,184.9,0,228.9c-6.8,16.7-11.4,42.4-10.6,56.8s2.3,47.7,3,73.5s6.1,51.5,11.4,56.8
		c12.1,12.1,11.4,47.7-3,109.9c-9.1,37.9-10.6,69.7-7.6,119.7c6.8,92.5,15.2,122.8,38.6,147.8c25,25.8,44.7,97.8,38.6,140.2
		c-3.8,24.2,3.8,58.4,40.2,175.1c25,78.8,54.6,167.5,65.2,196.3c87.1,229.6,106.9,307.7,113.7,458.5c3,52.3,8.3,102.3,12.9,111.4
		c5.3,10.6,6.1,42.4,2.3,90.9c-3,40.9-6.1,105.3-6.8,142.5c-0.8,37.9-3.8,82.6-6.8,100c-7.6,38.6,7.6,72.8,39.4,89.4
		c25,12.9,28,19.7,34.9,84.1c6.1,58.4,12.1,68.2,33.3,56.8c13.6-7.6,16.7-6.8,21.2,4.5c36.4,104.6,96.2,244.8,103.8,244.8
		c11.4,0,16.7-15.2,163.7-443.3c58.4-170.5,106.1-320.6,106.1-334.2c0-12.9,12.1-47.7,26.5-75.8c14.4-28.8,26.5-56.8,26.5-62.1
		c0-15.2,100.8-230.4,137.9-294.8c31.1-54.6,45.5-65.9,53.8-44c9.1,22-49.3,344-78.1,434.2c-7.6,23.5-15.9,59.1-18.2,78.8
		c-3,18.9-10.6,39.4-16.7,44c-6.1,5.3-32.6,78.1-59.1,162.2c-113.7,354.7-231.9,735.1-231.9,746.4c0,6.8,34.9,74.3,77.3,149.3
		c43.2,75,110.6,200.1,150,278.1s75.8,141.7,81.1,141.7c12.9,0,15.9-6.1,81.8-181.9c103.1-274.3,158.4-395.6,428.9-939.7
		c106.1-212.9,125.8-246.3,132.6-229.6c2.3,5.3,21.2,36.4,42.4,68.2l37.9,58.4l25.8-29.6c28-33.3,31.8-50,14.4-64.4
		c-22-18.2-12.9-43.2,25.8-75.8c36.4-31.1,41.7-39.4,61.4-102.3c4.5-16.7,22.7-53,38.6-81.1c21.2-36.4,29.6-59.1,29.6-81.1
		c0-34.9,4.5-40.2,75-94.7c41.7-32.6,51.5-44.7,76.5-100c23.5-50.8,35.6-66.7,60.6-83.4c17.4-11.4,47-42.4,65.2-68.2
		c24.2-33.3,41.7-50,59.9-56.1c29.6-9.9,44.7-29.6,56.8-76.5c24.2-88.7,97.8-216,138.7-238c22-11.4,29.6-12.1,53.8-3.8
		c23.5,7.6,30.3,7.6,37.9-0.8c18.9-20.5,65.9-145.5,77.3-202.3c6.1-31.8,14.4-69.7,18.9-82.6c6.1-19.7,5.3-28-3.8-41.7
		c-6.8-9.1-12.1-25-12.1-35.6c0-18.9-55.3-108.4-82.6-132.6c-8.3-8.3-15.9-18.9-15.9-24.2s-15.2-27.3-34.1-48.5
		s-34.9-41.7-34.9-45.5c-0.8-4.5-2.3-10.6-3-15.2c-0.8-3.8-2.3-10.6-3-14.4c0-3.8-30.3-38.6-65.9-78.1
		c-100-107.6-139.4-156.9-139.4-174.3c0-8.3,9.9-25,22.7-36.4c12.1-11.4,22.7-26.5,22.7-32.6s15.9-22,35.6-34.1
		c31.8-20.5,47-24.2,123.5-31.1c138.7-12.9,314.5-7.6,391.8,11.4c15.2,3.8,62.9,60.6,129.6,153.8c34.1,47,88.7,156.1,100,197.8
		c4.5,18.9,18.9,44.7,30.3,56.8c29.6,31.1,67.4,113.7,75.8,166.7c5.3,33.3,4.5,53.8-3,82.6c-6.1,21.2-12.9,60.6-15.9,87.9
		c-7.6,78.1-15.9,103.1-78.1,224.3l-57.6,115.2l9.1,44.7c12.1,59.1,11.4,89.4-3,139.4c-23.5,83.4-40.2,104.6-59.9,77.3
		c-8.3-11.4-9.9-11.4-17.4,3c-5.3,9.1-17.4,59.9-27.3,112.9c-55.3,289.5-65.9,338-84.9,393.3c-10.6,33.3-29.6,82.6-41.7,109.1
		s-22,53-22,59.1s-6.8,21.2-15.2,32.6c-12.9,17.4-13.6,25-6.8,40.2s4.5,28-12.9,72.8c-18.9,47.7-28.8,61.4-79.6,106.9
		c-55.3,50.8-84.9,64.4-91.7,44c-3-7.6-7.6-7.6-22-1.5c-30.3,14.4-108.4,86.4-122.8,113.7c-6.8,14.4-23.5,33.3-36.4,42.4
		c-12.9,9.9-29.6,29.6-37.1,44c-13.6,26.5-68.2,199.3-68.2,215.2c0,5.3,20.5,28.8,46.2,53.8c27.3,27.3,56.1,65.2,71.2,94.7
		c22,43.2,31.1,53,65.9,71.2c47.7,25.8,81.8,56.1,81.8,72.8c0,12.9-21.2,57.6-44,91.7c-81.1,124.3-203.9,385-404.7,863.1
		c-3.8,10.6-12.1,29.6-17.4,41.7c-6.1,12.9-33.3,77.3-61.4,144c-50,118.2-51.5,123.5-56.1,200.8c-3.8,78.1-4.5,80.3-40.2,141
		c-23.5,40.2-35.6,69.7-35.6,87.1c0,23.5-44.7,168.2-60.6,197.8c-4.5,7.6-7.6,27.3-7.6,44.7c0,16.7-9.9,55.3-23.5,86.4
		c-18.9,45.5-22,62.1-18.2,89.4c5.3,31.8,4.5,33.3-25.8,53c-16.7,11.4-32.6,28-34.1,37.9c-25.8,136.4-23.5,181.1,9.9,197.8
		c21.2,11.4,23.5,29.6,12.1,105.3c-3.8,23.5-3,35.6,2.3,35.6c9.1,0,21.2,55.3,18.2,85.6c-2.3,17.4,1.5,22.7,22.7,31.8
		c55.3,24.2,67.4,44,66.7,108.4c0,22.7,13.6,48.5,23.5,43.2c3.8-3,6.8-22.7,6.8-45.5s3.8-43.2,8.3-45.5c5.3-3.8,6.1,18.2,2.3,71.2
		l-5.3,76.5l27.3,11.4c15.2,6.1,29.6,11.4,31.8,11.4s3.8-14.4,3.8-31.8c0-37.1,6.8-66.7,15.2-66.7c3,0,9.1,9.1,14.4,20.5
		c6.1,13.6,11.4,17.4,15.2,11.4c7.6-12.9,41.7,108.4,34.9,125c-4.5,11.4-6.8,9.1-12.1-10.6c-7.6-25.8-21.2-40.2-22.7-23.5
		c-3.8,38.6,3.8,88.7,16.7,106.1c7.6,11.4,14.4,25.8,14.4,31.8c0,16.7,15.2,22.7,15.9,6.8c0.8-12.9,1.5-12.9,4.5,0
		c5.3,18.9,16.7,15.9,22-6.1c3.8-16.7,0.8-32.6-15.9-73.5c-10.6-27.3,9.1-12.9,21.2,15.2c18.9,43.2,27.3,82.6,31.8,151.6
		c3.8,62.9,19.7,109.1,44,128.8c15.9,13.6,21.2-11.4,10.6-50.8c-6.1-22.7-6.1-33.3,0-39.4c6.8-6.8,9.9-1.5,13.6,20.5
		c11.4,65.9,37.1,106.9,44,69.7c1.5-9.9,3.8,6.1,4.5,34.9c0.8,44,5.3,62.1,28,108.4c15.2,31.1,25.8,57.6,23.5,59.9
		c-2.3,3-9.9-8.3-16.7-23.5c-6.1-15.9-13.6-26.5-15.9-24.2c-6.8,6.8,14.4,74.3,22.7,71.2c15.2-5.3,40.2,31.1,53,77.3
		c6.8,27.3,25,70.5,39.4,97c50.8,89.4,47.7,179.6-10.6,353.9l-28,82.6l-45.5,27.3c-43.2,25.8-56.1,42.4-91.7,112.9
		c-2.3,4.5-2.3,21.2,0,36.4c3.8,18.9,11.4,28.8,25.8,34.9c34.9,15.2,62.1,44.7,62.1,69c0,28-10.6,47.7-44,83.4
		c-27.3,28-27.3,28-17.4,60.6c5.3,17.4,15.9,57.6,23.5,88.7s17.4,72,22,90.9c17.4,72.8,38.6,176.6,38.6,191.7
		c0,9.1,8.3,32.6,18.9,52.3c14.4,27.3,18.9,47,18.9,84.1c0,34.9,3,51.5,11.4,58.4c9.9,8.3,11.4,26.5,7.6,116.7
		c-6.1,147.8-17.4,181.1-94,267.5c-68.2,77.3-100.8,103.8-135.6,111.4c-13.6,3-27.3,11.4-31.1,18.9c-4.5,7.6-20.5,17.4-37.1,22
		c-15.9,5.3-38.6,17.4-50,28s-26.5,18.9-34.1,18.9s-26.5,5.3-40.9,11.4c-16.7,6.8-56.8,12.1-106.9,12.9c-68.2,1.5-81.8,0-94.7-12.1
		c-11.4-10.6-22-12.9-42.4-9.1c-23.5,4.5-27.3,3-33.3-12.1c-4.5-12.1-16.7-20.5-41.7-27.3c-27.3-6.8-37.1-13.6-43.2-30.3
		c-10.6-27.3-58.4-75.8-87.1-88.7c-12.9-5.3-34.9-24.2-49.3-42.4c-36.4-46.2-103.8-111.4-137.2-132.6
		c-31.8-20.5-156.1-168.2-157.6-187.2c-0.8-20.5-121.2-164.4-137.2-164.4c-3,0-16.7,15.2-30.3,34.1
		c-28.8,40.2-90.2,83.4-154.6,108.4c-25,9.9-77.3,32.6-115.9,51.5c-38.6,18.2-74.3,33.3-78.8,33.3c-3.8,0-18.2,11.4-30.3,25
		c-22,23.5-25.8,24.2-90.2,26.5c-36.4,1.5-119.7-3-184.1-9.9c-87.1-9.1-125-10.6-143.2-4.5c-12.9,4.5-45.5,11.4-72,15.2
		c-27.3,4.5-75,20.5-112.9,39.4c-62.9,30.3-65.9,31.1-96.2,21.2c-16.7-5.3-42.4-9.1-56.1-7.6c-17.4,1.5-31.1-3-41.7-12.9
		c-18.9-16.7-68.2-25.8-141.7-27.3l-49.3-0.8l-14.4-28.8c-17.4-35.6-5.3-38.6-203.9,41.7c-147.8,59.9-155.4,61.4-216.7,62.1
		l-64.4,0.8l-294,439.5c-162.2,241.7-304.6,451.7-316.8,466.8s-37.9,38.6-58.4,51.5C3940.4,12680.4,3925.2,12679.6,3922.2,12648.6z
		 M6916.3,11696c15.2,14.4,20.5,16.7,20.5,8.3c0-14.4-28-41.7-35.6-34.1C6898.1,11672.5,6904.9,11684.6,6916.3,11696z
		 M6807.9,11614.1c8.3,10.6,15.2,15.2,15.2,10.6c0-10.6-20.5-37.9-25-33.3C6795.8,11593.7,6800.4,11603.5,6807.9,11614.1z
		 M6785.2,11577.8c0-10.6-37.9-49.3-43.2-44c-3,3,1.5,13.6,9.9,25C6767.8,11580,6785.2,11589.9,6785.2,11577.8z M7831,10407.7
		c18.9-30.3,40.9-103.8,34.1-110.6c-6.1-6.1-33.3,28.8-34.1,44c0,6.1-6.8,25-15.2,41.7s-14.4,34.9-15.2,40.2
		C7800.7,10440.3,7815.8,10432,7831,10407.7z M5927.4,9988.6c6.1,18.2,8.3,19.7,8.3,6.1c0.8-9.1,3-21.2,5.3-27.3s-3-17.4-10.6-25
		c-8.3-8.3-16.7-22.7-18.2-32.6c-0.8-10.6-6.8-19.7-12.1-22c-12.9-3.8-4.5,49.3,9.9,66.7C5915.2,9960.6,5922.8,9976.5,5927.4,9988.6
		z M7838.6,9897.7c0-15.9-16.7-49.3-24.2-49.3c-3.8,0-5.3,6.8-3,15.2s6.8,22,9.1,30.3C7824.9,9911.3,7838.6,9914.4,7838.6,9897.7z
		 M7721.1,9878.8c9.1,0,11.4-12.9,11.4-63.7c0-70.5-8.3-103.1-26.5-103.1c-17.4,0-19.7,78.1-3.8,137.2
		C7706.7,9866.6,7715,9878.8,7721.1,9878.8z M5937.2,9781.8c-0.8-32.6-20.5-40.2-39.4-15.9c-15.2,19.7-19.7,69-6.1,65.9
		c4.5-1.5,14.4,7.6,21.2,19.7C5938,9896.2,5941.8,9886.3,5937.2,9781.8z M5941.8,9736.3c7.6,15.9,9.1,15.9,13.6,4.5
		c7.6-19.7-1.5-41.7-12.9-30.3C5936.5,9716.6,5936.5,9724.2,5941.8,9736.3z M5885.7,9706.7c8.3-7.6,6.1-40.2-2.3-40.2
		c-4.5,0-7.6,10.6-7.6,22.7C5875.8,9712.8,5877.3,9715.8,5885.7,9706.7z M7687,9670.4c9.9,6.1,9.9-18.9,0-34.1
		c-6.1-9.1-7.6-6.8-7.6,9.1C7679.4,9656.7,7682.5,9668.1,7687,9670.4z M5823.5,9021.7c6.1,1.5,7.6-1.5,3-11.4
		c-3-8.3-7.6-24.2-10.6-36.4s-9.1-23.5-14.4-25.8c-11.4-3.8-11.4,3,1.5,40.2C5809.1,9004.2,5818.2,9019.4,5823.5,9021.7z
		 M5565.1,8545c3.8,0,7.6-3,7.6-7.6c0-3.8-3.8-7.6-7.6-7.6c-4.5,0-7.6,3.8-7.6,7.6C5557.6,8542,5560.6,8545,5565.1,8545z"/>
	<path d="M7588.5,9359.6c-4.5-2.3-7.6-11.4-7.6-19.7s3-12.9,7.6-10.6c3.8,2.3,7.6,11.4,7.6,19.7S7592.3,9361.9,7588.5,9359.6z"/>
</g>
</svg>
