<?xml version="1.0" standalone="no"?>
<!DOCTYPE svg PUBLIC "-//W3C//DTD SVG 20010904//EN"
 "http://www.w3.org/TR/2001/REC-SVG-20010904/DTD/svg10.dtd">
<svg version="1.0" xmlns="http://www.w3.org/2000/svg"
 width="1280.000000pt" height="960.000000pt" viewBox="0 0 960.000000 1280.000000"
 preserveAspectRatio="xMidYMid meet">
<g transform="translate(0.000000,1280.000000) scale(0.100000,-0.100000)"
fill="#000000" stroke="none">
<path d="M6553 12503 c-7 -2 -17 -22 -23 -43 -13 -50 4 -139 71 -355 84 -271
120 -438 143 -667 11 -104 -22 -83 -98 62 -71 137 -121 306 -201 680 -43 203
-71 243 -143 206 -36 -19 -55 -63 -88 -207 -72 -318 -103 -663 -125 -1354 -16
-509 -3 -956 41 -1397 11 -109 20 -202 20 -208 0 -19 -30 -10 -95 30 -212 130
-403 189 -610 190 -66 1 -142 15 -162 32 -10 8 -3 17 29 37 24 15 51 30 61 34
82 31 24 361 -85 483 -75 84 -97 136 -143 339 -12 55 -30 145 -40 200 -27 155
-51 248 -89 342 -51 125 -91 187 -176 274 -123 125 -255 190 -419 209 -97 11
-154 2 -184 -28 -16 -17 -24 -18 -49 -10 -51 18 -182 4 -243 -26 -171 -84
-277 -309 -321 -681 -8 -71 -23 -197 -33 -280 -13 -111 -16 -170 -9 -225 4
-41 11 -140 14 -219 6 -139 7 -145 33 -167 14 -13 35 -26 46 -30 11 -3 49 -34
85 -69 66 -63 120 -90 120 -60 0 20 12 19 73 -9 104 -47 126 -55 129 -46 2 5
24 -10 49 -34 52 -49 89 -127 72 -155 -31 -51 -260 -134 -373 -135 -66 -1 -88
4 -185 43 -126 50 -238 75 -410 91 -161 15 -284 41 -473 101 -86 27 -233 70
-327 95 -240 66 -295 97 -295 170 0 17 16 98 35 180 19 82 50 237 70 344 44
238 75 375 116 500 60 184 103 243 216 297 39 18 86 55 142 111 50 50 87 80
92 75 10 -10 -8 -109 -35 -198 -19 -61 -20 -106 -2 -55 15 40 41 51 49 20 3
-11 10 -20 16 -20 14 0 14 17 1 25 -15 9 -12 72 9 151 22 85 27 95 46 88 15
-6 64 42 65 62 0 6 7 18 16 25 9 7 20 23 25 36 4 12 19 25 31 28 13 2 453 81
978 175 1041 186 1397 255 1534 295 101 29 269 112 263 129 -18 55 -234 56
-582 2 -132 -21 -656 -106 -1165 -191 -509 -84 -941 -155 -960 -157 -28 -2
-35 1 -38 17 -6 36 -25 65 -44 65 -24 0 -23 11 7 115 28 97 47 139 78 173 31
34 7 26 -31 -10 l-35 -33 6 55 c8 75 -6 40 -44 -115 -34 -134 -75 -221 -127
-267 -34 -29 -36 -30 -48 -12 -28 40 -36 44 -87 44 -29 0 -91 11 -138 25 -98
29 -118 30 -145 10 -10 -8 -30 -15 -44 -15 -16 0 -40 -16 -68 -45 -40 -41 -45
-52 -54 -118 -13 -91 -22 -103 -55 -77 -31 24 -90 26 -121 4 -28 -19 -42 -11
-42 26 0 59 -26 44 -74 -43 -32 -58 -32 -70 -4 -91 15 -11 19 -19 11 -22 -7
-3 -24 -14 -38 -26 -23 -18 -25 -25 -20 -66 11 -91 24 -104 53 -51 9 18 27 43
39 58 17 21 24 24 34 14 27 -26 106 -8 138 31 18 22 31 20 31 -4 0 -32 -57
-170 -90 -219 -17 -24 -35 -63 -42 -85 -6 -23 -73 -197 -149 -388 -176 -442
-191 -486 -245 -703 -107 -429 -79 -484 356 -694 339 -162 577 -257 940 -374
326 -106 435 -161 593 -300 69 -62 102 -123 81 -151 -5 -7 -24 -32 -41 -56
-37 -49 -44 -102 -16 -132 14 -16 15 -27 5 -100 -16 -109 -15 -170 2 -261 25
-127 79 -211 182 -279 98 -65 127 -100 173 -213 55 -132 82 -168 175 -240 66
-51 89 -77 152 -175 41 -63 81 -137 90 -165 17 -58 33 -201 34 -295 0 -36 7
-96 15 -134 13 -61 13 -73 1 -92 -14 -20 -13 -22 10 -32 13 -7 24 -18 24 -27
0 -20 -17 -19 -29 3 -10 16 -10 15 -10 -3 0 -11 13 -38 29 -59 17 -22 30 -52
30 -68 0 -40 -57 -99 -165 -171 -352 -235 -670 -534 -932 -877 -240 -314 -599
-844 -658 -971 -38 -83 -59 -190 -52 -273 7 -91 39 -178 109 -296 79 -132 108
-200 167 -392 29 -92 74 -227 101 -301 55 -150 285 -911 321 -1057 16 -69 23
-127 23 -210 1 -109 -1 -118 -29 -170 -36 -67 -254 -288 -371 -376 -49 -37
-117 -76 -170 -98 -106 -44 -221 -133 -216 -169 6 -57 100 -82 177 -48 40 18
53 19 96 10 98 -21 179 6 369 124 94 59 217 92 397 106 209 17 312 66 333 157
14 57 -4 136 -60 279 -104 265 -138 501 -160 1090 -16 449 -26 541 -81 711
-40 124 -67 183 -159 349 -95 170 -106 205 -82 254 21 46 145 176 239 252 116
93 302 216 533 354 277 166 405 248 620 401 335 239 515 345 539 318 5 -5 2
-54 -5 -109 -23 -178 -53 -633 -59 -915 -13 -571 40 -1095 129 -1275 71 -143
173 -227 411 -340 171 -81 260 -139 450 -292 250 -201 370 -308 609 -543 247
-243 377 -390 428 -485 28 -52 33 -70 33 -131 0 -65 -4 -79 -47 -165 -86 -171
-169 -281 -246 -326 -26 -15 -98 -60 -160 -101 -93 -60 -112 -77 -112 -97 0
-26 48 -65 79 -65 8 0 27 -12 43 -27 24 -22 31 -25 51 -16 19 9 28 8 40 -4 24
-24 68 -19 92 11 27 34 36 33 29 -3 -5 -23 -2 -32 16 -41 19 -10 27 -9 51 9
35 26 37 26 41 -1 4 -34 47 -35 93 -4 21 15 48 26 60 26 38 0 129 75 190 157
102 136 186 222 307 314 142 109 174 153 165 230 -11 88 -89 208 -242 369
-133 142 -344 444 -628 901 -180 290 -217 341 -327 449 -106 105 -214 184
-378 277 -202 114 -233 136 -262 178 -102 150 -88 345 76 1029 30 127 80 339
110 471 66 291 144 594 179 694 40 118 58 233 58 366 -1 186 -34 320 -128 510
-54 109 -100 174 -267 380 -61 75 -88 117 -90 139 -2 24 -11 35 -39 50 -20 11
-49 40 -65 65 -44 69 -221 304 -318 421 -149 180 -177 269 -157 495 12 135 65
439 82 472 6 11 8 26 5 32 -8 12 19 68 35 73 9 3 8 19 -2 63 -18 83 -16 246 5
325 30 117 68 145 157 116 63 -21 351 -155 360 -168 3 -4 22 -124 43 -266 21
-141 44 -281 52 -309 17 -62 30 -66 86 -28 57 39 58 38 73 -56 9 -62 100 -129
175 -129 40 0 39 18 -5 150 -19 58 -33 110 -31 117 3 7 33 27 68 44 108 54
142 82 280 230 15 16 21 16 70 3 62 -16 202 -18 278 -4 29 6 69 22 88 36 54
42 66 82 59 200 -7 124 -38 223 -108 346 -27 49 -49 93 -49 99 0 7 27 96 61
198 84 258 182 604 209 741 14 69 24 154 24 212 1 126 -6 134 -106 130 -93 -3
-127 9 -178 64 -77 83 -189 362 -206 508 -7 66 13 130 42 134 12 2 52 -18 98
-50 152 -104 172 -112 205 -79 34 34 28 95 -14 157 -35 51 -36 52 -26 113 12
75 5 99 -50 158 l-40 44 7 78 6 78 -51 57 -51 56 0 70 c0 38 -5 80 -12 94 -9
21 -8 33 7 65 14 33 16 54 11 112 -12 119 -53 179 -122 179 -17 0 -53 22 -100
60 -41 34 -86 66 -100 72 -16 7 -37 35 -55 70 -29 58 -52 78 -88 78 -11 0 -26
10 -32 23 -25 49 -61 77 -99 77 -20 0 -45 7 -56 15 -19 15 -39 17 -61 8z
m-1548 -2484 c8 -28 23 -61 35 -76 17 -22 20 -40 20 -141 l0 -116 35 50 c24
33 35 60 35 84 1 33 2 34 15 16 21 -28 19 -62 -10 -146 -14 -40 -25 -75 -25
-78 0 -2 10 -2 22 1 12 4 28 1 35 -5 18 -14 -23 -87 -53 -94 -33 -8 -163 50
-230 104 -112 89 -140 196 -90 350 27 87 39 101 103 117 63 16 88 1 108 -66z
m-1108 49 c4 -7 20 -44 34 -83 14 -38 34 -87 43 -107 23 -54 4 -47 -45 15 -65
81 -97 168 -66 180 20 9 25 8 34 -5z m1403 -498 c0 -24 -30 -79 -47 -88 -21
-11 -94 7 -100 24 -3 10 41 36 107 63 33 13 40 13 40 1z m-1620 -1298 c0 -23
-26 -59 -36 -50 -8 9 15 68 27 68 5 0 9 -8 9 -18z m384 -949 c32 -35 86 -135
86 -159 -1 -16 -5 -13 -25 11 -13 17 -31 38 -40 48 -8 9 -15 23 -15 31 0 8
-12 28 -26 45 -14 17 -23 35 -19 41 9 14 11 13 39 -17z"/>
</g>
</svg>
