<?xml version="1.0" standalone="no"?>
<!DOCTYPE svg PUBLIC "-//W3C//DTD SVG 20010904//EN"
 "http://www.w3.org/TR/2001/REC-SVG-20010904/DTD/svg10.dtd">
<svg version="1.0" xmlns="http://www.w3.org/2000/svg"
 width="1280.000000pt" height="970.000000pt" viewBox="0 0 1280.000000 1280.000000"
 preserveAspectRatio="xMidYMid meet">
<g transform="translate(0.000000,1280.000000) scale(0.100000,-0.100000)"
fill="#000000" stroke="none">
<path d="M5973 12422 c-24 -15 -60 -239 -74 -462 -5 -80 -13 -185 -19 -235 -8
-70 -18 -378 -20 -632 0 -16 -8 -23 -32 -28 -36 -8 -222 -107 -253 -135 -11
-9 -30 -23 -42 -29 -13 -6 -32 -28 -42 -49 -11 -20 -34 -46 -51 -57 -45 -28
-54 -50 -35 -79 13 -20 14 -31 5 -67 -6 -24 -14 -89 -18 -144 l-7 -100 -54 -3
-53 -3 7 -32 c14 -65 17 -311 5 -392 -15 -97 -24 -115 -54 -115 -31 0 -76 -36
-76 -62 0 -18 4 -19 50 -13 48 7 50 6 50 -17 1 -47 36 -164 57 -194 23 -32 69
-52 84 -37 5 5 16 57 25 116 17 105 26 127 39 87 3 -11 22 -42 41 -69 19 -28
34 -53 34 -56 0 -13 -166 -193 -224 -243 -42 -36 -77 -57 -116 -68 -30 -9 -77
-25 -103 -35 -37 -14 -49 -15 -53 -6 -2 7 18 489 46 1071 48 1005 60 1394 39
1221 -7 -57 -40 -696 -116 -2209 -6 -127 -7 -130 -38 -165 -59 -68 -75 -94
-70 -112 3 -10 -5 -39 -18 -66 -34 -66 -74 -191 -88 -268 -8 -48 -8 -87 0
-146 18 -132 14 -216 -10 -255 -11 -19 -26 -34 -33 -34 -22 0 -49 -39 -57 -83
-10 -59 -86 -265 -104 -284 -19 -18 -19 -36 0 -73 16 -31 11 -80 -11 -115 -7
-11 -18 -40 -24 -65 -6 -25 -27 -68 -46 -97 -52 -76 -74 -142 -74 -222 0 -112
54 -251 116 -300 43 -34 134 -63 195 -63 120 0 239 85 275 195 9 29 20 56 24
60 4 4 35 -42 70 -102 35 -61 93 -147 129 -192 36 -45 74 -93 84 -105 18 -23
18 -26 -3 -100 -42 -155 -196 -481 -340 -719 -189 -314 -313 -594 -420 -950
-58 -193 -71 -260 -60 -306 15 -66 18 -69 72 -69 l51 0 -6 -42 c-4 -24 -13
-88 -22 -143 -8 -55 -15 -121 -15 -147 0 -41 3 -48 23 -52 12 -3 58 -12 101
-20 44 -9 83 -20 86 -27 4 -6 10 -55 14 -108 6 -92 13 -141 65 -469 21 -130
43 -194 75 -221 9 -8 16 -20 16 -28 0 -12 -6 -13 -27 -8 -81 22 -92 -5 -40
-93 19 -31 71 -129 115 -218 101 -202 166 -315 306 -529 155 -239 224 -378
265 -540 34 -134 49 -172 75 -194 20 -17 20 -43 2 -101 -92 -285 -128 -364
-191 -426 -45 -43 -46 -46 -44 -99 2 -37 -3 -65 -16 -88 -12 -23 -16 -43 -11
-61 10 -42 61 -58 206 -64 109 -4 144 -1 270 23 80 15 250 56 378 91 128 35
250 66 270 69 20 3 64 11 98 16 67 12 253 -4 265 -22 7 -12 -3 -63 -26 -134
-12 -37 -15 -68 -10 -120 4 -52 1 -92 -14 -155 -10 -47 -22 -127 -24 -178 -6
-92 -6 -93 19 -102 14 -6 40 -10 58 -10 44 0 50 -9 24 -37 -27 -29 -19 -48 33
-78 31 -18 52 -20 244 -20 230 1 289 9 386 55 50 23 66 38 100 91 23 34 45 73
50 86 10 28 18 31 184 73 229 58 284 69 595 120 350 58 617 106 674 121 29 8
36 13 26 19 -21 13 -11 18 71 41 41 12 155 44 254 72 168 47 190 51 330 57
146 7 152 8 227 43 54 26 90 37 123 37 49 0 74 9 117 46 33 26 37 27 343 59
272 29 640 74 884 110 92 13 274 38 406 55 132 18 242 34 245 37 3 3 -20 3
-50 0 -64 -7 -95 4 -62 22 12 6 26 29 32 51 6 21 14 41 19 44 4 3 6 18 3 34
-3 26 -10 31 -55 43 -57 15 -72 39 -36 55 21 10 19 12 -25 38 -44 26 -47 29
-32 44 8 9 30 21 48 26 18 6 39 23 48 39 14 27 14 29 -13 52 -56 49 -121 60
-362 60 -136 -1 -248 -6 -293 -14 -72 -13 -74 -14 -67 -40 11 -46 27 -51 159
-45 115 5 163 -3 142 -23 -4 -4 -89 -6 -189 -3 -100 2 -209 3 -242 3 -33 -1
-312 -4 -620 -6 -447 -4 -584 -8 -680 -22 -66 -9 -205 -20 -310 -25 -331 -16
-960 -101 -994 -135 -11 -11 -7 -16 28 -34 22 -12 41 -26 41 -31 0 -14 -14
-16 -330 -50 -278 -30 -872 -111 -954 -130 -23 -5 -55 -10 -73 -10 -29 0 -33
4 -45 43 -6 23 -13 74 -14 112 0 39 -6 90 -12 115 -25 98 -26 380 -2 705 12
170 26 317 31 326 4 9 8 41 8 70 0 30 6 89 15 131 56 286 45 388 -74 716 l-23
62 65 68 c36 37 84 97 107 133 45 72 61 81 126 72 l42 -5 6 53 c2 30 2 87 -1
127 -3 42 0 102 8 142 11 60 11 75 -4 119 -9 27 -19 99 -22 158 -3 59 -12 155
-21 213 -11 76 -13 128 -7 190 14 143 -4 320 -57 564 l-31 138 16 92 c9 51 30
213 47 362 29 252 31 284 25 494 -4 124 -9 248 -12 275 l-6 51 68 79 c123 143
232 303 303 443 22 43 38 63 54 66 12 2 53 9 91 16 88 14 184 58 218 99 32 38
42 82 35 159 -9 99 -66 324 -104 407 l-36 80 -8 230 c-5 174 -12 257 -29 340
-114 572 -452 994 -931 1163 -168 59 -266 75 -464 77 l-180 1 0 64 c0 36 3 85
5 110 5 44 4 45 -25 48 -78 7 -78 7 -71 71 4 32 2 99 -4 149 -9 68 -8 96 0
113 10 18 9 26 -9 48 -12 14 -34 46 -49 70 -42 67 -97 125 -160 167 -31 22
-70 49 -85 61 -15 12 -45 27 -66 33 l-38 10 4 373 c2 204 6 377 8 383 2 7 0
136 -5 287 -9 298 -16 335 -57 309z m-256 -8410 c43 -31 96 -69 118 -84 22
-15 82 -62 134 -105 74 -61 104 -94 137 -150 40 -68 163 -203 185 -203 6 0 26
-12 45 -26 28 -22 34 -33 34 -64 0 -64 20 -188 42 -259 11 -36 62 -160 113
-276 272 -615 377 -1067 306 -1310 -24 -82 -26 -132 -6 -159 30 -40 24 -42
-158 -56 -76 -6 -248 -31 -383 -55 -135 -25 -254 -45 -265 -45 -22 0 -24 21
-5 58 7 15 57 140 110 277 104 272 141 399 132 448 -8 38 -178 221 -243 261
-28 17 -45 35 -49 54 -3 15 -12 43 -20 62 -57 140 -104 658 -75 825 14 81 9
123 -26 208 -60 148 -120 241 -223 349 -38 40 -70 77 -70 81 0 13 51 210 56
219 11 17 35 6 111 -50z m5769 -2343 c3 -6 2 -15 -4 -21 -6 -6 -6 -19 1 -38 9
-23 20 -31 59 -40 48 -12 77 -33 60 -44 -12 -7 -120 -24 -232 -36 -47 -4 -112
-16 -145 -24 -36 -10 -104 -16 -175 -17 -63 0 -124 -4 -135 -9 -11 -5 -14 -9
-7 -9 24 -2 11 -21 -14 -21 -19 0 -25 4 -21 15 4 8 2 17 -3 20 -17 11 -164
-15 -172 -29 -5 -8 -25 -20 -45 -27 -33 -10 -35 -13 -18 -20 11 -4 34 -8 52
-8 40 -1 52 -18 21 -30 -29 -12 -278 -42 -289 -35 -5 3 -2 18 6 33 8 16 19 57
24 92 13 82 35 100 155 129 50 12 116 30 146 40 36 12 117 22 234 29 167 11
279 27 351 50 42 13 142 13 151 0z m-3811 -448 c69 -18 364 -59 500 -71 72 -6
171 -15 220 -21 50 -5 168 -13 263 -16 95 -3 175 -9 177 -14 13 -20 -66 -47
-187 -63 -255 -33 -339 -55 -458 -121 -54 -30 -288 -108 -385 -129 -84 -17
-309 -40 -329 -33 -7 3 -21 38 -31 79 -10 40 -23 82 -30 93 -17 28 -73 203
-81 256 -5 30 -3 44 7 51 17 11 278 3 334 -11z"/>
</g>
</svg>
