<?xml version="1.0" encoding="utf-8"?>
<!-- Generator: Adobe Illustrator 22.1.0, SVG Export Plug-In . SVG Version: 6.00 Build 0)  -->
<svg version="1.1" id="Layer_1" xmlns="http://www.w3.org/2000/svg" xmlns:xlink="http://www.w3.org/1999/xlink" x="0px" y="0px"
	 viewBox="0 0 342 267.8" style="enable-background:new 0 0 342 267.8;" xml:space="preserve">
<path d="M103,219.2c4.1-6.5,8.3-12.9,12.4-19.4c3.2-5.1,6.2-10.3,6.5-16.6c0-0.6,1.6-1.8,2.1-1.7c2.3,0.6,3.3-0.5,2.9-2.4
	c-1.1-5.7,1.7-10,5.1-13.9c3.5-4.1,4.9-8.9,5.5-14.1c0.6-6.2,3.6-11.3,6.9-16.4c1.1-1.7,2-3.8,2-5.7c-0.1-6.6,1.5-12.2,5.4-17.9
	c3.3-4.8,3.9-11.4,6.1-17.1c1-2.5,2.8-4.7,4.3-7c1-1.5,2.1-3,3.2-4.5c1.9-2.8,3.4-5.6,7.6-6c2.9-0.3,4.5-6,2.7-8.6
	c-1.3-1.8-2.6-3.6-4.3-5c-3.8-3.2-4.5-7.5-5.4-12c-0.8-4.3,1.1-9.3-3.3-12.8c-0.5-0.4-0.2-2.5,0.2-3.5c2.2-4.7,4.2-9.6,7.1-14
	c3-4.7,7.5-5.6,12.2-3.9c1.4,0.5,3.3-0.5,4.9-0.8c0.1-0.4,0.2-0.9,0.3-1.3c-1.4-1.7-2.8-3.5-4.6-5.6c1.8-0.3,2.9-0.5,4.6-0.8
	c-0.5-2.3-1-4.5-1.4-6.4c3.3,2.1,6.9,4.3,10.4,6.6c0.6,0.4,1.2,1.5,1.2,2.3c-0.3,5.4-0.7,10.8-1.2,17c-1.8-1.7-2.8-2.7-3.8-3.6
	c-0.3,0.1-0.6,0.3-0.9,0.4c0.3,3,0.3,6,0.8,8.9c1.3,7.7,1.4,15.2-3.2,22c-3.4,5-4.1,10.1-0.1,15.3c5.8-1,11.4,2.8,13.7,9.2
	c4.9,13.6,3.8,27.1-1.1,40.3c-2.6,7-5.9,13.7-8.6,20.6c-1.3,3.5-1.9,7.3-2.9,11.2c5.3,1.3,7.4,4.2,7.5,9.1c0,1.6,1.4,3.3,2.4,4.8
	c10,15.8,20.2,31.5,30,47.5c3.3,5.4,5.7,11.3,8.2,17.1c0.7,1.7,0.5,3.8,0.2,6c-9.7-9.3-12.8-23.2-23.1-32.7c-1.5,3.9-3.1,6.8-1.9,11
	c3.3,10.9,6,21.9,8.6,32.9c1,4.3-0.5,8.5-2.7,12.3c-1.7,2.9-3.6,5.8-5.3,8.8c-8,0-16,0-24,0c-3-0.8-6-1.4-9-2.3
	c-1.1-0.4-2.5-1.2-3-2.3c-1.5-3.2-2.4-6.6-3.8-9.9c-1.9-4.6-4.1-9-6.4-14.1c-2.6,10.2-4.8,19.4-7.1,28.5c-11.5,0-23,0-34.5,0
	c-1.2-5.6-2.9-11.1-3.6-16.8c-0.4-3,0.5-6.4,1.4-9.4c2.1-6.6,2.2-13.3,2.2-20.2c0-1.1-0.1-2.5,0.5-3.2c4-4.3,3.5-10,4.7-15.1
	c1.2-4.9,2-9.8,3.1-15.1c-1.8,0.1-2.7,0.3-3.6,0.2c-4-0.5-4.6,0-4.7,4c0,1.4,0.3,2.9-0.1,4.1c-0.4,1.2-1.4,2.8-2.5,3.1
	c-5.7,1.5-6.1,1.7-9.4,7c0.3-1.6,0.4-2.6,0.7-4.4c-3.5,5-6.6,9.4-9.7,13.6c-0.7,0.9-1.6,1.6-2.4,2.5
	C102.9,219.1,103,219.2,103,219.2z"/>
<path d="M79.5,253.5c5.9-8.8,11.7-17.7,17.6-26.5c1.8-2.7,3.9-5.2,5.9-7.8c0,0-0.1-0.1-0.1-0.1c-1.7,2.9-3.2,5.9-5,8.8
	c-4.7,7.4-9.5,14.8-14.4,22.1C82.5,251.4,80.8,252.3,79.5,253.5C79.5,253.4,79.5,253.5,79.5,253.5z"/>
<path d="M79.5,253.4c0.2,0.8,0.4,1.6,0.8,3.3c2.4-3.3,4.3-6,6.6-9.1c-0.6,4.6-6,11-13,14.8C75.8,259.4,77.7,256.5,79.5,253.4
	C79.5,253.5,79.5,253.4,79.5,253.4z"/>
<path d="M93,237.9c3.3-5,6.6-10,10-14.9c0.3,0.2,0.6,0.4,0.9,0.6c-3.3,5.1-6.6,10.1-9.8,15.2C93.7,238.5,93.3,238.2,93,237.9z"/>
</svg>
