<?xml version="1.0" standalone="no"?>
<!DOCTYPE svg PUBLIC "-//W3C//DTD SVG 20010904//EN"
 "http://www.w3.org/TR/2001/REC-SVG-20010904/DTD/svg10.dtd">
<svg version="1.0" xmlns="http://www.w3.org/2000/svg"
 width="1280.000000pt" height="901.000000pt" viewBox="0 0 1280.000000 901.000000"
 preserveAspectRatio="xMidYMid meet">
<g transform="translate(0.000000,901.000000) scale(0.100000,-0.100000)"
fill="#000000" stroke="none">
<path d="M7958 8993 c-34 -39 -61 -113 -51 -139 6 -15 95 -79 148 -106 17 -8
71 -37 120 -65 50 -28 137 -77 194 -109 57 -33 109 -67 115 -76 7 -12 5 -32
-8 -73 -14 -46 -24 -60 -59 -82 -23 -14 -69 -49 -102 -78 -33 -29 -86 -68
-117 -88 -31 -20 -74 -58 -95 -85 -49 -63 -147 -138 -218 -167 -66 -27 -108
-63 -135 -120 -23 -47 -60 -85 -106 -109 -30 -15 -61 -46 -158 -164 -39 -48
-44 -60 -55 -135 -6 -46 -9 -97 -5 -113 5 -24 -2 -39 -33 -80 -21 -28 -107
-140 -191 -251 -165 -217 -187 -242 -202 -227 -5 5 -14 71 -18 147 -9 130 -12
142 -46 212 -41 82 -119 162 -206 209 -55 30 -207 66 -281 66 -63 0 -190 -34
-251 -67 -60 -33 -150 -127 -182 -191 -28 -57 -54 -155 -62 -242 -10 -99 -18
-113 -56 -105 l-31 7 6 -83 c3 -46 17 -127 31 -179 14 -52 32 -140 41 -194 8
-55 27 -139 41 -187 19 -65 23 -93 15 -107 -6 -11 -48 -51 -94 -90 -161 -137
-326 -337 -481 -584 -38 -61 -106 -149 -162 -209 -126 -136 -209 -239 -241
-302 -14 -29 -74 -102 -142 -172 -77 -81 -134 -152 -170 -211 -124 -203 -162
-254 -251 -334 -80 -71 -93 -79 -119 -74 -25 5 -38 -1 -78 -34 -26 -22 -87
-63 -134 -91 -94 -55 -144 -93 -159 -121 -9 -16 -70 -232 -70 -247 0 -3 9 2
20 12 10 9 26 15 34 12 10 -4 16 3 21 26 16 79 55 147 86 147 24 0 24 -7 -1
-90 -23 -78 -74 -155 -96 -146 -13 5 -14 0 -9 -23 7 -32 -10 -72 -54 -130 -32
-42 -93 -151 -167 -296 -30 -60 -69 -132 -86 -158 -21 -32 -42 -89 -63 -170
l-31 -122 -94 -50 c-115 -61 -186 -128 -230 -219 l-33 -67 31 -61 c46 -88 43
-104 -20 -133 -66 -31 -83 -31 -133 0 -35 21 -52 24 -133 25 -81 0 -102 -4
-162 -29 -38 -16 -113 -41 -167 -56 -94 -25 -138 -45 -99 -45 47 0 -6 -29
-179 -100 -242 -98 -359 -160 -168 -89 48 19 65 21 74 12 9 -9 8 -17 -5 -35
-9 -13 -27 -40 -41 -60 -35 -53 -120 -113 -186 -132 -60 -17 -81 -35 -96 -81
-6 -20 -33 -48 -79 -82 -115 -87 -324 -212 -363 -218 -20 -4 -47 -8 -60 -11
-13 -3 -56 -38 -95 -79 -63 -66 -85 -80 -198 -135 -85 -41 -137 -72 -157 -96
-17 -19 -31 -39 -31 -43 0 -25 -209 -155 -375 -234 -172 -82 -221 -100 -400
-147 -58 -16 -89 -30 -112 -53 -18 -17 -33 -36 -33 -42 0 -21 167 -186 196
-194 20 -5 35 -21 54 -57 22 -42 33 -52 80 -71 102 -41 167 -28 267 55 91 76
163 120 229 142 38 13 81 38 113 65 76 65 178 122 232 129 37 6 59 18 110 62
78 67 166 118 236 134 31 7 78 30 115 56 94 65 123 77 188 72 71 -6 112 6 147
42 45 48 216 106 278 94 54 -10 132 13 157 47 23 31 48 41 152 59 54 10 79 10
120 0 44 -10 57 -10 89 3 21 9 42 27 49 43 13 29 149 98 216 110 58 10 89 30
121 78 57 82 179 166 242 166 15 0 35 7 43 15 20 21 92 52 137 60 31 6 41 2
70 -23 19 -16 44 -32 56 -36 60 -19 271 73 433 190 89 64 100 69 175 80 408
63 943 177 1085 231 36 14 137 52 225 85 88 33 179 67 202 76 35 14 49 15 87
4 36 -9 53 -9 97 4 68 20 188 13 359 -23 104 -21 141 -25 220 -20 168 11 219
29 596 205 177 84 464 188 490 178 23 -9 17 -38 -21 -96 -39 -60 -43 -97 -21
-157 8 -21 17 -64 20 -96 4 -31 18 -87 32 -125 16 -43 23 -76 19 -92 -6 -23
-24 -236 -26 -307 0 -17 9 -53 21 -80 36 -79 26 -214 -31 -448 -16 -66 -32
-156 -35 -200 -9 -146 11 -158 286 -180 316 -25 354 -33 510 -106 97 -46 113
-51 220 -61 269 -24 260 -25 315 23 48 43 47 77 -5 129 -49 49 -86 68 -247
126 -70 26 -155 60 -188 76 -78 39 -312 177 -324 192 -5 6 -16 39 -25 74 -15
59 -15 65 3 110 10 26 24 92 31 147 21 181 27 209 54 266 14 31 31 83 37 115
13 68 20 84 64 139 59 73 81 135 49 135 -12 0 -14 9 -12 38 3 32 7 37 31 40
17 2 27 9 27 20 0 9 16 49 36 89 28 58 37 90 44 161 8 90 26 167 43 190 18 24
43 11 107 -53 35 -35 66 -63 68 -61 2 2 -22 36 -52 76 -31 40 -59 83 -62 97
-8 30 12 102 30 109 8 3 66 -47 137 -119 141 -141 222 -198 370 -261 136 -58
350 -136 419 -152 77 -19 145 -18 165 2 23 24 4 34 -67 34 -109 0 -305 52
-470 125 -246 108 -467 315 -468 436 0 30 -12 46 -62 83 -39 28 -50 64 -25 84
6 5 46 24 88 41 138 57 152 96 113 309 -14 75 -34 156 -45 179 -25 52 -134
155 -197 187 -77 39 -189 66 -324 78 -155 14 -197 6 -330 -59 l-93 -45 -145 6
c-80 3 -181 9 -225 12 -78 6 -83 5 -180 -36 -55 -23 -130 -60 -166 -81 -36
-22 -73 -39 -82 -39 -45 0 -30 104 64 430 39 135 88 335 110 445 22 111 50
225 64 256 49 112 58 191 46 403 -6 105 -16 241 -23 303 -9 85 -9 158 -1 300
11 183 13 192 57 323 25 74 50 160 57 190 14 68 30 99 86 172 90 118 225 373
258 487 7 25 16 84 20 131 6 85 21 149 33 151 4 1 22 2 39 4 18 1 43 9 55 17
13 8 40 20 61 27 27 9 38 19 43 39 13 62 29 84 80 117 52 34 107 96 120 138 4
12 17 38 30 57 13 19 28 57 34 85 14 62 40 105 86 140 20 15 44 48 56 74 10
25 35 59 54 74 19 16 48 50 66 75 18 26 54 73 82 105 54 61 75 68 132 46 42
-15 66 -5 142 61 39 33 79 60 90 60 27 0 152 -71 169 -96 11 -17 11 -30 2 -71
-7 -28 -9 -58 -6 -67 11 -29 55 -18 101 24 24 22 49 40 56 40 16 0 239 -130
430 -249 278 -174 693 -458 1190 -815 390 -280 557 -412 1125 -893 221 -186
455 -383 520 -437 66 -55 128 -106 138 -114 30 -26 31 -5 2 73 -51 142 -152
252 -520 571 -627 542 -826 695 -1775 1366 -200 142 -579 387 -795 514 -253
150 -238 135 -220 208 15 62 7 106 -19 106 -8 0 -33 -16 -57 -36 -53 -44 -76
-42 -173 15 -83 48 -92 61 -71 100 23 46 18 67 -24 100 -29 23 -40 40 -45 70
-7 44 -27 61 -74 61 -22 0 -36 9 -56 35 -19 25 -35 35 -54 35 -15 0 -45 9 -67
20 -22 11 -45 20 -52 20 -7 0 -38 -22 -68 -50 -30 -27 -62 -50 -70 -50 -20 0
-63 20 -110 50 -22 15 -53 34 -70 42 -16 8 -59 32 -95 53 -122 71 -349 195
-358 195 -5 0 -16 -8 -24 -17z m-388 -1468 c0 -18 -44 -65 -60 -65 -22 0 -22
32 0 56 26 27 60 32 60 9z m-2137 -3377 c46 -61 127 -217 138 -265 14 -67 -1
-113 -67 -203 -30 -40 -63 -93 -74 -116 -10 -24 -43 -74 -73 -111 -67 -85 -79
-108 -106 -208 -12 -44 -30 -88 -38 -98 -27 -29 -146 -58 -315 -77 -92 -11
-199 -45 -249 -81 -43 -30 -332 -177 -417 -211 -53 -21 -86 -28 -120 -26 -43
3 -47 5 -50 30 -5 40 57 103 137 139 46 21 87 51 133 97 38 37 78 77 91 88 12
12 30 33 40 48 10 14 40 37 66 51 27 13 63 36 80 51 32 27 106 128 118 161 3
10 30 55 59 100 37 56 54 91 54 113 0 48 33 94 98 136 128 83 163 109 231 171
39 35 103 105 142 154 39 49 77 89 85 89 7 0 24 -15 37 -32z m-1139 -1127 c3
-5 0 -13 -7 -19 -15 -13 -42 1 -33 17 9 13 33 15 40 2z m3382 -738 c-10 -10
-19 5 -10 18 6 11 8 11 12 0 2 -7 1 -15 -2 -18z m-4818 -256 c2 -11 -6 -21
-23 -27 -64 -24 -92 4 -32 34 37 18 51 16 55 -7z m4872 -477 c0 -20 -5 -30
-15 -30 -10 0 -15 10 -15 30 0 20 5 30 15 30 10 0 15 -10 15 -30z"/>
<path d="M8904 2281 c12 -19 232 -160 298 -191 35 -16 95 -35 133 -41 39 -6
85 -13 104 -16 23 -4 32 -2 27 6 -4 6 -14 11 -21 11 -60 0 -371 133 -504 216
-24 15 -41 22 -37 15z"/>
</g>
</svg>
