<?xml version="1.0" encoding="utf-8"?>
<!-- Generator: Adobe Illustrator 22.1.0, SVG Export Plug-In . SVG Version: 6.00 Build 0)  -->
<svg version="1.1" id="Layer_1" xmlns="http://www.w3.org/2000/svg" xmlns:xlink="http://www.w3.org/1999/xlink" x="0px" y="0px"
	 viewBox="0 0 1280 970" style="enable-background:new 0 0 1280 970;" xml:space="preserve">
<g transform="translate(0.000000,1280.000000) scale(0.100000,-0.100000)">
	<path d="M6045.5,12584c-22.7-9.9-54.6-19.7-70.5-22.7c-53-9.9-82.6-50-100-134.1c-2.3-13.6-9.1-21.2-21.2-22.7
		c-12.9-1.5-24.2-17.4-48.5-66.7c-17.4-35.6-37.9-84.1-45.5-107.6c-7.6-24.2-19.7-51.5-27.3-60.6c-9.1-10.6-12.9-12.9-10.6-5.3
		c9.1,28.8,14.4,201.6,6.8,206.9c-5.3,3-10.6-2.3-12.1-12.1c-22-97-47-192.5-62.1-231.9c-44-117.5-136.4-259.9-242.5-375.1
		c-94-102.3-115.2-149.3-132.6-296.3c-6.8-55.3-6.8-87.9,0-125.8c9.1-55.3,72-229.6,104.6-290.2c18.9-34.1,134.9-156.9,245.5-259.2
		c22.7-21.2,52.3-52.3,65.9-70.5c28.8-37.1,56.8-41.7,97.8-16.7c18.2,10.6,29.6,12.9,41.7,8.3c16.7-6.1,89.4-78.1,89.4-87.9
		c0-3-22-30.3-49.3-61.4s-49.3-59.1-49.3-62.9c0-3-15.2-16.7-33.3-29.6c-31.1-22.7-44-42.4-53-84.9c-3.8-19.7-32.6-53-95.5-111.4
		c-18.9-16.7-44-43.2-55.3-57.6c-11.4-15.2-39.4-37.1-62.1-50s-47-31.8-53.8-41.7c-14.4-23.5-114.4-81.8-167.5-98.5
		c-57.6-18.9-84.9-40.9-112.2-90.2c-34.9-62.9-69.7-238.7-50-250.8c4.5-3,8.3,0,8.3,8.3c0.8,12.9,0.8,12.9,10.6,0
		c6.8-9.1,12.1-10.6,15.9-5.3c2.3,3.8,8.3,6.1,12.1,3.8c3.8-3,6.8,3,7.6,12.9v17.4l6.8-17.4c12.9-31.1,60.6-87.9,93.2-109.1
		c17.4-11.4,53.8-26.5,81.8-34.1l50-12.9l4.5-68.2c2.3-40.9,12.9-100,25-143.2l21.2-75l-24.2-146.3
		c-15.2-91.7-34.9-181.1-53.8-240.2c-29.6-94-53.8-206.9-53.8-253.9v-24.2l-62.9-2.3c-34.9-1.5-62.1-5.3-62.1-9.9
		c0-3.8,23.5-9.9,52.3-12.9s54.6-7.6,57.6-11.4c3-3,0-19.7-7.6-36.4l-12.9-30.3l-11.4,26.5c-9.9,24.2-16.7,28-51.5,36.4
		c-38.6,9.1-56.8,6.8-49.3-6.1c2.3-3,15.2-8.3,29.6-10.6c14.4-3,29.6-9.9,34.9-15.9c12.9-15.2,3.8-56.1-18.2-86.4
		c-21.2-28.8-31.1-80.3-42.4-224.3c-12.9-158.4-37.9-398.6-46.2-434.2c-12.1-54.6-43.2-106.9-95.5-159.9
		c-61.4-62.1-108.4-125-120.5-159.9c-9.1-25.8-10.6-26.5-68.2-36.4c-33.3-5.3-257.7-52.3-499.4-103.8s-453.2-96.2-469.8-99.3
		c-42.4-6.8-60.6-18.9-22.7-14.4c31.1,3,53.8,4.5,568.4,22.7c314.5,11.4,445.6,17.4,466.1,22.7c31.8,9.1,104.6-187.9,151.6-411.5
		c22.7-106.9,28-234.9,12.1-297.1c-27.3-105.3-117.5-220.5-278.1-353.1c-65.9-54.6-169.8-172-216-243.3
		c-13.6-22-40.9-58.4-59.1-81.1c-97.8-120.5-205.4-314.5-264.5-478.2c-19.7-53.8-40.9-109.9-47-123.5c-9.1-18.9-9.1-25-2.3-22
		c34.1,14.4,115.9,37.1,157.6,43.2c140.2,22,204.6,30.3,239.5,30.3c62.1,0,107.6,8.3,112.2,20.5c2.3,6.1-15.9,62.9-40.2,125.8
		c-65.2,166-78.8,225.1-79.6,334.2l-0.8,89.4l37.9,34.9c20.5,18.2,88.7,77.3,151.6,130.3c232.6,196.3,295.5,289.5,322.8,473.6
		c3.8,25,12.1,69.7,18.2,98.5c16.7,75.8,23.5,256.1,11.4,307.7c-13.6,62.1-47.7,147.8-96.2,241.7c-25,49.3-40.2,86.4-35.6,90.2
		c8.3,7.6,253.9,56.1,258.4,50.8c2.3-1.5,11.4-33.3,21.2-70.5s37.1-122,60.6-187.9c23.5-66.7,86.4-250.8,139.4-409.2
		s116.7-337.2,140.2-397.9c24.2-60.6,56.8-150,72.8-199.3l28.8-89.4l-22-11.4c-12.1-6.1-22-12.9-22-15.9c0-9.9,37.9-84.9,45.5-89.4
		c4.5-3,16.7-22.7,28-44c10.6-22,31.1-54.6,44.7-72.8c14.4-18.2,25.8-40.9,25.8-50.8c0-28,43.2-114.4,63.7-128.1
		c10.6-7.6,17.4-15.9,15.2-19.7s-1.5-10.6,1.5-15.2c3-5.3,6.1-21.2,6.8-36.4s7.6-42.4,14.4-60.6c9.9-26.5,12.1-47.7,9.1-94.7
		c-3-43.2-0.8-72,6.8-95.5c6.1-18.9,12.1-56.1,13.6-83.4c2.3-27.3,5.3-54.6,7.6-60.6s6.1-23.5,8.3-37.9s9.1-52.3,15.9-83.4
		c18.9-87.9,18.2-160.7-3.8-221.3c-18.2-53-17.4-61.4,9.1-97.8c5.3-7.6,6.1-18.2,2.3-26.5c-12.9-30.3-3.8-103.8,18.9-144.7
		c18.9-33.3,21.2-44,17.4-77.3c-4.5-38.6-12.1-48.5-20.5-26.5c-2.3,6.1-7.6,9.9-11.4,7.6c-3.8-3-1.5-21.2,5.3-43.2l12.9-38.6
		l-19.7-16.7c-9.9-8.3-26.5-21.2-35.6-27.3c-13.6-9.1-17.4-21.2-21.2-60.6c-6.1-56.8-15.9-70.5-94.7-128.8
		c-53-39.4-221.3-135.6-263-150c-13.6-4.5-29.6-6.8-36.4-3.8c-12.9,4.5-40.9-17.4-40.9-33.3c0-6.1,9.9-21.2,22-33.3
		c18.9-18.9,28-22,62.9-22c24.2,0,47-4.5,56.1-11.4c21.2-15.9,96.2-14.4,154.6,3.8c50,15.2,98.5,19.7,98.5,9.9
		c0-3.8-6.1-15.9-13.6-27.3c-12.1-20.5-36.4-35.6-155.4-101.5c-131.9-73.5-160.7-90.9-159.1-97.8c0.8-4.5-21.2-18.9-49.3-32.6
		s-66.7-32.6-85.6-43.2c-19.7-9.9-46.2-18.2-59.1-18.2c-46.2,0-46.2-56.8,0-75.8c12.1-5.3,23.5-15.9,26.5-24.2
		c3.8-12.1,9.9-14.4,26.5-12.1c12.9,2.3,24.2,0.8,26.5-3c2.3-3,10.6-2.3,18.2,1.5c10.6,5.3,18.9,5.3,29.6-1.5
		c11.4-6.8,18.9-6.8,34.9,0c16.7,7.6,22.7,6.8,41.7-6.8c17.4-13.6,27.3-15.2,50.8-10.6c15.9,3,57.6,5.3,93.2,4.5
		c63.7-1.5,254.6,24.2,362.2,48.5c44,9.9,65.9,10.6,130.3,4.5c97-10.6,200.1-10.6,235.7-0.8c28,7.6,56.1,32.6,70.5,62.1
		c4.5,9.9,15.9,20.5,25.8,25c21.2,9.1,21.2,26.5,0.8,84.1c-11.4,32.6-16.7,70.5-18.9,135.6c-3,80.3-4.5,92.5-18.2,102.3
		c-20.5,15.2-26.5,58.4-15.2,105.3c7.6,32.6,7.6,43.2-2.3,63.7c-13.6,28.8-12.1,106.9,2.3,177.3c6.1,29.6,8.3,81.1,6.1,137.9
		c-1.5,50-1.5,89.4,0,87.9c3.8-3,31.8,25,31.8,31.8c0,1.5-6.1,11.4-12.9,22c-15.2,24.2-18.9,141-4.5,155.4
		c11.4,11.4,14.4,0,27.3-106.9c6.8-62.1,12.1-79.6,21.2-81.8c18.9-3.8,24.2,34.9,6.1,44.7c-12.1,6.1-14.4,16.7-14.4,62.9
		c0,30.3-3.8,74.3-7.6,96.2c-4.5,22.7-8.3,68.2-8.3,100.8c-0.8,33.3-3,67.4-6.8,75.8c-3,8.3-2.3,27.3,2.3,42.4
		c3.8,14.4,9.9,55.3,12.9,90.9c3.8,35.6,12.1,83.4,19.7,106.1c13.6,44.7,15.9,156.9,2.3,169.8c-10.6,11.4-8.3,45.5,4.5,62.1
		c18.2,24.2,14.4,59.9-7.6,69.7c-25.8,12.1-32.6,31.8-53.8,159.9c-18.9,112.2-28,137.2-64.4,182.6c-21.2,26.5-52.3,103.8-52.3,130.3
		c0,7.6-3.8,13.6-7.6,13.6c-5.3,0-6.1,13.6-3,37.1c3.8,31.8,1.5,43.2-15.2,73.5c-10.6,18.9-19.7,45.5-19.7,57.6
		c0,17.4-3,22-11.4,18.2c-6.1-2.3-15.9-6.1-21.2-8.3c-7.6-3-15.9,21.2-31.8,96.2c-18.2,84.1-22,116.7-21.2,199.3
		c0.8,54.6,4.5,129.6,9.1,166.7c12.9,108.4,9.9,371.3-6.1,472.9l-12.9,85.6l22.7,8.3c12.9,4.5,51.5,22.7,86.4,40.9
		c34.9,17.4,64.4,32.6,66.7,32.6c1.5,0,8.3-11.4,15.2-24.2c6.8-13.6,28-47.7,47-75.8c34.9-53,44-58.4,81.8-44
		c15.2,6.1,22,6.1,26.5-1.5c8.3-12.9,9.9-9.1,21.2,46.2c8.3,42.4,7.6,49.3-3.8,62.1s-11.4,15.2,4.5,40.9
		c18.2,29.6,24.2,31.1,62.9,15.2c15.2-6.1,46.2-11.4,68.2-11.4c33.3,0,44.7,3.8,61.4,18.9c11.4,10.6,19.7,26.5,19.7,37.9
		c0,28-22,62.9-43.2,68.2c-26.5,6.1-21.2,17.4,14.4,26.5c18.2,5.3,49.3,13.6,69.7,19.7c19.7,6.1,40.9,10.6,45.5,10.6
		c5.3,0,17.4,8.3,27.3,18.9s20.5,18.9,22.7,18.9c3,0,30.3-19.7,59.9-44.7c30.3-24.2,63.7-48.5,75-54.6c11.4-5.3,25-12.9,30.3-17.4
		c25-18.2,126.6-20.5,197.8-5.3c37.1,8.3,56.8,18.2,84.1,41.7c19.7,17.4,65.2,56.1,101.5,87.1c35.6,31.1,64.4,57.6,62.1,59.1
		c-1.5,1.5-30.3-10.6-64.4-27.3c-33.3-17.4-84.1-38.6-112.2-48.5s-75-30.3-103.1-46.2c-34.1-19.7-61.4-29.6-79.6-29.6
		c-37.1,0.8-84.9,26.5-122,66.7c-40.2,44-40.9,65.9-2.3,86.4c20.5,10.6,62.1,3.8,62.1-9.9c0-5.3,6.8-15.9,14.4-22.7
		c17.4-15.2,59.9-10.6,66.7,7.6c2.3,6.1,12.1,10.6,22.7,10.6c9.9,0,26.5,9.1,37.1,20.5c9.9,10.6,25,23.5,32.6,28
		c25.8,15.2,103.1,75.8,127.3,100.8c14.4,14.4,40.9,29.6,63.7,35.6c21.2,6.8,43.2,15.2,47.7,18.9c22,18.2,153.8,61.4,187.2,61.4
		c50,0,90.2,62.9,65.2,101.5c-6.8,10.6-24.2,24.2-38.6,31.1c-28,13.6-44.7,9.1-76.5-18.9c-21.2-19.7-112.9-63.7-167.5-81.8
		c-25.8-8.3-56.8-20.5-69.7-27.3s-26.5-12.1-29.6-12.1c-3.8,0-15.9,22.7-28,51.5c-12.1,28-31.8,68.2-43.2,90.2
		c-21.2,38.6-21.2,40.2-7.6,47.7c8.3,3.8,20.5,7.6,26.5,7.6c17.4,0,15.2,7.6-9.9,34.1c-12.1,12.1-24.2,31.1-27.3,41.7
		c-4.5,17.4-3,16.7,22.7-8.3c26.5-25.8,49.3-81.8,62.1-152.3c2.3-11.4,9.9-21.2,18.2-23.5c11.4-3,14.4,0,14.4,17.4
		c0,14.4-4.5,22-15.2,25c-12.1,3-15.2,10.6-15.2,33.3c0,46.2-11.4,74.3-49.3,120.5c-44,54.6-69,97.8-75.8,131.9
		c-3,14.4-15.2,56.8-28,94.7c-22.7,66.7-22.7,68.2-10.6,106.1c15.2,47.7,15.2,76.5,1.5,84.9c-5.3,3-12.1,25-14.4,47.7
		c-19.7,180.4-25.8,201.6-61.4,232.6c-10.6,9.9-19.7,24.2-19.7,32.6s-8.3,36.4-18.9,61.4c-17.4,40.2-18.9,52.3-14.4,100
		c4.5,53,3.8,55.3-18.9,84.1c-18.9,23.5-23.5,36.4-23.5,66.7c0,23.5-6.1,49.3-18.2,72.8c-9.9,19.7-20.5,50-23.5,67.4
		c-2.3,17.4-15.2,47-26.5,65.9c-21.2,33.3-22,37.9-17.4,94.7c4.5,59.9,4.5,60.6-19.7,84.1c-20.5,20.5-23.5,28.8-23.5,63.7
		c0,38.6,0.8,40.2,18.9,36.4c15.9-3,18.9-0.8,18.9,15.9c0,12.1-6.1,23.5-14.4,28c-9.9,5.3-16.7,19.7-20.5,43.2
		c-3,19.7-11.4,49.3-18.9,65.9c-7.6,17.4-15.9,53-18.9,80.3s-12.9,65.2-23.5,85.6c-9.9,19.7-15.9,35.6-13.6,35.6s0,7.6-4.5,17.4
		c-25.8,47-37.1,177.3-21.2,235.7l8.3,29.6l33.3-78.8c18.9-43.2,46.2-102.3,60.6-130.3s24.2-54.6,22-58.4c-2.3-4.5-1.5-7.6,2.3-7.6
		s12.9-14.4,20.5-31.8c54.6-128.8,275.1-592.6,275.8-581.2c0.8,3-8.3,25-18.9,49.3s-20.5,52.3-22,62.9s-11.4,39.4-22,63.7
		c-10.6,23.5-18.2,43.2-15.9,43.2s-12.9,34.1-34.1,75.8c-20.5,41.7-37.9,78.1-37.1,81.1c0,3.8,39.4-71.2,87.1-166
		c47.7-95.5,87.9-172.8,89.4-172.8c2.3,0-3,14.4-10.6,32.6c-7.6,17.4-15.9,40.2-17.4,50.8c-2.3,10.6-9.1,32.6-15.9,49.3
		c-18.9,44.7-3.8,24.2,40.9-54.6c22-38.6,43.2-70.5,46.2-70.5c9.9,0,8.3,4.5-12.1,45.5c-10.6,21.2-17.4,37.9-15.9,37.9
		c4.5,0,81.1-135.6,134.9-238.7c23.5-45.5,43.2-79.6,44-75.8c0,4.5-5.3,17.4-11.4,29.6c-9.9,18.9-9.9,20.5,0,16.7
		c14.4-5.3,14.4-2.3-0.8,28l-11.4,24.2l17.4-18.9c9.9-10.6,28.8-33.3,42.4-49.3l25.8-30.3l-18.9,34.1
		c-56.1,102.3-119.7,227.3-115.9,227.3c2.3,0,12.9-15.2,24.2-34.1c32.6-56.1,28.8-38.6-4.5,21.2c-50.8,90.2-90.2,169.8-94,189.5
		c-1.5,9.9-32.6,75.8-68.2,146.3c-91.7,179.6-191,398.6-167.5,370.6c9.9-12.1,50-80.3,88.7-151.6c137.9-254.6,335-587.3,378.9-640.4
		c14.4-18.2,14.4-17.4-0.8,7.6c-74.3,121.2-266,468.3-266,481.2c0,9.9,37.9-45.5,113.7-163.7c96.2-150.8,170.5-255.4,244.8-344
		c72-86.4,112.2-124.3,51.5-49.3c-58.4,72.8-121.2,169-157.6,243.3c-17.4,36.4-56.8,106.1-87.9,155.4
		c-62.1,100.8-114.4,192.5-109.1,192.5c1.5,0,15.9-21.2,31.8-47c15.9-26.5,40.2-61.4,53-78.1c13.6-16.7,44-62.1,68.2-100
		c23.5-38.6,44.7-70.5,47-70.5c1.5,0-3.8,12.1-12.9,26.5s-14.4,26.5-12.9,26.5c5.3,0,69.7-87.9,119-162.9c22-33.3,44-63.7,47.7-68.2
		c11.4-12.1-9.9,27.3-33.3,62.1c-28.8,40.9-28,48.5,2.3,20.5l24.2-22l-20.5,26.5c-25.8,33.3-174.3,255.4-187.2,279.6
		c-7.6,14.4-7.6,16.7,0.8,12.1c6.8-4.5,8.3-2.3,4.5,6.1c-6.8,18.9-1.5,15.9,14.4-7.6c7.6-12.1,12.9-26.5,12.9-32.6
		c-0.8-6.8,5.3-20.5,13.6-30.3c12.1-15.9,13.6-16.7,9.9-3.8s-1.5,12.1,12.1-3.8c22-25.8-32.6,77.3-88.7,166.7
		c-53,84.9-119.7,207.6-109.1,201.6c3.8-2.3-19.7,41.7-53,97.8c-59.1,101.5-78.1,141.7-40.2,83.4c69.7-105.3,25-13.6-86.4,177.3
		c-22.7,38.6-55.3,98.5-72.8,132.6c-17.4,33.3-56.1,107.6-86.4,163.7c-102.3,194-98.5,208.4,9.9,32.6
		c36.4-59.9,67.4-108.4,69.7-108.4s-0.8,7.6-6.8,17.4c-34.9,52.3-128.8,220.5-131.1,233.4c-1.5,8.3-10.6,28-19.7,43.2l-15.9,28
		l15.9-18.9c9.1-10.6,71.2-94.7,137.9-186.4c66.7-92.5,131.9-178.8,144.7-193.2c12.1-14.4,18.9-19.7,13.6-12.1
		c-5.3,6.8-7.6,12.9-5.3,12.9s34.9-38.6,72.8-84.9c104.6-130.3,205.4-245.5,241-275.8c18.2-14.4,32.6-25,32.6-23.5
		c0,2.3,47.7-44.7,106.1-104.6c59.1-59.1,122.8-119,142.5-133.4c26.5-18.9,19.7-9.9-28,34.9c-34.9,33.3-68.2,63.7-73.5,66.7
		c-27.3,15.9-236.4,250.8-308.4,347.1l-81.8,109.1l53.8-56.8c30.3-31.1,51.5-51.5,48.5-45.5c-6.8,12.9-87.9,115.9-185.7,234.9
		c-72,88.7-145.5,189.5-105.3,144c13.6-14.4,50.8-59.1,83.4-99.3s79.6-92.5,103.8-117.5c24.2-24.2,59.1-62.9,77.3-84.9
		c17.4-21.2,34.9-37.9,37.9-36.4c3,2.3,31.1-22,61.4-52.3c31.1-31.1,59.9-56.8,63.7-56.8c3,0-27.3,34.9-68.2,78.1
		c-85.6,88.7-177.3,195.5-218.2,253.9c-15.9,22.7-65.2,90.9-109.9,151.6c-44.7,61.4-88.7,123.5-98.5,137.9l-17.4,26.5l25-26.5
		c12.9-14.4,22-20.5,19.7-12.9c-3,6.8-3.8,12.9-1.5,12.9c1.5,0,30.3-35.6,64.4-79.6c34.1-43.2,64.4-78.8,67.4-77.3
		c11.4,3,109.1-96.2,175.1-176.6c82.6-101.5,129.6-154.6,139.4-158.4c3.8-1.5-3.8,12.1-18.2,30.3c-13.6,18.2-28.8,38.6-33.3,44.7
		c-11.4,15.9,170.5-172.8,196.3-203.1c39.4-47,245.5-204.6,312.2-239.5c37.9-18.9,29.6-9.1-10.6,15.2
		c-37.1,20.5-176.6,128.8-176.6,136.4c0,3.8,11.4-1.5,31.1-15.2c19.7-14.4-32.6,33.3-72.8,65.2c-21.2,16.7-56.8,51.5-79.6,77.3
		c-39.4,43.2-37.1,42.4,32.6-20.5c40.9-36.4,94-78.8,117.5-94s56.8-38.6,73.5-52.3c33.3-26.5,306.9-201.6,306.9-195.5
		c0,2.3,6.8,0,15.2-4.5c28.8-15.2,15.2-1.5-22,22c-20.5,13.6-46.2,32.6-57.6,43.2c-10.6,9.9-45.5,35.6-76.5,56.1
		c-54.6,37.1-68.2,50-44.7,40.9c25-9.9,9.1,4.5-28.8,25.8c-21.2,12.1-47.7,29.6-58.4,38.6c-10.6,8.3,35.6-17.4,102.3-57.6
		c134.9-81.8,232.6-134.9,261.4-141.7c10.6-2.3,3.8,3-13.6,11.4c-18.2,8.3-31.8,16.7-30.3,18.9c3,3,97.8-29.6,112.2-38.6
		c4.5-2.3,7.6-1.5,7.6,3c0,3.8-17.4,17.4-38.6,31.1c-21.2,12.9-37.1,25-34.9,27.3c1.5,2.3,26.5-5.3,54.6-15.9s53-18.9,56.1-18.9
		c2.3,0-37.9,21.2-89.4,46.2c-93.2,45.5-124.3,69-44,33.3c56.8-25,55.3-17.4-2.3,11.4c-71.2,36.4-53,32.6,25.8-4.5
		c72-34.1,156.1-65.9,161.4-61.4c1.5,1.5-19.7,12.1-47,24.2c-64.4,27.3-59.1,32.6,6.8,8.3c28-10.6,48.5-15.2,45.5-10.6
		c-6.1,9.9-10.6,11.4,86.4-31.1c38.6-17.4,72.8-31.1,75.8-31.1c6.1,0.8-100.8,59.9-148.5,82.6c-40.9,19.7-40.9,26.5,0,11.4
		c41.7-15.2,121.2-34.9,125-30.3c1.5,1.5-8.3,6.8-23.5,12.1c-14.4,4.5-30.3,13.6-36.4,20.5c-6.8,9.1-6.8,11.4-0.8,6.8
		c6.1-3,9.9-1.5,9.9,4.5s-12.1,15.2-27.3,20.5s-33.3,15.9-40.2,22.7c-7.6,7.6-18.9,15.2-25.8,18.2c-6.8,2.3-12.9,8.3-12.9,12.1
		c0,5.3,6.8,5.3,19.7,0.8c31.8-12.1,30.3-8.3-6.8,15.2c-19.7,12.1-35.6,24.2-35.6,25.8c0,5.3,47-12.1,106.9-39.4
		s99.3-39.4,63.7-19.7c-78.1,42.4-88.7,50-78.8,56.8c7.6,4.5,5.3,7.6-8.3,13.6c-10.6,3.8-15.2,7.6-9.9,7.6
		c5.3,0.8,28.8-7.6,52.3-18.2c58.4-25.8,69.7-23.5,17.4,3.8c-22.7,11.4-46.2,27.3-51.5,33.3c-9.1,11.4-7.6,11.4,16.7,0.8
		c53-22,53.8-9.9,1.5,15.2c-29.6,13.6-47.7,25.8-41.7,26.5c6.1,0-0.8,6.8-15.2,15.2c-34.1,18.9-28,18.9,26.5,0
		c24.2-8.3,46.2-13.6,47.7-11.4c2.3,2.3-0.8,3.8-6.1,3.8s-8.3,1.5-6.1,3.8s33.3-3,69.7-11.4c76.5-17.4,75-17.4,69-7.6
		c-6.8,11.4,5.3,9.1,22-3.8c8.3-6.1,20.5-11.4,26.5-11.4c22.7,0-45.5,31.1-74.3,33.3c-16.7,1.5-35.6,6.8-44,11.4
		c-11.4,6.8-9.9,8.3,12.9,8.3l26.5,0.8l-40.2,20.5c-22,11.4-37.1,23.5-34.1,26.5c3,3.8,0,3.8-6.8,1.5c-6.8-3-18.9-1.5-26.5,3.8
		c-11.4,6.8-10.6,7.6,5.3,3c32.6-8.3,7.6,7.6-53,34.1c-96.2,43.2-325.9,169.8-325.9,179.6c0,1.5,37.9-15.9,84.1-39.4
		c46.2-22.7,85.6-40.2,87.1-38.6s-39.4,25.8-90.9,53c-125,65.9-262.2,148.5-262.2,157.6c0,3.8-4.5,6.8-10.6,6.8
		c-12.9,0-144,85.6-153.1,100c-9.9,15.2-8.3,24.2,4.5,30.3c8.3,3.8,6.8,5.3-6.1,5.3c-9.1,0.8-16.7,3.8-16.7,7.6
		c0,3-14.4,10.6-32.6,15.2c-18.2,5.3-40.9,15.9-50.8,23.5c-10.6,8.3-50,36.4-88.7,62.1c-81.8,56.1-375.1,307.7-369.8,316.8
		c2.3,3.8-23.5,29.6-56.8,58.4c-90.9,76.5-253.9,300.1-338.7,463.8c-18.2,34.9-64.4,109.9-102.3,166.7s-82.6,123.5-99.3,148.5
		c-134.9,200.8-197,288-203.1,285.7c-4.5-0.8-6.1,1.5-3,5.3c2.3,4.5-18.2,31.1-45.5,59.9c-26.5,28.8-47,53.8-45.5,56.1
		c5.3,5.3-85.6,90.2-127.3,119c-38.6,26.5-100.8,52.3-145.5,60.6C6130.4,12609.8,6096.3,12604.5,6045.5,12584z M6074.3,12183.9
		c22-11.4,29.6-24.2,72-127.3c18.2-44,41.7-91.7,53-106.1c10.6-14.4,32.6-52.3,47.7-83.4c15.9-30.3,40.2-74.3,53.8-97
		c34.1-53,37.9-64.4,59.1-167.5c27.3-134.1,63.7-274.3,75.8-296.3c13.6-24.2,62.1-209.2,75.8-287.2c5.3-31.1,9.9-47,10.6-34.9
		c0.8,32.6,7.6,21.2,28-53c9.9-37.1,24.2-81.1,32.6-97.8c7.6-16.7,27.3-70.5,43.2-119c15.9-49.3,31.1-86.4,33.3-82.6
		s18.2-25.8,35.6-64.4l31.1-70.5l-28.8,14.4c-15.9,7.6-50.8,20.5-78.8,27.3c-44,10.6-53,16.7-82.6,51.5
		c-47.7,55.3-159.1,221.3-190.2,282.7c-14.4,28.8-40.2,69.7-56.8,91.7c-17.4,22-30.3,45.5-29.6,53c1.5,9.9-3.8,13.6-22,15.2
		c-20.5,2.3-25.8,7.6-39.4,39.4c-18.9,43.2-22,82.6-6.1,69c8.3-6.8,12.1-1.5,19.7,22.7c6.1,20.5,16.7,34.9,31.8,43.2
		c12.1,7.6,22,16.7,22,22c0,4.5,9.1,15.9,20.5,25c20.5,15.2,20.5,15.9,3,10.6c-13.6-3-16.7-2.3-12.1,5.3c4.5,6.8,2.3,8.3-6.8,4.5
		c-11.4-4.5-12.9,1.5-11.4,65.2c2.3,81.8-10.6,131.1-54.6,219.8c-16.7,32.6-28.8,61.4-27.3,62.9c5.3,5.3,105.3-159.1,156.1-253.1
		c52.3-100,90.2-150,102.3-137.9c5.3,5.3,5.3,12.1-1.5,22.7c-5.3,8.3-28,60.6-50,115.9c-81.8,201.6-155.4,341.8-231.1,441
		c-40.9,53.8-109.9,125-120.5,125c-4.5,0-20.5,16.7-35.6,37.1c-23.5,32.6-25.8,40.2-18.2,52.3c7.6,11.4,6.8,23.5,0,55.3
		c-18.9,81.8-18.9,87.1,0,100.8C5999.3,12196,6049.3,12197.5,6074.3,12183.9z M7323.2,11189.6c7.6-6.1,10.6-11.4,6.1-11.4
		s-12.9,5.3-18.2,11.4C7298.9,11204,7304.2,11204,7323.2,11189.6z M7493.7,10293.9c9.9-12.1,9.1-12.9-3-3
		c-6.8,5.3-12.9,11.4-12.9,12.9C7477.8,10309.8,7483.8,10306,7493.7,10293.9z M7770.3,10161.3l14.4-17.4l-17.4,14.4
		c-9.1,8.3-16.7,15.9-16.7,17.4C7750.6,10181.8,7756.7,10177.2,7770.3,10161.3z M7852.9,10106c12.1-9.9,18.9-18.2,14.4-18.9
		c-4.5,0-15.9,8.3-25.8,18.9C7818.8,10130.2,7823.3,10130.2,7852.9,10106z M7978.7,10096.9c9.9-12.1,9.1-12.9-3-3
		c-6.8,5.3-12.9,11.4-12.9,12.9C7962.8,10112.8,7968.8,10109,7978.7,10096.9z M7622.5,10036.3c9.9-12.1,9.1-12.9-3-3
		c-6.8,5.3-12.9,11.4-12.9,12.9C7606.6,10052.2,7612.7,10048.4,7622.5,10036.3z M6951.1,9618.7c17.4-37.9,34.1-84.9,29.6-84.9
		c-25,0-56.1,45.5-56.1,82.6C6924.6,9649.8,6935.2,9650.5,6951.1,9618.7z M7577.1,9567.9c5.3,5.3,14.4-3.8,14.4-14.4
		c0-4.5-3.8-3.8-9.1,1.5C7577.8,9559.6,7575.5,9565.7,7577.1,9567.9z M6563.9,9433c2.3,3,4.5-1.5,3.8-9.9c0-8.3-2.3-10.6-4.5-4.5
		C6560.8,9423.9,6561.6,9430.8,6563.9,9433z M6584.3,9358l22,17.4l9.1-21.2c8.3-20.5,9.9-46.2,6.1-117.5c-0.8-28.8,3-42.4,21.2-69.7
		c12.9-18.2,27.3-46.2,32.6-62.9c6.1-15.9,13.6-31.1,16.7-33.3c3.8-2.3,3-18.2-1.5-34.1c-9.9-37.1-6.1-127.3,6.1-141.7
		c4.5-6.1,6.8-15.9,4.5-21.2c-5.3-15.2,9.1-34.9,18.2-25.8c5.3,5.3,3,18.2-6.1,37.9c-12.9,28.8-28,117.5-19.7,117.5
		c2.3,0,15.2-12.9,29.6-28c22.7-25,25.8-33.3,29.6-84.9c2.3-31.8,11.4-73.5,19.7-92.5c8.3-18.2,17.4-49.3,20.5-67.4
		c3.8-27.3,11.4-40.2,37.9-64.4c31.1-28,34.9-34.9,47.7-98.5c18.9-87.1,34.1-134.1,62.1-183.4c14.4-25.8,22-50.8,22-70.5
		c0-34.9,14.4-73.5,33.3-93.2c8.3-7.6,15.2-30.3,17.4-56.8c3-23.5,14.4-62.9,25.8-87.1c15.2-32.6,19.7-51.5,16.7-72
		s-0.8-31.8,8.3-38.6c15.2-12.9,15.2-26.5,0.8-49.3c-10.6-15.2-10.6-20.5,0-44.7c12.1-29.6,9.1-47-12.9-68.2
		c-12.9-12.9-13.6-15.9-3.8-30.3c6.1-9.1,19.7-17.4,30.3-18.9l19.7-2.3l-18.9-43.2c-21.2-47.7-26.5-54.6-31.1-40.9
		c-6.1,15.2-44.7,10.6-68.2-9.1c-11.4-9.1-25.8-15.9-30.3-14.4c-5.3,2.3-20.5,0-34.1-4.5c-33.3-10.6-125.8-23.5-196.3-27.3l-58.4-3
		l-26.5,81.1c-14.4,44.7-30.3,103.1-35.6,130.3c-9.9,48.5-37.9,115.9-53,125c-10.6,6.8-9.1,91.7,1.5,110.6
		c6.8,10.6,6.8,17.4,2.3,18.9c-5.3,2.3-6.1,28-2.3,77.3c11.4,143.2,20.5,198.5,36.4,221.3c17.4,25,19.7,47.7,4.5,59.9
		c-15.2,12.9-6.8,84.9,11.4,97.8c17.4,12.1,18.9,34.1,3,47c-17.4,14.4-16.7,266.8,0.8,281.1c15.2,12.1,9.1,48.5-11.4,71.2
		c-12.9,12.9-15.9,34.9-22.7,159.1c-4.5,79.6-8.3,168.2-7.6,197C6561.6,9336.8,6563.1,9342.1,6584.3,9358z M7690,9348.2
		c5.3-6.8,7.6-13.6,5.3-15.9s-7.6,3-12.9,11.4C7672.5,9362.6,7676.3,9364.1,7690,9348.2z M6246.3,9139.8c3,0,13.6-65.9,28.8-179.6
		l9.9-78.1l-18.2-16.7c-9.9-9.9-26.5-33.3-36.4-53c-15.2-30.3-16.7-38.6-9.1-55.3c11.4-25.8,5.3-29.6-30.3-18.2
		c-22,6.1-36.4,6.8-53.8,0.8c-12.9-4.5-25-6.1-26.5-3s-0.8,39.4,3,81.1c6.8,90.9,27.3,147.8,87.1,249.3
		C6224.4,9107.2,6244.8,9139.8,6246.3,9139.8z M7511.9,9086c3-4.5,3.8-9.1,1.5-11.4c-1.5-2.3-5.3,1.5-7.6,8.3
		C7500.5,9095.8,7505.1,9098.1,7511.9,9086z M6276.7,8806.3c9.9,18.2,10.6,15.9,10.6-30.3c0-44.7-0.8-47.7-10.6-34.9
		c-6.1,8.3-11.4,22-11.4,30.3C6266,8780.6,6270.6,8795.7,6276.7,8806.3z M6194.8,8707.8c27.3,0,48.5-1.5,47-3.8
		c-6.8-6.1-97.8-8.3-97.8-2.3C6144,8704.8,6166.8,8707.8,6194.8,8707.8z M6244.1,8688.9c23.5,9.1,41.7-38.6,46.2-125
		c4.5-71.2,3.8-77.3-6.1-60.6c-6.1,10.6-12.9,38.6-15.9,62.1c-5.3,47.7-14.4,51.5-22.7,9.1c-4.5-25.8-5.3-25.8-15.9-11.4
		c-15.2,22.7-26.5,19.7-17.4-3.8c4.5-10.6,7.6-20.5,7.6-21.2c0-6.1-72.8,12.9-81.1,21.2c-9.1,9.1-30.3,100-24.2,106.1
		c1.5,1.5,28.8,6.8,60.6,11.4C6206.2,8681.3,6238,8686.6,6244.1,8688.9z M6263.8,8438.8c11.4,22,39.4-21.2,39.4-61.4
		c0-40.9-12.1-49.3-18.9-12.9c-2.3,15.2-9.9,34.9-16.7,44.7C6260,8421.4,6258.5,8430.5,6263.8,8438.8z M5242.2,8101.6
		c15.9,45.5,22,55.3,18.9,34.1c-4.5-33.3-32.6-109.1-44-121.2c-4.5-5.3-6.1-2.3-3,7.6C5217.2,8030.3,5229.4,8065.9,5242.2,8101.6z
		 M5240.7,7946.2c5.3,28.8,8.3,34.9,12.9,23.5c5.3-12.9,2.3-122.8-9.9-349.4c-3-50-3-109.9-0.8-132.6s3-43.2,2.3-44.7
		c-4.5-5.3-147-12.1-147-7.6c0,2.3,9.9,27.3,22.7,54.6c31.1,69.7,71.2,204.6,94,319.8C5225.6,7864.4,5237.7,7925.8,5240.7,7946.2z
		 M6962.5,7533.2c6.8,3.8,17.4,1.5,26.5-5.3c9.1-6.1,23.5-9.1,34.9-6.8c14.4,3,22,0,25-9.1c2.3-6.8,6.8-16.7,9.1-22
		c5.3-12.1-23.5-19.7-40.9-10.6c-11.4,6.1-17.4,4.5-28-6.8c-7.6-8.3-18.2-15.2-24.2-15.2c-5.3,0-15.9-6.8-22.7-14.4
		c-6.8-8.3-15.2-13.6-18.9-11.4c-6.1,3.8-94-28-131.1-47.7c-27.3-14.4-125-55.3-131.9-55.3c-2.3,0-10.6,5.3-18.2,10.6
		c-12.1,9.1-10.6,15.2,25.8,84.9c33.3,64.4,42.4,75.8,62.9,81.1c32.6,9.1,128.8,20.5,178.8,21.2
		C6932.2,7527.1,6956.4,7530.2,6962.5,7533.2z M6319.8,7373.3c1.5-0.8,11.4-3,22-4.5c16.7-2.3,20.5-9.1,31.1-51.5l11.4-48.5
		l-34.9-11.4c-18.9-6.1-47-13.6-62.1-15.9c-24.2-4.5-28-3-31.8,12.9c-3,9.1-5.3,35.6-5.3,57.6c0,38.6,0.8,39.4,22,39.4
		c12.1,0,27.3,5.3,34.1,11.4C6312.3,7368.8,6318.3,7373.3,6319.8,7373.3z M6050.8,4576.2c6.8,1.5,9.1-4.5,6.8-22.7
		c-1.5-13.6-3-33.3-3.8-44c-0.8-16.7-2.3-17.4-9.1-5.3c-4.5,6.8-6.8,25.8-5.3,40.9S6046.3,4573.9,6050.8,4576.2z M6502.5,4495.1
		c1.5,26.5,3,36.4,3.8,22s4.5-38.6,9.1-53c7.6-26.5-2.3-52.3-11.4-28.8C6501.7,4441.3,6501,4468.6,6502.5,4495.1z"/>
	<path d="M6526,10948.7c-2.3-2.3-3-9.1-0.8-14.4c2.3-6.1,4.5-3.8,4.5,4.5C6530.5,10947.1,6528.2,10951.7,6526,10948.7z"/>
	<path d="M6607.1,10697.1c-1.5-2.3,9.9-36.4,25.8-75.8s30.3-71.2,31.8-69.7s-9.9,35.6-25.8,75.8
		C6623.7,10667.5,6609.3,10699.3,6607.1,10697.1z"/>
	<path d="M7161,10765.3c-2.3-2.3,3.8-12.1,12.9-21.2l17.4-16.7l-12.9,21.2C7170.9,10760,7163.3,10767.5,7161,10765.3z"/>
	<path d="M7192.1,10723.6c-6.1,0-1.5-6.1,14.4-19.7l17.4-14.4l-14.4,17.4C7201.2,10716,7193.6,10723.6,7192.1,10723.6z"/>
	<path d="M7220.1,10682.7c0-1.5,6.1-7.6,12.9-12.9c12.1-9.9,12.9-9.1,3,3S7220.1,10688.7,7220.1,10682.7z"/>
	<path d="M7289.1,10628.1c-2.3-1.5,2.3-9.1,9.9-16.7c12.9-12.1,13.6-12.1,3.8,3.8C7297.4,10624.3,7291.4,10630.4,7289.1,10628.1z"/>
	<path d="M7268.6,10625.1c-5.3,0,41.7-66.7,50.8-72.8c4.5-2.3-4.5,12.9-19.7,34.1S7270.1,10625.1,7268.6,10625.1z"/>
	<path d="M7311.1,10591.7c0-1.5,6.1-7.6,12.9-12.9c12.1-9.9,12.9-9.1,3,3S7311.1,10597.8,7311.1,10591.7z"/>
	<path d="M7379.3,10470.5c0-1.5,6.1-7.6,12.9-12.9c12.1-9.9,12.9-9.1,3,3S7379.3,10476.5,7379.3,10470.5z"/>
	<path d="M7409.6,10432.6c0-1.5,6.1-7.6,12.9-12.9c12.1-9.9,12.9-9.1,3,3S7409.6,10438.7,7409.6,10432.6z"/>
	<path d="M7462.6,10372c0-1.5,6.1-7.6,12.9-12.9c12.1-9.9,12.9-9.1,3,3S7462.6,10378,7462.6,10372z"/>
	<path d="M7500.5,10266.6c0-1.5,7.6-9.1,16.7-17.4l17.4-14.4l-14.4,17.4C7506.6,10268.1,7500.5,10272.7,7500.5,10266.6z"/>
	<path d="M7496,10223.4c-6.1,0-2.3-6.1,9.9-15.9s12.9-9.1,3,3C7503.6,10217.4,7497.5,10223.4,7496,10223.4z"/>
	<path d="M7599,10168.1c0-1.5,11.4-12.1,24.2-25l25-22l-22,25C7605.1,10168.9,7599,10174.2,7599,10168.1z"/>
	<path d="M7654.4,10147.7c-6.1,0,0.8-6.8,37.1-41.7l40.2-37.9l-37.9,40.2C7673.3,10129.5,7655.1,10147.7,7654.4,10147.7z"/>
	<path d="M7924.9,10053.7c0-1.5,6.1-7.6,12.9-12.9c12.1-9.9,12.9-9.1,3,3S7924.9,10059.8,7924.9,10053.7z"/>
	<path d="M7955.2,10030.2c0-1.5,7.6-6.8,16.7-11.4c16.7-8.3,16.7-7.6,3,3C7959,10034.7,7955.2,10036.3,7955.2,10030.2z"/>
	<path d="M8113.6,10003.7c-10.6,0-8.3-5.3,5.3-10.6c6.1-2.3,9.1-1.5,6.8,3S8118.1,10003.7,8113.6,10003.7z"/>
	<path d="M8633.4,9881.7c-11.4,0,28-19.7,49.3-25c10.6-2.3,5.3,2.3-11.4,9.9C8654.7,9874.8,8637.2,9881.7,8633.4,9881.7z"/>
	<path d="M8447.8,9851.4c-6.1,0.8,14.4-11.4,44.7-25.8c31.1-15.2,57.6-25,59.9-22.7c2.3,1.5-18.2,13.6-44.7,25.8
		S8453.8,9851.4,8447.8,9851.4z"/>
	<path d="M8625.9,9783.9c-4.5,0-2.3-3.8,3.8-7.6s14.4-7.6,18.9-7.6c3.8,0,2.3,3.8-3.8,7.6S8629.7,9783.9,8625.9,9783.9z"/>
	<path d="M7965.1,9723.3c-6.1,0-0.8-6.1,18.2-23.5l21.2-18.2l-18.2,21.2C7975.7,9714.2,7966.6,9723.3,7965.1,9723.3z"/>
	<path d="M8010.5,9685.4c-6.1,0-1.5-6.1,14.4-19.7l17.4-14.4l-14.4,17.4C8019.6,9677.8,8012,9685.4,8010.5,9685.4z"/>
	<path d="M7547.5,9599c-2.3-3,1.5-10.6,9.1-18.2c13.6-12.1,13.6-12.1,4.5,4.5C7556.6,9595.2,7550.5,9601.3,7547.5,9599z"/>
</g>
</svg>
