<?xml version="1.0" encoding="utf-8"?>
<!-- Generator: Adobe Illustrator 22.1.0, SVG Export Plug-In . SVG Version: 6.00 Build 0)  -->
<svg version="1.1" id="Layer_1" xmlns="http://www.w3.org/2000/svg" xmlns:xlink="http://www.w3.org/1999/xlink" x="0px" y="0px"
	 viewBox="0 0 500 500" style="enable-background:new 0 0 500 500;" xml:space="preserve">
<style type="text/css">
	.st0{fill:#FFFFFF;}
</style>
<g transform="translate(0.000000,1280.000000) scale(0.100000,-0.100000)">
	<path class="st0" d="M4534,12416.8c-45.8,26.8-110.8,33-163.8,14.7c-24.8-8.5-31.1-13.4-62.1-43.8c-32-32-35.3-36.6-45.8-66.7
		c-6.9-19.3-11.8-46.4-11.8-66v-33.3l-30.7-19c-28.8-17.7-52-40.2-283.5-271.7l-252.1-252.1l-217.4,214.2
		c-226.9,224.3-241.6,237-309.3,275.3c-71.3,39.9-121.6,45.8-139,16c-22.9-37.9,20.9-133.4,108.9-237
		c20.9-24.8,112.5-119.7,203.4-210.6l164.8-164.8l-1545.2-1545.2L405.3,8481.7l-12.4-137.3c-6.9-75.5-11.4-138.3-9.8-139.9
		s64.4,2.9,139.9,9.8l137.3,12.4l1545.2,1545.2L3750.6,11317l164.8-164.8c178.8-178.8,232.1-226.9,299.2-269.7
		c147.5-93.8,212.5-46.4,132.4,96.4c-38.3,67.7-51,82.4-275.3,309.3l-214.2,217.4l252.1,252.1c231.5,231.5,254,254.7,271.7,283.5
		l19,30.7h33.3c19.6,0,46.8,4.9,66,11.8c30.1,10.5,34.7,13.7,66.7,45.8c30.4,31.1,35.3,37.3,43.8,62.1c23.2,67.7,9.5,138.3-36,188.3
		C4560.8,12395.3,4542.8,12411.3,4534,12416.8z"/>
</g>
<g transform="translate(0.000000,1280.000000) scale(0.100000,-0.100000)">
	<path class="st0" d="M383.7,12328.3c-26.8-45.8-33-110.8-14.7-163.8c8.5-24.8,13.4-31.1,43.8-62.1c32-32,36.6-35.3,66.7-45.8
		c19.3-6.9,46.4-11.8,66-11.8h33.3l19-30.7c17.7-28.8,40.2-52,271.7-283.5l252.1-252.1l-214.2-217.4
		c-224.3-226.9-237-241.6-275.3-309.3c-39.9-71.3-45.8-121.6-16-139c37.9-22.9,133.4,20.9,237,108.9
		c24.8,20.9,119.7,112.5,210.6,203.4l164.8,164.8l1545.2-1545.2l1545.2-1545.2l137.3-12.4c75.5-6.9,138.3-11.4,139.9-9.8
		s-2.9,64.4-9.8,139.9l-12.4,137.3L3028.7,9999.8l-1545.2,1545.2l164.8,164.8c178.8,178.8,226.9,232.1,269.7,299.2
		c93.8,147.5,46.4,212.5-96.4,132.4c-67.7-38.3-82.4-51-309.3-275.3l-217.4-214.2l-252.1,252.1c-231.5,231.5-254.7,254-283.5,271.7
		l-30.7,19v33.3c0,19.6-4.9,46.8-11.8,66c-10.5,30.1-13.7,34.7-45.8,66.7c-31.1,30.4-37.3,35.3-62.1,43.8
		c-67.7,23.2-138.3,9.5-188.3-36C405.2,12355.1,389.2,12337.1,383.7,12328.3z"/>
</g>
</svg>
