<?xml version="1.0" encoding="utf-8"?>
<!-- Generator: Adobe Illustrator 22.1.0, SVG Export Plug-In . SVG Version: 6.00 Build 0)  -->
<svg version="1.1" id="Layer_1" xmlns="http://www.w3.org/2000/svg" xmlns:xlink="http://www.w3.org/1999/xlink" x="0px" y="0px"
	 viewBox="0 0 500 500" style="enable-background:new 0 0 500 500;" xml:space="preserve">
<style type="text/css">
	.st0{fill:#FFFFFF;}
</style>
<g transform="translate(0.000000,1280.000000) scale(0.100000,-0.100000)">
	<path class="st0" d="M3187.5,12673.5c-4.1-1.9-17.1-5.9-29-9.7c-11.9-3.3-45.3-20.4-74.3-37.5c-139.3-82.5-235.1-119.6-361-139.3
		c-62.4-9.7-252.9-13.4-339.8-6.7c-195.7,15.2-333.9,57.2-457.9,139.6c-53.1,35.3-70.2,43.5-102.5,50.1
		c-48.7,9.3-98.8-18.2-120-66.1c-6.3-14.5-10.4-18.2-31.2-27.5c-13-5.9-26-10.8-28.6-10.8c-3,0-16.3,8.5-29.7,18.6
		c-13.4,10.4-27.1,18.6-30.5,18.6c-3.3,0-59.4-27.1-124.4-60.2l-118.5-60.5l20.1-20.4c11.1-11.5,20.4-22.3,20.4-24.1
		c0-2.2-24.1-17.5-53.9-34.5l-53.5-30.8l-26.4,8.2c-21.2,6.3-33.1,7.8-60.5,6.3c-30.1-1.1-37.9-3-62-14.9
		c-33.4-15.6-60.9-37.5-83.2-65.7c-50.5-64.6-154.9-278.2-239.6-490.6c-111.4-278.6-174.2-516.2-185-698.2
		c-3.3-53.9,15.2-146,36.4-181.6c4.5-7.4,30.8-72.8,59.1-145.2c38.3-99.5,53.9-144.5,62.8-183.8c65-278.9,170.5-667.4,286.4-1052.6
		c24.9-82.5,44.6-152.6,43.8-156.4c-1.9-11.9-405.2-534.1-414.1-536.3c-5.9-1.5-10-8.2-15.6-25.3c-6.3-19.3-7.4-29.7-5.9-60.5
		c8.5-170.1,76.1-317.5,206.1-447.5c174.6-174.9,443.8-293.8,802.2-354.3c127.4-21.5,231.8-32.7,420.1-44.9l35.7-2.6l12.3,38.6
		c21.2,67.2,51.3,116.6,100.7,165.6c152.6,151.9,377.3,147.8,527.4-9.3c47.2-49.8,76.9-101.8,96.6-169.4c8.2-27.9,8.9-29,17.8-27.1
		c5.2,1.1,47.2,5.6,93.2,9.7c272.2,24.5,477.6,64.3,670,130c350.6,119.6,577.5,311.2,660,557.1c24.1,72.4,34.9,161.6,27.1,220.6
		c-2.2,15.6-3.3,17.1-12.6,17.1c-5.6,0-13,3.7-17.5,8.5c-9.3,10-405.9,526.3-405.9,528.1c0,0.7,20.8,70.6,46.1,154.9
		c110.7,368.1,202.8,704.2,273.7,999.8c28.6,117.7,31.2,126.3,75.8,241.8c25.6,65.7,46.4,123.3,46.4,127.8c0,4.5,2.6,13.4,5.9,19.7
		c11.5,21.9,20.1,52.4,27.5,96.6c8.2,49,9.3,80.2,3.7,117.4c-1.9,13.7-5.9,44.9-9.3,69.5c-23.4,179-104,437.1-222.1,711.2
		c-53.5,124-122.6,264.8-162.7,330.9c-32.3,53.1-65,84.7-110.7,106.6c-23.8,11.5-32.3,13.7-60.5,14.9c-23.4,1.1-39.7-0.4-57.9-4.8
		l-25.3-6.7l-54.6,31.2c-30.1,17.1-54.6,33.1-54.6,35.3s7.4,10.4,16.7,17.8c9.3,7.8,16.7,15.6,16.7,17.5
		c0,3.7-242.5,125.9-249.6,125.9c-2.6,0-14.9-7.8-26.7-16.7c-23-17.5-23.8-17.5-49.4-7.1c-9.7,4.1-14.5,10-21.9,26.7
		c-9.7,22.3-30.1,46.1-46.4,54.6C3235,12675.4,3204.2,12680.6,3187.5,12673.5z"/>
</g>
</svg>
