<?xml version="1.0" encoding="utf-8"?>
<!-- Generator: Adobe Illustrator 22.1.0, SVG Export Plug-In . SVG Version: 6.00 Build 0)  -->
<svg version="1.1" id="Layer_1" xmlns="http://www.w3.org/2000/svg" xmlns:xlink="http://www.w3.org/1999/xlink" x="0px" y="0px"
	 viewBox="0 0 24 64" style="enable-background:new 0 0 24 64;" xml:space="preserve">
<style type="text/css">
	.st0{fill:#FFFFFF;}
</style>
<g transform="translate(0.000000,1280.000000) scale(0.100000,-0.100000)">
	<path class="st0" d="M164.1,12630.8c-0.3-0.1-1.1-0.4-1.8-0.6c-0.8-0.2-2.9-1.3-4.7-2.4c-8.8-5.2-14.9-7.6-22.9-8.8
		c-4-0.6-16-0.8-21.5-0.4c-12.4,1-21.2,3.6-29,8.8c-3.4,2.2-4.4,2.8-6.5,3.2c-3.1,0.6-6.3-1.2-7.6-4.2c-0.4-0.9-0.7-1.2-2-1.7
		c-0.8-0.4-1.6-0.7-1.8-0.7c-0.2,0-1,0.5-1.9,1.2c-0.8,0.7-1.7,1.2-1.9,1.2c-0.2,0-3.8-1.7-7.9-3.8l-7.5-3.8l1.3-1.3
		c0.7-0.7,1.3-1.4,1.3-1.5c0-0.1-1.5-1.1-3.4-2.2l-3.4-2l-1.7,0.5c-1.3,0.4-2.1,0.5-3.8,0.4c-1.9-0.1-2.4-0.2-3.9-0.9
		c-2.1-1-3.9-2.4-5.3-4.2c-3.2-4.1-9.8-17.6-15.2-31.1c-7.1-17.6-11-32.7-11.7-44.2c-0.2-3.4,1-9.2,2.3-11.5c0.3-0.5,2-4.6,3.7-9.2
		c2.4-6.3,3.4-9.2,4-11.6c4.1-17.7,10.8-42.3,18.1-66.7c1.6-5.2,2.8-9.7,2.8-9.9c-0.1-0.8-25.7-33.8-26.2-34c-0.4-0.1-0.6-0.5-1-1.6
		c-0.4-1.2-0.5-1.9-0.4-3.8c0.5-10.8,4.8-20.1,13.1-28.4c11.1-11.1,28.1-18.6,50.8-22.4c8.1-1.4,14.7-2.1,26.6-2.8l2.3-0.2l0.8,2.4
		c1.3,4.3,3.2,7.4,6.4,10.5c9.7,9.6,23.9,9.4,33.4-0.6c3-3.2,4.9-6.4,6.1-10.7c0.5-1.8,0.6-1.8,1.1-1.7c0.3,0.1,3,0.4,5.9,0.6
		c17.2,1.6,30.3,4.1,42.4,8.2c22.2,7.6,36.6,19.7,41.8,35.3c1.5,4.6,2.2,10.2,1.7,14c-0.1,1-0.2,1.1-0.8,1.1c-0.4,0-0.8,0.2-1.1,0.5
		c-0.6,0.6-25.7,33.3-25.7,33.5c0,0,1.3,4.5,2.9,9.8c7,23.3,12.8,44.6,17.3,63.3c1.8,7.5,2,8,4.8,15.3c1.6,4.2,2.9,7.8,2.9,8.1
		c0,0.3,0.2,0.8,0.4,1.2c0.7,1.4,1.3,3.3,1.7,6.1c0.5,3.1,0.6,5.1,0.2,7.4c-0.1,0.9-0.4,2.8-0.6,4.4c-1.5,11.3-6.6,27.7-14.1,45.1
		c-3.4,7.9-7.8,16.8-10.3,21c-2,3.4-4.1,5.4-7,6.8c-1.5,0.7-2,0.9-3.8,0.9c-1.5,0.1-2.5,0-3.7-0.3l-1.6-0.4l-3.5,2
		c-1.9,1.1-3.5,2.1-3.5,2.2c0,0.1,0.5,0.7,1.1,1.1c0.6,0.5,1.1,1,1.1,1.1c0,0.2-15.4,8-15.8,8c-0.2,0-0.9-0.5-1.7-1.1
		c-1.5-1.1-1.5-1.1-3.1-0.4c-0.6,0.3-0.9,0.6-1.4,1.7c-0.6,1.4-1.9,2.9-2.9,3.5C167.1,12630.9,165.2,12631.2,164.1,12630.8z"/>
</g>
</svg>
