<?xml version="1.0" encoding="utf-8"?>
<!-- Generator: Adobe Illustrator 22.1.0, SVG Export Plug-In . SVG Version: 6.00 Build 0)  -->
<svg version="1.1" id="Layer_1" xmlns="http://www.w3.org/2000/svg" xmlns:xlink="http://www.w3.org/1999/xlink" x="0px" y="0px"
	 viewBox="0 0 500 500" style="enable-background:new 0 0 500 500;" xml:space="preserve">
<style type="text/css">
	.st0{fill:#FFFFFF;}
</style>
<path class="st0" d="M161.6,382.6c-24.3,0-44,19.9-44,44.2c0,24.3,19.7,44.2,44,44.2s44.2-19.9,44.2-44.2
	C205.8,402.5,185.9,382.6,161.6,382.6z M29,29v44.2h44.2l79.6,167.7l-29.8,54.1c-3.5,6.2-5.5,13.5-5.5,21.2
	c0,24.3,19.9,44.2,44.2,44.2h265.2v-44.2H170.9c-3.1,0-5.5-2.4-5.5-5.5l0.7-2.7l19.9-36h164.6c16.6,0,31.2-9.1,38.7-22.8l79.1-143.4
	c1.8-3.1,2.7-6.9,2.7-10.6c0-12.2-9.9-22.1-22.1-22.1H122L101.3,29C101.3,29,29,29,29,29z M382.6,382.6c-24.3,0-44,19.9-44,44.2
	c0,24.3,19.7,44.2,44,44.2c24.3,0,44.2-19.9,44.2-44.2C426.8,402.5,406.9,382.6,382.6,382.6z"/>
</svg>
